%TF.GenerationSoftware,KiCad,Pcbnew,(5.1.10)-1*%
%TF.CreationDate,2021-10-19T15:37:26-04:00*%
%TF.ProjectId,BattTester,42617474-5465-4737-9465-722e6b696361,rev?*%
%TF.SameCoordinates,Original*%
%TF.FileFunction,Soldermask,Bot*%
%TF.FilePolarity,Negative*%
%FSLAX46Y46*%
G04 Gerber Fmt 4.6, Leading zero omitted, Abs format (unit mm)*
G04 Created by KiCad (PCBNEW (5.1.10)-1) date 2021-10-19 15:37:26*
%MOMM*%
%LPD*%
G01*
G04 APERTURE LIST*
%ADD10C,2.800000*%
%ADD11O,2.800000X2.800000*%
%ADD12O,1.905000X2.000000*%
%ADD13R,1.905000X2.000000*%
%ADD14C,1.524000*%
%ADD15C,3.200000*%
%ADD16O,1.700000X1.700000*%
%ADD17R,1.700000X1.700000*%
%ADD18C,1.100000*%
%ADD19C,1.600000*%
%ADD20O,2.400000X2.400000*%
%ADD21R,2.400000X2.400000*%
%ADD22C,1.700000*%
G04 APERTURE END LIST*
D10*
%TO.C,R3*%
X145415000Y-66675000D03*
D11*
X160655000Y-66675000D03*
D10*
X145415000Y-73025000D03*
D11*
X160655000Y-73025000D03*
D10*
X145415000Y-79375000D03*
D11*
X160655000Y-79375000D03*
D10*
X145415000Y-85725000D03*
D11*
X160655000Y-85725000D03*
D10*
X145415000Y-92075000D03*
D11*
X160655000Y-92075000D03*
D10*
X145415000Y-98425000D03*
D11*
X160655000Y-98425000D03*
D10*
X145415000Y-104775000D03*
D11*
X160655000Y-104775000D03*
D10*
X145415000Y-111125000D03*
D11*
X160655000Y-111125000D03*
D10*
X145415000Y-117475000D03*
D11*
X160655000Y-117475000D03*
X160655000Y-123825000D03*
D10*
X145415000Y-123825000D03*
%TD*%
D12*
%TO.C,Q2*%
X166370000Y-120650000D03*
X168910000Y-120650000D03*
D13*
X171450000Y-120650000D03*
%TD*%
D14*
%TO.C,U4*%
X177292000Y-82550000D03*
X177292000Y-85090000D03*
X177292000Y-87630000D03*
X177292000Y-90170000D03*
X169672000Y-90170000D03*
X169672000Y-87630000D03*
X169672000Y-85090000D03*
X169672000Y-82550000D03*
%TD*%
%TO.C,U1*%
X172593000Y-104140000D03*
X172593000Y-106680000D03*
X172593000Y-109220000D03*
X172593000Y-111760000D03*
X164973000Y-111760000D03*
X164973000Y-109220000D03*
X164973000Y-106680000D03*
X164973000Y-104140000D03*
%TD*%
D15*
%TO.C,REF\u002A\u002A*%
X208280000Y-67310000D03*
%TD*%
%TO.C,REF\u002A\u002A*%
X184785000Y-67310000D03*
%TD*%
%TO.C,REF\u002A\u002A*%
X180340000Y-123190000D03*
%TD*%
%TO.C,REF\u002A\u002A*%
X234950000Y-123190000D03*
%TD*%
D16*
%TO.C,J1*%
X141605000Y-107315000D03*
D17*
X141605000Y-109855000D03*
%TD*%
D16*
%TO.C,RV1*%
X165735000Y-90170000D03*
X165735000Y-87630000D03*
D17*
X165735000Y-85090000D03*
%TD*%
D12*
%TO.C,Q1*%
X179070000Y-72898000D03*
X176530000Y-72898000D03*
D13*
X173990000Y-72898000D03*
%TD*%
D16*
%TO.C,JP1*%
X153035000Y-114935000D03*
D17*
X153035000Y-117475000D03*
%TD*%
D16*
%TO.C,J4*%
X202311000Y-119634000D03*
X204851000Y-119634000D03*
D17*
X207391000Y-119634000D03*
%TD*%
D16*
%TO.C,J3*%
X193040000Y-70612000D03*
D17*
X190500000Y-70612000D03*
%TD*%
D18*
%TO.C,J2*%
X215615000Y-95955000D03*
D19*
X215615000Y-74955000D03*
%TD*%
D20*
%TO.C,D3*%
X182880000Y-92456000D03*
D21*
X182880000Y-82296000D03*
%TD*%
D22*
%TO.C,A1*%
X195580000Y-100330000D03*
X195580000Y-102870000D03*
X195580000Y-105410000D03*
X195580000Y-107950000D03*
X195580000Y-110490000D03*
X195580000Y-113030000D03*
X185420000Y-113030000D03*
X185420000Y-110490000D03*
X185420000Y-107950000D03*
X185420000Y-105410000D03*
X185420000Y-102870000D03*
X185420000Y-100330000D03*
%TD*%
M02*
