%TF.GenerationSoftware,KiCad,Pcbnew,(5.1.9)-1*%
%TF.CreationDate,2021-10-17T20:04:12-04:00*%
%TF.ProjectId,BattTester,42617474-5465-4737-9465-722e6b696361,rev?*%
%TF.SameCoordinates,Original*%
%TF.FileFunction,Copper,L2,Bot*%
%TF.FilePolarity,Positive*%
%FSLAX46Y46*%
G04 Gerber Fmt 4.6, Leading zero omitted, Abs format (unit mm)*
G04 Created by KiCad (PCBNEW (5.1.9)-1) date 2021-10-17 20:04:12*
%MOMM*%
%LPD*%
G01*
G04 APERTURE LIST*
%TA.AperFunction,ComponentPad*%
%ADD10C,1.524000*%
%TD*%
%TA.AperFunction,ComponentPad*%
%ADD11O,1.700000X1.700000*%
%TD*%
%TA.AperFunction,ComponentPad*%
%ADD12R,1.700000X1.700000*%
%TD*%
%TA.AperFunction,ComponentPad*%
%ADD13O,2.400000X2.400000*%
%TD*%
%TA.AperFunction,ComponentPad*%
%ADD14C,2.400000*%
%TD*%
%TA.AperFunction,ComponentPad*%
%ADD15O,1.905000X2.000000*%
%TD*%
%TA.AperFunction,ComponentPad*%
%ADD16R,1.905000X2.000000*%
%TD*%
%TA.AperFunction,ComponentPad*%
%ADD17R,2.400000X2.400000*%
%TD*%
%TA.AperFunction,ComponentPad*%
%ADD18C,1.700000*%
%TD*%
%TA.AperFunction,ViaPad*%
%ADD19C,0.800000*%
%TD*%
%TA.AperFunction,ViaPad*%
%ADD20C,1.000000*%
%TD*%
%TA.AperFunction,Conductor*%
%ADD21C,0.381000*%
%TD*%
%TA.AperFunction,Conductor*%
%ADD22C,0.254000*%
%TD*%
%TA.AperFunction,Conductor*%
%ADD23C,0.100000*%
%TD*%
G04 APERTURE END LIST*
D10*
%TO.P,U4,8*%
%TO.N,+9V*%
X174752000Y-82550000D03*
%TO.P,U4,7*%
%TO.N,N/C*%
X174752000Y-85090000D03*
%TO.P,U4,6*%
X174752000Y-87630000D03*
%TO.P,U4,5*%
X174752000Y-90170000D03*
%TO.P,U4,4*%
%TO.N,GND*%
X167132000Y-90170000D03*
%TO.P,U4,3*%
%TO.N,Net-(RV1-Pad2)*%
X167132000Y-87630000D03*
%TO.P,U4,2*%
%TO.N,Net-(Q1-Pad3)*%
X167132000Y-85090000D03*
%TO.P,U4,1*%
%TO.N,Net-(Q1-Pad1)*%
X167132000Y-82550000D03*
%TD*%
%TO.P,U1,8*%
%TO.N,+9V*%
X172593000Y-104140000D03*
%TO.P,U1,7*%
%TO.N,Net-(A1-Pad1)*%
X172593000Y-106680000D03*
%TO.P,U1,6*%
%TO.N,Net-(A1-Pad2)*%
X172593000Y-109220000D03*
%TO.P,U1,5*%
%TO.N,Net-(A1-Pad6)*%
X172593000Y-111760000D03*
%TO.P,U1,4*%
%TO.N,GND*%
X164973000Y-111760000D03*
%TO.P,U1,3*%
X164973000Y-109220000D03*
%TO.P,U1,2*%
%TO.N,/B+*%
X164973000Y-106680000D03*
%TO.P,U1,1*%
%TO.N,+9V*%
X164973000Y-104140000D03*
%TD*%
D11*
%TO.P,J1,2*%
%TO.N,GND*%
X141605000Y-109220000D03*
D12*
%TO.P,J1,1*%
%TO.N,/B+*%
X141605000Y-106680000D03*
%TD*%
D11*
%TO.P,RV1,3*%
%TO.N,GND*%
X163195000Y-90170000D03*
%TO.P,RV1,2*%
%TO.N,Net-(RV1-Pad2)*%
X163195000Y-87630000D03*
D12*
%TO.P,RV1,1*%
%TO.N,+9V*%
X163195000Y-85090000D03*
%TD*%
D13*
%TO.P,R3,2*%
%TO.N,Net-(JP1-Pad1)*%
X154559000Y-122936000D03*
D14*
%TO.P,R3,1*%
%TO.N,Net-(Q1-Pad3)*%
X154559000Y-67056000D03*
%TD*%
D15*
%TO.P,Q1,3*%
%TO.N,Net-(Q1-Pad3)*%
X179070000Y-72898000D03*
%TO.P,Q1,2*%
%TO.N,/B+*%
X176530000Y-72898000D03*
D16*
%TO.P,Q1,1*%
%TO.N,Net-(Q1-Pad1)*%
X173990000Y-72898000D03*
%TD*%
D11*
%TO.P,JP1,2*%
%TO.N,GND*%
X166624000Y-122936000D03*
D12*
%TO.P,JP1,1*%
%TO.N,Net-(JP1-Pad1)*%
X164084000Y-122936000D03*
%TD*%
D11*
%TO.P,J4,3*%
%TO.N,GND*%
X202311000Y-119634000D03*
%TO.P,J4,2*%
%TO.N,Net-(J4-Pad2)*%
X204851000Y-119634000D03*
D12*
%TO.P,J4,1*%
%TO.N,+3V3*%
X207391000Y-119634000D03*
%TD*%
D11*
%TO.P,J3,2*%
%TO.N,GND*%
X193040000Y-70612000D03*
D12*
%TO.P,J3,1*%
%TO.N,+9V*%
X190500000Y-70612000D03*
%TD*%
D13*
%TO.P,D3,2*%
%TO.N,+3V3*%
X182880000Y-92456000D03*
D17*
%TO.P,D3,1*%
%TO.N,+9V*%
X182880000Y-82296000D03*
%TD*%
D18*
%TO.P,A1,12*%
%TO.N,/SPI-SCK*%
X195580000Y-100330000D03*
%TO.P,A1,11*%
%TO.N,/SPI-MISO*%
X195580000Y-102870000D03*
%TO.P,A1,10*%
%TO.N,GND*%
X195580000Y-105410000D03*
%TO.P,A1,9*%
%TO.N,+3V3*%
X195580000Y-107950000D03*
%TO.P,A1,8*%
%TO.N,N/C*%
X195580000Y-110490000D03*
%TO.P,A1,7*%
%TO.N,/SPI-CS0*%
X195580000Y-113030000D03*
%TO.P,A1,6*%
%TO.N,Net-(A1-Pad6)*%
X185420000Y-113030000D03*
%TO.P,A1,5*%
%TO.N,N/C*%
X185420000Y-110490000D03*
%TO.P,A1,4*%
%TO.N,+9V*%
X185420000Y-107950000D03*
%TO.P,A1,3*%
%TO.N,GND*%
X185420000Y-105410000D03*
%TO.P,A1,2*%
%TO.N,Net-(A1-Pad2)*%
X185420000Y-102870000D03*
%TO.P,A1,1*%
%TO.N,Net-(A1-Pad1)*%
X185420000Y-100330000D03*
%TD*%
D19*
%TO.N,/SPI-MISO*%
X207010000Y-102869994D03*
D20*
%TO.N,GND*%
X165100000Y-97790000D03*
X179705000Y-97790000D03*
X152400000Y-71755000D03*
X151765000Y-83185000D03*
X151765000Y-92710000D03*
X151765000Y-100965000D03*
X211455000Y-90805000D03*
X208915000Y-97790000D03*
D19*
%TO.N,/SPI-SCK*%
X207010000Y-100330000D03*
%TO.N,/SPI-MOSI*%
X214630000Y-93980000D03*
X212725000Y-101600000D03*
%TD*%
D21*
%TO.N,/SPI-MISO*%
X206375000Y-102870000D02*
X206375000Y-102870000D01*
X195580000Y-102870000D02*
X207009994Y-102870000D01*
X207009994Y-102870000D02*
X207010000Y-102869994D01*
%TO.N,/SPI-SCK*%
X206375000Y-100330000D02*
X206375000Y-100330000D01*
X195580000Y-100330000D02*
X207010000Y-100330000D01*
%TO.N,/SPI-MOSI*%
X214630000Y-93980000D02*
X214630000Y-94615000D01*
X214630000Y-94615000D02*
X213995000Y-95250000D01*
X213995000Y-95250000D02*
X213995000Y-100330000D01*
X213995000Y-100330000D02*
X212725000Y-101600000D01*
X212725000Y-101600000D02*
X212725000Y-101600000D01*
%TD*%
D22*
%TO.N,GND*%
X153389256Y-65630662D02*
X153133662Y-65886256D01*
X152932844Y-66186801D01*
X152794518Y-66520750D01*
X152724000Y-66875268D01*
X152724000Y-67236732D01*
X152794518Y-67591250D01*
X152932844Y-67925199D01*
X153133662Y-68225744D01*
X153389256Y-68481338D01*
X153689801Y-68682156D01*
X154023750Y-68820482D01*
X154378268Y-68891000D01*
X154739732Y-68891000D01*
X155094250Y-68820482D01*
X155428199Y-68682156D01*
X155728744Y-68481338D01*
X155984338Y-68225744D01*
X156185156Y-67925199D01*
X156323482Y-67591250D01*
X156394000Y-67236732D01*
X156394000Y-66875268D01*
X156323482Y-66520750D01*
X156185156Y-66186801D01*
X155984338Y-65886256D01*
X155728744Y-65630662D01*
X155581086Y-65532000D01*
X182118000Y-65532000D01*
X182118000Y-77417394D01*
X180250197Y-79285197D01*
X180234403Y-79304443D01*
X180222667Y-79326399D01*
X180215440Y-79350224D01*
X180213000Y-79375000D01*
X180213000Y-93292394D01*
X175170197Y-98335197D01*
X175154403Y-98354443D01*
X175142667Y-98376399D01*
X175135440Y-98400224D01*
X175133000Y-98425000D01*
X175133000Y-124968000D01*
X139827000Y-124968000D01*
X139827000Y-121699872D01*
X140640000Y-121699872D01*
X140640000Y-122140128D01*
X140725890Y-122571925D01*
X140894369Y-122978669D01*
X141138962Y-123344729D01*
X141450271Y-123656038D01*
X141816331Y-123900631D01*
X142223075Y-124069110D01*
X142654872Y-124155000D01*
X143095128Y-124155000D01*
X143526925Y-124069110D01*
X143933669Y-123900631D01*
X144299729Y-123656038D01*
X144611038Y-123344729D01*
X144855631Y-122978669D01*
X144948166Y-122755268D01*
X152724000Y-122755268D01*
X152724000Y-123116732D01*
X152794518Y-123471250D01*
X152932844Y-123805199D01*
X153133662Y-124105744D01*
X153389256Y-124361338D01*
X153689801Y-124562156D01*
X154023750Y-124700482D01*
X154378268Y-124771000D01*
X154739732Y-124771000D01*
X155094250Y-124700482D01*
X155428199Y-124562156D01*
X155728744Y-124361338D01*
X155984338Y-124105744D01*
X156185156Y-123805199D01*
X156323482Y-123471250D01*
X156394000Y-123116732D01*
X156394000Y-122755268D01*
X156323482Y-122400750D01*
X156193109Y-122086000D01*
X162595928Y-122086000D01*
X162595928Y-123786000D01*
X162608188Y-123910482D01*
X162644498Y-124030180D01*
X162703463Y-124140494D01*
X162782815Y-124237185D01*
X162879506Y-124316537D01*
X162989820Y-124375502D01*
X163109518Y-124411812D01*
X163234000Y-124424072D01*
X164934000Y-124424072D01*
X165058482Y-124411812D01*
X165178180Y-124375502D01*
X165288494Y-124316537D01*
X165385185Y-124237185D01*
X165464537Y-124140494D01*
X165523502Y-124030180D01*
X165547090Y-123952421D01*
X165722009Y-124115688D01*
X165969486Y-124268990D01*
X166144245Y-124341368D01*
X166370000Y-124237700D01*
X166370000Y-123190000D01*
X166878000Y-123190000D01*
X166878000Y-124237700D01*
X167103755Y-124341368D01*
X167278514Y-124268990D01*
X167525991Y-124115688D01*
X167738805Y-123917051D01*
X167908778Y-123680713D01*
X168029378Y-123415756D01*
X167928376Y-123190000D01*
X166878000Y-123190000D01*
X166370000Y-123190000D01*
X166350000Y-123190000D01*
X166350000Y-122682000D01*
X166370000Y-122682000D01*
X166370000Y-121634300D01*
X166878000Y-121634300D01*
X166878000Y-122682000D01*
X167928376Y-122682000D01*
X168029378Y-122456244D01*
X167908778Y-122191287D01*
X167738805Y-121954949D01*
X167525991Y-121756312D01*
X167278514Y-121603010D01*
X167103755Y-121530632D01*
X166878000Y-121634300D01*
X166370000Y-121634300D01*
X166144245Y-121530632D01*
X165969486Y-121603010D01*
X165722009Y-121756312D01*
X165547090Y-121919579D01*
X165523502Y-121841820D01*
X165464537Y-121731506D01*
X165385185Y-121634815D01*
X165288494Y-121555463D01*
X165178180Y-121496498D01*
X165058482Y-121460188D01*
X164934000Y-121447928D01*
X163234000Y-121447928D01*
X163109518Y-121460188D01*
X162989820Y-121496498D01*
X162879506Y-121555463D01*
X162782815Y-121634815D01*
X162703463Y-121731506D01*
X162644498Y-121841820D01*
X162608188Y-121961518D01*
X162595928Y-122086000D01*
X156193109Y-122086000D01*
X156185156Y-122066801D01*
X155984338Y-121766256D01*
X155728744Y-121510662D01*
X155428199Y-121309844D01*
X155094250Y-121171518D01*
X154739732Y-121101000D01*
X154378268Y-121101000D01*
X154023750Y-121171518D01*
X153689801Y-121309844D01*
X153389256Y-121510662D01*
X153133662Y-121766256D01*
X152932844Y-122066801D01*
X152794518Y-122400750D01*
X152724000Y-122755268D01*
X144948166Y-122755268D01*
X145024110Y-122571925D01*
X145110000Y-122140128D01*
X145110000Y-121699872D01*
X145024110Y-121268075D01*
X144855631Y-120861331D01*
X144611038Y-120495271D01*
X144299729Y-120183962D01*
X143933669Y-119939369D01*
X143526925Y-119770890D01*
X143095128Y-119685000D01*
X142654872Y-119685000D01*
X142223075Y-119770890D01*
X141816331Y-119939369D01*
X141450271Y-120183962D01*
X141138962Y-120495271D01*
X140894369Y-120861331D01*
X140725890Y-121268075D01*
X140640000Y-121699872D01*
X139827000Y-121699872D01*
X139827000Y-112801444D01*
X164290766Y-112801444D01*
X164367001Y-113026216D01*
X164625671Y-113120111D01*
X164897690Y-113161737D01*
X165172602Y-113149495D01*
X165439843Y-113083855D01*
X165578999Y-113026216D01*
X165655234Y-112801444D01*
X164973000Y-112119210D01*
X164290766Y-112801444D01*
X139827000Y-112801444D01*
X139827000Y-111684690D01*
X163571263Y-111684690D01*
X163583505Y-111959602D01*
X163649145Y-112226843D01*
X163706784Y-112365999D01*
X163931556Y-112442234D01*
X164613790Y-111760000D01*
X165332210Y-111760000D01*
X166014444Y-112442234D01*
X166239216Y-112365999D01*
X166333111Y-112107329D01*
X166374737Y-111835310D01*
X166362495Y-111560398D01*
X166296855Y-111293157D01*
X166239216Y-111154001D01*
X166014444Y-111077766D01*
X165332210Y-111760000D01*
X164613790Y-111760000D01*
X163931556Y-111077766D01*
X163706784Y-111154001D01*
X163612889Y-111412671D01*
X163571263Y-111684690D01*
X139827000Y-111684690D01*
X139827000Y-109699755D01*
X140199632Y-109699755D01*
X140272010Y-109874514D01*
X140425312Y-110121991D01*
X140623949Y-110334805D01*
X140860287Y-110504778D01*
X141125244Y-110625378D01*
X141351000Y-110524376D01*
X141351000Y-109474000D01*
X141859000Y-109474000D01*
X141859000Y-110524376D01*
X142084756Y-110625378D01*
X142349713Y-110504778D01*
X142586051Y-110334805D01*
X142654524Y-110261444D01*
X164290766Y-110261444D01*
X164367001Y-110486216D01*
X164376739Y-110489751D01*
X164367001Y-110493784D01*
X164290766Y-110718556D01*
X164973000Y-111400790D01*
X165655234Y-110718556D01*
X165578999Y-110493784D01*
X165569261Y-110490249D01*
X165578999Y-110486216D01*
X165655234Y-110261444D01*
X164973000Y-109579210D01*
X164290766Y-110261444D01*
X142654524Y-110261444D01*
X142784688Y-110121991D01*
X142937990Y-109874514D01*
X143010368Y-109699755D01*
X142906700Y-109474000D01*
X141859000Y-109474000D01*
X141351000Y-109474000D01*
X140303300Y-109474000D01*
X140199632Y-109699755D01*
X139827000Y-109699755D01*
X139827000Y-109144690D01*
X163571263Y-109144690D01*
X163583505Y-109419602D01*
X163649145Y-109686843D01*
X163706784Y-109825999D01*
X163931556Y-109902234D01*
X164613790Y-109220000D01*
X165332210Y-109220000D01*
X166014444Y-109902234D01*
X166239216Y-109825999D01*
X166333111Y-109567329D01*
X166374737Y-109295310D01*
X166362495Y-109020398D01*
X166296855Y-108753157D01*
X166239216Y-108614001D01*
X166014444Y-108537766D01*
X165332210Y-109220000D01*
X164613790Y-109220000D01*
X163931556Y-108537766D01*
X163706784Y-108614001D01*
X163612889Y-108872671D01*
X163571263Y-109144690D01*
X139827000Y-109144690D01*
X139827000Y-105830000D01*
X140116928Y-105830000D01*
X140116928Y-107530000D01*
X140129188Y-107654482D01*
X140165498Y-107774180D01*
X140224463Y-107884494D01*
X140303815Y-107981185D01*
X140400506Y-108060537D01*
X140510820Y-108119502D01*
X140588579Y-108143090D01*
X140425312Y-108318009D01*
X140272010Y-108565486D01*
X140199632Y-108740245D01*
X140303300Y-108966000D01*
X141351000Y-108966000D01*
X141351000Y-108946000D01*
X141859000Y-108946000D01*
X141859000Y-108966000D01*
X142906700Y-108966000D01*
X143010368Y-108740245D01*
X142937990Y-108565486D01*
X142784688Y-108318009D01*
X142621421Y-108143090D01*
X142699180Y-108119502D01*
X142809494Y-108060537D01*
X142906185Y-107981185D01*
X142985537Y-107884494D01*
X143044502Y-107774180D01*
X143080812Y-107654482D01*
X143093072Y-107530000D01*
X143093072Y-105830000D01*
X143080812Y-105705518D01*
X143044502Y-105585820D01*
X142985537Y-105475506D01*
X142906185Y-105378815D01*
X142809494Y-105299463D01*
X142699180Y-105240498D01*
X142579482Y-105204188D01*
X142455000Y-105191928D01*
X140755000Y-105191928D01*
X140630518Y-105204188D01*
X140510820Y-105240498D01*
X140400506Y-105299463D01*
X140303815Y-105378815D01*
X140224463Y-105475506D01*
X140165498Y-105585820D01*
X140129188Y-105705518D01*
X140116928Y-105830000D01*
X139827000Y-105830000D01*
X139827000Y-104002408D01*
X163576000Y-104002408D01*
X163576000Y-104277592D01*
X163629686Y-104547490D01*
X163734995Y-104801727D01*
X163887880Y-105030535D01*
X164082465Y-105225120D01*
X164311273Y-105378005D01*
X164388515Y-105410000D01*
X164311273Y-105441995D01*
X164082465Y-105594880D01*
X163887880Y-105789465D01*
X163734995Y-106018273D01*
X163629686Y-106272510D01*
X163576000Y-106542408D01*
X163576000Y-106817592D01*
X163629686Y-107087490D01*
X163734995Y-107341727D01*
X163887880Y-107570535D01*
X164082465Y-107765120D01*
X164311273Y-107918005D01*
X164382326Y-107947436D01*
X164367001Y-107953784D01*
X164290766Y-108178556D01*
X164973000Y-108860790D01*
X165655234Y-108178556D01*
X165578999Y-107953784D01*
X165562664Y-107947855D01*
X165634727Y-107918005D01*
X165863535Y-107765120D01*
X166058120Y-107570535D01*
X166211005Y-107341727D01*
X166316314Y-107087490D01*
X166370000Y-106817592D01*
X166370000Y-106542408D01*
X166316314Y-106272510D01*
X166211005Y-106018273D01*
X166058120Y-105789465D01*
X165863535Y-105594880D01*
X165634727Y-105441995D01*
X165557485Y-105410000D01*
X165634727Y-105378005D01*
X165863535Y-105225120D01*
X166058120Y-105030535D01*
X166211005Y-104801727D01*
X166316314Y-104547490D01*
X166370000Y-104277592D01*
X166370000Y-104002408D01*
X171196000Y-104002408D01*
X171196000Y-104277592D01*
X171249686Y-104547490D01*
X171354995Y-104801727D01*
X171507880Y-105030535D01*
X171702465Y-105225120D01*
X171931273Y-105378005D01*
X172008515Y-105410000D01*
X171931273Y-105441995D01*
X171702465Y-105594880D01*
X171507880Y-105789465D01*
X171354995Y-106018273D01*
X171249686Y-106272510D01*
X171196000Y-106542408D01*
X171196000Y-106817592D01*
X171249686Y-107087490D01*
X171354995Y-107341727D01*
X171507880Y-107570535D01*
X171702465Y-107765120D01*
X171931273Y-107918005D01*
X172008515Y-107950000D01*
X171931273Y-107981995D01*
X171702465Y-108134880D01*
X171507880Y-108329465D01*
X171354995Y-108558273D01*
X171249686Y-108812510D01*
X171196000Y-109082408D01*
X171196000Y-109357592D01*
X171249686Y-109627490D01*
X171354995Y-109881727D01*
X171507880Y-110110535D01*
X171702465Y-110305120D01*
X171931273Y-110458005D01*
X172008515Y-110490000D01*
X171931273Y-110521995D01*
X171702465Y-110674880D01*
X171507880Y-110869465D01*
X171354995Y-111098273D01*
X171249686Y-111352510D01*
X171196000Y-111622408D01*
X171196000Y-111897592D01*
X171249686Y-112167490D01*
X171354995Y-112421727D01*
X171507880Y-112650535D01*
X171702465Y-112845120D01*
X171931273Y-112998005D01*
X172185510Y-113103314D01*
X172455408Y-113157000D01*
X172730592Y-113157000D01*
X173000490Y-113103314D01*
X173254727Y-112998005D01*
X173483535Y-112845120D01*
X173678120Y-112650535D01*
X173831005Y-112421727D01*
X173936314Y-112167490D01*
X173990000Y-111897592D01*
X173990000Y-111622408D01*
X173936314Y-111352510D01*
X173831005Y-111098273D01*
X173678120Y-110869465D01*
X173483535Y-110674880D01*
X173254727Y-110521995D01*
X173177485Y-110490000D01*
X173254727Y-110458005D01*
X173483535Y-110305120D01*
X173678120Y-110110535D01*
X173831005Y-109881727D01*
X173936314Y-109627490D01*
X173990000Y-109357592D01*
X173990000Y-109082408D01*
X173936314Y-108812510D01*
X173831005Y-108558273D01*
X173678120Y-108329465D01*
X173483535Y-108134880D01*
X173254727Y-107981995D01*
X173177485Y-107950000D01*
X173254727Y-107918005D01*
X173483535Y-107765120D01*
X173678120Y-107570535D01*
X173831005Y-107341727D01*
X173936314Y-107087490D01*
X173990000Y-106817592D01*
X173990000Y-106542408D01*
X173936314Y-106272510D01*
X173831005Y-106018273D01*
X173678120Y-105789465D01*
X173483535Y-105594880D01*
X173254727Y-105441995D01*
X173177485Y-105410000D01*
X173254727Y-105378005D01*
X173483535Y-105225120D01*
X173678120Y-105030535D01*
X173831005Y-104801727D01*
X173936314Y-104547490D01*
X173990000Y-104277592D01*
X173990000Y-104002408D01*
X173936314Y-103732510D01*
X173831005Y-103478273D01*
X173678120Y-103249465D01*
X173483535Y-103054880D01*
X173254727Y-102901995D01*
X173000490Y-102796686D01*
X172730592Y-102743000D01*
X172455408Y-102743000D01*
X172185510Y-102796686D01*
X171931273Y-102901995D01*
X171702465Y-103054880D01*
X171507880Y-103249465D01*
X171354995Y-103478273D01*
X171249686Y-103732510D01*
X171196000Y-104002408D01*
X166370000Y-104002408D01*
X166316314Y-103732510D01*
X166211005Y-103478273D01*
X166058120Y-103249465D01*
X165863535Y-103054880D01*
X165634727Y-102901995D01*
X165380490Y-102796686D01*
X165110592Y-102743000D01*
X164835408Y-102743000D01*
X164565510Y-102796686D01*
X164311273Y-102901995D01*
X164082465Y-103054880D01*
X163887880Y-103249465D01*
X163734995Y-103478273D01*
X163629686Y-103732510D01*
X163576000Y-104002408D01*
X139827000Y-104002408D01*
X139827000Y-90649755D01*
X161789632Y-90649755D01*
X161862010Y-90824514D01*
X162015312Y-91071991D01*
X162213949Y-91284805D01*
X162450287Y-91454778D01*
X162715244Y-91575378D01*
X162941000Y-91474376D01*
X162941000Y-90424000D01*
X163449000Y-90424000D01*
X163449000Y-91474376D01*
X163674756Y-91575378D01*
X163939713Y-91454778D01*
X164176051Y-91284805D01*
X164244524Y-91211444D01*
X166449766Y-91211444D01*
X166526001Y-91436216D01*
X166784671Y-91530111D01*
X167056690Y-91571737D01*
X167331602Y-91559495D01*
X167598843Y-91493855D01*
X167737999Y-91436216D01*
X167814234Y-91211444D01*
X167132000Y-90529210D01*
X166449766Y-91211444D01*
X164244524Y-91211444D01*
X164374688Y-91071991D01*
X164527990Y-90824514D01*
X164600368Y-90649755D01*
X164496700Y-90424000D01*
X163449000Y-90424000D01*
X162941000Y-90424000D01*
X161893300Y-90424000D01*
X161789632Y-90649755D01*
X139827000Y-90649755D01*
X139827000Y-90094690D01*
X165730263Y-90094690D01*
X165742505Y-90369602D01*
X165808145Y-90636843D01*
X165865784Y-90775999D01*
X166090556Y-90852234D01*
X166772790Y-90170000D01*
X167491210Y-90170000D01*
X168173444Y-90852234D01*
X168398216Y-90775999D01*
X168492111Y-90517329D01*
X168533737Y-90245310D01*
X168521495Y-89970398D01*
X168455855Y-89703157D01*
X168398216Y-89564001D01*
X168173444Y-89487766D01*
X167491210Y-90170000D01*
X166772790Y-90170000D01*
X166090556Y-89487766D01*
X165865784Y-89564001D01*
X165771889Y-89822671D01*
X165730263Y-90094690D01*
X139827000Y-90094690D01*
X139827000Y-84240000D01*
X161706928Y-84240000D01*
X161706928Y-85940000D01*
X161719188Y-86064482D01*
X161755498Y-86184180D01*
X161814463Y-86294494D01*
X161893815Y-86391185D01*
X161990506Y-86470537D01*
X162100820Y-86529502D01*
X162173380Y-86551513D01*
X162041525Y-86683368D01*
X161879010Y-86926589D01*
X161767068Y-87196842D01*
X161710000Y-87483740D01*
X161710000Y-87776260D01*
X161767068Y-88063158D01*
X161879010Y-88333411D01*
X162041525Y-88576632D01*
X162248368Y-88783475D01*
X162426378Y-88902417D01*
X162213949Y-89055195D01*
X162015312Y-89268009D01*
X161862010Y-89515486D01*
X161789632Y-89690245D01*
X161893300Y-89916000D01*
X162941000Y-89916000D01*
X162941000Y-89896000D01*
X163449000Y-89896000D01*
X163449000Y-89916000D01*
X164496700Y-89916000D01*
X164600368Y-89690245D01*
X164527990Y-89515486D01*
X164374688Y-89268009D01*
X164176051Y-89055195D01*
X163963622Y-88902417D01*
X164141632Y-88783475D01*
X164348475Y-88576632D01*
X164510990Y-88333411D01*
X164622932Y-88063158D01*
X164680000Y-87776260D01*
X164680000Y-87483740D01*
X164622932Y-87196842D01*
X164510990Y-86926589D01*
X164348475Y-86683368D01*
X164216620Y-86551513D01*
X164289180Y-86529502D01*
X164399494Y-86470537D01*
X164496185Y-86391185D01*
X164575537Y-86294494D01*
X164634502Y-86184180D01*
X164670812Y-86064482D01*
X164683072Y-85940000D01*
X164683072Y-84240000D01*
X164670812Y-84115518D01*
X164634502Y-83995820D01*
X164575537Y-83885506D01*
X164496185Y-83788815D01*
X164399494Y-83709463D01*
X164289180Y-83650498D01*
X164169482Y-83614188D01*
X164045000Y-83601928D01*
X162345000Y-83601928D01*
X162220518Y-83614188D01*
X162100820Y-83650498D01*
X161990506Y-83709463D01*
X161893815Y-83788815D01*
X161814463Y-83885506D01*
X161755498Y-83995820D01*
X161719188Y-84115518D01*
X161706928Y-84240000D01*
X139827000Y-84240000D01*
X139827000Y-82412408D01*
X165735000Y-82412408D01*
X165735000Y-82687592D01*
X165788686Y-82957490D01*
X165893995Y-83211727D01*
X166046880Y-83440535D01*
X166241465Y-83635120D01*
X166470273Y-83788005D01*
X166547515Y-83820000D01*
X166470273Y-83851995D01*
X166241465Y-84004880D01*
X166046880Y-84199465D01*
X165893995Y-84428273D01*
X165788686Y-84682510D01*
X165735000Y-84952408D01*
X165735000Y-85227592D01*
X165788686Y-85497490D01*
X165893995Y-85751727D01*
X166046880Y-85980535D01*
X166241465Y-86175120D01*
X166470273Y-86328005D01*
X166547515Y-86360000D01*
X166470273Y-86391995D01*
X166241465Y-86544880D01*
X166046880Y-86739465D01*
X165893995Y-86968273D01*
X165788686Y-87222510D01*
X165735000Y-87492408D01*
X165735000Y-87767592D01*
X165788686Y-88037490D01*
X165893995Y-88291727D01*
X166046880Y-88520535D01*
X166241465Y-88715120D01*
X166470273Y-88868005D01*
X166541326Y-88897436D01*
X166526001Y-88903784D01*
X166449766Y-89128556D01*
X167132000Y-89810790D01*
X167814234Y-89128556D01*
X167737999Y-88903784D01*
X167721664Y-88897855D01*
X167793727Y-88868005D01*
X168022535Y-88715120D01*
X168217120Y-88520535D01*
X168370005Y-88291727D01*
X168475314Y-88037490D01*
X168529000Y-87767592D01*
X168529000Y-87492408D01*
X168475314Y-87222510D01*
X168370005Y-86968273D01*
X168217120Y-86739465D01*
X168022535Y-86544880D01*
X167793727Y-86391995D01*
X167716485Y-86360000D01*
X167793727Y-86328005D01*
X168022535Y-86175120D01*
X168217120Y-85980535D01*
X168370005Y-85751727D01*
X168475314Y-85497490D01*
X168529000Y-85227592D01*
X168529000Y-84952408D01*
X168475314Y-84682510D01*
X168370005Y-84428273D01*
X168217120Y-84199465D01*
X168022535Y-84004880D01*
X167793727Y-83851995D01*
X167716485Y-83820000D01*
X167793727Y-83788005D01*
X168022535Y-83635120D01*
X168217120Y-83440535D01*
X168370005Y-83211727D01*
X168475314Y-82957490D01*
X168529000Y-82687592D01*
X168529000Y-82412408D01*
X173355000Y-82412408D01*
X173355000Y-82687592D01*
X173408686Y-82957490D01*
X173513995Y-83211727D01*
X173666880Y-83440535D01*
X173861465Y-83635120D01*
X174090273Y-83788005D01*
X174167515Y-83820000D01*
X174090273Y-83851995D01*
X173861465Y-84004880D01*
X173666880Y-84199465D01*
X173513995Y-84428273D01*
X173408686Y-84682510D01*
X173355000Y-84952408D01*
X173355000Y-85227592D01*
X173408686Y-85497490D01*
X173513995Y-85751727D01*
X173666880Y-85980535D01*
X173861465Y-86175120D01*
X174090273Y-86328005D01*
X174167515Y-86360000D01*
X174090273Y-86391995D01*
X173861465Y-86544880D01*
X173666880Y-86739465D01*
X173513995Y-86968273D01*
X173408686Y-87222510D01*
X173355000Y-87492408D01*
X173355000Y-87767592D01*
X173408686Y-88037490D01*
X173513995Y-88291727D01*
X173666880Y-88520535D01*
X173861465Y-88715120D01*
X174090273Y-88868005D01*
X174167515Y-88900000D01*
X174090273Y-88931995D01*
X173861465Y-89084880D01*
X173666880Y-89279465D01*
X173513995Y-89508273D01*
X173408686Y-89762510D01*
X173355000Y-90032408D01*
X173355000Y-90307592D01*
X173408686Y-90577490D01*
X173513995Y-90831727D01*
X173666880Y-91060535D01*
X173861465Y-91255120D01*
X174090273Y-91408005D01*
X174344510Y-91513314D01*
X174614408Y-91567000D01*
X174889592Y-91567000D01*
X175159490Y-91513314D01*
X175413727Y-91408005D01*
X175642535Y-91255120D01*
X175837120Y-91060535D01*
X175990005Y-90831727D01*
X176095314Y-90577490D01*
X176149000Y-90307592D01*
X176149000Y-90032408D01*
X176095314Y-89762510D01*
X175990005Y-89508273D01*
X175837120Y-89279465D01*
X175642535Y-89084880D01*
X175413727Y-88931995D01*
X175336485Y-88900000D01*
X175413727Y-88868005D01*
X175642535Y-88715120D01*
X175837120Y-88520535D01*
X175990005Y-88291727D01*
X176095314Y-88037490D01*
X176149000Y-87767592D01*
X176149000Y-87492408D01*
X176095314Y-87222510D01*
X175990005Y-86968273D01*
X175837120Y-86739465D01*
X175642535Y-86544880D01*
X175413727Y-86391995D01*
X175336485Y-86360000D01*
X175413727Y-86328005D01*
X175642535Y-86175120D01*
X175837120Y-85980535D01*
X175990005Y-85751727D01*
X176095314Y-85497490D01*
X176149000Y-85227592D01*
X176149000Y-84952408D01*
X176095314Y-84682510D01*
X175990005Y-84428273D01*
X175837120Y-84199465D01*
X175642535Y-84004880D01*
X175413727Y-83851995D01*
X175336485Y-83820000D01*
X175413727Y-83788005D01*
X175642535Y-83635120D01*
X175837120Y-83440535D01*
X175990005Y-83211727D01*
X176095314Y-82957490D01*
X176149000Y-82687592D01*
X176149000Y-82412408D01*
X176095314Y-82142510D01*
X175990005Y-81888273D01*
X175837120Y-81659465D01*
X175642535Y-81464880D01*
X175413727Y-81311995D01*
X175159490Y-81206686D01*
X174889592Y-81153000D01*
X174614408Y-81153000D01*
X174344510Y-81206686D01*
X174090273Y-81311995D01*
X173861465Y-81464880D01*
X173666880Y-81659465D01*
X173513995Y-81888273D01*
X173408686Y-82142510D01*
X173355000Y-82412408D01*
X168529000Y-82412408D01*
X168475314Y-82142510D01*
X168370005Y-81888273D01*
X168217120Y-81659465D01*
X168022535Y-81464880D01*
X167793727Y-81311995D01*
X167539490Y-81206686D01*
X167269592Y-81153000D01*
X166994408Y-81153000D01*
X166724510Y-81206686D01*
X166470273Y-81311995D01*
X166241465Y-81464880D01*
X166046880Y-81659465D01*
X165893995Y-81888273D01*
X165788686Y-82142510D01*
X165735000Y-82412408D01*
X139827000Y-82412408D01*
X139827000Y-71898000D01*
X172399428Y-71898000D01*
X172399428Y-73898000D01*
X172411688Y-74022482D01*
X172447998Y-74142180D01*
X172506963Y-74252494D01*
X172586315Y-74349185D01*
X172683006Y-74428537D01*
X172793320Y-74487502D01*
X172913018Y-74523812D01*
X173037500Y-74536072D01*
X174942500Y-74536072D01*
X175066982Y-74523812D01*
X175186680Y-74487502D01*
X175296994Y-74428537D01*
X175393685Y-74349185D01*
X175473037Y-74252494D01*
X175517905Y-74168553D01*
X175643766Y-74271845D01*
X175919552Y-74419255D01*
X176218797Y-74510030D01*
X176530000Y-74540681D01*
X176841204Y-74510030D01*
X177140449Y-74419255D01*
X177416235Y-74271845D01*
X177657963Y-74073463D01*
X177800000Y-73900391D01*
X177942037Y-74073463D01*
X178183766Y-74271845D01*
X178459552Y-74419255D01*
X178758797Y-74510030D01*
X179070000Y-74540681D01*
X179381204Y-74510030D01*
X179680449Y-74419255D01*
X179956235Y-74271845D01*
X180197963Y-74073463D01*
X180396345Y-73831734D01*
X180543755Y-73555948D01*
X180634530Y-73256703D01*
X180657500Y-73023485D01*
X180657500Y-72772514D01*
X180634530Y-72539296D01*
X180543755Y-72240051D01*
X180396345Y-71964265D01*
X180197963Y-71722537D01*
X179956234Y-71524155D01*
X179680448Y-71376745D01*
X179381203Y-71285970D01*
X179070000Y-71255319D01*
X178758796Y-71285970D01*
X178459551Y-71376745D01*
X178183765Y-71524155D01*
X177942037Y-71722537D01*
X177800000Y-71895609D01*
X177657963Y-71722537D01*
X177416234Y-71524155D01*
X177140448Y-71376745D01*
X176841203Y-71285970D01*
X176530000Y-71255319D01*
X176218796Y-71285970D01*
X175919551Y-71376745D01*
X175643765Y-71524155D01*
X175517905Y-71627446D01*
X175473037Y-71543506D01*
X175393685Y-71446815D01*
X175296994Y-71367463D01*
X175186680Y-71308498D01*
X175066982Y-71272188D01*
X174942500Y-71259928D01*
X173037500Y-71259928D01*
X172913018Y-71272188D01*
X172793320Y-71308498D01*
X172683006Y-71367463D01*
X172586315Y-71446815D01*
X172506963Y-71543506D01*
X172447998Y-71653820D01*
X172411688Y-71773518D01*
X172399428Y-71898000D01*
X139827000Y-71898000D01*
X139827000Y-68359872D01*
X140640000Y-68359872D01*
X140640000Y-68800128D01*
X140725890Y-69231925D01*
X140894369Y-69638669D01*
X141138962Y-70004729D01*
X141450271Y-70316038D01*
X141816331Y-70560631D01*
X142223075Y-70729110D01*
X142654872Y-70815000D01*
X143095128Y-70815000D01*
X143526925Y-70729110D01*
X143933669Y-70560631D01*
X144299729Y-70316038D01*
X144611038Y-70004729D01*
X144855631Y-69638669D01*
X145024110Y-69231925D01*
X145110000Y-68800128D01*
X145110000Y-68359872D01*
X145024110Y-67928075D01*
X144855631Y-67521331D01*
X144611038Y-67155271D01*
X144299729Y-66843962D01*
X143933669Y-66599369D01*
X143526925Y-66430890D01*
X143095128Y-66345000D01*
X142654872Y-66345000D01*
X142223075Y-66430890D01*
X141816331Y-66599369D01*
X141450271Y-66843962D01*
X141138962Y-67155271D01*
X140894369Y-67521331D01*
X140725890Y-67928075D01*
X140640000Y-68359872D01*
X139827000Y-68359872D01*
X139827000Y-65532000D01*
X153536914Y-65532000D01*
X153389256Y-65630662D01*
%TA.AperFunction,Conductor*%
D23*
G36*
X153389256Y-65630662D02*
G01*
X153133662Y-65886256D01*
X152932844Y-66186801D01*
X152794518Y-66520750D01*
X152724000Y-66875268D01*
X152724000Y-67236732D01*
X152794518Y-67591250D01*
X152932844Y-67925199D01*
X153133662Y-68225744D01*
X153389256Y-68481338D01*
X153689801Y-68682156D01*
X154023750Y-68820482D01*
X154378268Y-68891000D01*
X154739732Y-68891000D01*
X155094250Y-68820482D01*
X155428199Y-68682156D01*
X155728744Y-68481338D01*
X155984338Y-68225744D01*
X156185156Y-67925199D01*
X156323482Y-67591250D01*
X156394000Y-67236732D01*
X156394000Y-66875268D01*
X156323482Y-66520750D01*
X156185156Y-66186801D01*
X155984338Y-65886256D01*
X155728744Y-65630662D01*
X155581086Y-65532000D01*
X182118000Y-65532000D01*
X182118000Y-77417394D01*
X180250197Y-79285197D01*
X180234403Y-79304443D01*
X180222667Y-79326399D01*
X180215440Y-79350224D01*
X180213000Y-79375000D01*
X180213000Y-93292394D01*
X175170197Y-98335197D01*
X175154403Y-98354443D01*
X175142667Y-98376399D01*
X175135440Y-98400224D01*
X175133000Y-98425000D01*
X175133000Y-124968000D01*
X139827000Y-124968000D01*
X139827000Y-121699872D01*
X140640000Y-121699872D01*
X140640000Y-122140128D01*
X140725890Y-122571925D01*
X140894369Y-122978669D01*
X141138962Y-123344729D01*
X141450271Y-123656038D01*
X141816331Y-123900631D01*
X142223075Y-124069110D01*
X142654872Y-124155000D01*
X143095128Y-124155000D01*
X143526925Y-124069110D01*
X143933669Y-123900631D01*
X144299729Y-123656038D01*
X144611038Y-123344729D01*
X144855631Y-122978669D01*
X144948166Y-122755268D01*
X152724000Y-122755268D01*
X152724000Y-123116732D01*
X152794518Y-123471250D01*
X152932844Y-123805199D01*
X153133662Y-124105744D01*
X153389256Y-124361338D01*
X153689801Y-124562156D01*
X154023750Y-124700482D01*
X154378268Y-124771000D01*
X154739732Y-124771000D01*
X155094250Y-124700482D01*
X155428199Y-124562156D01*
X155728744Y-124361338D01*
X155984338Y-124105744D01*
X156185156Y-123805199D01*
X156323482Y-123471250D01*
X156394000Y-123116732D01*
X156394000Y-122755268D01*
X156323482Y-122400750D01*
X156193109Y-122086000D01*
X162595928Y-122086000D01*
X162595928Y-123786000D01*
X162608188Y-123910482D01*
X162644498Y-124030180D01*
X162703463Y-124140494D01*
X162782815Y-124237185D01*
X162879506Y-124316537D01*
X162989820Y-124375502D01*
X163109518Y-124411812D01*
X163234000Y-124424072D01*
X164934000Y-124424072D01*
X165058482Y-124411812D01*
X165178180Y-124375502D01*
X165288494Y-124316537D01*
X165385185Y-124237185D01*
X165464537Y-124140494D01*
X165523502Y-124030180D01*
X165547090Y-123952421D01*
X165722009Y-124115688D01*
X165969486Y-124268990D01*
X166144245Y-124341368D01*
X166370000Y-124237700D01*
X166370000Y-123190000D01*
X166878000Y-123190000D01*
X166878000Y-124237700D01*
X167103755Y-124341368D01*
X167278514Y-124268990D01*
X167525991Y-124115688D01*
X167738805Y-123917051D01*
X167908778Y-123680713D01*
X168029378Y-123415756D01*
X167928376Y-123190000D01*
X166878000Y-123190000D01*
X166370000Y-123190000D01*
X166350000Y-123190000D01*
X166350000Y-122682000D01*
X166370000Y-122682000D01*
X166370000Y-121634300D01*
X166878000Y-121634300D01*
X166878000Y-122682000D01*
X167928376Y-122682000D01*
X168029378Y-122456244D01*
X167908778Y-122191287D01*
X167738805Y-121954949D01*
X167525991Y-121756312D01*
X167278514Y-121603010D01*
X167103755Y-121530632D01*
X166878000Y-121634300D01*
X166370000Y-121634300D01*
X166144245Y-121530632D01*
X165969486Y-121603010D01*
X165722009Y-121756312D01*
X165547090Y-121919579D01*
X165523502Y-121841820D01*
X165464537Y-121731506D01*
X165385185Y-121634815D01*
X165288494Y-121555463D01*
X165178180Y-121496498D01*
X165058482Y-121460188D01*
X164934000Y-121447928D01*
X163234000Y-121447928D01*
X163109518Y-121460188D01*
X162989820Y-121496498D01*
X162879506Y-121555463D01*
X162782815Y-121634815D01*
X162703463Y-121731506D01*
X162644498Y-121841820D01*
X162608188Y-121961518D01*
X162595928Y-122086000D01*
X156193109Y-122086000D01*
X156185156Y-122066801D01*
X155984338Y-121766256D01*
X155728744Y-121510662D01*
X155428199Y-121309844D01*
X155094250Y-121171518D01*
X154739732Y-121101000D01*
X154378268Y-121101000D01*
X154023750Y-121171518D01*
X153689801Y-121309844D01*
X153389256Y-121510662D01*
X153133662Y-121766256D01*
X152932844Y-122066801D01*
X152794518Y-122400750D01*
X152724000Y-122755268D01*
X144948166Y-122755268D01*
X145024110Y-122571925D01*
X145110000Y-122140128D01*
X145110000Y-121699872D01*
X145024110Y-121268075D01*
X144855631Y-120861331D01*
X144611038Y-120495271D01*
X144299729Y-120183962D01*
X143933669Y-119939369D01*
X143526925Y-119770890D01*
X143095128Y-119685000D01*
X142654872Y-119685000D01*
X142223075Y-119770890D01*
X141816331Y-119939369D01*
X141450271Y-120183962D01*
X141138962Y-120495271D01*
X140894369Y-120861331D01*
X140725890Y-121268075D01*
X140640000Y-121699872D01*
X139827000Y-121699872D01*
X139827000Y-112801444D01*
X164290766Y-112801444D01*
X164367001Y-113026216D01*
X164625671Y-113120111D01*
X164897690Y-113161737D01*
X165172602Y-113149495D01*
X165439843Y-113083855D01*
X165578999Y-113026216D01*
X165655234Y-112801444D01*
X164973000Y-112119210D01*
X164290766Y-112801444D01*
X139827000Y-112801444D01*
X139827000Y-111684690D01*
X163571263Y-111684690D01*
X163583505Y-111959602D01*
X163649145Y-112226843D01*
X163706784Y-112365999D01*
X163931556Y-112442234D01*
X164613790Y-111760000D01*
X165332210Y-111760000D01*
X166014444Y-112442234D01*
X166239216Y-112365999D01*
X166333111Y-112107329D01*
X166374737Y-111835310D01*
X166362495Y-111560398D01*
X166296855Y-111293157D01*
X166239216Y-111154001D01*
X166014444Y-111077766D01*
X165332210Y-111760000D01*
X164613790Y-111760000D01*
X163931556Y-111077766D01*
X163706784Y-111154001D01*
X163612889Y-111412671D01*
X163571263Y-111684690D01*
X139827000Y-111684690D01*
X139827000Y-109699755D01*
X140199632Y-109699755D01*
X140272010Y-109874514D01*
X140425312Y-110121991D01*
X140623949Y-110334805D01*
X140860287Y-110504778D01*
X141125244Y-110625378D01*
X141351000Y-110524376D01*
X141351000Y-109474000D01*
X141859000Y-109474000D01*
X141859000Y-110524376D01*
X142084756Y-110625378D01*
X142349713Y-110504778D01*
X142586051Y-110334805D01*
X142654524Y-110261444D01*
X164290766Y-110261444D01*
X164367001Y-110486216D01*
X164376739Y-110489751D01*
X164367001Y-110493784D01*
X164290766Y-110718556D01*
X164973000Y-111400790D01*
X165655234Y-110718556D01*
X165578999Y-110493784D01*
X165569261Y-110490249D01*
X165578999Y-110486216D01*
X165655234Y-110261444D01*
X164973000Y-109579210D01*
X164290766Y-110261444D01*
X142654524Y-110261444D01*
X142784688Y-110121991D01*
X142937990Y-109874514D01*
X143010368Y-109699755D01*
X142906700Y-109474000D01*
X141859000Y-109474000D01*
X141351000Y-109474000D01*
X140303300Y-109474000D01*
X140199632Y-109699755D01*
X139827000Y-109699755D01*
X139827000Y-109144690D01*
X163571263Y-109144690D01*
X163583505Y-109419602D01*
X163649145Y-109686843D01*
X163706784Y-109825999D01*
X163931556Y-109902234D01*
X164613790Y-109220000D01*
X165332210Y-109220000D01*
X166014444Y-109902234D01*
X166239216Y-109825999D01*
X166333111Y-109567329D01*
X166374737Y-109295310D01*
X166362495Y-109020398D01*
X166296855Y-108753157D01*
X166239216Y-108614001D01*
X166014444Y-108537766D01*
X165332210Y-109220000D01*
X164613790Y-109220000D01*
X163931556Y-108537766D01*
X163706784Y-108614001D01*
X163612889Y-108872671D01*
X163571263Y-109144690D01*
X139827000Y-109144690D01*
X139827000Y-105830000D01*
X140116928Y-105830000D01*
X140116928Y-107530000D01*
X140129188Y-107654482D01*
X140165498Y-107774180D01*
X140224463Y-107884494D01*
X140303815Y-107981185D01*
X140400506Y-108060537D01*
X140510820Y-108119502D01*
X140588579Y-108143090D01*
X140425312Y-108318009D01*
X140272010Y-108565486D01*
X140199632Y-108740245D01*
X140303300Y-108966000D01*
X141351000Y-108966000D01*
X141351000Y-108946000D01*
X141859000Y-108946000D01*
X141859000Y-108966000D01*
X142906700Y-108966000D01*
X143010368Y-108740245D01*
X142937990Y-108565486D01*
X142784688Y-108318009D01*
X142621421Y-108143090D01*
X142699180Y-108119502D01*
X142809494Y-108060537D01*
X142906185Y-107981185D01*
X142985537Y-107884494D01*
X143044502Y-107774180D01*
X143080812Y-107654482D01*
X143093072Y-107530000D01*
X143093072Y-105830000D01*
X143080812Y-105705518D01*
X143044502Y-105585820D01*
X142985537Y-105475506D01*
X142906185Y-105378815D01*
X142809494Y-105299463D01*
X142699180Y-105240498D01*
X142579482Y-105204188D01*
X142455000Y-105191928D01*
X140755000Y-105191928D01*
X140630518Y-105204188D01*
X140510820Y-105240498D01*
X140400506Y-105299463D01*
X140303815Y-105378815D01*
X140224463Y-105475506D01*
X140165498Y-105585820D01*
X140129188Y-105705518D01*
X140116928Y-105830000D01*
X139827000Y-105830000D01*
X139827000Y-104002408D01*
X163576000Y-104002408D01*
X163576000Y-104277592D01*
X163629686Y-104547490D01*
X163734995Y-104801727D01*
X163887880Y-105030535D01*
X164082465Y-105225120D01*
X164311273Y-105378005D01*
X164388515Y-105410000D01*
X164311273Y-105441995D01*
X164082465Y-105594880D01*
X163887880Y-105789465D01*
X163734995Y-106018273D01*
X163629686Y-106272510D01*
X163576000Y-106542408D01*
X163576000Y-106817592D01*
X163629686Y-107087490D01*
X163734995Y-107341727D01*
X163887880Y-107570535D01*
X164082465Y-107765120D01*
X164311273Y-107918005D01*
X164382326Y-107947436D01*
X164367001Y-107953784D01*
X164290766Y-108178556D01*
X164973000Y-108860790D01*
X165655234Y-108178556D01*
X165578999Y-107953784D01*
X165562664Y-107947855D01*
X165634727Y-107918005D01*
X165863535Y-107765120D01*
X166058120Y-107570535D01*
X166211005Y-107341727D01*
X166316314Y-107087490D01*
X166370000Y-106817592D01*
X166370000Y-106542408D01*
X166316314Y-106272510D01*
X166211005Y-106018273D01*
X166058120Y-105789465D01*
X165863535Y-105594880D01*
X165634727Y-105441995D01*
X165557485Y-105410000D01*
X165634727Y-105378005D01*
X165863535Y-105225120D01*
X166058120Y-105030535D01*
X166211005Y-104801727D01*
X166316314Y-104547490D01*
X166370000Y-104277592D01*
X166370000Y-104002408D01*
X171196000Y-104002408D01*
X171196000Y-104277592D01*
X171249686Y-104547490D01*
X171354995Y-104801727D01*
X171507880Y-105030535D01*
X171702465Y-105225120D01*
X171931273Y-105378005D01*
X172008515Y-105410000D01*
X171931273Y-105441995D01*
X171702465Y-105594880D01*
X171507880Y-105789465D01*
X171354995Y-106018273D01*
X171249686Y-106272510D01*
X171196000Y-106542408D01*
X171196000Y-106817592D01*
X171249686Y-107087490D01*
X171354995Y-107341727D01*
X171507880Y-107570535D01*
X171702465Y-107765120D01*
X171931273Y-107918005D01*
X172008515Y-107950000D01*
X171931273Y-107981995D01*
X171702465Y-108134880D01*
X171507880Y-108329465D01*
X171354995Y-108558273D01*
X171249686Y-108812510D01*
X171196000Y-109082408D01*
X171196000Y-109357592D01*
X171249686Y-109627490D01*
X171354995Y-109881727D01*
X171507880Y-110110535D01*
X171702465Y-110305120D01*
X171931273Y-110458005D01*
X172008515Y-110490000D01*
X171931273Y-110521995D01*
X171702465Y-110674880D01*
X171507880Y-110869465D01*
X171354995Y-111098273D01*
X171249686Y-111352510D01*
X171196000Y-111622408D01*
X171196000Y-111897592D01*
X171249686Y-112167490D01*
X171354995Y-112421727D01*
X171507880Y-112650535D01*
X171702465Y-112845120D01*
X171931273Y-112998005D01*
X172185510Y-113103314D01*
X172455408Y-113157000D01*
X172730592Y-113157000D01*
X173000490Y-113103314D01*
X173254727Y-112998005D01*
X173483535Y-112845120D01*
X173678120Y-112650535D01*
X173831005Y-112421727D01*
X173936314Y-112167490D01*
X173990000Y-111897592D01*
X173990000Y-111622408D01*
X173936314Y-111352510D01*
X173831005Y-111098273D01*
X173678120Y-110869465D01*
X173483535Y-110674880D01*
X173254727Y-110521995D01*
X173177485Y-110490000D01*
X173254727Y-110458005D01*
X173483535Y-110305120D01*
X173678120Y-110110535D01*
X173831005Y-109881727D01*
X173936314Y-109627490D01*
X173990000Y-109357592D01*
X173990000Y-109082408D01*
X173936314Y-108812510D01*
X173831005Y-108558273D01*
X173678120Y-108329465D01*
X173483535Y-108134880D01*
X173254727Y-107981995D01*
X173177485Y-107950000D01*
X173254727Y-107918005D01*
X173483535Y-107765120D01*
X173678120Y-107570535D01*
X173831005Y-107341727D01*
X173936314Y-107087490D01*
X173990000Y-106817592D01*
X173990000Y-106542408D01*
X173936314Y-106272510D01*
X173831005Y-106018273D01*
X173678120Y-105789465D01*
X173483535Y-105594880D01*
X173254727Y-105441995D01*
X173177485Y-105410000D01*
X173254727Y-105378005D01*
X173483535Y-105225120D01*
X173678120Y-105030535D01*
X173831005Y-104801727D01*
X173936314Y-104547490D01*
X173990000Y-104277592D01*
X173990000Y-104002408D01*
X173936314Y-103732510D01*
X173831005Y-103478273D01*
X173678120Y-103249465D01*
X173483535Y-103054880D01*
X173254727Y-102901995D01*
X173000490Y-102796686D01*
X172730592Y-102743000D01*
X172455408Y-102743000D01*
X172185510Y-102796686D01*
X171931273Y-102901995D01*
X171702465Y-103054880D01*
X171507880Y-103249465D01*
X171354995Y-103478273D01*
X171249686Y-103732510D01*
X171196000Y-104002408D01*
X166370000Y-104002408D01*
X166316314Y-103732510D01*
X166211005Y-103478273D01*
X166058120Y-103249465D01*
X165863535Y-103054880D01*
X165634727Y-102901995D01*
X165380490Y-102796686D01*
X165110592Y-102743000D01*
X164835408Y-102743000D01*
X164565510Y-102796686D01*
X164311273Y-102901995D01*
X164082465Y-103054880D01*
X163887880Y-103249465D01*
X163734995Y-103478273D01*
X163629686Y-103732510D01*
X163576000Y-104002408D01*
X139827000Y-104002408D01*
X139827000Y-90649755D01*
X161789632Y-90649755D01*
X161862010Y-90824514D01*
X162015312Y-91071991D01*
X162213949Y-91284805D01*
X162450287Y-91454778D01*
X162715244Y-91575378D01*
X162941000Y-91474376D01*
X162941000Y-90424000D01*
X163449000Y-90424000D01*
X163449000Y-91474376D01*
X163674756Y-91575378D01*
X163939713Y-91454778D01*
X164176051Y-91284805D01*
X164244524Y-91211444D01*
X166449766Y-91211444D01*
X166526001Y-91436216D01*
X166784671Y-91530111D01*
X167056690Y-91571737D01*
X167331602Y-91559495D01*
X167598843Y-91493855D01*
X167737999Y-91436216D01*
X167814234Y-91211444D01*
X167132000Y-90529210D01*
X166449766Y-91211444D01*
X164244524Y-91211444D01*
X164374688Y-91071991D01*
X164527990Y-90824514D01*
X164600368Y-90649755D01*
X164496700Y-90424000D01*
X163449000Y-90424000D01*
X162941000Y-90424000D01*
X161893300Y-90424000D01*
X161789632Y-90649755D01*
X139827000Y-90649755D01*
X139827000Y-90094690D01*
X165730263Y-90094690D01*
X165742505Y-90369602D01*
X165808145Y-90636843D01*
X165865784Y-90775999D01*
X166090556Y-90852234D01*
X166772790Y-90170000D01*
X167491210Y-90170000D01*
X168173444Y-90852234D01*
X168398216Y-90775999D01*
X168492111Y-90517329D01*
X168533737Y-90245310D01*
X168521495Y-89970398D01*
X168455855Y-89703157D01*
X168398216Y-89564001D01*
X168173444Y-89487766D01*
X167491210Y-90170000D01*
X166772790Y-90170000D01*
X166090556Y-89487766D01*
X165865784Y-89564001D01*
X165771889Y-89822671D01*
X165730263Y-90094690D01*
X139827000Y-90094690D01*
X139827000Y-84240000D01*
X161706928Y-84240000D01*
X161706928Y-85940000D01*
X161719188Y-86064482D01*
X161755498Y-86184180D01*
X161814463Y-86294494D01*
X161893815Y-86391185D01*
X161990506Y-86470537D01*
X162100820Y-86529502D01*
X162173380Y-86551513D01*
X162041525Y-86683368D01*
X161879010Y-86926589D01*
X161767068Y-87196842D01*
X161710000Y-87483740D01*
X161710000Y-87776260D01*
X161767068Y-88063158D01*
X161879010Y-88333411D01*
X162041525Y-88576632D01*
X162248368Y-88783475D01*
X162426378Y-88902417D01*
X162213949Y-89055195D01*
X162015312Y-89268009D01*
X161862010Y-89515486D01*
X161789632Y-89690245D01*
X161893300Y-89916000D01*
X162941000Y-89916000D01*
X162941000Y-89896000D01*
X163449000Y-89896000D01*
X163449000Y-89916000D01*
X164496700Y-89916000D01*
X164600368Y-89690245D01*
X164527990Y-89515486D01*
X164374688Y-89268009D01*
X164176051Y-89055195D01*
X163963622Y-88902417D01*
X164141632Y-88783475D01*
X164348475Y-88576632D01*
X164510990Y-88333411D01*
X164622932Y-88063158D01*
X164680000Y-87776260D01*
X164680000Y-87483740D01*
X164622932Y-87196842D01*
X164510990Y-86926589D01*
X164348475Y-86683368D01*
X164216620Y-86551513D01*
X164289180Y-86529502D01*
X164399494Y-86470537D01*
X164496185Y-86391185D01*
X164575537Y-86294494D01*
X164634502Y-86184180D01*
X164670812Y-86064482D01*
X164683072Y-85940000D01*
X164683072Y-84240000D01*
X164670812Y-84115518D01*
X164634502Y-83995820D01*
X164575537Y-83885506D01*
X164496185Y-83788815D01*
X164399494Y-83709463D01*
X164289180Y-83650498D01*
X164169482Y-83614188D01*
X164045000Y-83601928D01*
X162345000Y-83601928D01*
X162220518Y-83614188D01*
X162100820Y-83650498D01*
X161990506Y-83709463D01*
X161893815Y-83788815D01*
X161814463Y-83885506D01*
X161755498Y-83995820D01*
X161719188Y-84115518D01*
X161706928Y-84240000D01*
X139827000Y-84240000D01*
X139827000Y-82412408D01*
X165735000Y-82412408D01*
X165735000Y-82687592D01*
X165788686Y-82957490D01*
X165893995Y-83211727D01*
X166046880Y-83440535D01*
X166241465Y-83635120D01*
X166470273Y-83788005D01*
X166547515Y-83820000D01*
X166470273Y-83851995D01*
X166241465Y-84004880D01*
X166046880Y-84199465D01*
X165893995Y-84428273D01*
X165788686Y-84682510D01*
X165735000Y-84952408D01*
X165735000Y-85227592D01*
X165788686Y-85497490D01*
X165893995Y-85751727D01*
X166046880Y-85980535D01*
X166241465Y-86175120D01*
X166470273Y-86328005D01*
X166547515Y-86360000D01*
X166470273Y-86391995D01*
X166241465Y-86544880D01*
X166046880Y-86739465D01*
X165893995Y-86968273D01*
X165788686Y-87222510D01*
X165735000Y-87492408D01*
X165735000Y-87767592D01*
X165788686Y-88037490D01*
X165893995Y-88291727D01*
X166046880Y-88520535D01*
X166241465Y-88715120D01*
X166470273Y-88868005D01*
X166541326Y-88897436D01*
X166526001Y-88903784D01*
X166449766Y-89128556D01*
X167132000Y-89810790D01*
X167814234Y-89128556D01*
X167737999Y-88903784D01*
X167721664Y-88897855D01*
X167793727Y-88868005D01*
X168022535Y-88715120D01*
X168217120Y-88520535D01*
X168370005Y-88291727D01*
X168475314Y-88037490D01*
X168529000Y-87767592D01*
X168529000Y-87492408D01*
X168475314Y-87222510D01*
X168370005Y-86968273D01*
X168217120Y-86739465D01*
X168022535Y-86544880D01*
X167793727Y-86391995D01*
X167716485Y-86360000D01*
X167793727Y-86328005D01*
X168022535Y-86175120D01*
X168217120Y-85980535D01*
X168370005Y-85751727D01*
X168475314Y-85497490D01*
X168529000Y-85227592D01*
X168529000Y-84952408D01*
X168475314Y-84682510D01*
X168370005Y-84428273D01*
X168217120Y-84199465D01*
X168022535Y-84004880D01*
X167793727Y-83851995D01*
X167716485Y-83820000D01*
X167793727Y-83788005D01*
X168022535Y-83635120D01*
X168217120Y-83440535D01*
X168370005Y-83211727D01*
X168475314Y-82957490D01*
X168529000Y-82687592D01*
X168529000Y-82412408D01*
X173355000Y-82412408D01*
X173355000Y-82687592D01*
X173408686Y-82957490D01*
X173513995Y-83211727D01*
X173666880Y-83440535D01*
X173861465Y-83635120D01*
X174090273Y-83788005D01*
X174167515Y-83820000D01*
X174090273Y-83851995D01*
X173861465Y-84004880D01*
X173666880Y-84199465D01*
X173513995Y-84428273D01*
X173408686Y-84682510D01*
X173355000Y-84952408D01*
X173355000Y-85227592D01*
X173408686Y-85497490D01*
X173513995Y-85751727D01*
X173666880Y-85980535D01*
X173861465Y-86175120D01*
X174090273Y-86328005D01*
X174167515Y-86360000D01*
X174090273Y-86391995D01*
X173861465Y-86544880D01*
X173666880Y-86739465D01*
X173513995Y-86968273D01*
X173408686Y-87222510D01*
X173355000Y-87492408D01*
X173355000Y-87767592D01*
X173408686Y-88037490D01*
X173513995Y-88291727D01*
X173666880Y-88520535D01*
X173861465Y-88715120D01*
X174090273Y-88868005D01*
X174167515Y-88900000D01*
X174090273Y-88931995D01*
X173861465Y-89084880D01*
X173666880Y-89279465D01*
X173513995Y-89508273D01*
X173408686Y-89762510D01*
X173355000Y-90032408D01*
X173355000Y-90307592D01*
X173408686Y-90577490D01*
X173513995Y-90831727D01*
X173666880Y-91060535D01*
X173861465Y-91255120D01*
X174090273Y-91408005D01*
X174344510Y-91513314D01*
X174614408Y-91567000D01*
X174889592Y-91567000D01*
X175159490Y-91513314D01*
X175413727Y-91408005D01*
X175642535Y-91255120D01*
X175837120Y-91060535D01*
X175990005Y-90831727D01*
X176095314Y-90577490D01*
X176149000Y-90307592D01*
X176149000Y-90032408D01*
X176095314Y-89762510D01*
X175990005Y-89508273D01*
X175837120Y-89279465D01*
X175642535Y-89084880D01*
X175413727Y-88931995D01*
X175336485Y-88900000D01*
X175413727Y-88868005D01*
X175642535Y-88715120D01*
X175837120Y-88520535D01*
X175990005Y-88291727D01*
X176095314Y-88037490D01*
X176149000Y-87767592D01*
X176149000Y-87492408D01*
X176095314Y-87222510D01*
X175990005Y-86968273D01*
X175837120Y-86739465D01*
X175642535Y-86544880D01*
X175413727Y-86391995D01*
X175336485Y-86360000D01*
X175413727Y-86328005D01*
X175642535Y-86175120D01*
X175837120Y-85980535D01*
X175990005Y-85751727D01*
X176095314Y-85497490D01*
X176149000Y-85227592D01*
X176149000Y-84952408D01*
X176095314Y-84682510D01*
X175990005Y-84428273D01*
X175837120Y-84199465D01*
X175642535Y-84004880D01*
X175413727Y-83851995D01*
X175336485Y-83820000D01*
X175413727Y-83788005D01*
X175642535Y-83635120D01*
X175837120Y-83440535D01*
X175990005Y-83211727D01*
X176095314Y-82957490D01*
X176149000Y-82687592D01*
X176149000Y-82412408D01*
X176095314Y-82142510D01*
X175990005Y-81888273D01*
X175837120Y-81659465D01*
X175642535Y-81464880D01*
X175413727Y-81311995D01*
X175159490Y-81206686D01*
X174889592Y-81153000D01*
X174614408Y-81153000D01*
X174344510Y-81206686D01*
X174090273Y-81311995D01*
X173861465Y-81464880D01*
X173666880Y-81659465D01*
X173513995Y-81888273D01*
X173408686Y-82142510D01*
X173355000Y-82412408D01*
X168529000Y-82412408D01*
X168475314Y-82142510D01*
X168370005Y-81888273D01*
X168217120Y-81659465D01*
X168022535Y-81464880D01*
X167793727Y-81311995D01*
X167539490Y-81206686D01*
X167269592Y-81153000D01*
X166994408Y-81153000D01*
X166724510Y-81206686D01*
X166470273Y-81311995D01*
X166241465Y-81464880D01*
X166046880Y-81659465D01*
X165893995Y-81888273D01*
X165788686Y-82142510D01*
X165735000Y-82412408D01*
X139827000Y-82412408D01*
X139827000Y-71898000D01*
X172399428Y-71898000D01*
X172399428Y-73898000D01*
X172411688Y-74022482D01*
X172447998Y-74142180D01*
X172506963Y-74252494D01*
X172586315Y-74349185D01*
X172683006Y-74428537D01*
X172793320Y-74487502D01*
X172913018Y-74523812D01*
X173037500Y-74536072D01*
X174942500Y-74536072D01*
X175066982Y-74523812D01*
X175186680Y-74487502D01*
X175296994Y-74428537D01*
X175393685Y-74349185D01*
X175473037Y-74252494D01*
X175517905Y-74168553D01*
X175643766Y-74271845D01*
X175919552Y-74419255D01*
X176218797Y-74510030D01*
X176530000Y-74540681D01*
X176841204Y-74510030D01*
X177140449Y-74419255D01*
X177416235Y-74271845D01*
X177657963Y-74073463D01*
X177800000Y-73900391D01*
X177942037Y-74073463D01*
X178183766Y-74271845D01*
X178459552Y-74419255D01*
X178758797Y-74510030D01*
X179070000Y-74540681D01*
X179381204Y-74510030D01*
X179680449Y-74419255D01*
X179956235Y-74271845D01*
X180197963Y-74073463D01*
X180396345Y-73831734D01*
X180543755Y-73555948D01*
X180634530Y-73256703D01*
X180657500Y-73023485D01*
X180657500Y-72772514D01*
X180634530Y-72539296D01*
X180543755Y-72240051D01*
X180396345Y-71964265D01*
X180197963Y-71722537D01*
X179956234Y-71524155D01*
X179680448Y-71376745D01*
X179381203Y-71285970D01*
X179070000Y-71255319D01*
X178758796Y-71285970D01*
X178459551Y-71376745D01*
X178183765Y-71524155D01*
X177942037Y-71722537D01*
X177800000Y-71895609D01*
X177657963Y-71722537D01*
X177416234Y-71524155D01*
X177140448Y-71376745D01*
X176841203Y-71285970D01*
X176530000Y-71255319D01*
X176218796Y-71285970D01*
X175919551Y-71376745D01*
X175643765Y-71524155D01*
X175517905Y-71627446D01*
X175473037Y-71543506D01*
X175393685Y-71446815D01*
X175296994Y-71367463D01*
X175186680Y-71308498D01*
X175066982Y-71272188D01*
X174942500Y-71259928D01*
X173037500Y-71259928D01*
X172913018Y-71272188D01*
X172793320Y-71308498D01*
X172683006Y-71367463D01*
X172586315Y-71446815D01*
X172506963Y-71543506D01*
X172447998Y-71653820D01*
X172411688Y-71773518D01*
X172399428Y-71898000D01*
X139827000Y-71898000D01*
X139827000Y-68359872D01*
X140640000Y-68359872D01*
X140640000Y-68800128D01*
X140725890Y-69231925D01*
X140894369Y-69638669D01*
X141138962Y-70004729D01*
X141450271Y-70316038D01*
X141816331Y-70560631D01*
X142223075Y-70729110D01*
X142654872Y-70815000D01*
X143095128Y-70815000D01*
X143526925Y-70729110D01*
X143933669Y-70560631D01*
X144299729Y-70316038D01*
X144611038Y-70004729D01*
X144855631Y-69638669D01*
X145024110Y-69231925D01*
X145110000Y-68800128D01*
X145110000Y-68359872D01*
X145024110Y-67928075D01*
X144855631Y-67521331D01*
X144611038Y-67155271D01*
X144299729Y-66843962D01*
X143933669Y-66599369D01*
X143526925Y-66430890D01*
X143095128Y-66345000D01*
X142654872Y-66345000D01*
X142223075Y-66430890D01*
X141816331Y-66599369D01*
X141450271Y-66843962D01*
X141138962Y-67155271D01*
X140894369Y-67521331D01*
X140725890Y-67928075D01*
X140640000Y-68359872D01*
X139827000Y-68359872D01*
X139827000Y-65532000D01*
X153536914Y-65532000D01*
X153389256Y-65630662D01*
G37*
%TD.AperFunction*%
%TD*%
D22*
%TO.N,GND*%
X237998000Y-124968000D02*
X176022000Y-124968000D01*
X176022000Y-121699872D01*
X232715000Y-121699872D01*
X232715000Y-122140128D01*
X232800890Y-122571925D01*
X232969369Y-122978669D01*
X233213962Y-123344729D01*
X233525271Y-123656038D01*
X233891331Y-123900631D01*
X234298075Y-124069110D01*
X234729872Y-124155000D01*
X235170128Y-124155000D01*
X235601925Y-124069110D01*
X236008669Y-123900631D01*
X236374729Y-123656038D01*
X236686038Y-123344729D01*
X236930631Y-122978669D01*
X237099110Y-122571925D01*
X237185000Y-122140128D01*
X237185000Y-121699872D01*
X237099110Y-121268075D01*
X236930631Y-120861331D01*
X236686038Y-120495271D01*
X236374729Y-120183962D01*
X236008669Y-119939369D01*
X235601925Y-119770890D01*
X235170128Y-119685000D01*
X234729872Y-119685000D01*
X234298075Y-119770890D01*
X233891331Y-119939369D01*
X233525271Y-120183962D01*
X233213962Y-120495271D01*
X232969369Y-120861331D01*
X232800890Y-121268075D01*
X232715000Y-121699872D01*
X176022000Y-121699872D01*
X176022000Y-120113756D01*
X200905622Y-120113756D01*
X201026222Y-120378713D01*
X201196195Y-120615051D01*
X201409009Y-120813688D01*
X201656486Y-120966990D01*
X201831245Y-121039368D01*
X202057000Y-120935700D01*
X202057000Y-119888000D01*
X201006624Y-119888000D01*
X200905622Y-120113756D01*
X176022000Y-120113756D01*
X176022000Y-119154244D01*
X200905622Y-119154244D01*
X201006624Y-119380000D01*
X202057000Y-119380000D01*
X202057000Y-118332300D01*
X202565000Y-118332300D01*
X202565000Y-119380000D01*
X202585000Y-119380000D01*
X202585000Y-119888000D01*
X202565000Y-119888000D01*
X202565000Y-120935700D01*
X202790755Y-121039368D01*
X202965514Y-120966990D01*
X203212991Y-120813688D01*
X203425805Y-120615051D01*
X203578583Y-120402622D01*
X203697525Y-120580632D01*
X203904368Y-120787475D01*
X204147589Y-120949990D01*
X204417842Y-121061932D01*
X204704740Y-121119000D01*
X204997260Y-121119000D01*
X205284158Y-121061932D01*
X205554411Y-120949990D01*
X205797632Y-120787475D01*
X205929487Y-120655620D01*
X205951498Y-120728180D01*
X206010463Y-120838494D01*
X206089815Y-120935185D01*
X206186506Y-121014537D01*
X206296820Y-121073502D01*
X206416518Y-121109812D01*
X206541000Y-121122072D01*
X208241000Y-121122072D01*
X208365482Y-121109812D01*
X208485180Y-121073502D01*
X208595494Y-121014537D01*
X208692185Y-120935185D01*
X208771537Y-120838494D01*
X208830502Y-120728180D01*
X208866812Y-120608482D01*
X208879072Y-120484000D01*
X208879072Y-118784000D01*
X208866812Y-118659518D01*
X208830502Y-118539820D01*
X208771537Y-118429506D01*
X208692185Y-118332815D01*
X208595494Y-118253463D01*
X208485180Y-118194498D01*
X208365482Y-118158188D01*
X208241000Y-118145928D01*
X206541000Y-118145928D01*
X206416518Y-118158188D01*
X206296820Y-118194498D01*
X206186506Y-118253463D01*
X206089815Y-118332815D01*
X206010463Y-118429506D01*
X205951498Y-118539820D01*
X205929487Y-118612380D01*
X205797632Y-118480525D01*
X205554411Y-118318010D01*
X205284158Y-118206068D01*
X204997260Y-118149000D01*
X204704740Y-118149000D01*
X204417842Y-118206068D01*
X204147589Y-118318010D01*
X203904368Y-118480525D01*
X203697525Y-118687368D01*
X203578583Y-118865378D01*
X203425805Y-118652949D01*
X203212991Y-118454312D01*
X202965514Y-118301010D01*
X202790755Y-118228632D01*
X202565000Y-118332300D01*
X202057000Y-118332300D01*
X201831245Y-118228632D01*
X201656486Y-118301010D01*
X201409009Y-118454312D01*
X201196195Y-118652949D01*
X201026222Y-118889287D01*
X200905622Y-119154244D01*
X176022000Y-119154244D01*
X176022000Y-107803740D01*
X183935000Y-107803740D01*
X183935000Y-108096260D01*
X183992068Y-108383158D01*
X184104010Y-108653411D01*
X184266525Y-108896632D01*
X184473368Y-109103475D01*
X184647760Y-109220000D01*
X184473368Y-109336525D01*
X184266525Y-109543368D01*
X184104010Y-109786589D01*
X183992068Y-110056842D01*
X183935000Y-110343740D01*
X183935000Y-110636260D01*
X183992068Y-110923158D01*
X184104010Y-111193411D01*
X184266525Y-111436632D01*
X184473368Y-111643475D01*
X184647760Y-111760000D01*
X184473368Y-111876525D01*
X184266525Y-112083368D01*
X184104010Y-112326589D01*
X183992068Y-112596842D01*
X183935000Y-112883740D01*
X183935000Y-113176260D01*
X183992068Y-113463158D01*
X184104010Y-113733411D01*
X184266525Y-113976632D01*
X184473368Y-114183475D01*
X184716589Y-114345990D01*
X184986842Y-114457932D01*
X185273740Y-114515000D01*
X185566260Y-114515000D01*
X185853158Y-114457932D01*
X186123411Y-114345990D01*
X186366632Y-114183475D01*
X186573475Y-113976632D01*
X186735990Y-113733411D01*
X186847932Y-113463158D01*
X186905000Y-113176260D01*
X186905000Y-112883740D01*
X186847932Y-112596842D01*
X186735990Y-112326589D01*
X186573475Y-112083368D01*
X186366632Y-111876525D01*
X186192240Y-111760000D01*
X186366632Y-111643475D01*
X186573475Y-111436632D01*
X186735990Y-111193411D01*
X186847932Y-110923158D01*
X186905000Y-110636260D01*
X186905000Y-110343740D01*
X186847932Y-110056842D01*
X186735990Y-109786589D01*
X186573475Y-109543368D01*
X186366632Y-109336525D01*
X186192240Y-109220000D01*
X186366632Y-109103475D01*
X186573475Y-108896632D01*
X186735990Y-108653411D01*
X186847932Y-108383158D01*
X186905000Y-108096260D01*
X186905000Y-107803740D01*
X194095000Y-107803740D01*
X194095000Y-108096260D01*
X194152068Y-108383158D01*
X194264010Y-108653411D01*
X194426525Y-108896632D01*
X194633368Y-109103475D01*
X194807760Y-109220000D01*
X194633368Y-109336525D01*
X194426525Y-109543368D01*
X194264010Y-109786589D01*
X194152068Y-110056842D01*
X194095000Y-110343740D01*
X194095000Y-110636260D01*
X194152068Y-110923158D01*
X194264010Y-111193411D01*
X194426525Y-111436632D01*
X194633368Y-111643475D01*
X194807760Y-111760000D01*
X194633368Y-111876525D01*
X194426525Y-112083368D01*
X194264010Y-112326589D01*
X194152068Y-112596842D01*
X194095000Y-112883740D01*
X194095000Y-113176260D01*
X194152068Y-113463158D01*
X194264010Y-113733411D01*
X194426525Y-113976632D01*
X194633368Y-114183475D01*
X194876589Y-114345990D01*
X195146842Y-114457932D01*
X195433740Y-114515000D01*
X195726260Y-114515000D01*
X196013158Y-114457932D01*
X196283411Y-114345990D01*
X196526632Y-114183475D01*
X196733475Y-113976632D01*
X196895990Y-113733411D01*
X197007932Y-113463158D01*
X197065000Y-113176260D01*
X197065000Y-112883740D01*
X197007932Y-112596842D01*
X196895990Y-112326589D01*
X196733475Y-112083368D01*
X196526632Y-111876525D01*
X196352240Y-111760000D01*
X196526632Y-111643475D01*
X196733475Y-111436632D01*
X196895990Y-111193411D01*
X197007932Y-110923158D01*
X197065000Y-110636260D01*
X197065000Y-110343740D01*
X197007932Y-110056842D01*
X196895990Y-109786589D01*
X196733475Y-109543368D01*
X196526632Y-109336525D01*
X196352240Y-109220000D01*
X196526632Y-109103475D01*
X196733475Y-108896632D01*
X196895990Y-108653411D01*
X197007932Y-108383158D01*
X197065000Y-108096260D01*
X197065000Y-107803740D01*
X197007932Y-107516842D01*
X196895990Y-107246589D01*
X196733475Y-107003368D01*
X196526632Y-106796525D01*
X196283411Y-106634010D01*
X196281905Y-106633386D01*
X196326012Y-106515222D01*
X195580000Y-105769210D01*
X194833988Y-106515222D01*
X194878095Y-106633386D01*
X194876589Y-106634010D01*
X194633368Y-106796525D01*
X194426525Y-107003368D01*
X194264010Y-107246589D01*
X194152068Y-107516842D01*
X194095000Y-107803740D01*
X186905000Y-107803740D01*
X186847932Y-107516842D01*
X186735990Y-107246589D01*
X186573475Y-107003368D01*
X186366632Y-106796525D01*
X186123411Y-106634010D01*
X186121905Y-106633386D01*
X186166012Y-106515222D01*
X185420000Y-105769210D01*
X184673988Y-106515222D01*
X184718095Y-106633386D01*
X184716589Y-106634010D01*
X184473368Y-106796525D01*
X184266525Y-107003368D01*
X184104010Y-107246589D01*
X183992068Y-107516842D01*
X183935000Y-107803740D01*
X176022000Y-107803740D01*
X176022000Y-105313722D01*
X183930925Y-105313722D01*
X183940755Y-105606076D01*
X184007430Y-105890895D01*
X184081118Y-106068794D01*
X184314778Y-106156012D01*
X185060790Y-105410000D01*
X185779210Y-105410000D01*
X186525222Y-106156012D01*
X186758882Y-106068794D01*
X186861680Y-105794933D01*
X186909075Y-105506278D01*
X186902601Y-105313722D01*
X194090925Y-105313722D01*
X194100755Y-105606076D01*
X194167430Y-105890895D01*
X194241118Y-106068794D01*
X194474778Y-106156012D01*
X195220790Y-105410000D01*
X195939210Y-105410000D01*
X196685222Y-106156012D01*
X196918882Y-106068794D01*
X197021680Y-105794933D01*
X197069075Y-105506278D01*
X197059245Y-105213924D01*
X196992570Y-104929105D01*
X196918882Y-104751206D01*
X196685222Y-104663988D01*
X195939210Y-105410000D01*
X195220790Y-105410000D01*
X194474778Y-104663988D01*
X194241118Y-104751206D01*
X194138320Y-105025067D01*
X194090925Y-105313722D01*
X186902601Y-105313722D01*
X186899245Y-105213924D01*
X186832570Y-104929105D01*
X186758882Y-104751206D01*
X186525222Y-104663988D01*
X185779210Y-105410000D01*
X185060790Y-105410000D01*
X184314778Y-104663988D01*
X184081118Y-104751206D01*
X183978320Y-105025067D01*
X183930925Y-105313722D01*
X176022000Y-105313722D01*
X176022000Y-100183740D01*
X183935000Y-100183740D01*
X183935000Y-100476260D01*
X183992068Y-100763158D01*
X184104010Y-101033411D01*
X184266525Y-101276632D01*
X184473368Y-101483475D01*
X184647760Y-101600000D01*
X184473368Y-101716525D01*
X184266525Y-101923368D01*
X184104010Y-102166589D01*
X183992068Y-102436842D01*
X183935000Y-102723740D01*
X183935000Y-103016260D01*
X183992068Y-103303158D01*
X184104010Y-103573411D01*
X184266525Y-103816632D01*
X184473368Y-104023475D01*
X184716589Y-104185990D01*
X184718095Y-104186614D01*
X184673988Y-104304778D01*
X185420000Y-105050790D01*
X186166012Y-104304778D01*
X186121905Y-104186614D01*
X186123411Y-104185990D01*
X186366632Y-104023475D01*
X186573475Y-103816632D01*
X186735990Y-103573411D01*
X186847932Y-103303158D01*
X186905000Y-103016260D01*
X186905000Y-102723740D01*
X186847932Y-102436842D01*
X186735990Y-102166589D01*
X186573475Y-101923368D01*
X186366632Y-101716525D01*
X186192240Y-101600000D01*
X186366632Y-101483475D01*
X186573475Y-101276632D01*
X186735990Y-101033411D01*
X186847932Y-100763158D01*
X186905000Y-100476260D01*
X186905000Y-100183740D01*
X194095000Y-100183740D01*
X194095000Y-100476260D01*
X194152068Y-100763158D01*
X194264010Y-101033411D01*
X194426525Y-101276632D01*
X194633368Y-101483475D01*
X194807760Y-101600000D01*
X194633368Y-101716525D01*
X194426525Y-101923368D01*
X194264010Y-102166589D01*
X194152068Y-102436842D01*
X194095000Y-102723740D01*
X194095000Y-103016260D01*
X194152068Y-103303158D01*
X194264010Y-103573411D01*
X194426525Y-103816632D01*
X194633368Y-104023475D01*
X194876589Y-104185990D01*
X194878095Y-104186614D01*
X194833988Y-104304778D01*
X195580000Y-105050790D01*
X196326012Y-104304778D01*
X196281905Y-104186614D01*
X196283411Y-104185990D01*
X196526632Y-104023475D01*
X196733475Y-103816632D01*
X196814413Y-103695500D01*
X206382506Y-103695500D01*
X206519744Y-103787199D01*
X206708102Y-103865220D01*
X206908061Y-103904994D01*
X207111939Y-103904994D01*
X207311898Y-103865220D01*
X207500256Y-103787199D01*
X207669774Y-103673931D01*
X207813937Y-103529768D01*
X207927205Y-103360250D01*
X208005226Y-103171892D01*
X208045000Y-102971933D01*
X208045000Y-102768055D01*
X208005226Y-102568096D01*
X207927205Y-102379738D01*
X207813937Y-102210220D01*
X207669774Y-102066057D01*
X207500256Y-101952789D01*
X207311898Y-101874768D01*
X207111939Y-101834994D01*
X206908061Y-101834994D01*
X206708102Y-101874768D01*
X206519744Y-101952789D01*
X206382488Y-102044500D01*
X196814413Y-102044500D01*
X196733475Y-101923368D01*
X196526632Y-101716525D01*
X196352240Y-101600000D01*
X196504802Y-101498061D01*
X211690000Y-101498061D01*
X211690000Y-101701939D01*
X211729774Y-101901898D01*
X211807795Y-102090256D01*
X211921063Y-102259774D01*
X212065226Y-102403937D01*
X212234744Y-102517205D01*
X212423102Y-102595226D01*
X212623061Y-102635000D01*
X212826939Y-102635000D01*
X213026898Y-102595226D01*
X213215256Y-102517205D01*
X213384774Y-102403937D01*
X213528937Y-102259774D01*
X213642205Y-102090256D01*
X213720226Y-101901898D01*
X213752428Y-101740004D01*
X214550039Y-100942394D01*
X214581541Y-100916541D01*
X214660560Y-100820256D01*
X214684699Y-100790843D01*
X214711399Y-100740889D01*
X214761353Y-100647434D01*
X214808556Y-100491826D01*
X214820500Y-100370553D01*
X214820500Y-100370551D01*
X214824494Y-100330001D01*
X214820500Y-100289450D01*
X214820500Y-96836344D01*
X214859606Y-96875450D01*
X215053692Y-97005134D01*
X215269348Y-97094461D01*
X215498288Y-97140000D01*
X215731712Y-97140000D01*
X215960652Y-97094461D01*
X216176308Y-97005134D01*
X216370394Y-96875450D01*
X216535450Y-96710394D01*
X216665134Y-96516308D01*
X216754461Y-96300652D01*
X216800000Y-96071712D01*
X216800000Y-95838288D01*
X216754461Y-95609348D01*
X216665134Y-95393692D01*
X216535450Y-95199606D01*
X216370394Y-95034550D01*
X216176308Y-94904866D01*
X215960652Y-94815539D01*
X215731712Y-94770000D01*
X215498288Y-94770000D01*
X215442245Y-94781148D01*
X215443556Y-94776826D01*
X215455500Y-94655553D01*
X215455500Y-94655551D01*
X215459494Y-94615000D01*
X215458337Y-94603256D01*
X215547205Y-94470256D01*
X215625226Y-94281898D01*
X215665000Y-94081939D01*
X215665000Y-93878061D01*
X215625226Y-93678102D01*
X215547205Y-93489744D01*
X215433937Y-93320226D01*
X215289774Y-93176063D01*
X215120256Y-93062795D01*
X214931898Y-92984774D01*
X214731939Y-92945000D01*
X214528061Y-92945000D01*
X214328102Y-92984774D01*
X214139744Y-93062795D01*
X213970226Y-93176063D01*
X213826063Y-93320226D01*
X213712795Y-93489744D01*
X213634774Y-93678102D01*
X213595000Y-93878061D01*
X213595000Y-94081939D01*
X213634774Y-94281898D01*
X213681899Y-94395668D01*
X213439965Y-94637603D01*
X213408459Y-94663459D01*
X213339214Y-94747835D01*
X213305301Y-94789158D01*
X213243454Y-94904866D01*
X213228647Y-94932567D01*
X213181444Y-95088175D01*
X213170279Y-95201541D01*
X213165506Y-95250000D01*
X213169500Y-95290551D01*
X213169501Y-99988066D01*
X212584996Y-100572572D01*
X212423102Y-100604774D01*
X212234744Y-100682795D01*
X212065226Y-100796063D01*
X211921063Y-100940226D01*
X211807795Y-101109744D01*
X211729774Y-101298102D01*
X211690000Y-101498061D01*
X196504802Y-101498061D01*
X196526632Y-101483475D01*
X196733475Y-101276632D01*
X196814413Y-101155500D01*
X206382497Y-101155500D01*
X206519744Y-101247205D01*
X206708102Y-101325226D01*
X206908061Y-101365000D01*
X207111939Y-101365000D01*
X207311898Y-101325226D01*
X207500256Y-101247205D01*
X207669774Y-101133937D01*
X207813937Y-100989774D01*
X207927205Y-100820256D01*
X208005226Y-100631898D01*
X208045000Y-100431939D01*
X208045000Y-100228061D01*
X208005226Y-100028102D01*
X207927205Y-99839744D01*
X207813937Y-99670226D01*
X207669774Y-99526063D01*
X207500256Y-99412795D01*
X207311898Y-99334774D01*
X207111939Y-99295000D01*
X206908061Y-99295000D01*
X206708102Y-99334774D01*
X206519744Y-99412795D01*
X206382497Y-99504500D01*
X196814413Y-99504500D01*
X196733475Y-99383368D01*
X196526632Y-99176525D01*
X196283411Y-99014010D01*
X196013158Y-98902068D01*
X195726260Y-98845000D01*
X195433740Y-98845000D01*
X195146842Y-98902068D01*
X194876589Y-99014010D01*
X194633368Y-99176525D01*
X194426525Y-99383368D01*
X194264010Y-99626589D01*
X194152068Y-99896842D01*
X194095000Y-100183740D01*
X186905000Y-100183740D01*
X186847932Y-99896842D01*
X186735990Y-99626589D01*
X186573475Y-99383368D01*
X186366632Y-99176525D01*
X186123411Y-99014010D01*
X185853158Y-98902068D01*
X185566260Y-98845000D01*
X185273740Y-98845000D01*
X184986842Y-98902068D01*
X184716589Y-99014010D01*
X184473368Y-99176525D01*
X184266525Y-99383368D01*
X184104010Y-99626589D01*
X183992068Y-99896842D01*
X183935000Y-100183740D01*
X176022000Y-100183740D01*
X176022000Y-98477606D01*
X179757606Y-94742000D01*
X195580000Y-94742000D01*
X195604776Y-94739560D01*
X195628601Y-94732333D01*
X195650557Y-94720597D01*
X195669803Y-94704803D01*
X195685597Y-94685557D01*
X195697333Y-94663601D01*
X195704560Y-94639776D01*
X195707000Y-94615000D01*
X195707000Y-74813665D01*
X214180000Y-74813665D01*
X214180000Y-75096335D01*
X214235147Y-75373574D01*
X214343320Y-75634727D01*
X214500363Y-75869759D01*
X214700241Y-76069637D01*
X214935273Y-76226680D01*
X215196426Y-76334853D01*
X215473665Y-76390000D01*
X215756335Y-76390000D01*
X216033574Y-76334853D01*
X216294727Y-76226680D01*
X216529759Y-76069637D01*
X216729637Y-75869759D01*
X216886680Y-75634727D01*
X216994853Y-75373574D01*
X217050000Y-75096335D01*
X217050000Y-74813665D01*
X216994853Y-74536426D01*
X216886680Y-74275273D01*
X216729637Y-74040241D01*
X216529759Y-73840363D01*
X216294727Y-73683320D01*
X216033574Y-73575147D01*
X215756335Y-73520000D01*
X215473665Y-73520000D01*
X215196426Y-73575147D01*
X214935273Y-73683320D01*
X214700241Y-73840363D01*
X214500363Y-74040241D01*
X214343320Y-74275273D01*
X214235147Y-74536426D01*
X214180000Y-74813665D01*
X195707000Y-74813665D01*
X195707000Y-68359872D01*
X206045000Y-68359872D01*
X206045000Y-68800128D01*
X206130890Y-69231925D01*
X206299369Y-69638669D01*
X206543962Y-70004729D01*
X206855271Y-70316038D01*
X207221331Y-70560631D01*
X207628075Y-70729110D01*
X208059872Y-70815000D01*
X208500128Y-70815000D01*
X208931925Y-70729110D01*
X209338669Y-70560631D01*
X209704729Y-70316038D01*
X210016038Y-70004729D01*
X210260631Y-69638669D01*
X210429110Y-69231925D01*
X210515000Y-68800128D01*
X210515000Y-68359872D01*
X210429110Y-67928075D01*
X210260631Y-67521331D01*
X210016038Y-67155271D01*
X209704729Y-66843962D01*
X209338669Y-66599369D01*
X208931925Y-66430890D01*
X208500128Y-66345000D01*
X208059872Y-66345000D01*
X207628075Y-66430890D01*
X207221331Y-66599369D01*
X206855271Y-66843962D01*
X206543962Y-67155271D01*
X206299369Y-67521331D01*
X206130890Y-67928075D01*
X206045000Y-68359872D01*
X195707000Y-68359872D01*
X195707000Y-65532000D01*
X237998000Y-65532000D01*
X237998000Y-124968000D01*
%TA.AperFunction,Conductor*%
D23*
G36*
X237998000Y-124968000D02*
G01*
X176022000Y-124968000D01*
X176022000Y-121699872D01*
X232715000Y-121699872D01*
X232715000Y-122140128D01*
X232800890Y-122571925D01*
X232969369Y-122978669D01*
X233213962Y-123344729D01*
X233525271Y-123656038D01*
X233891331Y-123900631D01*
X234298075Y-124069110D01*
X234729872Y-124155000D01*
X235170128Y-124155000D01*
X235601925Y-124069110D01*
X236008669Y-123900631D01*
X236374729Y-123656038D01*
X236686038Y-123344729D01*
X236930631Y-122978669D01*
X237099110Y-122571925D01*
X237185000Y-122140128D01*
X237185000Y-121699872D01*
X237099110Y-121268075D01*
X236930631Y-120861331D01*
X236686038Y-120495271D01*
X236374729Y-120183962D01*
X236008669Y-119939369D01*
X235601925Y-119770890D01*
X235170128Y-119685000D01*
X234729872Y-119685000D01*
X234298075Y-119770890D01*
X233891331Y-119939369D01*
X233525271Y-120183962D01*
X233213962Y-120495271D01*
X232969369Y-120861331D01*
X232800890Y-121268075D01*
X232715000Y-121699872D01*
X176022000Y-121699872D01*
X176022000Y-120113756D01*
X200905622Y-120113756D01*
X201026222Y-120378713D01*
X201196195Y-120615051D01*
X201409009Y-120813688D01*
X201656486Y-120966990D01*
X201831245Y-121039368D01*
X202057000Y-120935700D01*
X202057000Y-119888000D01*
X201006624Y-119888000D01*
X200905622Y-120113756D01*
X176022000Y-120113756D01*
X176022000Y-119154244D01*
X200905622Y-119154244D01*
X201006624Y-119380000D01*
X202057000Y-119380000D01*
X202057000Y-118332300D01*
X202565000Y-118332300D01*
X202565000Y-119380000D01*
X202585000Y-119380000D01*
X202585000Y-119888000D01*
X202565000Y-119888000D01*
X202565000Y-120935700D01*
X202790755Y-121039368D01*
X202965514Y-120966990D01*
X203212991Y-120813688D01*
X203425805Y-120615051D01*
X203578583Y-120402622D01*
X203697525Y-120580632D01*
X203904368Y-120787475D01*
X204147589Y-120949990D01*
X204417842Y-121061932D01*
X204704740Y-121119000D01*
X204997260Y-121119000D01*
X205284158Y-121061932D01*
X205554411Y-120949990D01*
X205797632Y-120787475D01*
X205929487Y-120655620D01*
X205951498Y-120728180D01*
X206010463Y-120838494D01*
X206089815Y-120935185D01*
X206186506Y-121014537D01*
X206296820Y-121073502D01*
X206416518Y-121109812D01*
X206541000Y-121122072D01*
X208241000Y-121122072D01*
X208365482Y-121109812D01*
X208485180Y-121073502D01*
X208595494Y-121014537D01*
X208692185Y-120935185D01*
X208771537Y-120838494D01*
X208830502Y-120728180D01*
X208866812Y-120608482D01*
X208879072Y-120484000D01*
X208879072Y-118784000D01*
X208866812Y-118659518D01*
X208830502Y-118539820D01*
X208771537Y-118429506D01*
X208692185Y-118332815D01*
X208595494Y-118253463D01*
X208485180Y-118194498D01*
X208365482Y-118158188D01*
X208241000Y-118145928D01*
X206541000Y-118145928D01*
X206416518Y-118158188D01*
X206296820Y-118194498D01*
X206186506Y-118253463D01*
X206089815Y-118332815D01*
X206010463Y-118429506D01*
X205951498Y-118539820D01*
X205929487Y-118612380D01*
X205797632Y-118480525D01*
X205554411Y-118318010D01*
X205284158Y-118206068D01*
X204997260Y-118149000D01*
X204704740Y-118149000D01*
X204417842Y-118206068D01*
X204147589Y-118318010D01*
X203904368Y-118480525D01*
X203697525Y-118687368D01*
X203578583Y-118865378D01*
X203425805Y-118652949D01*
X203212991Y-118454312D01*
X202965514Y-118301010D01*
X202790755Y-118228632D01*
X202565000Y-118332300D01*
X202057000Y-118332300D01*
X201831245Y-118228632D01*
X201656486Y-118301010D01*
X201409009Y-118454312D01*
X201196195Y-118652949D01*
X201026222Y-118889287D01*
X200905622Y-119154244D01*
X176022000Y-119154244D01*
X176022000Y-107803740D01*
X183935000Y-107803740D01*
X183935000Y-108096260D01*
X183992068Y-108383158D01*
X184104010Y-108653411D01*
X184266525Y-108896632D01*
X184473368Y-109103475D01*
X184647760Y-109220000D01*
X184473368Y-109336525D01*
X184266525Y-109543368D01*
X184104010Y-109786589D01*
X183992068Y-110056842D01*
X183935000Y-110343740D01*
X183935000Y-110636260D01*
X183992068Y-110923158D01*
X184104010Y-111193411D01*
X184266525Y-111436632D01*
X184473368Y-111643475D01*
X184647760Y-111760000D01*
X184473368Y-111876525D01*
X184266525Y-112083368D01*
X184104010Y-112326589D01*
X183992068Y-112596842D01*
X183935000Y-112883740D01*
X183935000Y-113176260D01*
X183992068Y-113463158D01*
X184104010Y-113733411D01*
X184266525Y-113976632D01*
X184473368Y-114183475D01*
X184716589Y-114345990D01*
X184986842Y-114457932D01*
X185273740Y-114515000D01*
X185566260Y-114515000D01*
X185853158Y-114457932D01*
X186123411Y-114345990D01*
X186366632Y-114183475D01*
X186573475Y-113976632D01*
X186735990Y-113733411D01*
X186847932Y-113463158D01*
X186905000Y-113176260D01*
X186905000Y-112883740D01*
X186847932Y-112596842D01*
X186735990Y-112326589D01*
X186573475Y-112083368D01*
X186366632Y-111876525D01*
X186192240Y-111760000D01*
X186366632Y-111643475D01*
X186573475Y-111436632D01*
X186735990Y-111193411D01*
X186847932Y-110923158D01*
X186905000Y-110636260D01*
X186905000Y-110343740D01*
X186847932Y-110056842D01*
X186735990Y-109786589D01*
X186573475Y-109543368D01*
X186366632Y-109336525D01*
X186192240Y-109220000D01*
X186366632Y-109103475D01*
X186573475Y-108896632D01*
X186735990Y-108653411D01*
X186847932Y-108383158D01*
X186905000Y-108096260D01*
X186905000Y-107803740D01*
X194095000Y-107803740D01*
X194095000Y-108096260D01*
X194152068Y-108383158D01*
X194264010Y-108653411D01*
X194426525Y-108896632D01*
X194633368Y-109103475D01*
X194807760Y-109220000D01*
X194633368Y-109336525D01*
X194426525Y-109543368D01*
X194264010Y-109786589D01*
X194152068Y-110056842D01*
X194095000Y-110343740D01*
X194095000Y-110636260D01*
X194152068Y-110923158D01*
X194264010Y-111193411D01*
X194426525Y-111436632D01*
X194633368Y-111643475D01*
X194807760Y-111760000D01*
X194633368Y-111876525D01*
X194426525Y-112083368D01*
X194264010Y-112326589D01*
X194152068Y-112596842D01*
X194095000Y-112883740D01*
X194095000Y-113176260D01*
X194152068Y-113463158D01*
X194264010Y-113733411D01*
X194426525Y-113976632D01*
X194633368Y-114183475D01*
X194876589Y-114345990D01*
X195146842Y-114457932D01*
X195433740Y-114515000D01*
X195726260Y-114515000D01*
X196013158Y-114457932D01*
X196283411Y-114345990D01*
X196526632Y-114183475D01*
X196733475Y-113976632D01*
X196895990Y-113733411D01*
X197007932Y-113463158D01*
X197065000Y-113176260D01*
X197065000Y-112883740D01*
X197007932Y-112596842D01*
X196895990Y-112326589D01*
X196733475Y-112083368D01*
X196526632Y-111876525D01*
X196352240Y-111760000D01*
X196526632Y-111643475D01*
X196733475Y-111436632D01*
X196895990Y-111193411D01*
X197007932Y-110923158D01*
X197065000Y-110636260D01*
X197065000Y-110343740D01*
X197007932Y-110056842D01*
X196895990Y-109786589D01*
X196733475Y-109543368D01*
X196526632Y-109336525D01*
X196352240Y-109220000D01*
X196526632Y-109103475D01*
X196733475Y-108896632D01*
X196895990Y-108653411D01*
X197007932Y-108383158D01*
X197065000Y-108096260D01*
X197065000Y-107803740D01*
X197007932Y-107516842D01*
X196895990Y-107246589D01*
X196733475Y-107003368D01*
X196526632Y-106796525D01*
X196283411Y-106634010D01*
X196281905Y-106633386D01*
X196326012Y-106515222D01*
X195580000Y-105769210D01*
X194833988Y-106515222D01*
X194878095Y-106633386D01*
X194876589Y-106634010D01*
X194633368Y-106796525D01*
X194426525Y-107003368D01*
X194264010Y-107246589D01*
X194152068Y-107516842D01*
X194095000Y-107803740D01*
X186905000Y-107803740D01*
X186847932Y-107516842D01*
X186735990Y-107246589D01*
X186573475Y-107003368D01*
X186366632Y-106796525D01*
X186123411Y-106634010D01*
X186121905Y-106633386D01*
X186166012Y-106515222D01*
X185420000Y-105769210D01*
X184673988Y-106515222D01*
X184718095Y-106633386D01*
X184716589Y-106634010D01*
X184473368Y-106796525D01*
X184266525Y-107003368D01*
X184104010Y-107246589D01*
X183992068Y-107516842D01*
X183935000Y-107803740D01*
X176022000Y-107803740D01*
X176022000Y-105313722D01*
X183930925Y-105313722D01*
X183940755Y-105606076D01*
X184007430Y-105890895D01*
X184081118Y-106068794D01*
X184314778Y-106156012D01*
X185060790Y-105410000D01*
X185779210Y-105410000D01*
X186525222Y-106156012D01*
X186758882Y-106068794D01*
X186861680Y-105794933D01*
X186909075Y-105506278D01*
X186902601Y-105313722D01*
X194090925Y-105313722D01*
X194100755Y-105606076D01*
X194167430Y-105890895D01*
X194241118Y-106068794D01*
X194474778Y-106156012D01*
X195220790Y-105410000D01*
X195939210Y-105410000D01*
X196685222Y-106156012D01*
X196918882Y-106068794D01*
X197021680Y-105794933D01*
X197069075Y-105506278D01*
X197059245Y-105213924D01*
X196992570Y-104929105D01*
X196918882Y-104751206D01*
X196685222Y-104663988D01*
X195939210Y-105410000D01*
X195220790Y-105410000D01*
X194474778Y-104663988D01*
X194241118Y-104751206D01*
X194138320Y-105025067D01*
X194090925Y-105313722D01*
X186902601Y-105313722D01*
X186899245Y-105213924D01*
X186832570Y-104929105D01*
X186758882Y-104751206D01*
X186525222Y-104663988D01*
X185779210Y-105410000D01*
X185060790Y-105410000D01*
X184314778Y-104663988D01*
X184081118Y-104751206D01*
X183978320Y-105025067D01*
X183930925Y-105313722D01*
X176022000Y-105313722D01*
X176022000Y-100183740D01*
X183935000Y-100183740D01*
X183935000Y-100476260D01*
X183992068Y-100763158D01*
X184104010Y-101033411D01*
X184266525Y-101276632D01*
X184473368Y-101483475D01*
X184647760Y-101600000D01*
X184473368Y-101716525D01*
X184266525Y-101923368D01*
X184104010Y-102166589D01*
X183992068Y-102436842D01*
X183935000Y-102723740D01*
X183935000Y-103016260D01*
X183992068Y-103303158D01*
X184104010Y-103573411D01*
X184266525Y-103816632D01*
X184473368Y-104023475D01*
X184716589Y-104185990D01*
X184718095Y-104186614D01*
X184673988Y-104304778D01*
X185420000Y-105050790D01*
X186166012Y-104304778D01*
X186121905Y-104186614D01*
X186123411Y-104185990D01*
X186366632Y-104023475D01*
X186573475Y-103816632D01*
X186735990Y-103573411D01*
X186847932Y-103303158D01*
X186905000Y-103016260D01*
X186905000Y-102723740D01*
X186847932Y-102436842D01*
X186735990Y-102166589D01*
X186573475Y-101923368D01*
X186366632Y-101716525D01*
X186192240Y-101600000D01*
X186366632Y-101483475D01*
X186573475Y-101276632D01*
X186735990Y-101033411D01*
X186847932Y-100763158D01*
X186905000Y-100476260D01*
X186905000Y-100183740D01*
X194095000Y-100183740D01*
X194095000Y-100476260D01*
X194152068Y-100763158D01*
X194264010Y-101033411D01*
X194426525Y-101276632D01*
X194633368Y-101483475D01*
X194807760Y-101600000D01*
X194633368Y-101716525D01*
X194426525Y-101923368D01*
X194264010Y-102166589D01*
X194152068Y-102436842D01*
X194095000Y-102723740D01*
X194095000Y-103016260D01*
X194152068Y-103303158D01*
X194264010Y-103573411D01*
X194426525Y-103816632D01*
X194633368Y-104023475D01*
X194876589Y-104185990D01*
X194878095Y-104186614D01*
X194833988Y-104304778D01*
X195580000Y-105050790D01*
X196326012Y-104304778D01*
X196281905Y-104186614D01*
X196283411Y-104185990D01*
X196526632Y-104023475D01*
X196733475Y-103816632D01*
X196814413Y-103695500D01*
X206382506Y-103695500D01*
X206519744Y-103787199D01*
X206708102Y-103865220D01*
X206908061Y-103904994D01*
X207111939Y-103904994D01*
X207311898Y-103865220D01*
X207500256Y-103787199D01*
X207669774Y-103673931D01*
X207813937Y-103529768D01*
X207927205Y-103360250D01*
X208005226Y-103171892D01*
X208045000Y-102971933D01*
X208045000Y-102768055D01*
X208005226Y-102568096D01*
X207927205Y-102379738D01*
X207813937Y-102210220D01*
X207669774Y-102066057D01*
X207500256Y-101952789D01*
X207311898Y-101874768D01*
X207111939Y-101834994D01*
X206908061Y-101834994D01*
X206708102Y-101874768D01*
X206519744Y-101952789D01*
X206382488Y-102044500D01*
X196814413Y-102044500D01*
X196733475Y-101923368D01*
X196526632Y-101716525D01*
X196352240Y-101600000D01*
X196504802Y-101498061D01*
X211690000Y-101498061D01*
X211690000Y-101701939D01*
X211729774Y-101901898D01*
X211807795Y-102090256D01*
X211921063Y-102259774D01*
X212065226Y-102403937D01*
X212234744Y-102517205D01*
X212423102Y-102595226D01*
X212623061Y-102635000D01*
X212826939Y-102635000D01*
X213026898Y-102595226D01*
X213215256Y-102517205D01*
X213384774Y-102403937D01*
X213528937Y-102259774D01*
X213642205Y-102090256D01*
X213720226Y-101901898D01*
X213752428Y-101740004D01*
X214550039Y-100942394D01*
X214581541Y-100916541D01*
X214660560Y-100820256D01*
X214684699Y-100790843D01*
X214711399Y-100740889D01*
X214761353Y-100647434D01*
X214808556Y-100491826D01*
X214820500Y-100370553D01*
X214820500Y-100370551D01*
X214824494Y-100330001D01*
X214820500Y-100289450D01*
X214820500Y-96836344D01*
X214859606Y-96875450D01*
X215053692Y-97005134D01*
X215269348Y-97094461D01*
X215498288Y-97140000D01*
X215731712Y-97140000D01*
X215960652Y-97094461D01*
X216176308Y-97005134D01*
X216370394Y-96875450D01*
X216535450Y-96710394D01*
X216665134Y-96516308D01*
X216754461Y-96300652D01*
X216800000Y-96071712D01*
X216800000Y-95838288D01*
X216754461Y-95609348D01*
X216665134Y-95393692D01*
X216535450Y-95199606D01*
X216370394Y-95034550D01*
X216176308Y-94904866D01*
X215960652Y-94815539D01*
X215731712Y-94770000D01*
X215498288Y-94770000D01*
X215442245Y-94781148D01*
X215443556Y-94776826D01*
X215455500Y-94655553D01*
X215455500Y-94655551D01*
X215459494Y-94615000D01*
X215458337Y-94603256D01*
X215547205Y-94470256D01*
X215625226Y-94281898D01*
X215665000Y-94081939D01*
X215665000Y-93878061D01*
X215625226Y-93678102D01*
X215547205Y-93489744D01*
X215433937Y-93320226D01*
X215289774Y-93176063D01*
X215120256Y-93062795D01*
X214931898Y-92984774D01*
X214731939Y-92945000D01*
X214528061Y-92945000D01*
X214328102Y-92984774D01*
X214139744Y-93062795D01*
X213970226Y-93176063D01*
X213826063Y-93320226D01*
X213712795Y-93489744D01*
X213634774Y-93678102D01*
X213595000Y-93878061D01*
X213595000Y-94081939D01*
X213634774Y-94281898D01*
X213681899Y-94395668D01*
X213439965Y-94637603D01*
X213408459Y-94663459D01*
X213339214Y-94747835D01*
X213305301Y-94789158D01*
X213243454Y-94904866D01*
X213228647Y-94932567D01*
X213181444Y-95088175D01*
X213170279Y-95201541D01*
X213165506Y-95250000D01*
X213169500Y-95290551D01*
X213169501Y-99988066D01*
X212584996Y-100572572D01*
X212423102Y-100604774D01*
X212234744Y-100682795D01*
X212065226Y-100796063D01*
X211921063Y-100940226D01*
X211807795Y-101109744D01*
X211729774Y-101298102D01*
X211690000Y-101498061D01*
X196504802Y-101498061D01*
X196526632Y-101483475D01*
X196733475Y-101276632D01*
X196814413Y-101155500D01*
X206382497Y-101155500D01*
X206519744Y-101247205D01*
X206708102Y-101325226D01*
X206908061Y-101365000D01*
X207111939Y-101365000D01*
X207311898Y-101325226D01*
X207500256Y-101247205D01*
X207669774Y-101133937D01*
X207813937Y-100989774D01*
X207927205Y-100820256D01*
X208005226Y-100631898D01*
X208045000Y-100431939D01*
X208045000Y-100228061D01*
X208005226Y-100028102D01*
X207927205Y-99839744D01*
X207813937Y-99670226D01*
X207669774Y-99526063D01*
X207500256Y-99412795D01*
X207311898Y-99334774D01*
X207111939Y-99295000D01*
X206908061Y-99295000D01*
X206708102Y-99334774D01*
X206519744Y-99412795D01*
X206382497Y-99504500D01*
X196814413Y-99504500D01*
X196733475Y-99383368D01*
X196526632Y-99176525D01*
X196283411Y-99014010D01*
X196013158Y-98902068D01*
X195726260Y-98845000D01*
X195433740Y-98845000D01*
X195146842Y-98902068D01*
X194876589Y-99014010D01*
X194633368Y-99176525D01*
X194426525Y-99383368D01*
X194264010Y-99626589D01*
X194152068Y-99896842D01*
X194095000Y-100183740D01*
X186905000Y-100183740D01*
X186847932Y-99896842D01*
X186735990Y-99626589D01*
X186573475Y-99383368D01*
X186366632Y-99176525D01*
X186123411Y-99014010D01*
X185853158Y-98902068D01*
X185566260Y-98845000D01*
X185273740Y-98845000D01*
X184986842Y-98902068D01*
X184716589Y-99014010D01*
X184473368Y-99176525D01*
X184266525Y-99383368D01*
X184104010Y-99626589D01*
X183992068Y-99896842D01*
X183935000Y-100183740D01*
X176022000Y-100183740D01*
X176022000Y-98477606D01*
X179757606Y-94742000D01*
X195580000Y-94742000D01*
X195604776Y-94739560D01*
X195628601Y-94732333D01*
X195650557Y-94720597D01*
X195669803Y-94704803D01*
X195685597Y-94685557D01*
X195697333Y-94663601D01*
X195704560Y-94639776D01*
X195707000Y-94615000D01*
X195707000Y-74813665D01*
X214180000Y-74813665D01*
X214180000Y-75096335D01*
X214235147Y-75373574D01*
X214343320Y-75634727D01*
X214500363Y-75869759D01*
X214700241Y-76069637D01*
X214935273Y-76226680D01*
X215196426Y-76334853D01*
X215473665Y-76390000D01*
X215756335Y-76390000D01*
X216033574Y-76334853D01*
X216294727Y-76226680D01*
X216529759Y-76069637D01*
X216729637Y-75869759D01*
X216886680Y-75634727D01*
X216994853Y-75373574D01*
X217050000Y-75096335D01*
X217050000Y-74813665D01*
X216994853Y-74536426D01*
X216886680Y-74275273D01*
X216729637Y-74040241D01*
X216529759Y-73840363D01*
X216294727Y-73683320D01*
X216033574Y-73575147D01*
X215756335Y-73520000D01*
X215473665Y-73520000D01*
X215196426Y-73575147D01*
X214935273Y-73683320D01*
X214700241Y-73840363D01*
X214500363Y-74040241D01*
X214343320Y-74275273D01*
X214235147Y-74536426D01*
X214180000Y-74813665D01*
X195707000Y-74813665D01*
X195707000Y-68359872D01*
X206045000Y-68359872D01*
X206045000Y-68800128D01*
X206130890Y-69231925D01*
X206299369Y-69638669D01*
X206543962Y-70004729D01*
X206855271Y-70316038D01*
X207221331Y-70560631D01*
X207628075Y-70729110D01*
X208059872Y-70815000D01*
X208500128Y-70815000D01*
X208931925Y-70729110D01*
X209338669Y-70560631D01*
X209704729Y-70316038D01*
X210016038Y-70004729D01*
X210260631Y-69638669D01*
X210429110Y-69231925D01*
X210515000Y-68800128D01*
X210515000Y-68359872D01*
X210429110Y-67928075D01*
X210260631Y-67521331D01*
X210016038Y-67155271D01*
X209704729Y-66843962D01*
X209338669Y-66599369D01*
X208931925Y-66430890D01*
X208500128Y-66345000D01*
X208059872Y-66345000D01*
X207628075Y-66430890D01*
X207221331Y-66599369D01*
X206855271Y-66843962D01*
X206543962Y-67155271D01*
X206299369Y-67521331D01*
X206130890Y-67928075D01*
X206045000Y-68359872D01*
X195707000Y-68359872D01*
X195707000Y-65532000D01*
X237998000Y-65532000D01*
X237998000Y-124968000D01*
G37*
%TD.AperFunction*%
%TD*%
D22*
%TO.N,GND*%
X197993000Y-93218000D02*
X184550559Y-93218000D01*
X184644482Y-92991250D01*
X184715000Y-92636732D01*
X184715000Y-92275268D01*
X184644482Y-91920750D01*
X184506156Y-91586801D01*
X184305338Y-91286256D01*
X184049744Y-91030662D01*
X183749199Y-90829844D01*
X183415250Y-90691518D01*
X183060732Y-90621000D01*
X182699268Y-90621000D01*
X182344750Y-90691518D01*
X182010801Y-90829844D01*
X181710256Y-91030662D01*
X181454662Y-91286256D01*
X181253844Y-91586801D01*
X181115518Y-91920750D01*
X181045000Y-92275268D01*
X181045000Y-92636732D01*
X181115518Y-92991250D01*
X181209441Y-93218000D01*
X179832000Y-93218000D01*
X179832000Y-81096000D01*
X181041928Y-81096000D01*
X181041928Y-83496000D01*
X181054188Y-83620482D01*
X181090498Y-83740180D01*
X181149463Y-83850494D01*
X181228815Y-83947185D01*
X181325506Y-84026537D01*
X181435820Y-84085502D01*
X181555518Y-84121812D01*
X181680000Y-84134072D01*
X184080000Y-84134072D01*
X184204482Y-84121812D01*
X184324180Y-84085502D01*
X184434494Y-84026537D01*
X184531185Y-83947185D01*
X184610537Y-83850494D01*
X184669502Y-83740180D01*
X184705812Y-83620482D01*
X184718072Y-83496000D01*
X184718072Y-81096000D01*
X184705812Y-80971518D01*
X184669502Y-80851820D01*
X184610537Y-80741506D01*
X184531185Y-80644815D01*
X184434494Y-80565463D01*
X184324180Y-80506498D01*
X184204482Y-80470188D01*
X184080000Y-80457928D01*
X181680000Y-80457928D01*
X181555518Y-80470188D01*
X181435820Y-80506498D01*
X181325506Y-80565463D01*
X181228815Y-80644815D01*
X181149463Y-80741506D01*
X181090498Y-80851820D01*
X181054188Y-80971518D01*
X181041928Y-81096000D01*
X179832000Y-81096000D01*
X179832000Y-74338250D01*
X179956235Y-74271845D01*
X180197963Y-74073463D01*
X180396345Y-73831734D01*
X180543755Y-73555948D01*
X180634530Y-73256703D01*
X180657500Y-73023485D01*
X180657500Y-72772514D01*
X180634530Y-72539296D01*
X180543755Y-72240051D01*
X180396345Y-71964265D01*
X180197963Y-71722537D01*
X179956234Y-71524155D01*
X179832000Y-71457751D01*
X179832000Y-69762000D01*
X189011928Y-69762000D01*
X189011928Y-71462000D01*
X189024188Y-71586482D01*
X189060498Y-71706180D01*
X189119463Y-71816494D01*
X189198815Y-71913185D01*
X189295506Y-71992537D01*
X189405820Y-72051502D01*
X189525518Y-72087812D01*
X189650000Y-72100072D01*
X191350000Y-72100072D01*
X191474482Y-72087812D01*
X191594180Y-72051502D01*
X191704494Y-71992537D01*
X191801185Y-71913185D01*
X191880537Y-71816494D01*
X191939502Y-71706180D01*
X191963090Y-71628421D01*
X192138009Y-71791688D01*
X192385486Y-71944990D01*
X192560245Y-72017368D01*
X192786000Y-71913700D01*
X192786000Y-70866000D01*
X193294000Y-70866000D01*
X193294000Y-71913700D01*
X193519755Y-72017368D01*
X193694514Y-71944990D01*
X193941991Y-71791688D01*
X194154805Y-71593051D01*
X194324778Y-71356713D01*
X194445378Y-71091756D01*
X194344376Y-70866000D01*
X193294000Y-70866000D01*
X192786000Y-70866000D01*
X192766000Y-70866000D01*
X192766000Y-70358000D01*
X192786000Y-70358000D01*
X192786000Y-69310300D01*
X193294000Y-69310300D01*
X193294000Y-70358000D01*
X194344376Y-70358000D01*
X194445378Y-70132244D01*
X194324778Y-69867287D01*
X194154805Y-69630949D01*
X193941991Y-69432312D01*
X193694514Y-69279010D01*
X193519755Y-69206632D01*
X193294000Y-69310300D01*
X192786000Y-69310300D01*
X192560245Y-69206632D01*
X192385486Y-69279010D01*
X192138009Y-69432312D01*
X191963090Y-69595579D01*
X191939502Y-69517820D01*
X191880537Y-69407506D01*
X191801185Y-69310815D01*
X191704494Y-69231463D01*
X191594180Y-69172498D01*
X191474482Y-69136188D01*
X191350000Y-69123928D01*
X189650000Y-69123928D01*
X189525518Y-69136188D01*
X189405820Y-69172498D01*
X189295506Y-69231463D01*
X189198815Y-69310815D01*
X189119463Y-69407506D01*
X189060498Y-69517820D01*
X189024188Y-69637518D01*
X189011928Y-69762000D01*
X179832000Y-69762000D01*
X179832000Y-65532000D01*
X197993000Y-65532000D01*
X197993000Y-93218000D01*
%TA.AperFunction,Conductor*%
D23*
G36*
X197993000Y-93218000D02*
G01*
X184550559Y-93218000D01*
X184644482Y-92991250D01*
X184715000Y-92636732D01*
X184715000Y-92275268D01*
X184644482Y-91920750D01*
X184506156Y-91586801D01*
X184305338Y-91286256D01*
X184049744Y-91030662D01*
X183749199Y-90829844D01*
X183415250Y-90691518D01*
X183060732Y-90621000D01*
X182699268Y-90621000D01*
X182344750Y-90691518D01*
X182010801Y-90829844D01*
X181710256Y-91030662D01*
X181454662Y-91286256D01*
X181253844Y-91586801D01*
X181115518Y-91920750D01*
X181045000Y-92275268D01*
X181045000Y-92636732D01*
X181115518Y-92991250D01*
X181209441Y-93218000D01*
X179832000Y-93218000D01*
X179832000Y-81096000D01*
X181041928Y-81096000D01*
X181041928Y-83496000D01*
X181054188Y-83620482D01*
X181090498Y-83740180D01*
X181149463Y-83850494D01*
X181228815Y-83947185D01*
X181325506Y-84026537D01*
X181435820Y-84085502D01*
X181555518Y-84121812D01*
X181680000Y-84134072D01*
X184080000Y-84134072D01*
X184204482Y-84121812D01*
X184324180Y-84085502D01*
X184434494Y-84026537D01*
X184531185Y-83947185D01*
X184610537Y-83850494D01*
X184669502Y-83740180D01*
X184705812Y-83620482D01*
X184718072Y-83496000D01*
X184718072Y-81096000D01*
X184705812Y-80971518D01*
X184669502Y-80851820D01*
X184610537Y-80741506D01*
X184531185Y-80644815D01*
X184434494Y-80565463D01*
X184324180Y-80506498D01*
X184204482Y-80470188D01*
X184080000Y-80457928D01*
X181680000Y-80457928D01*
X181555518Y-80470188D01*
X181435820Y-80506498D01*
X181325506Y-80565463D01*
X181228815Y-80644815D01*
X181149463Y-80741506D01*
X181090498Y-80851820D01*
X181054188Y-80971518D01*
X181041928Y-81096000D01*
X179832000Y-81096000D01*
X179832000Y-74338250D01*
X179956235Y-74271845D01*
X180197963Y-74073463D01*
X180396345Y-73831734D01*
X180543755Y-73555948D01*
X180634530Y-73256703D01*
X180657500Y-73023485D01*
X180657500Y-72772514D01*
X180634530Y-72539296D01*
X180543755Y-72240051D01*
X180396345Y-71964265D01*
X180197963Y-71722537D01*
X179956234Y-71524155D01*
X179832000Y-71457751D01*
X179832000Y-69762000D01*
X189011928Y-69762000D01*
X189011928Y-71462000D01*
X189024188Y-71586482D01*
X189060498Y-71706180D01*
X189119463Y-71816494D01*
X189198815Y-71913185D01*
X189295506Y-71992537D01*
X189405820Y-72051502D01*
X189525518Y-72087812D01*
X189650000Y-72100072D01*
X191350000Y-72100072D01*
X191474482Y-72087812D01*
X191594180Y-72051502D01*
X191704494Y-71992537D01*
X191801185Y-71913185D01*
X191880537Y-71816494D01*
X191939502Y-71706180D01*
X191963090Y-71628421D01*
X192138009Y-71791688D01*
X192385486Y-71944990D01*
X192560245Y-72017368D01*
X192786000Y-71913700D01*
X192786000Y-70866000D01*
X193294000Y-70866000D01*
X193294000Y-71913700D01*
X193519755Y-72017368D01*
X193694514Y-71944990D01*
X193941991Y-71791688D01*
X194154805Y-71593051D01*
X194324778Y-71356713D01*
X194445378Y-71091756D01*
X194344376Y-70866000D01*
X193294000Y-70866000D01*
X192786000Y-70866000D01*
X192766000Y-70866000D01*
X192766000Y-70358000D01*
X192786000Y-70358000D01*
X192786000Y-69310300D01*
X193294000Y-69310300D01*
X193294000Y-70358000D01*
X194344376Y-70358000D01*
X194445378Y-70132244D01*
X194324778Y-69867287D01*
X194154805Y-69630949D01*
X193941991Y-69432312D01*
X193694514Y-69279010D01*
X193519755Y-69206632D01*
X193294000Y-69310300D01*
X192786000Y-69310300D01*
X192560245Y-69206632D01*
X192385486Y-69279010D01*
X192138009Y-69432312D01*
X191963090Y-69595579D01*
X191939502Y-69517820D01*
X191880537Y-69407506D01*
X191801185Y-69310815D01*
X191704494Y-69231463D01*
X191594180Y-69172498D01*
X191474482Y-69136188D01*
X191350000Y-69123928D01*
X189650000Y-69123928D01*
X189525518Y-69136188D01*
X189405820Y-69172498D01*
X189295506Y-69231463D01*
X189198815Y-69310815D01*
X189119463Y-69407506D01*
X189060498Y-69517820D01*
X189024188Y-69637518D01*
X189011928Y-69762000D01*
X179832000Y-69762000D01*
X179832000Y-65532000D01*
X197993000Y-65532000D01*
X197993000Y-93218000D01*
G37*
%TD.AperFunction*%
%TD*%
D22*
%TO.N,GND*%
X177038000Y-112268000D02*
X174117000Y-112268000D01*
X174117000Y-102362000D01*
X177038000Y-102362000D01*
X177038000Y-112268000D01*
%TA.AperFunction,Conductor*%
D23*
G36*
X177038000Y-112268000D02*
G01*
X174117000Y-112268000D01*
X174117000Y-102362000D01*
X177038000Y-102362000D01*
X177038000Y-112268000D01*
G37*
%TD.AperFunction*%
%TD*%
M02*
