%TF.GenerationSoftware,KiCad,Pcbnew,(5.1.9)-1*%
%TF.CreationDate,2021-10-17T20:04:12-04:00*%
%TF.ProjectId,BattTester,42617474-5465-4737-9465-722e6b696361,rev?*%
%TF.SameCoordinates,Original*%
%TF.FileFunction,Paste,Top*%
%TF.FilePolarity,Positive*%
%FSLAX46Y46*%
G04 Gerber Fmt 4.6, Leading zero omitted, Abs format (unit mm)*
G04 Created by KiCad (PCBNEW (5.1.9)-1) date 2021-10-17 20:04:12*
%MOMM*%
%LPD*%
G01*
G04 APERTURE LIST*
%ADD10R,2.750000X3.050000*%
%ADD11R,1.200000X2.200000*%
%ADD12R,2.800000X1.500000*%
%ADD13R,1.500000X0.700000*%
%ADD14R,1.500000X1.000000*%
G04 APERTURE END LIST*
D10*
%TO.C,U3*%
X189484000Y-88900000D03*
X192534000Y-92250000D03*
X192534000Y-88900000D03*
X189484000Y-92250000D03*
D11*
X188729000Y-84275000D03*
X191009000Y-84275000D03*
X193289000Y-84275000D03*
%TD*%
%TO.C,U2*%
G36*
G01*
X208383000Y-100099000D02*
X208383000Y-99799000D01*
G75*
G02*
X208533000Y-99649000I150000J0D01*
G01*
X210183000Y-99649000D01*
G75*
G02*
X210333000Y-99799000I0J-150000D01*
G01*
X210333000Y-100099000D01*
G75*
G02*
X210183000Y-100249000I-150000J0D01*
G01*
X208533000Y-100249000D01*
G75*
G02*
X208383000Y-100099000I0J150000D01*
G01*
G37*
G36*
G01*
X208383000Y-101369000D02*
X208383000Y-101069000D01*
G75*
G02*
X208533000Y-100919000I150000J0D01*
G01*
X210183000Y-100919000D01*
G75*
G02*
X210333000Y-101069000I0J-150000D01*
G01*
X210333000Y-101369000D01*
G75*
G02*
X210183000Y-101519000I-150000J0D01*
G01*
X208533000Y-101519000D01*
G75*
G02*
X208383000Y-101369000I0J150000D01*
G01*
G37*
G36*
G01*
X208383000Y-102639000D02*
X208383000Y-102339000D01*
G75*
G02*
X208533000Y-102189000I150000J0D01*
G01*
X210183000Y-102189000D01*
G75*
G02*
X210333000Y-102339000I0J-150000D01*
G01*
X210333000Y-102639000D01*
G75*
G02*
X210183000Y-102789000I-150000J0D01*
G01*
X208533000Y-102789000D01*
G75*
G02*
X208383000Y-102639000I0J150000D01*
G01*
G37*
G36*
G01*
X208383000Y-103909000D02*
X208383000Y-103609000D01*
G75*
G02*
X208533000Y-103459000I150000J0D01*
G01*
X210183000Y-103459000D01*
G75*
G02*
X210333000Y-103609000I0J-150000D01*
G01*
X210333000Y-103909000D01*
G75*
G02*
X210183000Y-104059000I-150000J0D01*
G01*
X208533000Y-104059000D01*
G75*
G02*
X208383000Y-103909000I0J150000D01*
G01*
G37*
G36*
G01*
X208383000Y-105179000D02*
X208383000Y-104879000D01*
G75*
G02*
X208533000Y-104729000I150000J0D01*
G01*
X210183000Y-104729000D01*
G75*
G02*
X210333000Y-104879000I0J-150000D01*
G01*
X210333000Y-105179000D01*
G75*
G02*
X210183000Y-105329000I-150000J0D01*
G01*
X208533000Y-105329000D01*
G75*
G02*
X208383000Y-105179000I0J150000D01*
G01*
G37*
G36*
G01*
X208383000Y-106449000D02*
X208383000Y-106149000D01*
G75*
G02*
X208533000Y-105999000I150000J0D01*
G01*
X210183000Y-105999000D01*
G75*
G02*
X210333000Y-106149000I0J-150000D01*
G01*
X210333000Y-106449000D01*
G75*
G02*
X210183000Y-106599000I-150000J0D01*
G01*
X208533000Y-106599000D01*
G75*
G02*
X208383000Y-106449000I0J150000D01*
G01*
G37*
G36*
G01*
X208383000Y-107719000D02*
X208383000Y-107419000D01*
G75*
G02*
X208533000Y-107269000I150000J0D01*
G01*
X210183000Y-107269000D01*
G75*
G02*
X210333000Y-107419000I0J-150000D01*
G01*
X210333000Y-107719000D01*
G75*
G02*
X210183000Y-107869000I-150000J0D01*
G01*
X208533000Y-107869000D01*
G75*
G02*
X208383000Y-107719000I0J150000D01*
G01*
G37*
G36*
G01*
X203433000Y-107719000D02*
X203433000Y-107419000D01*
G75*
G02*
X203583000Y-107269000I150000J0D01*
G01*
X205233000Y-107269000D01*
G75*
G02*
X205383000Y-107419000I0J-150000D01*
G01*
X205383000Y-107719000D01*
G75*
G02*
X205233000Y-107869000I-150000J0D01*
G01*
X203583000Y-107869000D01*
G75*
G02*
X203433000Y-107719000I0J150000D01*
G01*
G37*
G36*
G01*
X203433000Y-106449000D02*
X203433000Y-106149000D01*
G75*
G02*
X203583000Y-105999000I150000J0D01*
G01*
X205233000Y-105999000D01*
G75*
G02*
X205383000Y-106149000I0J-150000D01*
G01*
X205383000Y-106449000D01*
G75*
G02*
X205233000Y-106599000I-150000J0D01*
G01*
X203583000Y-106599000D01*
G75*
G02*
X203433000Y-106449000I0J150000D01*
G01*
G37*
G36*
G01*
X203433000Y-105179000D02*
X203433000Y-104879000D01*
G75*
G02*
X203583000Y-104729000I150000J0D01*
G01*
X205233000Y-104729000D01*
G75*
G02*
X205383000Y-104879000I0J-150000D01*
G01*
X205383000Y-105179000D01*
G75*
G02*
X205233000Y-105329000I-150000J0D01*
G01*
X203583000Y-105329000D01*
G75*
G02*
X203433000Y-105179000I0J150000D01*
G01*
G37*
G36*
G01*
X203433000Y-103909000D02*
X203433000Y-103609000D01*
G75*
G02*
X203583000Y-103459000I150000J0D01*
G01*
X205233000Y-103459000D01*
G75*
G02*
X205383000Y-103609000I0J-150000D01*
G01*
X205383000Y-103909000D01*
G75*
G02*
X205233000Y-104059000I-150000J0D01*
G01*
X203583000Y-104059000D01*
G75*
G02*
X203433000Y-103909000I0J150000D01*
G01*
G37*
G36*
G01*
X203433000Y-102639000D02*
X203433000Y-102339000D01*
G75*
G02*
X203583000Y-102189000I150000J0D01*
G01*
X205233000Y-102189000D01*
G75*
G02*
X205383000Y-102339000I0J-150000D01*
G01*
X205383000Y-102639000D01*
G75*
G02*
X205233000Y-102789000I-150000J0D01*
G01*
X203583000Y-102789000D01*
G75*
G02*
X203433000Y-102639000I0J150000D01*
G01*
G37*
G36*
G01*
X203433000Y-101369000D02*
X203433000Y-101069000D01*
G75*
G02*
X203583000Y-100919000I150000J0D01*
G01*
X205233000Y-100919000D01*
G75*
G02*
X205383000Y-101069000I0J-150000D01*
G01*
X205383000Y-101369000D01*
G75*
G02*
X205233000Y-101519000I-150000J0D01*
G01*
X203583000Y-101519000D01*
G75*
G02*
X203433000Y-101369000I0J150000D01*
G01*
G37*
G36*
G01*
X203433000Y-100099000D02*
X203433000Y-99799000D01*
G75*
G02*
X203583000Y-99649000I150000J0D01*
G01*
X205233000Y-99649000D01*
G75*
G02*
X205383000Y-99799000I0J-150000D01*
G01*
X205383000Y-100099000D01*
G75*
G02*
X205233000Y-100249000I-150000J0D01*
G01*
X203583000Y-100249000D01*
G75*
G02*
X203433000Y-100099000I0J150000D01*
G01*
G37*
%TD*%
%TO.C,R6*%
G36*
G01*
X204225999Y-114946000D02*
X205476001Y-114946000D01*
G75*
G02*
X205726000Y-115195999I0J-249999D01*
G01*
X205726000Y-115996001D01*
G75*
G02*
X205476001Y-116246000I-249999J0D01*
G01*
X204225999Y-116246000D01*
G75*
G02*
X203976000Y-115996001I0J249999D01*
G01*
X203976000Y-115195999D01*
G75*
G02*
X204225999Y-114946000I249999J0D01*
G01*
G37*
G36*
G01*
X204225999Y-111846000D02*
X205476001Y-111846000D01*
G75*
G02*
X205726000Y-112095999I0J-249999D01*
G01*
X205726000Y-112896001D01*
G75*
G02*
X205476001Y-113146000I-249999J0D01*
G01*
X204225999Y-113146000D01*
G75*
G02*
X203976000Y-112896001I0J249999D01*
G01*
X203976000Y-112095999D01*
G75*
G02*
X204225999Y-111846000I249999J0D01*
G01*
G37*
%TD*%
%TO.C,R2*%
G36*
G01*
X221604000Y-107705999D02*
X221604000Y-108956001D01*
G75*
G02*
X221354001Y-109206000I-249999J0D01*
G01*
X220553999Y-109206000D01*
G75*
G02*
X220304000Y-108956001I0J249999D01*
G01*
X220304000Y-107705999D01*
G75*
G02*
X220553999Y-107456000I249999J0D01*
G01*
X221354001Y-107456000D01*
G75*
G02*
X221604000Y-107705999I0J-249999D01*
G01*
G37*
G36*
G01*
X224704000Y-107705999D02*
X224704000Y-108956001D01*
G75*
G02*
X224454001Y-109206000I-249999J0D01*
G01*
X223653999Y-109206000D01*
G75*
G02*
X223404000Y-108956001I0J249999D01*
G01*
X223404000Y-107705999D01*
G75*
G02*
X223653999Y-107456000I249999J0D01*
G01*
X224454001Y-107456000D01*
G75*
G02*
X224704000Y-107705999I0J-249999D01*
G01*
G37*
%TD*%
%TO.C,R1*%
G36*
G01*
X214746000Y-107705999D02*
X214746000Y-108956001D01*
G75*
G02*
X214496001Y-109206000I-249999J0D01*
G01*
X213695999Y-109206000D01*
G75*
G02*
X213446000Y-108956001I0J249999D01*
G01*
X213446000Y-107705999D01*
G75*
G02*
X213695999Y-107456000I249999J0D01*
G01*
X214496001Y-107456000D01*
G75*
G02*
X214746000Y-107705999I0J-249999D01*
G01*
G37*
G36*
G01*
X217846000Y-107705999D02*
X217846000Y-108956001D01*
G75*
G02*
X217596001Y-109206000I-249999J0D01*
G01*
X216795999Y-109206000D01*
G75*
G02*
X216546000Y-108956001I0J249999D01*
G01*
X216546000Y-107705999D01*
G75*
G02*
X216795999Y-107456000I249999J0D01*
G01*
X217596001Y-107456000D01*
G75*
G02*
X217846000Y-107705999I0J-249999D01*
G01*
G37*
%TD*%
D12*
%TO.C,J2*%
X214615000Y-98105000D03*
X236115000Y-98105000D03*
X236115000Y-70805000D03*
X214615000Y-73005000D03*
D13*
X212815000Y-96710000D03*
X212815000Y-95510000D03*
D14*
X212815000Y-75080000D03*
X212815000Y-94210000D03*
X212815000Y-92510000D03*
X212815000Y-90080000D03*
X212815000Y-87580000D03*
X212815000Y-85080000D03*
X212815000Y-82580000D03*
X212815000Y-80080000D03*
X212815000Y-77580000D03*
%TD*%
%TO.C,D2*%
G36*
G01*
X222054000Y-103308999D02*
X222054000Y-104209001D01*
G75*
G02*
X221804001Y-104459000I-249999J0D01*
G01*
X221153999Y-104459000D01*
G75*
G02*
X220904000Y-104209001I0J249999D01*
G01*
X220904000Y-103308999D01*
G75*
G02*
X221153999Y-103059000I249999J0D01*
G01*
X221804001Y-103059000D01*
G75*
G02*
X222054000Y-103308999I0J-249999D01*
G01*
G37*
G36*
G01*
X224104000Y-103308999D02*
X224104000Y-104209001D01*
G75*
G02*
X223854001Y-104459000I-249999J0D01*
G01*
X223203999Y-104459000D01*
G75*
G02*
X222954000Y-104209001I0J249999D01*
G01*
X222954000Y-103308999D01*
G75*
G02*
X223203999Y-103059000I249999J0D01*
G01*
X223854001Y-103059000D01*
G75*
G02*
X224104000Y-103308999I0J-249999D01*
G01*
G37*
%TD*%
%TO.C,D1*%
G36*
G01*
X215196000Y-103308999D02*
X215196000Y-104209001D01*
G75*
G02*
X214946001Y-104459000I-249999J0D01*
G01*
X214295999Y-104459000D01*
G75*
G02*
X214046000Y-104209001I0J249999D01*
G01*
X214046000Y-103308999D01*
G75*
G02*
X214295999Y-103059000I249999J0D01*
G01*
X214946001Y-103059000D01*
G75*
G02*
X215196000Y-103308999I0J-249999D01*
G01*
G37*
G36*
G01*
X217246000Y-103308999D02*
X217246000Y-104209001D01*
G75*
G02*
X216996001Y-104459000I-249999J0D01*
G01*
X216345999Y-104459000D01*
G75*
G02*
X216096000Y-104209001I0J249999D01*
G01*
X216096000Y-103308999D01*
G75*
G02*
X216345999Y-103059000I249999J0D01*
G01*
X216996001Y-103059000D01*
G75*
G02*
X217246000Y-103308999I0J-249999D01*
G01*
G37*
%TD*%
%TO.C,C6*%
G36*
G01*
X192474000Y-80739000D02*
X192474000Y-79789000D01*
G75*
G02*
X192724000Y-79539000I250000J0D01*
G01*
X193399000Y-79539000D01*
G75*
G02*
X193649000Y-79789000I0J-250000D01*
G01*
X193649000Y-80739000D01*
G75*
G02*
X193399000Y-80989000I-250000J0D01*
G01*
X192724000Y-80989000D01*
G75*
G02*
X192474000Y-80739000I0J250000D01*
G01*
G37*
G36*
G01*
X190399000Y-80739000D02*
X190399000Y-79789000D01*
G75*
G02*
X190649000Y-79539000I250000J0D01*
G01*
X191324000Y-79539000D01*
G75*
G02*
X191574000Y-79789000I0J-250000D01*
G01*
X191574000Y-80739000D01*
G75*
G02*
X191324000Y-80989000I-250000J0D01*
G01*
X190649000Y-80989000D01*
G75*
G02*
X190399000Y-80739000I0J250000D01*
G01*
G37*
%TD*%
%TO.C,C5*%
G36*
G01*
X192474000Y-77183000D02*
X192474000Y-76233000D01*
G75*
G02*
X192724000Y-75983000I250000J0D01*
G01*
X193399000Y-75983000D01*
G75*
G02*
X193649000Y-76233000I0J-250000D01*
G01*
X193649000Y-77183000D01*
G75*
G02*
X193399000Y-77433000I-250000J0D01*
G01*
X192724000Y-77433000D01*
G75*
G02*
X192474000Y-77183000I0J250000D01*
G01*
G37*
G36*
G01*
X190399000Y-77183000D02*
X190399000Y-76233000D01*
G75*
G02*
X190649000Y-75983000I250000J0D01*
G01*
X191324000Y-75983000D01*
G75*
G02*
X191574000Y-76233000I0J-250000D01*
G01*
X191574000Y-77183000D01*
G75*
G02*
X191324000Y-77433000I-250000J0D01*
G01*
X190649000Y-77433000D01*
G75*
G02*
X190399000Y-77183000I0J250000D01*
G01*
G37*
%TD*%
%TO.C,C4*%
G36*
G01*
X207460000Y-92931000D02*
X207460000Y-91981000D01*
G75*
G02*
X207710000Y-91731000I250000J0D01*
G01*
X208385000Y-91731000D01*
G75*
G02*
X208635000Y-91981000I0J-250000D01*
G01*
X208635000Y-92931000D01*
G75*
G02*
X208385000Y-93181000I-250000J0D01*
G01*
X207710000Y-93181000D01*
G75*
G02*
X207460000Y-92931000I0J250000D01*
G01*
G37*
G36*
G01*
X205385000Y-92931000D02*
X205385000Y-91981000D01*
G75*
G02*
X205635000Y-91731000I250000J0D01*
G01*
X206310000Y-91731000D01*
G75*
G02*
X206560000Y-91981000I0J-250000D01*
G01*
X206560000Y-92931000D01*
G75*
G02*
X206310000Y-93181000I-250000J0D01*
G01*
X205635000Y-93181000D01*
G75*
G02*
X205385000Y-92931000I0J250000D01*
G01*
G37*
%TD*%
%TO.C,C3*%
G36*
G01*
X207460000Y-96487000D02*
X207460000Y-95537000D01*
G75*
G02*
X207710000Y-95287000I250000J0D01*
G01*
X208385000Y-95287000D01*
G75*
G02*
X208635000Y-95537000I0J-250000D01*
G01*
X208635000Y-96487000D01*
G75*
G02*
X208385000Y-96737000I-250000J0D01*
G01*
X207710000Y-96737000D01*
G75*
G02*
X207460000Y-96487000I0J250000D01*
G01*
G37*
G36*
G01*
X205385000Y-96487000D02*
X205385000Y-95537000D01*
G75*
G02*
X205635000Y-95287000I250000J0D01*
G01*
X206310000Y-95287000D01*
G75*
G02*
X206560000Y-95537000I0J-250000D01*
G01*
X206560000Y-96487000D01*
G75*
G02*
X206310000Y-96737000I-250000J0D01*
G01*
X205635000Y-96737000D01*
G75*
G02*
X205385000Y-96487000I0J250000D01*
G01*
G37*
%TD*%
%TO.C,C2*%
G36*
G01*
X167883000Y-95234998D02*
X167883000Y-96535002D01*
G75*
G02*
X167633002Y-96785000I-249998J0D01*
G01*
X166807998Y-96785000D01*
G75*
G02*
X166558000Y-96535002I0J249998D01*
G01*
X166558000Y-95234998D01*
G75*
G02*
X166807998Y-94985000I249998J0D01*
G01*
X167633002Y-94985000D01*
G75*
G02*
X167883000Y-95234998I0J-249998D01*
G01*
G37*
G36*
G01*
X171008000Y-95234998D02*
X171008000Y-96535002D01*
G75*
G02*
X170758002Y-96785000I-249998J0D01*
G01*
X169932998Y-96785000D01*
G75*
G02*
X169683000Y-96535002I0J249998D01*
G01*
X169683000Y-95234998D01*
G75*
G02*
X169932998Y-94985000I249998J0D01*
G01*
X170758002Y-94985000D01*
G75*
G02*
X171008000Y-95234998I0J-249998D01*
G01*
G37*
%TD*%
%TO.C,C1*%
G36*
G01*
X169233000Y-100297000D02*
X169233000Y-99347000D01*
G75*
G02*
X169483000Y-99097000I250000J0D01*
G01*
X170158000Y-99097000D01*
G75*
G02*
X170408000Y-99347000I0J-250000D01*
G01*
X170408000Y-100297000D01*
G75*
G02*
X170158000Y-100547000I-250000J0D01*
G01*
X169483000Y-100547000D01*
G75*
G02*
X169233000Y-100297000I0J250000D01*
G01*
G37*
G36*
G01*
X167158000Y-100297000D02*
X167158000Y-99347000D01*
G75*
G02*
X167408000Y-99097000I250000J0D01*
G01*
X168083000Y-99097000D01*
G75*
G02*
X168333000Y-99347000I0J-250000D01*
G01*
X168333000Y-100297000D01*
G75*
G02*
X168083000Y-100547000I-250000J0D01*
G01*
X167408000Y-100547000D01*
G75*
G02*
X167158000Y-100297000I0J250000D01*
G01*
G37*
%TD*%
M02*
