M48
; DRILL file {KiCad (5.1.10)-1} date 10/18/21 08:36:10
; FORMAT={-:-/ absolute / inch / decimal}
; #@! TF.CreationDate,2021-10-18T08:36:10-04:00
; #@! TF.GenerationSoftware,Kicad,Pcbnew,(5.1.10)-1
; #@! TF.FileFunction,Plated,1,2,PTH
FMAT,2
INCH
T1C0.0157
T2C0.0197
T3C0.0300
T4C0.0354
T5C0.0394
T6C0.0433
T7C0.0472
%
G90
G05
T1
X8.15Y-3.95
X8.15Y-4.05
X8.375Y-4.0
X8.45Y-3.7
T2
X5.975Y-3.275
X5.975Y-3.65
X5.975Y-3.975
X6.0Y-2.825
X6.5Y-3.85
X7.075Y-3.85
X8.225Y-3.85
X8.325Y-3.575
T3
X6.495Y-4.1
X6.495Y-4.2
X6.495Y-4.3
X6.495Y-4.4
X6.58Y-3.25
X6.58Y-3.35
X6.58Y-3.45
X6.58Y-3.55
X6.795Y-4.1
X6.795Y-4.2
X6.795Y-4.3
X6.795Y-4.4
X6.88Y-3.25
X6.88Y-3.35
X6.88Y-3.45
X6.88Y-3.55
T4
X7.3Y-3.95
X7.3Y-4.05
X7.3Y-4.15
X7.3Y-4.25
X7.3Y-4.35
X7.3Y-4.45
X7.7Y-3.95
X7.7Y-4.05
X7.7Y-4.15
X7.7Y-4.25
X7.7Y-4.35
X7.7Y-4.45
T5
X5.575Y-4.2
X5.575Y-4.3
X6.425Y-3.35
X6.425Y-3.45
X6.425Y-3.55
X6.46Y-4.84
X6.56Y-4.84
X7.5Y-2.78
X7.6Y-2.78
X7.965Y-4.71
X8.065Y-4.71
X8.165Y-4.71
T6
X6.85Y-2.87
X6.95Y-2.87
X7.05Y-2.87
T7
X6.085Y-2.64
X6.085Y-4.84
X7.2Y-3.24
X7.2Y-3.64
T0
M30
