%TF.GenerationSoftware,KiCad,Pcbnew,(5.1.9)-1*%
%TF.CreationDate,2021-11-24T15:49:22-05:00*%
%TF.ProjectId,BattTester,42617474-5465-4737-9465-722e6b696361,rev?*%
%TF.SameCoordinates,Original*%
%TF.FileFunction,Legend,Top*%
%TF.FilePolarity,Positive*%
%FSLAX46Y46*%
G04 Gerber Fmt 4.6, Leading zero omitted, Abs format (unit mm)*
G04 Created by KiCad (PCBNEW (5.1.9)-1) date 2021-11-24 15:49:22*
%MOMM*%
%LPD*%
G01*
G04 APERTURE LIST*
%ADD10C,0.150000*%
%ADD11C,0.200000*%
%ADD12C,0.120000*%
G04 APERTURE END LIST*
D10*
X147019047Y-107545142D02*
X146971428Y-107592761D01*
X146828571Y-107640380D01*
X146733333Y-107640380D01*
X146590476Y-107592761D01*
X146495238Y-107497523D01*
X146447619Y-107402285D01*
X146400000Y-107211809D01*
X146400000Y-107068952D01*
X146447619Y-106878476D01*
X146495238Y-106783238D01*
X146590476Y-106688000D01*
X146733333Y-106640380D01*
X146828571Y-106640380D01*
X146971428Y-106688000D01*
X147019047Y-106735619D01*
X147447619Y-106640380D02*
X147447619Y-107449904D01*
X147495238Y-107545142D01*
X147542857Y-107592761D01*
X147638095Y-107640380D01*
X147828571Y-107640380D01*
X147923809Y-107592761D01*
X147971428Y-107545142D01*
X148019047Y-107449904D01*
X148019047Y-106640380D01*
X149066666Y-107640380D02*
X148733333Y-107164190D01*
X148495238Y-107640380D02*
X148495238Y-106640380D01*
X148876190Y-106640380D01*
X148971428Y-106688000D01*
X149019047Y-106735619D01*
X149066666Y-106830857D01*
X149066666Y-106973714D01*
X149019047Y-107068952D01*
X148971428Y-107116571D01*
X148876190Y-107164190D01*
X148495238Y-107164190D01*
X150066666Y-107640380D02*
X149733333Y-107164190D01*
X149495238Y-107640380D02*
X149495238Y-106640380D01*
X149876190Y-106640380D01*
X149971428Y-106688000D01*
X150019047Y-106735619D01*
X150066666Y-106830857D01*
X150066666Y-106973714D01*
X150019047Y-107068952D01*
X149971428Y-107116571D01*
X149876190Y-107164190D01*
X149495238Y-107164190D01*
X150495238Y-107116571D02*
X150828571Y-107116571D01*
X150971428Y-107640380D02*
X150495238Y-107640380D01*
X150495238Y-106640380D01*
X150971428Y-106640380D01*
X151400000Y-107640380D02*
X151400000Y-106640380D01*
X151971428Y-107640380D01*
X151971428Y-106640380D01*
X152304761Y-106640380D02*
X152876190Y-106640380D01*
X152590476Y-107640380D02*
X152590476Y-106640380D01*
X153923809Y-107592761D02*
X154066666Y-107640380D01*
X154304761Y-107640380D01*
X154400000Y-107592761D01*
X154447619Y-107545142D01*
X154495238Y-107449904D01*
X154495238Y-107354666D01*
X154447619Y-107259428D01*
X154400000Y-107211809D01*
X154304761Y-107164190D01*
X154114285Y-107116571D01*
X154019047Y-107068952D01*
X153971428Y-107021333D01*
X153923809Y-106926095D01*
X153923809Y-106830857D01*
X153971428Y-106735619D01*
X154019047Y-106688000D01*
X154114285Y-106640380D01*
X154352380Y-106640380D01*
X154495238Y-106688000D01*
X154923809Y-107640380D02*
X154923809Y-106640380D01*
X154923809Y-107116571D02*
X155495238Y-107116571D01*
X155495238Y-107640380D02*
X155495238Y-106640380D01*
X155971428Y-106640380D02*
X155971428Y-107449904D01*
X156019047Y-107545142D01*
X156066666Y-107592761D01*
X156161904Y-107640380D01*
X156352380Y-107640380D01*
X156447619Y-107592761D01*
X156495238Y-107545142D01*
X156542857Y-107449904D01*
X156542857Y-106640380D01*
X157019047Y-107640380D02*
X157019047Y-106640380D01*
X157590476Y-107640380D01*
X157590476Y-106640380D01*
X157923809Y-106640380D02*
X158495238Y-106640380D01*
X158209523Y-107640380D02*
X158209523Y-106640380D01*
X202017380Y-124428095D02*
X202017380Y-123809047D01*
X202398333Y-124142380D01*
X202398333Y-123999523D01*
X202445952Y-123904285D01*
X202493571Y-123856666D01*
X202588809Y-123809047D01*
X202826904Y-123809047D01*
X202922142Y-123856666D01*
X202969761Y-123904285D01*
X203017380Y-123999523D01*
X203017380Y-124285238D01*
X202969761Y-124380476D01*
X202922142Y-124428095D01*
X202017380Y-123523333D02*
X203017380Y-123190000D01*
X202017380Y-122856666D01*
X202017380Y-122618571D02*
X202017380Y-121999523D01*
X202398333Y-122332857D01*
X202398333Y-122190000D01*
X202445952Y-122094761D01*
X202493571Y-122047142D01*
X202588809Y-121999523D01*
X202826904Y-121999523D01*
X202922142Y-122047142D01*
X202969761Y-122094761D01*
X203017380Y-122190000D01*
X203017380Y-122475714D01*
X202969761Y-122570952D01*
X202922142Y-122618571D01*
X204605000Y-123951904D02*
X204557380Y-124047142D01*
X204557380Y-124190000D01*
X204605000Y-124332857D01*
X204700238Y-124428095D01*
X204795476Y-124475714D01*
X204985952Y-124523333D01*
X205128809Y-124523333D01*
X205319285Y-124475714D01*
X205414523Y-124428095D01*
X205509761Y-124332857D01*
X205557380Y-124190000D01*
X205557380Y-124094761D01*
X205509761Y-123951904D01*
X205462142Y-123904285D01*
X205128809Y-123904285D01*
X205128809Y-124094761D01*
X205557380Y-123475714D02*
X204557380Y-123475714D01*
X205557380Y-122904285D01*
X204557380Y-122904285D01*
X205557380Y-122428095D02*
X204557380Y-122428095D01*
X204557380Y-122190000D01*
X204605000Y-122047142D01*
X204700238Y-121951904D01*
X204795476Y-121904285D01*
X204985952Y-121856666D01*
X205128809Y-121856666D01*
X205319285Y-121904285D01*
X205414523Y-121951904D01*
X205509761Y-122047142D01*
X205557380Y-122190000D01*
X205557380Y-122428095D01*
X168030000Y-76652380D02*
X168030000Y-75652380D01*
X168030000Y-76128571D02*
X168601428Y-76128571D01*
X168601428Y-76652380D02*
X168601428Y-75652380D01*
X169077619Y-76128571D02*
X169410952Y-76128571D01*
X169553809Y-76652380D02*
X169077619Y-76652380D01*
X169077619Y-75652380D01*
X169553809Y-75652380D01*
X169934761Y-76366666D02*
X170410952Y-76366666D01*
X169839523Y-76652380D02*
X170172857Y-75652380D01*
X170506190Y-76652380D01*
X170696666Y-75652380D02*
X171268095Y-75652380D01*
X170982380Y-76652380D02*
X170982380Y-75652380D01*
X171553809Y-76604761D02*
X171696666Y-76652380D01*
X171934761Y-76652380D01*
X172030000Y-76604761D01*
X172077619Y-76557142D01*
X172125238Y-76461904D01*
X172125238Y-76366666D01*
X172077619Y-76271428D01*
X172030000Y-76223809D01*
X171934761Y-76176190D01*
X171744285Y-76128571D01*
X171649047Y-76080952D01*
X171601428Y-76033333D01*
X171553809Y-75938095D01*
X171553809Y-75842857D01*
X171601428Y-75747619D01*
X171649047Y-75700000D01*
X171744285Y-75652380D01*
X171982380Y-75652380D01*
X172125238Y-75700000D01*
X172553809Y-76652380D02*
X172553809Y-75652380D01*
X173030000Y-76652380D02*
X173030000Y-75652380D01*
X173601428Y-76652380D01*
X173601428Y-75652380D01*
X174077619Y-76652380D02*
X174077619Y-75652380D01*
X174649047Y-76652380D02*
X174220476Y-76080952D01*
X174649047Y-75652380D02*
X174077619Y-76223809D01*
X175696666Y-75652380D02*
X176268095Y-75652380D01*
X175982380Y-76652380D02*
X175982380Y-75652380D01*
X176601428Y-76652380D02*
X176601428Y-75652380D01*
X176601428Y-76128571D02*
X177172857Y-76128571D01*
X177172857Y-76652380D02*
X177172857Y-75652380D01*
X177649047Y-76652380D02*
X177649047Y-75652380D01*
X178077619Y-76604761D02*
X178220476Y-76652380D01*
X178458571Y-76652380D01*
X178553809Y-76604761D01*
X178601428Y-76557142D01*
X178649047Y-76461904D01*
X178649047Y-76366666D01*
X178601428Y-76271428D01*
X178553809Y-76223809D01*
X178458571Y-76176190D01*
X178268095Y-76128571D01*
X178172857Y-76080952D01*
X178125238Y-76033333D01*
X178077619Y-75938095D01*
X178077619Y-75842857D01*
X178125238Y-75747619D01*
X178172857Y-75700000D01*
X178268095Y-75652380D01*
X178506190Y-75652380D01*
X178649047Y-75700000D01*
X179839523Y-76652380D02*
X179839523Y-75652380D01*
X180172857Y-76366666D01*
X180506190Y-75652380D01*
X180506190Y-76652380D01*
X181172857Y-75652380D02*
X181363333Y-75652380D01*
X181458571Y-75700000D01*
X181553809Y-75795238D01*
X181601428Y-75985714D01*
X181601428Y-76319047D01*
X181553809Y-76509523D01*
X181458571Y-76604761D01*
X181363333Y-76652380D01*
X181172857Y-76652380D01*
X181077619Y-76604761D01*
X180982380Y-76509523D01*
X180934761Y-76319047D01*
X180934761Y-75985714D01*
X180982380Y-75795238D01*
X181077619Y-75700000D01*
X181172857Y-75652380D01*
X181982380Y-76604761D02*
X182125238Y-76652380D01*
X182363333Y-76652380D01*
X182458571Y-76604761D01*
X182506190Y-76557142D01*
X182553809Y-76461904D01*
X182553809Y-76366666D01*
X182506190Y-76271428D01*
X182458571Y-76223809D01*
X182363333Y-76176190D01*
X182172857Y-76128571D01*
X182077619Y-76080952D01*
X182030000Y-76033333D01*
X181982380Y-75938095D01*
X181982380Y-75842857D01*
X182030000Y-75747619D01*
X182077619Y-75700000D01*
X182172857Y-75652380D01*
X182410952Y-75652380D01*
X182553809Y-75700000D01*
X183315714Y-76128571D02*
X182982380Y-76128571D01*
X182982380Y-76652380D02*
X182982380Y-75652380D01*
X183458571Y-75652380D01*
X183839523Y-76128571D02*
X184172857Y-76128571D01*
X184315714Y-76652380D02*
X183839523Y-76652380D01*
X183839523Y-75652380D01*
X184315714Y-75652380D01*
X184601428Y-75652380D02*
X185172857Y-75652380D01*
X184887142Y-76652380D02*
X184887142Y-75652380D01*
X139867142Y-113403571D02*
X140010000Y-113451190D01*
X140057619Y-113498809D01*
X140105238Y-113594047D01*
X140105238Y-113736904D01*
X140057619Y-113832142D01*
X140010000Y-113879761D01*
X139914761Y-113927380D01*
X139533809Y-113927380D01*
X139533809Y-112927380D01*
X139867142Y-112927380D01*
X139962380Y-112975000D01*
X140010000Y-113022619D01*
X140057619Y-113117857D01*
X140057619Y-113213095D01*
X140010000Y-113308333D01*
X139962380Y-113355952D01*
X139867142Y-113403571D01*
X139533809Y-113403571D01*
X140962380Y-113927380D02*
X140962380Y-113403571D01*
X140914761Y-113308333D01*
X140819523Y-113260714D01*
X140629047Y-113260714D01*
X140533809Y-113308333D01*
X140962380Y-113879761D02*
X140867142Y-113927380D01*
X140629047Y-113927380D01*
X140533809Y-113879761D01*
X140486190Y-113784523D01*
X140486190Y-113689285D01*
X140533809Y-113594047D01*
X140629047Y-113546428D01*
X140867142Y-113546428D01*
X140962380Y-113498809D01*
X141295714Y-113260714D02*
X141676666Y-113260714D01*
X141438571Y-112927380D02*
X141438571Y-113784523D01*
X141486190Y-113879761D01*
X141581428Y-113927380D01*
X141676666Y-113927380D01*
X141867142Y-113260714D02*
X142248095Y-113260714D01*
X142010000Y-112927380D02*
X142010000Y-113784523D01*
X142057619Y-113879761D01*
X142152857Y-113927380D01*
X142248095Y-113927380D01*
X142962380Y-113879761D02*
X142867142Y-113927380D01*
X142676666Y-113927380D01*
X142581428Y-113879761D01*
X142533809Y-113784523D01*
X142533809Y-113403571D01*
X142581428Y-113308333D01*
X142676666Y-113260714D01*
X142867142Y-113260714D01*
X142962380Y-113308333D01*
X143010000Y-113403571D01*
X143010000Y-113498809D01*
X142533809Y-113594047D01*
X143438571Y-113927380D02*
X143438571Y-113260714D01*
X143438571Y-113451190D02*
X143486190Y-113355952D01*
X143533809Y-113308333D01*
X143629047Y-113260714D01*
X143724285Y-113260714D01*
X143962380Y-113260714D02*
X144200476Y-113927380D01*
X144438571Y-113260714D02*
X144200476Y-113927380D01*
X144105238Y-114165476D01*
X144057619Y-114213095D01*
X143962380Y-114260714D01*
X145438571Y-112927380D02*
X145771904Y-113927380D01*
X146105238Y-112927380D01*
X146438571Y-113927380D02*
X146438571Y-112927380D01*
X146914761Y-113927380D02*
X146914761Y-112927380D01*
X147486190Y-113927380D01*
X147486190Y-112927380D01*
X142986190Y-114910714D02*
X142224285Y-115196428D01*
X142986190Y-115482142D01*
X143510000Y-115577380D02*
X143700476Y-115577380D01*
X143795714Y-115529761D01*
X143843333Y-115482142D01*
X143938571Y-115339285D01*
X143986190Y-115148809D01*
X143986190Y-114767857D01*
X143938571Y-114672619D01*
X143890952Y-114625000D01*
X143795714Y-114577380D01*
X143605238Y-114577380D01*
X143510000Y-114625000D01*
X143462380Y-114672619D01*
X143414761Y-114767857D01*
X143414761Y-115005952D01*
X143462380Y-115101190D01*
X143510000Y-115148809D01*
X143605238Y-115196428D01*
X143795714Y-115196428D01*
X143890952Y-115148809D01*
X143938571Y-115101190D01*
X143986190Y-115005952D01*
X144271904Y-114577380D02*
X144605238Y-115577380D01*
X144938571Y-114577380D01*
X207097380Y-124713809D02*
X207906904Y-124713809D01*
X208002142Y-124666190D01*
X208049761Y-124618571D01*
X208097380Y-124523333D01*
X208097380Y-124332857D01*
X208049761Y-124237619D01*
X208002142Y-124190000D01*
X207906904Y-124142380D01*
X207097380Y-124142380D01*
X208097380Y-123666190D02*
X207097380Y-123666190D01*
X207097380Y-123285238D01*
X207145000Y-123190000D01*
X207192619Y-123142380D01*
X207287857Y-123094761D01*
X207430714Y-123094761D01*
X207525952Y-123142380D01*
X207573571Y-123190000D01*
X207621190Y-123285238D01*
X207621190Y-123666190D01*
X208097380Y-122666190D02*
X207097380Y-122666190D01*
X207097380Y-122428095D01*
X207145000Y-122285238D01*
X207240238Y-122190000D01*
X207335476Y-122142380D01*
X207525952Y-122094761D01*
X207668809Y-122094761D01*
X207859285Y-122142380D01*
X207954523Y-122190000D01*
X208049761Y-122285238D01*
X208097380Y-122428095D01*
X208097380Y-122666190D01*
X208097380Y-121666190D02*
X207097380Y-121666190D01*
D11*
X211870714Y-113076428D02*
X211942142Y-113005000D01*
X212085000Y-112933571D01*
X212442142Y-112933571D01*
X212585000Y-113005000D01*
X212656428Y-113076428D01*
X212727857Y-113219285D01*
X212727857Y-113362142D01*
X212656428Y-113576428D01*
X211799285Y-114433571D01*
X212727857Y-114433571D01*
X213299285Y-114362142D02*
X213513571Y-114433571D01*
X213870714Y-114433571D01*
X214013571Y-114362142D01*
X214085000Y-114290714D01*
X214156428Y-114147857D01*
X214156428Y-114005000D01*
X214085000Y-113862142D01*
X214013571Y-113790714D01*
X213870714Y-113719285D01*
X213585000Y-113647857D01*
X213442142Y-113576428D01*
X213370714Y-113505000D01*
X213299285Y-113362142D01*
X213299285Y-113219285D01*
X213370714Y-113076428D01*
X213442142Y-113005000D01*
X213585000Y-112933571D01*
X213942142Y-112933571D01*
X214156428Y-113005000D01*
X216656428Y-114433571D02*
X215942142Y-114433571D01*
X215942142Y-112933571D01*
X217156428Y-114433571D02*
X217156428Y-113433571D01*
X217156428Y-112933571D02*
X217085000Y-113005000D01*
X217156428Y-113076428D01*
X217227857Y-113005000D01*
X217156428Y-112933571D01*
X217156428Y-113076428D01*
X217870714Y-113433571D02*
X217870714Y-114933571D01*
X217870714Y-113505000D02*
X218013571Y-113433571D01*
X218299285Y-113433571D01*
X218442142Y-113505000D01*
X218513571Y-113576428D01*
X218585000Y-113719285D01*
X218585000Y-114147857D01*
X218513571Y-114290714D01*
X218442142Y-114362142D01*
X218299285Y-114433571D01*
X218013571Y-114433571D01*
X217870714Y-114362142D01*
X219442142Y-114433571D02*
X219299285Y-114362142D01*
X219227857Y-114290714D01*
X219156428Y-114147857D01*
X219156428Y-113719285D01*
X219227857Y-113576428D01*
X219299285Y-113505000D01*
X219442142Y-113433571D01*
X219656428Y-113433571D01*
X219799285Y-113505000D01*
X219870714Y-113576428D01*
X219942142Y-113719285D01*
X219942142Y-114147857D01*
X219870714Y-114290714D01*
X219799285Y-114362142D01*
X219656428Y-114433571D01*
X219442142Y-114433571D01*
X222227857Y-113647857D02*
X222442142Y-113719285D01*
X222513571Y-113790714D01*
X222585000Y-113933571D01*
X222585000Y-114147857D01*
X222513571Y-114290714D01*
X222442142Y-114362142D01*
X222299285Y-114433571D01*
X221727857Y-114433571D01*
X221727857Y-112933571D01*
X222227857Y-112933571D01*
X222370714Y-113005000D01*
X222442142Y-113076428D01*
X222513571Y-113219285D01*
X222513571Y-113362142D01*
X222442142Y-113505000D01*
X222370714Y-113576428D01*
X222227857Y-113647857D01*
X221727857Y-113647857D01*
X223870714Y-114433571D02*
X223870714Y-113647857D01*
X223799285Y-113505000D01*
X223656428Y-113433571D01*
X223370714Y-113433571D01*
X223227857Y-113505000D01*
X223870714Y-114362142D02*
X223727857Y-114433571D01*
X223370714Y-114433571D01*
X223227857Y-114362142D01*
X223156428Y-114219285D01*
X223156428Y-114076428D01*
X223227857Y-113933571D01*
X223370714Y-113862142D01*
X223727857Y-113862142D01*
X223870714Y-113790714D01*
X224370714Y-113433571D02*
X224942142Y-113433571D01*
X224585000Y-112933571D02*
X224585000Y-114219285D01*
X224656428Y-114362142D01*
X224799285Y-114433571D01*
X224942142Y-114433571D01*
X225227857Y-113433571D02*
X225799285Y-113433571D01*
X225442142Y-112933571D02*
X225442142Y-114219285D01*
X225513571Y-114362142D01*
X225656428Y-114433571D01*
X225799285Y-114433571D01*
X226870714Y-114362142D02*
X226727857Y-114433571D01*
X226442142Y-114433571D01*
X226299285Y-114362142D01*
X226227857Y-114219285D01*
X226227857Y-113647857D01*
X226299285Y-113505000D01*
X226442142Y-113433571D01*
X226727857Y-113433571D01*
X226870714Y-113505000D01*
X226942142Y-113647857D01*
X226942142Y-113790714D01*
X226227857Y-113933571D01*
X227585000Y-114433571D02*
X227585000Y-113433571D01*
X227585000Y-113719285D02*
X227656428Y-113576428D01*
X227727857Y-113505000D01*
X227870714Y-113433571D01*
X228013571Y-113433571D01*
X228370714Y-113433571D02*
X228727857Y-114433571D01*
X229085000Y-113433571D02*
X228727857Y-114433571D01*
X228585000Y-114790714D01*
X228513571Y-114862142D01*
X228370714Y-114933571D01*
X230585000Y-112933571D02*
X231442142Y-112933571D01*
X231013571Y-114433571D02*
X231013571Y-112933571D01*
X232513571Y-114362142D02*
X232370714Y-114433571D01*
X232085000Y-114433571D01*
X231942142Y-114362142D01*
X231870714Y-114219285D01*
X231870714Y-113647857D01*
X231942142Y-113505000D01*
X232085000Y-113433571D01*
X232370714Y-113433571D01*
X232513571Y-113505000D01*
X232585000Y-113647857D01*
X232585000Y-113790714D01*
X231870714Y-113933571D01*
X233156428Y-114362142D02*
X233299285Y-114433571D01*
X233585000Y-114433571D01*
X233727857Y-114362142D01*
X233799285Y-114219285D01*
X233799285Y-114147857D01*
X233727857Y-114005000D01*
X233585000Y-113933571D01*
X233370714Y-113933571D01*
X233227857Y-113862142D01*
X233156428Y-113719285D01*
X233156428Y-113647857D01*
X233227857Y-113505000D01*
X233370714Y-113433571D01*
X233585000Y-113433571D01*
X233727857Y-113505000D01*
X234227857Y-113433571D02*
X234799285Y-113433571D01*
X234442142Y-112933571D02*
X234442142Y-114219285D01*
X234513571Y-114362142D01*
X234656428Y-114433571D01*
X234799285Y-114433571D01*
X235870714Y-114362142D02*
X235727857Y-114433571D01*
X235442142Y-114433571D01*
X235299285Y-114362142D01*
X235227857Y-114219285D01*
X235227857Y-113647857D01*
X235299285Y-113505000D01*
X235442142Y-113433571D01*
X235727857Y-113433571D01*
X235870714Y-113505000D01*
X235942142Y-113647857D01*
X235942142Y-113790714D01*
X235227857Y-113933571D01*
X236585000Y-114433571D02*
X236585000Y-113433571D01*
X236585000Y-113719285D02*
X236656428Y-113576428D01*
X236727857Y-113505000D01*
X236870714Y-113433571D01*
X237013571Y-113433571D01*
X211942142Y-116883571D02*
X211942142Y-115383571D01*
X212299285Y-115383571D01*
X212513571Y-115455000D01*
X212656428Y-115597857D01*
X212727857Y-115740714D01*
X212799285Y-116026428D01*
X212799285Y-116240714D01*
X212727857Y-116526428D01*
X212656428Y-116669285D01*
X212513571Y-116812142D01*
X212299285Y-116883571D01*
X211942142Y-116883571D01*
X214013571Y-116812142D02*
X213870714Y-116883571D01*
X213585000Y-116883571D01*
X213442142Y-116812142D01*
X213370714Y-116669285D01*
X213370714Y-116097857D01*
X213442142Y-115955000D01*
X213585000Y-115883571D01*
X213870714Y-115883571D01*
X214013571Y-115955000D01*
X214085000Y-116097857D01*
X214085000Y-116240714D01*
X213370714Y-116383571D01*
X214656428Y-116812142D02*
X214799285Y-116883571D01*
X215085000Y-116883571D01*
X215227857Y-116812142D01*
X215299285Y-116669285D01*
X215299285Y-116597857D01*
X215227857Y-116455000D01*
X215085000Y-116383571D01*
X214870714Y-116383571D01*
X214727857Y-116312142D01*
X214656428Y-116169285D01*
X214656428Y-116097857D01*
X214727857Y-115955000D01*
X214870714Y-115883571D01*
X215085000Y-115883571D01*
X215227857Y-115955000D01*
X215942142Y-116883571D02*
X215942142Y-115883571D01*
X215942142Y-115383571D02*
X215870714Y-115455000D01*
X215942142Y-115526428D01*
X216013571Y-115455000D01*
X215942142Y-115383571D01*
X215942142Y-115526428D01*
X217299285Y-115883571D02*
X217299285Y-117097857D01*
X217227857Y-117240714D01*
X217156428Y-117312142D01*
X217013571Y-117383571D01*
X216799285Y-117383571D01*
X216656428Y-117312142D01*
X217299285Y-116812142D02*
X217156428Y-116883571D01*
X216870714Y-116883571D01*
X216727857Y-116812142D01*
X216656428Y-116740714D01*
X216585000Y-116597857D01*
X216585000Y-116169285D01*
X216656428Y-116026428D01*
X216727857Y-115955000D01*
X216870714Y-115883571D01*
X217156428Y-115883571D01*
X217299285Y-115955000D01*
X218013571Y-115883571D02*
X218013571Y-116883571D01*
X218013571Y-116026428D02*
X218085000Y-115955000D01*
X218227857Y-115883571D01*
X218442142Y-115883571D01*
X218585000Y-115955000D01*
X218656428Y-116097857D01*
X218656428Y-116883571D01*
X219942142Y-116812142D02*
X219799285Y-116883571D01*
X219513571Y-116883571D01*
X219370714Y-116812142D01*
X219299285Y-116669285D01*
X219299285Y-116097857D01*
X219370714Y-115955000D01*
X219513571Y-115883571D01*
X219799285Y-115883571D01*
X219942142Y-115955000D01*
X220013571Y-116097857D01*
X220013571Y-116240714D01*
X219299285Y-116383571D01*
X221299285Y-116883571D02*
X221299285Y-115383571D01*
X221299285Y-116812142D02*
X221156428Y-116883571D01*
X220870714Y-116883571D01*
X220727857Y-116812142D01*
X220656428Y-116740714D01*
X220585000Y-116597857D01*
X220585000Y-116169285D01*
X220656428Y-116026428D01*
X220727857Y-115955000D01*
X220870714Y-115883571D01*
X221156428Y-115883571D01*
X221299285Y-115955000D01*
X223156428Y-116883571D02*
X223156428Y-115383571D01*
X223156428Y-115955000D02*
X223299285Y-115883571D01*
X223585000Y-115883571D01*
X223727857Y-115955000D01*
X223799285Y-116026428D01*
X223870714Y-116169285D01*
X223870714Y-116597857D01*
X223799285Y-116740714D01*
X223727857Y-116812142D01*
X223585000Y-116883571D01*
X223299285Y-116883571D01*
X223156428Y-116812142D01*
X224370714Y-115883571D02*
X224727857Y-116883571D01*
X225085000Y-115883571D02*
X224727857Y-116883571D01*
X224585000Y-117240714D01*
X224513571Y-117312142D01*
X224370714Y-117383571D01*
X226727857Y-116455000D02*
X227442142Y-116455000D01*
X226585000Y-116883571D02*
X227085000Y-115383571D01*
X227585000Y-116883571D01*
X228299285Y-116883571D02*
X228156428Y-116812142D01*
X228085000Y-116669285D01*
X228085000Y-115383571D01*
X229513571Y-116883571D02*
X229513571Y-116097857D01*
X229442142Y-115955000D01*
X229299285Y-115883571D01*
X229013571Y-115883571D01*
X228870714Y-115955000D01*
X229513571Y-116812142D02*
X229370714Y-116883571D01*
X229013571Y-116883571D01*
X228870714Y-116812142D01*
X228799285Y-116669285D01*
X228799285Y-116526428D01*
X228870714Y-116383571D01*
X229013571Y-116312142D01*
X229370714Y-116312142D01*
X229513571Y-116240714D01*
X230227857Y-115883571D02*
X230227857Y-116883571D01*
X230227857Y-116026428D02*
X230299285Y-115955000D01*
X230442142Y-115883571D01*
X230656428Y-115883571D01*
X230799285Y-115955000D01*
X230870714Y-116097857D01*
X230870714Y-116883571D01*
X232727857Y-116883571D02*
X232727857Y-115383571D01*
X232727857Y-116097857D02*
X233585000Y-116097857D01*
X233585000Y-116883571D02*
X233585000Y-115383571D01*
X234227857Y-116812142D02*
X234370714Y-116883571D01*
X234656428Y-116883571D01*
X234799285Y-116812142D01*
X234870714Y-116669285D01*
X234870714Y-116597857D01*
X234799285Y-116455000D01*
X234656428Y-116383571D01*
X234442142Y-116383571D01*
X234299285Y-116312142D01*
X234227857Y-116169285D01*
X234227857Y-116097857D01*
X234299285Y-115955000D01*
X234442142Y-115883571D01*
X234656428Y-115883571D01*
X234799285Y-115955000D01*
X236156428Y-115883571D02*
X236156428Y-116883571D01*
X235513571Y-115883571D02*
X235513571Y-116669285D01*
X235585000Y-116812142D01*
X235727857Y-116883571D01*
X235942142Y-116883571D01*
X236085000Y-116812142D01*
X236156428Y-116740714D01*
X211799285Y-118333571D02*
X212156428Y-119333571D01*
X212513571Y-118333571D01*
X213870714Y-119333571D02*
X213013571Y-119333571D01*
X213442142Y-119333571D02*
X213442142Y-117833571D01*
X213299285Y-118047857D01*
X213156428Y-118190714D01*
X213013571Y-118262142D01*
X214513571Y-119190714D02*
X214585000Y-119262142D01*
X214513571Y-119333571D01*
X214442142Y-119262142D01*
X214513571Y-119190714D01*
X214513571Y-119333571D01*
X215513571Y-117833571D02*
X215656428Y-117833571D01*
X215799285Y-117905000D01*
X215870714Y-117976428D01*
X215942142Y-118119285D01*
X216013571Y-118405000D01*
X216013571Y-118762142D01*
X215942142Y-119047857D01*
X215870714Y-119190714D01*
X215799285Y-119262142D01*
X215656428Y-119333571D01*
X215513571Y-119333571D01*
X215370714Y-119262142D01*
X215299285Y-119190714D01*
X215227857Y-119047857D01*
X215156428Y-118762142D01*
X215156428Y-118405000D01*
X215227857Y-118119285D01*
X215299285Y-117976428D01*
X215370714Y-117905000D01*
X215513571Y-117833571D01*
D10*
X171704047Y-95956428D02*
X172465952Y-95956428D01*
X172085000Y-96337380D02*
X172085000Y-95575476D01*
D12*
%TO.C,TP1*%
X168462000Y-124146000D02*
X165802000Y-124146000D01*
X168462000Y-126746000D02*
X168462000Y-124146000D01*
X165802000Y-126746000D02*
X165802000Y-124146000D01*
X168462000Y-126746000D02*
X165802000Y-126746000D01*
X168462000Y-128016000D02*
X168462000Y-129346000D01*
X168462000Y-129346000D02*
X167132000Y-129346000D01*
%TO.C,U3*%
X191476000Y-65691000D02*
X201716000Y-65691000D01*
X191476000Y-70332000D02*
X201716000Y-70332000D01*
X191476000Y-65691000D02*
X191476000Y-70332000D01*
X201716000Y-65691000D02*
X201716000Y-70332000D01*
X191476000Y-67201000D02*
X201716000Y-67201000D01*
X194746000Y-65691000D02*
X194746000Y-67201000D01*
X198447000Y-65691000D02*
X198447000Y-67201000D01*
%TO.C,U5*%
X151298000Y-123560000D02*
X151298000Y-126010000D01*
X154518000Y-125360000D02*
X154518000Y-123560000D01*
%TO.C,R10*%
X158215000Y-127227064D02*
X158215000Y-126772936D01*
X156745000Y-127227064D02*
X156745000Y-126772936D01*
%TO.C,R5*%
X149071000Y-126211064D02*
X149071000Y-125756936D01*
X147601000Y-126211064D02*
X147601000Y-125756936D01*
%TO.C,R4*%
X152050631Y-120066000D02*
X153645369Y-120066000D01*
X152050631Y-115646000D02*
X153645369Y-115646000D01*
%TO.C,R9*%
X189505000Y-121377064D02*
X189505000Y-119922936D01*
X187685000Y-121377064D02*
X187685000Y-119922936D01*
%TO.C,Q3*%
X183390000Y-119070000D02*
X184850000Y-119070000D01*
X183390000Y-122230000D02*
X185550000Y-122230000D01*
X183390000Y-122230000D02*
X183390000Y-121300000D01*
X183390000Y-119070000D02*
X183390000Y-120000000D01*
%TO.C,R8*%
X194402064Y-122830000D02*
X192947936Y-122830000D01*
X194402064Y-121010000D02*
X192947936Y-121010000D01*
%TO.C,Q2*%
X181142000Y-123920000D02*
X170902000Y-123920000D01*
X181142000Y-119279000D02*
X170902000Y-119279000D01*
X181142000Y-123920000D02*
X181142000Y-119279000D01*
X170902000Y-123920000D02*
X170902000Y-119279000D01*
X181142000Y-122410000D02*
X170902000Y-122410000D01*
X177872000Y-123920000D02*
X177872000Y-122410000D01*
X174171000Y-123920000D02*
X174171000Y-122410000D01*
%TO.C,U4*%
X178562000Y-81280000D02*
X168402000Y-81280000D01*
X178562000Y-91440000D02*
X178562000Y-81280000D01*
X168402000Y-91440000D02*
X178562000Y-91440000D01*
X168402000Y-81280000D02*
X168402000Y-91440000D01*
%TO.C,U1*%
X173863000Y-102870000D02*
X163703000Y-102870000D01*
X173863000Y-113030000D02*
X173863000Y-102870000D01*
X163703000Y-113030000D02*
X173863000Y-113030000D01*
X163703000Y-102870000D02*
X163703000Y-113030000D01*
%TO.C,J1*%
X142935000Y-111185000D02*
X141605000Y-111185000D01*
X142935000Y-109855000D02*
X142935000Y-111185000D01*
X142935000Y-108585000D02*
X140275000Y-108585000D01*
X140275000Y-108585000D02*
X140275000Y-105985000D01*
X142935000Y-108585000D02*
X142935000Y-105985000D01*
X142935000Y-105985000D02*
X140275000Y-105985000D01*
%TO.C,U2*%
X206883000Y-108194000D02*
X208833000Y-108194000D01*
X206883000Y-108194000D02*
X204933000Y-108194000D01*
X206883000Y-99324000D02*
X208833000Y-99324000D01*
X206883000Y-99324000D02*
X203433000Y-99324000D01*
%TO.C,RV1*%
X164405000Y-91500000D02*
X167065000Y-91500000D01*
X164405000Y-86360000D02*
X164405000Y-91500000D01*
X167065000Y-86360000D02*
X167065000Y-91500000D01*
X164405000Y-86360000D02*
X167065000Y-86360000D01*
X164405000Y-85090000D02*
X164405000Y-83760000D01*
X164405000Y-83760000D02*
X165735000Y-83760000D01*
%TO.C,R6*%
X207920000Y-113318936D02*
X207920000Y-114773064D01*
X206100000Y-113318936D02*
X206100000Y-114773064D01*
%TO.C,R2*%
X223231064Y-109241000D02*
X221776936Y-109241000D01*
X223231064Y-107421000D02*
X221776936Y-107421000D01*
%TO.C,R1*%
X216373064Y-109241000D02*
X214918936Y-109241000D01*
X216373064Y-107421000D02*
X214918936Y-107421000D01*
%TO.C,Q1*%
X171410000Y-69628000D02*
X181650000Y-69628000D01*
X171410000Y-74269000D02*
X181650000Y-74269000D01*
X171410000Y-69628000D02*
X171410000Y-74269000D01*
X181650000Y-69628000D02*
X181650000Y-74269000D01*
X171410000Y-71138000D02*
X181650000Y-71138000D01*
X174680000Y-69628000D02*
X174680000Y-71138000D01*
X178381000Y-69628000D02*
X178381000Y-71138000D01*
%TO.C,JP1*%
X154238000Y-108398000D02*
X151578000Y-108398000D01*
X154238000Y-110998000D02*
X154238000Y-108398000D01*
X151578000Y-110998000D02*
X151578000Y-108398000D01*
X154238000Y-110998000D02*
X151578000Y-110998000D01*
X154238000Y-112268000D02*
X154238000Y-113598000D01*
X154238000Y-113598000D02*
X152908000Y-113598000D01*
%TO.C,J4*%
X200981000Y-118304000D02*
X200981000Y-120964000D01*
X206121000Y-118304000D02*
X200981000Y-118304000D01*
X206121000Y-120964000D02*
X200981000Y-120964000D01*
X206121000Y-118304000D02*
X206121000Y-120964000D01*
X207391000Y-118304000D02*
X208721000Y-118304000D01*
X208721000Y-118304000D02*
X208721000Y-119634000D01*
%TO.C,J3*%
X194250000Y-78426000D02*
X194250000Y-81086000D01*
X196850000Y-78426000D02*
X194250000Y-78426000D01*
X196850000Y-81086000D02*
X194250000Y-81086000D01*
X196850000Y-78426000D02*
X196850000Y-81086000D01*
X198120000Y-78426000D02*
X199450000Y-78426000D01*
X199450000Y-78426000D02*
X199450000Y-79756000D01*
%TO.C,J2*%
X238335000Y-70985000D02*
X237915000Y-70985000D01*
X238335000Y-97825000D02*
X238335000Y-70985000D01*
X237915000Y-97825000D02*
X238335000Y-97825000D01*
X216415000Y-97825000D02*
X234315000Y-97825000D01*
X221015000Y-70985000D02*
X234315000Y-70985000D01*
X218715000Y-73285000D02*
X221015000Y-70985000D01*
X216415000Y-73285000D02*
X218715000Y-73285000D01*
X213095000Y-91655000D02*
X213095000Y-90955000D01*
X213095000Y-89255000D02*
X213095000Y-88455000D01*
X213095000Y-86755000D02*
X213095000Y-85955000D01*
X213095000Y-74255000D02*
X213095000Y-74055000D01*
X213095000Y-84255000D02*
X213095000Y-83455000D01*
X213095000Y-81655000D02*
X213095000Y-80955000D01*
X213095000Y-79255000D02*
X213095000Y-78455000D01*
X213095000Y-76755000D02*
X213095000Y-75955000D01*
%TO.C,D3*%
X200008000Y-87800000D02*
X200008000Y-88280000D01*
X200008000Y-88280000D02*
X192168000Y-88280000D01*
X192168000Y-88280000D02*
X192168000Y-87800000D01*
X200008000Y-84920000D02*
X200008000Y-84440000D01*
X200008000Y-84440000D02*
X192168000Y-84440000D01*
X192168000Y-84440000D02*
X192168000Y-84920000D01*
X198748000Y-88280000D02*
X198748000Y-84440000D01*
X198628000Y-88280000D02*
X198628000Y-84440000D01*
X198868000Y-88280000D02*
X198868000Y-84440000D01*
%TO.C,D2*%
X221504000Y-104719000D02*
X224364000Y-104719000D01*
X224364000Y-104719000D02*
X224364000Y-102799000D01*
X224364000Y-102799000D02*
X221504000Y-102799000D01*
%TO.C,D1*%
X214646000Y-104719000D02*
X217506000Y-104719000D01*
X217506000Y-104719000D02*
X217506000Y-102799000D01*
X217506000Y-102799000D02*
X214646000Y-102799000D01*
%TO.C,C6*%
X195841252Y-75919000D02*
X195318748Y-75919000D01*
X195841252Y-74449000D02*
X195318748Y-74449000D01*
%TO.C,C5*%
X199890748Y-74449000D02*
X200413252Y-74449000D01*
X199890748Y-75919000D02*
X200413252Y-75919000D01*
%TO.C,C4*%
X206748748Y-91721000D02*
X207271252Y-91721000D01*
X206748748Y-93191000D02*
X207271252Y-93191000D01*
%TO.C,C3*%
X206748748Y-95277000D02*
X207271252Y-95277000D01*
X206748748Y-96747000D02*
X207271252Y-96747000D01*
%TO.C,C2*%
X169494252Y-96795000D02*
X168071748Y-96795000D01*
X169494252Y-94975000D02*
X168071748Y-94975000D01*
%TO.C,C1*%
X168521748Y-99087000D02*
X169044252Y-99087000D01*
X168521748Y-100557000D02*
X169044252Y-100557000D01*
%TO.C,TP1*%
D10*
X168918095Y-127468380D02*
X169489523Y-127468380D01*
X169203809Y-128468380D02*
X169203809Y-127468380D01*
X169822857Y-128468380D02*
X169822857Y-127468380D01*
X170203809Y-127468380D01*
X170299047Y-127516000D01*
X170346666Y-127563619D01*
X170394285Y-127658857D01*
X170394285Y-127801714D01*
X170346666Y-127896952D01*
X170299047Y-127944571D01*
X170203809Y-127992190D01*
X169822857Y-127992190D01*
X171346666Y-128468380D02*
X170775238Y-128468380D01*
X171060952Y-128468380D02*
X171060952Y-127468380D01*
X170965714Y-127611238D01*
X170870476Y-127706476D01*
X170775238Y-127754095D01*
%TO.C,U3*%
X195834095Y-64143380D02*
X195834095Y-64952904D01*
X195881714Y-65048142D01*
X195929333Y-65095761D01*
X196024571Y-65143380D01*
X196215047Y-65143380D01*
X196310285Y-65095761D01*
X196357904Y-65048142D01*
X196405523Y-64952904D01*
X196405523Y-64143380D01*
X196786476Y-64143380D02*
X197405523Y-64143380D01*
X197072190Y-64524333D01*
X197215047Y-64524333D01*
X197310285Y-64571952D01*
X197357904Y-64619571D01*
X197405523Y-64714809D01*
X197405523Y-64952904D01*
X197357904Y-65048142D01*
X197310285Y-65095761D01*
X197215047Y-65143380D01*
X196929333Y-65143380D01*
X196834095Y-65095761D01*
X196786476Y-65048142D01*
%TO.C,U5*%
X149820380Y-125221904D02*
X150629904Y-125221904D01*
X150725142Y-125174285D01*
X150772761Y-125126666D01*
X150820380Y-125031428D01*
X150820380Y-124840952D01*
X150772761Y-124745714D01*
X150725142Y-124698095D01*
X150629904Y-124650476D01*
X149820380Y-124650476D01*
X149820380Y-123698095D02*
X149820380Y-124174285D01*
X150296571Y-124221904D01*
X150248952Y-124174285D01*
X150201333Y-124079047D01*
X150201333Y-123840952D01*
X150248952Y-123745714D01*
X150296571Y-123698095D01*
X150391809Y-123650476D01*
X150629904Y-123650476D01*
X150725142Y-123698095D01*
X150772761Y-123745714D01*
X150820380Y-123840952D01*
X150820380Y-124079047D01*
X150772761Y-124174285D01*
X150725142Y-124221904D01*
%TO.C,R10*%
X156282380Y-127642857D02*
X155806190Y-127976190D01*
X156282380Y-128214285D02*
X155282380Y-128214285D01*
X155282380Y-127833333D01*
X155330000Y-127738095D01*
X155377619Y-127690476D01*
X155472857Y-127642857D01*
X155615714Y-127642857D01*
X155710952Y-127690476D01*
X155758571Y-127738095D01*
X155806190Y-127833333D01*
X155806190Y-128214285D01*
X156282380Y-126690476D02*
X156282380Y-127261904D01*
X156282380Y-126976190D02*
X155282380Y-126976190D01*
X155425238Y-127071428D01*
X155520476Y-127166666D01*
X155568095Y-127261904D01*
X155282380Y-126071428D02*
X155282380Y-125976190D01*
X155330000Y-125880952D01*
X155377619Y-125833333D01*
X155472857Y-125785714D01*
X155663333Y-125738095D01*
X155901428Y-125738095D01*
X156091904Y-125785714D01*
X156187142Y-125833333D01*
X156234761Y-125880952D01*
X156282380Y-125976190D01*
X156282380Y-126071428D01*
X156234761Y-126166666D01*
X156187142Y-126214285D01*
X156091904Y-126261904D01*
X155901428Y-126309523D01*
X155663333Y-126309523D01*
X155472857Y-126261904D01*
X155377619Y-126214285D01*
X155330000Y-126166666D01*
X155282380Y-126071428D01*
%TO.C,R5*%
X147138380Y-126150666D02*
X146662190Y-126484000D01*
X147138380Y-126722095D02*
X146138380Y-126722095D01*
X146138380Y-126341142D01*
X146186000Y-126245904D01*
X146233619Y-126198285D01*
X146328857Y-126150666D01*
X146471714Y-126150666D01*
X146566952Y-126198285D01*
X146614571Y-126245904D01*
X146662190Y-126341142D01*
X146662190Y-126722095D01*
X146138380Y-125245904D02*
X146138380Y-125722095D01*
X146614571Y-125769714D01*
X146566952Y-125722095D01*
X146519333Y-125626857D01*
X146519333Y-125388761D01*
X146566952Y-125293523D01*
X146614571Y-125245904D01*
X146709809Y-125198285D01*
X146947904Y-125198285D01*
X147043142Y-125245904D01*
X147090761Y-125293523D01*
X147138380Y-125388761D01*
X147138380Y-125626857D01*
X147090761Y-125722095D01*
X147043142Y-125769714D01*
%TO.C,R4*%
X152741333Y-121864380D02*
X152408000Y-121388190D01*
X152169904Y-121864380D02*
X152169904Y-120864380D01*
X152550857Y-120864380D01*
X152646095Y-120912000D01*
X152693714Y-120959619D01*
X152741333Y-121054857D01*
X152741333Y-121197714D01*
X152693714Y-121292952D01*
X152646095Y-121340571D01*
X152550857Y-121388190D01*
X152169904Y-121388190D01*
X153598476Y-121197714D02*
X153598476Y-121864380D01*
X153360380Y-120816761D02*
X153122285Y-121531047D01*
X153741333Y-121531047D01*
%TO.C,R9*%
X187227380Y-120816666D02*
X186751190Y-121150000D01*
X187227380Y-121388095D02*
X186227380Y-121388095D01*
X186227380Y-121007142D01*
X186275000Y-120911904D01*
X186322619Y-120864285D01*
X186417857Y-120816666D01*
X186560714Y-120816666D01*
X186655952Y-120864285D01*
X186703571Y-120911904D01*
X186751190Y-121007142D01*
X186751190Y-121388095D01*
X187227380Y-120340476D02*
X187227380Y-120150000D01*
X187179761Y-120054761D01*
X187132142Y-120007142D01*
X186989285Y-119911904D01*
X186798809Y-119864285D01*
X186417857Y-119864285D01*
X186322619Y-119911904D01*
X186275000Y-119959523D01*
X186227380Y-120054761D01*
X186227380Y-120245238D01*
X186275000Y-120340476D01*
X186322619Y-120388095D01*
X186417857Y-120435714D01*
X186655952Y-120435714D01*
X186751190Y-120388095D01*
X186798809Y-120340476D01*
X186846428Y-120245238D01*
X186846428Y-120054761D01*
X186798809Y-119959523D01*
X186751190Y-119911904D01*
X186655952Y-119864285D01*
%TO.C,Q3*%
X184054761Y-123697619D02*
X183959523Y-123650000D01*
X183864285Y-123554761D01*
X183721428Y-123411904D01*
X183626190Y-123364285D01*
X183530952Y-123364285D01*
X183578571Y-123602380D02*
X183483333Y-123554761D01*
X183388095Y-123459523D01*
X183340476Y-123269047D01*
X183340476Y-122935714D01*
X183388095Y-122745238D01*
X183483333Y-122650000D01*
X183578571Y-122602380D01*
X183769047Y-122602380D01*
X183864285Y-122650000D01*
X183959523Y-122745238D01*
X184007142Y-122935714D01*
X184007142Y-123269047D01*
X183959523Y-123459523D01*
X183864285Y-123554761D01*
X183769047Y-123602380D01*
X183578571Y-123602380D01*
X184340476Y-122602380D02*
X184959523Y-122602380D01*
X184626190Y-122983333D01*
X184769047Y-122983333D01*
X184864285Y-123030952D01*
X184911904Y-123078571D01*
X184959523Y-123173809D01*
X184959523Y-123411904D01*
X184911904Y-123507142D01*
X184864285Y-123554761D01*
X184769047Y-123602380D01*
X184483333Y-123602380D01*
X184388095Y-123554761D01*
X184340476Y-123507142D01*
%TO.C,R8*%
X193508333Y-124192380D02*
X193175000Y-123716190D01*
X192936904Y-124192380D02*
X192936904Y-123192380D01*
X193317857Y-123192380D01*
X193413095Y-123240000D01*
X193460714Y-123287619D01*
X193508333Y-123382857D01*
X193508333Y-123525714D01*
X193460714Y-123620952D01*
X193413095Y-123668571D01*
X193317857Y-123716190D01*
X192936904Y-123716190D01*
X194079761Y-123620952D02*
X193984523Y-123573333D01*
X193936904Y-123525714D01*
X193889285Y-123430476D01*
X193889285Y-123382857D01*
X193936904Y-123287619D01*
X193984523Y-123240000D01*
X194079761Y-123192380D01*
X194270238Y-123192380D01*
X194365476Y-123240000D01*
X194413095Y-123287619D01*
X194460714Y-123382857D01*
X194460714Y-123430476D01*
X194413095Y-123525714D01*
X194365476Y-123573333D01*
X194270238Y-123620952D01*
X194079761Y-123620952D01*
X193984523Y-123668571D01*
X193936904Y-123716190D01*
X193889285Y-123811428D01*
X193889285Y-124001904D01*
X193936904Y-124097142D01*
X193984523Y-124144761D01*
X194079761Y-124192380D01*
X194270238Y-124192380D01*
X194365476Y-124144761D01*
X194413095Y-124097142D01*
X194460714Y-124001904D01*
X194460714Y-123811428D01*
X194413095Y-123716190D01*
X194365476Y-123668571D01*
X194270238Y-123620952D01*
%TO.C,Q2*%
X175926761Y-125467619D02*
X175831523Y-125420000D01*
X175736285Y-125324761D01*
X175593428Y-125181904D01*
X175498190Y-125134285D01*
X175402952Y-125134285D01*
X175450571Y-125372380D02*
X175355333Y-125324761D01*
X175260095Y-125229523D01*
X175212476Y-125039047D01*
X175212476Y-124705714D01*
X175260095Y-124515238D01*
X175355333Y-124420000D01*
X175450571Y-124372380D01*
X175641047Y-124372380D01*
X175736285Y-124420000D01*
X175831523Y-124515238D01*
X175879142Y-124705714D01*
X175879142Y-125039047D01*
X175831523Y-125229523D01*
X175736285Y-125324761D01*
X175641047Y-125372380D01*
X175450571Y-125372380D01*
X176260095Y-124467619D02*
X176307714Y-124420000D01*
X176402952Y-124372380D01*
X176641047Y-124372380D01*
X176736285Y-124420000D01*
X176783904Y-124467619D01*
X176831523Y-124562857D01*
X176831523Y-124658095D01*
X176783904Y-124800952D01*
X176212476Y-125372380D01*
X176831523Y-125372380D01*
%TO.C,U4*%
X168783095Y-80097380D02*
X168783095Y-80906904D01*
X168830714Y-81002142D01*
X168878333Y-81049761D01*
X168973571Y-81097380D01*
X169164047Y-81097380D01*
X169259285Y-81049761D01*
X169306904Y-81002142D01*
X169354523Y-80906904D01*
X169354523Y-80097380D01*
X170259285Y-80430714D02*
X170259285Y-81097380D01*
X170021190Y-80049761D02*
X169783095Y-80764047D01*
X170402142Y-80764047D01*
%TO.C,U1*%
X164338095Y-101687380D02*
X164338095Y-102496904D01*
X164385714Y-102592142D01*
X164433333Y-102639761D01*
X164528571Y-102687380D01*
X164719047Y-102687380D01*
X164814285Y-102639761D01*
X164861904Y-102592142D01*
X164909523Y-102496904D01*
X164909523Y-101687380D01*
X165909523Y-102687380D02*
X165338095Y-102687380D01*
X165623809Y-102687380D02*
X165623809Y-101687380D01*
X165528571Y-101830238D01*
X165433333Y-101925476D01*
X165338095Y-101973095D01*
%TO.C,J1*%
X141271666Y-111637380D02*
X141271666Y-112351666D01*
X141224047Y-112494523D01*
X141128809Y-112589761D01*
X140985952Y-112637380D01*
X140890714Y-112637380D01*
X142271666Y-112637380D02*
X141700238Y-112637380D01*
X141985952Y-112637380D02*
X141985952Y-111637380D01*
X141890714Y-111780238D01*
X141795476Y-111875476D01*
X141700238Y-111923095D01*
%TO.C,U2*%
X203708095Y-97931380D02*
X203708095Y-98740904D01*
X203755714Y-98836142D01*
X203803333Y-98883761D01*
X203898571Y-98931380D01*
X204089047Y-98931380D01*
X204184285Y-98883761D01*
X204231904Y-98836142D01*
X204279523Y-98740904D01*
X204279523Y-97931380D01*
X204708095Y-98026619D02*
X204755714Y-97979000D01*
X204850952Y-97931380D01*
X205089047Y-97931380D01*
X205184285Y-97979000D01*
X205231904Y-98026619D01*
X205279523Y-98121857D01*
X205279523Y-98217095D01*
X205231904Y-98359952D01*
X204660476Y-98931380D01*
X205279523Y-98931380D01*
%TO.C,RV1*%
X165139761Y-83212380D02*
X164806428Y-82736190D01*
X164568333Y-83212380D02*
X164568333Y-82212380D01*
X164949285Y-82212380D01*
X165044523Y-82260000D01*
X165092142Y-82307619D01*
X165139761Y-82402857D01*
X165139761Y-82545714D01*
X165092142Y-82640952D01*
X165044523Y-82688571D01*
X164949285Y-82736190D01*
X164568333Y-82736190D01*
X165425476Y-82212380D02*
X165758809Y-83212380D01*
X166092142Y-82212380D01*
X166949285Y-83212380D02*
X166377857Y-83212380D01*
X166663571Y-83212380D02*
X166663571Y-82212380D01*
X166568333Y-82355238D01*
X166473095Y-82450476D01*
X166377857Y-82498095D01*
%TO.C,R6*%
X209282380Y-114212666D02*
X208806190Y-114546000D01*
X209282380Y-114784095D02*
X208282380Y-114784095D01*
X208282380Y-114403142D01*
X208330000Y-114307904D01*
X208377619Y-114260285D01*
X208472857Y-114212666D01*
X208615714Y-114212666D01*
X208710952Y-114260285D01*
X208758571Y-114307904D01*
X208806190Y-114403142D01*
X208806190Y-114784095D01*
X208282380Y-113355523D02*
X208282380Y-113546000D01*
X208330000Y-113641238D01*
X208377619Y-113688857D01*
X208520476Y-113784095D01*
X208710952Y-113831714D01*
X209091904Y-113831714D01*
X209187142Y-113784095D01*
X209234761Y-113736476D01*
X209282380Y-113641238D01*
X209282380Y-113450761D01*
X209234761Y-113355523D01*
X209187142Y-113307904D01*
X209091904Y-113260285D01*
X208853809Y-113260285D01*
X208758571Y-113307904D01*
X208710952Y-113355523D01*
X208663333Y-113450761D01*
X208663333Y-113641238D01*
X208710952Y-113736476D01*
X208758571Y-113784095D01*
X208853809Y-113831714D01*
%TO.C,R2*%
X222337333Y-110603380D02*
X222004000Y-110127190D01*
X221765904Y-110603380D02*
X221765904Y-109603380D01*
X222146857Y-109603380D01*
X222242095Y-109651000D01*
X222289714Y-109698619D01*
X222337333Y-109793857D01*
X222337333Y-109936714D01*
X222289714Y-110031952D01*
X222242095Y-110079571D01*
X222146857Y-110127190D01*
X221765904Y-110127190D01*
X222718285Y-109698619D02*
X222765904Y-109651000D01*
X222861142Y-109603380D01*
X223099238Y-109603380D01*
X223194476Y-109651000D01*
X223242095Y-109698619D01*
X223289714Y-109793857D01*
X223289714Y-109889095D01*
X223242095Y-110031952D01*
X222670666Y-110603380D01*
X223289714Y-110603380D01*
%TO.C,R1*%
X215479333Y-110603380D02*
X215146000Y-110127190D01*
X214907904Y-110603380D02*
X214907904Y-109603380D01*
X215288857Y-109603380D01*
X215384095Y-109651000D01*
X215431714Y-109698619D01*
X215479333Y-109793857D01*
X215479333Y-109936714D01*
X215431714Y-110031952D01*
X215384095Y-110079571D01*
X215288857Y-110127190D01*
X214907904Y-110127190D01*
X216431714Y-110603380D02*
X215860285Y-110603380D01*
X216146000Y-110603380D02*
X216146000Y-109603380D01*
X216050761Y-109746238D01*
X215955523Y-109841476D01*
X215860285Y-109889095D01*
%TO.C,Q1*%
X176434761Y-69175619D02*
X176339523Y-69128000D01*
X176244285Y-69032761D01*
X176101428Y-68889904D01*
X176006190Y-68842285D01*
X175910952Y-68842285D01*
X175958571Y-69080380D02*
X175863333Y-69032761D01*
X175768095Y-68937523D01*
X175720476Y-68747047D01*
X175720476Y-68413714D01*
X175768095Y-68223238D01*
X175863333Y-68128000D01*
X175958571Y-68080380D01*
X176149047Y-68080380D01*
X176244285Y-68128000D01*
X176339523Y-68223238D01*
X176387142Y-68413714D01*
X176387142Y-68747047D01*
X176339523Y-68937523D01*
X176244285Y-69032761D01*
X176149047Y-69080380D01*
X175958571Y-69080380D01*
X177339523Y-69080380D02*
X176768095Y-69080380D01*
X177053809Y-69080380D02*
X177053809Y-68080380D01*
X176958571Y-68223238D01*
X176863333Y-68318476D01*
X176768095Y-68366095D01*
%TO.C,JP1*%
X152074666Y-114050380D02*
X152074666Y-114764666D01*
X152027047Y-114907523D01*
X151931809Y-115002761D01*
X151788952Y-115050380D01*
X151693714Y-115050380D01*
X152550857Y-115050380D02*
X152550857Y-114050380D01*
X152931809Y-114050380D01*
X153027047Y-114098000D01*
X153074666Y-114145619D01*
X153122285Y-114240857D01*
X153122285Y-114383714D01*
X153074666Y-114478952D01*
X153027047Y-114526571D01*
X152931809Y-114574190D01*
X152550857Y-114574190D01*
X154074666Y-115050380D02*
X153503238Y-115050380D01*
X153788952Y-115050380D02*
X153788952Y-114050380D01*
X153693714Y-114193238D01*
X153598476Y-114288476D01*
X153503238Y-114336095D01*
%TO.C,J4*%
X209173380Y-119967333D02*
X209887666Y-119967333D01*
X210030523Y-120014952D01*
X210125761Y-120110190D01*
X210173380Y-120253047D01*
X210173380Y-120348285D01*
X209506714Y-119062571D02*
X210173380Y-119062571D01*
X209125761Y-119300666D02*
X209840047Y-119538761D01*
X209840047Y-118919714D01*
%TO.C,J3*%
X199902380Y-80089333D02*
X200616666Y-80089333D01*
X200759523Y-80136952D01*
X200854761Y-80232190D01*
X200902380Y-80375047D01*
X200902380Y-80470285D01*
X199902380Y-79708380D02*
X199902380Y-79089333D01*
X200283333Y-79422666D01*
X200283333Y-79279809D01*
X200330952Y-79184571D01*
X200378571Y-79136952D01*
X200473809Y-79089333D01*
X200711904Y-79089333D01*
X200807142Y-79136952D01*
X200854761Y-79184571D01*
X200902380Y-79279809D01*
X200902380Y-79565523D01*
X200854761Y-79660761D01*
X200807142Y-79708380D01*
%TO.C,J2*%
X210642380Y-84788333D02*
X211356666Y-84788333D01*
X211499523Y-84835952D01*
X211594761Y-84931190D01*
X211642380Y-85074047D01*
X211642380Y-85169285D01*
X210737619Y-84359761D02*
X210690000Y-84312142D01*
X210642380Y-84216904D01*
X210642380Y-83978809D01*
X210690000Y-83883571D01*
X210737619Y-83835952D01*
X210832857Y-83788333D01*
X210928095Y-83788333D01*
X211070952Y-83835952D01*
X211642380Y-84407380D01*
X211642380Y-83788333D01*
%TO.C,D3*%
X195349904Y-89732380D02*
X195349904Y-88732380D01*
X195588000Y-88732380D01*
X195730857Y-88780000D01*
X195826095Y-88875238D01*
X195873714Y-88970476D01*
X195921333Y-89160952D01*
X195921333Y-89303809D01*
X195873714Y-89494285D01*
X195826095Y-89589523D01*
X195730857Y-89684761D01*
X195588000Y-89732380D01*
X195349904Y-89732380D01*
X196254666Y-88732380D02*
X196873714Y-88732380D01*
X196540380Y-89113333D01*
X196683238Y-89113333D01*
X196778476Y-89160952D01*
X196826095Y-89208571D01*
X196873714Y-89303809D01*
X196873714Y-89541904D01*
X196826095Y-89637142D01*
X196778476Y-89684761D01*
X196683238Y-89732380D01*
X196397523Y-89732380D01*
X196302285Y-89684761D01*
X196254666Y-89637142D01*
X200906095Y-89012380D02*
X200906095Y-88012380D01*
X201477523Y-89012380D02*
X201048952Y-88440952D01*
X201477523Y-88012380D02*
X200906095Y-88583809D01*
%TO.C,D2*%
X221765904Y-105861380D02*
X221765904Y-104861380D01*
X222004000Y-104861380D01*
X222146857Y-104909000D01*
X222242095Y-105004238D01*
X222289714Y-105099476D01*
X222337333Y-105289952D01*
X222337333Y-105432809D01*
X222289714Y-105623285D01*
X222242095Y-105718523D01*
X222146857Y-105813761D01*
X222004000Y-105861380D01*
X221765904Y-105861380D01*
X222718285Y-104956619D02*
X222765904Y-104909000D01*
X222861142Y-104861380D01*
X223099238Y-104861380D01*
X223194476Y-104909000D01*
X223242095Y-104956619D01*
X223289714Y-105051857D01*
X223289714Y-105147095D01*
X223242095Y-105289952D01*
X222670666Y-105861380D01*
X223289714Y-105861380D01*
%TO.C,D1*%
X214907904Y-105861380D02*
X214907904Y-104861380D01*
X215146000Y-104861380D01*
X215288857Y-104909000D01*
X215384095Y-105004238D01*
X215431714Y-105099476D01*
X215479333Y-105289952D01*
X215479333Y-105432809D01*
X215431714Y-105623285D01*
X215384095Y-105718523D01*
X215288857Y-105813761D01*
X215146000Y-105861380D01*
X214907904Y-105861380D01*
X216431714Y-105861380D02*
X215860285Y-105861380D01*
X216146000Y-105861380D02*
X216146000Y-104861380D01*
X216050761Y-105004238D01*
X215955523Y-105099476D01*
X215860285Y-105147095D01*
%TO.C,C6*%
X195413333Y-77221142D02*
X195365714Y-77268761D01*
X195222857Y-77316380D01*
X195127619Y-77316380D01*
X194984761Y-77268761D01*
X194889523Y-77173523D01*
X194841904Y-77078285D01*
X194794285Y-76887809D01*
X194794285Y-76744952D01*
X194841904Y-76554476D01*
X194889523Y-76459238D01*
X194984761Y-76364000D01*
X195127619Y-76316380D01*
X195222857Y-76316380D01*
X195365714Y-76364000D01*
X195413333Y-76411619D01*
X196270476Y-76316380D02*
X196080000Y-76316380D01*
X195984761Y-76364000D01*
X195937142Y-76411619D01*
X195841904Y-76554476D01*
X195794285Y-76744952D01*
X195794285Y-77125904D01*
X195841904Y-77221142D01*
X195889523Y-77268761D01*
X195984761Y-77316380D01*
X196175238Y-77316380D01*
X196270476Y-77268761D01*
X196318095Y-77221142D01*
X196365714Y-77125904D01*
X196365714Y-76887809D01*
X196318095Y-76792571D01*
X196270476Y-76744952D01*
X196175238Y-76697333D01*
X195984761Y-76697333D01*
X195889523Y-76744952D01*
X195841904Y-76792571D01*
X195794285Y-76887809D01*
%TO.C,C5*%
X199985333Y-73861142D02*
X199937714Y-73908761D01*
X199794857Y-73956380D01*
X199699619Y-73956380D01*
X199556761Y-73908761D01*
X199461523Y-73813523D01*
X199413904Y-73718285D01*
X199366285Y-73527809D01*
X199366285Y-73384952D01*
X199413904Y-73194476D01*
X199461523Y-73099238D01*
X199556761Y-73004000D01*
X199699619Y-72956380D01*
X199794857Y-72956380D01*
X199937714Y-73004000D01*
X199985333Y-73051619D01*
X200890095Y-72956380D02*
X200413904Y-72956380D01*
X200366285Y-73432571D01*
X200413904Y-73384952D01*
X200509142Y-73337333D01*
X200747238Y-73337333D01*
X200842476Y-73384952D01*
X200890095Y-73432571D01*
X200937714Y-73527809D01*
X200937714Y-73765904D01*
X200890095Y-73861142D01*
X200842476Y-73908761D01*
X200747238Y-73956380D01*
X200509142Y-73956380D01*
X200413904Y-73908761D01*
X200366285Y-73861142D01*
%TO.C,C4*%
X206843333Y-91133142D02*
X206795714Y-91180761D01*
X206652857Y-91228380D01*
X206557619Y-91228380D01*
X206414761Y-91180761D01*
X206319523Y-91085523D01*
X206271904Y-90990285D01*
X206224285Y-90799809D01*
X206224285Y-90656952D01*
X206271904Y-90466476D01*
X206319523Y-90371238D01*
X206414761Y-90276000D01*
X206557619Y-90228380D01*
X206652857Y-90228380D01*
X206795714Y-90276000D01*
X206843333Y-90323619D01*
X207700476Y-90561714D02*
X207700476Y-91228380D01*
X207462380Y-90180761D02*
X207224285Y-90895047D01*
X207843333Y-90895047D01*
%TO.C,C3*%
X206843333Y-94689142D02*
X206795714Y-94736761D01*
X206652857Y-94784380D01*
X206557619Y-94784380D01*
X206414761Y-94736761D01*
X206319523Y-94641523D01*
X206271904Y-94546285D01*
X206224285Y-94355809D01*
X206224285Y-94212952D01*
X206271904Y-94022476D01*
X206319523Y-93927238D01*
X206414761Y-93832000D01*
X206557619Y-93784380D01*
X206652857Y-93784380D01*
X206795714Y-93832000D01*
X206843333Y-93879619D01*
X207176666Y-93784380D02*
X207795714Y-93784380D01*
X207462380Y-94165333D01*
X207605238Y-94165333D01*
X207700476Y-94212952D01*
X207748095Y-94260571D01*
X207795714Y-94355809D01*
X207795714Y-94593904D01*
X207748095Y-94689142D01*
X207700476Y-94736761D01*
X207605238Y-94784380D01*
X207319523Y-94784380D01*
X207224285Y-94736761D01*
X207176666Y-94689142D01*
%TO.C,C2*%
X168743333Y-94083142D02*
X168695714Y-94130761D01*
X168552857Y-94178380D01*
X168457619Y-94178380D01*
X168314761Y-94130761D01*
X168219523Y-94035523D01*
X168171904Y-93940285D01*
X168124285Y-93749809D01*
X168124285Y-93606952D01*
X168171904Y-93416476D01*
X168219523Y-93321238D01*
X168314761Y-93226000D01*
X168457619Y-93178380D01*
X168552857Y-93178380D01*
X168695714Y-93226000D01*
X168743333Y-93273619D01*
X169124285Y-93273619D02*
X169171904Y-93226000D01*
X169267142Y-93178380D01*
X169505238Y-93178380D01*
X169600476Y-93226000D01*
X169648095Y-93273619D01*
X169695714Y-93368857D01*
X169695714Y-93464095D01*
X169648095Y-93606952D01*
X169076666Y-94178380D01*
X169695714Y-94178380D01*
%TO.C,C1*%
X168616333Y-98499142D02*
X168568714Y-98546761D01*
X168425857Y-98594380D01*
X168330619Y-98594380D01*
X168187761Y-98546761D01*
X168092523Y-98451523D01*
X168044904Y-98356285D01*
X167997285Y-98165809D01*
X167997285Y-98022952D01*
X168044904Y-97832476D01*
X168092523Y-97737238D01*
X168187761Y-97642000D01*
X168330619Y-97594380D01*
X168425857Y-97594380D01*
X168568714Y-97642000D01*
X168616333Y-97689619D01*
X169568714Y-98594380D02*
X168997285Y-98594380D01*
X169283000Y-98594380D02*
X169283000Y-97594380D01*
X169187761Y-97737238D01*
X169092523Y-97832476D01*
X168997285Y-97880095D01*
%TO.C,A1*%
X191166666Y-107394285D02*
X191166666Y-106918095D01*
X191452380Y-107489523D02*
X190452380Y-107156190D01*
X191452380Y-106822857D01*
X191452380Y-105965714D02*
X191452380Y-106537142D01*
X191452380Y-106251428D02*
X190452380Y-106251428D01*
X190595238Y-106346666D01*
X190690476Y-106441904D01*
X190738095Y-106537142D01*
%TD*%
M02*
