%TF.GenerationSoftware,KiCad,Pcbnew,(5.1.9)-1*%
%TF.CreationDate,2021-11-14T00:41:55-05:00*%
%TF.ProjectId,BattTester,42617474-5465-4737-9465-722e6b696361,rev?*%
%TF.SameCoordinates,Original*%
%TF.FileFunction,Copper,L2,Bot*%
%TF.FilePolarity,Positive*%
%FSLAX46Y46*%
G04 Gerber Fmt 4.6, Leading zero omitted, Abs format (unit mm)*
G04 Created by KiCad (PCBNEW (5.1.9)-1) date 2021-11-14 00:41:55*
%MOMM*%
%LPD*%
G01*
G04 APERTURE LIST*
%TA.AperFunction,ComponentPad*%
%ADD10C,2.800000*%
%TD*%
%TA.AperFunction,ComponentPad*%
%ADD11O,2.800000X2.800000*%
%TD*%
%TA.AperFunction,ComponentPad*%
%ADD12O,1.905000X2.000000*%
%TD*%
%TA.AperFunction,ComponentPad*%
%ADD13R,1.905000X2.000000*%
%TD*%
%TA.AperFunction,ComponentPad*%
%ADD14C,1.524000*%
%TD*%
%TA.AperFunction,ComponentPad*%
%ADD15O,1.700000X1.700000*%
%TD*%
%TA.AperFunction,ComponentPad*%
%ADD16R,1.700000X1.700000*%
%TD*%
%TA.AperFunction,ComponentPad*%
%ADD17O,2.400000X2.400000*%
%TD*%
%TA.AperFunction,ComponentPad*%
%ADD18R,2.400000X2.400000*%
%TD*%
%TA.AperFunction,ComponentPad*%
%ADD19C,1.700000*%
%TD*%
%TA.AperFunction,ViaPad*%
%ADD20C,0.800000*%
%TD*%
%TA.AperFunction,ViaPad*%
%ADD21C,1.000000*%
%TD*%
%TA.AperFunction,Conductor*%
%ADD22C,0.381000*%
%TD*%
%TA.AperFunction,Conductor*%
%ADD23C,1.270000*%
%TD*%
%TA.AperFunction,Conductor*%
%ADD24C,0.508000*%
%TD*%
%TA.AperFunction,Conductor*%
%ADD25C,0.254000*%
%TD*%
%TA.AperFunction,Conductor*%
%ADD26C,0.100000*%
%TD*%
G04 APERTURE END LIST*
D10*
%TO.P,R3,1*%
%TO.N,Net-(Q1-Pad3)*%
X145415000Y-66675000D03*
D11*
%TO.P,R3,2*%
%TO.N,Net-(JP1-Pad1)*%
X160655000Y-66675000D03*
D10*
%TO.P,R3,1*%
%TO.N,Net-(Q1-Pad3)*%
X145415000Y-73025000D03*
D11*
%TO.P,R3,2*%
%TO.N,Net-(JP1-Pad1)*%
X160655000Y-73025000D03*
D10*
%TO.P,R3,1*%
%TO.N,Net-(Q1-Pad3)*%
X145415000Y-79375000D03*
D11*
%TO.P,R3,2*%
%TO.N,Net-(JP1-Pad1)*%
X160655000Y-79375000D03*
D10*
%TO.P,R3,1*%
%TO.N,Net-(Q1-Pad3)*%
X145415000Y-85725000D03*
D11*
%TO.P,R3,2*%
%TO.N,Net-(JP1-Pad1)*%
X160655000Y-85725000D03*
D10*
%TO.P,R3,1*%
%TO.N,Net-(Q1-Pad3)*%
X145415000Y-92075000D03*
D11*
%TO.P,R3,2*%
%TO.N,Net-(JP1-Pad1)*%
X160655000Y-92075000D03*
D10*
%TO.P,R3,1*%
%TO.N,Net-(Q1-Pad3)*%
X145415000Y-98425000D03*
D11*
%TO.P,R3,2*%
%TO.N,Net-(JP1-Pad1)*%
X160655000Y-98425000D03*
D10*
%TO.P,R3,1*%
%TO.N,Net-(Q1-Pad3)*%
X145415000Y-104775000D03*
D11*
%TO.P,R3,2*%
%TO.N,Net-(JP1-Pad1)*%
X160655000Y-104775000D03*
D10*
%TO.P,R3,1*%
%TO.N,Net-(Q1-Pad3)*%
X145415000Y-111125000D03*
D11*
%TO.P,R3,2*%
%TO.N,Net-(JP1-Pad1)*%
X160655000Y-111125000D03*
D10*
%TO.P,R3,1*%
%TO.N,Net-(Q1-Pad3)*%
X145415000Y-117475000D03*
D11*
%TO.P,R3,2*%
%TO.N,Net-(JP1-Pad1)*%
X160655000Y-117475000D03*
X160655000Y-123825000D03*
D10*
%TO.P,R3,1*%
%TO.N,Net-(Q1-Pad3)*%
X145415000Y-123825000D03*
%TD*%
%TO.P,R7,2*%
%TO.N,/BIN+*%
%TA.AperFunction,SMDPad,CuDef*%
G36*
G01*
X168010000Y-123200000D02*
X168010000Y-124450000D01*
G75*
G02*
X167760000Y-124700000I-250000J0D01*
G01*
X166960000Y-124700000D01*
G75*
G02*
X166710000Y-124450000I0J250000D01*
G01*
X166710000Y-123200000D01*
G75*
G02*
X166960000Y-122950000I250000J0D01*
G01*
X167760000Y-122950000D01*
G75*
G02*
X168010000Y-123200000I0J-250000D01*
G01*
G37*
%TD.AperFunction*%
%TO.P,R7,1*%
%TO.N,Net-(Q2-Pad1)*%
%TA.AperFunction,SMDPad,CuDef*%
G36*
G01*
X171110000Y-123200000D02*
X171110000Y-124450000D01*
G75*
G02*
X170860000Y-124700000I-250000J0D01*
G01*
X170060000Y-124700000D01*
G75*
G02*
X169810000Y-124450000I0J250000D01*
G01*
X169810000Y-123200000D01*
G75*
G02*
X170060000Y-122950000I250000J0D01*
G01*
X170860000Y-122950000D01*
G75*
G02*
X171110000Y-123200000I0J-250000D01*
G01*
G37*
%TD.AperFunction*%
%TD*%
D12*
%TO.P,Q2,3*%
%TO.N,/BIN+*%
X166370000Y-120650000D03*
%TO.P,Q2,2*%
%TO.N,/B+*%
X168910000Y-120650000D03*
D13*
%TO.P,Q2,1*%
%TO.N,Net-(Q2-Pad1)*%
X171450000Y-120650000D03*
%TD*%
D14*
%TO.P,U4,8*%
%TO.N,+9V*%
X177292000Y-82550000D03*
%TO.P,U4,7*%
%TO.N,N/C*%
X177292000Y-85090000D03*
%TO.P,U4,6*%
X177292000Y-87630000D03*
%TO.P,U4,5*%
X177292000Y-90170000D03*
%TO.P,U4,4*%
%TO.N,GND*%
X169672000Y-90170000D03*
%TO.P,U4,3*%
%TO.N,Net-(RV1-Pad2)*%
X169672000Y-87630000D03*
%TO.P,U4,2*%
%TO.N,Net-(Q1-Pad3)*%
X169672000Y-85090000D03*
%TO.P,U4,1*%
%TO.N,Net-(Q1-Pad1)*%
X169672000Y-82550000D03*
%TD*%
%TO.P,U1,8*%
%TO.N,+9V*%
X172593000Y-104140000D03*
%TO.P,U1,7*%
%TO.N,Net-(A1-Pad1)*%
X172593000Y-106680000D03*
%TO.P,U1,6*%
%TO.N,Net-(A1-Pad2)*%
X172593000Y-109220000D03*
%TO.P,U1,5*%
%TO.N,Net-(A1-Pad6)*%
X172593000Y-111760000D03*
%TO.P,U1,4*%
%TO.N,GND*%
X164973000Y-111760000D03*
%TO.P,U1,3*%
X164973000Y-109220000D03*
%TO.P,U1,2*%
%TO.N,/B+*%
X164973000Y-106680000D03*
%TO.P,U1,1*%
%TO.N,+9V*%
X164973000Y-104140000D03*
%TD*%
D15*
%TO.P,J1,2*%
%TO.N,GND*%
X141605000Y-107315000D03*
D16*
%TO.P,J1,1*%
%TO.N,/BIN+*%
X141605000Y-109855000D03*
%TD*%
D15*
%TO.P,RV1,3*%
%TO.N,GND*%
X165735000Y-90170000D03*
%TO.P,RV1,2*%
%TO.N,Net-(RV1-Pad2)*%
X165735000Y-87630000D03*
D16*
%TO.P,RV1,1*%
%TO.N,+9V*%
X165735000Y-85090000D03*
%TD*%
D12*
%TO.P,Q1,3*%
%TO.N,Net-(Q1-Pad3)*%
X179070000Y-72898000D03*
%TO.P,Q1,2*%
%TO.N,/B+*%
X176530000Y-72898000D03*
D13*
%TO.P,Q1,1*%
%TO.N,Net-(Q1-Pad1)*%
X173990000Y-72898000D03*
%TD*%
D15*
%TO.P,JP1,2*%
%TO.N,GND*%
X153035000Y-114935000D03*
D16*
%TO.P,JP1,1*%
%TO.N,Net-(JP1-Pad1)*%
X153035000Y-117475000D03*
%TD*%
D15*
%TO.P,J4,3*%
%TO.N,+3V3*%
X202311000Y-119634000D03*
%TO.P,J4,2*%
%TO.N,GND*%
X204851000Y-119634000D03*
D16*
%TO.P,J4,1*%
%TO.N,Net-(J4-Pad1)*%
X207391000Y-119634000D03*
%TD*%
D15*
%TO.P,J3,2*%
%TO.N,GND*%
X196215000Y-70612000D03*
D16*
%TO.P,J3,1*%
%TO.N,+9V*%
X193675000Y-70612000D03*
%TD*%
D17*
%TO.P,D3,2*%
%TO.N,+3V3*%
X182880000Y-92456000D03*
D18*
%TO.P,D3,1*%
%TO.N,+9V*%
X182880000Y-82296000D03*
%TD*%
D19*
%TO.P,A1,12*%
%TO.N,/SPI-SCK*%
X195580000Y-100330000D03*
%TO.P,A1,11*%
%TO.N,/SPI-MISO*%
X195580000Y-102870000D03*
%TO.P,A1,10*%
%TO.N,GND*%
X195580000Y-105410000D03*
%TO.P,A1,9*%
%TO.N,+3V3*%
X195580000Y-107950000D03*
%TO.P,A1,8*%
%TO.N,N/C*%
X195580000Y-110490000D03*
%TO.P,A1,7*%
%TO.N,/SPI-CS0*%
X195580000Y-113030000D03*
%TO.P,A1,6*%
%TO.N,Net-(A1-Pad6)*%
X185420000Y-113030000D03*
%TO.P,A1,5*%
%TO.N,N/C*%
X185420000Y-110490000D03*
%TO.P,A1,4*%
%TO.N,+9V*%
X185420000Y-107950000D03*
%TO.P,A1,3*%
%TO.N,GND*%
X185420000Y-105410000D03*
%TO.P,A1,2*%
%TO.N,Net-(A1-Pad2)*%
X185420000Y-102870000D03*
%TO.P,A1,1*%
%TO.N,Net-(A1-Pad1)*%
X185420000Y-100330000D03*
%TD*%
D20*
%TO.N,/SPI-MISO*%
X207010000Y-102869994D03*
D21*
%TO.N,GND*%
X165100000Y-97790000D03*
X179705000Y-97790000D03*
X211455000Y-90805000D03*
X208915000Y-97790000D03*
X158750000Y-114300000D03*
X162560000Y-114300000D03*
X158750000Y-76200000D03*
X162560000Y-76200000D03*
D20*
%TO.N,/SPI-SCK*%
X207010000Y-100330000D03*
%TO.N,/SPI-MOSI*%
X214630000Y-93980000D03*
X212725000Y-101600000D03*
%TO.N,/CUTOFF*%
X197485000Y-115570000D03*
X195580000Y-117475000D03*
%TD*%
D22*
%TO.N,/SPI-MISO*%
X206375000Y-102870000D02*
X206375000Y-102870000D01*
X195580000Y-102870000D02*
X207009994Y-102870000D01*
X207009994Y-102870000D02*
X207010000Y-102869994D01*
%TO.N,/SPI-SCK*%
X206375000Y-100330000D02*
X206375000Y-100330000D01*
X195580000Y-100330000D02*
X207010000Y-100330000D01*
%TO.N,/SPI-MOSI*%
X214630000Y-93980000D02*
X214630000Y-94615000D01*
X214630000Y-94615000D02*
X213995000Y-95250000D01*
X213995000Y-95250000D02*
X213995000Y-100330000D01*
X213995000Y-100330000D02*
X212725000Y-101600000D01*
X212725000Y-101600000D02*
X212725000Y-101600000D01*
D23*
%TO.N,Net-(JP1-Pad1)*%
X160655000Y-123825000D02*
X160655000Y-66675000D01*
%TO.N,Net-(Q1-Pad3)*%
X145415000Y-66675000D02*
X145415000Y-123825000D01*
D24*
%TO.N,/BIN+*%
X167360000Y-121640000D02*
X166370000Y-120650000D01*
X167360000Y-123825000D02*
X167360000Y-121640000D01*
%TO.N,Net-(Q2-Pad1)*%
X170460000Y-121640000D02*
X171450000Y-120650000D01*
X170460000Y-123825000D02*
X170460000Y-121640000D01*
%TO.N,/CUTOFF*%
X197485000Y-115570000D02*
X195580000Y-117475000D01*
%TD*%
D25*
%TO.N,GND*%
X182118000Y-77417394D02*
X180250197Y-79285197D01*
X180234403Y-79304443D01*
X180222667Y-79326399D01*
X180215440Y-79350224D01*
X180213000Y-79375000D01*
X180213000Y-93292394D01*
X175170197Y-98335197D01*
X175154403Y-98354443D01*
X175142667Y-98376399D01*
X175135440Y-98400224D01*
X175133000Y-98425000D01*
X175133000Y-126238000D01*
X139827000Y-126238000D01*
X139827000Y-109005000D01*
X140116928Y-109005000D01*
X140116928Y-110705000D01*
X140129188Y-110829482D01*
X140165498Y-110949180D01*
X140224463Y-111059494D01*
X140303815Y-111156185D01*
X140400506Y-111235537D01*
X140510820Y-111294502D01*
X140630518Y-111330812D01*
X140755000Y-111343072D01*
X142455000Y-111343072D01*
X142579482Y-111330812D01*
X142699180Y-111294502D01*
X142809494Y-111235537D01*
X142906185Y-111156185D01*
X142985537Y-111059494D01*
X143044502Y-110949180D01*
X143080812Y-110829482D01*
X143093072Y-110705000D01*
X143093072Y-109005000D01*
X143080812Y-108880518D01*
X143044502Y-108760820D01*
X142985537Y-108650506D01*
X142906185Y-108553815D01*
X142809494Y-108474463D01*
X142699180Y-108415498D01*
X142621421Y-108391910D01*
X142784688Y-108216991D01*
X142937990Y-107969514D01*
X143010368Y-107794755D01*
X142906700Y-107569000D01*
X141859000Y-107569000D01*
X141859000Y-107589000D01*
X141351000Y-107589000D01*
X141351000Y-107569000D01*
X140303300Y-107569000D01*
X140199632Y-107794755D01*
X140272010Y-107969514D01*
X140425312Y-108216991D01*
X140588579Y-108391910D01*
X140510820Y-108415498D01*
X140400506Y-108474463D01*
X140303815Y-108553815D01*
X140224463Y-108650506D01*
X140165498Y-108760820D01*
X140129188Y-108880518D01*
X140116928Y-109005000D01*
X139827000Y-109005000D01*
X139827000Y-106835245D01*
X140199632Y-106835245D01*
X140303300Y-107061000D01*
X141351000Y-107061000D01*
X141351000Y-106010624D01*
X141859000Y-106010624D01*
X141859000Y-107061000D01*
X142906700Y-107061000D01*
X143010368Y-106835245D01*
X142937990Y-106660486D01*
X142784688Y-106413009D01*
X142586051Y-106200195D01*
X142349713Y-106030222D01*
X142084756Y-105909622D01*
X141859000Y-106010624D01*
X141351000Y-106010624D01*
X141125244Y-105909622D01*
X140860287Y-106030222D01*
X140623949Y-106200195D01*
X140425312Y-106413009D01*
X140272010Y-106660486D01*
X140199632Y-106835245D01*
X139827000Y-106835245D01*
X139827000Y-66474570D01*
X143380000Y-66474570D01*
X143380000Y-66875430D01*
X143458204Y-67268587D01*
X143611607Y-67638934D01*
X143834313Y-67972237D01*
X144117763Y-68255687D01*
X144145000Y-68273886D01*
X144145000Y-71426114D01*
X144117763Y-71444313D01*
X143834313Y-71727763D01*
X143611607Y-72061066D01*
X143458204Y-72431413D01*
X143380000Y-72824570D01*
X143380000Y-73225430D01*
X143458204Y-73618587D01*
X143611607Y-73988934D01*
X143834313Y-74322237D01*
X144117763Y-74605687D01*
X144145000Y-74623886D01*
X144145000Y-77776114D01*
X144117763Y-77794313D01*
X143834313Y-78077763D01*
X143611607Y-78411066D01*
X143458204Y-78781413D01*
X143380000Y-79174570D01*
X143380000Y-79575430D01*
X143458204Y-79968587D01*
X143611607Y-80338934D01*
X143834313Y-80672237D01*
X144117763Y-80955687D01*
X144145000Y-80973886D01*
X144145000Y-84126114D01*
X144117763Y-84144313D01*
X143834313Y-84427763D01*
X143611607Y-84761066D01*
X143458204Y-85131413D01*
X143380000Y-85524570D01*
X143380000Y-85925430D01*
X143458204Y-86318587D01*
X143611607Y-86688934D01*
X143834313Y-87022237D01*
X144117763Y-87305687D01*
X144145000Y-87323886D01*
X144145000Y-90476114D01*
X144117763Y-90494313D01*
X143834313Y-90777763D01*
X143611607Y-91111066D01*
X143458204Y-91481413D01*
X143380000Y-91874570D01*
X143380000Y-92275430D01*
X143458204Y-92668587D01*
X143611607Y-93038934D01*
X143834313Y-93372237D01*
X144117763Y-93655687D01*
X144145000Y-93673887D01*
X144145001Y-96826113D01*
X144117763Y-96844313D01*
X143834313Y-97127763D01*
X143611607Y-97461066D01*
X143458204Y-97831413D01*
X143380000Y-98224570D01*
X143380000Y-98625430D01*
X143458204Y-99018587D01*
X143611607Y-99388934D01*
X143834313Y-99722237D01*
X144117763Y-100005687D01*
X144145001Y-100023887D01*
X144145001Y-103176113D01*
X144117763Y-103194313D01*
X143834313Y-103477763D01*
X143611607Y-103811066D01*
X143458204Y-104181413D01*
X143380000Y-104574570D01*
X143380000Y-104975430D01*
X143458204Y-105368587D01*
X143611607Y-105738934D01*
X143834313Y-106072237D01*
X144117763Y-106355687D01*
X144145001Y-106373887D01*
X144145001Y-109526113D01*
X144117763Y-109544313D01*
X143834313Y-109827763D01*
X143611607Y-110161066D01*
X143458204Y-110531413D01*
X143380000Y-110924570D01*
X143380000Y-111325430D01*
X143458204Y-111718587D01*
X143611607Y-112088934D01*
X143834313Y-112422237D01*
X144117763Y-112705687D01*
X144145001Y-112723887D01*
X144145001Y-115876113D01*
X144117763Y-115894313D01*
X143834313Y-116177763D01*
X143611607Y-116511066D01*
X143458204Y-116881413D01*
X143380000Y-117274570D01*
X143380000Y-117675430D01*
X143458204Y-118068587D01*
X143611607Y-118438934D01*
X143834313Y-118772237D01*
X144117763Y-119055687D01*
X144145001Y-119073887D01*
X144145001Y-122226113D01*
X144117763Y-122244313D01*
X143834313Y-122527763D01*
X143611607Y-122861066D01*
X143458204Y-123231413D01*
X143380000Y-123624570D01*
X143380000Y-124025430D01*
X143458204Y-124418587D01*
X143611607Y-124788934D01*
X143834313Y-125122237D01*
X144117763Y-125405687D01*
X144451066Y-125628393D01*
X144821413Y-125781796D01*
X145214570Y-125860000D01*
X145615430Y-125860000D01*
X146008587Y-125781796D01*
X146378934Y-125628393D01*
X146712237Y-125405687D01*
X146995687Y-125122237D01*
X147218393Y-124788934D01*
X147371796Y-124418587D01*
X147450000Y-124025430D01*
X147450000Y-123624570D01*
X147371796Y-123231413D01*
X147218393Y-122861066D01*
X146995687Y-122527763D01*
X146712237Y-122244313D01*
X146685000Y-122226114D01*
X146685000Y-119073886D01*
X146712237Y-119055687D01*
X146995687Y-118772237D01*
X147218393Y-118438934D01*
X147371796Y-118068587D01*
X147450000Y-117675430D01*
X147450000Y-117274570D01*
X147371796Y-116881413D01*
X147265587Y-116625000D01*
X151546928Y-116625000D01*
X151546928Y-118325000D01*
X151559188Y-118449482D01*
X151595498Y-118569180D01*
X151654463Y-118679494D01*
X151733815Y-118776185D01*
X151830506Y-118855537D01*
X151940820Y-118914502D01*
X152060518Y-118950812D01*
X152185000Y-118963072D01*
X153885000Y-118963072D01*
X154009482Y-118950812D01*
X154129180Y-118914502D01*
X154239494Y-118855537D01*
X154336185Y-118776185D01*
X154415537Y-118679494D01*
X154474502Y-118569180D01*
X154510812Y-118449482D01*
X154523072Y-118325000D01*
X154523072Y-116625000D01*
X154510812Y-116500518D01*
X154474502Y-116380820D01*
X154415537Y-116270506D01*
X154336185Y-116173815D01*
X154239494Y-116094463D01*
X154129180Y-116035498D01*
X154051421Y-116011910D01*
X154214688Y-115836991D01*
X154367990Y-115589514D01*
X154440368Y-115414755D01*
X154336700Y-115189000D01*
X153289000Y-115189000D01*
X153289000Y-115209000D01*
X152781000Y-115209000D01*
X152781000Y-115189000D01*
X151733300Y-115189000D01*
X151629632Y-115414755D01*
X151702010Y-115589514D01*
X151855312Y-115836991D01*
X152018579Y-116011910D01*
X151940820Y-116035498D01*
X151830506Y-116094463D01*
X151733815Y-116173815D01*
X151654463Y-116270506D01*
X151595498Y-116380820D01*
X151559188Y-116500518D01*
X151546928Y-116625000D01*
X147265587Y-116625000D01*
X147218393Y-116511066D01*
X146995687Y-116177763D01*
X146712237Y-115894313D01*
X146685000Y-115876114D01*
X146685000Y-114455245D01*
X151629632Y-114455245D01*
X151733300Y-114681000D01*
X152781000Y-114681000D01*
X152781000Y-113630624D01*
X153289000Y-113630624D01*
X153289000Y-114681000D01*
X154336700Y-114681000D01*
X154440368Y-114455245D01*
X154367990Y-114280486D01*
X154214688Y-114033009D01*
X154016051Y-113820195D01*
X153779713Y-113650222D01*
X153514756Y-113529622D01*
X153289000Y-113630624D01*
X152781000Y-113630624D01*
X152555244Y-113529622D01*
X152290287Y-113650222D01*
X152053949Y-113820195D01*
X151855312Y-114033009D01*
X151702010Y-114280486D01*
X151629632Y-114455245D01*
X146685000Y-114455245D01*
X146685000Y-112723886D01*
X146712237Y-112705687D01*
X146995687Y-112422237D01*
X147218393Y-112088934D01*
X147371796Y-111718587D01*
X147450000Y-111325430D01*
X147450000Y-110924570D01*
X147371796Y-110531413D01*
X147218393Y-110161066D01*
X146995687Y-109827763D01*
X146712237Y-109544313D01*
X146685000Y-109526114D01*
X146685000Y-106373886D01*
X146712237Y-106355687D01*
X146995687Y-106072237D01*
X147218393Y-105738934D01*
X147371796Y-105368587D01*
X147450000Y-104975430D01*
X147450000Y-104574570D01*
X147371796Y-104181413D01*
X147218393Y-103811066D01*
X146995687Y-103477763D01*
X146712237Y-103194313D01*
X146685000Y-103176114D01*
X146685000Y-100023886D01*
X146712237Y-100005687D01*
X146995687Y-99722237D01*
X147218393Y-99388934D01*
X147371796Y-99018587D01*
X147450000Y-98625430D01*
X147450000Y-98224570D01*
X147371796Y-97831413D01*
X147218393Y-97461066D01*
X146995687Y-97127763D01*
X146712237Y-96844313D01*
X146685000Y-96826114D01*
X146685000Y-93673886D01*
X146712237Y-93655687D01*
X146995687Y-93372237D01*
X147218393Y-93038934D01*
X147371796Y-92668587D01*
X147450000Y-92275430D01*
X147450000Y-91874570D01*
X147371796Y-91481413D01*
X147218393Y-91111066D01*
X146995687Y-90777763D01*
X146712237Y-90494313D01*
X146685000Y-90476114D01*
X146685000Y-87323886D01*
X146712237Y-87305687D01*
X146995687Y-87022237D01*
X147218393Y-86688934D01*
X147371796Y-86318587D01*
X147450000Y-85925430D01*
X147450000Y-85524570D01*
X147371796Y-85131413D01*
X147218393Y-84761066D01*
X146995687Y-84427763D01*
X146712237Y-84144313D01*
X146685000Y-84126114D01*
X146685000Y-80973886D01*
X146712237Y-80955687D01*
X146995687Y-80672237D01*
X147218393Y-80338934D01*
X147371796Y-79968587D01*
X147450000Y-79575430D01*
X147450000Y-79174570D01*
X147371796Y-78781413D01*
X147218393Y-78411066D01*
X146995687Y-78077763D01*
X146712237Y-77794313D01*
X146685000Y-77776114D01*
X146685000Y-74623886D01*
X146712237Y-74605687D01*
X146995687Y-74322237D01*
X147218393Y-73988934D01*
X147371796Y-73618587D01*
X147450000Y-73225430D01*
X147450000Y-72824570D01*
X147371796Y-72431413D01*
X147218393Y-72061066D01*
X146995687Y-71727763D01*
X146712237Y-71444313D01*
X146685000Y-71426114D01*
X146685000Y-68273886D01*
X146712237Y-68255687D01*
X146995687Y-67972237D01*
X147218393Y-67638934D01*
X147371796Y-67268587D01*
X147450000Y-66875430D01*
X147450000Y-66474570D01*
X158620000Y-66474570D01*
X158620000Y-66875430D01*
X158698204Y-67268587D01*
X158851607Y-67638934D01*
X159074313Y-67972237D01*
X159357763Y-68255687D01*
X159385001Y-68273887D01*
X159385001Y-71426113D01*
X159357763Y-71444313D01*
X159074313Y-71727763D01*
X158851607Y-72061066D01*
X158698204Y-72431413D01*
X158620000Y-72824570D01*
X158620000Y-73225430D01*
X158698204Y-73618587D01*
X158851607Y-73988934D01*
X159074313Y-74322237D01*
X159357763Y-74605687D01*
X159385001Y-74623887D01*
X159385001Y-77776113D01*
X159357763Y-77794313D01*
X159074313Y-78077763D01*
X158851607Y-78411066D01*
X158698204Y-78781413D01*
X158620000Y-79174570D01*
X158620000Y-79575430D01*
X158698204Y-79968587D01*
X158851607Y-80338934D01*
X159074313Y-80672237D01*
X159357763Y-80955687D01*
X159385001Y-80973887D01*
X159385001Y-84126113D01*
X159357763Y-84144313D01*
X159074313Y-84427763D01*
X158851607Y-84761066D01*
X158698204Y-85131413D01*
X158620000Y-85524570D01*
X158620000Y-85925430D01*
X158698204Y-86318587D01*
X158851607Y-86688934D01*
X159074313Y-87022237D01*
X159357763Y-87305687D01*
X159385001Y-87323887D01*
X159385001Y-90476113D01*
X159357763Y-90494313D01*
X159074313Y-90777763D01*
X158851607Y-91111066D01*
X158698204Y-91481413D01*
X158620000Y-91874570D01*
X158620000Y-92275430D01*
X158698204Y-92668587D01*
X158851607Y-93038934D01*
X159074313Y-93372237D01*
X159357763Y-93655687D01*
X159385001Y-93673887D01*
X159385000Y-96826113D01*
X159357763Y-96844313D01*
X159074313Y-97127763D01*
X158851607Y-97461066D01*
X158698204Y-97831413D01*
X158620000Y-98224570D01*
X158620000Y-98625430D01*
X158698204Y-99018587D01*
X158851607Y-99388934D01*
X159074313Y-99722237D01*
X159357763Y-100005687D01*
X159385000Y-100023886D01*
X159385000Y-103176114D01*
X159357763Y-103194313D01*
X159074313Y-103477763D01*
X158851607Y-103811066D01*
X158698204Y-104181413D01*
X158620000Y-104574570D01*
X158620000Y-104975430D01*
X158698204Y-105368587D01*
X158851607Y-105738934D01*
X159074313Y-106072237D01*
X159357763Y-106355687D01*
X159385000Y-106373886D01*
X159385000Y-109526114D01*
X159357763Y-109544313D01*
X159074313Y-109827763D01*
X158851607Y-110161066D01*
X158698204Y-110531413D01*
X158620000Y-110924570D01*
X158620000Y-111325430D01*
X158698204Y-111718587D01*
X158851607Y-112088934D01*
X159074313Y-112422237D01*
X159357763Y-112705687D01*
X159385000Y-112723886D01*
X159385000Y-115876114D01*
X159357763Y-115894313D01*
X159074313Y-116177763D01*
X158851607Y-116511066D01*
X158698204Y-116881413D01*
X158620000Y-117274570D01*
X158620000Y-117675430D01*
X158698204Y-118068587D01*
X158851607Y-118438934D01*
X159074313Y-118772237D01*
X159357763Y-119055687D01*
X159385000Y-119073886D01*
X159385000Y-122226114D01*
X159357763Y-122244313D01*
X159074313Y-122527763D01*
X158851607Y-122861066D01*
X158698204Y-123231413D01*
X158620000Y-123624570D01*
X158620000Y-124025430D01*
X158698204Y-124418587D01*
X158851607Y-124788934D01*
X159074313Y-125122237D01*
X159357763Y-125405687D01*
X159691066Y-125628393D01*
X160061413Y-125781796D01*
X160454570Y-125860000D01*
X160855430Y-125860000D01*
X161248587Y-125781796D01*
X161618934Y-125628393D01*
X161952237Y-125405687D01*
X162235687Y-125122237D01*
X162458393Y-124788934D01*
X162611796Y-124418587D01*
X162690000Y-124025430D01*
X162690000Y-123624570D01*
X162611796Y-123231413D01*
X162458393Y-122861066D01*
X162235687Y-122527763D01*
X161952237Y-122244313D01*
X161925000Y-122226114D01*
X161925000Y-120524514D01*
X164782500Y-120524514D01*
X164782500Y-120775485D01*
X164805470Y-121008703D01*
X164896245Y-121307948D01*
X165043655Y-121583734D01*
X165242037Y-121825463D01*
X165483765Y-122023845D01*
X165759551Y-122171255D01*
X166058796Y-122262030D01*
X166370000Y-122292681D01*
X166471001Y-122282733D01*
X166471001Y-122459250D01*
X166466614Y-122461595D01*
X166332038Y-122572038D01*
X166221595Y-122706614D01*
X166139528Y-122860150D01*
X166088992Y-123026746D01*
X166071928Y-123200000D01*
X166071928Y-124450000D01*
X166088992Y-124623254D01*
X166139528Y-124789850D01*
X166221595Y-124943386D01*
X166332038Y-125077962D01*
X166466614Y-125188405D01*
X166620150Y-125270472D01*
X166786746Y-125321008D01*
X166960000Y-125338072D01*
X167760000Y-125338072D01*
X167933254Y-125321008D01*
X168099850Y-125270472D01*
X168253386Y-125188405D01*
X168387962Y-125077962D01*
X168498405Y-124943386D01*
X168580472Y-124789850D01*
X168631008Y-124623254D01*
X168648072Y-124450000D01*
X168648072Y-123200000D01*
X168631008Y-123026746D01*
X168580472Y-122860150D01*
X168498405Y-122706614D01*
X168387962Y-122572038D01*
X168253386Y-122461595D01*
X168249000Y-122459251D01*
X168249000Y-122144235D01*
X168299551Y-122171255D01*
X168598796Y-122262030D01*
X168910000Y-122292681D01*
X169221203Y-122262030D01*
X169520448Y-122171255D01*
X169571001Y-122144234D01*
X169571001Y-122459250D01*
X169566614Y-122461595D01*
X169432038Y-122572038D01*
X169321595Y-122706614D01*
X169239528Y-122860150D01*
X169188992Y-123026746D01*
X169171928Y-123200000D01*
X169171928Y-124450000D01*
X169188992Y-124623254D01*
X169239528Y-124789850D01*
X169321595Y-124943386D01*
X169432038Y-125077962D01*
X169566614Y-125188405D01*
X169720150Y-125270472D01*
X169886746Y-125321008D01*
X170060000Y-125338072D01*
X170860000Y-125338072D01*
X171033254Y-125321008D01*
X171199850Y-125270472D01*
X171353386Y-125188405D01*
X171487962Y-125077962D01*
X171598405Y-124943386D01*
X171680472Y-124789850D01*
X171731008Y-124623254D01*
X171748072Y-124450000D01*
X171748072Y-123200000D01*
X171731008Y-123026746D01*
X171680472Y-122860150D01*
X171598405Y-122706614D01*
X171487962Y-122572038D01*
X171353386Y-122461595D01*
X171349000Y-122459251D01*
X171349000Y-122288072D01*
X172402500Y-122288072D01*
X172526982Y-122275812D01*
X172646680Y-122239502D01*
X172756994Y-122180537D01*
X172853685Y-122101185D01*
X172933037Y-122004494D01*
X172992002Y-121894180D01*
X173028312Y-121774482D01*
X173040572Y-121650000D01*
X173040572Y-119650000D01*
X173028312Y-119525518D01*
X172992002Y-119405820D01*
X172933037Y-119295506D01*
X172853685Y-119198815D01*
X172756994Y-119119463D01*
X172646680Y-119060498D01*
X172526982Y-119024188D01*
X172402500Y-119011928D01*
X170497500Y-119011928D01*
X170373018Y-119024188D01*
X170253320Y-119060498D01*
X170143006Y-119119463D01*
X170046315Y-119198815D01*
X169966963Y-119295506D01*
X169922095Y-119379446D01*
X169796235Y-119276155D01*
X169520449Y-119128745D01*
X169221204Y-119037970D01*
X168910000Y-119007319D01*
X168598797Y-119037970D01*
X168299552Y-119128745D01*
X168023766Y-119276155D01*
X167782037Y-119474537D01*
X167640000Y-119647609D01*
X167497963Y-119474537D01*
X167256235Y-119276155D01*
X166980449Y-119128745D01*
X166681204Y-119037970D01*
X166370000Y-119007319D01*
X166058797Y-119037970D01*
X165759552Y-119128745D01*
X165483766Y-119276155D01*
X165242037Y-119474537D01*
X165043655Y-119716265D01*
X164896245Y-119992051D01*
X164805470Y-120291296D01*
X164782500Y-120524514D01*
X161925000Y-120524514D01*
X161925000Y-119073886D01*
X161952237Y-119055687D01*
X162235687Y-118772237D01*
X162458393Y-118438934D01*
X162611796Y-118068587D01*
X162690000Y-117675430D01*
X162690000Y-117274570D01*
X162611796Y-116881413D01*
X162458393Y-116511066D01*
X162235687Y-116177763D01*
X161952237Y-115894313D01*
X161925000Y-115876114D01*
X161925000Y-112801444D01*
X164290766Y-112801444D01*
X164367001Y-113026216D01*
X164625671Y-113120111D01*
X164897690Y-113161737D01*
X165172602Y-113149495D01*
X165439843Y-113083855D01*
X165578999Y-113026216D01*
X165655234Y-112801444D01*
X164973000Y-112119210D01*
X164290766Y-112801444D01*
X161925000Y-112801444D01*
X161925000Y-112723886D01*
X161952237Y-112705687D01*
X162235687Y-112422237D01*
X162458393Y-112088934D01*
X162611796Y-111718587D01*
X162618538Y-111684690D01*
X163571263Y-111684690D01*
X163583505Y-111959602D01*
X163649145Y-112226843D01*
X163706784Y-112365999D01*
X163931556Y-112442234D01*
X164613790Y-111760000D01*
X165332210Y-111760000D01*
X166014444Y-112442234D01*
X166239216Y-112365999D01*
X166333111Y-112107329D01*
X166374737Y-111835310D01*
X166362495Y-111560398D01*
X166296855Y-111293157D01*
X166239216Y-111154001D01*
X166014444Y-111077766D01*
X165332210Y-111760000D01*
X164613790Y-111760000D01*
X163931556Y-111077766D01*
X163706784Y-111154001D01*
X163612889Y-111412671D01*
X163571263Y-111684690D01*
X162618538Y-111684690D01*
X162690000Y-111325430D01*
X162690000Y-110924570D01*
X162611796Y-110531413D01*
X162499971Y-110261444D01*
X164290766Y-110261444D01*
X164367001Y-110486216D01*
X164376739Y-110489751D01*
X164367001Y-110493784D01*
X164290766Y-110718556D01*
X164973000Y-111400790D01*
X165655234Y-110718556D01*
X165578999Y-110493784D01*
X165569261Y-110490249D01*
X165578999Y-110486216D01*
X165655234Y-110261444D01*
X164973000Y-109579210D01*
X164290766Y-110261444D01*
X162499971Y-110261444D01*
X162458393Y-110161066D01*
X162235687Y-109827763D01*
X161952237Y-109544313D01*
X161925000Y-109526114D01*
X161925000Y-109144690D01*
X163571263Y-109144690D01*
X163583505Y-109419602D01*
X163649145Y-109686843D01*
X163706784Y-109825999D01*
X163931556Y-109902234D01*
X164613790Y-109220000D01*
X165332210Y-109220000D01*
X166014444Y-109902234D01*
X166239216Y-109825999D01*
X166333111Y-109567329D01*
X166374737Y-109295310D01*
X166362495Y-109020398D01*
X166296855Y-108753157D01*
X166239216Y-108614001D01*
X166014444Y-108537766D01*
X165332210Y-109220000D01*
X164613790Y-109220000D01*
X163931556Y-108537766D01*
X163706784Y-108614001D01*
X163612889Y-108872671D01*
X163571263Y-109144690D01*
X161925000Y-109144690D01*
X161925000Y-106373886D01*
X161952237Y-106355687D01*
X162235687Y-106072237D01*
X162458393Y-105738934D01*
X162611796Y-105368587D01*
X162690000Y-104975430D01*
X162690000Y-104574570D01*
X162611796Y-104181413D01*
X162537650Y-104002408D01*
X163576000Y-104002408D01*
X163576000Y-104277592D01*
X163629686Y-104547490D01*
X163734995Y-104801727D01*
X163887880Y-105030535D01*
X164082465Y-105225120D01*
X164311273Y-105378005D01*
X164388515Y-105410000D01*
X164311273Y-105441995D01*
X164082465Y-105594880D01*
X163887880Y-105789465D01*
X163734995Y-106018273D01*
X163629686Y-106272510D01*
X163576000Y-106542408D01*
X163576000Y-106817592D01*
X163629686Y-107087490D01*
X163734995Y-107341727D01*
X163887880Y-107570535D01*
X164082465Y-107765120D01*
X164311273Y-107918005D01*
X164382326Y-107947436D01*
X164367001Y-107953784D01*
X164290766Y-108178556D01*
X164973000Y-108860790D01*
X165655234Y-108178556D01*
X165578999Y-107953784D01*
X165562664Y-107947855D01*
X165634727Y-107918005D01*
X165863535Y-107765120D01*
X166058120Y-107570535D01*
X166211005Y-107341727D01*
X166316314Y-107087490D01*
X166370000Y-106817592D01*
X166370000Y-106542408D01*
X166316314Y-106272510D01*
X166211005Y-106018273D01*
X166058120Y-105789465D01*
X165863535Y-105594880D01*
X165634727Y-105441995D01*
X165557485Y-105410000D01*
X165634727Y-105378005D01*
X165863535Y-105225120D01*
X166058120Y-105030535D01*
X166211005Y-104801727D01*
X166316314Y-104547490D01*
X166370000Y-104277592D01*
X166370000Y-104002408D01*
X171196000Y-104002408D01*
X171196000Y-104277592D01*
X171249686Y-104547490D01*
X171354995Y-104801727D01*
X171507880Y-105030535D01*
X171702465Y-105225120D01*
X171931273Y-105378005D01*
X172008515Y-105410000D01*
X171931273Y-105441995D01*
X171702465Y-105594880D01*
X171507880Y-105789465D01*
X171354995Y-106018273D01*
X171249686Y-106272510D01*
X171196000Y-106542408D01*
X171196000Y-106817592D01*
X171249686Y-107087490D01*
X171354995Y-107341727D01*
X171507880Y-107570535D01*
X171702465Y-107765120D01*
X171931273Y-107918005D01*
X172008515Y-107950000D01*
X171931273Y-107981995D01*
X171702465Y-108134880D01*
X171507880Y-108329465D01*
X171354995Y-108558273D01*
X171249686Y-108812510D01*
X171196000Y-109082408D01*
X171196000Y-109357592D01*
X171249686Y-109627490D01*
X171354995Y-109881727D01*
X171507880Y-110110535D01*
X171702465Y-110305120D01*
X171931273Y-110458005D01*
X172008515Y-110490000D01*
X171931273Y-110521995D01*
X171702465Y-110674880D01*
X171507880Y-110869465D01*
X171354995Y-111098273D01*
X171249686Y-111352510D01*
X171196000Y-111622408D01*
X171196000Y-111897592D01*
X171249686Y-112167490D01*
X171354995Y-112421727D01*
X171507880Y-112650535D01*
X171702465Y-112845120D01*
X171931273Y-112998005D01*
X172185510Y-113103314D01*
X172455408Y-113157000D01*
X172730592Y-113157000D01*
X173000490Y-113103314D01*
X173254727Y-112998005D01*
X173483535Y-112845120D01*
X173678120Y-112650535D01*
X173831005Y-112421727D01*
X173936314Y-112167490D01*
X173990000Y-111897592D01*
X173990000Y-111622408D01*
X173936314Y-111352510D01*
X173831005Y-111098273D01*
X173678120Y-110869465D01*
X173483535Y-110674880D01*
X173254727Y-110521995D01*
X173177485Y-110490000D01*
X173254727Y-110458005D01*
X173483535Y-110305120D01*
X173678120Y-110110535D01*
X173831005Y-109881727D01*
X173936314Y-109627490D01*
X173990000Y-109357592D01*
X173990000Y-109082408D01*
X173936314Y-108812510D01*
X173831005Y-108558273D01*
X173678120Y-108329465D01*
X173483535Y-108134880D01*
X173254727Y-107981995D01*
X173177485Y-107950000D01*
X173254727Y-107918005D01*
X173483535Y-107765120D01*
X173678120Y-107570535D01*
X173831005Y-107341727D01*
X173936314Y-107087490D01*
X173990000Y-106817592D01*
X173990000Y-106542408D01*
X173936314Y-106272510D01*
X173831005Y-106018273D01*
X173678120Y-105789465D01*
X173483535Y-105594880D01*
X173254727Y-105441995D01*
X173177485Y-105410000D01*
X173254727Y-105378005D01*
X173483535Y-105225120D01*
X173678120Y-105030535D01*
X173831005Y-104801727D01*
X173936314Y-104547490D01*
X173990000Y-104277592D01*
X173990000Y-104002408D01*
X173936314Y-103732510D01*
X173831005Y-103478273D01*
X173678120Y-103249465D01*
X173483535Y-103054880D01*
X173254727Y-102901995D01*
X173000490Y-102796686D01*
X172730592Y-102743000D01*
X172455408Y-102743000D01*
X172185510Y-102796686D01*
X171931273Y-102901995D01*
X171702465Y-103054880D01*
X171507880Y-103249465D01*
X171354995Y-103478273D01*
X171249686Y-103732510D01*
X171196000Y-104002408D01*
X166370000Y-104002408D01*
X166316314Y-103732510D01*
X166211005Y-103478273D01*
X166058120Y-103249465D01*
X165863535Y-103054880D01*
X165634727Y-102901995D01*
X165380490Y-102796686D01*
X165110592Y-102743000D01*
X164835408Y-102743000D01*
X164565510Y-102796686D01*
X164311273Y-102901995D01*
X164082465Y-103054880D01*
X163887880Y-103249465D01*
X163734995Y-103478273D01*
X163629686Y-103732510D01*
X163576000Y-104002408D01*
X162537650Y-104002408D01*
X162458393Y-103811066D01*
X162235687Y-103477763D01*
X161952237Y-103194313D01*
X161925000Y-103176114D01*
X161925000Y-100023886D01*
X161952237Y-100005687D01*
X162235687Y-99722237D01*
X162458393Y-99388934D01*
X162611796Y-99018587D01*
X162690000Y-98625430D01*
X162690000Y-98224570D01*
X162611796Y-97831413D01*
X162458393Y-97461066D01*
X162235687Y-97127763D01*
X161952237Y-96844313D01*
X161925000Y-96826114D01*
X161925000Y-93673886D01*
X161952237Y-93655687D01*
X162235687Y-93372237D01*
X162458393Y-93038934D01*
X162611796Y-92668587D01*
X162690000Y-92275430D01*
X162690000Y-91874570D01*
X162611796Y-91481413D01*
X162458393Y-91111066D01*
X162235687Y-90777763D01*
X162107679Y-90649755D01*
X164329632Y-90649755D01*
X164402010Y-90824514D01*
X164555312Y-91071991D01*
X164753949Y-91284805D01*
X164990287Y-91454778D01*
X165255244Y-91575378D01*
X165481000Y-91474376D01*
X165481000Y-90424000D01*
X165989000Y-90424000D01*
X165989000Y-91474376D01*
X166214756Y-91575378D01*
X166479713Y-91454778D01*
X166716051Y-91284805D01*
X166784524Y-91211444D01*
X168989766Y-91211444D01*
X169066001Y-91436216D01*
X169324671Y-91530111D01*
X169596690Y-91571737D01*
X169871602Y-91559495D01*
X170138843Y-91493855D01*
X170277999Y-91436216D01*
X170354234Y-91211444D01*
X169672000Y-90529210D01*
X168989766Y-91211444D01*
X166784524Y-91211444D01*
X166914688Y-91071991D01*
X167067990Y-90824514D01*
X167140368Y-90649755D01*
X167036700Y-90424000D01*
X165989000Y-90424000D01*
X165481000Y-90424000D01*
X164433300Y-90424000D01*
X164329632Y-90649755D01*
X162107679Y-90649755D01*
X161952237Y-90494313D01*
X161925000Y-90476114D01*
X161925000Y-90094690D01*
X168270263Y-90094690D01*
X168282505Y-90369602D01*
X168348145Y-90636843D01*
X168405784Y-90775999D01*
X168630556Y-90852234D01*
X169312790Y-90170000D01*
X170031210Y-90170000D01*
X170713444Y-90852234D01*
X170938216Y-90775999D01*
X171032111Y-90517329D01*
X171073737Y-90245310D01*
X171061495Y-89970398D01*
X170995855Y-89703157D01*
X170938216Y-89564001D01*
X170713444Y-89487766D01*
X170031210Y-90170000D01*
X169312790Y-90170000D01*
X168630556Y-89487766D01*
X168405784Y-89564001D01*
X168311889Y-89822671D01*
X168270263Y-90094690D01*
X161925000Y-90094690D01*
X161925000Y-87323886D01*
X161952237Y-87305687D01*
X162235687Y-87022237D01*
X162458393Y-86688934D01*
X162611796Y-86318587D01*
X162690000Y-85925430D01*
X162690000Y-85524570D01*
X162611796Y-85131413D01*
X162458393Y-84761066D01*
X162235687Y-84427763D01*
X162047924Y-84240000D01*
X164246928Y-84240000D01*
X164246928Y-85940000D01*
X164259188Y-86064482D01*
X164295498Y-86184180D01*
X164354463Y-86294494D01*
X164433815Y-86391185D01*
X164530506Y-86470537D01*
X164640820Y-86529502D01*
X164713380Y-86551513D01*
X164581525Y-86683368D01*
X164419010Y-86926589D01*
X164307068Y-87196842D01*
X164250000Y-87483740D01*
X164250000Y-87776260D01*
X164307068Y-88063158D01*
X164419010Y-88333411D01*
X164581525Y-88576632D01*
X164788368Y-88783475D01*
X164966378Y-88902417D01*
X164753949Y-89055195D01*
X164555312Y-89268009D01*
X164402010Y-89515486D01*
X164329632Y-89690245D01*
X164433300Y-89916000D01*
X165481000Y-89916000D01*
X165481000Y-89896000D01*
X165989000Y-89896000D01*
X165989000Y-89916000D01*
X167036700Y-89916000D01*
X167140368Y-89690245D01*
X167067990Y-89515486D01*
X166914688Y-89268009D01*
X166716051Y-89055195D01*
X166503622Y-88902417D01*
X166681632Y-88783475D01*
X166888475Y-88576632D01*
X167050990Y-88333411D01*
X167162932Y-88063158D01*
X167220000Y-87776260D01*
X167220000Y-87483740D01*
X167162932Y-87196842D01*
X167050990Y-86926589D01*
X166888475Y-86683368D01*
X166756620Y-86551513D01*
X166829180Y-86529502D01*
X166939494Y-86470537D01*
X167036185Y-86391185D01*
X167115537Y-86294494D01*
X167174502Y-86184180D01*
X167210812Y-86064482D01*
X167223072Y-85940000D01*
X167223072Y-84240000D01*
X167210812Y-84115518D01*
X167174502Y-83995820D01*
X167115537Y-83885506D01*
X167036185Y-83788815D01*
X166939494Y-83709463D01*
X166829180Y-83650498D01*
X166709482Y-83614188D01*
X166585000Y-83601928D01*
X164885000Y-83601928D01*
X164760518Y-83614188D01*
X164640820Y-83650498D01*
X164530506Y-83709463D01*
X164433815Y-83788815D01*
X164354463Y-83885506D01*
X164295498Y-83995820D01*
X164259188Y-84115518D01*
X164246928Y-84240000D01*
X162047924Y-84240000D01*
X161952237Y-84144313D01*
X161925000Y-84126114D01*
X161925000Y-82412408D01*
X168275000Y-82412408D01*
X168275000Y-82687592D01*
X168328686Y-82957490D01*
X168433995Y-83211727D01*
X168586880Y-83440535D01*
X168781465Y-83635120D01*
X169010273Y-83788005D01*
X169087515Y-83820000D01*
X169010273Y-83851995D01*
X168781465Y-84004880D01*
X168586880Y-84199465D01*
X168433995Y-84428273D01*
X168328686Y-84682510D01*
X168275000Y-84952408D01*
X168275000Y-85227592D01*
X168328686Y-85497490D01*
X168433995Y-85751727D01*
X168586880Y-85980535D01*
X168781465Y-86175120D01*
X169010273Y-86328005D01*
X169087515Y-86360000D01*
X169010273Y-86391995D01*
X168781465Y-86544880D01*
X168586880Y-86739465D01*
X168433995Y-86968273D01*
X168328686Y-87222510D01*
X168275000Y-87492408D01*
X168275000Y-87767592D01*
X168328686Y-88037490D01*
X168433995Y-88291727D01*
X168586880Y-88520535D01*
X168781465Y-88715120D01*
X169010273Y-88868005D01*
X169081326Y-88897436D01*
X169066001Y-88903784D01*
X168989766Y-89128556D01*
X169672000Y-89810790D01*
X170354234Y-89128556D01*
X170277999Y-88903784D01*
X170261664Y-88897855D01*
X170333727Y-88868005D01*
X170562535Y-88715120D01*
X170757120Y-88520535D01*
X170910005Y-88291727D01*
X171015314Y-88037490D01*
X171069000Y-87767592D01*
X171069000Y-87492408D01*
X171015314Y-87222510D01*
X170910005Y-86968273D01*
X170757120Y-86739465D01*
X170562535Y-86544880D01*
X170333727Y-86391995D01*
X170256485Y-86360000D01*
X170333727Y-86328005D01*
X170562535Y-86175120D01*
X170757120Y-85980535D01*
X170910005Y-85751727D01*
X171015314Y-85497490D01*
X171069000Y-85227592D01*
X171069000Y-84952408D01*
X171015314Y-84682510D01*
X170910005Y-84428273D01*
X170757120Y-84199465D01*
X170562535Y-84004880D01*
X170333727Y-83851995D01*
X170256485Y-83820000D01*
X170333727Y-83788005D01*
X170562535Y-83635120D01*
X170757120Y-83440535D01*
X170910005Y-83211727D01*
X171015314Y-82957490D01*
X171069000Y-82687592D01*
X171069000Y-82412408D01*
X175895000Y-82412408D01*
X175895000Y-82687592D01*
X175948686Y-82957490D01*
X176053995Y-83211727D01*
X176206880Y-83440535D01*
X176401465Y-83635120D01*
X176630273Y-83788005D01*
X176707515Y-83820000D01*
X176630273Y-83851995D01*
X176401465Y-84004880D01*
X176206880Y-84199465D01*
X176053995Y-84428273D01*
X175948686Y-84682510D01*
X175895000Y-84952408D01*
X175895000Y-85227592D01*
X175948686Y-85497490D01*
X176053995Y-85751727D01*
X176206880Y-85980535D01*
X176401465Y-86175120D01*
X176630273Y-86328005D01*
X176707515Y-86360000D01*
X176630273Y-86391995D01*
X176401465Y-86544880D01*
X176206880Y-86739465D01*
X176053995Y-86968273D01*
X175948686Y-87222510D01*
X175895000Y-87492408D01*
X175895000Y-87767592D01*
X175948686Y-88037490D01*
X176053995Y-88291727D01*
X176206880Y-88520535D01*
X176401465Y-88715120D01*
X176630273Y-88868005D01*
X176707515Y-88900000D01*
X176630273Y-88931995D01*
X176401465Y-89084880D01*
X176206880Y-89279465D01*
X176053995Y-89508273D01*
X175948686Y-89762510D01*
X175895000Y-90032408D01*
X175895000Y-90307592D01*
X175948686Y-90577490D01*
X176053995Y-90831727D01*
X176206880Y-91060535D01*
X176401465Y-91255120D01*
X176630273Y-91408005D01*
X176884510Y-91513314D01*
X177154408Y-91567000D01*
X177429592Y-91567000D01*
X177699490Y-91513314D01*
X177953727Y-91408005D01*
X178182535Y-91255120D01*
X178377120Y-91060535D01*
X178530005Y-90831727D01*
X178635314Y-90577490D01*
X178689000Y-90307592D01*
X178689000Y-90032408D01*
X178635314Y-89762510D01*
X178530005Y-89508273D01*
X178377120Y-89279465D01*
X178182535Y-89084880D01*
X177953727Y-88931995D01*
X177876485Y-88900000D01*
X177953727Y-88868005D01*
X178182535Y-88715120D01*
X178377120Y-88520535D01*
X178530005Y-88291727D01*
X178635314Y-88037490D01*
X178689000Y-87767592D01*
X178689000Y-87492408D01*
X178635314Y-87222510D01*
X178530005Y-86968273D01*
X178377120Y-86739465D01*
X178182535Y-86544880D01*
X177953727Y-86391995D01*
X177876485Y-86360000D01*
X177953727Y-86328005D01*
X178182535Y-86175120D01*
X178377120Y-85980535D01*
X178530005Y-85751727D01*
X178635314Y-85497490D01*
X178689000Y-85227592D01*
X178689000Y-84952408D01*
X178635314Y-84682510D01*
X178530005Y-84428273D01*
X178377120Y-84199465D01*
X178182535Y-84004880D01*
X177953727Y-83851995D01*
X177876485Y-83820000D01*
X177953727Y-83788005D01*
X178182535Y-83635120D01*
X178377120Y-83440535D01*
X178530005Y-83211727D01*
X178635314Y-82957490D01*
X178689000Y-82687592D01*
X178689000Y-82412408D01*
X178635314Y-82142510D01*
X178530005Y-81888273D01*
X178377120Y-81659465D01*
X178182535Y-81464880D01*
X177953727Y-81311995D01*
X177699490Y-81206686D01*
X177429592Y-81153000D01*
X177154408Y-81153000D01*
X176884510Y-81206686D01*
X176630273Y-81311995D01*
X176401465Y-81464880D01*
X176206880Y-81659465D01*
X176053995Y-81888273D01*
X175948686Y-82142510D01*
X175895000Y-82412408D01*
X171069000Y-82412408D01*
X171015314Y-82142510D01*
X170910005Y-81888273D01*
X170757120Y-81659465D01*
X170562535Y-81464880D01*
X170333727Y-81311995D01*
X170079490Y-81206686D01*
X169809592Y-81153000D01*
X169534408Y-81153000D01*
X169264510Y-81206686D01*
X169010273Y-81311995D01*
X168781465Y-81464880D01*
X168586880Y-81659465D01*
X168433995Y-81888273D01*
X168328686Y-82142510D01*
X168275000Y-82412408D01*
X161925000Y-82412408D01*
X161925000Y-80973886D01*
X161952237Y-80955687D01*
X162235687Y-80672237D01*
X162458393Y-80338934D01*
X162611796Y-79968587D01*
X162690000Y-79575430D01*
X162690000Y-79174570D01*
X162611796Y-78781413D01*
X162458393Y-78411066D01*
X162235687Y-78077763D01*
X161952237Y-77794313D01*
X161925000Y-77776114D01*
X161925000Y-74623886D01*
X161952237Y-74605687D01*
X162235687Y-74322237D01*
X162458393Y-73988934D01*
X162611796Y-73618587D01*
X162690000Y-73225430D01*
X162690000Y-72824570D01*
X162611796Y-72431413D01*
X162458393Y-72061066D01*
X162349436Y-71898000D01*
X172399428Y-71898000D01*
X172399428Y-73898000D01*
X172411688Y-74022482D01*
X172447998Y-74142180D01*
X172506963Y-74252494D01*
X172586315Y-74349185D01*
X172683006Y-74428537D01*
X172793320Y-74487502D01*
X172913018Y-74523812D01*
X173037500Y-74536072D01*
X174942500Y-74536072D01*
X175066982Y-74523812D01*
X175186680Y-74487502D01*
X175296994Y-74428537D01*
X175393685Y-74349185D01*
X175473037Y-74252494D01*
X175517905Y-74168553D01*
X175643766Y-74271845D01*
X175919552Y-74419255D01*
X176218797Y-74510030D01*
X176530000Y-74540681D01*
X176841204Y-74510030D01*
X177140449Y-74419255D01*
X177416235Y-74271845D01*
X177657963Y-74073463D01*
X177800000Y-73900391D01*
X177942037Y-74073463D01*
X178183766Y-74271845D01*
X178459552Y-74419255D01*
X178758797Y-74510030D01*
X179070000Y-74540681D01*
X179381204Y-74510030D01*
X179680449Y-74419255D01*
X179956235Y-74271845D01*
X180197963Y-74073463D01*
X180396345Y-73831734D01*
X180543755Y-73555948D01*
X180634530Y-73256703D01*
X180657500Y-73023485D01*
X180657500Y-72772514D01*
X180634530Y-72539296D01*
X180543755Y-72240051D01*
X180396345Y-71964265D01*
X180197963Y-71722537D01*
X179956234Y-71524155D01*
X179680448Y-71376745D01*
X179381203Y-71285970D01*
X179070000Y-71255319D01*
X178758796Y-71285970D01*
X178459551Y-71376745D01*
X178183765Y-71524155D01*
X177942037Y-71722537D01*
X177800000Y-71895609D01*
X177657963Y-71722537D01*
X177416234Y-71524155D01*
X177140448Y-71376745D01*
X176841203Y-71285970D01*
X176530000Y-71255319D01*
X176218796Y-71285970D01*
X175919551Y-71376745D01*
X175643765Y-71524155D01*
X175517905Y-71627446D01*
X175473037Y-71543506D01*
X175393685Y-71446815D01*
X175296994Y-71367463D01*
X175186680Y-71308498D01*
X175066982Y-71272188D01*
X174942500Y-71259928D01*
X173037500Y-71259928D01*
X172913018Y-71272188D01*
X172793320Y-71308498D01*
X172683006Y-71367463D01*
X172586315Y-71446815D01*
X172506963Y-71543506D01*
X172447998Y-71653820D01*
X172411688Y-71773518D01*
X172399428Y-71898000D01*
X162349436Y-71898000D01*
X162235687Y-71727763D01*
X161952237Y-71444313D01*
X161925000Y-71426114D01*
X161925000Y-68273886D01*
X161952237Y-68255687D01*
X162235687Y-67972237D01*
X162458393Y-67638934D01*
X162611796Y-67268587D01*
X162690000Y-66875430D01*
X162690000Y-66474570D01*
X162611796Y-66081413D01*
X162458393Y-65711066D01*
X162235687Y-65377763D01*
X161952237Y-65094313D01*
X161618934Y-64871607D01*
X161248587Y-64718204D01*
X160855430Y-64640000D01*
X160454570Y-64640000D01*
X160061413Y-64718204D01*
X159691066Y-64871607D01*
X159357763Y-65094313D01*
X159074313Y-65377763D01*
X158851607Y-65711066D01*
X158698204Y-66081413D01*
X158620000Y-66474570D01*
X147450000Y-66474570D01*
X147371796Y-66081413D01*
X147218393Y-65711066D01*
X146995687Y-65377763D01*
X146712237Y-65094313D01*
X146378934Y-64871607D01*
X146008587Y-64718204D01*
X145615430Y-64640000D01*
X145214570Y-64640000D01*
X144821413Y-64718204D01*
X144451066Y-64871607D01*
X144117763Y-65094313D01*
X143834313Y-65377763D01*
X143611607Y-65711066D01*
X143458204Y-66081413D01*
X143380000Y-66474570D01*
X139827000Y-66474570D01*
X139827000Y-64262000D01*
X182118000Y-64262000D01*
X182118000Y-77417394D01*
%TA.AperFunction,Conductor*%
D26*
G36*
X182118000Y-77417394D02*
G01*
X180250197Y-79285197D01*
X180234403Y-79304443D01*
X180222667Y-79326399D01*
X180215440Y-79350224D01*
X180213000Y-79375000D01*
X180213000Y-93292394D01*
X175170197Y-98335197D01*
X175154403Y-98354443D01*
X175142667Y-98376399D01*
X175135440Y-98400224D01*
X175133000Y-98425000D01*
X175133000Y-126238000D01*
X139827000Y-126238000D01*
X139827000Y-109005000D01*
X140116928Y-109005000D01*
X140116928Y-110705000D01*
X140129188Y-110829482D01*
X140165498Y-110949180D01*
X140224463Y-111059494D01*
X140303815Y-111156185D01*
X140400506Y-111235537D01*
X140510820Y-111294502D01*
X140630518Y-111330812D01*
X140755000Y-111343072D01*
X142455000Y-111343072D01*
X142579482Y-111330812D01*
X142699180Y-111294502D01*
X142809494Y-111235537D01*
X142906185Y-111156185D01*
X142985537Y-111059494D01*
X143044502Y-110949180D01*
X143080812Y-110829482D01*
X143093072Y-110705000D01*
X143093072Y-109005000D01*
X143080812Y-108880518D01*
X143044502Y-108760820D01*
X142985537Y-108650506D01*
X142906185Y-108553815D01*
X142809494Y-108474463D01*
X142699180Y-108415498D01*
X142621421Y-108391910D01*
X142784688Y-108216991D01*
X142937990Y-107969514D01*
X143010368Y-107794755D01*
X142906700Y-107569000D01*
X141859000Y-107569000D01*
X141859000Y-107589000D01*
X141351000Y-107589000D01*
X141351000Y-107569000D01*
X140303300Y-107569000D01*
X140199632Y-107794755D01*
X140272010Y-107969514D01*
X140425312Y-108216991D01*
X140588579Y-108391910D01*
X140510820Y-108415498D01*
X140400506Y-108474463D01*
X140303815Y-108553815D01*
X140224463Y-108650506D01*
X140165498Y-108760820D01*
X140129188Y-108880518D01*
X140116928Y-109005000D01*
X139827000Y-109005000D01*
X139827000Y-106835245D01*
X140199632Y-106835245D01*
X140303300Y-107061000D01*
X141351000Y-107061000D01*
X141351000Y-106010624D01*
X141859000Y-106010624D01*
X141859000Y-107061000D01*
X142906700Y-107061000D01*
X143010368Y-106835245D01*
X142937990Y-106660486D01*
X142784688Y-106413009D01*
X142586051Y-106200195D01*
X142349713Y-106030222D01*
X142084756Y-105909622D01*
X141859000Y-106010624D01*
X141351000Y-106010624D01*
X141125244Y-105909622D01*
X140860287Y-106030222D01*
X140623949Y-106200195D01*
X140425312Y-106413009D01*
X140272010Y-106660486D01*
X140199632Y-106835245D01*
X139827000Y-106835245D01*
X139827000Y-66474570D01*
X143380000Y-66474570D01*
X143380000Y-66875430D01*
X143458204Y-67268587D01*
X143611607Y-67638934D01*
X143834313Y-67972237D01*
X144117763Y-68255687D01*
X144145000Y-68273886D01*
X144145000Y-71426114D01*
X144117763Y-71444313D01*
X143834313Y-71727763D01*
X143611607Y-72061066D01*
X143458204Y-72431413D01*
X143380000Y-72824570D01*
X143380000Y-73225430D01*
X143458204Y-73618587D01*
X143611607Y-73988934D01*
X143834313Y-74322237D01*
X144117763Y-74605687D01*
X144145000Y-74623886D01*
X144145000Y-77776114D01*
X144117763Y-77794313D01*
X143834313Y-78077763D01*
X143611607Y-78411066D01*
X143458204Y-78781413D01*
X143380000Y-79174570D01*
X143380000Y-79575430D01*
X143458204Y-79968587D01*
X143611607Y-80338934D01*
X143834313Y-80672237D01*
X144117763Y-80955687D01*
X144145000Y-80973886D01*
X144145000Y-84126114D01*
X144117763Y-84144313D01*
X143834313Y-84427763D01*
X143611607Y-84761066D01*
X143458204Y-85131413D01*
X143380000Y-85524570D01*
X143380000Y-85925430D01*
X143458204Y-86318587D01*
X143611607Y-86688934D01*
X143834313Y-87022237D01*
X144117763Y-87305687D01*
X144145000Y-87323886D01*
X144145000Y-90476114D01*
X144117763Y-90494313D01*
X143834313Y-90777763D01*
X143611607Y-91111066D01*
X143458204Y-91481413D01*
X143380000Y-91874570D01*
X143380000Y-92275430D01*
X143458204Y-92668587D01*
X143611607Y-93038934D01*
X143834313Y-93372237D01*
X144117763Y-93655687D01*
X144145000Y-93673887D01*
X144145001Y-96826113D01*
X144117763Y-96844313D01*
X143834313Y-97127763D01*
X143611607Y-97461066D01*
X143458204Y-97831413D01*
X143380000Y-98224570D01*
X143380000Y-98625430D01*
X143458204Y-99018587D01*
X143611607Y-99388934D01*
X143834313Y-99722237D01*
X144117763Y-100005687D01*
X144145001Y-100023887D01*
X144145001Y-103176113D01*
X144117763Y-103194313D01*
X143834313Y-103477763D01*
X143611607Y-103811066D01*
X143458204Y-104181413D01*
X143380000Y-104574570D01*
X143380000Y-104975430D01*
X143458204Y-105368587D01*
X143611607Y-105738934D01*
X143834313Y-106072237D01*
X144117763Y-106355687D01*
X144145001Y-106373887D01*
X144145001Y-109526113D01*
X144117763Y-109544313D01*
X143834313Y-109827763D01*
X143611607Y-110161066D01*
X143458204Y-110531413D01*
X143380000Y-110924570D01*
X143380000Y-111325430D01*
X143458204Y-111718587D01*
X143611607Y-112088934D01*
X143834313Y-112422237D01*
X144117763Y-112705687D01*
X144145001Y-112723887D01*
X144145001Y-115876113D01*
X144117763Y-115894313D01*
X143834313Y-116177763D01*
X143611607Y-116511066D01*
X143458204Y-116881413D01*
X143380000Y-117274570D01*
X143380000Y-117675430D01*
X143458204Y-118068587D01*
X143611607Y-118438934D01*
X143834313Y-118772237D01*
X144117763Y-119055687D01*
X144145001Y-119073887D01*
X144145001Y-122226113D01*
X144117763Y-122244313D01*
X143834313Y-122527763D01*
X143611607Y-122861066D01*
X143458204Y-123231413D01*
X143380000Y-123624570D01*
X143380000Y-124025430D01*
X143458204Y-124418587D01*
X143611607Y-124788934D01*
X143834313Y-125122237D01*
X144117763Y-125405687D01*
X144451066Y-125628393D01*
X144821413Y-125781796D01*
X145214570Y-125860000D01*
X145615430Y-125860000D01*
X146008587Y-125781796D01*
X146378934Y-125628393D01*
X146712237Y-125405687D01*
X146995687Y-125122237D01*
X147218393Y-124788934D01*
X147371796Y-124418587D01*
X147450000Y-124025430D01*
X147450000Y-123624570D01*
X147371796Y-123231413D01*
X147218393Y-122861066D01*
X146995687Y-122527763D01*
X146712237Y-122244313D01*
X146685000Y-122226114D01*
X146685000Y-119073886D01*
X146712237Y-119055687D01*
X146995687Y-118772237D01*
X147218393Y-118438934D01*
X147371796Y-118068587D01*
X147450000Y-117675430D01*
X147450000Y-117274570D01*
X147371796Y-116881413D01*
X147265587Y-116625000D01*
X151546928Y-116625000D01*
X151546928Y-118325000D01*
X151559188Y-118449482D01*
X151595498Y-118569180D01*
X151654463Y-118679494D01*
X151733815Y-118776185D01*
X151830506Y-118855537D01*
X151940820Y-118914502D01*
X152060518Y-118950812D01*
X152185000Y-118963072D01*
X153885000Y-118963072D01*
X154009482Y-118950812D01*
X154129180Y-118914502D01*
X154239494Y-118855537D01*
X154336185Y-118776185D01*
X154415537Y-118679494D01*
X154474502Y-118569180D01*
X154510812Y-118449482D01*
X154523072Y-118325000D01*
X154523072Y-116625000D01*
X154510812Y-116500518D01*
X154474502Y-116380820D01*
X154415537Y-116270506D01*
X154336185Y-116173815D01*
X154239494Y-116094463D01*
X154129180Y-116035498D01*
X154051421Y-116011910D01*
X154214688Y-115836991D01*
X154367990Y-115589514D01*
X154440368Y-115414755D01*
X154336700Y-115189000D01*
X153289000Y-115189000D01*
X153289000Y-115209000D01*
X152781000Y-115209000D01*
X152781000Y-115189000D01*
X151733300Y-115189000D01*
X151629632Y-115414755D01*
X151702010Y-115589514D01*
X151855312Y-115836991D01*
X152018579Y-116011910D01*
X151940820Y-116035498D01*
X151830506Y-116094463D01*
X151733815Y-116173815D01*
X151654463Y-116270506D01*
X151595498Y-116380820D01*
X151559188Y-116500518D01*
X151546928Y-116625000D01*
X147265587Y-116625000D01*
X147218393Y-116511066D01*
X146995687Y-116177763D01*
X146712237Y-115894313D01*
X146685000Y-115876114D01*
X146685000Y-114455245D01*
X151629632Y-114455245D01*
X151733300Y-114681000D01*
X152781000Y-114681000D01*
X152781000Y-113630624D01*
X153289000Y-113630624D01*
X153289000Y-114681000D01*
X154336700Y-114681000D01*
X154440368Y-114455245D01*
X154367990Y-114280486D01*
X154214688Y-114033009D01*
X154016051Y-113820195D01*
X153779713Y-113650222D01*
X153514756Y-113529622D01*
X153289000Y-113630624D01*
X152781000Y-113630624D01*
X152555244Y-113529622D01*
X152290287Y-113650222D01*
X152053949Y-113820195D01*
X151855312Y-114033009D01*
X151702010Y-114280486D01*
X151629632Y-114455245D01*
X146685000Y-114455245D01*
X146685000Y-112723886D01*
X146712237Y-112705687D01*
X146995687Y-112422237D01*
X147218393Y-112088934D01*
X147371796Y-111718587D01*
X147450000Y-111325430D01*
X147450000Y-110924570D01*
X147371796Y-110531413D01*
X147218393Y-110161066D01*
X146995687Y-109827763D01*
X146712237Y-109544313D01*
X146685000Y-109526114D01*
X146685000Y-106373886D01*
X146712237Y-106355687D01*
X146995687Y-106072237D01*
X147218393Y-105738934D01*
X147371796Y-105368587D01*
X147450000Y-104975430D01*
X147450000Y-104574570D01*
X147371796Y-104181413D01*
X147218393Y-103811066D01*
X146995687Y-103477763D01*
X146712237Y-103194313D01*
X146685000Y-103176114D01*
X146685000Y-100023886D01*
X146712237Y-100005687D01*
X146995687Y-99722237D01*
X147218393Y-99388934D01*
X147371796Y-99018587D01*
X147450000Y-98625430D01*
X147450000Y-98224570D01*
X147371796Y-97831413D01*
X147218393Y-97461066D01*
X146995687Y-97127763D01*
X146712237Y-96844313D01*
X146685000Y-96826114D01*
X146685000Y-93673886D01*
X146712237Y-93655687D01*
X146995687Y-93372237D01*
X147218393Y-93038934D01*
X147371796Y-92668587D01*
X147450000Y-92275430D01*
X147450000Y-91874570D01*
X147371796Y-91481413D01*
X147218393Y-91111066D01*
X146995687Y-90777763D01*
X146712237Y-90494313D01*
X146685000Y-90476114D01*
X146685000Y-87323886D01*
X146712237Y-87305687D01*
X146995687Y-87022237D01*
X147218393Y-86688934D01*
X147371796Y-86318587D01*
X147450000Y-85925430D01*
X147450000Y-85524570D01*
X147371796Y-85131413D01*
X147218393Y-84761066D01*
X146995687Y-84427763D01*
X146712237Y-84144313D01*
X146685000Y-84126114D01*
X146685000Y-80973886D01*
X146712237Y-80955687D01*
X146995687Y-80672237D01*
X147218393Y-80338934D01*
X147371796Y-79968587D01*
X147450000Y-79575430D01*
X147450000Y-79174570D01*
X147371796Y-78781413D01*
X147218393Y-78411066D01*
X146995687Y-78077763D01*
X146712237Y-77794313D01*
X146685000Y-77776114D01*
X146685000Y-74623886D01*
X146712237Y-74605687D01*
X146995687Y-74322237D01*
X147218393Y-73988934D01*
X147371796Y-73618587D01*
X147450000Y-73225430D01*
X147450000Y-72824570D01*
X147371796Y-72431413D01*
X147218393Y-72061066D01*
X146995687Y-71727763D01*
X146712237Y-71444313D01*
X146685000Y-71426114D01*
X146685000Y-68273886D01*
X146712237Y-68255687D01*
X146995687Y-67972237D01*
X147218393Y-67638934D01*
X147371796Y-67268587D01*
X147450000Y-66875430D01*
X147450000Y-66474570D01*
X158620000Y-66474570D01*
X158620000Y-66875430D01*
X158698204Y-67268587D01*
X158851607Y-67638934D01*
X159074313Y-67972237D01*
X159357763Y-68255687D01*
X159385001Y-68273887D01*
X159385001Y-71426113D01*
X159357763Y-71444313D01*
X159074313Y-71727763D01*
X158851607Y-72061066D01*
X158698204Y-72431413D01*
X158620000Y-72824570D01*
X158620000Y-73225430D01*
X158698204Y-73618587D01*
X158851607Y-73988934D01*
X159074313Y-74322237D01*
X159357763Y-74605687D01*
X159385001Y-74623887D01*
X159385001Y-77776113D01*
X159357763Y-77794313D01*
X159074313Y-78077763D01*
X158851607Y-78411066D01*
X158698204Y-78781413D01*
X158620000Y-79174570D01*
X158620000Y-79575430D01*
X158698204Y-79968587D01*
X158851607Y-80338934D01*
X159074313Y-80672237D01*
X159357763Y-80955687D01*
X159385001Y-80973887D01*
X159385001Y-84126113D01*
X159357763Y-84144313D01*
X159074313Y-84427763D01*
X158851607Y-84761066D01*
X158698204Y-85131413D01*
X158620000Y-85524570D01*
X158620000Y-85925430D01*
X158698204Y-86318587D01*
X158851607Y-86688934D01*
X159074313Y-87022237D01*
X159357763Y-87305687D01*
X159385001Y-87323887D01*
X159385001Y-90476113D01*
X159357763Y-90494313D01*
X159074313Y-90777763D01*
X158851607Y-91111066D01*
X158698204Y-91481413D01*
X158620000Y-91874570D01*
X158620000Y-92275430D01*
X158698204Y-92668587D01*
X158851607Y-93038934D01*
X159074313Y-93372237D01*
X159357763Y-93655687D01*
X159385001Y-93673887D01*
X159385000Y-96826113D01*
X159357763Y-96844313D01*
X159074313Y-97127763D01*
X158851607Y-97461066D01*
X158698204Y-97831413D01*
X158620000Y-98224570D01*
X158620000Y-98625430D01*
X158698204Y-99018587D01*
X158851607Y-99388934D01*
X159074313Y-99722237D01*
X159357763Y-100005687D01*
X159385000Y-100023886D01*
X159385000Y-103176114D01*
X159357763Y-103194313D01*
X159074313Y-103477763D01*
X158851607Y-103811066D01*
X158698204Y-104181413D01*
X158620000Y-104574570D01*
X158620000Y-104975430D01*
X158698204Y-105368587D01*
X158851607Y-105738934D01*
X159074313Y-106072237D01*
X159357763Y-106355687D01*
X159385000Y-106373886D01*
X159385000Y-109526114D01*
X159357763Y-109544313D01*
X159074313Y-109827763D01*
X158851607Y-110161066D01*
X158698204Y-110531413D01*
X158620000Y-110924570D01*
X158620000Y-111325430D01*
X158698204Y-111718587D01*
X158851607Y-112088934D01*
X159074313Y-112422237D01*
X159357763Y-112705687D01*
X159385000Y-112723886D01*
X159385000Y-115876114D01*
X159357763Y-115894313D01*
X159074313Y-116177763D01*
X158851607Y-116511066D01*
X158698204Y-116881413D01*
X158620000Y-117274570D01*
X158620000Y-117675430D01*
X158698204Y-118068587D01*
X158851607Y-118438934D01*
X159074313Y-118772237D01*
X159357763Y-119055687D01*
X159385000Y-119073886D01*
X159385000Y-122226114D01*
X159357763Y-122244313D01*
X159074313Y-122527763D01*
X158851607Y-122861066D01*
X158698204Y-123231413D01*
X158620000Y-123624570D01*
X158620000Y-124025430D01*
X158698204Y-124418587D01*
X158851607Y-124788934D01*
X159074313Y-125122237D01*
X159357763Y-125405687D01*
X159691066Y-125628393D01*
X160061413Y-125781796D01*
X160454570Y-125860000D01*
X160855430Y-125860000D01*
X161248587Y-125781796D01*
X161618934Y-125628393D01*
X161952237Y-125405687D01*
X162235687Y-125122237D01*
X162458393Y-124788934D01*
X162611796Y-124418587D01*
X162690000Y-124025430D01*
X162690000Y-123624570D01*
X162611796Y-123231413D01*
X162458393Y-122861066D01*
X162235687Y-122527763D01*
X161952237Y-122244313D01*
X161925000Y-122226114D01*
X161925000Y-120524514D01*
X164782500Y-120524514D01*
X164782500Y-120775485D01*
X164805470Y-121008703D01*
X164896245Y-121307948D01*
X165043655Y-121583734D01*
X165242037Y-121825463D01*
X165483765Y-122023845D01*
X165759551Y-122171255D01*
X166058796Y-122262030D01*
X166370000Y-122292681D01*
X166471001Y-122282733D01*
X166471001Y-122459250D01*
X166466614Y-122461595D01*
X166332038Y-122572038D01*
X166221595Y-122706614D01*
X166139528Y-122860150D01*
X166088992Y-123026746D01*
X166071928Y-123200000D01*
X166071928Y-124450000D01*
X166088992Y-124623254D01*
X166139528Y-124789850D01*
X166221595Y-124943386D01*
X166332038Y-125077962D01*
X166466614Y-125188405D01*
X166620150Y-125270472D01*
X166786746Y-125321008D01*
X166960000Y-125338072D01*
X167760000Y-125338072D01*
X167933254Y-125321008D01*
X168099850Y-125270472D01*
X168253386Y-125188405D01*
X168387962Y-125077962D01*
X168498405Y-124943386D01*
X168580472Y-124789850D01*
X168631008Y-124623254D01*
X168648072Y-124450000D01*
X168648072Y-123200000D01*
X168631008Y-123026746D01*
X168580472Y-122860150D01*
X168498405Y-122706614D01*
X168387962Y-122572038D01*
X168253386Y-122461595D01*
X168249000Y-122459251D01*
X168249000Y-122144235D01*
X168299551Y-122171255D01*
X168598796Y-122262030D01*
X168910000Y-122292681D01*
X169221203Y-122262030D01*
X169520448Y-122171255D01*
X169571001Y-122144234D01*
X169571001Y-122459250D01*
X169566614Y-122461595D01*
X169432038Y-122572038D01*
X169321595Y-122706614D01*
X169239528Y-122860150D01*
X169188992Y-123026746D01*
X169171928Y-123200000D01*
X169171928Y-124450000D01*
X169188992Y-124623254D01*
X169239528Y-124789850D01*
X169321595Y-124943386D01*
X169432038Y-125077962D01*
X169566614Y-125188405D01*
X169720150Y-125270472D01*
X169886746Y-125321008D01*
X170060000Y-125338072D01*
X170860000Y-125338072D01*
X171033254Y-125321008D01*
X171199850Y-125270472D01*
X171353386Y-125188405D01*
X171487962Y-125077962D01*
X171598405Y-124943386D01*
X171680472Y-124789850D01*
X171731008Y-124623254D01*
X171748072Y-124450000D01*
X171748072Y-123200000D01*
X171731008Y-123026746D01*
X171680472Y-122860150D01*
X171598405Y-122706614D01*
X171487962Y-122572038D01*
X171353386Y-122461595D01*
X171349000Y-122459251D01*
X171349000Y-122288072D01*
X172402500Y-122288072D01*
X172526982Y-122275812D01*
X172646680Y-122239502D01*
X172756994Y-122180537D01*
X172853685Y-122101185D01*
X172933037Y-122004494D01*
X172992002Y-121894180D01*
X173028312Y-121774482D01*
X173040572Y-121650000D01*
X173040572Y-119650000D01*
X173028312Y-119525518D01*
X172992002Y-119405820D01*
X172933037Y-119295506D01*
X172853685Y-119198815D01*
X172756994Y-119119463D01*
X172646680Y-119060498D01*
X172526982Y-119024188D01*
X172402500Y-119011928D01*
X170497500Y-119011928D01*
X170373018Y-119024188D01*
X170253320Y-119060498D01*
X170143006Y-119119463D01*
X170046315Y-119198815D01*
X169966963Y-119295506D01*
X169922095Y-119379446D01*
X169796235Y-119276155D01*
X169520449Y-119128745D01*
X169221204Y-119037970D01*
X168910000Y-119007319D01*
X168598797Y-119037970D01*
X168299552Y-119128745D01*
X168023766Y-119276155D01*
X167782037Y-119474537D01*
X167640000Y-119647609D01*
X167497963Y-119474537D01*
X167256235Y-119276155D01*
X166980449Y-119128745D01*
X166681204Y-119037970D01*
X166370000Y-119007319D01*
X166058797Y-119037970D01*
X165759552Y-119128745D01*
X165483766Y-119276155D01*
X165242037Y-119474537D01*
X165043655Y-119716265D01*
X164896245Y-119992051D01*
X164805470Y-120291296D01*
X164782500Y-120524514D01*
X161925000Y-120524514D01*
X161925000Y-119073886D01*
X161952237Y-119055687D01*
X162235687Y-118772237D01*
X162458393Y-118438934D01*
X162611796Y-118068587D01*
X162690000Y-117675430D01*
X162690000Y-117274570D01*
X162611796Y-116881413D01*
X162458393Y-116511066D01*
X162235687Y-116177763D01*
X161952237Y-115894313D01*
X161925000Y-115876114D01*
X161925000Y-112801444D01*
X164290766Y-112801444D01*
X164367001Y-113026216D01*
X164625671Y-113120111D01*
X164897690Y-113161737D01*
X165172602Y-113149495D01*
X165439843Y-113083855D01*
X165578999Y-113026216D01*
X165655234Y-112801444D01*
X164973000Y-112119210D01*
X164290766Y-112801444D01*
X161925000Y-112801444D01*
X161925000Y-112723886D01*
X161952237Y-112705687D01*
X162235687Y-112422237D01*
X162458393Y-112088934D01*
X162611796Y-111718587D01*
X162618538Y-111684690D01*
X163571263Y-111684690D01*
X163583505Y-111959602D01*
X163649145Y-112226843D01*
X163706784Y-112365999D01*
X163931556Y-112442234D01*
X164613790Y-111760000D01*
X165332210Y-111760000D01*
X166014444Y-112442234D01*
X166239216Y-112365999D01*
X166333111Y-112107329D01*
X166374737Y-111835310D01*
X166362495Y-111560398D01*
X166296855Y-111293157D01*
X166239216Y-111154001D01*
X166014444Y-111077766D01*
X165332210Y-111760000D01*
X164613790Y-111760000D01*
X163931556Y-111077766D01*
X163706784Y-111154001D01*
X163612889Y-111412671D01*
X163571263Y-111684690D01*
X162618538Y-111684690D01*
X162690000Y-111325430D01*
X162690000Y-110924570D01*
X162611796Y-110531413D01*
X162499971Y-110261444D01*
X164290766Y-110261444D01*
X164367001Y-110486216D01*
X164376739Y-110489751D01*
X164367001Y-110493784D01*
X164290766Y-110718556D01*
X164973000Y-111400790D01*
X165655234Y-110718556D01*
X165578999Y-110493784D01*
X165569261Y-110490249D01*
X165578999Y-110486216D01*
X165655234Y-110261444D01*
X164973000Y-109579210D01*
X164290766Y-110261444D01*
X162499971Y-110261444D01*
X162458393Y-110161066D01*
X162235687Y-109827763D01*
X161952237Y-109544313D01*
X161925000Y-109526114D01*
X161925000Y-109144690D01*
X163571263Y-109144690D01*
X163583505Y-109419602D01*
X163649145Y-109686843D01*
X163706784Y-109825999D01*
X163931556Y-109902234D01*
X164613790Y-109220000D01*
X165332210Y-109220000D01*
X166014444Y-109902234D01*
X166239216Y-109825999D01*
X166333111Y-109567329D01*
X166374737Y-109295310D01*
X166362495Y-109020398D01*
X166296855Y-108753157D01*
X166239216Y-108614001D01*
X166014444Y-108537766D01*
X165332210Y-109220000D01*
X164613790Y-109220000D01*
X163931556Y-108537766D01*
X163706784Y-108614001D01*
X163612889Y-108872671D01*
X163571263Y-109144690D01*
X161925000Y-109144690D01*
X161925000Y-106373886D01*
X161952237Y-106355687D01*
X162235687Y-106072237D01*
X162458393Y-105738934D01*
X162611796Y-105368587D01*
X162690000Y-104975430D01*
X162690000Y-104574570D01*
X162611796Y-104181413D01*
X162537650Y-104002408D01*
X163576000Y-104002408D01*
X163576000Y-104277592D01*
X163629686Y-104547490D01*
X163734995Y-104801727D01*
X163887880Y-105030535D01*
X164082465Y-105225120D01*
X164311273Y-105378005D01*
X164388515Y-105410000D01*
X164311273Y-105441995D01*
X164082465Y-105594880D01*
X163887880Y-105789465D01*
X163734995Y-106018273D01*
X163629686Y-106272510D01*
X163576000Y-106542408D01*
X163576000Y-106817592D01*
X163629686Y-107087490D01*
X163734995Y-107341727D01*
X163887880Y-107570535D01*
X164082465Y-107765120D01*
X164311273Y-107918005D01*
X164382326Y-107947436D01*
X164367001Y-107953784D01*
X164290766Y-108178556D01*
X164973000Y-108860790D01*
X165655234Y-108178556D01*
X165578999Y-107953784D01*
X165562664Y-107947855D01*
X165634727Y-107918005D01*
X165863535Y-107765120D01*
X166058120Y-107570535D01*
X166211005Y-107341727D01*
X166316314Y-107087490D01*
X166370000Y-106817592D01*
X166370000Y-106542408D01*
X166316314Y-106272510D01*
X166211005Y-106018273D01*
X166058120Y-105789465D01*
X165863535Y-105594880D01*
X165634727Y-105441995D01*
X165557485Y-105410000D01*
X165634727Y-105378005D01*
X165863535Y-105225120D01*
X166058120Y-105030535D01*
X166211005Y-104801727D01*
X166316314Y-104547490D01*
X166370000Y-104277592D01*
X166370000Y-104002408D01*
X171196000Y-104002408D01*
X171196000Y-104277592D01*
X171249686Y-104547490D01*
X171354995Y-104801727D01*
X171507880Y-105030535D01*
X171702465Y-105225120D01*
X171931273Y-105378005D01*
X172008515Y-105410000D01*
X171931273Y-105441995D01*
X171702465Y-105594880D01*
X171507880Y-105789465D01*
X171354995Y-106018273D01*
X171249686Y-106272510D01*
X171196000Y-106542408D01*
X171196000Y-106817592D01*
X171249686Y-107087490D01*
X171354995Y-107341727D01*
X171507880Y-107570535D01*
X171702465Y-107765120D01*
X171931273Y-107918005D01*
X172008515Y-107950000D01*
X171931273Y-107981995D01*
X171702465Y-108134880D01*
X171507880Y-108329465D01*
X171354995Y-108558273D01*
X171249686Y-108812510D01*
X171196000Y-109082408D01*
X171196000Y-109357592D01*
X171249686Y-109627490D01*
X171354995Y-109881727D01*
X171507880Y-110110535D01*
X171702465Y-110305120D01*
X171931273Y-110458005D01*
X172008515Y-110490000D01*
X171931273Y-110521995D01*
X171702465Y-110674880D01*
X171507880Y-110869465D01*
X171354995Y-111098273D01*
X171249686Y-111352510D01*
X171196000Y-111622408D01*
X171196000Y-111897592D01*
X171249686Y-112167490D01*
X171354995Y-112421727D01*
X171507880Y-112650535D01*
X171702465Y-112845120D01*
X171931273Y-112998005D01*
X172185510Y-113103314D01*
X172455408Y-113157000D01*
X172730592Y-113157000D01*
X173000490Y-113103314D01*
X173254727Y-112998005D01*
X173483535Y-112845120D01*
X173678120Y-112650535D01*
X173831005Y-112421727D01*
X173936314Y-112167490D01*
X173990000Y-111897592D01*
X173990000Y-111622408D01*
X173936314Y-111352510D01*
X173831005Y-111098273D01*
X173678120Y-110869465D01*
X173483535Y-110674880D01*
X173254727Y-110521995D01*
X173177485Y-110490000D01*
X173254727Y-110458005D01*
X173483535Y-110305120D01*
X173678120Y-110110535D01*
X173831005Y-109881727D01*
X173936314Y-109627490D01*
X173990000Y-109357592D01*
X173990000Y-109082408D01*
X173936314Y-108812510D01*
X173831005Y-108558273D01*
X173678120Y-108329465D01*
X173483535Y-108134880D01*
X173254727Y-107981995D01*
X173177485Y-107950000D01*
X173254727Y-107918005D01*
X173483535Y-107765120D01*
X173678120Y-107570535D01*
X173831005Y-107341727D01*
X173936314Y-107087490D01*
X173990000Y-106817592D01*
X173990000Y-106542408D01*
X173936314Y-106272510D01*
X173831005Y-106018273D01*
X173678120Y-105789465D01*
X173483535Y-105594880D01*
X173254727Y-105441995D01*
X173177485Y-105410000D01*
X173254727Y-105378005D01*
X173483535Y-105225120D01*
X173678120Y-105030535D01*
X173831005Y-104801727D01*
X173936314Y-104547490D01*
X173990000Y-104277592D01*
X173990000Y-104002408D01*
X173936314Y-103732510D01*
X173831005Y-103478273D01*
X173678120Y-103249465D01*
X173483535Y-103054880D01*
X173254727Y-102901995D01*
X173000490Y-102796686D01*
X172730592Y-102743000D01*
X172455408Y-102743000D01*
X172185510Y-102796686D01*
X171931273Y-102901995D01*
X171702465Y-103054880D01*
X171507880Y-103249465D01*
X171354995Y-103478273D01*
X171249686Y-103732510D01*
X171196000Y-104002408D01*
X166370000Y-104002408D01*
X166316314Y-103732510D01*
X166211005Y-103478273D01*
X166058120Y-103249465D01*
X165863535Y-103054880D01*
X165634727Y-102901995D01*
X165380490Y-102796686D01*
X165110592Y-102743000D01*
X164835408Y-102743000D01*
X164565510Y-102796686D01*
X164311273Y-102901995D01*
X164082465Y-103054880D01*
X163887880Y-103249465D01*
X163734995Y-103478273D01*
X163629686Y-103732510D01*
X163576000Y-104002408D01*
X162537650Y-104002408D01*
X162458393Y-103811066D01*
X162235687Y-103477763D01*
X161952237Y-103194313D01*
X161925000Y-103176114D01*
X161925000Y-100023886D01*
X161952237Y-100005687D01*
X162235687Y-99722237D01*
X162458393Y-99388934D01*
X162611796Y-99018587D01*
X162690000Y-98625430D01*
X162690000Y-98224570D01*
X162611796Y-97831413D01*
X162458393Y-97461066D01*
X162235687Y-97127763D01*
X161952237Y-96844313D01*
X161925000Y-96826114D01*
X161925000Y-93673886D01*
X161952237Y-93655687D01*
X162235687Y-93372237D01*
X162458393Y-93038934D01*
X162611796Y-92668587D01*
X162690000Y-92275430D01*
X162690000Y-91874570D01*
X162611796Y-91481413D01*
X162458393Y-91111066D01*
X162235687Y-90777763D01*
X162107679Y-90649755D01*
X164329632Y-90649755D01*
X164402010Y-90824514D01*
X164555312Y-91071991D01*
X164753949Y-91284805D01*
X164990287Y-91454778D01*
X165255244Y-91575378D01*
X165481000Y-91474376D01*
X165481000Y-90424000D01*
X165989000Y-90424000D01*
X165989000Y-91474376D01*
X166214756Y-91575378D01*
X166479713Y-91454778D01*
X166716051Y-91284805D01*
X166784524Y-91211444D01*
X168989766Y-91211444D01*
X169066001Y-91436216D01*
X169324671Y-91530111D01*
X169596690Y-91571737D01*
X169871602Y-91559495D01*
X170138843Y-91493855D01*
X170277999Y-91436216D01*
X170354234Y-91211444D01*
X169672000Y-90529210D01*
X168989766Y-91211444D01*
X166784524Y-91211444D01*
X166914688Y-91071991D01*
X167067990Y-90824514D01*
X167140368Y-90649755D01*
X167036700Y-90424000D01*
X165989000Y-90424000D01*
X165481000Y-90424000D01*
X164433300Y-90424000D01*
X164329632Y-90649755D01*
X162107679Y-90649755D01*
X161952237Y-90494313D01*
X161925000Y-90476114D01*
X161925000Y-90094690D01*
X168270263Y-90094690D01*
X168282505Y-90369602D01*
X168348145Y-90636843D01*
X168405784Y-90775999D01*
X168630556Y-90852234D01*
X169312790Y-90170000D01*
X170031210Y-90170000D01*
X170713444Y-90852234D01*
X170938216Y-90775999D01*
X171032111Y-90517329D01*
X171073737Y-90245310D01*
X171061495Y-89970398D01*
X170995855Y-89703157D01*
X170938216Y-89564001D01*
X170713444Y-89487766D01*
X170031210Y-90170000D01*
X169312790Y-90170000D01*
X168630556Y-89487766D01*
X168405784Y-89564001D01*
X168311889Y-89822671D01*
X168270263Y-90094690D01*
X161925000Y-90094690D01*
X161925000Y-87323886D01*
X161952237Y-87305687D01*
X162235687Y-87022237D01*
X162458393Y-86688934D01*
X162611796Y-86318587D01*
X162690000Y-85925430D01*
X162690000Y-85524570D01*
X162611796Y-85131413D01*
X162458393Y-84761066D01*
X162235687Y-84427763D01*
X162047924Y-84240000D01*
X164246928Y-84240000D01*
X164246928Y-85940000D01*
X164259188Y-86064482D01*
X164295498Y-86184180D01*
X164354463Y-86294494D01*
X164433815Y-86391185D01*
X164530506Y-86470537D01*
X164640820Y-86529502D01*
X164713380Y-86551513D01*
X164581525Y-86683368D01*
X164419010Y-86926589D01*
X164307068Y-87196842D01*
X164250000Y-87483740D01*
X164250000Y-87776260D01*
X164307068Y-88063158D01*
X164419010Y-88333411D01*
X164581525Y-88576632D01*
X164788368Y-88783475D01*
X164966378Y-88902417D01*
X164753949Y-89055195D01*
X164555312Y-89268009D01*
X164402010Y-89515486D01*
X164329632Y-89690245D01*
X164433300Y-89916000D01*
X165481000Y-89916000D01*
X165481000Y-89896000D01*
X165989000Y-89896000D01*
X165989000Y-89916000D01*
X167036700Y-89916000D01*
X167140368Y-89690245D01*
X167067990Y-89515486D01*
X166914688Y-89268009D01*
X166716051Y-89055195D01*
X166503622Y-88902417D01*
X166681632Y-88783475D01*
X166888475Y-88576632D01*
X167050990Y-88333411D01*
X167162932Y-88063158D01*
X167220000Y-87776260D01*
X167220000Y-87483740D01*
X167162932Y-87196842D01*
X167050990Y-86926589D01*
X166888475Y-86683368D01*
X166756620Y-86551513D01*
X166829180Y-86529502D01*
X166939494Y-86470537D01*
X167036185Y-86391185D01*
X167115537Y-86294494D01*
X167174502Y-86184180D01*
X167210812Y-86064482D01*
X167223072Y-85940000D01*
X167223072Y-84240000D01*
X167210812Y-84115518D01*
X167174502Y-83995820D01*
X167115537Y-83885506D01*
X167036185Y-83788815D01*
X166939494Y-83709463D01*
X166829180Y-83650498D01*
X166709482Y-83614188D01*
X166585000Y-83601928D01*
X164885000Y-83601928D01*
X164760518Y-83614188D01*
X164640820Y-83650498D01*
X164530506Y-83709463D01*
X164433815Y-83788815D01*
X164354463Y-83885506D01*
X164295498Y-83995820D01*
X164259188Y-84115518D01*
X164246928Y-84240000D01*
X162047924Y-84240000D01*
X161952237Y-84144313D01*
X161925000Y-84126114D01*
X161925000Y-82412408D01*
X168275000Y-82412408D01*
X168275000Y-82687592D01*
X168328686Y-82957490D01*
X168433995Y-83211727D01*
X168586880Y-83440535D01*
X168781465Y-83635120D01*
X169010273Y-83788005D01*
X169087515Y-83820000D01*
X169010273Y-83851995D01*
X168781465Y-84004880D01*
X168586880Y-84199465D01*
X168433995Y-84428273D01*
X168328686Y-84682510D01*
X168275000Y-84952408D01*
X168275000Y-85227592D01*
X168328686Y-85497490D01*
X168433995Y-85751727D01*
X168586880Y-85980535D01*
X168781465Y-86175120D01*
X169010273Y-86328005D01*
X169087515Y-86360000D01*
X169010273Y-86391995D01*
X168781465Y-86544880D01*
X168586880Y-86739465D01*
X168433995Y-86968273D01*
X168328686Y-87222510D01*
X168275000Y-87492408D01*
X168275000Y-87767592D01*
X168328686Y-88037490D01*
X168433995Y-88291727D01*
X168586880Y-88520535D01*
X168781465Y-88715120D01*
X169010273Y-88868005D01*
X169081326Y-88897436D01*
X169066001Y-88903784D01*
X168989766Y-89128556D01*
X169672000Y-89810790D01*
X170354234Y-89128556D01*
X170277999Y-88903784D01*
X170261664Y-88897855D01*
X170333727Y-88868005D01*
X170562535Y-88715120D01*
X170757120Y-88520535D01*
X170910005Y-88291727D01*
X171015314Y-88037490D01*
X171069000Y-87767592D01*
X171069000Y-87492408D01*
X171015314Y-87222510D01*
X170910005Y-86968273D01*
X170757120Y-86739465D01*
X170562535Y-86544880D01*
X170333727Y-86391995D01*
X170256485Y-86360000D01*
X170333727Y-86328005D01*
X170562535Y-86175120D01*
X170757120Y-85980535D01*
X170910005Y-85751727D01*
X171015314Y-85497490D01*
X171069000Y-85227592D01*
X171069000Y-84952408D01*
X171015314Y-84682510D01*
X170910005Y-84428273D01*
X170757120Y-84199465D01*
X170562535Y-84004880D01*
X170333727Y-83851995D01*
X170256485Y-83820000D01*
X170333727Y-83788005D01*
X170562535Y-83635120D01*
X170757120Y-83440535D01*
X170910005Y-83211727D01*
X171015314Y-82957490D01*
X171069000Y-82687592D01*
X171069000Y-82412408D01*
X175895000Y-82412408D01*
X175895000Y-82687592D01*
X175948686Y-82957490D01*
X176053995Y-83211727D01*
X176206880Y-83440535D01*
X176401465Y-83635120D01*
X176630273Y-83788005D01*
X176707515Y-83820000D01*
X176630273Y-83851995D01*
X176401465Y-84004880D01*
X176206880Y-84199465D01*
X176053995Y-84428273D01*
X175948686Y-84682510D01*
X175895000Y-84952408D01*
X175895000Y-85227592D01*
X175948686Y-85497490D01*
X176053995Y-85751727D01*
X176206880Y-85980535D01*
X176401465Y-86175120D01*
X176630273Y-86328005D01*
X176707515Y-86360000D01*
X176630273Y-86391995D01*
X176401465Y-86544880D01*
X176206880Y-86739465D01*
X176053995Y-86968273D01*
X175948686Y-87222510D01*
X175895000Y-87492408D01*
X175895000Y-87767592D01*
X175948686Y-88037490D01*
X176053995Y-88291727D01*
X176206880Y-88520535D01*
X176401465Y-88715120D01*
X176630273Y-88868005D01*
X176707515Y-88900000D01*
X176630273Y-88931995D01*
X176401465Y-89084880D01*
X176206880Y-89279465D01*
X176053995Y-89508273D01*
X175948686Y-89762510D01*
X175895000Y-90032408D01*
X175895000Y-90307592D01*
X175948686Y-90577490D01*
X176053995Y-90831727D01*
X176206880Y-91060535D01*
X176401465Y-91255120D01*
X176630273Y-91408005D01*
X176884510Y-91513314D01*
X177154408Y-91567000D01*
X177429592Y-91567000D01*
X177699490Y-91513314D01*
X177953727Y-91408005D01*
X178182535Y-91255120D01*
X178377120Y-91060535D01*
X178530005Y-90831727D01*
X178635314Y-90577490D01*
X178689000Y-90307592D01*
X178689000Y-90032408D01*
X178635314Y-89762510D01*
X178530005Y-89508273D01*
X178377120Y-89279465D01*
X178182535Y-89084880D01*
X177953727Y-88931995D01*
X177876485Y-88900000D01*
X177953727Y-88868005D01*
X178182535Y-88715120D01*
X178377120Y-88520535D01*
X178530005Y-88291727D01*
X178635314Y-88037490D01*
X178689000Y-87767592D01*
X178689000Y-87492408D01*
X178635314Y-87222510D01*
X178530005Y-86968273D01*
X178377120Y-86739465D01*
X178182535Y-86544880D01*
X177953727Y-86391995D01*
X177876485Y-86360000D01*
X177953727Y-86328005D01*
X178182535Y-86175120D01*
X178377120Y-85980535D01*
X178530005Y-85751727D01*
X178635314Y-85497490D01*
X178689000Y-85227592D01*
X178689000Y-84952408D01*
X178635314Y-84682510D01*
X178530005Y-84428273D01*
X178377120Y-84199465D01*
X178182535Y-84004880D01*
X177953727Y-83851995D01*
X177876485Y-83820000D01*
X177953727Y-83788005D01*
X178182535Y-83635120D01*
X178377120Y-83440535D01*
X178530005Y-83211727D01*
X178635314Y-82957490D01*
X178689000Y-82687592D01*
X178689000Y-82412408D01*
X178635314Y-82142510D01*
X178530005Y-81888273D01*
X178377120Y-81659465D01*
X178182535Y-81464880D01*
X177953727Y-81311995D01*
X177699490Y-81206686D01*
X177429592Y-81153000D01*
X177154408Y-81153000D01*
X176884510Y-81206686D01*
X176630273Y-81311995D01*
X176401465Y-81464880D01*
X176206880Y-81659465D01*
X176053995Y-81888273D01*
X175948686Y-82142510D01*
X175895000Y-82412408D01*
X171069000Y-82412408D01*
X171015314Y-82142510D01*
X170910005Y-81888273D01*
X170757120Y-81659465D01*
X170562535Y-81464880D01*
X170333727Y-81311995D01*
X170079490Y-81206686D01*
X169809592Y-81153000D01*
X169534408Y-81153000D01*
X169264510Y-81206686D01*
X169010273Y-81311995D01*
X168781465Y-81464880D01*
X168586880Y-81659465D01*
X168433995Y-81888273D01*
X168328686Y-82142510D01*
X168275000Y-82412408D01*
X161925000Y-82412408D01*
X161925000Y-80973886D01*
X161952237Y-80955687D01*
X162235687Y-80672237D01*
X162458393Y-80338934D01*
X162611796Y-79968587D01*
X162690000Y-79575430D01*
X162690000Y-79174570D01*
X162611796Y-78781413D01*
X162458393Y-78411066D01*
X162235687Y-78077763D01*
X161952237Y-77794313D01*
X161925000Y-77776114D01*
X161925000Y-74623886D01*
X161952237Y-74605687D01*
X162235687Y-74322237D01*
X162458393Y-73988934D01*
X162611796Y-73618587D01*
X162690000Y-73225430D01*
X162690000Y-72824570D01*
X162611796Y-72431413D01*
X162458393Y-72061066D01*
X162349436Y-71898000D01*
X172399428Y-71898000D01*
X172399428Y-73898000D01*
X172411688Y-74022482D01*
X172447998Y-74142180D01*
X172506963Y-74252494D01*
X172586315Y-74349185D01*
X172683006Y-74428537D01*
X172793320Y-74487502D01*
X172913018Y-74523812D01*
X173037500Y-74536072D01*
X174942500Y-74536072D01*
X175066982Y-74523812D01*
X175186680Y-74487502D01*
X175296994Y-74428537D01*
X175393685Y-74349185D01*
X175473037Y-74252494D01*
X175517905Y-74168553D01*
X175643766Y-74271845D01*
X175919552Y-74419255D01*
X176218797Y-74510030D01*
X176530000Y-74540681D01*
X176841204Y-74510030D01*
X177140449Y-74419255D01*
X177416235Y-74271845D01*
X177657963Y-74073463D01*
X177800000Y-73900391D01*
X177942037Y-74073463D01*
X178183766Y-74271845D01*
X178459552Y-74419255D01*
X178758797Y-74510030D01*
X179070000Y-74540681D01*
X179381204Y-74510030D01*
X179680449Y-74419255D01*
X179956235Y-74271845D01*
X180197963Y-74073463D01*
X180396345Y-73831734D01*
X180543755Y-73555948D01*
X180634530Y-73256703D01*
X180657500Y-73023485D01*
X180657500Y-72772514D01*
X180634530Y-72539296D01*
X180543755Y-72240051D01*
X180396345Y-71964265D01*
X180197963Y-71722537D01*
X179956234Y-71524155D01*
X179680448Y-71376745D01*
X179381203Y-71285970D01*
X179070000Y-71255319D01*
X178758796Y-71285970D01*
X178459551Y-71376745D01*
X178183765Y-71524155D01*
X177942037Y-71722537D01*
X177800000Y-71895609D01*
X177657963Y-71722537D01*
X177416234Y-71524155D01*
X177140448Y-71376745D01*
X176841203Y-71285970D01*
X176530000Y-71255319D01*
X176218796Y-71285970D01*
X175919551Y-71376745D01*
X175643765Y-71524155D01*
X175517905Y-71627446D01*
X175473037Y-71543506D01*
X175393685Y-71446815D01*
X175296994Y-71367463D01*
X175186680Y-71308498D01*
X175066982Y-71272188D01*
X174942500Y-71259928D01*
X173037500Y-71259928D01*
X172913018Y-71272188D01*
X172793320Y-71308498D01*
X172683006Y-71367463D01*
X172586315Y-71446815D01*
X172506963Y-71543506D01*
X172447998Y-71653820D01*
X172411688Y-71773518D01*
X172399428Y-71898000D01*
X162349436Y-71898000D01*
X162235687Y-71727763D01*
X161952237Y-71444313D01*
X161925000Y-71426114D01*
X161925000Y-68273886D01*
X161952237Y-68255687D01*
X162235687Y-67972237D01*
X162458393Y-67638934D01*
X162611796Y-67268587D01*
X162690000Y-66875430D01*
X162690000Y-66474570D01*
X162611796Y-66081413D01*
X162458393Y-65711066D01*
X162235687Y-65377763D01*
X161952237Y-65094313D01*
X161618934Y-64871607D01*
X161248587Y-64718204D01*
X160855430Y-64640000D01*
X160454570Y-64640000D01*
X160061413Y-64718204D01*
X159691066Y-64871607D01*
X159357763Y-65094313D01*
X159074313Y-65377763D01*
X158851607Y-65711066D01*
X158698204Y-66081413D01*
X158620000Y-66474570D01*
X147450000Y-66474570D01*
X147371796Y-66081413D01*
X147218393Y-65711066D01*
X146995687Y-65377763D01*
X146712237Y-65094313D01*
X146378934Y-64871607D01*
X146008587Y-64718204D01*
X145615430Y-64640000D01*
X145214570Y-64640000D01*
X144821413Y-64718204D01*
X144451066Y-64871607D01*
X144117763Y-65094313D01*
X143834313Y-65377763D01*
X143611607Y-65711066D01*
X143458204Y-66081413D01*
X143380000Y-66474570D01*
X139827000Y-66474570D01*
X139827000Y-64262000D01*
X182118000Y-64262000D01*
X182118000Y-77417394D01*
G37*
%TD.AperFunction*%
%TD*%
D25*
%TO.N,GND*%
X237998000Y-126238000D02*
X176022000Y-126238000D01*
X176022000Y-119487740D01*
X200826000Y-119487740D01*
X200826000Y-119780260D01*
X200883068Y-120067158D01*
X200995010Y-120337411D01*
X201157525Y-120580632D01*
X201364368Y-120787475D01*
X201607589Y-120949990D01*
X201877842Y-121061932D01*
X202164740Y-121119000D01*
X202457260Y-121119000D01*
X202744158Y-121061932D01*
X203014411Y-120949990D01*
X203257632Y-120787475D01*
X203464475Y-120580632D01*
X203583417Y-120402622D01*
X203736195Y-120615051D01*
X203949009Y-120813688D01*
X204196486Y-120966990D01*
X204371245Y-121039368D01*
X204597000Y-120935700D01*
X204597000Y-119888000D01*
X204577000Y-119888000D01*
X204577000Y-119380000D01*
X204597000Y-119380000D01*
X204597000Y-118332300D01*
X205105000Y-118332300D01*
X205105000Y-119380000D01*
X205125000Y-119380000D01*
X205125000Y-119888000D01*
X205105000Y-119888000D01*
X205105000Y-120935700D01*
X205330755Y-121039368D01*
X205505514Y-120966990D01*
X205752991Y-120813688D01*
X205927910Y-120650421D01*
X205951498Y-120728180D01*
X206010463Y-120838494D01*
X206089815Y-120935185D01*
X206186506Y-121014537D01*
X206296820Y-121073502D01*
X206416518Y-121109812D01*
X206541000Y-121122072D01*
X208241000Y-121122072D01*
X208365482Y-121109812D01*
X208485180Y-121073502D01*
X208595494Y-121014537D01*
X208692185Y-120935185D01*
X208771537Y-120838494D01*
X208830502Y-120728180D01*
X208866812Y-120608482D01*
X208879072Y-120484000D01*
X208879072Y-118784000D01*
X208866812Y-118659518D01*
X208830502Y-118539820D01*
X208771537Y-118429506D01*
X208692185Y-118332815D01*
X208595494Y-118253463D01*
X208485180Y-118194498D01*
X208365482Y-118158188D01*
X208241000Y-118145928D01*
X206541000Y-118145928D01*
X206416518Y-118158188D01*
X206296820Y-118194498D01*
X206186506Y-118253463D01*
X206089815Y-118332815D01*
X206010463Y-118429506D01*
X205951498Y-118539820D01*
X205927910Y-118617579D01*
X205752991Y-118454312D01*
X205505514Y-118301010D01*
X205330755Y-118228632D01*
X205105000Y-118332300D01*
X204597000Y-118332300D01*
X204371245Y-118228632D01*
X204196486Y-118301010D01*
X203949009Y-118454312D01*
X203736195Y-118652949D01*
X203583417Y-118865378D01*
X203464475Y-118687368D01*
X203257632Y-118480525D01*
X203014411Y-118318010D01*
X202744158Y-118206068D01*
X202457260Y-118149000D01*
X202164740Y-118149000D01*
X201877842Y-118206068D01*
X201607589Y-118318010D01*
X201364368Y-118480525D01*
X201157525Y-118687368D01*
X200995010Y-118930589D01*
X200883068Y-119200842D01*
X200826000Y-119487740D01*
X176022000Y-119487740D01*
X176022000Y-117373061D01*
X194545000Y-117373061D01*
X194545000Y-117576939D01*
X194584774Y-117776898D01*
X194662795Y-117965256D01*
X194776063Y-118134774D01*
X194920226Y-118278937D01*
X195089744Y-118392205D01*
X195278102Y-118470226D01*
X195478061Y-118510000D01*
X195681939Y-118510000D01*
X195881898Y-118470226D01*
X196070256Y-118392205D01*
X196239774Y-118278937D01*
X196383937Y-118134774D01*
X196497205Y-117965256D01*
X196575226Y-117776898D01*
X196585130Y-117727105D01*
X197737106Y-116575130D01*
X197786898Y-116565226D01*
X197975256Y-116487205D01*
X198144774Y-116373937D01*
X198288937Y-116229774D01*
X198402205Y-116060256D01*
X198480226Y-115871898D01*
X198520000Y-115671939D01*
X198520000Y-115468061D01*
X198480226Y-115268102D01*
X198402205Y-115079744D01*
X198288937Y-114910226D01*
X198144774Y-114766063D01*
X197975256Y-114652795D01*
X197786898Y-114574774D01*
X197586939Y-114535000D01*
X197383061Y-114535000D01*
X197183102Y-114574774D01*
X196994744Y-114652795D01*
X196825226Y-114766063D01*
X196681063Y-114910226D01*
X196567795Y-115079744D01*
X196489774Y-115268102D01*
X196479870Y-115317894D01*
X195327895Y-116469870D01*
X195278102Y-116479774D01*
X195089744Y-116557795D01*
X194920226Y-116671063D01*
X194776063Y-116815226D01*
X194662795Y-116984744D01*
X194584774Y-117173102D01*
X194545000Y-117373061D01*
X176022000Y-117373061D01*
X176022000Y-107803740D01*
X183935000Y-107803740D01*
X183935000Y-108096260D01*
X183992068Y-108383158D01*
X184104010Y-108653411D01*
X184266525Y-108896632D01*
X184473368Y-109103475D01*
X184647760Y-109220000D01*
X184473368Y-109336525D01*
X184266525Y-109543368D01*
X184104010Y-109786589D01*
X183992068Y-110056842D01*
X183935000Y-110343740D01*
X183935000Y-110636260D01*
X183992068Y-110923158D01*
X184104010Y-111193411D01*
X184266525Y-111436632D01*
X184473368Y-111643475D01*
X184647760Y-111760000D01*
X184473368Y-111876525D01*
X184266525Y-112083368D01*
X184104010Y-112326589D01*
X183992068Y-112596842D01*
X183935000Y-112883740D01*
X183935000Y-113176260D01*
X183992068Y-113463158D01*
X184104010Y-113733411D01*
X184266525Y-113976632D01*
X184473368Y-114183475D01*
X184716589Y-114345990D01*
X184986842Y-114457932D01*
X185273740Y-114515000D01*
X185566260Y-114515000D01*
X185853158Y-114457932D01*
X186123411Y-114345990D01*
X186366632Y-114183475D01*
X186573475Y-113976632D01*
X186735990Y-113733411D01*
X186847932Y-113463158D01*
X186905000Y-113176260D01*
X186905000Y-112883740D01*
X186847932Y-112596842D01*
X186735990Y-112326589D01*
X186573475Y-112083368D01*
X186366632Y-111876525D01*
X186192240Y-111760000D01*
X186366632Y-111643475D01*
X186573475Y-111436632D01*
X186735990Y-111193411D01*
X186847932Y-110923158D01*
X186905000Y-110636260D01*
X186905000Y-110343740D01*
X186847932Y-110056842D01*
X186735990Y-109786589D01*
X186573475Y-109543368D01*
X186366632Y-109336525D01*
X186192240Y-109220000D01*
X186366632Y-109103475D01*
X186573475Y-108896632D01*
X186735990Y-108653411D01*
X186847932Y-108383158D01*
X186905000Y-108096260D01*
X186905000Y-107803740D01*
X194095000Y-107803740D01*
X194095000Y-108096260D01*
X194152068Y-108383158D01*
X194264010Y-108653411D01*
X194426525Y-108896632D01*
X194633368Y-109103475D01*
X194807760Y-109220000D01*
X194633368Y-109336525D01*
X194426525Y-109543368D01*
X194264010Y-109786589D01*
X194152068Y-110056842D01*
X194095000Y-110343740D01*
X194095000Y-110636260D01*
X194152068Y-110923158D01*
X194264010Y-111193411D01*
X194426525Y-111436632D01*
X194633368Y-111643475D01*
X194807760Y-111760000D01*
X194633368Y-111876525D01*
X194426525Y-112083368D01*
X194264010Y-112326589D01*
X194152068Y-112596842D01*
X194095000Y-112883740D01*
X194095000Y-113176260D01*
X194152068Y-113463158D01*
X194264010Y-113733411D01*
X194426525Y-113976632D01*
X194633368Y-114183475D01*
X194876589Y-114345990D01*
X195146842Y-114457932D01*
X195433740Y-114515000D01*
X195726260Y-114515000D01*
X196013158Y-114457932D01*
X196283411Y-114345990D01*
X196526632Y-114183475D01*
X196733475Y-113976632D01*
X196895990Y-113733411D01*
X197007932Y-113463158D01*
X197065000Y-113176260D01*
X197065000Y-112883740D01*
X197007932Y-112596842D01*
X196895990Y-112326589D01*
X196733475Y-112083368D01*
X196526632Y-111876525D01*
X196352240Y-111760000D01*
X196526632Y-111643475D01*
X196733475Y-111436632D01*
X196895990Y-111193411D01*
X197007932Y-110923158D01*
X197065000Y-110636260D01*
X197065000Y-110343740D01*
X197007932Y-110056842D01*
X196895990Y-109786589D01*
X196733475Y-109543368D01*
X196526632Y-109336525D01*
X196352240Y-109220000D01*
X196526632Y-109103475D01*
X196733475Y-108896632D01*
X196895990Y-108653411D01*
X197007932Y-108383158D01*
X197065000Y-108096260D01*
X197065000Y-107803740D01*
X197007932Y-107516842D01*
X196895990Y-107246589D01*
X196733475Y-107003368D01*
X196526632Y-106796525D01*
X196283411Y-106634010D01*
X196281905Y-106633386D01*
X196326012Y-106515222D01*
X195580000Y-105769210D01*
X194833988Y-106515222D01*
X194878095Y-106633386D01*
X194876589Y-106634010D01*
X194633368Y-106796525D01*
X194426525Y-107003368D01*
X194264010Y-107246589D01*
X194152068Y-107516842D01*
X194095000Y-107803740D01*
X186905000Y-107803740D01*
X186847932Y-107516842D01*
X186735990Y-107246589D01*
X186573475Y-107003368D01*
X186366632Y-106796525D01*
X186123411Y-106634010D01*
X186121905Y-106633386D01*
X186166012Y-106515222D01*
X185420000Y-105769210D01*
X184673988Y-106515222D01*
X184718095Y-106633386D01*
X184716589Y-106634010D01*
X184473368Y-106796525D01*
X184266525Y-107003368D01*
X184104010Y-107246589D01*
X183992068Y-107516842D01*
X183935000Y-107803740D01*
X176022000Y-107803740D01*
X176022000Y-105313722D01*
X183930925Y-105313722D01*
X183940755Y-105606076D01*
X184007430Y-105890895D01*
X184081118Y-106068794D01*
X184314778Y-106156012D01*
X185060790Y-105410000D01*
X185779210Y-105410000D01*
X186525222Y-106156012D01*
X186758882Y-106068794D01*
X186861680Y-105794933D01*
X186909075Y-105506278D01*
X186902601Y-105313722D01*
X194090925Y-105313722D01*
X194100755Y-105606076D01*
X194167430Y-105890895D01*
X194241118Y-106068794D01*
X194474778Y-106156012D01*
X195220790Y-105410000D01*
X195939210Y-105410000D01*
X196685222Y-106156012D01*
X196918882Y-106068794D01*
X197021680Y-105794933D01*
X197069075Y-105506278D01*
X197059245Y-105213924D01*
X196992570Y-104929105D01*
X196918882Y-104751206D01*
X196685222Y-104663988D01*
X195939210Y-105410000D01*
X195220790Y-105410000D01*
X194474778Y-104663988D01*
X194241118Y-104751206D01*
X194138320Y-105025067D01*
X194090925Y-105313722D01*
X186902601Y-105313722D01*
X186899245Y-105213924D01*
X186832570Y-104929105D01*
X186758882Y-104751206D01*
X186525222Y-104663988D01*
X185779210Y-105410000D01*
X185060790Y-105410000D01*
X184314778Y-104663988D01*
X184081118Y-104751206D01*
X183978320Y-105025067D01*
X183930925Y-105313722D01*
X176022000Y-105313722D01*
X176022000Y-100183740D01*
X183935000Y-100183740D01*
X183935000Y-100476260D01*
X183992068Y-100763158D01*
X184104010Y-101033411D01*
X184266525Y-101276632D01*
X184473368Y-101483475D01*
X184647760Y-101600000D01*
X184473368Y-101716525D01*
X184266525Y-101923368D01*
X184104010Y-102166589D01*
X183992068Y-102436842D01*
X183935000Y-102723740D01*
X183935000Y-103016260D01*
X183992068Y-103303158D01*
X184104010Y-103573411D01*
X184266525Y-103816632D01*
X184473368Y-104023475D01*
X184716589Y-104185990D01*
X184718095Y-104186614D01*
X184673988Y-104304778D01*
X185420000Y-105050790D01*
X186166012Y-104304778D01*
X186121905Y-104186614D01*
X186123411Y-104185990D01*
X186366632Y-104023475D01*
X186573475Y-103816632D01*
X186735990Y-103573411D01*
X186847932Y-103303158D01*
X186905000Y-103016260D01*
X186905000Y-102723740D01*
X186847932Y-102436842D01*
X186735990Y-102166589D01*
X186573475Y-101923368D01*
X186366632Y-101716525D01*
X186192240Y-101600000D01*
X186366632Y-101483475D01*
X186573475Y-101276632D01*
X186735990Y-101033411D01*
X186847932Y-100763158D01*
X186905000Y-100476260D01*
X186905000Y-100183740D01*
X194095000Y-100183740D01*
X194095000Y-100476260D01*
X194152068Y-100763158D01*
X194264010Y-101033411D01*
X194426525Y-101276632D01*
X194633368Y-101483475D01*
X194807760Y-101600000D01*
X194633368Y-101716525D01*
X194426525Y-101923368D01*
X194264010Y-102166589D01*
X194152068Y-102436842D01*
X194095000Y-102723740D01*
X194095000Y-103016260D01*
X194152068Y-103303158D01*
X194264010Y-103573411D01*
X194426525Y-103816632D01*
X194633368Y-104023475D01*
X194876589Y-104185990D01*
X194878095Y-104186614D01*
X194833988Y-104304778D01*
X195580000Y-105050790D01*
X196326012Y-104304778D01*
X196281905Y-104186614D01*
X196283411Y-104185990D01*
X196526632Y-104023475D01*
X196733475Y-103816632D01*
X196814413Y-103695500D01*
X206382506Y-103695500D01*
X206519744Y-103787199D01*
X206708102Y-103865220D01*
X206908061Y-103904994D01*
X207111939Y-103904994D01*
X207311898Y-103865220D01*
X207500256Y-103787199D01*
X207669774Y-103673931D01*
X207813937Y-103529768D01*
X207927205Y-103360250D01*
X208005226Y-103171892D01*
X208045000Y-102971933D01*
X208045000Y-102768055D01*
X208005226Y-102568096D01*
X207927205Y-102379738D01*
X207813937Y-102210220D01*
X207669774Y-102066057D01*
X207500256Y-101952789D01*
X207311898Y-101874768D01*
X207111939Y-101834994D01*
X206908061Y-101834994D01*
X206708102Y-101874768D01*
X206519744Y-101952789D01*
X206382488Y-102044500D01*
X196814413Y-102044500D01*
X196733475Y-101923368D01*
X196526632Y-101716525D01*
X196352240Y-101600000D01*
X196504802Y-101498061D01*
X211690000Y-101498061D01*
X211690000Y-101701939D01*
X211729774Y-101901898D01*
X211807795Y-102090256D01*
X211921063Y-102259774D01*
X212065226Y-102403937D01*
X212234744Y-102517205D01*
X212423102Y-102595226D01*
X212623061Y-102635000D01*
X212826939Y-102635000D01*
X213026898Y-102595226D01*
X213215256Y-102517205D01*
X213384774Y-102403937D01*
X213528937Y-102259774D01*
X213642205Y-102090256D01*
X213720226Y-101901898D01*
X213752428Y-101740004D01*
X214550039Y-100942394D01*
X214581541Y-100916541D01*
X214660560Y-100820256D01*
X214684699Y-100790843D01*
X214711399Y-100740889D01*
X214761353Y-100647434D01*
X214808556Y-100491826D01*
X214820500Y-100370553D01*
X214820500Y-100370551D01*
X214824494Y-100330001D01*
X214820500Y-100289450D01*
X214820500Y-96836344D01*
X214859606Y-96875450D01*
X215053692Y-97005134D01*
X215269348Y-97094461D01*
X215498288Y-97140000D01*
X215731712Y-97140000D01*
X215960652Y-97094461D01*
X216176308Y-97005134D01*
X216370394Y-96875450D01*
X216535450Y-96710394D01*
X216665134Y-96516308D01*
X216754461Y-96300652D01*
X216800000Y-96071712D01*
X216800000Y-95838288D01*
X216754461Y-95609348D01*
X216665134Y-95393692D01*
X216535450Y-95199606D01*
X216370394Y-95034550D01*
X216176308Y-94904866D01*
X215960652Y-94815539D01*
X215731712Y-94770000D01*
X215498288Y-94770000D01*
X215442245Y-94781148D01*
X215443556Y-94776826D01*
X215455500Y-94655553D01*
X215455500Y-94655551D01*
X215459494Y-94615000D01*
X215458337Y-94603256D01*
X215547205Y-94470256D01*
X215625226Y-94281898D01*
X215665000Y-94081939D01*
X215665000Y-93878061D01*
X215625226Y-93678102D01*
X215547205Y-93489744D01*
X215433937Y-93320226D01*
X215289774Y-93176063D01*
X215120256Y-93062795D01*
X214931898Y-92984774D01*
X214731939Y-92945000D01*
X214528061Y-92945000D01*
X214328102Y-92984774D01*
X214139744Y-93062795D01*
X213970226Y-93176063D01*
X213826063Y-93320226D01*
X213712795Y-93489744D01*
X213634774Y-93678102D01*
X213595000Y-93878061D01*
X213595000Y-94081939D01*
X213634774Y-94281898D01*
X213681899Y-94395668D01*
X213439965Y-94637603D01*
X213408459Y-94663459D01*
X213339214Y-94747835D01*
X213305301Y-94789158D01*
X213243454Y-94904866D01*
X213228647Y-94932567D01*
X213181444Y-95088175D01*
X213170279Y-95201541D01*
X213165506Y-95250000D01*
X213169500Y-95290551D01*
X213169501Y-99988066D01*
X212584996Y-100572572D01*
X212423102Y-100604774D01*
X212234744Y-100682795D01*
X212065226Y-100796063D01*
X211921063Y-100940226D01*
X211807795Y-101109744D01*
X211729774Y-101298102D01*
X211690000Y-101498061D01*
X196504802Y-101498061D01*
X196526632Y-101483475D01*
X196733475Y-101276632D01*
X196814413Y-101155500D01*
X206382497Y-101155500D01*
X206519744Y-101247205D01*
X206708102Y-101325226D01*
X206908061Y-101365000D01*
X207111939Y-101365000D01*
X207311898Y-101325226D01*
X207500256Y-101247205D01*
X207669774Y-101133937D01*
X207813937Y-100989774D01*
X207927205Y-100820256D01*
X208005226Y-100631898D01*
X208045000Y-100431939D01*
X208045000Y-100228061D01*
X208005226Y-100028102D01*
X207927205Y-99839744D01*
X207813937Y-99670226D01*
X207669774Y-99526063D01*
X207500256Y-99412795D01*
X207311898Y-99334774D01*
X207111939Y-99295000D01*
X206908061Y-99295000D01*
X206708102Y-99334774D01*
X206519744Y-99412795D01*
X206382497Y-99504500D01*
X196814413Y-99504500D01*
X196733475Y-99383368D01*
X196526632Y-99176525D01*
X196283411Y-99014010D01*
X196013158Y-98902068D01*
X195726260Y-98845000D01*
X195433740Y-98845000D01*
X195146842Y-98902068D01*
X194876589Y-99014010D01*
X194633368Y-99176525D01*
X194426525Y-99383368D01*
X194264010Y-99626589D01*
X194152068Y-99896842D01*
X194095000Y-100183740D01*
X186905000Y-100183740D01*
X186847932Y-99896842D01*
X186735990Y-99626589D01*
X186573475Y-99383368D01*
X186366632Y-99176525D01*
X186123411Y-99014010D01*
X185853158Y-98902068D01*
X185566260Y-98845000D01*
X185273740Y-98845000D01*
X184986842Y-98902068D01*
X184716589Y-99014010D01*
X184473368Y-99176525D01*
X184266525Y-99383368D01*
X184104010Y-99626589D01*
X183992068Y-99896842D01*
X183935000Y-100183740D01*
X176022000Y-100183740D01*
X176022000Y-98477606D01*
X179757606Y-94742000D01*
X195580000Y-94742000D01*
X195604776Y-94739560D01*
X195628601Y-94732333D01*
X195650557Y-94720597D01*
X195669803Y-94704803D01*
X195685597Y-94685557D01*
X195697333Y-94663601D01*
X195704560Y-94639776D01*
X195707000Y-94615000D01*
X195707000Y-74813665D01*
X214180000Y-74813665D01*
X214180000Y-75096335D01*
X214235147Y-75373574D01*
X214343320Y-75634727D01*
X214500363Y-75869759D01*
X214700241Y-76069637D01*
X214935273Y-76226680D01*
X215196426Y-76334853D01*
X215473665Y-76390000D01*
X215756335Y-76390000D01*
X216033574Y-76334853D01*
X216294727Y-76226680D01*
X216529759Y-76069637D01*
X216729637Y-75869759D01*
X216886680Y-75634727D01*
X216994853Y-75373574D01*
X217050000Y-75096335D01*
X217050000Y-74813665D01*
X216994853Y-74536426D01*
X216886680Y-74275273D01*
X216729637Y-74040241D01*
X216529759Y-73840363D01*
X216294727Y-73683320D01*
X216033574Y-73575147D01*
X215756335Y-73520000D01*
X215473665Y-73520000D01*
X215196426Y-73575147D01*
X214935273Y-73683320D01*
X214700241Y-73840363D01*
X214500363Y-74040241D01*
X214343320Y-74275273D01*
X214235147Y-74536426D01*
X214180000Y-74813665D01*
X195707000Y-74813665D01*
X195707000Y-72005670D01*
X195735245Y-72017368D01*
X195961000Y-71913700D01*
X195961000Y-70866000D01*
X196469000Y-70866000D01*
X196469000Y-71913700D01*
X196694755Y-72017368D01*
X196869514Y-71944990D01*
X197116991Y-71791688D01*
X197329805Y-71593051D01*
X197499778Y-71356713D01*
X197620378Y-71091756D01*
X197519376Y-70866000D01*
X196469000Y-70866000D01*
X195961000Y-70866000D01*
X195941000Y-70866000D01*
X195941000Y-70358000D01*
X195961000Y-70358000D01*
X195961000Y-69310300D01*
X196469000Y-69310300D01*
X196469000Y-70358000D01*
X197519376Y-70358000D01*
X197620378Y-70132244D01*
X197499778Y-69867287D01*
X197329805Y-69630949D01*
X197116991Y-69432312D01*
X196869514Y-69279010D01*
X196694755Y-69206632D01*
X196469000Y-69310300D01*
X195961000Y-69310300D01*
X195735245Y-69206632D01*
X195707000Y-69218330D01*
X195707000Y-64262000D01*
X237998000Y-64262000D01*
X237998000Y-126238000D01*
%TA.AperFunction,Conductor*%
D26*
G36*
X237998000Y-126238000D02*
G01*
X176022000Y-126238000D01*
X176022000Y-119487740D01*
X200826000Y-119487740D01*
X200826000Y-119780260D01*
X200883068Y-120067158D01*
X200995010Y-120337411D01*
X201157525Y-120580632D01*
X201364368Y-120787475D01*
X201607589Y-120949990D01*
X201877842Y-121061932D01*
X202164740Y-121119000D01*
X202457260Y-121119000D01*
X202744158Y-121061932D01*
X203014411Y-120949990D01*
X203257632Y-120787475D01*
X203464475Y-120580632D01*
X203583417Y-120402622D01*
X203736195Y-120615051D01*
X203949009Y-120813688D01*
X204196486Y-120966990D01*
X204371245Y-121039368D01*
X204597000Y-120935700D01*
X204597000Y-119888000D01*
X204577000Y-119888000D01*
X204577000Y-119380000D01*
X204597000Y-119380000D01*
X204597000Y-118332300D01*
X205105000Y-118332300D01*
X205105000Y-119380000D01*
X205125000Y-119380000D01*
X205125000Y-119888000D01*
X205105000Y-119888000D01*
X205105000Y-120935700D01*
X205330755Y-121039368D01*
X205505514Y-120966990D01*
X205752991Y-120813688D01*
X205927910Y-120650421D01*
X205951498Y-120728180D01*
X206010463Y-120838494D01*
X206089815Y-120935185D01*
X206186506Y-121014537D01*
X206296820Y-121073502D01*
X206416518Y-121109812D01*
X206541000Y-121122072D01*
X208241000Y-121122072D01*
X208365482Y-121109812D01*
X208485180Y-121073502D01*
X208595494Y-121014537D01*
X208692185Y-120935185D01*
X208771537Y-120838494D01*
X208830502Y-120728180D01*
X208866812Y-120608482D01*
X208879072Y-120484000D01*
X208879072Y-118784000D01*
X208866812Y-118659518D01*
X208830502Y-118539820D01*
X208771537Y-118429506D01*
X208692185Y-118332815D01*
X208595494Y-118253463D01*
X208485180Y-118194498D01*
X208365482Y-118158188D01*
X208241000Y-118145928D01*
X206541000Y-118145928D01*
X206416518Y-118158188D01*
X206296820Y-118194498D01*
X206186506Y-118253463D01*
X206089815Y-118332815D01*
X206010463Y-118429506D01*
X205951498Y-118539820D01*
X205927910Y-118617579D01*
X205752991Y-118454312D01*
X205505514Y-118301010D01*
X205330755Y-118228632D01*
X205105000Y-118332300D01*
X204597000Y-118332300D01*
X204371245Y-118228632D01*
X204196486Y-118301010D01*
X203949009Y-118454312D01*
X203736195Y-118652949D01*
X203583417Y-118865378D01*
X203464475Y-118687368D01*
X203257632Y-118480525D01*
X203014411Y-118318010D01*
X202744158Y-118206068D01*
X202457260Y-118149000D01*
X202164740Y-118149000D01*
X201877842Y-118206068D01*
X201607589Y-118318010D01*
X201364368Y-118480525D01*
X201157525Y-118687368D01*
X200995010Y-118930589D01*
X200883068Y-119200842D01*
X200826000Y-119487740D01*
X176022000Y-119487740D01*
X176022000Y-117373061D01*
X194545000Y-117373061D01*
X194545000Y-117576939D01*
X194584774Y-117776898D01*
X194662795Y-117965256D01*
X194776063Y-118134774D01*
X194920226Y-118278937D01*
X195089744Y-118392205D01*
X195278102Y-118470226D01*
X195478061Y-118510000D01*
X195681939Y-118510000D01*
X195881898Y-118470226D01*
X196070256Y-118392205D01*
X196239774Y-118278937D01*
X196383937Y-118134774D01*
X196497205Y-117965256D01*
X196575226Y-117776898D01*
X196585130Y-117727105D01*
X197737106Y-116575130D01*
X197786898Y-116565226D01*
X197975256Y-116487205D01*
X198144774Y-116373937D01*
X198288937Y-116229774D01*
X198402205Y-116060256D01*
X198480226Y-115871898D01*
X198520000Y-115671939D01*
X198520000Y-115468061D01*
X198480226Y-115268102D01*
X198402205Y-115079744D01*
X198288937Y-114910226D01*
X198144774Y-114766063D01*
X197975256Y-114652795D01*
X197786898Y-114574774D01*
X197586939Y-114535000D01*
X197383061Y-114535000D01*
X197183102Y-114574774D01*
X196994744Y-114652795D01*
X196825226Y-114766063D01*
X196681063Y-114910226D01*
X196567795Y-115079744D01*
X196489774Y-115268102D01*
X196479870Y-115317894D01*
X195327895Y-116469870D01*
X195278102Y-116479774D01*
X195089744Y-116557795D01*
X194920226Y-116671063D01*
X194776063Y-116815226D01*
X194662795Y-116984744D01*
X194584774Y-117173102D01*
X194545000Y-117373061D01*
X176022000Y-117373061D01*
X176022000Y-107803740D01*
X183935000Y-107803740D01*
X183935000Y-108096260D01*
X183992068Y-108383158D01*
X184104010Y-108653411D01*
X184266525Y-108896632D01*
X184473368Y-109103475D01*
X184647760Y-109220000D01*
X184473368Y-109336525D01*
X184266525Y-109543368D01*
X184104010Y-109786589D01*
X183992068Y-110056842D01*
X183935000Y-110343740D01*
X183935000Y-110636260D01*
X183992068Y-110923158D01*
X184104010Y-111193411D01*
X184266525Y-111436632D01*
X184473368Y-111643475D01*
X184647760Y-111760000D01*
X184473368Y-111876525D01*
X184266525Y-112083368D01*
X184104010Y-112326589D01*
X183992068Y-112596842D01*
X183935000Y-112883740D01*
X183935000Y-113176260D01*
X183992068Y-113463158D01*
X184104010Y-113733411D01*
X184266525Y-113976632D01*
X184473368Y-114183475D01*
X184716589Y-114345990D01*
X184986842Y-114457932D01*
X185273740Y-114515000D01*
X185566260Y-114515000D01*
X185853158Y-114457932D01*
X186123411Y-114345990D01*
X186366632Y-114183475D01*
X186573475Y-113976632D01*
X186735990Y-113733411D01*
X186847932Y-113463158D01*
X186905000Y-113176260D01*
X186905000Y-112883740D01*
X186847932Y-112596842D01*
X186735990Y-112326589D01*
X186573475Y-112083368D01*
X186366632Y-111876525D01*
X186192240Y-111760000D01*
X186366632Y-111643475D01*
X186573475Y-111436632D01*
X186735990Y-111193411D01*
X186847932Y-110923158D01*
X186905000Y-110636260D01*
X186905000Y-110343740D01*
X186847932Y-110056842D01*
X186735990Y-109786589D01*
X186573475Y-109543368D01*
X186366632Y-109336525D01*
X186192240Y-109220000D01*
X186366632Y-109103475D01*
X186573475Y-108896632D01*
X186735990Y-108653411D01*
X186847932Y-108383158D01*
X186905000Y-108096260D01*
X186905000Y-107803740D01*
X194095000Y-107803740D01*
X194095000Y-108096260D01*
X194152068Y-108383158D01*
X194264010Y-108653411D01*
X194426525Y-108896632D01*
X194633368Y-109103475D01*
X194807760Y-109220000D01*
X194633368Y-109336525D01*
X194426525Y-109543368D01*
X194264010Y-109786589D01*
X194152068Y-110056842D01*
X194095000Y-110343740D01*
X194095000Y-110636260D01*
X194152068Y-110923158D01*
X194264010Y-111193411D01*
X194426525Y-111436632D01*
X194633368Y-111643475D01*
X194807760Y-111760000D01*
X194633368Y-111876525D01*
X194426525Y-112083368D01*
X194264010Y-112326589D01*
X194152068Y-112596842D01*
X194095000Y-112883740D01*
X194095000Y-113176260D01*
X194152068Y-113463158D01*
X194264010Y-113733411D01*
X194426525Y-113976632D01*
X194633368Y-114183475D01*
X194876589Y-114345990D01*
X195146842Y-114457932D01*
X195433740Y-114515000D01*
X195726260Y-114515000D01*
X196013158Y-114457932D01*
X196283411Y-114345990D01*
X196526632Y-114183475D01*
X196733475Y-113976632D01*
X196895990Y-113733411D01*
X197007932Y-113463158D01*
X197065000Y-113176260D01*
X197065000Y-112883740D01*
X197007932Y-112596842D01*
X196895990Y-112326589D01*
X196733475Y-112083368D01*
X196526632Y-111876525D01*
X196352240Y-111760000D01*
X196526632Y-111643475D01*
X196733475Y-111436632D01*
X196895990Y-111193411D01*
X197007932Y-110923158D01*
X197065000Y-110636260D01*
X197065000Y-110343740D01*
X197007932Y-110056842D01*
X196895990Y-109786589D01*
X196733475Y-109543368D01*
X196526632Y-109336525D01*
X196352240Y-109220000D01*
X196526632Y-109103475D01*
X196733475Y-108896632D01*
X196895990Y-108653411D01*
X197007932Y-108383158D01*
X197065000Y-108096260D01*
X197065000Y-107803740D01*
X197007932Y-107516842D01*
X196895990Y-107246589D01*
X196733475Y-107003368D01*
X196526632Y-106796525D01*
X196283411Y-106634010D01*
X196281905Y-106633386D01*
X196326012Y-106515222D01*
X195580000Y-105769210D01*
X194833988Y-106515222D01*
X194878095Y-106633386D01*
X194876589Y-106634010D01*
X194633368Y-106796525D01*
X194426525Y-107003368D01*
X194264010Y-107246589D01*
X194152068Y-107516842D01*
X194095000Y-107803740D01*
X186905000Y-107803740D01*
X186847932Y-107516842D01*
X186735990Y-107246589D01*
X186573475Y-107003368D01*
X186366632Y-106796525D01*
X186123411Y-106634010D01*
X186121905Y-106633386D01*
X186166012Y-106515222D01*
X185420000Y-105769210D01*
X184673988Y-106515222D01*
X184718095Y-106633386D01*
X184716589Y-106634010D01*
X184473368Y-106796525D01*
X184266525Y-107003368D01*
X184104010Y-107246589D01*
X183992068Y-107516842D01*
X183935000Y-107803740D01*
X176022000Y-107803740D01*
X176022000Y-105313722D01*
X183930925Y-105313722D01*
X183940755Y-105606076D01*
X184007430Y-105890895D01*
X184081118Y-106068794D01*
X184314778Y-106156012D01*
X185060790Y-105410000D01*
X185779210Y-105410000D01*
X186525222Y-106156012D01*
X186758882Y-106068794D01*
X186861680Y-105794933D01*
X186909075Y-105506278D01*
X186902601Y-105313722D01*
X194090925Y-105313722D01*
X194100755Y-105606076D01*
X194167430Y-105890895D01*
X194241118Y-106068794D01*
X194474778Y-106156012D01*
X195220790Y-105410000D01*
X195939210Y-105410000D01*
X196685222Y-106156012D01*
X196918882Y-106068794D01*
X197021680Y-105794933D01*
X197069075Y-105506278D01*
X197059245Y-105213924D01*
X196992570Y-104929105D01*
X196918882Y-104751206D01*
X196685222Y-104663988D01*
X195939210Y-105410000D01*
X195220790Y-105410000D01*
X194474778Y-104663988D01*
X194241118Y-104751206D01*
X194138320Y-105025067D01*
X194090925Y-105313722D01*
X186902601Y-105313722D01*
X186899245Y-105213924D01*
X186832570Y-104929105D01*
X186758882Y-104751206D01*
X186525222Y-104663988D01*
X185779210Y-105410000D01*
X185060790Y-105410000D01*
X184314778Y-104663988D01*
X184081118Y-104751206D01*
X183978320Y-105025067D01*
X183930925Y-105313722D01*
X176022000Y-105313722D01*
X176022000Y-100183740D01*
X183935000Y-100183740D01*
X183935000Y-100476260D01*
X183992068Y-100763158D01*
X184104010Y-101033411D01*
X184266525Y-101276632D01*
X184473368Y-101483475D01*
X184647760Y-101600000D01*
X184473368Y-101716525D01*
X184266525Y-101923368D01*
X184104010Y-102166589D01*
X183992068Y-102436842D01*
X183935000Y-102723740D01*
X183935000Y-103016260D01*
X183992068Y-103303158D01*
X184104010Y-103573411D01*
X184266525Y-103816632D01*
X184473368Y-104023475D01*
X184716589Y-104185990D01*
X184718095Y-104186614D01*
X184673988Y-104304778D01*
X185420000Y-105050790D01*
X186166012Y-104304778D01*
X186121905Y-104186614D01*
X186123411Y-104185990D01*
X186366632Y-104023475D01*
X186573475Y-103816632D01*
X186735990Y-103573411D01*
X186847932Y-103303158D01*
X186905000Y-103016260D01*
X186905000Y-102723740D01*
X186847932Y-102436842D01*
X186735990Y-102166589D01*
X186573475Y-101923368D01*
X186366632Y-101716525D01*
X186192240Y-101600000D01*
X186366632Y-101483475D01*
X186573475Y-101276632D01*
X186735990Y-101033411D01*
X186847932Y-100763158D01*
X186905000Y-100476260D01*
X186905000Y-100183740D01*
X194095000Y-100183740D01*
X194095000Y-100476260D01*
X194152068Y-100763158D01*
X194264010Y-101033411D01*
X194426525Y-101276632D01*
X194633368Y-101483475D01*
X194807760Y-101600000D01*
X194633368Y-101716525D01*
X194426525Y-101923368D01*
X194264010Y-102166589D01*
X194152068Y-102436842D01*
X194095000Y-102723740D01*
X194095000Y-103016260D01*
X194152068Y-103303158D01*
X194264010Y-103573411D01*
X194426525Y-103816632D01*
X194633368Y-104023475D01*
X194876589Y-104185990D01*
X194878095Y-104186614D01*
X194833988Y-104304778D01*
X195580000Y-105050790D01*
X196326012Y-104304778D01*
X196281905Y-104186614D01*
X196283411Y-104185990D01*
X196526632Y-104023475D01*
X196733475Y-103816632D01*
X196814413Y-103695500D01*
X206382506Y-103695500D01*
X206519744Y-103787199D01*
X206708102Y-103865220D01*
X206908061Y-103904994D01*
X207111939Y-103904994D01*
X207311898Y-103865220D01*
X207500256Y-103787199D01*
X207669774Y-103673931D01*
X207813937Y-103529768D01*
X207927205Y-103360250D01*
X208005226Y-103171892D01*
X208045000Y-102971933D01*
X208045000Y-102768055D01*
X208005226Y-102568096D01*
X207927205Y-102379738D01*
X207813937Y-102210220D01*
X207669774Y-102066057D01*
X207500256Y-101952789D01*
X207311898Y-101874768D01*
X207111939Y-101834994D01*
X206908061Y-101834994D01*
X206708102Y-101874768D01*
X206519744Y-101952789D01*
X206382488Y-102044500D01*
X196814413Y-102044500D01*
X196733475Y-101923368D01*
X196526632Y-101716525D01*
X196352240Y-101600000D01*
X196504802Y-101498061D01*
X211690000Y-101498061D01*
X211690000Y-101701939D01*
X211729774Y-101901898D01*
X211807795Y-102090256D01*
X211921063Y-102259774D01*
X212065226Y-102403937D01*
X212234744Y-102517205D01*
X212423102Y-102595226D01*
X212623061Y-102635000D01*
X212826939Y-102635000D01*
X213026898Y-102595226D01*
X213215256Y-102517205D01*
X213384774Y-102403937D01*
X213528937Y-102259774D01*
X213642205Y-102090256D01*
X213720226Y-101901898D01*
X213752428Y-101740004D01*
X214550039Y-100942394D01*
X214581541Y-100916541D01*
X214660560Y-100820256D01*
X214684699Y-100790843D01*
X214711399Y-100740889D01*
X214761353Y-100647434D01*
X214808556Y-100491826D01*
X214820500Y-100370553D01*
X214820500Y-100370551D01*
X214824494Y-100330001D01*
X214820500Y-100289450D01*
X214820500Y-96836344D01*
X214859606Y-96875450D01*
X215053692Y-97005134D01*
X215269348Y-97094461D01*
X215498288Y-97140000D01*
X215731712Y-97140000D01*
X215960652Y-97094461D01*
X216176308Y-97005134D01*
X216370394Y-96875450D01*
X216535450Y-96710394D01*
X216665134Y-96516308D01*
X216754461Y-96300652D01*
X216800000Y-96071712D01*
X216800000Y-95838288D01*
X216754461Y-95609348D01*
X216665134Y-95393692D01*
X216535450Y-95199606D01*
X216370394Y-95034550D01*
X216176308Y-94904866D01*
X215960652Y-94815539D01*
X215731712Y-94770000D01*
X215498288Y-94770000D01*
X215442245Y-94781148D01*
X215443556Y-94776826D01*
X215455500Y-94655553D01*
X215455500Y-94655551D01*
X215459494Y-94615000D01*
X215458337Y-94603256D01*
X215547205Y-94470256D01*
X215625226Y-94281898D01*
X215665000Y-94081939D01*
X215665000Y-93878061D01*
X215625226Y-93678102D01*
X215547205Y-93489744D01*
X215433937Y-93320226D01*
X215289774Y-93176063D01*
X215120256Y-93062795D01*
X214931898Y-92984774D01*
X214731939Y-92945000D01*
X214528061Y-92945000D01*
X214328102Y-92984774D01*
X214139744Y-93062795D01*
X213970226Y-93176063D01*
X213826063Y-93320226D01*
X213712795Y-93489744D01*
X213634774Y-93678102D01*
X213595000Y-93878061D01*
X213595000Y-94081939D01*
X213634774Y-94281898D01*
X213681899Y-94395668D01*
X213439965Y-94637603D01*
X213408459Y-94663459D01*
X213339214Y-94747835D01*
X213305301Y-94789158D01*
X213243454Y-94904866D01*
X213228647Y-94932567D01*
X213181444Y-95088175D01*
X213170279Y-95201541D01*
X213165506Y-95250000D01*
X213169500Y-95290551D01*
X213169501Y-99988066D01*
X212584996Y-100572572D01*
X212423102Y-100604774D01*
X212234744Y-100682795D01*
X212065226Y-100796063D01*
X211921063Y-100940226D01*
X211807795Y-101109744D01*
X211729774Y-101298102D01*
X211690000Y-101498061D01*
X196504802Y-101498061D01*
X196526632Y-101483475D01*
X196733475Y-101276632D01*
X196814413Y-101155500D01*
X206382497Y-101155500D01*
X206519744Y-101247205D01*
X206708102Y-101325226D01*
X206908061Y-101365000D01*
X207111939Y-101365000D01*
X207311898Y-101325226D01*
X207500256Y-101247205D01*
X207669774Y-101133937D01*
X207813937Y-100989774D01*
X207927205Y-100820256D01*
X208005226Y-100631898D01*
X208045000Y-100431939D01*
X208045000Y-100228061D01*
X208005226Y-100028102D01*
X207927205Y-99839744D01*
X207813937Y-99670226D01*
X207669774Y-99526063D01*
X207500256Y-99412795D01*
X207311898Y-99334774D01*
X207111939Y-99295000D01*
X206908061Y-99295000D01*
X206708102Y-99334774D01*
X206519744Y-99412795D01*
X206382497Y-99504500D01*
X196814413Y-99504500D01*
X196733475Y-99383368D01*
X196526632Y-99176525D01*
X196283411Y-99014010D01*
X196013158Y-98902068D01*
X195726260Y-98845000D01*
X195433740Y-98845000D01*
X195146842Y-98902068D01*
X194876589Y-99014010D01*
X194633368Y-99176525D01*
X194426525Y-99383368D01*
X194264010Y-99626589D01*
X194152068Y-99896842D01*
X194095000Y-100183740D01*
X186905000Y-100183740D01*
X186847932Y-99896842D01*
X186735990Y-99626589D01*
X186573475Y-99383368D01*
X186366632Y-99176525D01*
X186123411Y-99014010D01*
X185853158Y-98902068D01*
X185566260Y-98845000D01*
X185273740Y-98845000D01*
X184986842Y-98902068D01*
X184716589Y-99014010D01*
X184473368Y-99176525D01*
X184266525Y-99383368D01*
X184104010Y-99626589D01*
X183992068Y-99896842D01*
X183935000Y-100183740D01*
X176022000Y-100183740D01*
X176022000Y-98477606D01*
X179757606Y-94742000D01*
X195580000Y-94742000D01*
X195604776Y-94739560D01*
X195628601Y-94732333D01*
X195650557Y-94720597D01*
X195669803Y-94704803D01*
X195685597Y-94685557D01*
X195697333Y-94663601D01*
X195704560Y-94639776D01*
X195707000Y-94615000D01*
X195707000Y-74813665D01*
X214180000Y-74813665D01*
X214180000Y-75096335D01*
X214235147Y-75373574D01*
X214343320Y-75634727D01*
X214500363Y-75869759D01*
X214700241Y-76069637D01*
X214935273Y-76226680D01*
X215196426Y-76334853D01*
X215473665Y-76390000D01*
X215756335Y-76390000D01*
X216033574Y-76334853D01*
X216294727Y-76226680D01*
X216529759Y-76069637D01*
X216729637Y-75869759D01*
X216886680Y-75634727D01*
X216994853Y-75373574D01*
X217050000Y-75096335D01*
X217050000Y-74813665D01*
X216994853Y-74536426D01*
X216886680Y-74275273D01*
X216729637Y-74040241D01*
X216529759Y-73840363D01*
X216294727Y-73683320D01*
X216033574Y-73575147D01*
X215756335Y-73520000D01*
X215473665Y-73520000D01*
X215196426Y-73575147D01*
X214935273Y-73683320D01*
X214700241Y-73840363D01*
X214500363Y-74040241D01*
X214343320Y-74275273D01*
X214235147Y-74536426D01*
X214180000Y-74813665D01*
X195707000Y-74813665D01*
X195707000Y-72005670D01*
X195735245Y-72017368D01*
X195961000Y-71913700D01*
X195961000Y-70866000D01*
X196469000Y-70866000D01*
X196469000Y-71913700D01*
X196694755Y-72017368D01*
X196869514Y-71944990D01*
X197116991Y-71791688D01*
X197329805Y-71593051D01*
X197499778Y-71356713D01*
X197620378Y-71091756D01*
X197519376Y-70866000D01*
X196469000Y-70866000D01*
X195961000Y-70866000D01*
X195941000Y-70866000D01*
X195941000Y-70358000D01*
X195961000Y-70358000D01*
X195961000Y-69310300D01*
X196469000Y-69310300D01*
X196469000Y-70358000D01*
X197519376Y-70358000D01*
X197620378Y-70132244D01*
X197499778Y-69867287D01*
X197329805Y-69630949D01*
X197116991Y-69432312D01*
X196869514Y-69279010D01*
X196694755Y-69206632D01*
X196469000Y-69310300D01*
X195961000Y-69310300D01*
X195735245Y-69206632D01*
X195707000Y-69218330D01*
X195707000Y-64262000D01*
X237998000Y-64262000D01*
X237998000Y-126238000D01*
G37*
%TD.AperFunction*%
%TD*%
D25*
%TO.N,GND*%
X197993000Y-93218000D02*
X184550559Y-93218000D01*
X184644482Y-92991250D01*
X184715000Y-92636732D01*
X184715000Y-92275268D01*
X184644482Y-91920750D01*
X184506156Y-91586801D01*
X184305338Y-91286256D01*
X184049744Y-91030662D01*
X183749199Y-90829844D01*
X183415250Y-90691518D01*
X183060732Y-90621000D01*
X182699268Y-90621000D01*
X182344750Y-90691518D01*
X182010801Y-90829844D01*
X181710256Y-91030662D01*
X181454662Y-91286256D01*
X181253844Y-91586801D01*
X181115518Y-91920750D01*
X181045000Y-92275268D01*
X181045000Y-92636732D01*
X181115518Y-92991250D01*
X181209441Y-93218000D01*
X179832000Y-93218000D01*
X179832000Y-81096000D01*
X181041928Y-81096000D01*
X181041928Y-83496000D01*
X181054188Y-83620482D01*
X181090498Y-83740180D01*
X181149463Y-83850494D01*
X181228815Y-83947185D01*
X181325506Y-84026537D01*
X181435820Y-84085502D01*
X181555518Y-84121812D01*
X181680000Y-84134072D01*
X184080000Y-84134072D01*
X184204482Y-84121812D01*
X184324180Y-84085502D01*
X184434494Y-84026537D01*
X184531185Y-83947185D01*
X184610537Y-83850494D01*
X184669502Y-83740180D01*
X184705812Y-83620482D01*
X184718072Y-83496000D01*
X184718072Y-81096000D01*
X184705812Y-80971518D01*
X184669502Y-80851820D01*
X184610537Y-80741506D01*
X184531185Y-80644815D01*
X184434494Y-80565463D01*
X184324180Y-80506498D01*
X184204482Y-80470188D01*
X184080000Y-80457928D01*
X181680000Y-80457928D01*
X181555518Y-80470188D01*
X181435820Y-80506498D01*
X181325506Y-80565463D01*
X181228815Y-80644815D01*
X181149463Y-80741506D01*
X181090498Y-80851820D01*
X181054188Y-80971518D01*
X181041928Y-81096000D01*
X179832000Y-81096000D01*
X179832000Y-74338250D01*
X179956235Y-74271845D01*
X180197963Y-74073463D01*
X180396345Y-73831734D01*
X180543755Y-73555948D01*
X180634530Y-73256703D01*
X180657500Y-73023485D01*
X180657500Y-72772514D01*
X180634530Y-72539296D01*
X180543755Y-72240051D01*
X180396345Y-71964265D01*
X180197963Y-71722537D01*
X179956234Y-71524155D01*
X179832000Y-71457751D01*
X179832000Y-69762000D01*
X192186928Y-69762000D01*
X192186928Y-71462000D01*
X192199188Y-71586482D01*
X192235498Y-71706180D01*
X192294463Y-71816494D01*
X192373815Y-71913185D01*
X192470506Y-71992537D01*
X192580820Y-72051502D01*
X192700518Y-72087812D01*
X192825000Y-72100072D01*
X194525000Y-72100072D01*
X194649482Y-72087812D01*
X194769180Y-72051502D01*
X194879494Y-71992537D01*
X194976185Y-71913185D01*
X195055537Y-71816494D01*
X195114502Y-71706180D01*
X195138090Y-71628421D01*
X195313009Y-71791688D01*
X195560486Y-71944990D01*
X195735245Y-72017368D01*
X195961000Y-71913700D01*
X195961000Y-70866000D01*
X196469000Y-70866000D01*
X196469000Y-71913700D01*
X196694755Y-72017368D01*
X196869514Y-71944990D01*
X197116991Y-71791688D01*
X197329805Y-71593051D01*
X197499778Y-71356713D01*
X197620378Y-71091756D01*
X197519376Y-70866000D01*
X196469000Y-70866000D01*
X195961000Y-70866000D01*
X195941000Y-70866000D01*
X195941000Y-70358000D01*
X195961000Y-70358000D01*
X195961000Y-69310300D01*
X196469000Y-69310300D01*
X196469000Y-70358000D01*
X197519376Y-70358000D01*
X197620378Y-70132244D01*
X197499778Y-69867287D01*
X197329805Y-69630949D01*
X197116991Y-69432312D01*
X196869514Y-69279010D01*
X196694755Y-69206632D01*
X196469000Y-69310300D01*
X195961000Y-69310300D01*
X195735245Y-69206632D01*
X195560486Y-69279010D01*
X195313009Y-69432312D01*
X195138090Y-69595579D01*
X195114502Y-69517820D01*
X195055537Y-69407506D01*
X194976185Y-69310815D01*
X194879494Y-69231463D01*
X194769180Y-69172498D01*
X194649482Y-69136188D01*
X194525000Y-69123928D01*
X192825000Y-69123928D01*
X192700518Y-69136188D01*
X192580820Y-69172498D01*
X192470506Y-69231463D01*
X192373815Y-69310815D01*
X192294463Y-69407506D01*
X192235498Y-69517820D01*
X192199188Y-69637518D01*
X192186928Y-69762000D01*
X179832000Y-69762000D01*
X179832000Y-64262000D01*
X197993000Y-64262000D01*
X197993000Y-93218000D01*
%TA.AperFunction,Conductor*%
D26*
G36*
X197993000Y-93218000D02*
G01*
X184550559Y-93218000D01*
X184644482Y-92991250D01*
X184715000Y-92636732D01*
X184715000Y-92275268D01*
X184644482Y-91920750D01*
X184506156Y-91586801D01*
X184305338Y-91286256D01*
X184049744Y-91030662D01*
X183749199Y-90829844D01*
X183415250Y-90691518D01*
X183060732Y-90621000D01*
X182699268Y-90621000D01*
X182344750Y-90691518D01*
X182010801Y-90829844D01*
X181710256Y-91030662D01*
X181454662Y-91286256D01*
X181253844Y-91586801D01*
X181115518Y-91920750D01*
X181045000Y-92275268D01*
X181045000Y-92636732D01*
X181115518Y-92991250D01*
X181209441Y-93218000D01*
X179832000Y-93218000D01*
X179832000Y-81096000D01*
X181041928Y-81096000D01*
X181041928Y-83496000D01*
X181054188Y-83620482D01*
X181090498Y-83740180D01*
X181149463Y-83850494D01*
X181228815Y-83947185D01*
X181325506Y-84026537D01*
X181435820Y-84085502D01*
X181555518Y-84121812D01*
X181680000Y-84134072D01*
X184080000Y-84134072D01*
X184204482Y-84121812D01*
X184324180Y-84085502D01*
X184434494Y-84026537D01*
X184531185Y-83947185D01*
X184610537Y-83850494D01*
X184669502Y-83740180D01*
X184705812Y-83620482D01*
X184718072Y-83496000D01*
X184718072Y-81096000D01*
X184705812Y-80971518D01*
X184669502Y-80851820D01*
X184610537Y-80741506D01*
X184531185Y-80644815D01*
X184434494Y-80565463D01*
X184324180Y-80506498D01*
X184204482Y-80470188D01*
X184080000Y-80457928D01*
X181680000Y-80457928D01*
X181555518Y-80470188D01*
X181435820Y-80506498D01*
X181325506Y-80565463D01*
X181228815Y-80644815D01*
X181149463Y-80741506D01*
X181090498Y-80851820D01*
X181054188Y-80971518D01*
X181041928Y-81096000D01*
X179832000Y-81096000D01*
X179832000Y-74338250D01*
X179956235Y-74271845D01*
X180197963Y-74073463D01*
X180396345Y-73831734D01*
X180543755Y-73555948D01*
X180634530Y-73256703D01*
X180657500Y-73023485D01*
X180657500Y-72772514D01*
X180634530Y-72539296D01*
X180543755Y-72240051D01*
X180396345Y-71964265D01*
X180197963Y-71722537D01*
X179956234Y-71524155D01*
X179832000Y-71457751D01*
X179832000Y-69762000D01*
X192186928Y-69762000D01*
X192186928Y-71462000D01*
X192199188Y-71586482D01*
X192235498Y-71706180D01*
X192294463Y-71816494D01*
X192373815Y-71913185D01*
X192470506Y-71992537D01*
X192580820Y-72051502D01*
X192700518Y-72087812D01*
X192825000Y-72100072D01*
X194525000Y-72100072D01*
X194649482Y-72087812D01*
X194769180Y-72051502D01*
X194879494Y-71992537D01*
X194976185Y-71913185D01*
X195055537Y-71816494D01*
X195114502Y-71706180D01*
X195138090Y-71628421D01*
X195313009Y-71791688D01*
X195560486Y-71944990D01*
X195735245Y-72017368D01*
X195961000Y-71913700D01*
X195961000Y-70866000D01*
X196469000Y-70866000D01*
X196469000Y-71913700D01*
X196694755Y-72017368D01*
X196869514Y-71944990D01*
X197116991Y-71791688D01*
X197329805Y-71593051D01*
X197499778Y-71356713D01*
X197620378Y-71091756D01*
X197519376Y-70866000D01*
X196469000Y-70866000D01*
X195961000Y-70866000D01*
X195941000Y-70866000D01*
X195941000Y-70358000D01*
X195961000Y-70358000D01*
X195961000Y-69310300D01*
X196469000Y-69310300D01*
X196469000Y-70358000D01*
X197519376Y-70358000D01*
X197620378Y-70132244D01*
X197499778Y-69867287D01*
X197329805Y-69630949D01*
X197116991Y-69432312D01*
X196869514Y-69279010D01*
X196694755Y-69206632D01*
X196469000Y-69310300D01*
X195961000Y-69310300D01*
X195735245Y-69206632D01*
X195560486Y-69279010D01*
X195313009Y-69432312D01*
X195138090Y-69595579D01*
X195114502Y-69517820D01*
X195055537Y-69407506D01*
X194976185Y-69310815D01*
X194879494Y-69231463D01*
X194769180Y-69172498D01*
X194649482Y-69136188D01*
X194525000Y-69123928D01*
X192825000Y-69123928D01*
X192700518Y-69136188D01*
X192580820Y-69172498D01*
X192470506Y-69231463D01*
X192373815Y-69310815D01*
X192294463Y-69407506D01*
X192235498Y-69517820D01*
X192199188Y-69637518D01*
X192186928Y-69762000D01*
X179832000Y-69762000D01*
X179832000Y-64262000D01*
X197993000Y-64262000D01*
X197993000Y-93218000D01*
G37*
%TD.AperFunction*%
%TD*%
D25*
%TO.N,GND*%
X177038000Y-116078000D02*
X174117000Y-116078000D01*
X174117000Y-101092000D01*
X177038000Y-101092000D01*
X177038000Y-116078000D01*
%TA.AperFunction,Conductor*%
D26*
G36*
X177038000Y-116078000D02*
G01*
X174117000Y-116078000D01*
X174117000Y-101092000D01*
X177038000Y-101092000D01*
X177038000Y-116078000D01*
G37*
%TD.AperFunction*%
%TD*%
M02*
