%TF.GenerationSoftware,KiCad,Pcbnew,(5.1.9)-1*%
%TF.CreationDate,2021-11-26T18:48:54-05:00*%
%TF.ProjectId,BattTester,42617474-5465-4737-9465-722e6b696361,rev?*%
%TF.SameCoordinates,Original*%
%TF.FileFunction,Soldermask,Top*%
%TF.FilePolarity,Negative*%
%FSLAX46Y46*%
G04 Gerber Fmt 4.6, Leading zero omitted, Abs format (unit mm)*
G04 Created by KiCad (PCBNEW (5.1.9)-1) date 2021-11-26 18:48:54*
%MOMM*%
%LPD*%
G01*
G04 APERTURE LIST*
%ADD10O,1.600000X1.600000*%
%ADD11R,1.600000X1.600000*%
%ADD12O,1.700000X1.700000*%
%ADD13R,1.700000X1.700000*%
%ADD14O,1.905000X2.000000*%
%ADD15R,1.905000X2.000000*%
%ADD16R,0.650000X1.060000*%
%ADD17R,0.900000X0.800000*%
%ADD18C,2.800000*%
%ADD19O,2.800000X2.800000*%
%ADD20R,2.800000X1.500000*%
%ADD21C,1.100000*%
%ADD22C,1.600000*%
%ADD23R,1.500000X0.700000*%
%ADD24R,1.500000X1.000000*%
%ADD25O,2.400000X2.400000*%
%ADD26R,2.400000X2.400000*%
%ADD27C,1.700000*%
G04 APERTURE END LIST*
D10*
%TO.C,U4*%
X177292000Y-82550000D03*
X169672000Y-90170000D03*
X177292000Y-85090000D03*
X169672000Y-87630000D03*
X177292000Y-87630000D03*
X169672000Y-85090000D03*
X177292000Y-90170000D03*
D11*
X169672000Y-82550000D03*
%TD*%
D10*
%TO.C,U1*%
X172720000Y-104140000D03*
X165100000Y-111760000D03*
X172720000Y-106680000D03*
X165100000Y-109220000D03*
X172720000Y-109220000D03*
X165100000Y-106680000D03*
X172720000Y-111760000D03*
D11*
X165100000Y-104140000D03*
%TD*%
D12*
%TO.C,TP1*%
X167132000Y-125476000D03*
D13*
X167132000Y-128016000D03*
%TD*%
D14*
%TO.C,U3*%
X199136000Y-68961000D03*
X196596000Y-68961000D03*
D15*
X194056000Y-68961000D03*
%TD*%
D16*
%TO.C,U5*%
X151958000Y-123360000D03*
X153858000Y-123360000D03*
X153858000Y-125560000D03*
X152908000Y-125560000D03*
X151958000Y-125560000D03*
%TD*%
%TO.C,R10*%
G36*
G01*
X157930001Y-126600000D02*
X157029999Y-126600000D01*
G75*
G02*
X156780000Y-126350001I0J249999D01*
G01*
X156780000Y-125649999D01*
G75*
G02*
X157029999Y-125400000I249999J0D01*
G01*
X157930001Y-125400000D01*
G75*
G02*
X158180000Y-125649999I0J-249999D01*
G01*
X158180000Y-126350001D01*
G75*
G02*
X157930001Y-126600000I-249999J0D01*
G01*
G37*
G36*
G01*
X157930001Y-128600000D02*
X157029999Y-128600000D01*
G75*
G02*
X156780000Y-128350001I0J249999D01*
G01*
X156780000Y-127649999D01*
G75*
G02*
X157029999Y-127400000I249999J0D01*
G01*
X157930001Y-127400000D01*
G75*
G02*
X158180000Y-127649999I0J-249999D01*
G01*
X158180000Y-128350001D01*
G75*
G02*
X157930001Y-128600000I-249999J0D01*
G01*
G37*
%TD*%
%TO.C,R5*%
G36*
G01*
X148786001Y-125584000D02*
X147885999Y-125584000D01*
G75*
G02*
X147636000Y-125334001I0J249999D01*
G01*
X147636000Y-124633999D01*
G75*
G02*
X147885999Y-124384000I249999J0D01*
G01*
X148786001Y-124384000D01*
G75*
G02*
X149036000Y-124633999I0J-249999D01*
G01*
X149036000Y-125334001D01*
G75*
G02*
X148786001Y-125584000I-249999J0D01*
G01*
G37*
G36*
G01*
X148786001Y-127584000D02*
X147885999Y-127584000D01*
G75*
G02*
X147636000Y-127334001I0J249999D01*
G01*
X147636000Y-126633999D01*
G75*
G02*
X147885999Y-126384000I249999J0D01*
G01*
X148786001Y-126384000D01*
G75*
G02*
X149036000Y-126633999I0J-249999D01*
G01*
X149036000Y-127334001D01*
G75*
G02*
X148786001Y-127584000I-249999J0D01*
G01*
G37*
%TD*%
%TO.C,R4*%
G36*
G01*
X153848000Y-119831000D02*
X153848000Y-115881000D01*
G75*
G02*
X154098000Y-115631000I250000J0D01*
G01*
X156798000Y-115631000D01*
G75*
G02*
X157048000Y-115881000I0J-250000D01*
G01*
X157048000Y-119831000D01*
G75*
G02*
X156798000Y-120081000I-250000J0D01*
G01*
X154098000Y-120081000D01*
G75*
G02*
X153848000Y-119831000I0J250000D01*
G01*
G37*
G36*
G01*
X148648000Y-119831000D02*
X148648000Y-115881000D01*
G75*
G02*
X148898000Y-115631000I250000J0D01*
G01*
X151598000Y-115631000D01*
G75*
G02*
X151848000Y-115881000I0J-250000D01*
G01*
X151848000Y-119831000D01*
G75*
G02*
X151598000Y-120081000I-250000J0D01*
G01*
X148898000Y-120081000D01*
G75*
G02*
X148648000Y-119831000I0J250000D01*
G01*
G37*
%TD*%
%TO.C,R9*%
G36*
G01*
X189220000Y-119750000D02*
X187970000Y-119750000D01*
G75*
G02*
X187720000Y-119500000I0J250000D01*
G01*
X187720000Y-118700000D01*
G75*
G02*
X187970000Y-118450000I250000J0D01*
G01*
X189220000Y-118450000D01*
G75*
G02*
X189470000Y-118700000I0J-250000D01*
G01*
X189470000Y-119500000D01*
G75*
G02*
X189220000Y-119750000I-250000J0D01*
G01*
G37*
G36*
G01*
X189220000Y-122850000D02*
X187970000Y-122850000D01*
G75*
G02*
X187720000Y-122600000I0J250000D01*
G01*
X187720000Y-121800000D01*
G75*
G02*
X187970000Y-121550000I250000J0D01*
G01*
X189220000Y-121550000D01*
G75*
G02*
X189470000Y-121800000I0J-250000D01*
G01*
X189470000Y-122600000D01*
G75*
G02*
X189220000Y-122850000I-250000J0D01*
G01*
G37*
%TD*%
D17*
%TO.C,Q3*%
X183150000Y-120650000D03*
X185150000Y-119700000D03*
X185150000Y-121600000D03*
%TD*%
D18*
%TO.C,R3*%
X145415000Y-66675000D03*
D19*
X160655000Y-66675000D03*
D18*
X145415000Y-73025000D03*
D19*
X160655000Y-73025000D03*
D18*
X145415000Y-79375000D03*
D19*
X160655000Y-79375000D03*
D18*
X145415000Y-85725000D03*
D19*
X160655000Y-85725000D03*
D18*
X145415000Y-92075000D03*
D19*
X160655000Y-92075000D03*
D18*
X145415000Y-98425000D03*
D19*
X160655000Y-98425000D03*
D18*
X145415000Y-104775000D03*
D19*
X160655000Y-104775000D03*
D18*
X145415000Y-111125000D03*
D19*
X160655000Y-111125000D03*
D18*
X145415000Y-117475000D03*
D19*
X160655000Y-117475000D03*
X160655000Y-123825000D03*
D18*
X145415000Y-123825000D03*
%TD*%
%TO.C,R8*%
G36*
G01*
X192775000Y-121295000D02*
X192775000Y-122545000D01*
G75*
G02*
X192525000Y-122795000I-250000J0D01*
G01*
X191725000Y-122795000D01*
G75*
G02*
X191475000Y-122545000I0J250000D01*
G01*
X191475000Y-121295000D01*
G75*
G02*
X191725000Y-121045000I250000J0D01*
G01*
X192525000Y-121045000D01*
G75*
G02*
X192775000Y-121295000I0J-250000D01*
G01*
G37*
G36*
G01*
X195875000Y-121295000D02*
X195875000Y-122545000D01*
G75*
G02*
X195625000Y-122795000I-250000J0D01*
G01*
X194825000Y-122795000D01*
G75*
G02*
X194575000Y-122545000I0J250000D01*
G01*
X194575000Y-121295000D01*
G75*
G02*
X194825000Y-121045000I250000J0D01*
G01*
X195625000Y-121045000D01*
G75*
G02*
X195875000Y-121295000I0J-250000D01*
G01*
G37*
%TD*%
D14*
%TO.C,Q2*%
X173482000Y-120650000D03*
X176022000Y-120650000D03*
D15*
X178562000Y-120650000D03*
%TD*%
D12*
%TO.C,J1*%
X141605000Y-107315000D03*
D13*
X141605000Y-109855000D03*
%TD*%
%TO.C,U2*%
G36*
G01*
X208383000Y-100099000D02*
X208383000Y-99799000D01*
G75*
G02*
X208533000Y-99649000I150000J0D01*
G01*
X210183000Y-99649000D01*
G75*
G02*
X210333000Y-99799000I0J-150000D01*
G01*
X210333000Y-100099000D01*
G75*
G02*
X210183000Y-100249000I-150000J0D01*
G01*
X208533000Y-100249000D01*
G75*
G02*
X208383000Y-100099000I0J150000D01*
G01*
G37*
G36*
G01*
X208383000Y-101369000D02*
X208383000Y-101069000D01*
G75*
G02*
X208533000Y-100919000I150000J0D01*
G01*
X210183000Y-100919000D01*
G75*
G02*
X210333000Y-101069000I0J-150000D01*
G01*
X210333000Y-101369000D01*
G75*
G02*
X210183000Y-101519000I-150000J0D01*
G01*
X208533000Y-101519000D01*
G75*
G02*
X208383000Y-101369000I0J150000D01*
G01*
G37*
G36*
G01*
X208383000Y-102639000D02*
X208383000Y-102339000D01*
G75*
G02*
X208533000Y-102189000I150000J0D01*
G01*
X210183000Y-102189000D01*
G75*
G02*
X210333000Y-102339000I0J-150000D01*
G01*
X210333000Y-102639000D01*
G75*
G02*
X210183000Y-102789000I-150000J0D01*
G01*
X208533000Y-102789000D01*
G75*
G02*
X208383000Y-102639000I0J150000D01*
G01*
G37*
G36*
G01*
X208383000Y-103909000D02*
X208383000Y-103609000D01*
G75*
G02*
X208533000Y-103459000I150000J0D01*
G01*
X210183000Y-103459000D01*
G75*
G02*
X210333000Y-103609000I0J-150000D01*
G01*
X210333000Y-103909000D01*
G75*
G02*
X210183000Y-104059000I-150000J0D01*
G01*
X208533000Y-104059000D01*
G75*
G02*
X208383000Y-103909000I0J150000D01*
G01*
G37*
G36*
G01*
X208383000Y-105179000D02*
X208383000Y-104879000D01*
G75*
G02*
X208533000Y-104729000I150000J0D01*
G01*
X210183000Y-104729000D01*
G75*
G02*
X210333000Y-104879000I0J-150000D01*
G01*
X210333000Y-105179000D01*
G75*
G02*
X210183000Y-105329000I-150000J0D01*
G01*
X208533000Y-105329000D01*
G75*
G02*
X208383000Y-105179000I0J150000D01*
G01*
G37*
G36*
G01*
X208383000Y-106449000D02*
X208383000Y-106149000D01*
G75*
G02*
X208533000Y-105999000I150000J0D01*
G01*
X210183000Y-105999000D01*
G75*
G02*
X210333000Y-106149000I0J-150000D01*
G01*
X210333000Y-106449000D01*
G75*
G02*
X210183000Y-106599000I-150000J0D01*
G01*
X208533000Y-106599000D01*
G75*
G02*
X208383000Y-106449000I0J150000D01*
G01*
G37*
G36*
G01*
X208383000Y-107719000D02*
X208383000Y-107419000D01*
G75*
G02*
X208533000Y-107269000I150000J0D01*
G01*
X210183000Y-107269000D01*
G75*
G02*
X210333000Y-107419000I0J-150000D01*
G01*
X210333000Y-107719000D01*
G75*
G02*
X210183000Y-107869000I-150000J0D01*
G01*
X208533000Y-107869000D01*
G75*
G02*
X208383000Y-107719000I0J150000D01*
G01*
G37*
G36*
G01*
X203433000Y-107719000D02*
X203433000Y-107419000D01*
G75*
G02*
X203583000Y-107269000I150000J0D01*
G01*
X205233000Y-107269000D01*
G75*
G02*
X205383000Y-107419000I0J-150000D01*
G01*
X205383000Y-107719000D01*
G75*
G02*
X205233000Y-107869000I-150000J0D01*
G01*
X203583000Y-107869000D01*
G75*
G02*
X203433000Y-107719000I0J150000D01*
G01*
G37*
G36*
G01*
X203433000Y-106449000D02*
X203433000Y-106149000D01*
G75*
G02*
X203583000Y-105999000I150000J0D01*
G01*
X205233000Y-105999000D01*
G75*
G02*
X205383000Y-106149000I0J-150000D01*
G01*
X205383000Y-106449000D01*
G75*
G02*
X205233000Y-106599000I-150000J0D01*
G01*
X203583000Y-106599000D01*
G75*
G02*
X203433000Y-106449000I0J150000D01*
G01*
G37*
G36*
G01*
X203433000Y-105179000D02*
X203433000Y-104879000D01*
G75*
G02*
X203583000Y-104729000I150000J0D01*
G01*
X205233000Y-104729000D01*
G75*
G02*
X205383000Y-104879000I0J-150000D01*
G01*
X205383000Y-105179000D01*
G75*
G02*
X205233000Y-105329000I-150000J0D01*
G01*
X203583000Y-105329000D01*
G75*
G02*
X203433000Y-105179000I0J150000D01*
G01*
G37*
G36*
G01*
X203433000Y-103909000D02*
X203433000Y-103609000D01*
G75*
G02*
X203583000Y-103459000I150000J0D01*
G01*
X205233000Y-103459000D01*
G75*
G02*
X205383000Y-103609000I0J-150000D01*
G01*
X205383000Y-103909000D01*
G75*
G02*
X205233000Y-104059000I-150000J0D01*
G01*
X203583000Y-104059000D01*
G75*
G02*
X203433000Y-103909000I0J150000D01*
G01*
G37*
G36*
G01*
X203433000Y-102639000D02*
X203433000Y-102339000D01*
G75*
G02*
X203583000Y-102189000I150000J0D01*
G01*
X205233000Y-102189000D01*
G75*
G02*
X205383000Y-102339000I0J-150000D01*
G01*
X205383000Y-102639000D01*
G75*
G02*
X205233000Y-102789000I-150000J0D01*
G01*
X203583000Y-102789000D01*
G75*
G02*
X203433000Y-102639000I0J150000D01*
G01*
G37*
G36*
G01*
X203433000Y-101369000D02*
X203433000Y-101069000D01*
G75*
G02*
X203583000Y-100919000I150000J0D01*
G01*
X205233000Y-100919000D01*
G75*
G02*
X205383000Y-101069000I0J-150000D01*
G01*
X205383000Y-101369000D01*
G75*
G02*
X205233000Y-101519000I-150000J0D01*
G01*
X203583000Y-101519000D01*
G75*
G02*
X203433000Y-101369000I0J150000D01*
G01*
G37*
G36*
G01*
X203433000Y-100099000D02*
X203433000Y-99799000D01*
G75*
G02*
X203583000Y-99649000I150000J0D01*
G01*
X205233000Y-99649000D01*
G75*
G02*
X205383000Y-99799000I0J-150000D01*
G01*
X205383000Y-100099000D01*
G75*
G02*
X205233000Y-100249000I-150000J0D01*
G01*
X203583000Y-100249000D01*
G75*
G02*
X203433000Y-100099000I0J150000D01*
G01*
G37*
%TD*%
D12*
%TO.C,RV1*%
X165735000Y-90170000D03*
X165735000Y-87630000D03*
D13*
X165735000Y-85090000D03*
%TD*%
%TO.C,R6*%
G36*
G01*
X206384999Y-114946000D02*
X207635001Y-114946000D01*
G75*
G02*
X207885000Y-115195999I0J-249999D01*
G01*
X207885000Y-115996001D01*
G75*
G02*
X207635001Y-116246000I-249999J0D01*
G01*
X206384999Y-116246000D01*
G75*
G02*
X206135000Y-115996001I0J249999D01*
G01*
X206135000Y-115195999D01*
G75*
G02*
X206384999Y-114946000I249999J0D01*
G01*
G37*
G36*
G01*
X206384999Y-111846000D02*
X207635001Y-111846000D01*
G75*
G02*
X207885000Y-112095999I0J-249999D01*
G01*
X207885000Y-112896001D01*
G75*
G02*
X207635001Y-113146000I-249999J0D01*
G01*
X206384999Y-113146000D01*
G75*
G02*
X206135000Y-112896001I0J249999D01*
G01*
X206135000Y-112095999D01*
G75*
G02*
X206384999Y-111846000I249999J0D01*
G01*
G37*
%TD*%
%TO.C,R2*%
G36*
G01*
X221604000Y-107705999D02*
X221604000Y-108956001D01*
G75*
G02*
X221354001Y-109206000I-249999J0D01*
G01*
X220553999Y-109206000D01*
G75*
G02*
X220304000Y-108956001I0J249999D01*
G01*
X220304000Y-107705999D01*
G75*
G02*
X220553999Y-107456000I249999J0D01*
G01*
X221354001Y-107456000D01*
G75*
G02*
X221604000Y-107705999I0J-249999D01*
G01*
G37*
G36*
G01*
X224704000Y-107705999D02*
X224704000Y-108956001D01*
G75*
G02*
X224454001Y-109206000I-249999J0D01*
G01*
X223653999Y-109206000D01*
G75*
G02*
X223404000Y-108956001I0J249999D01*
G01*
X223404000Y-107705999D01*
G75*
G02*
X223653999Y-107456000I249999J0D01*
G01*
X224454001Y-107456000D01*
G75*
G02*
X224704000Y-107705999I0J-249999D01*
G01*
G37*
%TD*%
%TO.C,R1*%
G36*
G01*
X214746000Y-107705999D02*
X214746000Y-108956001D01*
G75*
G02*
X214496001Y-109206000I-249999J0D01*
G01*
X213695999Y-109206000D01*
G75*
G02*
X213446000Y-108956001I0J249999D01*
G01*
X213446000Y-107705999D01*
G75*
G02*
X213695999Y-107456000I249999J0D01*
G01*
X214496001Y-107456000D01*
G75*
G02*
X214746000Y-107705999I0J-249999D01*
G01*
G37*
G36*
G01*
X217846000Y-107705999D02*
X217846000Y-108956001D01*
G75*
G02*
X217596001Y-109206000I-249999J0D01*
G01*
X216795999Y-109206000D01*
G75*
G02*
X216546000Y-108956001I0J249999D01*
G01*
X216546000Y-107705999D01*
G75*
G02*
X216795999Y-107456000I249999J0D01*
G01*
X217596001Y-107456000D01*
G75*
G02*
X217846000Y-107705999I0J-249999D01*
G01*
G37*
%TD*%
D14*
%TO.C,Q1*%
X179070000Y-72898000D03*
X176530000Y-72898000D03*
D15*
X173990000Y-72898000D03*
%TD*%
D12*
%TO.C,JP1*%
X152908000Y-109728000D03*
D13*
X152908000Y-112268000D03*
%TD*%
D12*
%TO.C,J4*%
X202311000Y-119634000D03*
X204851000Y-119634000D03*
D13*
X207391000Y-119634000D03*
%TD*%
D12*
%TO.C,J3*%
X195580000Y-79756000D03*
D13*
X198120000Y-79756000D03*
%TD*%
D20*
%TO.C,J2*%
X214615000Y-98105000D03*
X236115000Y-98105000D03*
X236115000Y-70805000D03*
X214615000Y-73005000D03*
D21*
X215615000Y-95955000D03*
D22*
X215615000Y-74955000D03*
D23*
X212815000Y-96710000D03*
X212815000Y-95510000D03*
D24*
X212815000Y-75080000D03*
X212815000Y-94210000D03*
X212815000Y-92510000D03*
X212815000Y-90080000D03*
X212815000Y-87580000D03*
X212815000Y-85080000D03*
X212815000Y-82580000D03*
X212815000Y-80080000D03*
X212815000Y-77580000D03*
%TD*%
D25*
%TO.C,D3*%
X191008000Y-86360000D03*
D26*
X201168000Y-86360000D03*
%TD*%
%TO.C,D2*%
G36*
G01*
X222054000Y-103308999D02*
X222054000Y-104209001D01*
G75*
G02*
X221804001Y-104459000I-249999J0D01*
G01*
X221153999Y-104459000D01*
G75*
G02*
X220904000Y-104209001I0J249999D01*
G01*
X220904000Y-103308999D01*
G75*
G02*
X221153999Y-103059000I249999J0D01*
G01*
X221804001Y-103059000D01*
G75*
G02*
X222054000Y-103308999I0J-249999D01*
G01*
G37*
G36*
G01*
X224104000Y-103308999D02*
X224104000Y-104209001D01*
G75*
G02*
X223854001Y-104459000I-249999J0D01*
G01*
X223203999Y-104459000D01*
G75*
G02*
X222954000Y-104209001I0J249999D01*
G01*
X222954000Y-103308999D01*
G75*
G02*
X223203999Y-103059000I249999J0D01*
G01*
X223854001Y-103059000D01*
G75*
G02*
X224104000Y-103308999I0J-249999D01*
G01*
G37*
%TD*%
%TO.C,D1*%
G36*
G01*
X215196000Y-103308999D02*
X215196000Y-104209001D01*
G75*
G02*
X214946001Y-104459000I-249999J0D01*
G01*
X214295999Y-104459000D01*
G75*
G02*
X214046000Y-104209001I0J249999D01*
G01*
X214046000Y-103308999D01*
G75*
G02*
X214295999Y-103059000I249999J0D01*
G01*
X214946001Y-103059000D01*
G75*
G02*
X215196000Y-103308999I0J-249999D01*
G01*
G37*
G36*
G01*
X217246000Y-103308999D02*
X217246000Y-104209001D01*
G75*
G02*
X216996001Y-104459000I-249999J0D01*
G01*
X216345999Y-104459000D01*
G75*
G02*
X216096000Y-104209001I0J249999D01*
G01*
X216096000Y-103308999D01*
G75*
G02*
X216345999Y-103059000I249999J0D01*
G01*
X216996001Y-103059000D01*
G75*
G02*
X217246000Y-103308999I0J-249999D01*
G01*
G37*
%TD*%
%TO.C,C6*%
G36*
G01*
X195130000Y-74709000D02*
X195130000Y-75659000D01*
G75*
G02*
X194880000Y-75909000I-250000J0D01*
G01*
X194205000Y-75909000D01*
G75*
G02*
X193955000Y-75659000I0J250000D01*
G01*
X193955000Y-74709000D01*
G75*
G02*
X194205000Y-74459000I250000J0D01*
G01*
X194880000Y-74459000D01*
G75*
G02*
X195130000Y-74709000I0J-250000D01*
G01*
G37*
G36*
G01*
X197205000Y-74709000D02*
X197205000Y-75659000D01*
G75*
G02*
X196955000Y-75909000I-250000J0D01*
G01*
X196280000Y-75909000D01*
G75*
G02*
X196030000Y-75659000I0J250000D01*
G01*
X196030000Y-74709000D01*
G75*
G02*
X196280000Y-74459000I250000J0D01*
G01*
X196955000Y-74459000D01*
G75*
G02*
X197205000Y-74709000I0J-250000D01*
G01*
G37*
%TD*%
%TO.C,C5*%
G36*
G01*
X200602000Y-75659000D02*
X200602000Y-74709000D01*
G75*
G02*
X200852000Y-74459000I250000J0D01*
G01*
X201527000Y-74459000D01*
G75*
G02*
X201777000Y-74709000I0J-250000D01*
G01*
X201777000Y-75659000D01*
G75*
G02*
X201527000Y-75909000I-250000J0D01*
G01*
X200852000Y-75909000D01*
G75*
G02*
X200602000Y-75659000I0J250000D01*
G01*
G37*
G36*
G01*
X198527000Y-75659000D02*
X198527000Y-74709000D01*
G75*
G02*
X198777000Y-74459000I250000J0D01*
G01*
X199452000Y-74459000D01*
G75*
G02*
X199702000Y-74709000I0J-250000D01*
G01*
X199702000Y-75659000D01*
G75*
G02*
X199452000Y-75909000I-250000J0D01*
G01*
X198777000Y-75909000D01*
G75*
G02*
X198527000Y-75659000I0J250000D01*
G01*
G37*
%TD*%
%TO.C,C4*%
G36*
G01*
X207460000Y-92931000D02*
X207460000Y-91981000D01*
G75*
G02*
X207710000Y-91731000I250000J0D01*
G01*
X208385000Y-91731000D01*
G75*
G02*
X208635000Y-91981000I0J-250000D01*
G01*
X208635000Y-92931000D01*
G75*
G02*
X208385000Y-93181000I-250000J0D01*
G01*
X207710000Y-93181000D01*
G75*
G02*
X207460000Y-92931000I0J250000D01*
G01*
G37*
G36*
G01*
X205385000Y-92931000D02*
X205385000Y-91981000D01*
G75*
G02*
X205635000Y-91731000I250000J0D01*
G01*
X206310000Y-91731000D01*
G75*
G02*
X206560000Y-91981000I0J-250000D01*
G01*
X206560000Y-92931000D01*
G75*
G02*
X206310000Y-93181000I-250000J0D01*
G01*
X205635000Y-93181000D01*
G75*
G02*
X205385000Y-92931000I0J250000D01*
G01*
G37*
%TD*%
%TO.C,C3*%
G36*
G01*
X207460000Y-96487000D02*
X207460000Y-95537000D01*
G75*
G02*
X207710000Y-95287000I250000J0D01*
G01*
X208385000Y-95287000D01*
G75*
G02*
X208635000Y-95537000I0J-250000D01*
G01*
X208635000Y-96487000D01*
G75*
G02*
X208385000Y-96737000I-250000J0D01*
G01*
X207710000Y-96737000D01*
G75*
G02*
X207460000Y-96487000I0J250000D01*
G01*
G37*
G36*
G01*
X205385000Y-96487000D02*
X205385000Y-95537000D01*
G75*
G02*
X205635000Y-95287000I250000J0D01*
G01*
X206310000Y-95287000D01*
G75*
G02*
X206560000Y-95537000I0J-250000D01*
G01*
X206560000Y-96487000D01*
G75*
G02*
X206310000Y-96737000I-250000J0D01*
G01*
X205635000Y-96737000D01*
G75*
G02*
X205385000Y-96487000I0J250000D01*
G01*
G37*
%TD*%
%TO.C,C2*%
G36*
G01*
X167883000Y-95234997D02*
X167883000Y-96535003D01*
G75*
G02*
X167633003Y-96785000I-249997J0D01*
G01*
X166807997Y-96785000D01*
G75*
G02*
X166558000Y-96535003I0J249997D01*
G01*
X166558000Y-95234997D01*
G75*
G02*
X166807997Y-94985000I249997J0D01*
G01*
X167633003Y-94985000D01*
G75*
G02*
X167883000Y-95234997I0J-249997D01*
G01*
G37*
G36*
G01*
X171008000Y-95234997D02*
X171008000Y-96535003D01*
G75*
G02*
X170758003Y-96785000I-249997J0D01*
G01*
X169932997Y-96785000D01*
G75*
G02*
X169683000Y-96535003I0J249997D01*
G01*
X169683000Y-95234997D01*
G75*
G02*
X169932997Y-94985000I249997J0D01*
G01*
X170758003Y-94985000D01*
G75*
G02*
X171008000Y-95234997I0J-249997D01*
G01*
G37*
%TD*%
%TO.C,C1*%
G36*
G01*
X169233000Y-100297000D02*
X169233000Y-99347000D01*
G75*
G02*
X169483000Y-99097000I250000J0D01*
G01*
X170158000Y-99097000D01*
G75*
G02*
X170408000Y-99347000I0J-250000D01*
G01*
X170408000Y-100297000D01*
G75*
G02*
X170158000Y-100547000I-250000J0D01*
G01*
X169483000Y-100547000D01*
G75*
G02*
X169233000Y-100297000I0J250000D01*
G01*
G37*
G36*
G01*
X167158000Y-100297000D02*
X167158000Y-99347000D01*
G75*
G02*
X167408000Y-99097000I250000J0D01*
G01*
X168083000Y-99097000D01*
G75*
G02*
X168333000Y-99347000I0J-250000D01*
G01*
X168333000Y-100297000D01*
G75*
G02*
X168083000Y-100547000I-250000J0D01*
G01*
X167408000Y-100547000D01*
G75*
G02*
X167158000Y-100297000I0J250000D01*
G01*
G37*
%TD*%
D27*
%TO.C,A1*%
X195580000Y-100330000D03*
X195580000Y-102870000D03*
X195580000Y-105410000D03*
X195580000Y-107950000D03*
X195580000Y-110490000D03*
X195580000Y-113030000D03*
X185420000Y-113030000D03*
X185420000Y-110490000D03*
X185420000Y-107950000D03*
X185420000Y-105410000D03*
X185420000Y-102870000D03*
X185420000Y-100330000D03*
%TD*%
M02*
