%TF.GenerationSoftware,KiCad,Pcbnew,(5.1.9)-1*%
%TF.CreationDate,2021-11-26T18:48:54-05:00*%
%TF.ProjectId,BattTester,42617474-5465-4737-9465-722e6b696361,rev?*%
%TF.SameCoordinates,Original*%
%TF.FileFunction,Copper,L2,Bot*%
%TF.FilePolarity,Positive*%
%FSLAX46Y46*%
G04 Gerber Fmt 4.6, Leading zero omitted, Abs format (unit mm)*
G04 Created by KiCad (PCBNEW (5.1.9)-1) date 2021-11-26 18:48:54*
%MOMM*%
%LPD*%
G01*
G04 APERTURE LIST*
%TA.AperFunction,ComponentPad*%
%ADD10O,1.600000X1.600000*%
%TD*%
%TA.AperFunction,ComponentPad*%
%ADD11R,1.600000X1.600000*%
%TD*%
%TA.AperFunction,ComponentPad*%
%ADD12O,1.700000X1.700000*%
%TD*%
%TA.AperFunction,ComponentPad*%
%ADD13R,1.700000X1.700000*%
%TD*%
%TA.AperFunction,ComponentPad*%
%ADD14O,1.905000X2.000000*%
%TD*%
%TA.AperFunction,ComponentPad*%
%ADD15R,1.905000X2.000000*%
%TD*%
%TA.AperFunction,ComponentPad*%
%ADD16C,2.800000*%
%TD*%
%TA.AperFunction,ComponentPad*%
%ADD17O,2.800000X2.800000*%
%TD*%
%TA.AperFunction,ComponentPad*%
%ADD18O,2.400000X2.400000*%
%TD*%
%TA.AperFunction,ComponentPad*%
%ADD19R,2.400000X2.400000*%
%TD*%
%TA.AperFunction,ComponentPad*%
%ADD20C,1.700000*%
%TD*%
%TA.AperFunction,ViaPad*%
%ADD21C,0.800000*%
%TD*%
%TA.AperFunction,ViaPad*%
%ADD22C,1.000000*%
%TD*%
%TA.AperFunction,Conductor*%
%ADD23C,0.381000*%
%TD*%
%TA.AperFunction,Conductor*%
%ADD24C,0.762000*%
%TD*%
%TA.AperFunction,Conductor*%
%ADD25C,1.270000*%
%TD*%
%TA.AperFunction,Conductor*%
%ADD26C,0.508000*%
%TD*%
%TA.AperFunction,Conductor*%
%ADD27C,0.254000*%
%TD*%
%TA.AperFunction,Conductor*%
%ADD28C,0.100000*%
%TD*%
G04 APERTURE END LIST*
D10*
%TO.P,U4,8*%
%TO.N,+9V*%
X177292000Y-82550000D03*
%TO.P,U4,4*%
%TO.N,GND*%
X169672000Y-90170000D03*
%TO.P,U4,7*%
%TO.N,Net-(U4-Pad6)*%
X177292000Y-85090000D03*
%TO.P,U4,3*%
%TO.N,Net-(RV1-Pad2)*%
X169672000Y-87630000D03*
%TO.P,U4,6*%
%TO.N,Net-(U4-Pad6)*%
X177292000Y-87630000D03*
%TO.P,U4,2*%
%TO.N,Net-(Q1-Pad3)*%
X169672000Y-85090000D03*
%TO.P,U4,5*%
%TO.N,GND*%
X177292000Y-90170000D03*
D11*
%TO.P,U4,1*%
%TO.N,Net-(Q1-Pad1)*%
X169672000Y-82550000D03*
%TD*%
D10*
%TO.P,U1,8*%
%TO.N,+9V*%
X172720000Y-104140000D03*
%TO.P,U1,4*%
%TO.N,GND*%
X165100000Y-111760000D03*
%TO.P,U1,7*%
%TO.N,Net-(A1-Pad1)*%
X172720000Y-106680000D03*
%TO.P,U1,3*%
%TO.N,GND*%
X165100000Y-109220000D03*
%TO.P,U1,6*%
%TO.N,Net-(A1-Pad2)*%
X172720000Y-109220000D03*
%TO.P,U1,2*%
%TO.N,/B+*%
X165100000Y-106680000D03*
%TO.P,U1,5*%
%TO.N,Net-(A1-Pad6)*%
X172720000Y-111760000D03*
D11*
%TO.P,U1,1*%
%TO.N,+9V*%
X165100000Y-104140000D03*
%TD*%
D12*
%TO.P,TP1,2*%
%TO.N,GND*%
X167132000Y-125476000D03*
D13*
%TO.P,TP1,1*%
%TO.N,/I_OUT*%
X167132000Y-128016000D03*
%TD*%
D14*
%TO.P,U3,3*%
%TO.N,+9V*%
X199136000Y-68961000D03*
%TO.P,U3,2*%
%TO.N,+3V3*%
X196596000Y-68961000D03*
D15*
%TO.P,U3,1*%
%TO.N,GND*%
X194056000Y-68961000D03*
%TD*%
D16*
%TO.P,R3,1*%
%TO.N,Net-(Q1-Pad3)*%
X145415000Y-66675000D03*
D17*
%TO.P,R3,2*%
%TO.N,Net-(JP1-Pad1)*%
X160655000Y-66675000D03*
D16*
%TO.P,R3,1*%
%TO.N,Net-(Q1-Pad3)*%
X145415000Y-73025000D03*
D17*
%TO.P,R3,2*%
%TO.N,Net-(JP1-Pad1)*%
X160655000Y-73025000D03*
D16*
%TO.P,R3,1*%
%TO.N,Net-(Q1-Pad3)*%
X145415000Y-79375000D03*
D17*
%TO.P,R3,2*%
%TO.N,Net-(JP1-Pad1)*%
X160655000Y-79375000D03*
D16*
%TO.P,R3,1*%
%TO.N,Net-(Q1-Pad3)*%
X145415000Y-85725000D03*
D17*
%TO.P,R3,2*%
%TO.N,Net-(JP1-Pad1)*%
X160655000Y-85725000D03*
D16*
%TO.P,R3,1*%
%TO.N,Net-(Q1-Pad3)*%
X145415000Y-92075000D03*
D17*
%TO.P,R3,2*%
%TO.N,Net-(JP1-Pad1)*%
X160655000Y-92075000D03*
D16*
%TO.P,R3,1*%
%TO.N,Net-(Q1-Pad3)*%
X145415000Y-98425000D03*
D17*
%TO.P,R3,2*%
%TO.N,Net-(JP1-Pad1)*%
X160655000Y-98425000D03*
D16*
%TO.P,R3,1*%
%TO.N,Net-(Q1-Pad3)*%
X145415000Y-104775000D03*
D17*
%TO.P,R3,2*%
%TO.N,Net-(JP1-Pad1)*%
X160655000Y-104775000D03*
D16*
%TO.P,R3,1*%
%TO.N,Net-(Q1-Pad3)*%
X145415000Y-111125000D03*
D17*
%TO.P,R3,2*%
%TO.N,Net-(JP1-Pad1)*%
X160655000Y-111125000D03*
D16*
%TO.P,R3,1*%
%TO.N,Net-(Q1-Pad3)*%
X145415000Y-117475000D03*
D17*
%TO.P,R3,2*%
%TO.N,Net-(JP1-Pad1)*%
X160655000Y-117475000D03*
X160655000Y-123825000D03*
D16*
%TO.P,R3,1*%
%TO.N,Net-(Q1-Pad3)*%
X145415000Y-123825000D03*
%TD*%
%TO.P,R7,2*%
%TO.N,/ISH-*%
%TA.AperFunction,SMDPad,CuDef*%
G36*
G01*
X175122000Y-123200000D02*
X175122000Y-124450000D01*
G75*
G02*
X174872000Y-124700000I-250000J0D01*
G01*
X174072000Y-124700000D01*
G75*
G02*
X173822000Y-124450000I0J250000D01*
G01*
X173822000Y-123200000D01*
G75*
G02*
X174072000Y-122950000I250000J0D01*
G01*
X174872000Y-122950000D01*
G75*
G02*
X175122000Y-123200000I0J-250000D01*
G01*
G37*
%TD.AperFunction*%
%TO.P,R7,1*%
%TO.N,Net-(Q2-Pad1)*%
%TA.AperFunction,SMDPad,CuDef*%
G36*
G01*
X178222000Y-123200000D02*
X178222000Y-124450000D01*
G75*
G02*
X177972000Y-124700000I-250000J0D01*
G01*
X177172000Y-124700000D01*
G75*
G02*
X176922000Y-124450000I0J250000D01*
G01*
X176922000Y-123200000D01*
G75*
G02*
X177172000Y-122950000I250000J0D01*
G01*
X177972000Y-122950000D01*
G75*
G02*
X178222000Y-123200000I0J-250000D01*
G01*
G37*
%TD.AperFunction*%
%TD*%
D14*
%TO.P,Q2,3*%
%TO.N,/ISH-*%
X173482000Y-120650000D03*
%TO.P,Q2,2*%
%TO.N,/B+*%
X176022000Y-120650000D03*
D15*
%TO.P,Q2,1*%
%TO.N,Net-(Q2-Pad1)*%
X178562000Y-120650000D03*
%TD*%
D12*
%TO.P,J1,2*%
%TO.N,GND*%
X141605000Y-107315000D03*
D13*
%TO.P,J1,1*%
%TO.N,/ISH+*%
X141605000Y-109855000D03*
%TD*%
D12*
%TO.P,RV1,3*%
%TO.N,GND*%
X165735000Y-90170000D03*
%TO.P,RV1,2*%
%TO.N,Net-(RV1-Pad2)*%
X165735000Y-87630000D03*
D13*
%TO.P,RV1,1*%
%TO.N,+9V*%
X165735000Y-85090000D03*
%TD*%
D14*
%TO.P,Q1,3*%
%TO.N,Net-(Q1-Pad3)*%
X179070000Y-72898000D03*
%TO.P,Q1,2*%
%TO.N,/B+*%
X176530000Y-72898000D03*
D15*
%TO.P,Q1,1*%
%TO.N,Net-(Q1-Pad1)*%
X173990000Y-72898000D03*
%TD*%
D12*
%TO.P,JP1,2*%
%TO.N,GND*%
X152908000Y-109728000D03*
D13*
%TO.P,JP1,1*%
%TO.N,Net-(JP1-Pad1)*%
X152908000Y-112268000D03*
%TD*%
D12*
%TO.P,J4,3*%
%TO.N,+3V3*%
X202311000Y-119634000D03*
%TO.P,J4,2*%
%TO.N,GND*%
X204851000Y-119634000D03*
D13*
%TO.P,J4,1*%
%TO.N,Net-(J4-Pad1)*%
X207391000Y-119634000D03*
%TD*%
D12*
%TO.P,J3,2*%
%TO.N,GND*%
X195580000Y-79756000D03*
D13*
%TO.P,J3,1*%
%TO.N,+9V*%
X198120000Y-79756000D03*
%TD*%
D18*
%TO.P,D3,2*%
%TO.N,+3V3*%
X191008000Y-86360000D03*
D19*
%TO.P,D3,1*%
%TO.N,+9V*%
X201168000Y-86360000D03*
%TD*%
D20*
%TO.P,A1,12*%
%TO.N,/SPI-SCK*%
X195580000Y-100330000D03*
%TO.P,A1,11*%
%TO.N,/SPI-MISO*%
X195580000Y-102870000D03*
%TO.P,A1,10*%
%TO.N,GND*%
X195580000Y-105410000D03*
%TO.P,A1,9*%
%TO.N,+3V3*%
X195580000Y-107950000D03*
%TO.P,A1,8*%
%TO.N,N/C*%
X195580000Y-110490000D03*
%TO.P,A1,7*%
%TO.N,/SPI-CS0*%
X195580000Y-113030000D03*
%TO.P,A1,6*%
%TO.N,Net-(A1-Pad6)*%
X185420000Y-113030000D03*
%TO.P,A1,5*%
%TO.N,N/C*%
X185420000Y-110490000D03*
%TO.P,A1,4*%
%TO.N,+9V*%
X185420000Y-107950000D03*
%TO.P,A1,3*%
%TO.N,GND*%
X185420000Y-105410000D03*
%TO.P,A1,2*%
%TO.N,Net-(A1-Pad2)*%
X185420000Y-102870000D03*
%TO.P,A1,1*%
%TO.N,Net-(A1-Pad1)*%
X185420000Y-100330000D03*
%TD*%
D21*
%TO.N,/SPI-MISO*%
X207010000Y-102869994D03*
D22*
%TO.N,+3V3*%
X191008000Y-81788000D03*
%TO.N,GND*%
X165100000Y-97790000D03*
X179705000Y-97790000D03*
X211455000Y-90805000D03*
X208915000Y-97790000D03*
X158750000Y-114300000D03*
X162560000Y-114300000D03*
X158750000Y-76200000D03*
X162560000Y-76200000D03*
X192532000Y-75184000D03*
X203200000Y-75184000D03*
D21*
X157480000Y-122936000D03*
%TO.N,/SPI-SCK*%
X207010000Y-100330000D03*
%TO.N,/SPI-MOSI*%
X214630000Y-93980000D03*
X212725000Y-101600000D03*
%TO.N,/CUTOFF*%
X197485000Y-115570000D03*
X195580000Y-117475000D03*
%TO.N,/I_OUT*%
X201676000Y-107696000D03*
X181356000Y-123443996D03*
%TD*%
D23*
%TO.N,/SPI-MISO*%
X206375000Y-102870000D02*
X206375000Y-102870000D01*
X195580000Y-102870000D02*
X207009994Y-102870000D01*
X207009994Y-102870000D02*
X207010000Y-102869994D01*
D24*
%TO.N,+3V3*%
X191008000Y-86360000D02*
X191008000Y-81788000D01*
X191008000Y-81788000D02*
X191008000Y-81788000D01*
D23*
%TO.N,/SPI-SCK*%
X206375000Y-100330000D02*
X206375000Y-100330000D01*
X195580000Y-100330000D02*
X207010000Y-100330000D01*
%TO.N,/SPI-MOSI*%
X214630000Y-93980000D02*
X214630000Y-94615000D01*
X214630000Y-94615000D02*
X213995000Y-95250000D01*
X213995000Y-95250000D02*
X213995000Y-100330000D01*
X213995000Y-100330000D02*
X212725000Y-101600000D01*
X212725000Y-101600000D02*
X212725000Y-101600000D01*
D25*
%TO.N,Net-(JP1-Pad1)*%
X160655000Y-123825000D02*
X160655000Y-66675000D01*
%TO.N,Net-(Q1-Pad3)*%
X145415000Y-66675000D02*
X145415000Y-123825000D01*
D26*
%TO.N,Net-(Q2-Pad1)*%
X177572000Y-121640000D02*
X178562000Y-120650000D01*
X177572000Y-123825000D02*
X177572000Y-121640000D01*
%TO.N,/CUTOFF*%
X197485000Y-115570000D02*
X195580000Y-117475000D01*
%TO.N,/ISH-*%
X174472000Y-121640000D02*
X173482000Y-120650000D01*
X174472000Y-123825000D02*
X174472000Y-121640000D01*
%TO.N,/I_OUT*%
X201676000Y-109549961D02*
X201676000Y-107696000D01*
X195401961Y-115824000D02*
X201676000Y-109549961D01*
X182880000Y-115824000D02*
X195401961Y-115824000D01*
X181356000Y-117348000D02*
X182880000Y-115824000D01*
X181356000Y-123443996D02*
X181356000Y-117348000D01*
%TD*%
D27*
%TO.N,GND*%
X182118000Y-77417394D02*
X180250197Y-79285197D01*
X180234403Y-79304443D01*
X180222667Y-79326399D01*
X180215440Y-79350224D01*
X180213000Y-79375000D01*
X180213000Y-93292394D01*
X175170197Y-98335197D01*
X175154403Y-98354443D01*
X175142667Y-98376399D01*
X175135440Y-98400224D01*
X175133000Y-98425000D01*
X175133000Y-119278425D01*
X174894037Y-119474537D01*
X174752000Y-119647609D01*
X174609963Y-119474537D01*
X174368235Y-119276155D01*
X174092449Y-119128745D01*
X173793204Y-119037970D01*
X173482000Y-119007319D01*
X173170797Y-119037970D01*
X172871552Y-119128745D01*
X172595766Y-119276155D01*
X172354037Y-119474537D01*
X172155655Y-119716265D01*
X172008245Y-119992051D01*
X171917470Y-120291296D01*
X171894500Y-120524514D01*
X171894500Y-120775485D01*
X171917470Y-121008703D01*
X172008245Y-121307948D01*
X172155655Y-121583734D01*
X172354037Y-121825463D01*
X172595765Y-122023845D01*
X172871551Y-122171255D01*
X173170796Y-122262030D01*
X173482000Y-122292681D01*
X173583001Y-122282733D01*
X173583001Y-122459250D01*
X173578614Y-122461595D01*
X173444038Y-122572038D01*
X173333595Y-122706614D01*
X173251528Y-122860150D01*
X173200992Y-123026746D01*
X173183928Y-123200000D01*
X173183928Y-124450000D01*
X173200992Y-124623254D01*
X173251528Y-124789850D01*
X173333595Y-124943386D01*
X173444038Y-125077962D01*
X173578614Y-125188405D01*
X173732150Y-125270472D01*
X173898746Y-125321008D01*
X174072000Y-125338072D01*
X174872000Y-125338072D01*
X175045254Y-125321008D01*
X175133000Y-125294391D01*
X175133000Y-128880000D01*
X168618693Y-128880000D01*
X168620072Y-128866000D01*
X168620072Y-127166000D01*
X168607812Y-127041518D01*
X168571502Y-126921820D01*
X168512537Y-126811506D01*
X168433185Y-126714815D01*
X168336494Y-126635463D01*
X168226180Y-126576498D01*
X168148421Y-126552910D01*
X168311688Y-126377991D01*
X168464990Y-126130514D01*
X168537368Y-125955755D01*
X168433700Y-125730000D01*
X167386000Y-125730000D01*
X167386000Y-125750000D01*
X166878000Y-125750000D01*
X166878000Y-125730000D01*
X165830300Y-125730000D01*
X165726632Y-125955755D01*
X165799010Y-126130514D01*
X165952312Y-126377991D01*
X166115579Y-126552910D01*
X166037820Y-126576498D01*
X165927506Y-126635463D01*
X165830815Y-126714815D01*
X165751463Y-126811506D01*
X165692498Y-126921820D01*
X165656188Y-127041518D01*
X165643928Y-127166000D01*
X165643928Y-128866000D01*
X165645307Y-128880000D01*
X139827000Y-128880000D01*
X139827000Y-109005000D01*
X140116928Y-109005000D01*
X140116928Y-110705000D01*
X140129188Y-110829482D01*
X140165498Y-110949180D01*
X140224463Y-111059494D01*
X140303815Y-111156185D01*
X140400506Y-111235537D01*
X140510820Y-111294502D01*
X140630518Y-111330812D01*
X140755000Y-111343072D01*
X142455000Y-111343072D01*
X142579482Y-111330812D01*
X142699180Y-111294502D01*
X142809494Y-111235537D01*
X142906185Y-111156185D01*
X142985537Y-111059494D01*
X143044502Y-110949180D01*
X143080812Y-110829482D01*
X143093072Y-110705000D01*
X143093072Y-109005000D01*
X143080812Y-108880518D01*
X143044502Y-108760820D01*
X142985537Y-108650506D01*
X142906185Y-108553815D01*
X142809494Y-108474463D01*
X142699180Y-108415498D01*
X142621421Y-108391910D01*
X142784688Y-108216991D01*
X142937990Y-107969514D01*
X143010368Y-107794755D01*
X142906700Y-107569000D01*
X141859000Y-107569000D01*
X141859000Y-107589000D01*
X141351000Y-107589000D01*
X141351000Y-107569000D01*
X140303300Y-107569000D01*
X140199632Y-107794755D01*
X140272010Y-107969514D01*
X140425312Y-108216991D01*
X140588579Y-108391910D01*
X140510820Y-108415498D01*
X140400506Y-108474463D01*
X140303815Y-108553815D01*
X140224463Y-108650506D01*
X140165498Y-108760820D01*
X140129188Y-108880518D01*
X140116928Y-109005000D01*
X139827000Y-109005000D01*
X139827000Y-106835245D01*
X140199632Y-106835245D01*
X140303300Y-107061000D01*
X141351000Y-107061000D01*
X141351000Y-106010624D01*
X141859000Y-106010624D01*
X141859000Y-107061000D01*
X142906700Y-107061000D01*
X143010368Y-106835245D01*
X142937990Y-106660486D01*
X142784688Y-106413009D01*
X142586051Y-106200195D01*
X142349713Y-106030222D01*
X142084756Y-105909622D01*
X141859000Y-106010624D01*
X141351000Y-106010624D01*
X141125244Y-105909622D01*
X140860287Y-106030222D01*
X140623949Y-106200195D01*
X140425312Y-106413009D01*
X140272010Y-106660486D01*
X140199632Y-106835245D01*
X139827000Y-106835245D01*
X139827000Y-66474570D01*
X143380000Y-66474570D01*
X143380000Y-66875430D01*
X143458204Y-67268587D01*
X143611607Y-67638934D01*
X143834313Y-67972237D01*
X144117763Y-68255687D01*
X144145000Y-68273886D01*
X144145000Y-71426114D01*
X144117763Y-71444313D01*
X143834313Y-71727763D01*
X143611607Y-72061066D01*
X143458204Y-72431413D01*
X143380000Y-72824570D01*
X143380000Y-73225430D01*
X143458204Y-73618587D01*
X143611607Y-73988934D01*
X143834313Y-74322237D01*
X144117763Y-74605687D01*
X144145000Y-74623886D01*
X144145000Y-77776114D01*
X144117763Y-77794313D01*
X143834313Y-78077763D01*
X143611607Y-78411066D01*
X143458204Y-78781413D01*
X143380000Y-79174570D01*
X143380000Y-79575430D01*
X143458204Y-79968587D01*
X143611607Y-80338934D01*
X143834313Y-80672237D01*
X144117763Y-80955687D01*
X144145000Y-80973886D01*
X144145000Y-84126114D01*
X144117763Y-84144313D01*
X143834313Y-84427763D01*
X143611607Y-84761066D01*
X143458204Y-85131413D01*
X143380000Y-85524570D01*
X143380000Y-85925430D01*
X143458204Y-86318587D01*
X143611607Y-86688934D01*
X143834313Y-87022237D01*
X144117763Y-87305687D01*
X144145000Y-87323886D01*
X144145000Y-90476114D01*
X144117763Y-90494313D01*
X143834313Y-90777763D01*
X143611607Y-91111066D01*
X143458204Y-91481413D01*
X143380000Y-91874570D01*
X143380000Y-92275430D01*
X143458204Y-92668587D01*
X143611607Y-93038934D01*
X143834313Y-93372237D01*
X144117763Y-93655687D01*
X144145000Y-93673887D01*
X144145001Y-96826113D01*
X144117763Y-96844313D01*
X143834313Y-97127763D01*
X143611607Y-97461066D01*
X143458204Y-97831413D01*
X143380000Y-98224570D01*
X143380000Y-98625430D01*
X143458204Y-99018587D01*
X143611607Y-99388934D01*
X143834313Y-99722237D01*
X144117763Y-100005687D01*
X144145001Y-100023887D01*
X144145001Y-103176113D01*
X144117763Y-103194313D01*
X143834313Y-103477763D01*
X143611607Y-103811066D01*
X143458204Y-104181413D01*
X143380000Y-104574570D01*
X143380000Y-104975430D01*
X143458204Y-105368587D01*
X143611607Y-105738934D01*
X143834313Y-106072237D01*
X144117763Y-106355687D01*
X144145001Y-106373887D01*
X144145001Y-109526113D01*
X144117763Y-109544313D01*
X143834313Y-109827763D01*
X143611607Y-110161066D01*
X143458204Y-110531413D01*
X143380000Y-110924570D01*
X143380000Y-111325430D01*
X143458204Y-111718587D01*
X143611607Y-112088934D01*
X143834313Y-112422237D01*
X144117763Y-112705687D01*
X144145001Y-112723887D01*
X144145001Y-115876113D01*
X144117763Y-115894313D01*
X143834313Y-116177763D01*
X143611607Y-116511066D01*
X143458204Y-116881413D01*
X143380000Y-117274570D01*
X143380000Y-117675430D01*
X143458204Y-118068587D01*
X143611607Y-118438934D01*
X143834313Y-118772237D01*
X144117763Y-119055687D01*
X144145001Y-119073887D01*
X144145001Y-122226113D01*
X144117763Y-122244313D01*
X143834313Y-122527763D01*
X143611607Y-122861066D01*
X143458204Y-123231413D01*
X143380000Y-123624570D01*
X143380000Y-124025430D01*
X143458204Y-124418587D01*
X143611607Y-124788934D01*
X143834313Y-125122237D01*
X144117763Y-125405687D01*
X144451066Y-125628393D01*
X144821413Y-125781796D01*
X145214570Y-125860000D01*
X145615430Y-125860000D01*
X146008587Y-125781796D01*
X146378934Y-125628393D01*
X146712237Y-125405687D01*
X146995687Y-125122237D01*
X147218393Y-124788934D01*
X147371796Y-124418587D01*
X147450000Y-124025430D01*
X147450000Y-123624570D01*
X147371796Y-123231413D01*
X147218393Y-122861066D01*
X146995687Y-122527763D01*
X146712237Y-122244313D01*
X146685000Y-122226114D01*
X146685000Y-119073886D01*
X146712237Y-119055687D01*
X146995687Y-118772237D01*
X147218393Y-118438934D01*
X147371796Y-118068587D01*
X147450000Y-117675430D01*
X147450000Y-117274570D01*
X147371796Y-116881413D01*
X147218393Y-116511066D01*
X146995687Y-116177763D01*
X146712237Y-115894313D01*
X146685000Y-115876114D01*
X146685000Y-112723886D01*
X146712237Y-112705687D01*
X146995687Y-112422237D01*
X147218393Y-112088934D01*
X147371796Y-111718587D01*
X147431586Y-111418000D01*
X151419928Y-111418000D01*
X151419928Y-113118000D01*
X151432188Y-113242482D01*
X151468498Y-113362180D01*
X151527463Y-113472494D01*
X151606815Y-113569185D01*
X151703506Y-113648537D01*
X151813820Y-113707502D01*
X151933518Y-113743812D01*
X152058000Y-113756072D01*
X153758000Y-113756072D01*
X153882482Y-113743812D01*
X154002180Y-113707502D01*
X154112494Y-113648537D01*
X154209185Y-113569185D01*
X154288537Y-113472494D01*
X154347502Y-113362180D01*
X154383812Y-113242482D01*
X154396072Y-113118000D01*
X154396072Y-111418000D01*
X154383812Y-111293518D01*
X154347502Y-111173820D01*
X154288537Y-111063506D01*
X154209185Y-110966815D01*
X154112494Y-110887463D01*
X154002180Y-110828498D01*
X153924421Y-110804910D01*
X154087688Y-110629991D01*
X154240990Y-110382514D01*
X154313368Y-110207755D01*
X154209700Y-109982000D01*
X153162000Y-109982000D01*
X153162000Y-110002000D01*
X152654000Y-110002000D01*
X152654000Y-109982000D01*
X151606300Y-109982000D01*
X151502632Y-110207755D01*
X151575010Y-110382514D01*
X151728312Y-110629991D01*
X151891579Y-110804910D01*
X151813820Y-110828498D01*
X151703506Y-110887463D01*
X151606815Y-110966815D01*
X151527463Y-111063506D01*
X151468498Y-111173820D01*
X151432188Y-111293518D01*
X151419928Y-111418000D01*
X147431586Y-111418000D01*
X147450000Y-111325430D01*
X147450000Y-110924570D01*
X147371796Y-110531413D01*
X147218393Y-110161066D01*
X146995687Y-109827763D01*
X146712237Y-109544313D01*
X146685000Y-109526114D01*
X146685000Y-109248245D01*
X151502632Y-109248245D01*
X151606300Y-109474000D01*
X152654000Y-109474000D01*
X152654000Y-108423624D01*
X153162000Y-108423624D01*
X153162000Y-109474000D01*
X154209700Y-109474000D01*
X154313368Y-109248245D01*
X154240990Y-109073486D01*
X154087688Y-108826009D01*
X153889051Y-108613195D01*
X153652713Y-108443222D01*
X153387756Y-108322622D01*
X153162000Y-108423624D01*
X152654000Y-108423624D01*
X152428244Y-108322622D01*
X152163287Y-108443222D01*
X151926949Y-108613195D01*
X151728312Y-108826009D01*
X151575010Y-109073486D01*
X151502632Y-109248245D01*
X146685000Y-109248245D01*
X146685000Y-106373886D01*
X146712237Y-106355687D01*
X146995687Y-106072237D01*
X147218393Y-105738934D01*
X147371796Y-105368587D01*
X147450000Y-104975430D01*
X147450000Y-104574570D01*
X147371796Y-104181413D01*
X147218393Y-103811066D01*
X146995687Y-103477763D01*
X146712237Y-103194313D01*
X146685000Y-103176114D01*
X146685000Y-100023886D01*
X146712237Y-100005687D01*
X146995687Y-99722237D01*
X147218393Y-99388934D01*
X147371796Y-99018587D01*
X147450000Y-98625430D01*
X147450000Y-98224570D01*
X147371796Y-97831413D01*
X147218393Y-97461066D01*
X146995687Y-97127763D01*
X146712237Y-96844313D01*
X146685000Y-96826114D01*
X146685000Y-93673886D01*
X146712237Y-93655687D01*
X146995687Y-93372237D01*
X147218393Y-93038934D01*
X147371796Y-92668587D01*
X147450000Y-92275430D01*
X147450000Y-91874570D01*
X147371796Y-91481413D01*
X147218393Y-91111066D01*
X146995687Y-90777763D01*
X146712237Y-90494313D01*
X146685000Y-90476114D01*
X146685000Y-87323886D01*
X146712237Y-87305687D01*
X146995687Y-87022237D01*
X147218393Y-86688934D01*
X147371796Y-86318587D01*
X147450000Y-85925430D01*
X147450000Y-85524570D01*
X147371796Y-85131413D01*
X147218393Y-84761066D01*
X146995687Y-84427763D01*
X146712237Y-84144313D01*
X146685000Y-84126114D01*
X146685000Y-80973886D01*
X146712237Y-80955687D01*
X146995687Y-80672237D01*
X147218393Y-80338934D01*
X147371796Y-79968587D01*
X147450000Y-79575430D01*
X147450000Y-79174570D01*
X147371796Y-78781413D01*
X147218393Y-78411066D01*
X146995687Y-78077763D01*
X146712237Y-77794313D01*
X146685000Y-77776114D01*
X146685000Y-74623886D01*
X146712237Y-74605687D01*
X146995687Y-74322237D01*
X147218393Y-73988934D01*
X147371796Y-73618587D01*
X147450000Y-73225430D01*
X147450000Y-72824570D01*
X147371796Y-72431413D01*
X147218393Y-72061066D01*
X146995687Y-71727763D01*
X146712237Y-71444313D01*
X146685000Y-71426114D01*
X146685000Y-68273886D01*
X146712237Y-68255687D01*
X146995687Y-67972237D01*
X147218393Y-67638934D01*
X147371796Y-67268587D01*
X147450000Y-66875430D01*
X147450000Y-66474570D01*
X158620000Y-66474570D01*
X158620000Y-66875430D01*
X158698204Y-67268587D01*
X158851607Y-67638934D01*
X159074313Y-67972237D01*
X159357763Y-68255687D01*
X159385001Y-68273887D01*
X159385001Y-71426113D01*
X159357763Y-71444313D01*
X159074313Y-71727763D01*
X158851607Y-72061066D01*
X158698204Y-72431413D01*
X158620000Y-72824570D01*
X158620000Y-73225430D01*
X158698204Y-73618587D01*
X158851607Y-73988934D01*
X159074313Y-74322237D01*
X159357763Y-74605687D01*
X159385001Y-74623887D01*
X159385001Y-77776113D01*
X159357763Y-77794313D01*
X159074313Y-78077763D01*
X158851607Y-78411066D01*
X158698204Y-78781413D01*
X158620000Y-79174570D01*
X158620000Y-79575430D01*
X158698204Y-79968587D01*
X158851607Y-80338934D01*
X159074313Y-80672237D01*
X159357763Y-80955687D01*
X159385001Y-80973887D01*
X159385001Y-84126113D01*
X159357763Y-84144313D01*
X159074313Y-84427763D01*
X158851607Y-84761066D01*
X158698204Y-85131413D01*
X158620000Y-85524570D01*
X158620000Y-85925430D01*
X158698204Y-86318587D01*
X158851607Y-86688934D01*
X159074313Y-87022237D01*
X159357763Y-87305687D01*
X159385001Y-87323887D01*
X159385001Y-90476113D01*
X159357763Y-90494313D01*
X159074313Y-90777763D01*
X158851607Y-91111066D01*
X158698204Y-91481413D01*
X158620000Y-91874570D01*
X158620000Y-92275430D01*
X158698204Y-92668587D01*
X158851607Y-93038934D01*
X159074313Y-93372237D01*
X159357763Y-93655687D01*
X159385001Y-93673887D01*
X159385000Y-96826113D01*
X159357763Y-96844313D01*
X159074313Y-97127763D01*
X158851607Y-97461066D01*
X158698204Y-97831413D01*
X158620000Y-98224570D01*
X158620000Y-98625430D01*
X158698204Y-99018587D01*
X158851607Y-99388934D01*
X159074313Y-99722237D01*
X159357763Y-100005687D01*
X159385000Y-100023886D01*
X159385000Y-103176114D01*
X159357763Y-103194313D01*
X159074313Y-103477763D01*
X158851607Y-103811066D01*
X158698204Y-104181413D01*
X158620000Y-104574570D01*
X158620000Y-104975430D01*
X158698204Y-105368587D01*
X158851607Y-105738934D01*
X159074313Y-106072237D01*
X159357763Y-106355687D01*
X159385000Y-106373886D01*
X159385000Y-109526114D01*
X159357763Y-109544313D01*
X159074313Y-109827763D01*
X158851607Y-110161066D01*
X158698204Y-110531413D01*
X158620000Y-110924570D01*
X158620000Y-111325430D01*
X158698204Y-111718587D01*
X158851607Y-112088934D01*
X159074313Y-112422237D01*
X159357763Y-112705687D01*
X159385000Y-112723886D01*
X159385000Y-115876114D01*
X159357763Y-115894313D01*
X159074313Y-116177763D01*
X158851607Y-116511066D01*
X158698204Y-116881413D01*
X158620000Y-117274570D01*
X158620000Y-117675430D01*
X158698204Y-118068587D01*
X158851607Y-118438934D01*
X159074313Y-118772237D01*
X159357763Y-119055687D01*
X159385000Y-119073886D01*
X159385000Y-122226114D01*
X159357763Y-122244313D01*
X159074313Y-122527763D01*
X158851607Y-122861066D01*
X158698204Y-123231413D01*
X158620000Y-123624570D01*
X158620000Y-124025430D01*
X158698204Y-124418587D01*
X158851607Y-124788934D01*
X159074313Y-125122237D01*
X159357763Y-125405687D01*
X159691066Y-125628393D01*
X160061413Y-125781796D01*
X160454570Y-125860000D01*
X160855430Y-125860000D01*
X161248587Y-125781796D01*
X161618934Y-125628393D01*
X161952237Y-125405687D01*
X162235687Y-125122237D01*
X162319872Y-124996245D01*
X165726632Y-124996245D01*
X165830300Y-125222000D01*
X166878000Y-125222000D01*
X166878000Y-124171624D01*
X167386000Y-124171624D01*
X167386000Y-125222000D01*
X168433700Y-125222000D01*
X168537368Y-124996245D01*
X168464990Y-124821486D01*
X168311688Y-124574009D01*
X168113051Y-124361195D01*
X167876713Y-124191222D01*
X167611756Y-124070622D01*
X167386000Y-124171624D01*
X166878000Y-124171624D01*
X166652244Y-124070622D01*
X166387287Y-124191222D01*
X166150949Y-124361195D01*
X165952312Y-124574009D01*
X165799010Y-124821486D01*
X165726632Y-124996245D01*
X162319872Y-124996245D01*
X162458393Y-124788934D01*
X162611796Y-124418587D01*
X162690000Y-124025430D01*
X162690000Y-123624570D01*
X162611796Y-123231413D01*
X162458393Y-122861066D01*
X162235687Y-122527763D01*
X161952237Y-122244313D01*
X161925000Y-122226114D01*
X161925000Y-119073886D01*
X161952237Y-119055687D01*
X162235687Y-118772237D01*
X162458393Y-118438934D01*
X162611796Y-118068587D01*
X162690000Y-117675430D01*
X162690000Y-117274570D01*
X162611796Y-116881413D01*
X162458393Y-116511066D01*
X162235687Y-116177763D01*
X161952237Y-115894313D01*
X161925000Y-115876114D01*
X161925000Y-112723886D01*
X161952237Y-112705687D01*
X162235687Y-112422237D01*
X162362924Y-112231812D01*
X163744781Y-112231812D01*
X163808086Y-112384670D01*
X163954777Y-112624707D01*
X164145478Y-112831514D01*
X164372861Y-112997143D01*
X164628187Y-113115229D01*
X164846000Y-113013602D01*
X164846000Y-112014000D01*
X165354000Y-112014000D01*
X165354000Y-113013602D01*
X165571813Y-113115229D01*
X165827139Y-112997143D01*
X166054522Y-112831514D01*
X166245223Y-112624707D01*
X166391914Y-112384670D01*
X166455219Y-112231812D01*
X166350719Y-112014000D01*
X165354000Y-112014000D01*
X164846000Y-112014000D01*
X163849281Y-112014000D01*
X163744781Y-112231812D01*
X162362924Y-112231812D01*
X162458393Y-112088934D01*
X162611796Y-111718587D01*
X162690000Y-111325430D01*
X162690000Y-110924570D01*
X162611796Y-110531413D01*
X162458393Y-110161066D01*
X162235687Y-109827763D01*
X162099736Y-109691812D01*
X163744781Y-109691812D01*
X163808086Y-109844670D01*
X163954777Y-110084707D01*
X164145478Y-110291514D01*
X164372861Y-110457143D01*
X164443905Y-110490000D01*
X164372861Y-110522857D01*
X164145478Y-110688486D01*
X163954777Y-110895293D01*
X163808086Y-111135330D01*
X163744781Y-111288188D01*
X163849281Y-111506000D01*
X164846000Y-111506000D01*
X164846000Y-110506398D01*
X164810855Y-110490000D01*
X164846000Y-110473602D01*
X164846000Y-109474000D01*
X165354000Y-109474000D01*
X165354000Y-110473602D01*
X165389145Y-110490000D01*
X165354000Y-110506398D01*
X165354000Y-111506000D01*
X166350719Y-111506000D01*
X166455219Y-111288188D01*
X166391914Y-111135330D01*
X166245223Y-110895293D01*
X166054522Y-110688486D01*
X165827139Y-110522857D01*
X165756095Y-110490000D01*
X165827139Y-110457143D01*
X166054522Y-110291514D01*
X166245223Y-110084707D01*
X166391914Y-109844670D01*
X166455219Y-109691812D01*
X166350719Y-109474000D01*
X165354000Y-109474000D01*
X164846000Y-109474000D01*
X163849281Y-109474000D01*
X163744781Y-109691812D01*
X162099736Y-109691812D01*
X161952237Y-109544313D01*
X161925000Y-109526114D01*
X161925000Y-106373886D01*
X161952237Y-106355687D01*
X162235687Y-106072237D01*
X162458393Y-105738934D01*
X162611796Y-105368587D01*
X162690000Y-104975430D01*
X162690000Y-104574570D01*
X162611796Y-104181413D01*
X162458393Y-103811066D01*
X162235687Y-103477763D01*
X162097924Y-103340000D01*
X163661928Y-103340000D01*
X163661928Y-104940000D01*
X163674188Y-105064482D01*
X163710498Y-105184180D01*
X163769463Y-105294494D01*
X163848815Y-105391185D01*
X163945506Y-105470537D01*
X164055820Y-105529502D01*
X164175518Y-105565812D01*
X164183961Y-105566643D01*
X163985363Y-105765241D01*
X163828320Y-106000273D01*
X163720147Y-106261426D01*
X163665000Y-106538665D01*
X163665000Y-106821335D01*
X163720147Y-107098574D01*
X163828320Y-107359727D01*
X163985363Y-107594759D01*
X164185241Y-107794637D01*
X164420273Y-107951680D01*
X164430823Y-107956050D01*
X164372861Y-107982857D01*
X164145478Y-108148486D01*
X163954777Y-108355293D01*
X163808086Y-108595330D01*
X163744781Y-108748188D01*
X163849281Y-108966000D01*
X164846000Y-108966000D01*
X164846000Y-108946000D01*
X165354000Y-108946000D01*
X165354000Y-108966000D01*
X166350719Y-108966000D01*
X166455219Y-108748188D01*
X166391914Y-108595330D01*
X166245223Y-108355293D01*
X166054522Y-108148486D01*
X165827139Y-107982857D01*
X165769177Y-107956050D01*
X165779727Y-107951680D01*
X166014759Y-107794637D01*
X166214637Y-107594759D01*
X166371680Y-107359727D01*
X166479853Y-107098574D01*
X166535000Y-106821335D01*
X166535000Y-106538665D01*
X166479853Y-106261426D01*
X166371680Y-106000273D01*
X166214637Y-105765241D01*
X166016039Y-105566643D01*
X166024482Y-105565812D01*
X166144180Y-105529502D01*
X166254494Y-105470537D01*
X166351185Y-105391185D01*
X166430537Y-105294494D01*
X166489502Y-105184180D01*
X166525812Y-105064482D01*
X166538072Y-104940000D01*
X166538072Y-103998665D01*
X171285000Y-103998665D01*
X171285000Y-104281335D01*
X171340147Y-104558574D01*
X171448320Y-104819727D01*
X171605363Y-105054759D01*
X171805241Y-105254637D01*
X172037759Y-105410000D01*
X171805241Y-105565363D01*
X171605363Y-105765241D01*
X171448320Y-106000273D01*
X171340147Y-106261426D01*
X171285000Y-106538665D01*
X171285000Y-106821335D01*
X171340147Y-107098574D01*
X171448320Y-107359727D01*
X171605363Y-107594759D01*
X171805241Y-107794637D01*
X172037759Y-107950000D01*
X171805241Y-108105363D01*
X171605363Y-108305241D01*
X171448320Y-108540273D01*
X171340147Y-108801426D01*
X171285000Y-109078665D01*
X171285000Y-109361335D01*
X171340147Y-109638574D01*
X171448320Y-109899727D01*
X171605363Y-110134759D01*
X171805241Y-110334637D01*
X172037759Y-110490000D01*
X171805241Y-110645363D01*
X171605363Y-110845241D01*
X171448320Y-111080273D01*
X171340147Y-111341426D01*
X171285000Y-111618665D01*
X171285000Y-111901335D01*
X171340147Y-112178574D01*
X171448320Y-112439727D01*
X171605363Y-112674759D01*
X171805241Y-112874637D01*
X172040273Y-113031680D01*
X172301426Y-113139853D01*
X172578665Y-113195000D01*
X172861335Y-113195000D01*
X173138574Y-113139853D01*
X173399727Y-113031680D01*
X173634759Y-112874637D01*
X173834637Y-112674759D01*
X173991680Y-112439727D01*
X174099853Y-112178574D01*
X174155000Y-111901335D01*
X174155000Y-111618665D01*
X174099853Y-111341426D01*
X173991680Y-111080273D01*
X173834637Y-110845241D01*
X173634759Y-110645363D01*
X173402241Y-110490000D01*
X173634759Y-110334637D01*
X173834637Y-110134759D01*
X173991680Y-109899727D01*
X174099853Y-109638574D01*
X174155000Y-109361335D01*
X174155000Y-109078665D01*
X174099853Y-108801426D01*
X173991680Y-108540273D01*
X173834637Y-108305241D01*
X173634759Y-108105363D01*
X173402241Y-107950000D01*
X173634759Y-107794637D01*
X173834637Y-107594759D01*
X173991680Y-107359727D01*
X174099853Y-107098574D01*
X174155000Y-106821335D01*
X174155000Y-106538665D01*
X174099853Y-106261426D01*
X173991680Y-106000273D01*
X173834637Y-105765241D01*
X173634759Y-105565363D01*
X173402241Y-105410000D01*
X173634759Y-105254637D01*
X173834637Y-105054759D01*
X173991680Y-104819727D01*
X174099853Y-104558574D01*
X174155000Y-104281335D01*
X174155000Y-103998665D01*
X174099853Y-103721426D01*
X173991680Y-103460273D01*
X173834637Y-103225241D01*
X173634759Y-103025363D01*
X173399727Y-102868320D01*
X173138574Y-102760147D01*
X172861335Y-102705000D01*
X172578665Y-102705000D01*
X172301426Y-102760147D01*
X172040273Y-102868320D01*
X171805241Y-103025363D01*
X171605363Y-103225241D01*
X171448320Y-103460273D01*
X171340147Y-103721426D01*
X171285000Y-103998665D01*
X166538072Y-103998665D01*
X166538072Y-103340000D01*
X166525812Y-103215518D01*
X166489502Y-103095820D01*
X166430537Y-102985506D01*
X166351185Y-102888815D01*
X166254494Y-102809463D01*
X166144180Y-102750498D01*
X166024482Y-102714188D01*
X165900000Y-102701928D01*
X164300000Y-102701928D01*
X164175518Y-102714188D01*
X164055820Y-102750498D01*
X163945506Y-102809463D01*
X163848815Y-102888815D01*
X163769463Y-102985506D01*
X163710498Y-103095820D01*
X163674188Y-103215518D01*
X163661928Y-103340000D01*
X162097924Y-103340000D01*
X161952237Y-103194313D01*
X161925000Y-103176114D01*
X161925000Y-100023886D01*
X161952237Y-100005687D01*
X162235687Y-99722237D01*
X162458393Y-99388934D01*
X162611796Y-99018587D01*
X162690000Y-98625430D01*
X162690000Y-98224570D01*
X162611796Y-97831413D01*
X162458393Y-97461066D01*
X162235687Y-97127763D01*
X161952237Y-96844313D01*
X161925000Y-96826114D01*
X161925000Y-93673886D01*
X161952237Y-93655687D01*
X162235687Y-93372237D01*
X162458393Y-93038934D01*
X162611796Y-92668587D01*
X162690000Y-92275430D01*
X162690000Y-91874570D01*
X162611796Y-91481413D01*
X162458393Y-91111066D01*
X162235687Y-90777763D01*
X162107679Y-90649755D01*
X164329632Y-90649755D01*
X164402010Y-90824514D01*
X164555312Y-91071991D01*
X164753949Y-91284805D01*
X164990287Y-91454778D01*
X165255244Y-91575378D01*
X165481000Y-91474376D01*
X165481000Y-90424000D01*
X165989000Y-90424000D01*
X165989000Y-91474376D01*
X166214756Y-91575378D01*
X166479713Y-91454778D01*
X166716051Y-91284805D01*
X166914688Y-91071991D01*
X167067990Y-90824514D01*
X167140368Y-90649755D01*
X167136721Y-90641812D01*
X168316781Y-90641812D01*
X168380086Y-90794670D01*
X168526777Y-91034707D01*
X168717478Y-91241514D01*
X168944861Y-91407143D01*
X169200187Y-91525229D01*
X169418000Y-91423602D01*
X169418000Y-90424000D01*
X169926000Y-90424000D01*
X169926000Y-91423602D01*
X170143813Y-91525229D01*
X170399139Y-91407143D01*
X170626522Y-91241514D01*
X170817223Y-91034707D01*
X170963914Y-90794670D01*
X171027219Y-90641812D01*
X175936781Y-90641812D01*
X176000086Y-90794670D01*
X176146777Y-91034707D01*
X176337478Y-91241514D01*
X176564861Y-91407143D01*
X176820187Y-91525229D01*
X177038000Y-91423602D01*
X177038000Y-90424000D01*
X177546000Y-90424000D01*
X177546000Y-91423602D01*
X177763813Y-91525229D01*
X178019139Y-91407143D01*
X178246522Y-91241514D01*
X178437223Y-91034707D01*
X178583914Y-90794670D01*
X178647219Y-90641812D01*
X178542719Y-90424000D01*
X177546000Y-90424000D01*
X177038000Y-90424000D01*
X176041281Y-90424000D01*
X175936781Y-90641812D01*
X171027219Y-90641812D01*
X170922719Y-90424000D01*
X169926000Y-90424000D01*
X169418000Y-90424000D01*
X168421281Y-90424000D01*
X168316781Y-90641812D01*
X167136721Y-90641812D01*
X167036700Y-90424000D01*
X165989000Y-90424000D01*
X165481000Y-90424000D01*
X164433300Y-90424000D01*
X164329632Y-90649755D01*
X162107679Y-90649755D01*
X161952237Y-90494313D01*
X161925000Y-90476114D01*
X161925000Y-87323886D01*
X161952237Y-87305687D01*
X162235687Y-87022237D01*
X162458393Y-86688934D01*
X162611796Y-86318587D01*
X162690000Y-85925430D01*
X162690000Y-85524570D01*
X162611796Y-85131413D01*
X162458393Y-84761066D01*
X162235687Y-84427763D01*
X162047924Y-84240000D01*
X164246928Y-84240000D01*
X164246928Y-85940000D01*
X164259188Y-86064482D01*
X164295498Y-86184180D01*
X164354463Y-86294494D01*
X164433815Y-86391185D01*
X164530506Y-86470537D01*
X164640820Y-86529502D01*
X164713380Y-86551513D01*
X164581525Y-86683368D01*
X164419010Y-86926589D01*
X164307068Y-87196842D01*
X164250000Y-87483740D01*
X164250000Y-87776260D01*
X164307068Y-88063158D01*
X164419010Y-88333411D01*
X164581525Y-88576632D01*
X164788368Y-88783475D01*
X164966378Y-88902417D01*
X164753949Y-89055195D01*
X164555312Y-89268009D01*
X164402010Y-89515486D01*
X164329632Y-89690245D01*
X164433300Y-89916000D01*
X165481000Y-89916000D01*
X165481000Y-89896000D01*
X165989000Y-89896000D01*
X165989000Y-89916000D01*
X167036700Y-89916000D01*
X167140368Y-89690245D01*
X167067990Y-89515486D01*
X166914688Y-89268009D01*
X166716051Y-89055195D01*
X166503622Y-88902417D01*
X166681632Y-88783475D01*
X166888475Y-88576632D01*
X167050990Y-88333411D01*
X167162932Y-88063158D01*
X167220000Y-87776260D01*
X167220000Y-87483740D01*
X167162932Y-87196842D01*
X167050990Y-86926589D01*
X166888475Y-86683368D01*
X166756620Y-86551513D01*
X166829180Y-86529502D01*
X166939494Y-86470537D01*
X167036185Y-86391185D01*
X167115537Y-86294494D01*
X167174502Y-86184180D01*
X167210812Y-86064482D01*
X167223072Y-85940000D01*
X167223072Y-84240000D01*
X167210812Y-84115518D01*
X167174502Y-83995820D01*
X167115537Y-83885506D01*
X167036185Y-83788815D01*
X166939494Y-83709463D01*
X166829180Y-83650498D01*
X166709482Y-83614188D01*
X166585000Y-83601928D01*
X164885000Y-83601928D01*
X164760518Y-83614188D01*
X164640820Y-83650498D01*
X164530506Y-83709463D01*
X164433815Y-83788815D01*
X164354463Y-83885506D01*
X164295498Y-83995820D01*
X164259188Y-84115518D01*
X164246928Y-84240000D01*
X162047924Y-84240000D01*
X161952237Y-84144313D01*
X161925000Y-84126114D01*
X161925000Y-81750000D01*
X168233928Y-81750000D01*
X168233928Y-83350000D01*
X168246188Y-83474482D01*
X168282498Y-83594180D01*
X168341463Y-83704494D01*
X168420815Y-83801185D01*
X168517506Y-83880537D01*
X168627820Y-83939502D01*
X168747518Y-83975812D01*
X168755961Y-83976643D01*
X168557363Y-84175241D01*
X168400320Y-84410273D01*
X168292147Y-84671426D01*
X168237000Y-84948665D01*
X168237000Y-85231335D01*
X168292147Y-85508574D01*
X168400320Y-85769727D01*
X168557363Y-86004759D01*
X168757241Y-86204637D01*
X168989759Y-86360000D01*
X168757241Y-86515363D01*
X168557363Y-86715241D01*
X168400320Y-86950273D01*
X168292147Y-87211426D01*
X168237000Y-87488665D01*
X168237000Y-87771335D01*
X168292147Y-88048574D01*
X168400320Y-88309727D01*
X168557363Y-88544759D01*
X168757241Y-88744637D01*
X168992273Y-88901680D01*
X169002823Y-88906050D01*
X168944861Y-88932857D01*
X168717478Y-89098486D01*
X168526777Y-89305293D01*
X168380086Y-89545330D01*
X168316781Y-89698188D01*
X168421281Y-89916000D01*
X169418000Y-89916000D01*
X169418000Y-89896000D01*
X169926000Y-89896000D01*
X169926000Y-89916000D01*
X170922719Y-89916000D01*
X171027219Y-89698188D01*
X170963914Y-89545330D01*
X170817223Y-89305293D01*
X170626522Y-89098486D01*
X170399139Y-88932857D01*
X170341177Y-88906050D01*
X170351727Y-88901680D01*
X170586759Y-88744637D01*
X170786637Y-88544759D01*
X170943680Y-88309727D01*
X171051853Y-88048574D01*
X171107000Y-87771335D01*
X171107000Y-87488665D01*
X171051853Y-87211426D01*
X170943680Y-86950273D01*
X170786637Y-86715241D01*
X170586759Y-86515363D01*
X170354241Y-86360000D01*
X170586759Y-86204637D01*
X170786637Y-86004759D01*
X170943680Y-85769727D01*
X171051853Y-85508574D01*
X171107000Y-85231335D01*
X171107000Y-84948665D01*
X171051853Y-84671426D01*
X170943680Y-84410273D01*
X170786637Y-84175241D01*
X170588039Y-83976643D01*
X170596482Y-83975812D01*
X170716180Y-83939502D01*
X170826494Y-83880537D01*
X170923185Y-83801185D01*
X171002537Y-83704494D01*
X171061502Y-83594180D01*
X171097812Y-83474482D01*
X171110072Y-83350000D01*
X171110072Y-82408665D01*
X175857000Y-82408665D01*
X175857000Y-82691335D01*
X175912147Y-82968574D01*
X176020320Y-83229727D01*
X176177363Y-83464759D01*
X176377241Y-83664637D01*
X176609759Y-83820000D01*
X176377241Y-83975363D01*
X176177363Y-84175241D01*
X176020320Y-84410273D01*
X175912147Y-84671426D01*
X175857000Y-84948665D01*
X175857000Y-85231335D01*
X175912147Y-85508574D01*
X176020320Y-85769727D01*
X176177363Y-86004759D01*
X176377241Y-86204637D01*
X176609759Y-86360000D01*
X176377241Y-86515363D01*
X176177363Y-86715241D01*
X176020320Y-86950273D01*
X175912147Y-87211426D01*
X175857000Y-87488665D01*
X175857000Y-87771335D01*
X175912147Y-88048574D01*
X176020320Y-88309727D01*
X176177363Y-88544759D01*
X176377241Y-88744637D01*
X176612273Y-88901680D01*
X176622823Y-88906050D01*
X176564861Y-88932857D01*
X176337478Y-89098486D01*
X176146777Y-89305293D01*
X176000086Y-89545330D01*
X175936781Y-89698188D01*
X176041281Y-89916000D01*
X177038000Y-89916000D01*
X177038000Y-89896000D01*
X177546000Y-89896000D01*
X177546000Y-89916000D01*
X178542719Y-89916000D01*
X178647219Y-89698188D01*
X178583914Y-89545330D01*
X178437223Y-89305293D01*
X178246522Y-89098486D01*
X178019139Y-88932857D01*
X177961177Y-88906050D01*
X177971727Y-88901680D01*
X178206759Y-88744637D01*
X178406637Y-88544759D01*
X178563680Y-88309727D01*
X178671853Y-88048574D01*
X178727000Y-87771335D01*
X178727000Y-87488665D01*
X178671853Y-87211426D01*
X178563680Y-86950273D01*
X178406637Y-86715241D01*
X178206759Y-86515363D01*
X177974241Y-86360000D01*
X178206759Y-86204637D01*
X178406637Y-86004759D01*
X178563680Y-85769727D01*
X178671853Y-85508574D01*
X178727000Y-85231335D01*
X178727000Y-84948665D01*
X178671853Y-84671426D01*
X178563680Y-84410273D01*
X178406637Y-84175241D01*
X178206759Y-83975363D01*
X177974241Y-83820000D01*
X178206759Y-83664637D01*
X178406637Y-83464759D01*
X178563680Y-83229727D01*
X178671853Y-82968574D01*
X178727000Y-82691335D01*
X178727000Y-82408665D01*
X178671853Y-82131426D01*
X178563680Y-81870273D01*
X178406637Y-81635241D01*
X178206759Y-81435363D01*
X177971727Y-81278320D01*
X177710574Y-81170147D01*
X177433335Y-81115000D01*
X177150665Y-81115000D01*
X176873426Y-81170147D01*
X176612273Y-81278320D01*
X176377241Y-81435363D01*
X176177363Y-81635241D01*
X176020320Y-81870273D01*
X175912147Y-82131426D01*
X175857000Y-82408665D01*
X171110072Y-82408665D01*
X171110072Y-81750000D01*
X171097812Y-81625518D01*
X171061502Y-81505820D01*
X171002537Y-81395506D01*
X170923185Y-81298815D01*
X170826494Y-81219463D01*
X170716180Y-81160498D01*
X170596482Y-81124188D01*
X170472000Y-81111928D01*
X168872000Y-81111928D01*
X168747518Y-81124188D01*
X168627820Y-81160498D01*
X168517506Y-81219463D01*
X168420815Y-81298815D01*
X168341463Y-81395506D01*
X168282498Y-81505820D01*
X168246188Y-81625518D01*
X168233928Y-81750000D01*
X161925000Y-81750000D01*
X161925000Y-80973886D01*
X161952237Y-80955687D01*
X162235687Y-80672237D01*
X162458393Y-80338934D01*
X162611796Y-79968587D01*
X162690000Y-79575430D01*
X162690000Y-79174570D01*
X162611796Y-78781413D01*
X162458393Y-78411066D01*
X162235687Y-78077763D01*
X161952237Y-77794313D01*
X161925000Y-77776114D01*
X161925000Y-74623886D01*
X161952237Y-74605687D01*
X162235687Y-74322237D01*
X162458393Y-73988934D01*
X162611796Y-73618587D01*
X162690000Y-73225430D01*
X162690000Y-72824570D01*
X162611796Y-72431413D01*
X162458393Y-72061066D01*
X162349436Y-71898000D01*
X172399428Y-71898000D01*
X172399428Y-73898000D01*
X172411688Y-74022482D01*
X172447998Y-74142180D01*
X172506963Y-74252494D01*
X172586315Y-74349185D01*
X172683006Y-74428537D01*
X172793320Y-74487502D01*
X172913018Y-74523812D01*
X173037500Y-74536072D01*
X174942500Y-74536072D01*
X175066982Y-74523812D01*
X175186680Y-74487502D01*
X175296994Y-74428537D01*
X175393685Y-74349185D01*
X175473037Y-74252494D01*
X175517905Y-74168553D01*
X175643766Y-74271845D01*
X175919552Y-74419255D01*
X176218797Y-74510030D01*
X176530000Y-74540681D01*
X176841204Y-74510030D01*
X177140449Y-74419255D01*
X177416235Y-74271845D01*
X177657963Y-74073463D01*
X177800000Y-73900391D01*
X177942037Y-74073463D01*
X178183766Y-74271845D01*
X178459552Y-74419255D01*
X178758797Y-74510030D01*
X179070000Y-74540681D01*
X179381204Y-74510030D01*
X179680449Y-74419255D01*
X179956235Y-74271845D01*
X180197963Y-74073463D01*
X180396345Y-73831734D01*
X180543755Y-73555948D01*
X180634530Y-73256703D01*
X180657500Y-73023485D01*
X180657500Y-72772514D01*
X180634530Y-72539296D01*
X180543755Y-72240051D01*
X180396345Y-71964265D01*
X180197963Y-71722537D01*
X179956234Y-71524155D01*
X179680448Y-71376745D01*
X179381203Y-71285970D01*
X179070000Y-71255319D01*
X178758796Y-71285970D01*
X178459551Y-71376745D01*
X178183765Y-71524155D01*
X177942037Y-71722537D01*
X177800000Y-71895609D01*
X177657963Y-71722537D01*
X177416234Y-71524155D01*
X177140448Y-71376745D01*
X176841203Y-71285970D01*
X176530000Y-71255319D01*
X176218796Y-71285970D01*
X175919551Y-71376745D01*
X175643765Y-71524155D01*
X175517905Y-71627446D01*
X175473037Y-71543506D01*
X175393685Y-71446815D01*
X175296994Y-71367463D01*
X175186680Y-71308498D01*
X175066982Y-71272188D01*
X174942500Y-71259928D01*
X173037500Y-71259928D01*
X172913018Y-71272188D01*
X172793320Y-71308498D01*
X172683006Y-71367463D01*
X172586315Y-71446815D01*
X172506963Y-71543506D01*
X172447998Y-71653820D01*
X172411688Y-71773518D01*
X172399428Y-71898000D01*
X162349436Y-71898000D01*
X162235687Y-71727763D01*
X161952237Y-71444313D01*
X161925000Y-71426114D01*
X161925000Y-68273886D01*
X161952237Y-68255687D01*
X162235687Y-67972237D01*
X162458393Y-67638934D01*
X162611796Y-67268587D01*
X162690000Y-66875430D01*
X162690000Y-66474570D01*
X162611796Y-66081413D01*
X162458393Y-65711066D01*
X162235687Y-65377763D01*
X161952237Y-65094313D01*
X161618934Y-64871607D01*
X161248587Y-64718204D01*
X160855430Y-64640000D01*
X160454570Y-64640000D01*
X160061413Y-64718204D01*
X159691066Y-64871607D01*
X159357763Y-65094313D01*
X159074313Y-65377763D01*
X158851607Y-65711066D01*
X158698204Y-66081413D01*
X158620000Y-66474570D01*
X147450000Y-66474570D01*
X147371796Y-66081413D01*
X147218393Y-65711066D01*
X146995687Y-65377763D01*
X146712237Y-65094313D01*
X146378934Y-64871607D01*
X146008587Y-64718204D01*
X145615430Y-64640000D01*
X145214570Y-64640000D01*
X144821413Y-64718204D01*
X144451066Y-64871607D01*
X144117763Y-65094313D01*
X143834313Y-65377763D01*
X143611607Y-65711066D01*
X143458204Y-66081413D01*
X143380000Y-66474570D01*
X139827000Y-66474570D01*
X139827000Y-64262000D01*
X182118000Y-64262000D01*
X182118000Y-77417394D01*
%TA.AperFunction,Conductor*%
D28*
G36*
X182118000Y-77417394D02*
G01*
X180250197Y-79285197D01*
X180234403Y-79304443D01*
X180222667Y-79326399D01*
X180215440Y-79350224D01*
X180213000Y-79375000D01*
X180213000Y-93292394D01*
X175170197Y-98335197D01*
X175154403Y-98354443D01*
X175142667Y-98376399D01*
X175135440Y-98400224D01*
X175133000Y-98425000D01*
X175133000Y-119278425D01*
X174894037Y-119474537D01*
X174752000Y-119647609D01*
X174609963Y-119474537D01*
X174368235Y-119276155D01*
X174092449Y-119128745D01*
X173793204Y-119037970D01*
X173482000Y-119007319D01*
X173170797Y-119037970D01*
X172871552Y-119128745D01*
X172595766Y-119276155D01*
X172354037Y-119474537D01*
X172155655Y-119716265D01*
X172008245Y-119992051D01*
X171917470Y-120291296D01*
X171894500Y-120524514D01*
X171894500Y-120775485D01*
X171917470Y-121008703D01*
X172008245Y-121307948D01*
X172155655Y-121583734D01*
X172354037Y-121825463D01*
X172595765Y-122023845D01*
X172871551Y-122171255D01*
X173170796Y-122262030D01*
X173482000Y-122292681D01*
X173583001Y-122282733D01*
X173583001Y-122459250D01*
X173578614Y-122461595D01*
X173444038Y-122572038D01*
X173333595Y-122706614D01*
X173251528Y-122860150D01*
X173200992Y-123026746D01*
X173183928Y-123200000D01*
X173183928Y-124450000D01*
X173200992Y-124623254D01*
X173251528Y-124789850D01*
X173333595Y-124943386D01*
X173444038Y-125077962D01*
X173578614Y-125188405D01*
X173732150Y-125270472D01*
X173898746Y-125321008D01*
X174072000Y-125338072D01*
X174872000Y-125338072D01*
X175045254Y-125321008D01*
X175133000Y-125294391D01*
X175133000Y-128880000D01*
X168618693Y-128880000D01*
X168620072Y-128866000D01*
X168620072Y-127166000D01*
X168607812Y-127041518D01*
X168571502Y-126921820D01*
X168512537Y-126811506D01*
X168433185Y-126714815D01*
X168336494Y-126635463D01*
X168226180Y-126576498D01*
X168148421Y-126552910D01*
X168311688Y-126377991D01*
X168464990Y-126130514D01*
X168537368Y-125955755D01*
X168433700Y-125730000D01*
X167386000Y-125730000D01*
X167386000Y-125750000D01*
X166878000Y-125750000D01*
X166878000Y-125730000D01*
X165830300Y-125730000D01*
X165726632Y-125955755D01*
X165799010Y-126130514D01*
X165952312Y-126377991D01*
X166115579Y-126552910D01*
X166037820Y-126576498D01*
X165927506Y-126635463D01*
X165830815Y-126714815D01*
X165751463Y-126811506D01*
X165692498Y-126921820D01*
X165656188Y-127041518D01*
X165643928Y-127166000D01*
X165643928Y-128866000D01*
X165645307Y-128880000D01*
X139827000Y-128880000D01*
X139827000Y-109005000D01*
X140116928Y-109005000D01*
X140116928Y-110705000D01*
X140129188Y-110829482D01*
X140165498Y-110949180D01*
X140224463Y-111059494D01*
X140303815Y-111156185D01*
X140400506Y-111235537D01*
X140510820Y-111294502D01*
X140630518Y-111330812D01*
X140755000Y-111343072D01*
X142455000Y-111343072D01*
X142579482Y-111330812D01*
X142699180Y-111294502D01*
X142809494Y-111235537D01*
X142906185Y-111156185D01*
X142985537Y-111059494D01*
X143044502Y-110949180D01*
X143080812Y-110829482D01*
X143093072Y-110705000D01*
X143093072Y-109005000D01*
X143080812Y-108880518D01*
X143044502Y-108760820D01*
X142985537Y-108650506D01*
X142906185Y-108553815D01*
X142809494Y-108474463D01*
X142699180Y-108415498D01*
X142621421Y-108391910D01*
X142784688Y-108216991D01*
X142937990Y-107969514D01*
X143010368Y-107794755D01*
X142906700Y-107569000D01*
X141859000Y-107569000D01*
X141859000Y-107589000D01*
X141351000Y-107589000D01*
X141351000Y-107569000D01*
X140303300Y-107569000D01*
X140199632Y-107794755D01*
X140272010Y-107969514D01*
X140425312Y-108216991D01*
X140588579Y-108391910D01*
X140510820Y-108415498D01*
X140400506Y-108474463D01*
X140303815Y-108553815D01*
X140224463Y-108650506D01*
X140165498Y-108760820D01*
X140129188Y-108880518D01*
X140116928Y-109005000D01*
X139827000Y-109005000D01*
X139827000Y-106835245D01*
X140199632Y-106835245D01*
X140303300Y-107061000D01*
X141351000Y-107061000D01*
X141351000Y-106010624D01*
X141859000Y-106010624D01*
X141859000Y-107061000D01*
X142906700Y-107061000D01*
X143010368Y-106835245D01*
X142937990Y-106660486D01*
X142784688Y-106413009D01*
X142586051Y-106200195D01*
X142349713Y-106030222D01*
X142084756Y-105909622D01*
X141859000Y-106010624D01*
X141351000Y-106010624D01*
X141125244Y-105909622D01*
X140860287Y-106030222D01*
X140623949Y-106200195D01*
X140425312Y-106413009D01*
X140272010Y-106660486D01*
X140199632Y-106835245D01*
X139827000Y-106835245D01*
X139827000Y-66474570D01*
X143380000Y-66474570D01*
X143380000Y-66875430D01*
X143458204Y-67268587D01*
X143611607Y-67638934D01*
X143834313Y-67972237D01*
X144117763Y-68255687D01*
X144145000Y-68273886D01*
X144145000Y-71426114D01*
X144117763Y-71444313D01*
X143834313Y-71727763D01*
X143611607Y-72061066D01*
X143458204Y-72431413D01*
X143380000Y-72824570D01*
X143380000Y-73225430D01*
X143458204Y-73618587D01*
X143611607Y-73988934D01*
X143834313Y-74322237D01*
X144117763Y-74605687D01*
X144145000Y-74623886D01*
X144145000Y-77776114D01*
X144117763Y-77794313D01*
X143834313Y-78077763D01*
X143611607Y-78411066D01*
X143458204Y-78781413D01*
X143380000Y-79174570D01*
X143380000Y-79575430D01*
X143458204Y-79968587D01*
X143611607Y-80338934D01*
X143834313Y-80672237D01*
X144117763Y-80955687D01*
X144145000Y-80973886D01*
X144145000Y-84126114D01*
X144117763Y-84144313D01*
X143834313Y-84427763D01*
X143611607Y-84761066D01*
X143458204Y-85131413D01*
X143380000Y-85524570D01*
X143380000Y-85925430D01*
X143458204Y-86318587D01*
X143611607Y-86688934D01*
X143834313Y-87022237D01*
X144117763Y-87305687D01*
X144145000Y-87323886D01*
X144145000Y-90476114D01*
X144117763Y-90494313D01*
X143834313Y-90777763D01*
X143611607Y-91111066D01*
X143458204Y-91481413D01*
X143380000Y-91874570D01*
X143380000Y-92275430D01*
X143458204Y-92668587D01*
X143611607Y-93038934D01*
X143834313Y-93372237D01*
X144117763Y-93655687D01*
X144145000Y-93673887D01*
X144145001Y-96826113D01*
X144117763Y-96844313D01*
X143834313Y-97127763D01*
X143611607Y-97461066D01*
X143458204Y-97831413D01*
X143380000Y-98224570D01*
X143380000Y-98625430D01*
X143458204Y-99018587D01*
X143611607Y-99388934D01*
X143834313Y-99722237D01*
X144117763Y-100005687D01*
X144145001Y-100023887D01*
X144145001Y-103176113D01*
X144117763Y-103194313D01*
X143834313Y-103477763D01*
X143611607Y-103811066D01*
X143458204Y-104181413D01*
X143380000Y-104574570D01*
X143380000Y-104975430D01*
X143458204Y-105368587D01*
X143611607Y-105738934D01*
X143834313Y-106072237D01*
X144117763Y-106355687D01*
X144145001Y-106373887D01*
X144145001Y-109526113D01*
X144117763Y-109544313D01*
X143834313Y-109827763D01*
X143611607Y-110161066D01*
X143458204Y-110531413D01*
X143380000Y-110924570D01*
X143380000Y-111325430D01*
X143458204Y-111718587D01*
X143611607Y-112088934D01*
X143834313Y-112422237D01*
X144117763Y-112705687D01*
X144145001Y-112723887D01*
X144145001Y-115876113D01*
X144117763Y-115894313D01*
X143834313Y-116177763D01*
X143611607Y-116511066D01*
X143458204Y-116881413D01*
X143380000Y-117274570D01*
X143380000Y-117675430D01*
X143458204Y-118068587D01*
X143611607Y-118438934D01*
X143834313Y-118772237D01*
X144117763Y-119055687D01*
X144145001Y-119073887D01*
X144145001Y-122226113D01*
X144117763Y-122244313D01*
X143834313Y-122527763D01*
X143611607Y-122861066D01*
X143458204Y-123231413D01*
X143380000Y-123624570D01*
X143380000Y-124025430D01*
X143458204Y-124418587D01*
X143611607Y-124788934D01*
X143834313Y-125122237D01*
X144117763Y-125405687D01*
X144451066Y-125628393D01*
X144821413Y-125781796D01*
X145214570Y-125860000D01*
X145615430Y-125860000D01*
X146008587Y-125781796D01*
X146378934Y-125628393D01*
X146712237Y-125405687D01*
X146995687Y-125122237D01*
X147218393Y-124788934D01*
X147371796Y-124418587D01*
X147450000Y-124025430D01*
X147450000Y-123624570D01*
X147371796Y-123231413D01*
X147218393Y-122861066D01*
X146995687Y-122527763D01*
X146712237Y-122244313D01*
X146685000Y-122226114D01*
X146685000Y-119073886D01*
X146712237Y-119055687D01*
X146995687Y-118772237D01*
X147218393Y-118438934D01*
X147371796Y-118068587D01*
X147450000Y-117675430D01*
X147450000Y-117274570D01*
X147371796Y-116881413D01*
X147218393Y-116511066D01*
X146995687Y-116177763D01*
X146712237Y-115894313D01*
X146685000Y-115876114D01*
X146685000Y-112723886D01*
X146712237Y-112705687D01*
X146995687Y-112422237D01*
X147218393Y-112088934D01*
X147371796Y-111718587D01*
X147431586Y-111418000D01*
X151419928Y-111418000D01*
X151419928Y-113118000D01*
X151432188Y-113242482D01*
X151468498Y-113362180D01*
X151527463Y-113472494D01*
X151606815Y-113569185D01*
X151703506Y-113648537D01*
X151813820Y-113707502D01*
X151933518Y-113743812D01*
X152058000Y-113756072D01*
X153758000Y-113756072D01*
X153882482Y-113743812D01*
X154002180Y-113707502D01*
X154112494Y-113648537D01*
X154209185Y-113569185D01*
X154288537Y-113472494D01*
X154347502Y-113362180D01*
X154383812Y-113242482D01*
X154396072Y-113118000D01*
X154396072Y-111418000D01*
X154383812Y-111293518D01*
X154347502Y-111173820D01*
X154288537Y-111063506D01*
X154209185Y-110966815D01*
X154112494Y-110887463D01*
X154002180Y-110828498D01*
X153924421Y-110804910D01*
X154087688Y-110629991D01*
X154240990Y-110382514D01*
X154313368Y-110207755D01*
X154209700Y-109982000D01*
X153162000Y-109982000D01*
X153162000Y-110002000D01*
X152654000Y-110002000D01*
X152654000Y-109982000D01*
X151606300Y-109982000D01*
X151502632Y-110207755D01*
X151575010Y-110382514D01*
X151728312Y-110629991D01*
X151891579Y-110804910D01*
X151813820Y-110828498D01*
X151703506Y-110887463D01*
X151606815Y-110966815D01*
X151527463Y-111063506D01*
X151468498Y-111173820D01*
X151432188Y-111293518D01*
X151419928Y-111418000D01*
X147431586Y-111418000D01*
X147450000Y-111325430D01*
X147450000Y-110924570D01*
X147371796Y-110531413D01*
X147218393Y-110161066D01*
X146995687Y-109827763D01*
X146712237Y-109544313D01*
X146685000Y-109526114D01*
X146685000Y-109248245D01*
X151502632Y-109248245D01*
X151606300Y-109474000D01*
X152654000Y-109474000D01*
X152654000Y-108423624D01*
X153162000Y-108423624D01*
X153162000Y-109474000D01*
X154209700Y-109474000D01*
X154313368Y-109248245D01*
X154240990Y-109073486D01*
X154087688Y-108826009D01*
X153889051Y-108613195D01*
X153652713Y-108443222D01*
X153387756Y-108322622D01*
X153162000Y-108423624D01*
X152654000Y-108423624D01*
X152428244Y-108322622D01*
X152163287Y-108443222D01*
X151926949Y-108613195D01*
X151728312Y-108826009D01*
X151575010Y-109073486D01*
X151502632Y-109248245D01*
X146685000Y-109248245D01*
X146685000Y-106373886D01*
X146712237Y-106355687D01*
X146995687Y-106072237D01*
X147218393Y-105738934D01*
X147371796Y-105368587D01*
X147450000Y-104975430D01*
X147450000Y-104574570D01*
X147371796Y-104181413D01*
X147218393Y-103811066D01*
X146995687Y-103477763D01*
X146712237Y-103194313D01*
X146685000Y-103176114D01*
X146685000Y-100023886D01*
X146712237Y-100005687D01*
X146995687Y-99722237D01*
X147218393Y-99388934D01*
X147371796Y-99018587D01*
X147450000Y-98625430D01*
X147450000Y-98224570D01*
X147371796Y-97831413D01*
X147218393Y-97461066D01*
X146995687Y-97127763D01*
X146712237Y-96844313D01*
X146685000Y-96826114D01*
X146685000Y-93673886D01*
X146712237Y-93655687D01*
X146995687Y-93372237D01*
X147218393Y-93038934D01*
X147371796Y-92668587D01*
X147450000Y-92275430D01*
X147450000Y-91874570D01*
X147371796Y-91481413D01*
X147218393Y-91111066D01*
X146995687Y-90777763D01*
X146712237Y-90494313D01*
X146685000Y-90476114D01*
X146685000Y-87323886D01*
X146712237Y-87305687D01*
X146995687Y-87022237D01*
X147218393Y-86688934D01*
X147371796Y-86318587D01*
X147450000Y-85925430D01*
X147450000Y-85524570D01*
X147371796Y-85131413D01*
X147218393Y-84761066D01*
X146995687Y-84427763D01*
X146712237Y-84144313D01*
X146685000Y-84126114D01*
X146685000Y-80973886D01*
X146712237Y-80955687D01*
X146995687Y-80672237D01*
X147218393Y-80338934D01*
X147371796Y-79968587D01*
X147450000Y-79575430D01*
X147450000Y-79174570D01*
X147371796Y-78781413D01*
X147218393Y-78411066D01*
X146995687Y-78077763D01*
X146712237Y-77794313D01*
X146685000Y-77776114D01*
X146685000Y-74623886D01*
X146712237Y-74605687D01*
X146995687Y-74322237D01*
X147218393Y-73988934D01*
X147371796Y-73618587D01*
X147450000Y-73225430D01*
X147450000Y-72824570D01*
X147371796Y-72431413D01*
X147218393Y-72061066D01*
X146995687Y-71727763D01*
X146712237Y-71444313D01*
X146685000Y-71426114D01*
X146685000Y-68273886D01*
X146712237Y-68255687D01*
X146995687Y-67972237D01*
X147218393Y-67638934D01*
X147371796Y-67268587D01*
X147450000Y-66875430D01*
X147450000Y-66474570D01*
X158620000Y-66474570D01*
X158620000Y-66875430D01*
X158698204Y-67268587D01*
X158851607Y-67638934D01*
X159074313Y-67972237D01*
X159357763Y-68255687D01*
X159385001Y-68273887D01*
X159385001Y-71426113D01*
X159357763Y-71444313D01*
X159074313Y-71727763D01*
X158851607Y-72061066D01*
X158698204Y-72431413D01*
X158620000Y-72824570D01*
X158620000Y-73225430D01*
X158698204Y-73618587D01*
X158851607Y-73988934D01*
X159074313Y-74322237D01*
X159357763Y-74605687D01*
X159385001Y-74623887D01*
X159385001Y-77776113D01*
X159357763Y-77794313D01*
X159074313Y-78077763D01*
X158851607Y-78411066D01*
X158698204Y-78781413D01*
X158620000Y-79174570D01*
X158620000Y-79575430D01*
X158698204Y-79968587D01*
X158851607Y-80338934D01*
X159074313Y-80672237D01*
X159357763Y-80955687D01*
X159385001Y-80973887D01*
X159385001Y-84126113D01*
X159357763Y-84144313D01*
X159074313Y-84427763D01*
X158851607Y-84761066D01*
X158698204Y-85131413D01*
X158620000Y-85524570D01*
X158620000Y-85925430D01*
X158698204Y-86318587D01*
X158851607Y-86688934D01*
X159074313Y-87022237D01*
X159357763Y-87305687D01*
X159385001Y-87323887D01*
X159385001Y-90476113D01*
X159357763Y-90494313D01*
X159074313Y-90777763D01*
X158851607Y-91111066D01*
X158698204Y-91481413D01*
X158620000Y-91874570D01*
X158620000Y-92275430D01*
X158698204Y-92668587D01*
X158851607Y-93038934D01*
X159074313Y-93372237D01*
X159357763Y-93655687D01*
X159385001Y-93673887D01*
X159385000Y-96826113D01*
X159357763Y-96844313D01*
X159074313Y-97127763D01*
X158851607Y-97461066D01*
X158698204Y-97831413D01*
X158620000Y-98224570D01*
X158620000Y-98625430D01*
X158698204Y-99018587D01*
X158851607Y-99388934D01*
X159074313Y-99722237D01*
X159357763Y-100005687D01*
X159385000Y-100023886D01*
X159385000Y-103176114D01*
X159357763Y-103194313D01*
X159074313Y-103477763D01*
X158851607Y-103811066D01*
X158698204Y-104181413D01*
X158620000Y-104574570D01*
X158620000Y-104975430D01*
X158698204Y-105368587D01*
X158851607Y-105738934D01*
X159074313Y-106072237D01*
X159357763Y-106355687D01*
X159385000Y-106373886D01*
X159385000Y-109526114D01*
X159357763Y-109544313D01*
X159074313Y-109827763D01*
X158851607Y-110161066D01*
X158698204Y-110531413D01*
X158620000Y-110924570D01*
X158620000Y-111325430D01*
X158698204Y-111718587D01*
X158851607Y-112088934D01*
X159074313Y-112422237D01*
X159357763Y-112705687D01*
X159385000Y-112723886D01*
X159385000Y-115876114D01*
X159357763Y-115894313D01*
X159074313Y-116177763D01*
X158851607Y-116511066D01*
X158698204Y-116881413D01*
X158620000Y-117274570D01*
X158620000Y-117675430D01*
X158698204Y-118068587D01*
X158851607Y-118438934D01*
X159074313Y-118772237D01*
X159357763Y-119055687D01*
X159385000Y-119073886D01*
X159385000Y-122226114D01*
X159357763Y-122244313D01*
X159074313Y-122527763D01*
X158851607Y-122861066D01*
X158698204Y-123231413D01*
X158620000Y-123624570D01*
X158620000Y-124025430D01*
X158698204Y-124418587D01*
X158851607Y-124788934D01*
X159074313Y-125122237D01*
X159357763Y-125405687D01*
X159691066Y-125628393D01*
X160061413Y-125781796D01*
X160454570Y-125860000D01*
X160855430Y-125860000D01*
X161248587Y-125781796D01*
X161618934Y-125628393D01*
X161952237Y-125405687D01*
X162235687Y-125122237D01*
X162319872Y-124996245D01*
X165726632Y-124996245D01*
X165830300Y-125222000D01*
X166878000Y-125222000D01*
X166878000Y-124171624D01*
X167386000Y-124171624D01*
X167386000Y-125222000D01*
X168433700Y-125222000D01*
X168537368Y-124996245D01*
X168464990Y-124821486D01*
X168311688Y-124574009D01*
X168113051Y-124361195D01*
X167876713Y-124191222D01*
X167611756Y-124070622D01*
X167386000Y-124171624D01*
X166878000Y-124171624D01*
X166652244Y-124070622D01*
X166387287Y-124191222D01*
X166150949Y-124361195D01*
X165952312Y-124574009D01*
X165799010Y-124821486D01*
X165726632Y-124996245D01*
X162319872Y-124996245D01*
X162458393Y-124788934D01*
X162611796Y-124418587D01*
X162690000Y-124025430D01*
X162690000Y-123624570D01*
X162611796Y-123231413D01*
X162458393Y-122861066D01*
X162235687Y-122527763D01*
X161952237Y-122244313D01*
X161925000Y-122226114D01*
X161925000Y-119073886D01*
X161952237Y-119055687D01*
X162235687Y-118772237D01*
X162458393Y-118438934D01*
X162611796Y-118068587D01*
X162690000Y-117675430D01*
X162690000Y-117274570D01*
X162611796Y-116881413D01*
X162458393Y-116511066D01*
X162235687Y-116177763D01*
X161952237Y-115894313D01*
X161925000Y-115876114D01*
X161925000Y-112723886D01*
X161952237Y-112705687D01*
X162235687Y-112422237D01*
X162362924Y-112231812D01*
X163744781Y-112231812D01*
X163808086Y-112384670D01*
X163954777Y-112624707D01*
X164145478Y-112831514D01*
X164372861Y-112997143D01*
X164628187Y-113115229D01*
X164846000Y-113013602D01*
X164846000Y-112014000D01*
X165354000Y-112014000D01*
X165354000Y-113013602D01*
X165571813Y-113115229D01*
X165827139Y-112997143D01*
X166054522Y-112831514D01*
X166245223Y-112624707D01*
X166391914Y-112384670D01*
X166455219Y-112231812D01*
X166350719Y-112014000D01*
X165354000Y-112014000D01*
X164846000Y-112014000D01*
X163849281Y-112014000D01*
X163744781Y-112231812D01*
X162362924Y-112231812D01*
X162458393Y-112088934D01*
X162611796Y-111718587D01*
X162690000Y-111325430D01*
X162690000Y-110924570D01*
X162611796Y-110531413D01*
X162458393Y-110161066D01*
X162235687Y-109827763D01*
X162099736Y-109691812D01*
X163744781Y-109691812D01*
X163808086Y-109844670D01*
X163954777Y-110084707D01*
X164145478Y-110291514D01*
X164372861Y-110457143D01*
X164443905Y-110490000D01*
X164372861Y-110522857D01*
X164145478Y-110688486D01*
X163954777Y-110895293D01*
X163808086Y-111135330D01*
X163744781Y-111288188D01*
X163849281Y-111506000D01*
X164846000Y-111506000D01*
X164846000Y-110506398D01*
X164810855Y-110490000D01*
X164846000Y-110473602D01*
X164846000Y-109474000D01*
X165354000Y-109474000D01*
X165354000Y-110473602D01*
X165389145Y-110490000D01*
X165354000Y-110506398D01*
X165354000Y-111506000D01*
X166350719Y-111506000D01*
X166455219Y-111288188D01*
X166391914Y-111135330D01*
X166245223Y-110895293D01*
X166054522Y-110688486D01*
X165827139Y-110522857D01*
X165756095Y-110490000D01*
X165827139Y-110457143D01*
X166054522Y-110291514D01*
X166245223Y-110084707D01*
X166391914Y-109844670D01*
X166455219Y-109691812D01*
X166350719Y-109474000D01*
X165354000Y-109474000D01*
X164846000Y-109474000D01*
X163849281Y-109474000D01*
X163744781Y-109691812D01*
X162099736Y-109691812D01*
X161952237Y-109544313D01*
X161925000Y-109526114D01*
X161925000Y-106373886D01*
X161952237Y-106355687D01*
X162235687Y-106072237D01*
X162458393Y-105738934D01*
X162611796Y-105368587D01*
X162690000Y-104975430D01*
X162690000Y-104574570D01*
X162611796Y-104181413D01*
X162458393Y-103811066D01*
X162235687Y-103477763D01*
X162097924Y-103340000D01*
X163661928Y-103340000D01*
X163661928Y-104940000D01*
X163674188Y-105064482D01*
X163710498Y-105184180D01*
X163769463Y-105294494D01*
X163848815Y-105391185D01*
X163945506Y-105470537D01*
X164055820Y-105529502D01*
X164175518Y-105565812D01*
X164183961Y-105566643D01*
X163985363Y-105765241D01*
X163828320Y-106000273D01*
X163720147Y-106261426D01*
X163665000Y-106538665D01*
X163665000Y-106821335D01*
X163720147Y-107098574D01*
X163828320Y-107359727D01*
X163985363Y-107594759D01*
X164185241Y-107794637D01*
X164420273Y-107951680D01*
X164430823Y-107956050D01*
X164372861Y-107982857D01*
X164145478Y-108148486D01*
X163954777Y-108355293D01*
X163808086Y-108595330D01*
X163744781Y-108748188D01*
X163849281Y-108966000D01*
X164846000Y-108966000D01*
X164846000Y-108946000D01*
X165354000Y-108946000D01*
X165354000Y-108966000D01*
X166350719Y-108966000D01*
X166455219Y-108748188D01*
X166391914Y-108595330D01*
X166245223Y-108355293D01*
X166054522Y-108148486D01*
X165827139Y-107982857D01*
X165769177Y-107956050D01*
X165779727Y-107951680D01*
X166014759Y-107794637D01*
X166214637Y-107594759D01*
X166371680Y-107359727D01*
X166479853Y-107098574D01*
X166535000Y-106821335D01*
X166535000Y-106538665D01*
X166479853Y-106261426D01*
X166371680Y-106000273D01*
X166214637Y-105765241D01*
X166016039Y-105566643D01*
X166024482Y-105565812D01*
X166144180Y-105529502D01*
X166254494Y-105470537D01*
X166351185Y-105391185D01*
X166430537Y-105294494D01*
X166489502Y-105184180D01*
X166525812Y-105064482D01*
X166538072Y-104940000D01*
X166538072Y-103998665D01*
X171285000Y-103998665D01*
X171285000Y-104281335D01*
X171340147Y-104558574D01*
X171448320Y-104819727D01*
X171605363Y-105054759D01*
X171805241Y-105254637D01*
X172037759Y-105410000D01*
X171805241Y-105565363D01*
X171605363Y-105765241D01*
X171448320Y-106000273D01*
X171340147Y-106261426D01*
X171285000Y-106538665D01*
X171285000Y-106821335D01*
X171340147Y-107098574D01*
X171448320Y-107359727D01*
X171605363Y-107594759D01*
X171805241Y-107794637D01*
X172037759Y-107950000D01*
X171805241Y-108105363D01*
X171605363Y-108305241D01*
X171448320Y-108540273D01*
X171340147Y-108801426D01*
X171285000Y-109078665D01*
X171285000Y-109361335D01*
X171340147Y-109638574D01*
X171448320Y-109899727D01*
X171605363Y-110134759D01*
X171805241Y-110334637D01*
X172037759Y-110490000D01*
X171805241Y-110645363D01*
X171605363Y-110845241D01*
X171448320Y-111080273D01*
X171340147Y-111341426D01*
X171285000Y-111618665D01*
X171285000Y-111901335D01*
X171340147Y-112178574D01*
X171448320Y-112439727D01*
X171605363Y-112674759D01*
X171805241Y-112874637D01*
X172040273Y-113031680D01*
X172301426Y-113139853D01*
X172578665Y-113195000D01*
X172861335Y-113195000D01*
X173138574Y-113139853D01*
X173399727Y-113031680D01*
X173634759Y-112874637D01*
X173834637Y-112674759D01*
X173991680Y-112439727D01*
X174099853Y-112178574D01*
X174155000Y-111901335D01*
X174155000Y-111618665D01*
X174099853Y-111341426D01*
X173991680Y-111080273D01*
X173834637Y-110845241D01*
X173634759Y-110645363D01*
X173402241Y-110490000D01*
X173634759Y-110334637D01*
X173834637Y-110134759D01*
X173991680Y-109899727D01*
X174099853Y-109638574D01*
X174155000Y-109361335D01*
X174155000Y-109078665D01*
X174099853Y-108801426D01*
X173991680Y-108540273D01*
X173834637Y-108305241D01*
X173634759Y-108105363D01*
X173402241Y-107950000D01*
X173634759Y-107794637D01*
X173834637Y-107594759D01*
X173991680Y-107359727D01*
X174099853Y-107098574D01*
X174155000Y-106821335D01*
X174155000Y-106538665D01*
X174099853Y-106261426D01*
X173991680Y-106000273D01*
X173834637Y-105765241D01*
X173634759Y-105565363D01*
X173402241Y-105410000D01*
X173634759Y-105254637D01*
X173834637Y-105054759D01*
X173991680Y-104819727D01*
X174099853Y-104558574D01*
X174155000Y-104281335D01*
X174155000Y-103998665D01*
X174099853Y-103721426D01*
X173991680Y-103460273D01*
X173834637Y-103225241D01*
X173634759Y-103025363D01*
X173399727Y-102868320D01*
X173138574Y-102760147D01*
X172861335Y-102705000D01*
X172578665Y-102705000D01*
X172301426Y-102760147D01*
X172040273Y-102868320D01*
X171805241Y-103025363D01*
X171605363Y-103225241D01*
X171448320Y-103460273D01*
X171340147Y-103721426D01*
X171285000Y-103998665D01*
X166538072Y-103998665D01*
X166538072Y-103340000D01*
X166525812Y-103215518D01*
X166489502Y-103095820D01*
X166430537Y-102985506D01*
X166351185Y-102888815D01*
X166254494Y-102809463D01*
X166144180Y-102750498D01*
X166024482Y-102714188D01*
X165900000Y-102701928D01*
X164300000Y-102701928D01*
X164175518Y-102714188D01*
X164055820Y-102750498D01*
X163945506Y-102809463D01*
X163848815Y-102888815D01*
X163769463Y-102985506D01*
X163710498Y-103095820D01*
X163674188Y-103215518D01*
X163661928Y-103340000D01*
X162097924Y-103340000D01*
X161952237Y-103194313D01*
X161925000Y-103176114D01*
X161925000Y-100023886D01*
X161952237Y-100005687D01*
X162235687Y-99722237D01*
X162458393Y-99388934D01*
X162611796Y-99018587D01*
X162690000Y-98625430D01*
X162690000Y-98224570D01*
X162611796Y-97831413D01*
X162458393Y-97461066D01*
X162235687Y-97127763D01*
X161952237Y-96844313D01*
X161925000Y-96826114D01*
X161925000Y-93673886D01*
X161952237Y-93655687D01*
X162235687Y-93372237D01*
X162458393Y-93038934D01*
X162611796Y-92668587D01*
X162690000Y-92275430D01*
X162690000Y-91874570D01*
X162611796Y-91481413D01*
X162458393Y-91111066D01*
X162235687Y-90777763D01*
X162107679Y-90649755D01*
X164329632Y-90649755D01*
X164402010Y-90824514D01*
X164555312Y-91071991D01*
X164753949Y-91284805D01*
X164990287Y-91454778D01*
X165255244Y-91575378D01*
X165481000Y-91474376D01*
X165481000Y-90424000D01*
X165989000Y-90424000D01*
X165989000Y-91474376D01*
X166214756Y-91575378D01*
X166479713Y-91454778D01*
X166716051Y-91284805D01*
X166914688Y-91071991D01*
X167067990Y-90824514D01*
X167140368Y-90649755D01*
X167136721Y-90641812D01*
X168316781Y-90641812D01*
X168380086Y-90794670D01*
X168526777Y-91034707D01*
X168717478Y-91241514D01*
X168944861Y-91407143D01*
X169200187Y-91525229D01*
X169418000Y-91423602D01*
X169418000Y-90424000D01*
X169926000Y-90424000D01*
X169926000Y-91423602D01*
X170143813Y-91525229D01*
X170399139Y-91407143D01*
X170626522Y-91241514D01*
X170817223Y-91034707D01*
X170963914Y-90794670D01*
X171027219Y-90641812D01*
X175936781Y-90641812D01*
X176000086Y-90794670D01*
X176146777Y-91034707D01*
X176337478Y-91241514D01*
X176564861Y-91407143D01*
X176820187Y-91525229D01*
X177038000Y-91423602D01*
X177038000Y-90424000D01*
X177546000Y-90424000D01*
X177546000Y-91423602D01*
X177763813Y-91525229D01*
X178019139Y-91407143D01*
X178246522Y-91241514D01*
X178437223Y-91034707D01*
X178583914Y-90794670D01*
X178647219Y-90641812D01*
X178542719Y-90424000D01*
X177546000Y-90424000D01*
X177038000Y-90424000D01*
X176041281Y-90424000D01*
X175936781Y-90641812D01*
X171027219Y-90641812D01*
X170922719Y-90424000D01*
X169926000Y-90424000D01*
X169418000Y-90424000D01*
X168421281Y-90424000D01*
X168316781Y-90641812D01*
X167136721Y-90641812D01*
X167036700Y-90424000D01*
X165989000Y-90424000D01*
X165481000Y-90424000D01*
X164433300Y-90424000D01*
X164329632Y-90649755D01*
X162107679Y-90649755D01*
X161952237Y-90494313D01*
X161925000Y-90476114D01*
X161925000Y-87323886D01*
X161952237Y-87305687D01*
X162235687Y-87022237D01*
X162458393Y-86688934D01*
X162611796Y-86318587D01*
X162690000Y-85925430D01*
X162690000Y-85524570D01*
X162611796Y-85131413D01*
X162458393Y-84761066D01*
X162235687Y-84427763D01*
X162047924Y-84240000D01*
X164246928Y-84240000D01*
X164246928Y-85940000D01*
X164259188Y-86064482D01*
X164295498Y-86184180D01*
X164354463Y-86294494D01*
X164433815Y-86391185D01*
X164530506Y-86470537D01*
X164640820Y-86529502D01*
X164713380Y-86551513D01*
X164581525Y-86683368D01*
X164419010Y-86926589D01*
X164307068Y-87196842D01*
X164250000Y-87483740D01*
X164250000Y-87776260D01*
X164307068Y-88063158D01*
X164419010Y-88333411D01*
X164581525Y-88576632D01*
X164788368Y-88783475D01*
X164966378Y-88902417D01*
X164753949Y-89055195D01*
X164555312Y-89268009D01*
X164402010Y-89515486D01*
X164329632Y-89690245D01*
X164433300Y-89916000D01*
X165481000Y-89916000D01*
X165481000Y-89896000D01*
X165989000Y-89896000D01*
X165989000Y-89916000D01*
X167036700Y-89916000D01*
X167140368Y-89690245D01*
X167067990Y-89515486D01*
X166914688Y-89268009D01*
X166716051Y-89055195D01*
X166503622Y-88902417D01*
X166681632Y-88783475D01*
X166888475Y-88576632D01*
X167050990Y-88333411D01*
X167162932Y-88063158D01*
X167220000Y-87776260D01*
X167220000Y-87483740D01*
X167162932Y-87196842D01*
X167050990Y-86926589D01*
X166888475Y-86683368D01*
X166756620Y-86551513D01*
X166829180Y-86529502D01*
X166939494Y-86470537D01*
X167036185Y-86391185D01*
X167115537Y-86294494D01*
X167174502Y-86184180D01*
X167210812Y-86064482D01*
X167223072Y-85940000D01*
X167223072Y-84240000D01*
X167210812Y-84115518D01*
X167174502Y-83995820D01*
X167115537Y-83885506D01*
X167036185Y-83788815D01*
X166939494Y-83709463D01*
X166829180Y-83650498D01*
X166709482Y-83614188D01*
X166585000Y-83601928D01*
X164885000Y-83601928D01*
X164760518Y-83614188D01*
X164640820Y-83650498D01*
X164530506Y-83709463D01*
X164433815Y-83788815D01*
X164354463Y-83885506D01*
X164295498Y-83995820D01*
X164259188Y-84115518D01*
X164246928Y-84240000D01*
X162047924Y-84240000D01*
X161952237Y-84144313D01*
X161925000Y-84126114D01*
X161925000Y-81750000D01*
X168233928Y-81750000D01*
X168233928Y-83350000D01*
X168246188Y-83474482D01*
X168282498Y-83594180D01*
X168341463Y-83704494D01*
X168420815Y-83801185D01*
X168517506Y-83880537D01*
X168627820Y-83939502D01*
X168747518Y-83975812D01*
X168755961Y-83976643D01*
X168557363Y-84175241D01*
X168400320Y-84410273D01*
X168292147Y-84671426D01*
X168237000Y-84948665D01*
X168237000Y-85231335D01*
X168292147Y-85508574D01*
X168400320Y-85769727D01*
X168557363Y-86004759D01*
X168757241Y-86204637D01*
X168989759Y-86360000D01*
X168757241Y-86515363D01*
X168557363Y-86715241D01*
X168400320Y-86950273D01*
X168292147Y-87211426D01*
X168237000Y-87488665D01*
X168237000Y-87771335D01*
X168292147Y-88048574D01*
X168400320Y-88309727D01*
X168557363Y-88544759D01*
X168757241Y-88744637D01*
X168992273Y-88901680D01*
X169002823Y-88906050D01*
X168944861Y-88932857D01*
X168717478Y-89098486D01*
X168526777Y-89305293D01*
X168380086Y-89545330D01*
X168316781Y-89698188D01*
X168421281Y-89916000D01*
X169418000Y-89916000D01*
X169418000Y-89896000D01*
X169926000Y-89896000D01*
X169926000Y-89916000D01*
X170922719Y-89916000D01*
X171027219Y-89698188D01*
X170963914Y-89545330D01*
X170817223Y-89305293D01*
X170626522Y-89098486D01*
X170399139Y-88932857D01*
X170341177Y-88906050D01*
X170351727Y-88901680D01*
X170586759Y-88744637D01*
X170786637Y-88544759D01*
X170943680Y-88309727D01*
X171051853Y-88048574D01*
X171107000Y-87771335D01*
X171107000Y-87488665D01*
X171051853Y-87211426D01*
X170943680Y-86950273D01*
X170786637Y-86715241D01*
X170586759Y-86515363D01*
X170354241Y-86360000D01*
X170586759Y-86204637D01*
X170786637Y-86004759D01*
X170943680Y-85769727D01*
X171051853Y-85508574D01*
X171107000Y-85231335D01*
X171107000Y-84948665D01*
X171051853Y-84671426D01*
X170943680Y-84410273D01*
X170786637Y-84175241D01*
X170588039Y-83976643D01*
X170596482Y-83975812D01*
X170716180Y-83939502D01*
X170826494Y-83880537D01*
X170923185Y-83801185D01*
X171002537Y-83704494D01*
X171061502Y-83594180D01*
X171097812Y-83474482D01*
X171110072Y-83350000D01*
X171110072Y-82408665D01*
X175857000Y-82408665D01*
X175857000Y-82691335D01*
X175912147Y-82968574D01*
X176020320Y-83229727D01*
X176177363Y-83464759D01*
X176377241Y-83664637D01*
X176609759Y-83820000D01*
X176377241Y-83975363D01*
X176177363Y-84175241D01*
X176020320Y-84410273D01*
X175912147Y-84671426D01*
X175857000Y-84948665D01*
X175857000Y-85231335D01*
X175912147Y-85508574D01*
X176020320Y-85769727D01*
X176177363Y-86004759D01*
X176377241Y-86204637D01*
X176609759Y-86360000D01*
X176377241Y-86515363D01*
X176177363Y-86715241D01*
X176020320Y-86950273D01*
X175912147Y-87211426D01*
X175857000Y-87488665D01*
X175857000Y-87771335D01*
X175912147Y-88048574D01*
X176020320Y-88309727D01*
X176177363Y-88544759D01*
X176377241Y-88744637D01*
X176612273Y-88901680D01*
X176622823Y-88906050D01*
X176564861Y-88932857D01*
X176337478Y-89098486D01*
X176146777Y-89305293D01*
X176000086Y-89545330D01*
X175936781Y-89698188D01*
X176041281Y-89916000D01*
X177038000Y-89916000D01*
X177038000Y-89896000D01*
X177546000Y-89896000D01*
X177546000Y-89916000D01*
X178542719Y-89916000D01*
X178647219Y-89698188D01*
X178583914Y-89545330D01*
X178437223Y-89305293D01*
X178246522Y-89098486D01*
X178019139Y-88932857D01*
X177961177Y-88906050D01*
X177971727Y-88901680D01*
X178206759Y-88744637D01*
X178406637Y-88544759D01*
X178563680Y-88309727D01*
X178671853Y-88048574D01*
X178727000Y-87771335D01*
X178727000Y-87488665D01*
X178671853Y-87211426D01*
X178563680Y-86950273D01*
X178406637Y-86715241D01*
X178206759Y-86515363D01*
X177974241Y-86360000D01*
X178206759Y-86204637D01*
X178406637Y-86004759D01*
X178563680Y-85769727D01*
X178671853Y-85508574D01*
X178727000Y-85231335D01*
X178727000Y-84948665D01*
X178671853Y-84671426D01*
X178563680Y-84410273D01*
X178406637Y-84175241D01*
X178206759Y-83975363D01*
X177974241Y-83820000D01*
X178206759Y-83664637D01*
X178406637Y-83464759D01*
X178563680Y-83229727D01*
X178671853Y-82968574D01*
X178727000Y-82691335D01*
X178727000Y-82408665D01*
X178671853Y-82131426D01*
X178563680Y-81870273D01*
X178406637Y-81635241D01*
X178206759Y-81435363D01*
X177971727Y-81278320D01*
X177710574Y-81170147D01*
X177433335Y-81115000D01*
X177150665Y-81115000D01*
X176873426Y-81170147D01*
X176612273Y-81278320D01*
X176377241Y-81435363D01*
X176177363Y-81635241D01*
X176020320Y-81870273D01*
X175912147Y-82131426D01*
X175857000Y-82408665D01*
X171110072Y-82408665D01*
X171110072Y-81750000D01*
X171097812Y-81625518D01*
X171061502Y-81505820D01*
X171002537Y-81395506D01*
X170923185Y-81298815D01*
X170826494Y-81219463D01*
X170716180Y-81160498D01*
X170596482Y-81124188D01*
X170472000Y-81111928D01*
X168872000Y-81111928D01*
X168747518Y-81124188D01*
X168627820Y-81160498D01*
X168517506Y-81219463D01*
X168420815Y-81298815D01*
X168341463Y-81395506D01*
X168282498Y-81505820D01*
X168246188Y-81625518D01*
X168233928Y-81750000D01*
X161925000Y-81750000D01*
X161925000Y-80973886D01*
X161952237Y-80955687D01*
X162235687Y-80672237D01*
X162458393Y-80338934D01*
X162611796Y-79968587D01*
X162690000Y-79575430D01*
X162690000Y-79174570D01*
X162611796Y-78781413D01*
X162458393Y-78411066D01*
X162235687Y-78077763D01*
X161952237Y-77794313D01*
X161925000Y-77776114D01*
X161925000Y-74623886D01*
X161952237Y-74605687D01*
X162235687Y-74322237D01*
X162458393Y-73988934D01*
X162611796Y-73618587D01*
X162690000Y-73225430D01*
X162690000Y-72824570D01*
X162611796Y-72431413D01*
X162458393Y-72061066D01*
X162349436Y-71898000D01*
X172399428Y-71898000D01*
X172399428Y-73898000D01*
X172411688Y-74022482D01*
X172447998Y-74142180D01*
X172506963Y-74252494D01*
X172586315Y-74349185D01*
X172683006Y-74428537D01*
X172793320Y-74487502D01*
X172913018Y-74523812D01*
X173037500Y-74536072D01*
X174942500Y-74536072D01*
X175066982Y-74523812D01*
X175186680Y-74487502D01*
X175296994Y-74428537D01*
X175393685Y-74349185D01*
X175473037Y-74252494D01*
X175517905Y-74168553D01*
X175643766Y-74271845D01*
X175919552Y-74419255D01*
X176218797Y-74510030D01*
X176530000Y-74540681D01*
X176841204Y-74510030D01*
X177140449Y-74419255D01*
X177416235Y-74271845D01*
X177657963Y-74073463D01*
X177800000Y-73900391D01*
X177942037Y-74073463D01*
X178183766Y-74271845D01*
X178459552Y-74419255D01*
X178758797Y-74510030D01*
X179070000Y-74540681D01*
X179381204Y-74510030D01*
X179680449Y-74419255D01*
X179956235Y-74271845D01*
X180197963Y-74073463D01*
X180396345Y-73831734D01*
X180543755Y-73555948D01*
X180634530Y-73256703D01*
X180657500Y-73023485D01*
X180657500Y-72772514D01*
X180634530Y-72539296D01*
X180543755Y-72240051D01*
X180396345Y-71964265D01*
X180197963Y-71722537D01*
X179956234Y-71524155D01*
X179680448Y-71376745D01*
X179381203Y-71285970D01*
X179070000Y-71255319D01*
X178758796Y-71285970D01*
X178459551Y-71376745D01*
X178183765Y-71524155D01*
X177942037Y-71722537D01*
X177800000Y-71895609D01*
X177657963Y-71722537D01*
X177416234Y-71524155D01*
X177140448Y-71376745D01*
X176841203Y-71285970D01*
X176530000Y-71255319D01*
X176218796Y-71285970D01*
X175919551Y-71376745D01*
X175643765Y-71524155D01*
X175517905Y-71627446D01*
X175473037Y-71543506D01*
X175393685Y-71446815D01*
X175296994Y-71367463D01*
X175186680Y-71308498D01*
X175066982Y-71272188D01*
X174942500Y-71259928D01*
X173037500Y-71259928D01*
X172913018Y-71272188D01*
X172793320Y-71308498D01*
X172683006Y-71367463D01*
X172586315Y-71446815D01*
X172506963Y-71543506D01*
X172447998Y-71653820D01*
X172411688Y-71773518D01*
X172399428Y-71898000D01*
X162349436Y-71898000D01*
X162235687Y-71727763D01*
X161952237Y-71444313D01*
X161925000Y-71426114D01*
X161925000Y-68273886D01*
X161952237Y-68255687D01*
X162235687Y-67972237D01*
X162458393Y-67638934D01*
X162611796Y-67268587D01*
X162690000Y-66875430D01*
X162690000Y-66474570D01*
X162611796Y-66081413D01*
X162458393Y-65711066D01*
X162235687Y-65377763D01*
X161952237Y-65094313D01*
X161618934Y-64871607D01*
X161248587Y-64718204D01*
X160855430Y-64640000D01*
X160454570Y-64640000D01*
X160061413Y-64718204D01*
X159691066Y-64871607D01*
X159357763Y-65094313D01*
X159074313Y-65377763D01*
X158851607Y-65711066D01*
X158698204Y-66081413D01*
X158620000Y-66474570D01*
X147450000Y-66474570D01*
X147371796Y-66081413D01*
X147218393Y-65711066D01*
X146995687Y-65377763D01*
X146712237Y-65094313D01*
X146378934Y-64871607D01*
X146008587Y-64718204D01*
X145615430Y-64640000D01*
X145214570Y-64640000D01*
X144821413Y-64718204D01*
X144451066Y-64871607D01*
X144117763Y-65094313D01*
X143834313Y-65377763D01*
X143611607Y-65711066D01*
X143458204Y-66081413D01*
X143380000Y-66474570D01*
X139827000Y-66474570D01*
X139827000Y-64262000D01*
X182118000Y-64262000D01*
X182118000Y-77417394D01*
G37*
%TD.AperFunction*%
%TD*%
D27*
%TO.N,GND*%
X238100000Y-128880000D02*
X176022000Y-128880000D01*
X176022000Y-122292681D01*
X176333203Y-122262030D01*
X176632448Y-122171255D01*
X176683001Y-122144234D01*
X176683001Y-122459250D01*
X176678614Y-122461595D01*
X176544038Y-122572038D01*
X176433595Y-122706614D01*
X176351528Y-122860150D01*
X176300992Y-123026746D01*
X176283928Y-123200000D01*
X176283928Y-124450000D01*
X176300992Y-124623254D01*
X176351528Y-124789850D01*
X176433595Y-124943386D01*
X176544038Y-125077962D01*
X176678614Y-125188405D01*
X176832150Y-125270472D01*
X176998746Y-125321008D01*
X177172000Y-125338072D01*
X177972000Y-125338072D01*
X178145254Y-125321008D01*
X178311850Y-125270472D01*
X178465386Y-125188405D01*
X178599962Y-125077962D01*
X178710405Y-124943386D01*
X178792472Y-124789850D01*
X178843008Y-124623254D01*
X178860072Y-124450000D01*
X178860072Y-123342057D01*
X180321000Y-123342057D01*
X180321000Y-123545935D01*
X180360774Y-123745894D01*
X180438795Y-123934252D01*
X180552063Y-124103770D01*
X180696226Y-124247933D01*
X180865744Y-124361201D01*
X181054102Y-124439222D01*
X181254061Y-124478996D01*
X181457939Y-124478996D01*
X181657898Y-124439222D01*
X181846256Y-124361201D01*
X182015774Y-124247933D01*
X182159937Y-124103770D01*
X182273205Y-123934252D01*
X182351226Y-123745894D01*
X182391000Y-123545935D01*
X182391000Y-123342057D01*
X182351226Y-123142098D01*
X182273205Y-122953740D01*
X182245000Y-122911528D01*
X182245000Y-119487740D01*
X200826000Y-119487740D01*
X200826000Y-119780260D01*
X200883068Y-120067158D01*
X200995010Y-120337411D01*
X201157525Y-120580632D01*
X201364368Y-120787475D01*
X201607589Y-120949990D01*
X201877842Y-121061932D01*
X202164740Y-121119000D01*
X202457260Y-121119000D01*
X202744158Y-121061932D01*
X203014411Y-120949990D01*
X203257632Y-120787475D01*
X203464475Y-120580632D01*
X203583417Y-120402622D01*
X203736195Y-120615051D01*
X203949009Y-120813688D01*
X204196486Y-120966990D01*
X204371245Y-121039368D01*
X204597000Y-120935700D01*
X204597000Y-119888000D01*
X204577000Y-119888000D01*
X204577000Y-119380000D01*
X204597000Y-119380000D01*
X204597000Y-118332300D01*
X205105000Y-118332300D01*
X205105000Y-119380000D01*
X205125000Y-119380000D01*
X205125000Y-119888000D01*
X205105000Y-119888000D01*
X205105000Y-120935700D01*
X205330755Y-121039368D01*
X205505514Y-120966990D01*
X205752991Y-120813688D01*
X205927910Y-120650421D01*
X205951498Y-120728180D01*
X206010463Y-120838494D01*
X206089815Y-120935185D01*
X206186506Y-121014537D01*
X206296820Y-121073502D01*
X206416518Y-121109812D01*
X206541000Y-121122072D01*
X208241000Y-121122072D01*
X208365482Y-121109812D01*
X208485180Y-121073502D01*
X208595494Y-121014537D01*
X208692185Y-120935185D01*
X208771537Y-120838494D01*
X208830502Y-120728180D01*
X208866812Y-120608482D01*
X208879072Y-120484000D01*
X208879072Y-118784000D01*
X208866812Y-118659518D01*
X208830502Y-118539820D01*
X208771537Y-118429506D01*
X208692185Y-118332815D01*
X208595494Y-118253463D01*
X208485180Y-118194498D01*
X208365482Y-118158188D01*
X208241000Y-118145928D01*
X206541000Y-118145928D01*
X206416518Y-118158188D01*
X206296820Y-118194498D01*
X206186506Y-118253463D01*
X206089815Y-118332815D01*
X206010463Y-118429506D01*
X205951498Y-118539820D01*
X205927910Y-118617579D01*
X205752991Y-118454312D01*
X205505514Y-118301010D01*
X205330755Y-118228632D01*
X205105000Y-118332300D01*
X204597000Y-118332300D01*
X204371245Y-118228632D01*
X204196486Y-118301010D01*
X203949009Y-118454312D01*
X203736195Y-118652949D01*
X203583417Y-118865378D01*
X203464475Y-118687368D01*
X203257632Y-118480525D01*
X203014411Y-118318010D01*
X202744158Y-118206068D01*
X202457260Y-118149000D01*
X202164740Y-118149000D01*
X201877842Y-118206068D01*
X201607589Y-118318010D01*
X201364368Y-118480525D01*
X201157525Y-118687368D01*
X200995010Y-118930589D01*
X200883068Y-119200842D01*
X200826000Y-119487740D01*
X182245000Y-119487740D01*
X182245000Y-117716235D01*
X183248236Y-116713000D01*
X194878289Y-116713000D01*
X194776063Y-116815226D01*
X194662795Y-116984744D01*
X194584774Y-117173102D01*
X194545000Y-117373061D01*
X194545000Y-117576939D01*
X194584774Y-117776898D01*
X194662795Y-117965256D01*
X194776063Y-118134774D01*
X194920226Y-118278937D01*
X195089744Y-118392205D01*
X195278102Y-118470226D01*
X195478061Y-118510000D01*
X195681939Y-118510000D01*
X195881898Y-118470226D01*
X196070256Y-118392205D01*
X196239774Y-118278937D01*
X196383937Y-118134774D01*
X196497205Y-117965256D01*
X196575226Y-117776898D01*
X196585130Y-117727105D01*
X197737106Y-116575130D01*
X197786898Y-116565226D01*
X197975256Y-116487205D01*
X198144774Y-116373937D01*
X198288937Y-116229774D01*
X198402205Y-116060256D01*
X198480226Y-115871898D01*
X198520000Y-115671939D01*
X198520000Y-115468061D01*
X198480226Y-115268102D01*
X198402205Y-115079744D01*
X198288937Y-114910226D01*
X198144774Y-114766063D01*
X197975256Y-114652795D01*
X197872828Y-114610368D01*
X202273743Y-110209454D01*
X202307659Y-110181620D01*
X202418753Y-110046252D01*
X202501303Y-109891812D01*
X202530002Y-109797203D01*
X202552136Y-109724236D01*
X202553943Y-109705888D01*
X202565000Y-109593628D01*
X202565000Y-109593622D01*
X202569300Y-109549962D01*
X202565000Y-109506302D01*
X202565000Y-108228468D01*
X202593205Y-108186256D01*
X202671226Y-107997898D01*
X202711000Y-107797939D01*
X202711000Y-107594061D01*
X202671226Y-107394102D01*
X202593205Y-107205744D01*
X202479937Y-107036226D01*
X202335774Y-106892063D01*
X202166256Y-106778795D01*
X201977898Y-106700774D01*
X201777939Y-106661000D01*
X201574061Y-106661000D01*
X201374102Y-106700774D01*
X201185744Y-106778795D01*
X201016226Y-106892063D01*
X200872063Y-107036226D01*
X200758795Y-107205744D01*
X200680774Y-107394102D01*
X200641000Y-107594061D01*
X200641000Y-107797939D01*
X200680774Y-107997898D01*
X200758795Y-108186256D01*
X200787001Y-108228469D01*
X200787000Y-109181725D01*
X197065000Y-112903726D01*
X197065000Y-112883740D01*
X197007932Y-112596842D01*
X196895990Y-112326589D01*
X196733475Y-112083368D01*
X196526632Y-111876525D01*
X196352240Y-111760000D01*
X196526632Y-111643475D01*
X196733475Y-111436632D01*
X196895990Y-111193411D01*
X197007932Y-110923158D01*
X197065000Y-110636260D01*
X197065000Y-110343740D01*
X197007932Y-110056842D01*
X196895990Y-109786589D01*
X196733475Y-109543368D01*
X196526632Y-109336525D01*
X196352240Y-109220000D01*
X196526632Y-109103475D01*
X196733475Y-108896632D01*
X196895990Y-108653411D01*
X197007932Y-108383158D01*
X197065000Y-108096260D01*
X197065000Y-107803740D01*
X197007932Y-107516842D01*
X196895990Y-107246589D01*
X196733475Y-107003368D01*
X196526632Y-106796525D01*
X196283411Y-106634010D01*
X196281905Y-106633386D01*
X196326012Y-106515222D01*
X195580000Y-105769210D01*
X194833988Y-106515222D01*
X194878095Y-106633386D01*
X194876589Y-106634010D01*
X194633368Y-106796525D01*
X194426525Y-107003368D01*
X194264010Y-107246589D01*
X194152068Y-107516842D01*
X194095000Y-107803740D01*
X194095000Y-108096260D01*
X194152068Y-108383158D01*
X194264010Y-108653411D01*
X194426525Y-108896632D01*
X194633368Y-109103475D01*
X194807760Y-109220000D01*
X194633368Y-109336525D01*
X194426525Y-109543368D01*
X194264010Y-109786589D01*
X194152068Y-110056842D01*
X194095000Y-110343740D01*
X194095000Y-110636260D01*
X194152068Y-110923158D01*
X194264010Y-111193411D01*
X194426525Y-111436632D01*
X194633368Y-111643475D01*
X194807760Y-111760000D01*
X194633368Y-111876525D01*
X194426525Y-112083368D01*
X194264010Y-112326589D01*
X194152068Y-112596842D01*
X194095000Y-112883740D01*
X194095000Y-113176260D01*
X194152068Y-113463158D01*
X194264010Y-113733411D01*
X194426525Y-113976632D01*
X194633368Y-114183475D01*
X194876589Y-114345990D01*
X195146842Y-114457932D01*
X195433740Y-114515000D01*
X195453726Y-114515000D01*
X195033726Y-114935000D01*
X182923659Y-114935000D01*
X182879999Y-114930700D01*
X182836339Y-114935000D01*
X182836333Y-114935000D01*
X182738924Y-114944594D01*
X182705724Y-114947864D01*
X182604058Y-114978704D01*
X182538149Y-114998697D01*
X182383709Y-115081247D01*
X182248341Y-115192341D01*
X182220506Y-115226259D01*
X180758259Y-116688506D01*
X180724342Y-116716341D01*
X180696507Y-116750258D01*
X180696505Y-116750260D01*
X180613248Y-116851709D01*
X180530698Y-117006148D01*
X180479864Y-117173726D01*
X180462700Y-117348000D01*
X180467001Y-117391670D01*
X180467000Y-122911528D01*
X180438795Y-122953740D01*
X180360774Y-123142098D01*
X180321000Y-123342057D01*
X178860072Y-123342057D01*
X178860072Y-123200000D01*
X178843008Y-123026746D01*
X178792472Y-122860150D01*
X178710405Y-122706614D01*
X178599962Y-122572038D01*
X178465386Y-122461595D01*
X178461000Y-122459251D01*
X178461000Y-122288072D01*
X179514500Y-122288072D01*
X179638982Y-122275812D01*
X179758680Y-122239502D01*
X179868994Y-122180537D01*
X179965685Y-122101185D01*
X180045037Y-122004494D01*
X180104002Y-121894180D01*
X180140312Y-121774482D01*
X180152572Y-121650000D01*
X180152572Y-119650000D01*
X180140312Y-119525518D01*
X180104002Y-119405820D01*
X180045037Y-119295506D01*
X179965685Y-119198815D01*
X179868994Y-119119463D01*
X179758680Y-119060498D01*
X179638982Y-119024188D01*
X179514500Y-119011928D01*
X177609500Y-119011928D01*
X177485018Y-119024188D01*
X177365320Y-119060498D01*
X177255006Y-119119463D01*
X177158315Y-119198815D01*
X177078963Y-119295506D01*
X177034095Y-119379446D01*
X176908235Y-119276155D01*
X176632449Y-119128745D01*
X176333204Y-119037970D01*
X176022000Y-119007319D01*
X176022000Y-107803740D01*
X183935000Y-107803740D01*
X183935000Y-108096260D01*
X183992068Y-108383158D01*
X184104010Y-108653411D01*
X184266525Y-108896632D01*
X184473368Y-109103475D01*
X184647760Y-109220000D01*
X184473368Y-109336525D01*
X184266525Y-109543368D01*
X184104010Y-109786589D01*
X183992068Y-110056842D01*
X183935000Y-110343740D01*
X183935000Y-110636260D01*
X183992068Y-110923158D01*
X184104010Y-111193411D01*
X184266525Y-111436632D01*
X184473368Y-111643475D01*
X184647760Y-111760000D01*
X184473368Y-111876525D01*
X184266525Y-112083368D01*
X184104010Y-112326589D01*
X183992068Y-112596842D01*
X183935000Y-112883740D01*
X183935000Y-113176260D01*
X183992068Y-113463158D01*
X184104010Y-113733411D01*
X184266525Y-113976632D01*
X184473368Y-114183475D01*
X184716589Y-114345990D01*
X184986842Y-114457932D01*
X185273740Y-114515000D01*
X185566260Y-114515000D01*
X185853158Y-114457932D01*
X186123411Y-114345990D01*
X186366632Y-114183475D01*
X186573475Y-113976632D01*
X186735990Y-113733411D01*
X186847932Y-113463158D01*
X186905000Y-113176260D01*
X186905000Y-112883740D01*
X186847932Y-112596842D01*
X186735990Y-112326589D01*
X186573475Y-112083368D01*
X186366632Y-111876525D01*
X186192240Y-111760000D01*
X186366632Y-111643475D01*
X186573475Y-111436632D01*
X186735990Y-111193411D01*
X186847932Y-110923158D01*
X186905000Y-110636260D01*
X186905000Y-110343740D01*
X186847932Y-110056842D01*
X186735990Y-109786589D01*
X186573475Y-109543368D01*
X186366632Y-109336525D01*
X186192240Y-109220000D01*
X186366632Y-109103475D01*
X186573475Y-108896632D01*
X186735990Y-108653411D01*
X186847932Y-108383158D01*
X186905000Y-108096260D01*
X186905000Y-107803740D01*
X186847932Y-107516842D01*
X186735990Y-107246589D01*
X186573475Y-107003368D01*
X186366632Y-106796525D01*
X186123411Y-106634010D01*
X186121905Y-106633386D01*
X186166012Y-106515222D01*
X185420000Y-105769210D01*
X184673988Y-106515222D01*
X184718095Y-106633386D01*
X184716589Y-106634010D01*
X184473368Y-106796525D01*
X184266525Y-107003368D01*
X184104010Y-107246589D01*
X183992068Y-107516842D01*
X183935000Y-107803740D01*
X176022000Y-107803740D01*
X176022000Y-105313722D01*
X183930925Y-105313722D01*
X183940755Y-105606076D01*
X184007430Y-105890895D01*
X184081118Y-106068794D01*
X184314778Y-106156012D01*
X185060790Y-105410000D01*
X185779210Y-105410000D01*
X186525222Y-106156012D01*
X186758882Y-106068794D01*
X186861680Y-105794933D01*
X186909075Y-105506278D01*
X186902601Y-105313722D01*
X194090925Y-105313722D01*
X194100755Y-105606076D01*
X194167430Y-105890895D01*
X194241118Y-106068794D01*
X194474778Y-106156012D01*
X195220790Y-105410000D01*
X195939210Y-105410000D01*
X196685222Y-106156012D01*
X196918882Y-106068794D01*
X197021680Y-105794933D01*
X197069075Y-105506278D01*
X197059245Y-105213924D01*
X196992570Y-104929105D01*
X196918882Y-104751206D01*
X196685222Y-104663988D01*
X195939210Y-105410000D01*
X195220790Y-105410000D01*
X194474778Y-104663988D01*
X194241118Y-104751206D01*
X194138320Y-105025067D01*
X194090925Y-105313722D01*
X186902601Y-105313722D01*
X186899245Y-105213924D01*
X186832570Y-104929105D01*
X186758882Y-104751206D01*
X186525222Y-104663988D01*
X185779210Y-105410000D01*
X185060790Y-105410000D01*
X184314778Y-104663988D01*
X184081118Y-104751206D01*
X183978320Y-105025067D01*
X183930925Y-105313722D01*
X176022000Y-105313722D01*
X176022000Y-100183740D01*
X183935000Y-100183740D01*
X183935000Y-100476260D01*
X183992068Y-100763158D01*
X184104010Y-101033411D01*
X184266525Y-101276632D01*
X184473368Y-101483475D01*
X184647760Y-101600000D01*
X184473368Y-101716525D01*
X184266525Y-101923368D01*
X184104010Y-102166589D01*
X183992068Y-102436842D01*
X183935000Y-102723740D01*
X183935000Y-103016260D01*
X183992068Y-103303158D01*
X184104010Y-103573411D01*
X184266525Y-103816632D01*
X184473368Y-104023475D01*
X184716589Y-104185990D01*
X184718095Y-104186614D01*
X184673988Y-104304778D01*
X185420000Y-105050790D01*
X186166012Y-104304778D01*
X186121905Y-104186614D01*
X186123411Y-104185990D01*
X186366632Y-104023475D01*
X186573475Y-103816632D01*
X186735990Y-103573411D01*
X186847932Y-103303158D01*
X186905000Y-103016260D01*
X186905000Y-102723740D01*
X186847932Y-102436842D01*
X186735990Y-102166589D01*
X186573475Y-101923368D01*
X186366632Y-101716525D01*
X186192240Y-101600000D01*
X186366632Y-101483475D01*
X186573475Y-101276632D01*
X186735990Y-101033411D01*
X186847932Y-100763158D01*
X186905000Y-100476260D01*
X186905000Y-100183740D01*
X194095000Y-100183740D01*
X194095000Y-100476260D01*
X194152068Y-100763158D01*
X194264010Y-101033411D01*
X194426525Y-101276632D01*
X194633368Y-101483475D01*
X194807760Y-101600000D01*
X194633368Y-101716525D01*
X194426525Y-101923368D01*
X194264010Y-102166589D01*
X194152068Y-102436842D01*
X194095000Y-102723740D01*
X194095000Y-103016260D01*
X194152068Y-103303158D01*
X194264010Y-103573411D01*
X194426525Y-103816632D01*
X194633368Y-104023475D01*
X194876589Y-104185990D01*
X194878095Y-104186614D01*
X194833988Y-104304778D01*
X195580000Y-105050790D01*
X196326012Y-104304778D01*
X196281905Y-104186614D01*
X196283411Y-104185990D01*
X196526632Y-104023475D01*
X196733475Y-103816632D01*
X196814413Y-103695500D01*
X206382506Y-103695500D01*
X206519744Y-103787199D01*
X206708102Y-103865220D01*
X206908061Y-103904994D01*
X207111939Y-103904994D01*
X207311898Y-103865220D01*
X207500256Y-103787199D01*
X207669774Y-103673931D01*
X207813937Y-103529768D01*
X207927205Y-103360250D01*
X208005226Y-103171892D01*
X208045000Y-102971933D01*
X208045000Y-102768055D01*
X208005226Y-102568096D01*
X207927205Y-102379738D01*
X207813937Y-102210220D01*
X207669774Y-102066057D01*
X207500256Y-101952789D01*
X207311898Y-101874768D01*
X207111939Y-101834994D01*
X206908061Y-101834994D01*
X206708102Y-101874768D01*
X206519744Y-101952789D01*
X206382488Y-102044500D01*
X196814413Y-102044500D01*
X196733475Y-101923368D01*
X196526632Y-101716525D01*
X196352240Y-101600000D01*
X196504802Y-101498061D01*
X211690000Y-101498061D01*
X211690000Y-101701939D01*
X211729774Y-101901898D01*
X211807795Y-102090256D01*
X211921063Y-102259774D01*
X212065226Y-102403937D01*
X212234744Y-102517205D01*
X212423102Y-102595226D01*
X212623061Y-102635000D01*
X212826939Y-102635000D01*
X213026898Y-102595226D01*
X213215256Y-102517205D01*
X213384774Y-102403937D01*
X213528937Y-102259774D01*
X213642205Y-102090256D01*
X213720226Y-101901898D01*
X213752428Y-101740004D01*
X214550039Y-100942394D01*
X214581541Y-100916541D01*
X214660560Y-100820256D01*
X214684699Y-100790843D01*
X214711399Y-100740889D01*
X214761353Y-100647434D01*
X214808556Y-100491826D01*
X214820500Y-100370553D01*
X214820500Y-100370551D01*
X214824494Y-100330001D01*
X214820500Y-100289450D01*
X214820500Y-96836344D01*
X214859606Y-96875450D01*
X215053692Y-97005134D01*
X215269348Y-97094461D01*
X215498288Y-97140000D01*
X215731712Y-97140000D01*
X215960652Y-97094461D01*
X216176308Y-97005134D01*
X216370394Y-96875450D01*
X216535450Y-96710394D01*
X216665134Y-96516308D01*
X216754461Y-96300652D01*
X216800000Y-96071712D01*
X216800000Y-95838288D01*
X216754461Y-95609348D01*
X216665134Y-95393692D01*
X216535450Y-95199606D01*
X216370394Y-95034550D01*
X216176308Y-94904866D01*
X215960652Y-94815539D01*
X215731712Y-94770000D01*
X215498288Y-94770000D01*
X215442245Y-94781148D01*
X215443556Y-94776826D01*
X215455500Y-94655553D01*
X215455500Y-94655551D01*
X215459494Y-94615000D01*
X215458337Y-94603256D01*
X215547205Y-94470256D01*
X215625226Y-94281898D01*
X215665000Y-94081939D01*
X215665000Y-93878061D01*
X215625226Y-93678102D01*
X215547205Y-93489744D01*
X215433937Y-93320226D01*
X215289774Y-93176063D01*
X215120256Y-93062795D01*
X214931898Y-92984774D01*
X214731939Y-92945000D01*
X214528061Y-92945000D01*
X214328102Y-92984774D01*
X214139744Y-93062795D01*
X213970226Y-93176063D01*
X213826063Y-93320226D01*
X213712795Y-93489744D01*
X213634774Y-93678102D01*
X213595000Y-93878061D01*
X213595000Y-94081939D01*
X213634774Y-94281898D01*
X213681899Y-94395668D01*
X213439965Y-94637603D01*
X213408459Y-94663459D01*
X213339214Y-94747835D01*
X213305301Y-94789158D01*
X213243454Y-94904866D01*
X213228647Y-94932567D01*
X213181444Y-95088175D01*
X213170279Y-95201541D01*
X213165506Y-95250000D01*
X213169500Y-95290551D01*
X213169501Y-99988066D01*
X212584996Y-100572572D01*
X212423102Y-100604774D01*
X212234744Y-100682795D01*
X212065226Y-100796063D01*
X211921063Y-100940226D01*
X211807795Y-101109744D01*
X211729774Y-101298102D01*
X211690000Y-101498061D01*
X196504802Y-101498061D01*
X196526632Y-101483475D01*
X196733475Y-101276632D01*
X196814413Y-101155500D01*
X206382497Y-101155500D01*
X206519744Y-101247205D01*
X206708102Y-101325226D01*
X206908061Y-101365000D01*
X207111939Y-101365000D01*
X207311898Y-101325226D01*
X207500256Y-101247205D01*
X207669774Y-101133937D01*
X207813937Y-100989774D01*
X207927205Y-100820256D01*
X208005226Y-100631898D01*
X208045000Y-100431939D01*
X208045000Y-100228061D01*
X208005226Y-100028102D01*
X207927205Y-99839744D01*
X207813937Y-99670226D01*
X207669774Y-99526063D01*
X207500256Y-99412795D01*
X207311898Y-99334774D01*
X207111939Y-99295000D01*
X206908061Y-99295000D01*
X206708102Y-99334774D01*
X206519744Y-99412795D01*
X206382497Y-99504500D01*
X196814413Y-99504500D01*
X196733475Y-99383368D01*
X196526632Y-99176525D01*
X196283411Y-99014010D01*
X196013158Y-98902068D01*
X195726260Y-98845000D01*
X195433740Y-98845000D01*
X195146842Y-98902068D01*
X194876589Y-99014010D01*
X194633368Y-99176525D01*
X194426525Y-99383368D01*
X194264010Y-99626589D01*
X194152068Y-99896842D01*
X194095000Y-100183740D01*
X186905000Y-100183740D01*
X186847932Y-99896842D01*
X186735990Y-99626589D01*
X186573475Y-99383368D01*
X186366632Y-99176525D01*
X186123411Y-99014010D01*
X185853158Y-98902068D01*
X185566260Y-98845000D01*
X185273740Y-98845000D01*
X184986842Y-98902068D01*
X184716589Y-99014010D01*
X184473368Y-99176525D01*
X184266525Y-99383368D01*
X184104010Y-99626589D01*
X183992068Y-99896842D01*
X183935000Y-100183740D01*
X176022000Y-100183740D01*
X176022000Y-98477606D01*
X179757606Y-94742000D01*
X195580000Y-94742000D01*
X195604776Y-94739560D01*
X195628601Y-94732333D01*
X195650557Y-94720597D01*
X195669803Y-94704803D01*
X195685597Y-94685557D01*
X195697333Y-94663601D01*
X195704560Y-94639776D01*
X195707000Y-94615000D01*
X195707000Y-85160000D01*
X199329928Y-85160000D01*
X199329928Y-87560000D01*
X199342188Y-87684482D01*
X199378498Y-87804180D01*
X199437463Y-87914494D01*
X199516815Y-88011185D01*
X199613506Y-88090537D01*
X199723820Y-88149502D01*
X199843518Y-88185812D01*
X199968000Y-88198072D01*
X202368000Y-88198072D01*
X202492482Y-88185812D01*
X202612180Y-88149502D01*
X202722494Y-88090537D01*
X202819185Y-88011185D01*
X202898537Y-87914494D01*
X202957502Y-87804180D01*
X202993812Y-87684482D01*
X203006072Y-87560000D01*
X203006072Y-85160000D01*
X202993812Y-85035518D01*
X202957502Y-84915820D01*
X202898537Y-84805506D01*
X202819185Y-84708815D01*
X202722494Y-84629463D01*
X202612180Y-84570498D01*
X202492482Y-84534188D01*
X202368000Y-84521928D01*
X199968000Y-84521928D01*
X199843518Y-84534188D01*
X199723820Y-84570498D01*
X199613506Y-84629463D01*
X199516815Y-84708815D01*
X199437463Y-84805506D01*
X199378498Y-84915820D01*
X199342188Y-85035518D01*
X199329928Y-85160000D01*
X195707000Y-85160000D01*
X195707000Y-81241000D01*
X195834002Y-81241000D01*
X195834002Y-81057701D01*
X196059755Y-81161368D01*
X196234514Y-81088990D01*
X196481991Y-80935688D01*
X196656910Y-80772421D01*
X196680498Y-80850180D01*
X196739463Y-80960494D01*
X196818815Y-81057185D01*
X196915506Y-81136537D01*
X197025820Y-81195502D01*
X197145518Y-81231812D01*
X197270000Y-81244072D01*
X198970000Y-81244072D01*
X199094482Y-81231812D01*
X199214180Y-81195502D01*
X199324494Y-81136537D01*
X199421185Y-81057185D01*
X199500537Y-80960494D01*
X199559502Y-80850180D01*
X199595812Y-80730482D01*
X199608072Y-80606000D01*
X199608072Y-78906000D01*
X199595812Y-78781518D01*
X199559502Y-78661820D01*
X199500537Y-78551506D01*
X199421185Y-78454815D01*
X199324494Y-78375463D01*
X199214180Y-78316498D01*
X199094482Y-78280188D01*
X198970000Y-78267928D01*
X197270000Y-78267928D01*
X197145518Y-78280188D01*
X197025820Y-78316498D01*
X196915506Y-78375463D01*
X196818815Y-78454815D01*
X196739463Y-78551506D01*
X196680498Y-78661820D01*
X196656910Y-78739579D01*
X196481991Y-78576312D01*
X196234514Y-78423010D01*
X196059755Y-78350632D01*
X195834002Y-78454299D01*
X195834002Y-78271000D01*
X195707000Y-78271000D01*
X195707000Y-74813665D01*
X214180000Y-74813665D01*
X214180000Y-75096335D01*
X214235147Y-75373574D01*
X214343320Y-75634727D01*
X214500363Y-75869759D01*
X214700241Y-76069637D01*
X214935273Y-76226680D01*
X215196426Y-76334853D01*
X215473665Y-76390000D01*
X215756335Y-76390000D01*
X216033574Y-76334853D01*
X216294727Y-76226680D01*
X216529759Y-76069637D01*
X216729637Y-75869759D01*
X216886680Y-75634727D01*
X216994853Y-75373574D01*
X217050000Y-75096335D01*
X217050000Y-74813665D01*
X216994853Y-74536426D01*
X216886680Y-74275273D01*
X216729637Y-74040241D01*
X216529759Y-73840363D01*
X216294727Y-73683320D01*
X216033574Y-73575147D01*
X215756335Y-73520000D01*
X215473665Y-73520000D01*
X215196426Y-73575147D01*
X214935273Y-73683320D01*
X214700241Y-73840363D01*
X214500363Y-74040241D01*
X214343320Y-74275273D01*
X214235147Y-74536426D01*
X214180000Y-74813665D01*
X195707000Y-74813665D01*
X195707000Y-70332575D01*
X195709766Y-70334845D01*
X195985552Y-70482255D01*
X196284797Y-70573030D01*
X196596000Y-70603681D01*
X196907204Y-70573030D01*
X197206449Y-70482255D01*
X197482235Y-70334845D01*
X197723963Y-70136463D01*
X197866000Y-69963391D01*
X198008037Y-70136463D01*
X198249766Y-70334845D01*
X198525552Y-70482255D01*
X198824797Y-70573030D01*
X199136000Y-70603681D01*
X199447204Y-70573030D01*
X199746449Y-70482255D01*
X200022235Y-70334845D01*
X200263963Y-70136463D01*
X200462345Y-69894734D01*
X200609755Y-69618948D01*
X200700530Y-69319703D01*
X200723500Y-69086485D01*
X200723500Y-68835514D01*
X200700530Y-68602296D01*
X200609755Y-68303051D01*
X200462345Y-68027265D01*
X200263963Y-67785537D01*
X200022234Y-67587155D01*
X199746448Y-67439745D01*
X199447203Y-67348970D01*
X199136000Y-67318319D01*
X198824796Y-67348970D01*
X198525551Y-67439745D01*
X198249765Y-67587155D01*
X198008037Y-67785537D01*
X197866000Y-67958609D01*
X197723963Y-67785537D01*
X197482234Y-67587155D01*
X197206448Y-67439745D01*
X196907203Y-67348970D01*
X196596000Y-67318319D01*
X196284796Y-67348970D01*
X195985551Y-67439745D01*
X195709765Y-67587155D01*
X195707000Y-67589424D01*
X195707000Y-64262000D01*
X238100001Y-64262000D01*
X238100000Y-128880000D01*
%TA.AperFunction,Conductor*%
D28*
G36*
X238100000Y-128880000D02*
G01*
X176022000Y-128880000D01*
X176022000Y-122292681D01*
X176333203Y-122262030D01*
X176632448Y-122171255D01*
X176683001Y-122144234D01*
X176683001Y-122459250D01*
X176678614Y-122461595D01*
X176544038Y-122572038D01*
X176433595Y-122706614D01*
X176351528Y-122860150D01*
X176300992Y-123026746D01*
X176283928Y-123200000D01*
X176283928Y-124450000D01*
X176300992Y-124623254D01*
X176351528Y-124789850D01*
X176433595Y-124943386D01*
X176544038Y-125077962D01*
X176678614Y-125188405D01*
X176832150Y-125270472D01*
X176998746Y-125321008D01*
X177172000Y-125338072D01*
X177972000Y-125338072D01*
X178145254Y-125321008D01*
X178311850Y-125270472D01*
X178465386Y-125188405D01*
X178599962Y-125077962D01*
X178710405Y-124943386D01*
X178792472Y-124789850D01*
X178843008Y-124623254D01*
X178860072Y-124450000D01*
X178860072Y-123342057D01*
X180321000Y-123342057D01*
X180321000Y-123545935D01*
X180360774Y-123745894D01*
X180438795Y-123934252D01*
X180552063Y-124103770D01*
X180696226Y-124247933D01*
X180865744Y-124361201D01*
X181054102Y-124439222D01*
X181254061Y-124478996D01*
X181457939Y-124478996D01*
X181657898Y-124439222D01*
X181846256Y-124361201D01*
X182015774Y-124247933D01*
X182159937Y-124103770D01*
X182273205Y-123934252D01*
X182351226Y-123745894D01*
X182391000Y-123545935D01*
X182391000Y-123342057D01*
X182351226Y-123142098D01*
X182273205Y-122953740D01*
X182245000Y-122911528D01*
X182245000Y-119487740D01*
X200826000Y-119487740D01*
X200826000Y-119780260D01*
X200883068Y-120067158D01*
X200995010Y-120337411D01*
X201157525Y-120580632D01*
X201364368Y-120787475D01*
X201607589Y-120949990D01*
X201877842Y-121061932D01*
X202164740Y-121119000D01*
X202457260Y-121119000D01*
X202744158Y-121061932D01*
X203014411Y-120949990D01*
X203257632Y-120787475D01*
X203464475Y-120580632D01*
X203583417Y-120402622D01*
X203736195Y-120615051D01*
X203949009Y-120813688D01*
X204196486Y-120966990D01*
X204371245Y-121039368D01*
X204597000Y-120935700D01*
X204597000Y-119888000D01*
X204577000Y-119888000D01*
X204577000Y-119380000D01*
X204597000Y-119380000D01*
X204597000Y-118332300D01*
X205105000Y-118332300D01*
X205105000Y-119380000D01*
X205125000Y-119380000D01*
X205125000Y-119888000D01*
X205105000Y-119888000D01*
X205105000Y-120935700D01*
X205330755Y-121039368D01*
X205505514Y-120966990D01*
X205752991Y-120813688D01*
X205927910Y-120650421D01*
X205951498Y-120728180D01*
X206010463Y-120838494D01*
X206089815Y-120935185D01*
X206186506Y-121014537D01*
X206296820Y-121073502D01*
X206416518Y-121109812D01*
X206541000Y-121122072D01*
X208241000Y-121122072D01*
X208365482Y-121109812D01*
X208485180Y-121073502D01*
X208595494Y-121014537D01*
X208692185Y-120935185D01*
X208771537Y-120838494D01*
X208830502Y-120728180D01*
X208866812Y-120608482D01*
X208879072Y-120484000D01*
X208879072Y-118784000D01*
X208866812Y-118659518D01*
X208830502Y-118539820D01*
X208771537Y-118429506D01*
X208692185Y-118332815D01*
X208595494Y-118253463D01*
X208485180Y-118194498D01*
X208365482Y-118158188D01*
X208241000Y-118145928D01*
X206541000Y-118145928D01*
X206416518Y-118158188D01*
X206296820Y-118194498D01*
X206186506Y-118253463D01*
X206089815Y-118332815D01*
X206010463Y-118429506D01*
X205951498Y-118539820D01*
X205927910Y-118617579D01*
X205752991Y-118454312D01*
X205505514Y-118301010D01*
X205330755Y-118228632D01*
X205105000Y-118332300D01*
X204597000Y-118332300D01*
X204371245Y-118228632D01*
X204196486Y-118301010D01*
X203949009Y-118454312D01*
X203736195Y-118652949D01*
X203583417Y-118865378D01*
X203464475Y-118687368D01*
X203257632Y-118480525D01*
X203014411Y-118318010D01*
X202744158Y-118206068D01*
X202457260Y-118149000D01*
X202164740Y-118149000D01*
X201877842Y-118206068D01*
X201607589Y-118318010D01*
X201364368Y-118480525D01*
X201157525Y-118687368D01*
X200995010Y-118930589D01*
X200883068Y-119200842D01*
X200826000Y-119487740D01*
X182245000Y-119487740D01*
X182245000Y-117716235D01*
X183248236Y-116713000D01*
X194878289Y-116713000D01*
X194776063Y-116815226D01*
X194662795Y-116984744D01*
X194584774Y-117173102D01*
X194545000Y-117373061D01*
X194545000Y-117576939D01*
X194584774Y-117776898D01*
X194662795Y-117965256D01*
X194776063Y-118134774D01*
X194920226Y-118278937D01*
X195089744Y-118392205D01*
X195278102Y-118470226D01*
X195478061Y-118510000D01*
X195681939Y-118510000D01*
X195881898Y-118470226D01*
X196070256Y-118392205D01*
X196239774Y-118278937D01*
X196383937Y-118134774D01*
X196497205Y-117965256D01*
X196575226Y-117776898D01*
X196585130Y-117727105D01*
X197737106Y-116575130D01*
X197786898Y-116565226D01*
X197975256Y-116487205D01*
X198144774Y-116373937D01*
X198288937Y-116229774D01*
X198402205Y-116060256D01*
X198480226Y-115871898D01*
X198520000Y-115671939D01*
X198520000Y-115468061D01*
X198480226Y-115268102D01*
X198402205Y-115079744D01*
X198288937Y-114910226D01*
X198144774Y-114766063D01*
X197975256Y-114652795D01*
X197872828Y-114610368D01*
X202273743Y-110209454D01*
X202307659Y-110181620D01*
X202418753Y-110046252D01*
X202501303Y-109891812D01*
X202530002Y-109797203D01*
X202552136Y-109724236D01*
X202553943Y-109705888D01*
X202565000Y-109593628D01*
X202565000Y-109593622D01*
X202569300Y-109549962D01*
X202565000Y-109506302D01*
X202565000Y-108228468D01*
X202593205Y-108186256D01*
X202671226Y-107997898D01*
X202711000Y-107797939D01*
X202711000Y-107594061D01*
X202671226Y-107394102D01*
X202593205Y-107205744D01*
X202479937Y-107036226D01*
X202335774Y-106892063D01*
X202166256Y-106778795D01*
X201977898Y-106700774D01*
X201777939Y-106661000D01*
X201574061Y-106661000D01*
X201374102Y-106700774D01*
X201185744Y-106778795D01*
X201016226Y-106892063D01*
X200872063Y-107036226D01*
X200758795Y-107205744D01*
X200680774Y-107394102D01*
X200641000Y-107594061D01*
X200641000Y-107797939D01*
X200680774Y-107997898D01*
X200758795Y-108186256D01*
X200787001Y-108228469D01*
X200787000Y-109181725D01*
X197065000Y-112903726D01*
X197065000Y-112883740D01*
X197007932Y-112596842D01*
X196895990Y-112326589D01*
X196733475Y-112083368D01*
X196526632Y-111876525D01*
X196352240Y-111760000D01*
X196526632Y-111643475D01*
X196733475Y-111436632D01*
X196895990Y-111193411D01*
X197007932Y-110923158D01*
X197065000Y-110636260D01*
X197065000Y-110343740D01*
X197007932Y-110056842D01*
X196895990Y-109786589D01*
X196733475Y-109543368D01*
X196526632Y-109336525D01*
X196352240Y-109220000D01*
X196526632Y-109103475D01*
X196733475Y-108896632D01*
X196895990Y-108653411D01*
X197007932Y-108383158D01*
X197065000Y-108096260D01*
X197065000Y-107803740D01*
X197007932Y-107516842D01*
X196895990Y-107246589D01*
X196733475Y-107003368D01*
X196526632Y-106796525D01*
X196283411Y-106634010D01*
X196281905Y-106633386D01*
X196326012Y-106515222D01*
X195580000Y-105769210D01*
X194833988Y-106515222D01*
X194878095Y-106633386D01*
X194876589Y-106634010D01*
X194633368Y-106796525D01*
X194426525Y-107003368D01*
X194264010Y-107246589D01*
X194152068Y-107516842D01*
X194095000Y-107803740D01*
X194095000Y-108096260D01*
X194152068Y-108383158D01*
X194264010Y-108653411D01*
X194426525Y-108896632D01*
X194633368Y-109103475D01*
X194807760Y-109220000D01*
X194633368Y-109336525D01*
X194426525Y-109543368D01*
X194264010Y-109786589D01*
X194152068Y-110056842D01*
X194095000Y-110343740D01*
X194095000Y-110636260D01*
X194152068Y-110923158D01*
X194264010Y-111193411D01*
X194426525Y-111436632D01*
X194633368Y-111643475D01*
X194807760Y-111760000D01*
X194633368Y-111876525D01*
X194426525Y-112083368D01*
X194264010Y-112326589D01*
X194152068Y-112596842D01*
X194095000Y-112883740D01*
X194095000Y-113176260D01*
X194152068Y-113463158D01*
X194264010Y-113733411D01*
X194426525Y-113976632D01*
X194633368Y-114183475D01*
X194876589Y-114345990D01*
X195146842Y-114457932D01*
X195433740Y-114515000D01*
X195453726Y-114515000D01*
X195033726Y-114935000D01*
X182923659Y-114935000D01*
X182879999Y-114930700D01*
X182836339Y-114935000D01*
X182836333Y-114935000D01*
X182738924Y-114944594D01*
X182705724Y-114947864D01*
X182604058Y-114978704D01*
X182538149Y-114998697D01*
X182383709Y-115081247D01*
X182248341Y-115192341D01*
X182220506Y-115226259D01*
X180758259Y-116688506D01*
X180724342Y-116716341D01*
X180696507Y-116750258D01*
X180696505Y-116750260D01*
X180613248Y-116851709D01*
X180530698Y-117006148D01*
X180479864Y-117173726D01*
X180462700Y-117348000D01*
X180467001Y-117391670D01*
X180467000Y-122911528D01*
X180438795Y-122953740D01*
X180360774Y-123142098D01*
X180321000Y-123342057D01*
X178860072Y-123342057D01*
X178860072Y-123200000D01*
X178843008Y-123026746D01*
X178792472Y-122860150D01*
X178710405Y-122706614D01*
X178599962Y-122572038D01*
X178465386Y-122461595D01*
X178461000Y-122459251D01*
X178461000Y-122288072D01*
X179514500Y-122288072D01*
X179638982Y-122275812D01*
X179758680Y-122239502D01*
X179868994Y-122180537D01*
X179965685Y-122101185D01*
X180045037Y-122004494D01*
X180104002Y-121894180D01*
X180140312Y-121774482D01*
X180152572Y-121650000D01*
X180152572Y-119650000D01*
X180140312Y-119525518D01*
X180104002Y-119405820D01*
X180045037Y-119295506D01*
X179965685Y-119198815D01*
X179868994Y-119119463D01*
X179758680Y-119060498D01*
X179638982Y-119024188D01*
X179514500Y-119011928D01*
X177609500Y-119011928D01*
X177485018Y-119024188D01*
X177365320Y-119060498D01*
X177255006Y-119119463D01*
X177158315Y-119198815D01*
X177078963Y-119295506D01*
X177034095Y-119379446D01*
X176908235Y-119276155D01*
X176632449Y-119128745D01*
X176333204Y-119037970D01*
X176022000Y-119007319D01*
X176022000Y-107803740D01*
X183935000Y-107803740D01*
X183935000Y-108096260D01*
X183992068Y-108383158D01*
X184104010Y-108653411D01*
X184266525Y-108896632D01*
X184473368Y-109103475D01*
X184647760Y-109220000D01*
X184473368Y-109336525D01*
X184266525Y-109543368D01*
X184104010Y-109786589D01*
X183992068Y-110056842D01*
X183935000Y-110343740D01*
X183935000Y-110636260D01*
X183992068Y-110923158D01*
X184104010Y-111193411D01*
X184266525Y-111436632D01*
X184473368Y-111643475D01*
X184647760Y-111760000D01*
X184473368Y-111876525D01*
X184266525Y-112083368D01*
X184104010Y-112326589D01*
X183992068Y-112596842D01*
X183935000Y-112883740D01*
X183935000Y-113176260D01*
X183992068Y-113463158D01*
X184104010Y-113733411D01*
X184266525Y-113976632D01*
X184473368Y-114183475D01*
X184716589Y-114345990D01*
X184986842Y-114457932D01*
X185273740Y-114515000D01*
X185566260Y-114515000D01*
X185853158Y-114457932D01*
X186123411Y-114345990D01*
X186366632Y-114183475D01*
X186573475Y-113976632D01*
X186735990Y-113733411D01*
X186847932Y-113463158D01*
X186905000Y-113176260D01*
X186905000Y-112883740D01*
X186847932Y-112596842D01*
X186735990Y-112326589D01*
X186573475Y-112083368D01*
X186366632Y-111876525D01*
X186192240Y-111760000D01*
X186366632Y-111643475D01*
X186573475Y-111436632D01*
X186735990Y-111193411D01*
X186847932Y-110923158D01*
X186905000Y-110636260D01*
X186905000Y-110343740D01*
X186847932Y-110056842D01*
X186735990Y-109786589D01*
X186573475Y-109543368D01*
X186366632Y-109336525D01*
X186192240Y-109220000D01*
X186366632Y-109103475D01*
X186573475Y-108896632D01*
X186735990Y-108653411D01*
X186847932Y-108383158D01*
X186905000Y-108096260D01*
X186905000Y-107803740D01*
X186847932Y-107516842D01*
X186735990Y-107246589D01*
X186573475Y-107003368D01*
X186366632Y-106796525D01*
X186123411Y-106634010D01*
X186121905Y-106633386D01*
X186166012Y-106515222D01*
X185420000Y-105769210D01*
X184673988Y-106515222D01*
X184718095Y-106633386D01*
X184716589Y-106634010D01*
X184473368Y-106796525D01*
X184266525Y-107003368D01*
X184104010Y-107246589D01*
X183992068Y-107516842D01*
X183935000Y-107803740D01*
X176022000Y-107803740D01*
X176022000Y-105313722D01*
X183930925Y-105313722D01*
X183940755Y-105606076D01*
X184007430Y-105890895D01*
X184081118Y-106068794D01*
X184314778Y-106156012D01*
X185060790Y-105410000D01*
X185779210Y-105410000D01*
X186525222Y-106156012D01*
X186758882Y-106068794D01*
X186861680Y-105794933D01*
X186909075Y-105506278D01*
X186902601Y-105313722D01*
X194090925Y-105313722D01*
X194100755Y-105606076D01*
X194167430Y-105890895D01*
X194241118Y-106068794D01*
X194474778Y-106156012D01*
X195220790Y-105410000D01*
X195939210Y-105410000D01*
X196685222Y-106156012D01*
X196918882Y-106068794D01*
X197021680Y-105794933D01*
X197069075Y-105506278D01*
X197059245Y-105213924D01*
X196992570Y-104929105D01*
X196918882Y-104751206D01*
X196685222Y-104663988D01*
X195939210Y-105410000D01*
X195220790Y-105410000D01*
X194474778Y-104663988D01*
X194241118Y-104751206D01*
X194138320Y-105025067D01*
X194090925Y-105313722D01*
X186902601Y-105313722D01*
X186899245Y-105213924D01*
X186832570Y-104929105D01*
X186758882Y-104751206D01*
X186525222Y-104663988D01*
X185779210Y-105410000D01*
X185060790Y-105410000D01*
X184314778Y-104663988D01*
X184081118Y-104751206D01*
X183978320Y-105025067D01*
X183930925Y-105313722D01*
X176022000Y-105313722D01*
X176022000Y-100183740D01*
X183935000Y-100183740D01*
X183935000Y-100476260D01*
X183992068Y-100763158D01*
X184104010Y-101033411D01*
X184266525Y-101276632D01*
X184473368Y-101483475D01*
X184647760Y-101600000D01*
X184473368Y-101716525D01*
X184266525Y-101923368D01*
X184104010Y-102166589D01*
X183992068Y-102436842D01*
X183935000Y-102723740D01*
X183935000Y-103016260D01*
X183992068Y-103303158D01*
X184104010Y-103573411D01*
X184266525Y-103816632D01*
X184473368Y-104023475D01*
X184716589Y-104185990D01*
X184718095Y-104186614D01*
X184673988Y-104304778D01*
X185420000Y-105050790D01*
X186166012Y-104304778D01*
X186121905Y-104186614D01*
X186123411Y-104185990D01*
X186366632Y-104023475D01*
X186573475Y-103816632D01*
X186735990Y-103573411D01*
X186847932Y-103303158D01*
X186905000Y-103016260D01*
X186905000Y-102723740D01*
X186847932Y-102436842D01*
X186735990Y-102166589D01*
X186573475Y-101923368D01*
X186366632Y-101716525D01*
X186192240Y-101600000D01*
X186366632Y-101483475D01*
X186573475Y-101276632D01*
X186735990Y-101033411D01*
X186847932Y-100763158D01*
X186905000Y-100476260D01*
X186905000Y-100183740D01*
X194095000Y-100183740D01*
X194095000Y-100476260D01*
X194152068Y-100763158D01*
X194264010Y-101033411D01*
X194426525Y-101276632D01*
X194633368Y-101483475D01*
X194807760Y-101600000D01*
X194633368Y-101716525D01*
X194426525Y-101923368D01*
X194264010Y-102166589D01*
X194152068Y-102436842D01*
X194095000Y-102723740D01*
X194095000Y-103016260D01*
X194152068Y-103303158D01*
X194264010Y-103573411D01*
X194426525Y-103816632D01*
X194633368Y-104023475D01*
X194876589Y-104185990D01*
X194878095Y-104186614D01*
X194833988Y-104304778D01*
X195580000Y-105050790D01*
X196326012Y-104304778D01*
X196281905Y-104186614D01*
X196283411Y-104185990D01*
X196526632Y-104023475D01*
X196733475Y-103816632D01*
X196814413Y-103695500D01*
X206382506Y-103695500D01*
X206519744Y-103787199D01*
X206708102Y-103865220D01*
X206908061Y-103904994D01*
X207111939Y-103904994D01*
X207311898Y-103865220D01*
X207500256Y-103787199D01*
X207669774Y-103673931D01*
X207813937Y-103529768D01*
X207927205Y-103360250D01*
X208005226Y-103171892D01*
X208045000Y-102971933D01*
X208045000Y-102768055D01*
X208005226Y-102568096D01*
X207927205Y-102379738D01*
X207813937Y-102210220D01*
X207669774Y-102066057D01*
X207500256Y-101952789D01*
X207311898Y-101874768D01*
X207111939Y-101834994D01*
X206908061Y-101834994D01*
X206708102Y-101874768D01*
X206519744Y-101952789D01*
X206382488Y-102044500D01*
X196814413Y-102044500D01*
X196733475Y-101923368D01*
X196526632Y-101716525D01*
X196352240Y-101600000D01*
X196504802Y-101498061D01*
X211690000Y-101498061D01*
X211690000Y-101701939D01*
X211729774Y-101901898D01*
X211807795Y-102090256D01*
X211921063Y-102259774D01*
X212065226Y-102403937D01*
X212234744Y-102517205D01*
X212423102Y-102595226D01*
X212623061Y-102635000D01*
X212826939Y-102635000D01*
X213026898Y-102595226D01*
X213215256Y-102517205D01*
X213384774Y-102403937D01*
X213528937Y-102259774D01*
X213642205Y-102090256D01*
X213720226Y-101901898D01*
X213752428Y-101740004D01*
X214550039Y-100942394D01*
X214581541Y-100916541D01*
X214660560Y-100820256D01*
X214684699Y-100790843D01*
X214711399Y-100740889D01*
X214761353Y-100647434D01*
X214808556Y-100491826D01*
X214820500Y-100370553D01*
X214820500Y-100370551D01*
X214824494Y-100330001D01*
X214820500Y-100289450D01*
X214820500Y-96836344D01*
X214859606Y-96875450D01*
X215053692Y-97005134D01*
X215269348Y-97094461D01*
X215498288Y-97140000D01*
X215731712Y-97140000D01*
X215960652Y-97094461D01*
X216176308Y-97005134D01*
X216370394Y-96875450D01*
X216535450Y-96710394D01*
X216665134Y-96516308D01*
X216754461Y-96300652D01*
X216800000Y-96071712D01*
X216800000Y-95838288D01*
X216754461Y-95609348D01*
X216665134Y-95393692D01*
X216535450Y-95199606D01*
X216370394Y-95034550D01*
X216176308Y-94904866D01*
X215960652Y-94815539D01*
X215731712Y-94770000D01*
X215498288Y-94770000D01*
X215442245Y-94781148D01*
X215443556Y-94776826D01*
X215455500Y-94655553D01*
X215455500Y-94655551D01*
X215459494Y-94615000D01*
X215458337Y-94603256D01*
X215547205Y-94470256D01*
X215625226Y-94281898D01*
X215665000Y-94081939D01*
X215665000Y-93878061D01*
X215625226Y-93678102D01*
X215547205Y-93489744D01*
X215433937Y-93320226D01*
X215289774Y-93176063D01*
X215120256Y-93062795D01*
X214931898Y-92984774D01*
X214731939Y-92945000D01*
X214528061Y-92945000D01*
X214328102Y-92984774D01*
X214139744Y-93062795D01*
X213970226Y-93176063D01*
X213826063Y-93320226D01*
X213712795Y-93489744D01*
X213634774Y-93678102D01*
X213595000Y-93878061D01*
X213595000Y-94081939D01*
X213634774Y-94281898D01*
X213681899Y-94395668D01*
X213439965Y-94637603D01*
X213408459Y-94663459D01*
X213339214Y-94747835D01*
X213305301Y-94789158D01*
X213243454Y-94904866D01*
X213228647Y-94932567D01*
X213181444Y-95088175D01*
X213170279Y-95201541D01*
X213165506Y-95250000D01*
X213169500Y-95290551D01*
X213169501Y-99988066D01*
X212584996Y-100572572D01*
X212423102Y-100604774D01*
X212234744Y-100682795D01*
X212065226Y-100796063D01*
X211921063Y-100940226D01*
X211807795Y-101109744D01*
X211729774Y-101298102D01*
X211690000Y-101498061D01*
X196504802Y-101498061D01*
X196526632Y-101483475D01*
X196733475Y-101276632D01*
X196814413Y-101155500D01*
X206382497Y-101155500D01*
X206519744Y-101247205D01*
X206708102Y-101325226D01*
X206908061Y-101365000D01*
X207111939Y-101365000D01*
X207311898Y-101325226D01*
X207500256Y-101247205D01*
X207669774Y-101133937D01*
X207813937Y-100989774D01*
X207927205Y-100820256D01*
X208005226Y-100631898D01*
X208045000Y-100431939D01*
X208045000Y-100228061D01*
X208005226Y-100028102D01*
X207927205Y-99839744D01*
X207813937Y-99670226D01*
X207669774Y-99526063D01*
X207500256Y-99412795D01*
X207311898Y-99334774D01*
X207111939Y-99295000D01*
X206908061Y-99295000D01*
X206708102Y-99334774D01*
X206519744Y-99412795D01*
X206382497Y-99504500D01*
X196814413Y-99504500D01*
X196733475Y-99383368D01*
X196526632Y-99176525D01*
X196283411Y-99014010D01*
X196013158Y-98902068D01*
X195726260Y-98845000D01*
X195433740Y-98845000D01*
X195146842Y-98902068D01*
X194876589Y-99014010D01*
X194633368Y-99176525D01*
X194426525Y-99383368D01*
X194264010Y-99626589D01*
X194152068Y-99896842D01*
X194095000Y-100183740D01*
X186905000Y-100183740D01*
X186847932Y-99896842D01*
X186735990Y-99626589D01*
X186573475Y-99383368D01*
X186366632Y-99176525D01*
X186123411Y-99014010D01*
X185853158Y-98902068D01*
X185566260Y-98845000D01*
X185273740Y-98845000D01*
X184986842Y-98902068D01*
X184716589Y-99014010D01*
X184473368Y-99176525D01*
X184266525Y-99383368D01*
X184104010Y-99626589D01*
X183992068Y-99896842D01*
X183935000Y-100183740D01*
X176022000Y-100183740D01*
X176022000Y-98477606D01*
X179757606Y-94742000D01*
X195580000Y-94742000D01*
X195604776Y-94739560D01*
X195628601Y-94732333D01*
X195650557Y-94720597D01*
X195669803Y-94704803D01*
X195685597Y-94685557D01*
X195697333Y-94663601D01*
X195704560Y-94639776D01*
X195707000Y-94615000D01*
X195707000Y-85160000D01*
X199329928Y-85160000D01*
X199329928Y-87560000D01*
X199342188Y-87684482D01*
X199378498Y-87804180D01*
X199437463Y-87914494D01*
X199516815Y-88011185D01*
X199613506Y-88090537D01*
X199723820Y-88149502D01*
X199843518Y-88185812D01*
X199968000Y-88198072D01*
X202368000Y-88198072D01*
X202492482Y-88185812D01*
X202612180Y-88149502D01*
X202722494Y-88090537D01*
X202819185Y-88011185D01*
X202898537Y-87914494D01*
X202957502Y-87804180D01*
X202993812Y-87684482D01*
X203006072Y-87560000D01*
X203006072Y-85160000D01*
X202993812Y-85035518D01*
X202957502Y-84915820D01*
X202898537Y-84805506D01*
X202819185Y-84708815D01*
X202722494Y-84629463D01*
X202612180Y-84570498D01*
X202492482Y-84534188D01*
X202368000Y-84521928D01*
X199968000Y-84521928D01*
X199843518Y-84534188D01*
X199723820Y-84570498D01*
X199613506Y-84629463D01*
X199516815Y-84708815D01*
X199437463Y-84805506D01*
X199378498Y-84915820D01*
X199342188Y-85035518D01*
X199329928Y-85160000D01*
X195707000Y-85160000D01*
X195707000Y-81241000D01*
X195834002Y-81241000D01*
X195834002Y-81057701D01*
X196059755Y-81161368D01*
X196234514Y-81088990D01*
X196481991Y-80935688D01*
X196656910Y-80772421D01*
X196680498Y-80850180D01*
X196739463Y-80960494D01*
X196818815Y-81057185D01*
X196915506Y-81136537D01*
X197025820Y-81195502D01*
X197145518Y-81231812D01*
X197270000Y-81244072D01*
X198970000Y-81244072D01*
X199094482Y-81231812D01*
X199214180Y-81195502D01*
X199324494Y-81136537D01*
X199421185Y-81057185D01*
X199500537Y-80960494D01*
X199559502Y-80850180D01*
X199595812Y-80730482D01*
X199608072Y-80606000D01*
X199608072Y-78906000D01*
X199595812Y-78781518D01*
X199559502Y-78661820D01*
X199500537Y-78551506D01*
X199421185Y-78454815D01*
X199324494Y-78375463D01*
X199214180Y-78316498D01*
X199094482Y-78280188D01*
X198970000Y-78267928D01*
X197270000Y-78267928D01*
X197145518Y-78280188D01*
X197025820Y-78316498D01*
X196915506Y-78375463D01*
X196818815Y-78454815D01*
X196739463Y-78551506D01*
X196680498Y-78661820D01*
X196656910Y-78739579D01*
X196481991Y-78576312D01*
X196234514Y-78423010D01*
X196059755Y-78350632D01*
X195834002Y-78454299D01*
X195834002Y-78271000D01*
X195707000Y-78271000D01*
X195707000Y-74813665D01*
X214180000Y-74813665D01*
X214180000Y-75096335D01*
X214235147Y-75373574D01*
X214343320Y-75634727D01*
X214500363Y-75869759D01*
X214700241Y-76069637D01*
X214935273Y-76226680D01*
X215196426Y-76334853D01*
X215473665Y-76390000D01*
X215756335Y-76390000D01*
X216033574Y-76334853D01*
X216294727Y-76226680D01*
X216529759Y-76069637D01*
X216729637Y-75869759D01*
X216886680Y-75634727D01*
X216994853Y-75373574D01*
X217050000Y-75096335D01*
X217050000Y-74813665D01*
X216994853Y-74536426D01*
X216886680Y-74275273D01*
X216729637Y-74040241D01*
X216529759Y-73840363D01*
X216294727Y-73683320D01*
X216033574Y-73575147D01*
X215756335Y-73520000D01*
X215473665Y-73520000D01*
X215196426Y-73575147D01*
X214935273Y-73683320D01*
X214700241Y-73840363D01*
X214500363Y-74040241D01*
X214343320Y-74275273D01*
X214235147Y-74536426D01*
X214180000Y-74813665D01*
X195707000Y-74813665D01*
X195707000Y-70332575D01*
X195709766Y-70334845D01*
X195985552Y-70482255D01*
X196284797Y-70573030D01*
X196596000Y-70603681D01*
X196907204Y-70573030D01*
X197206449Y-70482255D01*
X197482235Y-70334845D01*
X197723963Y-70136463D01*
X197866000Y-69963391D01*
X198008037Y-70136463D01*
X198249766Y-70334845D01*
X198525552Y-70482255D01*
X198824797Y-70573030D01*
X199136000Y-70603681D01*
X199447204Y-70573030D01*
X199746449Y-70482255D01*
X200022235Y-70334845D01*
X200263963Y-70136463D01*
X200462345Y-69894734D01*
X200609755Y-69618948D01*
X200700530Y-69319703D01*
X200723500Y-69086485D01*
X200723500Y-68835514D01*
X200700530Y-68602296D01*
X200609755Y-68303051D01*
X200462345Y-68027265D01*
X200263963Y-67785537D01*
X200022234Y-67587155D01*
X199746448Y-67439745D01*
X199447203Y-67348970D01*
X199136000Y-67318319D01*
X198824796Y-67348970D01*
X198525551Y-67439745D01*
X198249765Y-67587155D01*
X198008037Y-67785537D01*
X197866000Y-67958609D01*
X197723963Y-67785537D01*
X197482234Y-67587155D01*
X197206448Y-67439745D01*
X196907203Y-67348970D01*
X196596000Y-67318319D01*
X196284796Y-67348970D01*
X195985551Y-67439745D01*
X195709765Y-67587155D01*
X195707000Y-67589424D01*
X195707000Y-64262000D01*
X238100001Y-64262000D01*
X238100000Y-128880000D01*
G37*
%TD.AperFunction*%
D27*
X195834000Y-79502000D02*
X195854000Y-79502000D01*
X195854000Y-80010000D01*
X195834000Y-80010000D01*
X195834000Y-80030000D01*
X195707000Y-80030000D01*
X195707000Y-79482000D01*
X195834000Y-79482000D01*
X195834000Y-79502000D01*
%TA.AperFunction,Conductor*%
D28*
G36*
X195834000Y-79502000D02*
G01*
X195854000Y-79502000D01*
X195854000Y-80010000D01*
X195834000Y-80010000D01*
X195834000Y-80030000D01*
X195707000Y-80030000D01*
X195707000Y-79482000D01*
X195834000Y-79482000D01*
X195834000Y-79502000D01*
G37*
%TD.AperFunction*%
%TD*%
D27*
%TO.N,GND*%
X197993000Y-67803860D02*
X197866000Y-67958609D01*
X197723963Y-67785537D01*
X197482234Y-67587155D01*
X197206448Y-67439745D01*
X196907203Y-67348970D01*
X196596000Y-67318319D01*
X196284796Y-67348970D01*
X195985551Y-67439745D01*
X195709765Y-67587155D01*
X195583905Y-67690446D01*
X195539037Y-67606506D01*
X195459685Y-67509815D01*
X195362994Y-67430463D01*
X195252680Y-67371498D01*
X195132982Y-67335188D01*
X195008500Y-67322928D01*
X194468750Y-67326000D01*
X194310000Y-67484750D01*
X194310000Y-68707000D01*
X194330000Y-68707000D01*
X194330000Y-69215000D01*
X194310000Y-69215000D01*
X194310000Y-70437250D01*
X194468750Y-70596000D01*
X195008500Y-70599072D01*
X195132982Y-70586812D01*
X195252680Y-70550502D01*
X195362994Y-70491537D01*
X195459685Y-70412185D01*
X195539037Y-70315494D01*
X195583905Y-70231553D01*
X195709766Y-70334845D01*
X195985552Y-70482255D01*
X196284797Y-70573030D01*
X196596000Y-70603681D01*
X196907204Y-70573030D01*
X197206449Y-70482255D01*
X197482235Y-70334845D01*
X197723963Y-70136463D01*
X197866000Y-69963391D01*
X197993000Y-70118140D01*
X197993000Y-78267928D01*
X197270000Y-78267928D01*
X197145518Y-78280188D01*
X197025820Y-78316498D01*
X196915506Y-78375463D01*
X196818815Y-78454815D01*
X196739463Y-78551506D01*
X196680498Y-78661820D01*
X196656910Y-78739579D01*
X196481991Y-78576312D01*
X196234514Y-78423010D01*
X196059755Y-78350632D01*
X195834000Y-78454300D01*
X195834000Y-79502000D01*
X195854000Y-79502000D01*
X195854000Y-80010000D01*
X195834000Y-80010000D01*
X195834000Y-81057700D01*
X196059755Y-81161368D01*
X196234514Y-81088990D01*
X196481991Y-80935688D01*
X196656910Y-80772421D01*
X196680498Y-80850180D01*
X196739463Y-80960494D01*
X196818815Y-81057185D01*
X196915506Y-81136537D01*
X197025820Y-81195502D01*
X197145518Y-81231812D01*
X197270000Y-81244072D01*
X197993000Y-81244072D01*
X197993000Y-93218000D01*
X179832000Y-93218000D01*
X179832000Y-86179268D01*
X189173000Y-86179268D01*
X189173000Y-86540732D01*
X189243518Y-86895250D01*
X189381844Y-87229199D01*
X189582662Y-87529744D01*
X189838256Y-87785338D01*
X190138801Y-87986156D01*
X190472750Y-88124482D01*
X190827268Y-88195000D01*
X191188732Y-88195000D01*
X191543250Y-88124482D01*
X191877199Y-87986156D01*
X192177744Y-87785338D01*
X192433338Y-87529744D01*
X192634156Y-87229199D01*
X192772482Y-86895250D01*
X192843000Y-86540732D01*
X192843000Y-86179268D01*
X192772482Y-85824750D01*
X192634156Y-85490801D01*
X192433338Y-85190256D01*
X192177744Y-84934662D01*
X192024000Y-84831933D01*
X192024000Y-82301057D01*
X192099383Y-82119067D01*
X192143000Y-81899788D01*
X192143000Y-81676212D01*
X192099383Y-81456933D01*
X192013824Y-81250376D01*
X191889612Y-81064480D01*
X191731520Y-80906388D01*
X191545624Y-80782176D01*
X191339067Y-80696617D01*
X191119788Y-80653000D01*
X190896212Y-80653000D01*
X190676933Y-80696617D01*
X190470376Y-80782176D01*
X190284480Y-80906388D01*
X190126388Y-81064480D01*
X190002176Y-81250376D01*
X189916617Y-81456933D01*
X189873000Y-81676212D01*
X189873000Y-81899788D01*
X189916617Y-82119067D01*
X189992001Y-82301059D01*
X189992000Y-84831933D01*
X189838256Y-84934662D01*
X189582662Y-85190256D01*
X189381844Y-85490801D01*
X189243518Y-85824750D01*
X189173000Y-86179268D01*
X179832000Y-86179268D01*
X179832000Y-80235756D01*
X194174622Y-80235756D01*
X194295222Y-80500713D01*
X194465195Y-80737051D01*
X194678009Y-80935688D01*
X194925486Y-81088990D01*
X195100245Y-81161368D01*
X195326000Y-81057700D01*
X195326000Y-80010000D01*
X194275624Y-80010000D01*
X194174622Y-80235756D01*
X179832000Y-80235756D01*
X179832000Y-79276244D01*
X194174622Y-79276244D01*
X194275624Y-79502000D01*
X195326000Y-79502000D01*
X195326000Y-78454300D01*
X195100245Y-78350632D01*
X194925486Y-78423010D01*
X194678009Y-78576312D01*
X194465195Y-78774949D01*
X194295222Y-79011287D01*
X194174622Y-79276244D01*
X179832000Y-79276244D01*
X179832000Y-74338250D01*
X179956235Y-74271845D01*
X180197963Y-74073463D01*
X180396345Y-73831734D01*
X180543755Y-73555948D01*
X180634530Y-73256703D01*
X180657500Y-73023485D01*
X180657500Y-72772514D01*
X180634530Y-72539296D01*
X180543755Y-72240051D01*
X180396345Y-71964265D01*
X180197963Y-71722537D01*
X179956234Y-71524155D01*
X179832000Y-71457751D01*
X179832000Y-69961000D01*
X192465428Y-69961000D01*
X192477688Y-70085482D01*
X192513998Y-70205180D01*
X192572963Y-70315494D01*
X192652315Y-70412185D01*
X192749006Y-70491537D01*
X192859320Y-70550502D01*
X192979018Y-70586812D01*
X193103500Y-70599072D01*
X193643250Y-70596000D01*
X193802000Y-70437250D01*
X193802000Y-69215000D01*
X192627250Y-69215000D01*
X192468500Y-69373750D01*
X192465428Y-69961000D01*
X179832000Y-69961000D01*
X179832000Y-67961000D01*
X192465428Y-67961000D01*
X192468500Y-68548250D01*
X192627250Y-68707000D01*
X193802000Y-68707000D01*
X193802000Y-67484750D01*
X193643250Y-67326000D01*
X193103500Y-67322928D01*
X192979018Y-67335188D01*
X192859320Y-67371498D01*
X192749006Y-67430463D01*
X192652315Y-67509815D01*
X192572963Y-67606506D01*
X192513998Y-67716820D01*
X192477688Y-67836518D01*
X192465428Y-67961000D01*
X179832000Y-67961000D01*
X179832000Y-64262000D01*
X197993000Y-64262000D01*
X197993000Y-67803860D01*
%TA.AperFunction,Conductor*%
D28*
G36*
X197993000Y-67803860D02*
G01*
X197866000Y-67958609D01*
X197723963Y-67785537D01*
X197482234Y-67587155D01*
X197206448Y-67439745D01*
X196907203Y-67348970D01*
X196596000Y-67318319D01*
X196284796Y-67348970D01*
X195985551Y-67439745D01*
X195709765Y-67587155D01*
X195583905Y-67690446D01*
X195539037Y-67606506D01*
X195459685Y-67509815D01*
X195362994Y-67430463D01*
X195252680Y-67371498D01*
X195132982Y-67335188D01*
X195008500Y-67322928D01*
X194468750Y-67326000D01*
X194310000Y-67484750D01*
X194310000Y-68707000D01*
X194330000Y-68707000D01*
X194330000Y-69215000D01*
X194310000Y-69215000D01*
X194310000Y-70437250D01*
X194468750Y-70596000D01*
X195008500Y-70599072D01*
X195132982Y-70586812D01*
X195252680Y-70550502D01*
X195362994Y-70491537D01*
X195459685Y-70412185D01*
X195539037Y-70315494D01*
X195583905Y-70231553D01*
X195709766Y-70334845D01*
X195985552Y-70482255D01*
X196284797Y-70573030D01*
X196596000Y-70603681D01*
X196907204Y-70573030D01*
X197206449Y-70482255D01*
X197482235Y-70334845D01*
X197723963Y-70136463D01*
X197866000Y-69963391D01*
X197993000Y-70118140D01*
X197993000Y-78267928D01*
X197270000Y-78267928D01*
X197145518Y-78280188D01*
X197025820Y-78316498D01*
X196915506Y-78375463D01*
X196818815Y-78454815D01*
X196739463Y-78551506D01*
X196680498Y-78661820D01*
X196656910Y-78739579D01*
X196481991Y-78576312D01*
X196234514Y-78423010D01*
X196059755Y-78350632D01*
X195834000Y-78454300D01*
X195834000Y-79502000D01*
X195854000Y-79502000D01*
X195854000Y-80010000D01*
X195834000Y-80010000D01*
X195834000Y-81057700D01*
X196059755Y-81161368D01*
X196234514Y-81088990D01*
X196481991Y-80935688D01*
X196656910Y-80772421D01*
X196680498Y-80850180D01*
X196739463Y-80960494D01*
X196818815Y-81057185D01*
X196915506Y-81136537D01*
X197025820Y-81195502D01*
X197145518Y-81231812D01*
X197270000Y-81244072D01*
X197993000Y-81244072D01*
X197993000Y-93218000D01*
X179832000Y-93218000D01*
X179832000Y-86179268D01*
X189173000Y-86179268D01*
X189173000Y-86540732D01*
X189243518Y-86895250D01*
X189381844Y-87229199D01*
X189582662Y-87529744D01*
X189838256Y-87785338D01*
X190138801Y-87986156D01*
X190472750Y-88124482D01*
X190827268Y-88195000D01*
X191188732Y-88195000D01*
X191543250Y-88124482D01*
X191877199Y-87986156D01*
X192177744Y-87785338D01*
X192433338Y-87529744D01*
X192634156Y-87229199D01*
X192772482Y-86895250D01*
X192843000Y-86540732D01*
X192843000Y-86179268D01*
X192772482Y-85824750D01*
X192634156Y-85490801D01*
X192433338Y-85190256D01*
X192177744Y-84934662D01*
X192024000Y-84831933D01*
X192024000Y-82301057D01*
X192099383Y-82119067D01*
X192143000Y-81899788D01*
X192143000Y-81676212D01*
X192099383Y-81456933D01*
X192013824Y-81250376D01*
X191889612Y-81064480D01*
X191731520Y-80906388D01*
X191545624Y-80782176D01*
X191339067Y-80696617D01*
X191119788Y-80653000D01*
X190896212Y-80653000D01*
X190676933Y-80696617D01*
X190470376Y-80782176D01*
X190284480Y-80906388D01*
X190126388Y-81064480D01*
X190002176Y-81250376D01*
X189916617Y-81456933D01*
X189873000Y-81676212D01*
X189873000Y-81899788D01*
X189916617Y-82119067D01*
X189992001Y-82301059D01*
X189992000Y-84831933D01*
X189838256Y-84934662D01*
X189582662Y-85190256D01*
X189381844Y-85490801D01*
X189243518Y-85824750D01*
X189173000Y-86179268D01*
X179832000Y-86179268D01*
X179832000Y-80235756D01*
X194174622Y-80235756D01*
X194295222Y-80500713D01*
X194465195Y-80737051D01*
X194678009Y-80935688D01*
X194925486Y-81088990D01*
X195100245Y-81161368D01*
X195326000Y-81057700D01*
X195326000Y-80010000D01*
X194275624Y-80010000D01*
X194174622Y-80235756D01*
X179832000Y-80235756D01*
X179832000Y-79276244D01*
X194174622Y-79276244D01*
X194275624Y-79502000D01*
X195326000Y-79502000D01*
X195326000Y-78454300D01*
X195100245Y-78350632D01*
X194925486Y-78423010D01*
X194678009Y-78576312D01*
X194465195Y-78774949D01*
X194295222Y-79011287D01*
X194174622Y-79276244D01*
X179832000Y-79276244D01*
X179832000Y-74338250D01*
X179956235Y-74271845D01*
X180197963Y-74073463D01*
X180396345Y-73831734D01*
X180543755Y-73555948D01*
X180634530Y-73256703D01*
X180657500Y-73023485D01*
X180657500Y-72772514D01*
X180634530Y-72539296D01*
X180543755Y-72240051D01*
X180396345Y-71964265D01*
X180197963Y-71722537D01*
X179956234Y-71524155D01*
X179832000Y-71457751D01*
X179832000Y-69961000D01*
X192465428Y-69961000D01*
X192477688Y-70085482D01*
X192513998Y-70205180D01*
X192572963Y-70315494D01*
X192652315Y-70412185D01*
X192749006Y-70491537D01*
X192859320Y-70550502D01*
X192979018Y-70586812D01*
X193103500Y-70599072D01*
X193643250Y-70596000D01*
X193802000Y-70437250D01*
X193802000Y-69215000D01*
X192627250Y-69215000D01*
X192468500Y-69373750D01*
X192465428Y-69961000D01*
X179832000Y-69961000D01*
X179832000Y-67961000D01*
X192465428Y-67961000D01*
X192468500Y-68548250D01*
X192627250Y-68707000D01*
X193802000Y-68707000D01*
X193802000Y-67484750D01*
X193643250Y-67326000D01*
X193103500Y-67322928D01*
X192979018Y-67335188D01*
X192859320Y-67371498D01*
X192749006Y-67430463D01*
X192652315Y-67509815D01*
X192572963Y-67606506D01*
X192513998Y-67716820D01*
X192477688Y-67836518D01*
X192465428Y-67961000D01*
X179832000Y-67961000D01*
X179832000Y-64262000D01*
X197993000Y-64262000D01*
X197993000Y-67803860D01*
G37*
%TD.AperFunction*%
%TD*%
D27*
%TO.N,GND*%
X177038000Y-116078000D02*
X174117000Y-116078000D01*
X174117000Y-112092371D01*
X174155000Y-111901335D01*
X174155000Y-111618665D01*
X174117000Y-111427629D01*
X174117000Y-109552371D01*
X174155000Y-109361335D01*
X174155000Y-109078665D01*
X174117000Y-108887629D01*
X174117000Y-107012371D01*
X174155000Y-106821335D01*
X174155000Y-106538665D01*
X174117000Y-106347629D01*
X174117000Y-104472371D01*
X174155000Y-104281335D01*
X174155000Y-103998665D01*
X174117000Y-103807629D01*
X174117000Y-101092000D01*
X177038000Y-101092000D01*
X177038000Y-116078000D01*
%TA.AperFunction,Conductor*%
D28*
G36*
X177038000Y-116078000D02*
G01*
X174117000Y-116078000D01*
X174117000Y-112092371D01*
X174155000Y-111901335D01*
X174155000Y-111618665D01*
X174117000Y-111427629D01*
X174117000Y-109552371D01*
X174155000Y-109361335D01*
X174155000Y-109078665D01*
X174117000Y-108887629D01*
X174117000Y-107012371D01*
X174155000Y-106821335D01*
X174155000Y-106538665D01*
X174117000Y-106347629D01*
X174117000Y-104472371D01*
X174155000Y-104281335D01*
X174155000Y-103998665D01*
X174117000Y-103807629D01*
X174117000Y-101092000D01*
X177038000Y-101092000D01*
X177038000Y-116078000D01*
G37*
%TD.AperFunction*%
%TD*%
M02*
