%TF.GenerationSoftware,KiCad,Pcbnew,(5.1.10)-1*%
%TF.CreationDate,2021-10-18T08:36:09-04:00*%
%TF.ProjectId,BattTester,42617474-5465-4737-9465-722e6b696361,rev?*%
%TF.SameCoordinates,Original*%
%TF.FileFunction,Legend,Top*%
%TF.FilePolarity,Positive*%
%FSLAX46Y46*%
G04 Gerber Fmt 4.6, Leading zero omitted, Abs format (unit mm)*
G04 Created by KiCad (PCBNEW (5.1.10)-1) date 2021-10-18 08:36:09*
%MOMM*%
%LPD*%
G01*
G04 APERTURE LIST*
%ADD10C,0.150000*%
%ADD11C,0.120000*%
G04 APERTURE END LIST*
D10*
X159719047Y-121007142D02*
X159671428Y-121054761D01*
X159528571Y-121102380D01*
X159433333Y-121102380D01*
X159290476Y-121054761D01*
X159195238Y-120959523D01*
X159147619Y-120864285D01*
X159100000Y-120673809D01*
X159100000Y-120530952D01*
X159147619Y-120340476D01*
X159195238Y-120245238D01*
X159290476Y-120150000D01*
X159433333Y-120102380D01*
X159528571Y-120102380D01*
X159671428Y-120150000D01*
X159719047Y-120197619D01*
X160147619Y-120102380D02*
X160147619Y-120911904D01*
X160195238Y-121007142D01*
X160242857Y-121054761D01*
X160338095Y-121102380D01*
X160528571Y-121102380D01*
X160623809Y-121054761D01*
X160671428Y-121007142D01*
X160719047Y-120911904D01*
X160719047Y-120102380D01*
X161766666Y-121102380D02*
X161433333Y-120626190D01*
X161195238Y-121102380D02*
X161195238Y-120102380D01*
X161576190Y-120102380D01*
X161671428Y-120150000D01*
X161719047Y-120197619D01*
X161766666Y-120292857D01*
X161766666Y-120435714D01*
X161719047Y-120530952D01*
X161671428Y-120578571D01*
X161576190Y-120626190D01*
X161195238Y-120626190D01*
X162766666Y-121102380D02*
X162433333Y-120626190D01*
X162195238Y-121102380D02*
X162195238Y-120102380D01*
X162576190Y-120102380D01*
X162671428Y-120150000D01*
X162719047Y-120197619D01*
X162766666Y-120292857D01*
X162766666Y-120435714D01*
X162719047Y-120530952D01*
X162671428Y-120578571D01*
X162576190Y-120626190D01*
X162195238Y-120626190D01*
X163195238Y-120578571D02*
X163528571Y-120578571D01*
X163671428Y-121102380D02*
X163195238Y-121102380D01*
X163195238Y-120102380D01*
X163671428Y-120102380D01*
X164100000Y-121102380D02*
X164100000Y-120102380D01*
X164671428Y-121102380D01*
X164671428Y-120102380D01*
X165004761Y-120102380D02*
X165576190Y-120102380D01*
X165290476Y-121102380D02*
X165290476Y-120102380D01*
X166623809Y-121054761D02*
X166766666Y-121102380D01*
X167004761Y-121102380D01*
X167100000Y-121054761D01*
X167147619Y-121007142D01*
X167195238Y-120911904D01*
X167195238Y-120816666D01*
X167147619Y-120721428D01*
X167100000Y-120673809D01*
X167004761Y-120626190D01*
X166814285Y-120578571D01*
X166719047Y-120530952D01*
X166671428Y-120483333D01*
X166623809Y-120388095D01*
X166623809Y-120292857D01*
X166671428Y-120197619D01*
X166719047Y-120150000D01*
X166814285Y-120102380D01*
X167052380Y-120102380D01*
X167195238Y-120150000D01*
X167623809Y-121102380D02*
X167623809Y-120102380D01*
X167623809Y-120578571D02*
X168195238Y-120578571D01*
X168195238Y-121102380D02*
X168195238Y-120102380D01*
X168671428Y-120102380D02*
X168671428Y-120911904D01*
X168719047Y-121007142D01*
X168766666Y-121054761D01*
X168861904Y-121102380D01*
X169052380Y-121102380D01*
X169147619Y-121054761D01*
X169195238Y-121007142D01*
X169242857Y-120911904D01*
X169242857Y-120102380D01*
X169719047Y-121102380D02*
X169719047Y-120102380D01*
X170290476Y-121102380D01*
X170290476Y-120102380D01*
X170623809Y-120102380D02*
X171195238Y-120102380D01*
X170909523Y-121102380D02*
X170909523Y-120102380D01*
X202017380Y-124428095D02*
X202017380Y-123809047D01*
X202398333Y-124142380D01*
X202398333Y-123999523D01*
X202445952Y-123904285D01*
X202493571Y-123856666D01*
X202588809Y-123809047D01*
X202826904Y-123809047D01*
X202922142Y-123856666D01*
X202969761Y-123904285D01*
X203017380Y-123999523D01*
X203017380Y-124285238D01*
X202969761Y-124380476D01*
X202922142Y-124428095D01*
X202017380Y-123523333D02*
X203017380Y-123190000D01*
X202017380Y-122856666D01*
X202017380Y-122618571D02*
X202017380Y-121999523D01*
X202398333Y-122332857D01*
X202398333Y-122190000D01*
X202445952Y-122094761D01*
X202493571Y-122047142D01*
X202588809Y-121999523D01*
X202826904Y-121999523D01*
X202922142Y-122047142D01*
X202969761Y-122094761D01*
X203017380Y-122190000D01*
X203017380Y-122475714D01*
X202969761Y-122570952D01*
X202922142Y-122618571D01*
X204605000Y-123951904D02*
X204557380Y-124047142D01*
X204557380Y-124190000D01*
X204605000Y-124332857D01*
X204700238Y-124428095D01*
X204795476Y-124475714D01*
X204985952Y-124523333D01*
X205128809Y-124523333D01*
X205319285Y-124475714D01*
X205414523Y-124428095D01*
X205509761Y-124332857D01*
X205557380Y-124190000D01*
X205557380Y-124094761D01*
X205509761Y-123951904D01*
X205462142Y-123904285D01*
X205128809Y-123904285D01*
X205128809Y-124094761D01*
X205557380Y-123475714D02*
X204557380Y-123475714D01*
X205557380Y-122904285D01*
X204557380Y-122904285D01*
X205557380Y-122428095D02*
X204557380Y-122428095D01*
X204557380Y-122190000D01*
X204605000Y-122047142D01*
X204700238Y-121951904D01*
X204795476Y-121904285D01*
X204985952Y-121856666D01*
X205128809Y-121856666D01*
X205319285Y-121904285D01*
X205414523Y-121951904D01*
X205509761Y-122047142D01*
X205557380Y-122190000D01*
X205557380Y-122428095D01*
X168030000Y-76652380D02*
X168030000Y-75652380D01*
X168030000Y-76128571D02*
X168601428Y-76128571D01*
X168601428Y-76652380D02*
X168601428Y-75652380D01*
X169077619Y-76128571D02*
X169410952Y-76128571D01*
X169553809Y-76652380D02*
X169077619Y-76652380D01*
X169077619Y-75652380D01*
X169553809Y-75652380D01*
X169934761Y-76366666D02*
X170410952Y-76366666D01*
X169839523Y-76652380D02*
X170172857Y-75652380D01*
X170506190Y-76652380D01*
X170696666Y-75652380D02*
X171268095Y-75652380D01*
X170982380Y-76652380D02*
X170982380Y-75652380D01*
X171553809Y-76604761D02*
X171696666Y-76652380D01*
X171934761Y-76652380D01*
X172030000Y-76604761D01*
X172077619Y-76557142D01*
X172125238Y-76461904D01*
X172125238Y-76366666D01*
X172077619Y-76271428D01*
X172030000Y-76223809D01*
X171934761Y-76176190D01*
X171744285Y-76128571D01*
X171649047Y-76080952D01*
X171601428Y-76033333D01*
X171553809Y-75938095D01*
X171553809Y-75842857D01*
X171601428Y-75747619D01*
X171649047Y-75700000D01*
X171744285Y-75652380D01*
X171982380Y-75652380D01*
X172125238Y-75700000D01*
X172553809Y-76652380D02*
X172553809Y-75652380D01*
X173030000Y-76652380D02*
X173030000Y-75652380D01*
X173601428Y-76652380D01*
X173601428Y-75652380D01*
X174077619Y-76652380D02*
X174077619Y-75652380D01*
X174649047Y-76652380D02*
X174220476Y-76080952D01*
X174649047Y-75652380D02*
X174077619Y-76223809D01*
X175696666Y-75652380D02*
X176268095Y-75652380D01*
X175982380Y-76652380D02*
X175982380Y-75652380D01*
X176601428Y-76652380D02*
X176601428Y-75652380D01*
X176601428Y-76128571D02*
X177172857Y-76128571D01*
X177172857Y-76652380D02*
X177172857Y-75652380D01*
X177649047Y-76652380D02*
X177649047Y-75652380D01*
X178077619Y-76604761D02*
X178220476Y-76652380D01*
X178458571Y-76652380D01*
X178553809Y-76604761D01*
X178601428Y-76557142D01*
X178649047Y-76461904D01*
X178649047Y-76366666D01*
X178601428Y-76271428D01*
X178553809Y-76223809D01*
X178458571Y-76176190D01*
X178268095Y-76128571D01*
X178172857Y-76080952D01*
X178125238Y-76033333D01*
X178077619Y-75938095D01*
X178077619Y-75842857D01*
X178125238Y-75747619D01*
X178172857Y-75700000D01*
X178268095Y-75652380D01*
X178506190Y-75652380D01*
X178649047Y-75700000D01*
X179839523Y-76652380D02*
X179839523Y-75652380D01*
X180172857Y-76366666D01*
X180506190Y-75652380D01*
X180506190Y-76652380D01*
X181172857Y-75652380D02*
X181363333Y-75652380D01*
X181458571Y-75700000D01*
X181553809Y-75795238D01*
X181601428Y-75985714D01*
X181601428Y-76319047D01*
X181553809Y-76509523D01*
X181458571Y-76604761D01*
X181363333Y-76652380D01*
X181172857Y-76652380D01*
X181077619Y-76604761D01*
X180982380Y-76509523D01*
X180934761Y-76319047D01*
X180934761Y-75985714D01*
X180982380Y-75795238D01*
X181077619Y-75700000D01*
X181172857Y-75652380D01*
X181982380Y-76604761D02*
X182125238Y-76652380D01*
X182363333Y-76652380D01*
X182458571Y-76604761D01*
X182506190Y-76557142D01*
X182553809Y-76461904D01*
X182553809Y-76366666D01*
X182506190Y-76271428D01*
X182458571Y-76223809D01*
X182363333Y-76176190D01*
X182172857Y-76128571D01*
X182077619Y-76080952D01*
X182030000Y-76033333D01*
X181982380Y-75938095D01*
X181982380Y-75842857D01*
X182030000Y-75747619D01*
X182077619Y-75700000D01*
X182172857Y-75652380D01*
X182410952Y-75652380D01*
X182553809Y-75700000D01*
X183315714Y-76128571D02*
X182982380Y-76128571D01*
X182982380Y-76652380D02*
X182982380Y-75652380D01*
X183458571Y-75652380D01*
X183839523Y-76128571D02*
X184172857Y-76128571D01*
X184315714Y-76652380D02*
X183839523Y-76652380D01*
X183839523Y-75652380D01*
X184315714Y-75652380D01*
X184601428Y-75652380D02*
X185172857Y-75652380D01*
X184887142Y-76652380D02*
X184887142Y-75652380D01*
X139867142Y-111498571D02*
X140010000Y-111546190D01*
X140057619Y-111593809D01*
X140105238Y-111689047D01*
X140105238Y-111831904D01*
X140057619Y-111927142D01*
X140010000Y-111974761D01*
X139914761Y-112022380D01*
X139533809Y-112022380D01*
X139533809Y-111022380D01*
X139867142Y-111022380D01*
X139962380Y-111070000D01*
X140010000Y-111117619D01*
X140057619Y-111212857D01*
X140057619Y-111308095D01*
X140010000Y-111403333D01*
X139962380Y-111450952D01*
X139867142Y-111498571D01*
X139533809Y-111498571D01*
X140962380Y-112022380D02*
X140962380Y-111498571D01*
X140914761Y-111403333D01*
X140819523Y-111355714D01*
X140629047Y-111355714D01*
X140533809Y-111403333D01*
X140962380Y-111974761D02*
X140867142Y-112022380D01*
X140629047Y-112022380D01*
X140533809Y-111974761D01*
X140486190Y-111879523D01*
X140486190Y-111784285D01*
X140533809Y-111689047D01*
X140629047Y-111641428D01*
X140867142Y-111641428D01*
X140962380Y-111593809D01*
X141295714Y-111355714D02*
X141676666Y-111355714D01*
X141438571Y-111022380D02*
X141438571Y-111879523D01*
X141486190Y-111974761D01*
X141581428Y-112022380D01*
X141676666Y-112022380D01*
X141867142Y-111355714D02*
X142248095Y-111355714D01*
X142010000Y-111022380D02*
X142010000Y-111879523D01*
X142057619Y-111974761D01*
X142152857Y-112022380D01*
X142248095Y-112022380D01*
X142962380Y-111974761D02*
X142867142Y-112022380D01*
X142676666Y-112022380D01*
X142581428Y-111974761D01*
X142533809Y-111879523D01*
X142533809Y-111498571D01*
X142581428Y-111403333D01*
X142676666Y-111355714D01*
X142867142Y-111355714D01*
X142962380Y-111403333D01*
X143010000Y-111498571D01*
X143010000Y-111593809D01*
X142533809Y-111689047D01*
X143438571Y-112022380D02*
X143438571Y-111355714D01*
X143438571Y-111546190D02*
X143486190Y-111450952D01*
X143533809Y-111403333D01*
X143629047Y-111355714D01*
X143724285Y-111355714D01*
X143962380Y-111355714D02*
X144200476Y-112022380D01*
X144438571Y-111355714D02*
X144200476Y-112022380D01*
X144105238Y-112260476D01*
X144057619Y-112308095D01*
X143962380Y-112355714D01*
X145438571Y-111022380D02*
X145771904Y-112022380D01*
X146105238Y-111022380D01*
X146438571Y-112022380D02*
X146438571Y-111022380D01*
X146914761Y-112022380D02*
X146914761Y-111022380D01*
X147486190Y-112022380D01*
X147486190Y-111022380D01*
X142986190Y-113005714D02*
X142224285Y-113291428D01*
X142986190Y-113577142D01*
X143510000Y-113672380D02*
X143700476Y-113672380D01*
X143795714Y-113624761D01*
X143843333Y-113577142D01*
X143938571Y-113434285D01*
X143986190Y-113243809D01*
X143986190Y-112862857D01*
X143938571Y-112767619D01*
X143890952Y-112720000D01*
X143795714Y-112672380D01*
X143605238Y-112672380D01*
X143510000Y-112720000D01*
X143462380Y-112767619D01*
X143414761Y-112862857D01*
X143414761Y-113100952D01*
X143462380Y-113196190D01*
X143510000Y-113243809D01*
X143605238Y-113291428D01*
X143795714Y-113291428D01*
X143890952Y-113243809D01*
X143938571Y-113196190D01*
X143986190Y-113100952D01*
X144271904Y-112672380D02*
X144605238Y-113672380D01*
X144938571Y-112672380D01*
X207097380Y-124713809D02*
X207906904Y-124713809D01*
X208002142Y-124666190D01*
X208049761Y-124618571D01*
X208097380Y-124523333D01*
X208097380Y-124332857D01*
X208049761Y-124237619D01*
X208002142Y-124190000D01*
X207906904Y-124142380D01*
X207097380Y-124142380D01*
X208097380Y-123666190D02*
X207097380Y-123666190D01*
X207097380Y-123285238D01*
X207145000Y-123190000D01*
X207192619Y-123142380D01*
X207287857Y-123094761D01*
X207430714Y-123094761D01*
X207525952Y-123142380D01*
X207573571Y-123190000D01*
X207621190Y-123285238D01*
X207621190Y-123666190D01*
X208097380Y-122666190D02*
X207097380Y-122666190D01*
X207097380Y-122428095D01*
X207145000Y-122285238D01*
X207240238Y-122190000D01*
X207335476Y-122142380D01*
X207525952Y-122094761D01*
X207668809Y-122094761D01*
X207859285Y-122142380D01*
X207954523Y-122190000D01*
X208049761Y-122285238D01*
X208097380Y-122428095D01*
X208097380Y-122666190D01*
X208097380Y-121666190D02*
X207097380Y-121666190D01*
X220632976Y-112832619D02*
X220680595Y-112785000D01*
X220775833Y-112737380D01*
X221013928Y-112737380D01*
X221109166Y-112785000D01*
X221156785Y-112832619D01*
X221204404Y-112927857D01*
X221204404Y-113023095D01*
X221156785Y-113165952D01*
X220585357Y-113737380D01*
X221204404Y-113737380D01*
X221585357Y-113689761D02*
X221728214Y-113737380D01*
X221966309Y-113737380D01*
X222061547Y-113689761D01*
X222109166Y-113642142D01*
X222156785Y-113546904D01*
X222156785Y-113451666D01*
X222109166Y-113356428D01*
X222061547Y-113308809D01*
X221966309Y-113261190D01*
X221775833Y-113213571D01*
X221680595Y-113165952D01*
X221632976Y-113118333D01*
X221585357Y-113023095D01*
X221585357Y-112927857D01*
X221632976Y-112832619D01*
X221680595Y-112785000D01*
X221775833Y-112737380D01*
X222013928Y-112737380D01*
X222156785Y-112785000D01*
X223823452Y-113737380D02*
X223347261Y-113737380D01*
X223347261Y-112737380D01*
X224156785Y-113737380D02*
X224156785Y-113070714D01*
X224156785Y-112737380D02*
X224109166Y-112785000D01*
X224156785Y-112832619D01*
X224204404Y-112785000D01*
X224156785Y-112737380D01*
X224156785Y-112832619D01*
X224632976Y-113070714D02*
X224632976Y-114070714D01*
X224632976Y-113118333D02*
X224728214Y-113070714D01*
X224918690Y-113070714D01*
X225013928Y-113118333D01*
X225061547Y-113165952D01*
X225109166Y-113261190D01*
X225109166Y-113546904D01*
X225061547Y-113642142D01*
X225013928Y-113689761D01*
X224918690Y-113737380D01*
X224728214Y-113737380D01*
X224632976Y-113689761D01*
X225680595Y-113737380D02*
X225585357Y-113689761D01*
X225537738Y-113642142D01*
X225490119Y-113546904D01*
X225490119Y-113261190D01*
X225537738Y-113165952D01*
X225585357Y-113118333D01*
X225680595Y-113070714D01*
X225823452Y-113070714D01*
X225918690Y-113118333D01*
X225966309Y-113165952D01*
X226013928Y-113261190D01*
X226013928Y-113546904D01*
X225966309Y-113642142D01*
X225918690Y-113689761D01*
X225823452Y-113737380D01*
X225680595Y-113737380D01*
X227537738Y-113213571D02*
X227680595Y-113261190D01*
X227728214Y-113308809D01*
X227775833Y-113404047D01*
X227775833Y-113546904D01*
X227728214Y-113642142D01*
X227680595Y-113689761D01*
X227585357Y-113737380D01*
X227204404Y-113737380D01*
X227204404Y-112737380D01*
X227537738Y-112737380D01*
X227632976Y-112785000D01*
X227680595Y-112832619D01*
X227728214Y-112927857D01*
X227728214Y-113023095D01*
X227680595Y-113118333D01*
X227632976Y-113165952D01*
X227537738Y-113213571D01*
X227204404Y-113213571D01*
X228632976Y-113737380D02*
X228632976Y-113213571D01*
X228585357Y-113118333D01*
X228490119Y-113070714D01*
X228299642Y-113070714D01*
X228204404Y-113118333D01*
X228632976Y-113689761D02*
X228537738Y-113737380D01*
X228299642Y-113737380D01*
X228204404Y-113689761D01*
X228156785Y-113594523D01*
X228156785Y-113499285D01*
X228204404Y-113404047D01*
X228299642Y-113356428D01*
X228537738Y-113356428D01*
X228632976Y-113308809D01*
X228966309Y-113070714D02*
X229347261Y-113070714D01*
X229109166Y-112737380D02*
X229109166Y-113594523D01*
X229156785Y-113689761D01*
X229252023Y-113737380D01*
X229347261Y-113737380D01*
X229537738Y-113070714D02*
X229918690Y-113070714D01*
X229680595Y-112737380D02*
X229680595Y-113594523D01*
X229728214Y-113689761D01*
X229823452Y-113737380D01*
X229918690Y-113737380D01*
X230632976Y-113689761D02*
X230537738Y-113737380D01*
X230347261Y-113737380D01*
X230252023Y-113689761D01*
X230204404Y-113594523D01*
X230204404Y-113213571D01*
X230252023Y-113118333D01*
X230347261Y-113070714D01*
X230537738Y-113070714D01*
X230632976Y-113118333D01*
X230680595Y-113213571D01*
X230680595Y-113308809D01*
X230204404Y-113404047D01*
X231109166Y-113737380D02*
X231109166Y-113070714D01*
X231109166Y-113261190D02*
X231156785Y-113165952D01*
X231204404Y-113118333D01*
X231299642Y-113070714D01*
X231394880Y-113070714D01*
X231632976Y-113070714D02*
X231871071Y-113737380D01*
X232109166Y-113070714D02*
X231871071Y-113737380D01*
X231775833Y-113975476D01*
X231728214Y-114023095D01*
X231632976Y-114070714D01*
X233109166Y-112737380D02*
X233680595Y-112737380D01*
X233394880Y-113737380D02*
X233394880Y-112737380D01*
X234394880Y-113689761D02*
X234299642Y-113737380D01*
X234109166Y-113737380D01*
X234013928Y-113689761D01*
X233966309Y-113594523D01*
X233966309Y-113213571D01*
X234013928Y-113118333D01*
X234109166Y-113070714D01*
X234299642Y-113070714D01*
X234394880Y-113118333D01*
X234442500Y-113213571D01*
X234442500Y-113308809D01*
X233966309Y-113404047D01*
X234823452Y-113689761D02*
X234918690Y-113737380D01*
X235109166Y-113737380D01*
X235204404Y-113689761D01*
X235252023Y-113594523D01*
X235252023Y-113546904D01*
X235204404Y-113451666D01*
X235109166Y-113404047D01*
X234966309Y-113404047D01*
X234871071Y-113356428D01*
X234823452Y-113261190D01*
X234823452Y-113213571D01*
X234871071Y-113118333D01*
X234966309Y-113070714D01*
X235109166Y-113070714D01*
X235204404Y-113118333D01*
X235537738Y-113070714D02*
X235918690Y-113070714D01*
X235680595Y-112737380D02*
X235680595Y-113594523D01*
X235728214Y-113689761D01*
X235823452Y-113737380D01*
X235918690Y-113737380D01*
X236632976Y-113689761D02*
X236537738Y-113737380D01*
X236347261Y-113737380D01*
X236252023Y-113689761D01*
X236204404Y-113594523D01*
X236204404Y-113213571D01*
X236252023Y-113118333D01*
X236347261Y-113070714D01*
X236537738Y-113070714D01*
X236632976Y-113118333D01*
X236680595Y-113213571D01*
X236680595Y-113308809D01*
X236204404Y-113404047D01*
X237109166Y-113737380D02*
X237109166Y-113070714D01*
X237109166Y-113261190D02*
X237156785Y-113165952D01*
X237204404Y-113118333D01*
X237299642Y-113070714D01*
X237394880Y-113070714D01*
X220680595Y-115387380D02*
X220680595Y-114387380D01*
X220918690Y-114387380D01*
X221061547Y-114435000D01*
X221156785Y-114530238D01*
X221204404Y-114625476D01*
X221252023Y-114815952D01*
X221252023Y-114958809D01*
X221204404Y-115149285D01*
X221156785Y-115244523D01*
X221061547Y-115339761D01*
X220918690Y-115387380D01*
X220680595Y-115387380D01*
X222061547Y-115339761D02*
X221966309Y-115387380D01*
X221775833Y-115387380D01*
X221680595Y-115339761D01*
X221632976Y-115244523D01*
X221632976Y-114863571D01*
X221680595Y-114768333D01*
X221775833Y-114720714D01*
X221966309Y-114720714D01*
X222061547Y-114768333D01*
X222109166Y-114863571D01*
X222109166Y-114958809D01*
X221632976Y-115054047D01*
X222490119Y-115339761D02*
X222585357Y-115387380D01*
X222775833Y-115387380D01*
X222871071Y-115339761D01*
X222918690Y-115244523D01*
X222918690Y-115196904D01*
X222871071Y-115101666D01*
X222775833Y-115054047D01*
X222632976Y-115054047D01*
X222537738Y-115006428D01*
X222490119Y-114911190D01*
X222490119Y-114863571D01*
X222537738Y-114768333D01*
X222632976Y-114720714D01*
X222775833Y-114720714D01*
X222871071Y-114768333D01*
X223347261Y-115387380D02*
X223347261Y-114720714D01*
X223347261Y-114387380D02*
X223299642Y-114435000D01*
X223347261Y-114482619D01*
X223394880Y-114435000D01*
X223347261Y-114387380D01*
X223347261Y-114482619D01*
X224252023Y-114720714D02*
X224252023Y-115530238D01*
X224204404Y-115625476D01*
X224156785Y-115673095D01*
X224061547Y-115720714D01*
X223918690Y-115720714D01*
X223823452Y-115673095D01*
X224252023Y-115339761D02*
X224156785Y-115387380D01*
X223966309Y-115387380D01*
X223871071Y-115339761D01*
X223823452Y-115292142D01*
X223775833Y-115196904D01*
X223775833Y-114911190D01*
X223823452Y-114815952D01*
X223871071Y-114768333D01*
X223966309Y-114720714D01*
X224156785Y-114720714D01*
X224252023Y-114768333D01*
X224728214Y-114720714D02*
X224728214Y-115387380D01*
X224728214Y-114815952D02*
X224775833Y-114768333D01*
X224871071Y-114720714D01*
X225013928Y-114720714D01*
X225109166Y-114768333D01*
X225156785Y-114863571D01*
X225156785Y-115387380D01*
X226013928Y-115339761D02*
X225918690Y-115387380D01*
X225728214Y-115387380D01*
X225632976Y-115339761D01*
X225585357Y-115244523D01*
X225585357Y-114863571D01*
X225632976Y-114768333D01*
X225728214Y-114720714D01*
X225918690Y-114720714D01*
X226013928Y-114768333D01*
X226061547Y-114863571D01*
X226061547Y-114958809D01*
X225585357Y-115054047D01*
X226918690Y-115387380D02*
X226918690Y-114387380D01*
X226918690Y-115339761D02*
X226823452Y-115387380D01*
X226632976Y-115387380D01*
X226537738Y-115339761D01*
X226490119Y-115292142D01*
X226442500Y-115196904D01*
X226442500Y-114911190D01*
X226490119Y-114815952D01*
X226537738Y-114768333D01*
X226632976Y-114720714D01*
X226823452Y-114720714D01*
X226918690Y-114768333D01*
X228156785Y-115387380D02*
X228156785Y-114387380D01*
X228156785Y-114768333D02*
X228252023Y-114720714D01*
X228442500Y-114720714D01*
X228537738Y-114768333D01*
X228585357Y-114815952D01*
X228632976Y-114911190D01*
X228632976Y-115196904D01*
X228585357Y-115292142D01*
X228537738Y-115339761D01*
X228442500Y-115387380D01*
X228252023Y-115387380D01*
X228156785Y-115339761D01*
X228966309Y-114720714D02*
X229204404Y-115387380D01*
X229442500Y-114720714D02*
X229204404Y-115387380D01*
X229109166Y-115625476D01*
X229061547Y-115673095D01*
X228966309Y-115720714D01*
X230537738Y-115101666D02*
X231013928Y-115101666D01*
X230442500Y-115387380D02*
X230775833Y-114387380D01*
X231109166Y-115387380D01*
X231585357Y-115387380D02*
X231490119Y-115339761D01*
X231442500Y-115244523D01*
X231442500Y-114387380D01*
X232394880Y-115387380D02*
X232394880Y-114863571D01*
X232347261Y-114768333D01*
X232252023Y-114720714D01*
X232061547Y-114720714D01*
X231966309Y-114768333D01*
X232394880Y-115339761D02*
X232299642Y-115387380D01*
X232061547Y-115387380D01*
X231966309Y-115339761D01*
X231918690Y-115244523D01*
X231918690Y-115149285D01*
X231966309Y-115054047D01*
X232061547Y-115006428D01*
X232299642Y-115006428D01*
X232394880Y-114958809D01*
X232871071Y-114720714D02*
X232871071Y-115387380D01*
X232871071Y-114815952D02*
X232918690Y-114768333D01*
X233013928Y-114720714D01*
X233156785Y-114720714D01*
X233252023Y-114768333D01*
X233299642Y-114863571D01*
X233299642Y-115387380D01*
X234537738Y-115387380D02*
X234537738Y-114387380D01*
X234537738Y-114863571D02*
X235109166Y-114863571D01*
X235109166Y-115387380D02*
X235109166Y-114387380D01*
X235537738Y-115339761D02*
X235632976Y-115387380D01*
X235823452Y-115387380D01*
X235918690Y-115339761D01*
X235966309Y-115244523D01*
X235966309Y-115196904D01*
X235918690Y-115101666D01*
X235823452Y-115054047D01*
X235680595Y-115054047D01*
X235585357Y-115006428D01*
X235537738Y-114911190D01*
X235537738Y-114863571D01*
X235585357Y-114768333D01*
X235680595Y-114720714D01*
X235823452Y-114720714D01*
X235918690Y-114768333D01*
X236823452Y-114720714D02*
X236823452Y-115387380D01*
X236394880Y-114720714D02*
X236394880Y-115244523D01*
X236442500Y-115339761D01*
X236537738Y-115387380D01*
X236680595Y-115387380D01*
X236775833Y-115339761D01*
X236823452Y-115292142D01*
X220585357Y-116370714D02*
X220823452Y-117037380D01*
X221061547Y-116370714D01*
X221632976Y-116037380D02*
X221728214Y-116037380D01*
X221823452Y-116085000D01*
X221871071Y-116132619D01*
X221918690Y-116227857D01*
X221966309Y-116418333D01*
X221966309Y-116656428D01*
X221918690Y-116846904D01*
X221871071Y-116942142D01*
X221823452Y-116989761D01*
X221728214Y-117037380D01*
X221632976Y-117037380D01*
X221537738Y-116989761D01*
X221490119Y-116942142D01*
X221442500Y-116846904D01*
X221394880Y-116656428D01*
X221394880Y-116418333D01*
X221442500Y-116227857D01*
X221490119Y-116132619D01*
X221537738Y-116085000D01*
X221632976Y-116037380D01*
X222394880Y-116942142D02*
X222442500Y-116989761D01*
X222394880Y-117037380D01*
X222347261Y-116989761D01*
X222394880Y-116942142D01*
X222394880Y-117037380D01*
X223394880Y-117037380D02*
X222823452Y-117037380D01*
X223109166Y-117037380D02*
X223109166Y-116037380D01*
X223013928Y-116180238D01*
X222918690Y-116275476D01*
X222823452Y-116323095D01*
X171704047Y-95956428D02*
X172465952Y-95956428D01*
X172085000Y-96337380D02*
X172085000Y-95575476D01*
D11*
%TO.C,U4*%
X165862000Y-81280000D02*
X165862000Y-91440000D01*
X165862000Y-91440000D02*
X176022000Y-91440000D01*
X176022000Y-91440000D02*
X176022000Y-81280000D01*
X176022000Y-81280000D02*
X165862000Y-81280000D01*
%TO.C,U1*%
X163703000Y-102870000D02*
X163703000Y-113030000D01*
X163703000Y-113030000D02*
X173863000Y-113030000D01*
X173863000Y-113030000D02*
X173863000Y-102870000D01*
X173863000Y-102870000D02*
X163703000Y-102870000D01*
%TO.C,J1*%
X140275000Y-110550000D02*
X142935000Y-110550000D01*
X140275000Y-107950000D02*
X140275000Y-110550000D01*
X142935000Y-107950000D02*
X142935000Y-110550000D01*
X140275000Y-107950000D02*
X142935000Y-107950000D01*
X140275000Y-106680000D02*
X140275000Y-105350000D01*
X140275000Y-105350000D02*
X141605000Y-105350000D01*
%TO.C,U3*%
X187829000Y-86005000D02*
X187829000Y-84905000D01*
X187559000Y-86005000D02*
X187829000Y-86005000D01*
X187559000Y-87505000D02*
X187559000Y-86005000D01*
X194189000Y-86005000D02*
X194189000Y-83175000D01*
X194459000Y-86005000D02*
X194189000Y-86005000D01*
X194459000Y-87505000D02*
X194459000Y-86005000D01*
%TO.C,U2*%
X206883000Y-99324000D02*
X203433000Y-99324000D01*
X206883000Y-99324000D02*
X208833000Y-99324000D01*
X206883000Y-108194000D02*
X204933000Y-108194000D01*
X206883000Y-108194000D02*
X208833000Y-108194000D01*
%TO.C,RV1*%
X161865000Y-83760000D02*
X163195000Y-83760000D01*
X161865000Y-85090000D02*
X161865000Y-83760000D01*
X161865000Y-86360000D02*
X164525000Y-86360000D01*
X164525000Y-86360000D02*
X164525000Y-91500000D01*
X161865000Y-86360000D02*
X161865000Y-91500000D01*
X161865000Y-91500000D02*
X164525000Y-91500000D01*
%TO.C,R6*%
X206100000Y-113318936D02*
X206100000Y-114773064D01*
X207920000Y-113318936D02*
X207920000Y-114773064D01*
%TO.C,R3*%
X154559000Y-121496000D02*
X154559000Y-119116000D01*
X154559000Y-68496000D02*
X154559000Y-70876000D01*
X160929000Y-119116000D02*
X160929000Y-70876000D01*
X148189000Y-119116000D02*
X160929000Y-119116000D01*
X148189000Y-70876000D02*
X148189000Y-119116000D01*
X160929000Y-70876000D02*
X148189000Y-70876000D01*
%TO.C,R2*%
X223231064Y-107421000D02*
X221776936Y-107421000D01*
X223231064Y-109241000D02*
X221776936Y-109241000D01*
%TO.C,R1*%
X216373064Y-107421000D02*
X214918936Y-107421000D01*
X216373064Y-109241000D02*
X214918936Y-109241000D01*
%TO.C,Q1*%
X178381000Y-69628000D02*
X178381000Y-71138000D01*
X174680000Y-69628000D02*
X174680000Y-71138000D01*
X171410000Y-71138000D02*
X181650000Y-71138000D01*
X181650000Y-69628000D02*
X181650000Y-74269000D01*
X171410000Y-69628000D02*
X171410000Y-74269000D01*
X171410000Y-74269000D02*
X181650000Y-74269000D01*
X171410000Y-69628000D02*
X181650000Y-69628000D01*
%TO.C,JP1*%
X162754000Y-124266000D02*
X162754000Y-122936000D01*
X164084000Y-124266000D02*
X162754000Y-124266000D01*
X165354000Y-124266000D02*
X165354000Y-121606000D01*
X165354000Y-121606000D02*
X167954000Y-121606000D01*
X165354000Y-124266000D02*
X167954000Y-124266000D01*
X167954000Y-124266000D02*
X167954000Y-121606000D01*
%TO.C,J4*%
X208721000Y-118304000D02*
X208721000Y-119634000D01*
X207391000Y-118304000D02*
X208721000Y-118304000D01*
X206121000Y-118304000D02*
X206121000Y-120964000D01*
X206121000Y-120964000D02*
X200981000Y-120964000D01*
X206121000Y-118304000D02*
X200981000Y-118304000D01*
X200981000Y-118304000D02*
X200981000Y-120964000D01*
%TO.C,J3*%
X189170000Y-71942000D02*
X189170000Y-70612000D01*
X190500000Y-71942000D02*
X189170000Y-71942000D01*
X191770000Y-71942000D02*
X191770000Y-69282000D01*
X191770000Y-69282000D02*
X194370000Y-69282000D01*
X191770000Y-71942000D02*
X194370000Y-71942000D01*
X194370000Y-71942000D02*
X194370000Y-69282000D01*
%TO.C,J2*%
X213095000Y-76755000D02*
X213095000Y-75955000D01*
X213095000Y-79255000D02*
X213095000Y-78455000D01*
X213095000Y-81655000D02*
X213095000Y-80955000D01*
X213095000Y-84255000D02*
X213095000Y-83455000D01*
X213095000Y-74255000D02*
X213095000Y-74055000D01*
X213095000Y-86755000D02*
X213095000Y-85955000D01*
X213095000Y-89255000D02*
X213095000Y-88455000D01*
X213095000Y-91655000D02*
X213095000Y-90955000D01*
X216415000Y-73285000D02*
X218715000Y-73285000D01*
X218715000Y-73285000D02*
X221015000Y-70985000D01*
X221015000Y-70985000D02*
X234315000Y-70985000D01*
X216415000Y-97825000D02*
X234315000Y-97825000D01*
X237915000Y-97825000D02*
X238335000Y-97825000D01*
X238335000Y-97825000D02*
X238335000Y-70985000D01*
X238335000Y-70985000D02*
X237915000Y-70985000D01*
%TO.C,D3*%
X184800000Y-84596000D02*
X180960000Y-84596000D01*
X184800000Y-84836000D02*
X180960000Y-84836000D01*
X184800000Y-84716000D02*
X180960000Y-84716000D01*
X180960000Y-91296000D02*
X181440000Y-91296000D01*
X180960000Y-83456000D02*
X180960000Y-91296000D01*
X181440000Y-83456000D02*
X180960000Y-83456000D01*
X184800000Y-91296000D02*
X184320000Y-91296000D01*
X184800000Y-83456000D02*
X184800000Y-91296000D01*
X184320000Y-83456000D02*
X184800000Y-83456000D01*
%TO.C,D2*%
X224364000Y-102799000D02*
X221504000Y-102799000D01*
X224364000Y-104719000D02*
X224364000Y-102799000D01*
X221504000Y-104719000D02*
X224364000Y-104719000D01*
%TO.C,D1*%
X217506000Y-102799000D02*
X214646000Y-102799000D01*
X217506000Y-104719000D02*
X217506000Y-102799000D01*
X214646000Y-104719000D02*
X217506000Y-104719000D01*
%TO.C,C6*%
X191762748Y-80999000D02*
X192285252Y-80999000D01*
X191762748Y-79529000D02*
X192285252Y-79529000D01*
%TO.C,C5*%
X191762748Y-77443000D02*
X192285252Y-77443000D01*
X191762748Y-75973000D02*
X192285252Y-75973000D01*
%TO.C,C4*%
X206748748Y-93191000D02*
X207271252Y-93191000D01*
X206748748Y-91721000D02*
X207271252Y-91721000D01*
%TO.C,C3*%
X206748748Y-96747000D02*
X207271252Y-96747000D01*
X206748748Y-95277000D02*
X207271252Y-95277000D01*
%TO.C,C2*%
X169494252Y-94975000D02*
X168071748Y-94975000D01*
X169494252Y-96795000D02*
X168071748Y-96795000D01*
%TO.C,C1*%
X168521748Y-100557000D02*
X169044252Y-100557000D01*
X168521748Y-99087000D02*
X169044252Y-99087000D01*
%TO.C,U4*%
D10*
X166243095Y-80097380D02*
X166243095Y-80906904D01*
X166290714Y-81002142D01*
X166338333Y-81049761D01*
X166433571Y-81097380D01*
X166624047Y-81097380D01*
X166719285Y-81049761D01*
X166766904Y-81002142D01*
X166814523Y-80906904D01*
X166814523Y-80097380D01*
X167719285Y-80430714D02*
X167719285Y-81097380D01*
X167481190Y-80049761D02*
X167243095Y-80764047D01*
X167862142Y-80764047D01*
%TO.C,U1*%
X164338095Y-101687380D02*
X164338095Y-102496904D01*
X164385714Y-102592142D01*
X164433333Y-102639761D01*
X164528571Y-102687380D01*
X164719047Y-102687380D01*
X164814285Y-102639761D01*
X164861904Y-102592142D01*
X164909523Y-102496904D01*
X164909523Y-101687380D01*
X165909523Y-102687380D02*
X165338095Y-102687380D01*
X165623809Y-102687380D02*
X165623809Y-101687380D01*
X165528571Y-101830238D01*
X165433333Y-101925476D01*
X165338095Y-101973095D01*
%TO.C,J1*%
X141271666Y-103802380D02*
X141271666Y-104516666D01*
X141224047Y-104659523D01*
X141128809Y-104754761D01*
X140985952Y-104802380D01*
X140890714Y-104802380D01*
X142271666Y-104802380D02*
X141700238Y-104802380D01*
X141985952Y-104802380D02*
X141985952Y-103802380D01*
X141890714Y-103945238D01*
X141795476Y-104040476D01*
X141700238Y-104088095D01*
%TO.C,U3*%
X194961380Y-89236904D02*
X195770904Y-89236904D01*
X195866142Y-89189285D01*
X195913761Y-89141666D01*
X195961380Y-89046428D01*
X195961380Y-88855952D01*
X195913761Y-88760714D01*
X195866142Y-88713095D01*
X195770904Y-88665476D01*
X194961380Y-88665476D01*
X194961380Y-88284523D02*
X194961380Y-87665476D01*
X195342333Y-87998809D01*
X195342333Y-87855952D01*
X195389952Y-87760714D01*
X195437571Y-87713095D01*
X195532809Y-87665476D01*
X195770904Y-87665476D01*
X195866142Y-87713095D01*
X195913761Y-87760714D01*
X195961380Y-87855952D01*
X195961380Y-88141666D01*
X195913761Y-88236904D01*
X195866142Y-88284523D01*
%TO.C,U2*%
X203708095Y-97931380D02*
X203708095Y-98740904D01*
X203755714Y-98836142D01*
X203803333Y-98883761D01*
X203898571Y-98931380D01*
X204089047Y-98931380D01*
X204184285Y-98883761D01*
X204231904Y-98836142D01*
X204279523Y-98740904D01*
X204279523Y-97931380D01*
X204708095Y-98026619D02*
X204755714Y-97979000D01*
X204850952Y-97931380D01*
X205089047Y-97931380D01*
X205184285Y-97979000D01*
X205231904Y-98026619D01*
X205279523Y-98121857D01*
X205279523Y-98217095D01*
X205231904Y-98359952D01*
X204660476Y-98931380D01*
X205279523Y-98931380D01*
%TO.C,RV1*%
X162599761Y-83212380D02*
X162266428Y-82736190D01*
X162028333Y-83212380D02*
X162028333Y-82212380D01*
X162409285Y-82212380D01*
X162504523Y-82260000D01*
X162552142Y-82307619D01*
X162599761Y-82402857D01*
X162599761Y-82545714D01*
X162552142Y-82640952D01*
X162504523Y-82688571D01*
X162409285Y-82736190D01*
X162028333Y-82736190D01*
X162885476Y-82212380D02*
X163218809Y-83212380D01*
X163552142Y-82212380D01*
X164409285Y-83212380D02*
X163837857Y-83212380D01*
X164123571Y-83212380D02*
X164123571Y-82212380D01*
X164028333Y-82355238D01*
X163933095Y-82450476D01*
X163837857Y-82498095D01*
%TO.C,R6*%
X209282380Y-114212666D02*
X208806190Y-114546000D01*
X209282380Y-114784095D02*
X208282380Y-114784095D01*
X208282380Y-114403142D01*
X208330000Y-114307904D01*
X208377619Y-114260285D01*
X208472857Y-114212666D01*
X208615714Y-114212666D01*
X208710952Y-114260285D01*
X208758571Y-114307904D01*
X208806190Y-114403142D01*
X208806190Y-114784095D01*
X208282380Y-113355523D02*
X208282380Y-113546000D01*
X208330000Y-113641238D01*
X208377619Y-113688857D01*
X208520476Y-113784095D01*
X208710952Y-113831714D01*
X209091904Y-113831714D01*
X209187142Y-113784095D01*
X209234761Y-113736476D01*
X209282380Y-113641238D01*
X209282380Y-113450761D01*
X209234761Y-113355523D01*
X209187142Y-113307904D01*
X209091904Y-113260285D01*
X208853809Y-113260285D01*
X208758571Y-113307904D01*
X208710952Y-113355523D01*
X208663333Y-113450761D01*
X208663333Y-113641238D01*
X208710952Y-113736476D01*
X208758571Y-113784095D01*
X208853809Y-113831714D01*
%TO.C,R3*%
X162381380Y-95162666D02*
X161905190Y-95496000D01*
X162381380Y-95734095D02*
X161381380Y-95734095D01*
X161381380Y-95353142D01*
X161429000Y-95257904D01*
X161476619Y-95210285D01*
X161571857Y-95162666D01*
X161714714Y-95162666D01*
X161809952Y-95210285D01*
X161857571Y-95257904D01*
X161905190Y-95353142D01*
X161905190Y-95734095D01*
X161381380Y-94829333D02*
X161381380Y-94210285D01*
X161762333Y-94543619D01*
X161762333Y-94400761D01*
X161809952Y-94305523D01*
X161857571Y-94257904D01*
X161952809Y-94210285D01*
X162190904Y-94210285D01*
X162286142Y-94257904D01*
X162333761Y-94305523D01*
X162381380Y-94400761D01*
X162381380Y-94686476D01*
X162333761Y-94781714D01*
X162286142Y-94829333D01*
%TO.C,R2*%
X222337333Y-110603380D02*
X222004000Y-110127190D01*
X221765904Y-110603380D02*
X221765904Y-109603380D01*
X222146857Y-109603380D01*
X222242095Y-109651000D01*
X222289714Y-109698619D01*
X222337333Y-109793857D01*
X222337333Y-109936714D01*
X222289714Y-110031952D01*
X222242095Y-110079571D01*
X222146857Y-110127190D01*
X221765904Y-110127190D01*
X222718285Y-109698619D02*
X222765904Y-109651000D01*
X222861142Y-109603380D01*
X223099238Y-109603380D01*
X223194476Y-109651000D01*
X223242095Y-109698619D01*
X223289714Y-109793857D01*
X223289714Y-109889095D01*
X223242095Y-110031952D01*
X222670666Y-110603380D01*
X223289714Y-110603380D01*
%TO.C,R1*%
X215479333Y-110603380D02*
X215146000Y-110127190D01*
X214907904Y-110603380D02*
X214907904Y-109603380D01*
X215288857Y-109603380D01*
X215384095Y-109651000D01*
X215431714Y-109698619D01*
X215479333Y-109793857D01*
X215479333Y-109936714D01*
X215431714Y-110031952D01*
X215384095Y-110079571D01*
X215288857Y-110127190D01*
X214907904Y-110127190D01*
X216431714Y-110603380D02*
X215860285Y-110603380D01*
X216146000Y-110603380D02*
X216146000Y-109603380D01*
X216050761Y-109746238D01*
X215955523Y-109841476D01*
X215860285Y-109889095D01*
%TO.C,Q1*%
X176434761Y-69175619D02*
X176339523Y-69128000D01*
X176244285Y-69032761D01*
X176101428Y-68889904D01*
X176006190Y-68842285D01*
X175910952Y-68842285D01*
X175958571Y-69080380D02*
X175863333Y-69032761D01*
X175768095Y-68937523D01*
X175720476Y-68747047D01*
X175720476Y-68413714D01*
X175768095Y-68223238D01*
X175863333Y-68128000D01*
X175958571Y-68080380D01*
X176149047Y-68080380D01*
X176244285Y-68128000D01*
X176339523Y-68223238D01*
X176387142Y-68413714D01*
X176387142Y-68747047D01*
X176339523Y-68937523D01*
X176244285Y-69032761D01*
X176149047Y-69080380D01*
X175958571Y-69080380D01*
X177339523Y-69080380D02*
X176768095Y-69080380D01*
X177053809Y-69080380D02*
X177053809Y-68080380D01*
X176958571Y-68223238D01*
X176863333Y-68318476D01*
X176768095Y-68366095D01*
%TO.C,JP1*%
X161206380Y-123769333D02*
X161920666Y-123769333D01*
X162063523Y-123816952D01*
X162158761Y-123912190D01*
X162206380Y-124055047D01*
X162206380Y-124150285D01*
X162206380Y-123293142D02*
X161206380Y-123293142D01*
X161206380Y-122912190D01*
X161254000Y-122816952D01*
X161301619Y-122769333D01*
X161396857Y-122721714D01*
X161539714Y-122721714D01*
X161634952Y-122769333D01*
X161682571Y-122816952D01*
X161730190Y-122912190D01*
X161730190Y-123293142D01*
X162206380Y-121769333D02*
X162206380Y-122340761D01*
X162206380Y-122055047D02*
X161206380Y-122055047D01*
X161349238Y-122150285D01*
X161444476Y-122245523D01*
X161492095Y-122340761D01*
%TO.C,J4*%
X209173380Y-119967333D02*
X209887666Y-119967333D01*
X210030523Y-120014952D01*
X210125761Y-120110190D01*
X210173380Y-120253047D01*
X210173380Y-120348285D01*
X209506714Y-119062571D02*
X210173380Y-119062571D01*
X209125761Y-119300666D02*
X209840047Y-119538761D01*
X209840047Y-118919714D01*
%TO.C,J3*%
X187622380Y-70945333D02*
X188336666Y-70945333D01*
X188479523Y-70992952D01*
X188574761Y-71088190D01*
X188622380Y-71231047D01*
X188622380Y-71326285D01*
X187622380Y-70564380D02*
X187622380Y-69945333D01*
X188003333Y-70278666D01*
X188003333Y-70135809D01*
X188050952Y-70040571D01*
X188098571Y-69992952D01*
X188193809Y-69945333D01*
X188431904Y-69945333D01*
X188527142Y-69992952D01*
X188574761Y-70040571D01*
X188622380Y-70135809D01*
X188622380Y-70421523D01*
X188574761Y-70516761D01*
X188527142Y-70564380D01*
%TO.C,J2*%
X210642380Y-84788333D02*
X211356666Y-84788333D01*
X211499523Y-84835952D01*
X211594761Y-84931190D01*
X211642380Y-85074047D01*
X211642380Y-85169285D01*
X210737619Y-84359761D02*
X210690000Y-84312142D01*
X210642380Y-84216904D01*
X210642380Y-83978809D01*
X210690000Y-83883571D01*
X210737619Y-83835952D01*
X210832857Y-83788333D01*
X210928095Y-83788333D01*
X211070952Y-83835952D01*
X211642380Y-84407380D01*
X211642380Y-83788333D01*
%TO.C,D3*%
X186252380Y-88114095D02*
X185252380Y-88114095D01*
X185252380Y-87876000D01*
X185300000Y-87733142D01*
X185395238Y-87637904D01*
X185490476Y-87590285D01*
X185680952Y-87542666D01*
X185823809Y-87542666D01*
X186014285Y-87590285D01*
X186109523Y-87637904D01*
X186204761Y-87733142D01*
X186252380Y-87876000D01*
X186252380Y-88114095D01*
X185252380Y-87209333D02*
X185252380Y-86590285D01*
X185633333Y-86923619D01*
X185633333Y-86780761D01*
X185680952Y-86685523D01*
X185728571Y-86637904D01*
X185823809Y-86590285D01*
X186061904Y-86590285D01*
X186157142Y-86637904D01*
X186204761Y-86685523D01*
X186252380Y-86780761D01*
X186252380Y-87066476D01*
X186204761Y-87161714D01*
X186157142Y-87209333D01*
X185532380Y-82557904D02*
X184532380Y-82557904D01*
X185532380Y-81986476D02*
X184960952Y-82415047D01*
X184532380Y-81986476D02*
X185103809Y-82557904D01*
%TO.C,D2*%
X221765904Y-105861380D02*
X221765904Y-104861380D01*
X222004000Y-104861380D01*
X222146857Y-104909000D01*
X222242095Y-105004238D01*
X222289714Y-105099476D01*
X222337333Y-105289952D01*
X222337333Y-105432809D01*
X222289714Y-105623285D01*
X222242095Y-105718523D01*
X222146857Y-105813761D01*
X222004000Y-105861380D01*
X221765904Y-105861380D01*
X222718285Y-104956619D02*
X222765904Y-104909000D01*
X222861142Y-104861380D01*
X223099238Y-104861380D01*
X223194476Y-104909000D01*
X223242095Y-104956619D01*
X223289714Y-105051857D01*
X223289714Y-105147095D01*
X223242095Y-105289952D01*
X222670666Y-105861380D01*
X223289714Y-105861380D01*
%TO.C,D1*%
X214907904Y-105861380D02*
X214907904Y-104861380D01*
X215146000Y-104861380D01*
X215288857Y-104909000D01*
X215384095Y-105004238D01*
X215431714Y-105099476D01*
X215479333Y-105289952D01*
X215479333Y-105432809D01*
X215431714Y-105623285D01*
X215384095Y-105718523D01*
X215288857Y-105813761D01*
X215146000Y-105861380D01*
X214907904Y-105861380D01*
X216431714Y-105861380D02*
X215860285Y-105861380D01*
X216146000Y-105861380D02*
X216146000Y-104861380D01*
X216050761Y-105004238D01*
X215955523Y-105099476D01*
X215860285Y-105147095D01*
%TO.C,C6*%
X191857333Y-78941142D02*
X191809714Y-78988761D01*
X191666857Y-79036380D01*
X191571619Y-79036380D01*
X191428761Y-78988761D01*
X191333523Y-78893523D01*
X191285904Y-78798285D01*
X191238285Y-78607809D01*
X191238285Y-78464952D01*
X191285904Y-78274476D01*
X191333523Y-78179238D01*
X191428761Y-78084000D01*
X191571619Y-78036380D01*
X191666857Y-78036380D01*
X191809714Y-78084000D01*
X191857333Y-78131619D01*
X192714476Y-78036380D02*
X192524000Y-78036380D01*
X192428761Y-78084000D01*
X192381142Y-78131619D01*
X192285904Y-78274476D01*
X192238285Y-78464952D01*
X192238285Y-78845904D01*
X192285904Y-78941142D01*
X192333523Y-78988761D01*
X192428761Y-79036380D01*
X192619238Y-79036380D01*
X192714476Y-78988761D01*
X192762095Y-78941142D01*
X192809714Y-78845904D01*
X192809714Y-78607809D01*
X192762095Y-78512571D01*
X192714476Y-78464952D01*
X192619238Y-78417333D01*
X192428761Y-78417333D01*
X192333523Y-78464952D01*
X192285904Y-78512571D01*
X192238285Y-78607809D01*
%TO.C,C5*%
X191857333Y-75385142D02*
X191809714Y-75432761D01*
X191666857Y-75480380D01*
X191571619Y-75480380D01*
X191428761Y-75432761D01*
X191333523Y-75337523D01*
X191285904Y-75242285D01*
X191238285Y-75051809D01*
X191238285Y-74908952D01*
X191285904Y-74718476D01*
X191333523Y-74623238D01*
X191428761Y-74528000D01*
X191571619Y-74480380D01*
X191666857Y-74480380D01*
X191809714Y-74528000D01*
X191857333Y-74575619D01*
X192762095Y-74480380D02*
X192285904Y-74480380D01*
X192238285Y-74956571D01*
X192285904Y-74908952D01*
X192381142Y-74861333D01*
X192619238Y-74861333D01*
X192714476Y-74908952D01*
X192762095Y-74956571D01*
X192809714Y-75051809D01*
X192809714Y-75289904D01*
X192762095Y-75385142D01*
X192714476Y-75432761D01*
X192619238Y-75480380D01*
X192381142Y-75480380D01*
X192285904Y-75432761D01*
X192238285Y-75385142D01*
%TO.C,C4*%
X206843333Y-91133142D02*
X206795714Y-91180761D01*
X206652857Y-91228380D01*
X206557619Y-91228380D01*
X206414761Y-91180761D01*
X206319523Y-91085523D01*
X206271904Y-90990285D01*
X206224285Y-90799809D01*
X206224285Y-90656952D01*
X206271904Y-90466476D01*
X206319523Y-90371238D01*
X206414761Y-90276000D01*
X206557619Y-90228380D01*
X206652857Y-90228380D01*
X206795714Y-90276000D01*
X206843333Y-90323619D01*
X207700476Y-90561714D02*
X207700476Y-91228380D01*
X207462380Y-90180761D02*
X207224285Y-90895047D01*
X207843333Y-90895047D01*
%TO.C,C3*%
X206843333Y-94689142D02*
X206795714Y-94736761D01*
X206652857Y-94784380D01*
X206557619Y-94784380D01*
X206414761Y-94736761D01*
X206319523Y-94641523D01*
X206271904Y-94546285D01*
X206224285Y-94355809D01*
X206224285Y-94212952D01*
X206271904Y-94022476D01*
X206319523Y-93927238D01*
X206414761Y-93832000D01*
X206557619Y-93784380D01*
X206652857Y-93784380D01*
X206795714Y-93832000D01*
X206843333Y-93879619D01*
X207176666Y-93784380D02*
X207795714Y-93784380D01*
X207462380Y-94165333D01*
X207605238Y-94165333D01*
X207700476Y-94212952D01*
X207748095Y-94260571D01*
X207795714Y-94355809D01*
X207795714Y-94593904D01*
X207748095Y-94689142D01*
X207700476Y-94736761D01*
X207605238Y-94784380D01*
X207319523Y-94784380D01*
X207224285Y-94736761D01*
X207176666Y-94689142D01*
%TO.C,C2*%
X168743333Y-94083142D02*
X168695714Y-94130761D01*
X168552857Y-94178380D01*
X168457619Y-94178380D01*
X168314761Y-94130761D01*
X168219523Y-94035523D01*
X168171904Y-93940285D01*
X168124285Y-93749809D01*
X168124285Y-93606952D01*
X168171904Y-93416476D01*
X168219523Y-93321238D01*
X168314761Y-93226000D01*
X168457619Y-93178380D01*
X168552857Y-93178380D01*
X168695714Y-93226000D01*
X168743333Y-93273619D01*
X169124285Y-93273619D02*
X169171904Y-93226000D01*
X169267142Y-93178380D01*
X169505238Y-93178380D01*
X169600476Y-93226000D01*
X169648095Y-93273619D01*
X169695714Y-93368857D01*
X169695714Y-93464095D01*
X169648095Y-93606952D01*
X169076666Y-94178380D01*
X169695714Y-94178380D01*
%TO.C,C1*%
X168616333Y-98499142D02*
X168568714Y-98546761D01*
X168425857Y-98594380D01*
X168330619Y-98594380D01*
X168187761Y-98546761D01*
X168092523Y-98451523D01*
X168044904Y-98356285D01*
X167997285Y-98165809D01*
X167997285Y-98022952D01*
X168044904Y-97832476D01*
X168092523Y-97737238D01*
X168187761Y-97642000D01*
X168330619Y-97594380D01*
X168425857Y-97594380D01*
X168568714Y-97642000D01*
X168616333Y-97689619D01*
X169568714Y-98594380D02*
X168997285Y-98594380D01*
X169283000Y-98594380D02*
X169283000Y-97594380D01*
X169187761Y-97737238D01*
X169092523Y-97832476D01*
X168997285Y-97880095D01*
%TO.C,A1*%
X191166666Y-107394285D02*
X191166666Y-106918095D01*
X191452380Y-107489523D02*
X190452380Y-107156190D01*
X191452380Y-106822857D01*
X191452380Y-105965714D02*
X191452380Y-106537142D01*
X191452380Y-106251428D02*
X190452380Y-106251428D01*
X190595238Y-106346666D01*
X190690476Y-106441904D01*
X190738095Y-106537142D01*
%TD*%
M02*
