%TF.GenerationSoftware,KiCad,Pcbnew,(5.1.9)-1*%
%TF.CreationDate,2021-10-17T20:04:12-04:00*%
%TF.ProjectId,BattTester,42617474-5465-4737-9465-722e6b696361,rev?*%
%TF.SameCoordinates,Original*%
%TF.FileFunction,Copper,L1,Top*%
%TF.FilePolarity,Positive*%
%FSLAX46Y46*%
G04 Gerber Fmt 4.6, Leading zero omitted, Abs format (unit mm)*
G04 Created by KiCad (PCBNEW (5.1.9)-1) date 2021-10-17 20:04:12*
%MOMM*%
%LPD*%
G01*
G04 APERTURE LIST*
%TA.AperFunction,ComponentPad*%
%ADD10C,1.524000*%
%TD*%
%TA.AperFunction,ComponentPad*%
%ADD11O,1.700000X1.700000*%
%TD*%
%TA.AperFunction,ComponentPad*%
%ADD12R,1.700000X1.700000*%
%TD*%
%TA.AperFunction,SMDPad,CuDef*%
%ADD13R,5.800000X6.400000*%
%TD*%
%TA.AperFunction,SMDPad,CuDef*%
%ADD14R,1.200000X2.200000*%
%TD*%
%TA.AperFunction,ComponentPad*%
%ADD15O,2.400000X2.400000*%
%TD*%
%TA.AperFunction,ComponentPad*%
%ADD16C,2.400000*%
%TD*%
%TA.AperFunction,ComponentPad*%
%ADD17O,1.905000X2.000000*%
%TD*%
%TA.AperFunction,ComponentPad*%
%ADD18R,1.905000X2.000000*%
%TD*%
%TA.AperFunction,SMDPad,CuDef*%
%ADD19R,2.800000X1.500000*%
%TD*%
%TA.AperFunction,SMDPad,CuDef*%
%ADD20R,1.500000X0.700000*%
%TD*%
%TA.AperFunction,SMDPad,CuDef*%
%ADD21R,1.500000X1.000000*%
%TD*%
%TA.AperFunction,ComponentPad*%
%ADD22R,2.400000X2.400000*%
%TD*%
%TA.AperFunction,ComponentPad*%
%ADD23C,1.700000*%
%TD*%
%TA.AperFunction,ViaPad*%
%ADD24C,0.800000*%
%TD*%
%TA.AperFunction,ViaPad*%
%ADD25C,1.000000*%
%TD*%
%TA.AperFunction,Conductor*%
%ADD26C,0.381000*%
%TD*%
%TA.AperFunction,Conductor*%
%ADD27C,0.762000*%
%TD*%
%TA.AperFunction,Conductor*%
%ADD28C,0.508000*%
%TD*%
%TA.AperFunction,Conductor*%
%ADD29C,1.016000*%
%TD*%
%TA.AperFunction,Conductor*%
%ADD30C,0.254000*%
%TD*%
%TA.AperFunction,Conductor*%
%ADD31C,0.100000*%
%TD*%
G04 APERTURE END LIST*
D10*
%TO.P,U4,8*%
%TO.N,+9V*%
X174752000Y-82550000D03*
%TO.P,U4,7*%
%TO.N,N/C*%
X174752000Y-85090000D03*
%TO.P,U4,6*%
X174752000Y-87630000D03*
%TO.P,U4,5*%
X174752000Y-90170000D03*
%TO.P,U4,4*%
%TO.N,GND*%
X167132000Y-90170000D03*
%TO.P,U4,3*%
%TO.N,Net-(RV1-Pad2)*%
X167132000Y-87630000D03*
%TO.P,U4,2*%
%TO.N,Net-(Q1-Pad3)*%
X167132000Y-85090000D03*
%TO.P,U4,1*%
%TO.N,Net-(Q1-Pad1)*%
X167132000Y-82550000D03*
%TD*%
%TO.P,U1,8*%
%TO.N,+9V*%
X172593000Y-104140000D03*
%TO.P,U1,7*%
%TO.N,Net-(A1-Pad1)*%
X172593000Y-106680000D03*
%TO.P,U1,6*%
%TO.N,Net-(A1-Pad2)*%
X172593000Y-109220000D03*
%TO.P,U1,5*%
%TO.N,Net-(A1-Pad6)*%
X172593000Y-111760000D03*
%TO.P,U1,4*%
%TO.N,GND*%
X164973000Y-111760000D03*
%TO.P,U1,3*%
X164973000Y-109220000D03*
%TO.P,U1,2*%
%TO.N,/B+*%
X164973000Y-106680000D03*
%TO.P,U1,1*%
%TO.N,+9V*%
X164973000Y-104140000D03*
%TD*%
D11*
%TO.P,J1,2*%
%TO.N,GND*%
X141605000Y-109220000D03*
D12*
%TO.P,J1,1*%
%TO.N,/B+*%
X141605000Y-106680000D03*
%TD*%
D13*
%TO.P,U3,2*%
%TO.N,+3V3*%
X191009000Y-90575000D03*
D14*
%TO.P,U3,3*%
%TO.N,+9V*%
X188729000Y-84275000D03*
%TO.P,U3,2*%
%TO.N,+3V3*%
X191009000Y-84275000D03*
%TO.P,U3,1*%
%TO.N,GND*%
X193289000Y-84275000D03*
%TD*%
%TO.P,U2,14*%
%TO.N,GND*%
%TA.AperFunction,SMDPad,CuDef*%
G36*
G01*
X208383000Y-100099000D02*
X208383000Y-99799000D01*
G75*
G02*
X208533000Y-99649000I150000J0D01*
G01*
X210183000Y-99649000D01*
G75*
G02*
X210333000Y-99799000I0J-150000D01*
G01*
X210333000Y-100099000D01*
G75*
G02*
X210183000Y-100249000I-150000J0D01*
G01*
X208533000Y-100249000D01*
G75*
G02*
X208383000Y-100099000I0J150000D01*
G01*
G37*
%TD.AperFunction*%
%TO.P,U2,13*%
%TO.N,/SPI-SCK*%
%TA.AperFunction,SMDPad,CuDef*%
G36*
G01*
X208383000Y-101369000D02*
X208383000Y-101069000D01*
G75*
G02*
X208533000Y-100919000I150000J0D01*
G01*
X210183000Y-100919000D01*
G75*
G02*
X210333000Y-101069000I0J-150000D01*
G01*
X210333000Y-101369000D01*
G75*
G02*
X210183000Y-101519000I-150000J0D01*
G01*
X208533000Y-101519000D01*
G75*
G02*
X208383000Y-101369000I0J150000D01*
G01*
G37*
%TD.AperFunction*%
%TO.P,U2,12*%
%TO.N,/SPI-MISO*%
%TA.AperFunction,SMDPad,CuDef*%
G36*
G01*
X208383000Y-102639000D02*
X208383000Y-102339000D01*
G75*
G02*
X208533000Y-102189000I150000J0D01*
G01*
X210183000Y-102189000D01*
G75*
G02*
X210333000Y-102339000I0J-150000D01*
G01*
X210333000Y-102639000D01*
G75*
G02*
X210183000Y-102789000I-150000J0D01*
G01*
X208533000Y-102789000D01*
G75*
G02*
X208383000Y-102639000I0J150000D01*
G01*
G37*
%TD.AperFunction*%
%TO.P,U2,11*%
%TO.N,/SPI-MOSI*%
%TA.AperFunction,SMDPad,CuDef*%
G36*
G01*
X208383000Y-103909000D02*
X208383000Y-103609000D01*
G75*
G02*
X208533000Y-103459000I150000J0D01*
G01*
X210183000Y-103459000D01*
G75*
G02*
X210333000Y-103609000I0J-150000D01*
G01*
X210333000Y-103909000D01*
G75*
G02*
X210183000Y-104059000I-150000J0D01*
G01*
X208533000Y-104059000D01*
G75*
G02*
X208383000Y-103909000I0J150000D01*
G01*
G37*
%TD.AperFunction*%
%TO.P,U2,10*%
%TO.N,/RESET*%
%TA.AperFunction,SMDPad,CuDef*%
G36*
G01*
X208383000Y-105179000D02*
X208383000Y-104879000D01*
G75*
G02*
X208533000Y-104729000I150000J0D01*
G01*
X210183000Y-104729000D01*
G75*
G02*
X210333000Y-104879000I0J-150000D01*
G01*
X210333000Y-105179000D01*
G75*
G02*
X210183000Y-105329000I-150000J0D01*
G01*
X208533000Y-105329000D01*
G75*
G02*
X208383000Y-105179000I0J150000D01*
G01*
G37*
%TD.AperFunction*%
%TO.P,U2,9*%
%TO.N,N/C*%
%TA.AperFunction,SMDPad,CuDef*%
G36*
G01*
X208383000Y-106449000D02*
X208383000Y-106149000D01*
G75*
G02*
X208533000Y-105999000I150000J0D01*
G01*
X210183000Y-105999000D01*
G75*
G02*
X210333000Y-106149000I0J-150000D01*
G01*
X210333000Y-106449000D01*
G75*
G02*
X210183000Y-106599000I-150000J0D01*
G01*
X208533000Y-106599000D01*
G75*
G02*
X208383000Y-106449000I0J150000D01*
G01*
G37*
%TD.AperFunction*%
%TO.P,U2,8*%
%TA.AperFunction,SMDPad,CuDef*%
G36*
G01*
X208383000Y-107719000D02*
X208383000Y-107419000D01*
G75*
G02*
X208533000Y-107269000I150000J0D01*
G01*
X210183000Y-107269000D01*
G75*
G02*
X210333000Y-107419000I0J-150000D01*
G01*
X210333000Y-107719000D01*
G75*
G02*
X210183000Y-107869000I-150000J0D01*
G01*
X208533000Y-107869000D01*
G75*
G02*
X208383000Y-107719000I0J150000D01*
G01*
G37*
%TD.AperFunction*%
%TO.P,U2,7*%
%TA.AperFunction,SMDPad,CuDef*%
G36*
G01*
X203433000Y-107719000D02*
X203433000Y-107419000D01*
G75*
G02*
X203583000Y-107269000I150000J0D01*
G01*
X205233000Y-107269000D01*
G75*
G02*
X205383000Y-107419000I0J-150000D01*
G01*
X205383000Y-107719000D01*
G75*
G02*
X205233000Y-107869000I-150000J0D01*
G01*
X203583000Y-107869000D01*
G75*
G02*
X203433000Y-107719000I0J150000D01*
G01*
G37*
%TD.AperFunction*%
%TO.P,U2,6*%
%TA.AperFunction,SMDPad,CuDef*%
G36*
G01*
X203433000Y-106449000D02*
X203433000Y-106149000D01*
G75*
G02*
X203583000Y-105999000I150000J0D01*
G01*
X205233000Y-105999000D01*
G75*
G02*
X205383000Y-106149000I0J-150000D01*
G01*
X205383000Y-106449000D01*
G75*
G02*
X205233000Y-106599000I-150000J0D01*
G01*
X203583000Y-106599000D01*
G75*
G02*
X203433000Y-106449000I0J150000D01*
G01*
G37*
%TD.AperFunction*%
%TO.P,U2,5*%
%TA.AperFunction,SMDPad,CuDef*%
G36*
G01*
X203433000Y-105179000D02*
X203433000Y-104879000D01*
G75*
G02*
X203583000Y-104729000I150000J0D01*
G01*
X205233000Y-104729000D01*
G75*
G02*
X205383000Y-104879000I0J-150000D01*
G01*
X205383000Y-105179000D01*
G75*
G02*
X205233000Y-105329000I-150000J0D01*
G01*
X203583000Y-105329000D01*
G75*
G02*
X203433000Y-105179000I0J150000D01*
G01*
G37*
%TD.AperFunction*%
%TO.P,U2,4*%
%TA.AperFunction,SMDPad,CuDef*%
G36*
G01*
X203433000Y-103909000D02*
X203433000Y-103609000D01*
G75*
G02*
X203583000Y-103459000I150000J0D01*
G01*
X205233000Y-103459000D01*
G75*
G02*
X205383000Y-103609000I0J-150000D01*
G01*
X205383000Y-103909000D01*
G75*
G02*
X205233000Y-104059000I-150000J0D01*
G01*
X203583000Y-104059000D01*
G75*
G02*
X203433000Y-103909000I0J150000D01*
G01*
G37*
%TD.AperFunction*%
%TO.P,U2,3*%
%TO.N,/SPI-CS1*%
%TA.AperFunction,SMDPad,CuDef*%
G36*
G01*
X203433000Y-102639000D02*
X203433000Y-102339000D01*
G75*
G02*
X203583000Y-102189000I150000J0D01*
G01*
X205233000Y-102189000D01*
G75*
G02*
X205383000Y-102339000I0J-150000D01*
G01*
X205383000Y-102639000D01*
G75*
G02*
X205233000Y-102789000I-150000J0D01*
G01*
X203583000Y-102789000D01*
G75*
G02*
X203433000Y-102639000I0J150000D01*
G01*
G37*
%TD.AperFunction*%
%TO.P,U2,2*%
%TO.N,/SPI-CS0*%
%TA.AperFunction,SMDPad,CuDef*%
G36*
G01*
X203433000Y-101369000D02*
X203433000Y-101069000D01*
G75*
G02*
X203583000Y-100919000I150000J0D01*
G01*
X205233000Y-100919000D01*
G75*
G02*
X205383000Y-101069000I0J-150000D01*
G01*
X205383000Y-101369000D01*
G75*
G02*
X205233000Y-101519000I-150000J0D01*
G01*
X203583000Y-101519000D01*
G75*
G02*
X203433000Y-101369000I0J150000D01*
G01*
G37*
%TD.AperFunction*%
%TO.P,U2,1*%
%TO.N,+3V3*%
%TA.AperFunction,SMDPad,CuDef*%
G36*
G01*
X203433000Y-100099000D02*
X203433000Y-99799000D01*
G75*
G02*
X203583000Y-99649000I150000J0D01*
G01*
X205233000Y-99649000D01*
G75*
G02*
X205383000Y-99799000I0J-150000D01*
G01*
X205383000Y-100099000D01*
G75*
G02*
X205233000Y-100249000I-150000J0D01*
G01*
X203583000Y-100249000D01*
G75*
G02*
X203433000Y-100099000I0J150000D01*
G01*
G37*
%TD.AperFunction*%
%TD*%
D11*
%TO.P,RV1,3*%
%TO.N,GND*%
X163195000Y-90170000D03*
%TO.P,RV1,2*%
%TO.N,Net-(RV1-Pad2)*%
X163195000Y-87630000D03*
D12*
%TO.P,RV1,1*%
%TO.N,+9V*%
X163195000Y-85090000D03*
%TD*%
%TO.P,R6,2*%
%TO.N,Net-(J4-Pad2)*%
%TA.AperFunction,SMDPad,CuDef*%
G36*
G01*
X204225999Y-114946000D02*
X205476001Y-114946000D01*
G75*
G02*
X205726000Y-115195999I0J-249999D01*
G01*
X205726000Y-115996001D01*
G75*
G02*
X205476001Y-116246000I-249999J0D01*
G01*
X204225999Y-116246000D01*
G75*
G02*
X203976000Y-115996001I0J249999D01*
G01*
X203976000Y-115195999D01*
G75*
G02*
X204225999Y-114946000I249999J0D01*
G01*
G37*
%TD.AperFunction*%
%TO.P,R6,1*%
%TO.N,/RESET*%
%TA.AperFunction,SMDPad,CuDef*%
G36*
G01*
X204225999Y-111846000D02*
X205476001Y-111846000D01*
G75*
G02*
X205726000Y-112095999I0J-249999D01*
G01*
X205726000Y-112896001D01*
G75*
G02*
X205476001Y-113146000I-249999J0D01*
G01*
X204225999Y-113146000D01*
G75*
G02*
X203976000Y-112896001I0J249999D01*
G01*
X203976000Y-112095999D01*
G75*
G02*
X204225999Y-111846000I249999J0D01*
G01*
G37*
%TD.AperFunction*%
%TD*%
D15*
%TO.P,R3,2*%
%TO.N,Net-(JP1-Pad1)*%
X154559000Y-122936000D03*
D16*
%TO.P,R3,1*%
%TO.N,Net-(Q1-Pad3)*%
X154559000Y-67056000D03*
%TD*%
%TO.P,R2,2*%
%TO.N,Net-(D2-Pad2)*%
%TA.AperFunction,SMDPad,CuDef*%
G36*
G01*
X221604000Y-107705999D02*
X221604000Y-108956001D01*
G75*
G02*
X221354001Y-109206000I-249999J0D01*
G01*
X220553999Y-109206000D01*
G75*
G02*
X220304000Y-108956001I0J249999D01*
G01*
X220304000Y-107705999D01*
G75*
G02*
X220553999Y-107456000I249999J0D01*
G01*
X221354001Y-107456000D01*
G75*
G02*
X221604000Y-107705999I0J-249999D01*
G01*
G37*
%TD.AperFunction*%
%TO.P,R2,1*%
%TO.N,+3V3*%
%TA.AperFunction,SMDPad,CuDef*%
G36*
G01*
X224704000Y-107705999D02*
X224704000Y-108956001D01*
G75*
G02*
X224454001Y-109206000I-249999J0D01*
G01*
X223653999Y-109206000D01*
G75*
G02*
X223404000Y-108956001I0J249999D01*
G01*
X223404000Y-107705999D01*
G75*
G02*
X223653999Y-107456000I249999J0D01*
G01*
X224454001Y-107456000D01*
G75*
G02*
X224704000Y-107705999I0J-249999D01*
G01*
G37*
%TD.AperFunction*%
%TD*%
%TO.P,R1,2*%
%TO.N,Net-(D1-Pad2)*%
%TA.AperFunction,SMDPad,CuDef*%
G36*
G01*
X214746000Y-107705999D02*
X214746000Y-108956001D01*
G75*
G02*
X214496001Y-109206000I-249999J0D01*
G01*
X213695999Y-109206000D01*
G75*
G02*
X213446000Y-108956001I0J249999D01*
G01*
X213446000Y-107705999D01*
G75*
G02*
X213695999Y-107456000I249999J0D01*
G01*
X214496001Y-107456000D01*
G75*
G02*
X214746000Y-107705999I0J-249999D01*
G01*
G37*
%TD.AperFunction*%
%TO.P,R1,1*%
%TO.N,+3V3*%
%TA.AperFunction,SMDPad,CuDef*%
G36*
G01*
X217846000Y-107705999D02*
X217846000Y-108956001D01*
G75*
G02*
X217596001Y-109206000I-249999J0D01*
G01*
X216795999Y-109206000D01*
G75*
G02*
X216546000Y-108956001I0J249999D01*
G01*
X216546000Y-107705999D01*
G75*
G02*
X216795999Y-107456000I249999J0D01*
G01*
X217596001Y-107456000D01*
G75*
G02*
X217846000Y-107705999I0J-249999D01*
G01*
G37*
%TD.AperFunction*%
%TD*%
D17*
%TO.P,Q1,3*%
%TO.N,Net-(Q1-Pad3)*%
X179070000Y-72898000D03*
%TO.P,Q1,2*%
%TO.N,/B+*%
X176530000Y-72898000D03*
D18*
%TO.P,Q1,1*%
%TO.N,Net-(Q1-Pad1)*%
X173990000Y-72898000D03*
%TD*%
D11*
%TO.P,JP1,2*%
%TO.N,GND*%
X166624000Y-122936000D03*
D12*
%TO.P,JP1,1*%
%TO.N,Net-(JP1-Pad1)*%
X164084000Y-122936000D03*
%TD*%
D11*
%TO.P,J4,3*%
%TO.N,GND*%
X202311000Y-119634000D03*
%TO.P,J4,2*%
%TO.N,Net-(J4-Pad2)*%
X204851000Y-119634000D03*
D12*
%TO.P,J4,1*%
%TO.N,+3V3*%
X207391000Y-119634000D03*
%TD*%
D11*
%TO.P,J3,2*%
%TO.N,GND*%
X193040000Y-70612000D03*
D12*
%TO.P,J3,1*%
%TO.N,+9V*%
X190500000Y-70612000D03*
%TD*%
D19*
%TO.P,J2,12*%
%TO.N,GND*%
X214615000Y-98105000D03*
X236115000Y-98105000D03*
X236115000Y-70805000D03*
X214615000Y-73005000D03*
D20*
%TO.P,J2,11*%
%TO.N,/WRPrt*%
X212815000Y-96710000D03*
%TO.P,J2,10*%
%TO.N,/SDDet*%
X212815000Y-95510000D03*
D21*
%TO.P,J2,9*%
%TO.N,N/C*%
X212815000Y-75080000D03*
%TO.P,J2,8*%
X212815000Y-94210000D03*
%TO.P,J2,7*%
%TO.N,/SPI-MISO*%
X212815000Y-92510000D03*
%TO.P,J2,6*%
%TO.N,GND*%
X212815000Y-90080000D03*
%TO.P,J2,5*%
%TO.N,/SPI-SCK*%
X212815000Y-87580000D03*
%TO.P,J2,4*%
%TO.N,+3V3*%
X212815000Y-85080000D03*
%TO.P,J2,3*%
%TO.N,GND*%
X212815000Y-82580000D03*
%TO.P,J2,2*%
%TO.N,/SPI-MOSI*%
X212815000Y-80080000D03*
%TO.P,J2,1*%
%TO.N,/SPI-CS1*%
X212815000Y-77580000D03*
%TD*%
D15*
%TO.P,D3,2*%
%TO.N,+3V3*%
X182880000Y-92456000D03*
D22*
%TO.P,D3,1*%
%TO.N,+9V*%
X182880000Y-82296000D03*
%TD*%
%TO.P,D2,2*%
%TO.N,Net-(D2-Pad2)*%
%TA.AperFunction,SMDPad,CuDef*%
G36*
G01*
X222054000Y-103308999D02*
X222054000Y-104209001D01*
G75*
G02*
X221804001Y-104459000I-249999J0D01*
G01*
X221153999Y-104459000D01*
G75*
G02*
X220904000Y-104209001I0J249999D01*
G01*
X220904000Y-103308999D01*
G75*
G02*
X221153999Y-103059000I249999J0D01*
G01*
X221804001Y-103059000D01*
G75*
G02*
X222054000Y-103308999I0J-249999D01*
G01*
G37*
%TD.AperFunction*%
%TO.P,D2,1*%
%TO.N,/WRPrt*%
%TA.AperFunction,SMDPad,CuDef*%
G36*
G01*
X224104000Y-103308999D02*
X224104000Y-104209001D01*
G75*
G02*
X223854001Y-104459000I-249999J0D01*
G01*
X223203999Y-104459000D01*
G75*
G02*
X222954000Y-104209001I0J249999D01*
G01*
X222954000Y-103308999D01*
G75*
G02*
X223203999Y-103059000I249999J0D01*
G01*
X223854001Y-103059000D01*
G75*
G02*
X224104000Y-103308999I0J-249999D01*
G01*
G37*
%TD.AperFunction*%
%TD*%
%TO.P,D1,2*%
%TO.N,Net-(D1-Pad2)*%
%TA.AperFunction,SMDPad,CuDef*%
G36*
G01*
X215196000Y-103308999D02*
X215196000Y-104209001D01*
G75*
G02*
X214946001Y-104459000I-249999J0D01*
G01*
X214295999Y-104459000D01*
G75*
G02*
X214046000Y-104209001I0J249999D01*
G01*
X214046000Y-103308999D01*
G75*
G02*
X214295999Y-103059000I249999J0D01*
G01*
X214946001Y-103059000D01*
G75*
G02*
X215196000Y-103308999I0J-249999D01*
G01*
G37*
%TD.AperFunction*%
%TO.P,D1,1*%
%TO.N,/SDDet*%
%TA.AperFunction,SMDPad,CuDef*%
G36*
G01*
X217246000Y-103308999D02*
X217246000Y-104209001D01*
G75*
G02*
X216996001Y-104459000I-249999J0D01*
G01*
X216345999Y-104459000D01*
G75*
G02*
X216096000Y-104209001I0J249999D01*
G01*
X216096000Y-103308999D01*
G75*
G02*
X216345999Y-103059000I249999J0D01*
G01*
X216996001Y-103059000D01*
G75*
G02*
X217246000Y-103308999I0J-249999D01*
G01*
G37*
%TD.AperFunction*%
%TD*%
%TO.P,C6,2*%
%TO.N,GND*%
%TA.AperFunction,SMDPad,CuDef*%
G36*
G01*
X192474000Y-80739000D02*
X192474000Y-79789000D01*
G75*
G02*
X192724000Y-79539000I250000J0D01*
G01*
X193399000Y-79539000D01*
G75*
G02*
X193649000Y-79789000I0J-250000D01*
G01*
X193649000Y-80739000D01*
G75*
G02*
X193399000Y-80989000I-250000J0D01*
G01*
X192724000Y-80989000D01*
G75*
G02*
X192474000Y-80739000I0J250000D01*
G01*
G37*
%TD.AperFunction*%
%TO.P,C6,1*%
%TO.N,+3V3*%
%TA.AperFunction,SMDPad,CuDef*%
G36*
G01*
X190399000Y-80739000D02*
X190399000Y-79789000D01*
G75*
G02*
X190649000Y-79539000I250000J0D01*
G01*
X191324000Y-79539000D01*
G75*
G02*
X191574000Y-79789000I0J-250000D01*
G01*
X191574000Y-80739000D01*
G75*
G02*
X191324000Y-80989000I-250000J0D01*
G01*
X190649000Y-80989000D01*
G75*
G02*
X190399000Y-80739000I0J250000D01*
G01*
G37*
%TD.AperFunction*%
%TD*%
%TO.P,C5,2*%
%TO.N,GND*%
%TA.AperFunction,SMDPad,CuDef*%
G36*
G01*
X192474000Y-77183000D02*
X192474000Y-76233000D01*
G75*
G02*
X192724000Y-75983000I250000J0D01*
G01*
X193399000Y-75983000D01*
G75*
G02*
X193649000Y-76233000I0J-250000D01*
G01*
X193649000Y-77183000D01*
G75*
G02*
X193399000Y-77433000I-250000J0D01*
G01*
X192724000Y-77433000D01*
G75*
G02*
X192474000Y-77183000I0J250000D01*
G01*
G37*
%TD.AperFunction*%
%TO.P,C5,1*%
%TO.N,+9V*%
%TA.AperFunction,SMDPad,CuDef*%
G36*
G01*
X190399000Y-77183000D02*
X190399000Y-76233000D01*
G75*
G02*
X190649000Y-75983000I250000J0D01*
G01*
X191324000Y-75983000D01*
G75*
G02*
X191574000Y-76233000I0J-250000D01*
G01*
X191574000Y-77183000D01*
G75*
G02*
X191324000Y-77433000I-250000J0D01*
G01*
X190649000Y-77433000D01*
G75*
G02*
X190399000Y-77183000I0J250000D01*
G01*
G37*
%TD.AperFunction*%
%TD*%
%TO.P,C4,2*%
%TO.N,GND*%
%TA.AperFunction,SMDPad,CuDef*%
G36*
G01*
X207460000Y-92931000D02*
X207460000Y-91981000D01*
G75*
G02*
X207710000Y-91731000I250000J0D01*
G01*
X208385000Y-91731000D01*
G75*
G02*
X208635000Y-91981000I0J-250000D01*
G01*
X208635000Y-92931000D01*
G75*
G02*
X208385000Y-93181000I-250000J0D01*
G01*
X207710000Y-93181000D01*
G75*
G02*
X207460000Y-92931000I0J250000D01*
G01*
G37*
%TD.AperFunction*%
%TO.P,C4,1*%
%TO.N,+3V3*%
%TA.AperFunction,SMDPad,CuDef*%
G36*
G01*
X205385000Y-92931000D02*
X205385000Y-91981000D01*
G75*
G02*
X205635000Y-91731000I250000J0D01*
G01*
X206310000Y-91731000D01*
G75*
G02*
X206560000Y-91981000I0J-250000D01*
G01*
X206560000Y-92931000D01*
G75*
G02*
X206310000Y-93181000I-250000J0D01*
G01*
X205635000Y-93181000D01*
G75*
G02*
X205385000Y-92931000I0J250000D01*
G01*
G37*
%TD.AperFunction*%
%TD*%
%TO.P,C3,2*%
%TO.N,GND*%
%TA.AperFunction,SMDPad,CuDef*%
G36*
G01*
X207460000Y-96487000D02*
X207460000Y-95537000D01*
G75*
G02*
X207710000Y-95287000I250000J0D01*
G01*
X208385000Y-95287000D01*
G75*
G02*
X208635000Y-95537000I0J-250000D01*
G01*
X208635000Y-96487000D01*
G75*
G02*
X208385000Y-96737000I-250000J0D01*
G01*
X207710000Y-96737000D01*
G75*
G02*
X207460000Y-96487000I0J250000D01*
G01*
G37*
%TD.AperFunction*%
%TO.P,C3,1*%
%TO.N,+3V3*%
%TA.AperFunction,SMDPad,CuDef*%
G36*
G01*
X205385000Y-96487000D02*
X205385000Y-95537000D01*
G75*
G02*
X205635000Y-95287000I250000J0D01*
G01*
X206310000Y-95287000D01*
G75*
G02*
X206560000Y-95537000I0J-250000D01*
G01*
X206560000Y-96487000D01*
G75*
G02*
X206310000Y-96737000I-250000J0D01*
G01*
X205635000Y-96737000D01*
G75*
G02*
X205385000Y-96487000I0J250000D01*
G01*
G37*
%TD.AperFunction*%
%TD*%
%TO.P,C2,2*%
%TO.N,GND*%
%TA.AperFunction,SMDPad,CuDef*%
G36*
G01*
X167883000Y-95234998D02*
X167883000Y-96535002D01*
G75*
G02*
X167633002Y-96785000I-249998J0D01*
G01*
X166807998Y-96785000D01*
G75*
G02*
X166558000Y-96535002I0J249998D01*
G01*
X166558000Y-95234998D01*
G75*
G02*
X166807998Y-94985000I249998J0D01*
G01*
X167633002Y-94985000D01*
G75*
G02*
X167883000Y-95234998I0J-249998D01*
G01*
G37*
%TD.AperFunction*%
%TO.P,C2,1*%
%TO.N,+9V*%
%TA.AperFunction,SMDPad,CuDef*%
G36*
G01*
X171008000Y-95234998D02*
X171008000Y-96535002D01*
G75*
G02*
X170758002Y-96785000I-249998J0D01*
G01*
X169932998Y-96785000D01*
G75*
G02*
X169683000Y-96535002I0J249998D01*
G01*
X169683000Y-95234998D01*
G75*
G02*
X169932998Y-94985000I249998J0D01*
G01*
X170758002Y-94985000D01*
G75*
G02*
X171008000Y-95234998I0J-249998D01*
G01*
G37*
%TD.AperFunction*%
%TD*%
%TO.P,C1,2*%
%TO.N,+9V*%
%TA.AperFunction,SMDPad,CuDef*%
G36*
G01*
X169233000Y-100297000D02*
X169233000Y-99347000D01*
G75*
G02*
X169483000Y-99097000I250000J0D01*
G01*
X170158000Y-99097000D01*
G75*
G02*
X170408000Y-99347000I0J-250000D01*
G01*
X170408000Y-100297000D01*
G75*
G02*
X170158000Y-100547000I-250000J0D01*
G01*
X169483000Y-100547000D01*
G75*
G02*
X169233000Y-100297000I0J250000D01*
G01*
G37*
%TD.AperFunction*%
%TO.P,C1,1*%
%TO.N,GND*%
%TA.AperFunction,SMDPad,CuDef*%
G36*
G01*
X167158000Y-100297000D02*
X167158000Y-99347000D01*
G75*
G02*
X167408000Y-99097000I250000J0D01*
G01*
X168083000Y-99097000D01*
G75*
G02*
X168333000Y-99347000I0J-250000D01*
G01*
X168333000Y-100297000D01*
G75*
G02*
X168083000Y-100547000I-250000J0D01*
G01*
X167408000Y-100547000D01*
G75*
G02*
X167158000Y-100297000I0J250000D01*
G01*
G37*
%TD.AperFunction*%
%TD*%
D23*
%TO.P,A1,12*%
%TO.N,/SPI-SCK*%
X195580000Y-100330000D03*
%TO.P,A1,11*%
%TO.N,/SPI-MISO*%
X195580000Y-102870000D03*
%TO.P,A1,10*%
%TO.N,GND*%
X195580000Y-105410000D03*
%TO.P,A1,9*%
%TO.N,+3V3*%
X195580000Y-107950000D03*
%TO.P,A1,8*%
%TO.N,N/C*%
X195580000Y-110490000D03*
%TO.P,A1,7*%
%TO.N,/SPI-CS0*%
X195580000Y-113030000D03*
%TO.P,A1,6*%
%TO.N,Net-(A1-Pad6)*%
X185420000Y-113030000D03*
%TO.P,A1,5*%
%TO.N,N/C*%
X185420000Y-110490000D03*
%TO.P,A1,4*%
%TO.N,+9V*%
X185420000Y-107950000D03*
%TO.P,A1,3*%
%TO.N,GND*%
X185420000Y-105410000D03*
%TO.P,A1,2*%
%TO.N,Net-(A1-Pad2)*%
X185420000Y-102870000D03*
%TO.P,A1,1*%
%TO.N,Net-(A1-Pad1)*%
X185420000Y-100330000D03*
%TD*%
D24*
%TO.N,/SPI-MISO*%
X207010000Y-102869994D03*
D25*
%TO.N,GND*%
X165100000Y-97790000D03*
X179705000Y-97790000D03*
X152400000Y-71755000D03*
X151765000Y-83185000D03*
X151765000Y-92710000D03*
X151765000Y-100965000D03*
X211455000Y-90805000D03*
X208915000Y-97790000D03*
D24*
%TO.N,/SPI-SCK*%
X207010000Y-100330000D03*
%TO.N,/SPI-MOSI*%
X214630000Y-93980000D03*
X212725000Y-101600000D03*
%TD*%
D26*
%TO.N,/SPI-MISO*%
X209358000Y-102489000D02*
X207390994Y-102489000D01*
X207390994Y-102489000D02*
X207010000Y-102869994D01*
X210333000Y-102489000D02*
X209358000Y-102489000D01*
X211455000Y-101367000D02*
X210333000Y-102489000D01*
X211455000Y-97974575D02*
X211455000Y-101367000D01*
X212815000Y-92510000D02*
X211684000Y-92510000D01*
X211093488Y-97613063D02*
X211455000Y-97974575D01*
X211455000Y-95445425D02*
X211093488Y-95806937D01*
X211684000Y-92510000D02*
X211455000Y-92739000D01*
X211455000Y-92739000D02*
X211455000Y-95445425D01*
X211093488Y-95806937D02*
X211093488Y-97613063D01*
D27*
%TO.N,+3V3*%
X191009000Y-80286500D02*
X190986500Y-80264000D01*
X191009000Y-84275000D02*
X191009000Y-80286500D01*
X191009000Y-84275000D02*
X191009000Y-90575000D01*
X184761000Y-90575000D02*
X182880000Y-92456000D01*
X191009000Y-90575000D02*
X184761000Y-90575000D01*
D26*
X205972500Y-92456000D02*
X205972500Y-96012000D01*
X205972500Y-98384500D02*
X204408000Y-99949000D01*
X205972500Y-96012000D02*
X205972500Y-98384500D01*
D27*
X191009000Y-103379000D02*
X195580000Y-107950000D01*
X191009000Y-90575000D02*
X191009000Y-103379000D01*
D28*
X193675000Y-109855000D02*
X195580000Y-107950000D01*
X193675000Y-114300000D02*
X193675000Y-109855000D01*
X200660000Y-121285000D02*
X193675000Y-114300000D01*
X205740000Y-121285000D02*
X200660000Y-121285000D01*
X207391000Y-119634000D02*
X205740000Y-121285000D01*
X205972500Y-90572500D02*
X205972500Y-92456000D01*
X211465000Y-85080000D02*
X205972500Y-90572500D01*
X205970000Y-90575000D02*
X205972500Y-90572500D01*
X191009000Y-90575000D02*
X205970000Y-90575000D01*
X211465000Y-85080000D02*
X212815000Y-85080000D01*
X222724990Y-109660010D02*
X224054000Y-108331000D01*
X218525010Y-109660010D02*
X222724990Y-109660010D01*
X217196000Y-108331000D02*
X218525010Y-109660010D01*
X217196000Y-109829000D02*
X207391000Y-119634000D01*
X217196000Y-108331000D02*
X217196000Y-109829000D01*
D26*
%TO.N,/SPI-CS0*%
X202946000Y-101219000D02*
X204408000Y-101219000D01*
X200025000Y-104140000D02*
X202946000Y-101219000D01*
X200025000Y-108585000D02*
X200025000Y-104140000D01*
X195580000Y-113030000D02*
X200025000Y-108585000D01*
D28*
%TO.N,Net-(A1-Pad6)*%
X184150000Y-111760000D02*
X185420000Y-113030000D01*
X172593000Y-111760000D02*
X184150000Y-111760000D01*
D27*
%TO.N,+9V*%
X184859000Y-84275000D02*
X182880000Y-82296000D01*
X188729000Y-84275000D02*
X184859000Y-84275000D01*
X188729000Y-78965500D02*
X188729000Y-84275000D01*
X190986500Y-76708000D02*
X188729000Y-78965500D01*
X190986500Y-71098500D02*
X190500000Y-70612000D01*
X190986500Y-76708000D02*
X190986500Y-71098500D01*
X170345500Y-99297000D02*
X169820500Y-99822000D01*
X170345500Y-95885000D02*
X170345500Y-99297000D01*
X169820500Y-99822000D02*
X169820500Y-100779500D01*
X181098999Y-93310881D02*
X181098999Y-90046001D01*
X186851001Y-99062883D02*
X181098999Y-93310881D01*
X186851001Y-106518999D02*
X186851001Y-99062883D01*
X185420000Y-107950000D02*
X186851001Y-106518999D01*
X182880000Y-88265000D02*
X182880000Y-82296000D01*
X181098999Y-90046001D02*
X182880000Y-88265000D01*
X172250500Y-93980000D02*
X170345500Y-95885000D01*
X176530000Y-93980000D02*
X172250500Y-93980000D01*
X179070000Y-91440000D02*
X176530000Y-93980000D01*
X179070000Y-86106000D02*
X179070000Y-91440000D01*
X182880000Y-82296000D02*
X179070000Y-86106000D01*
X174752000Y-82550000D02*
X174752000Y-82456000D01*
X182626000Y-82550000D02*
X174752000Y-82550000D01*
X182880000Y-82296000D02*
X182626000Y-82550000D01*
D28*
X174625000Y-82550000D02*
X174752000Y-82550000D01*
X170815000Y-86360000D02*
X174625000Y-82550000D01*
X164465000Y-86360000D02*
X170815000Y-86360000D01*
X163195000Y-85090000D02*
X164465000Y-86360000D01*
D27*
X169820500Y-100953500D02*
X169820500Y-100779500D01*
X166634000Y-104140000D02*
X169820500Y-100953500D01*
X164973000Y-104140000D02*
X166634000Y-104140000D01*
X172593000Y-104013000D02*
X172593000Y-104140000D01*
X169820500Y-101240500D02*
X172593000Y-104013000D01*
X169820500Y-100779500D02*
X169820500Y-101240500D01*
D28*
%TO.N,Net-(A1-Pad2)*%
X185039000Y-102870000D02*
X185420000Y-102870000D01*
X184404000Y-102235000D02*
X185039000Y-102870000D01*
X179578000Y-102235000D02*
X184404000Y-102235000D01*
X172593000Y-109220000D02*
X179578000Y-102235000D01*
%TO.N,Net-(A1-Pad1)*%
X179973922Y-100330000D02*
X185420000Y-100330000D01*
X178943000Y-100330000D02*
X179973922Y-100330000D01*
X172593000Y-106680000D02*
X178943000Y-100330000D01*
D26*
%TO.N,GND*%
X208047500Y-92456000D02*
X208047500Y-96012000D01*
X208047500Y-98638500D02*
X209358000Y-99949000D01*
X208047500Y-96012000D02*
X208047500Y-98638500D01*
D27*
X193289000Y-80491500D02*
X193061500Y-80264000D01*
X193289000Y-84275000D02*
X193289000Y-80491500D01*
X193061500Y-76708000D02*
X193061500Y-80264000D01*
X193040000Y-76686500D02*
X193061500Y-76708000D01*
X193040000Y-70612000D02*
X193040000Y-76686500D01*
D28*
X212180000Y-90080000D02*
X211455000Y-90805000D01*
X212815000Y-90080000D02*
X212180000Y-90080000D01*
X167132000Y-90170000D02*
X163195000Y-90170000D01*
D29*
X164973000Y-111760000D02*
X164973000Y-109220000D01*
X164973000Y-109220000D02*
X141605000Y-109220000D01*
X156210000Y-110490000D02*
X156210000Y-109220000D01*
X166624000Y-120904000D02*
X156210000Y-110490000D01*
X166624000Y-122936000D02*
X166624000Y-120904000D01*
D26*
%TO.N,Net-(D1-Pad2)*%
X214621000Y-107806000D02*
X214096000Y-108331000D01*
X214621000Y-103759000D02*
X214621000Y-107806000D01*
%TO.N,/SDDet*%
X212212098Y-95510000D02*
X212815000Y-95510000D01*
X211674499Y-96047599D02*
X212212098Y-95510000D01*
X212036011Y-97733913D02*
X211674499Y-97372401D01*
X215503916Y-102668490D02*
X212036011Y-99200585D01*
X212036011Y-99200585D02*
X212036011Y-97733913D01*
X215580490Y-102668490D02*
X215503916Y-102668490D01*
X216671000Y-103759000D02*
X215580490Y-102668490D01*
X211674499Y-97372401D02*
X211674499Y-96047599D01*
%TO.N,Net-(D2-Pad2)*%
X221479000Y-107806000D02*
X220954000Y-108331000D01*
X221479000Y-103759000D02*
X221479000Y-107806000D01*
%TO.N,/WRPrt*%
X221370000Y-101600000D02*
X223529000Y-103759000D01*
X215257098Y-101600000D02*
X221370000Y-101600000D01*
X212815000Y-99157902D02*
X215257098Y-101600000D01*
X212815000Y-96710000D02*
X212815000Y-99157902D01*
D29*
%TO.N,/B+*%
X141605000Y-106680000D02*
X164973000Y-106680000D01*
X156210000Y-76835000D02*
X156210000Y-106680000D01*
X163195000Y-69850000D02*
X156210000Y-76835000D01*
X175498000Y-69850000D02*
X163195000Y-69850000D01*
X176530000Y-70882000D02*
X175498000Y-69850000D01*
X176530000Y-72898000D02*
X176530000Y-70882000D01*
D26*
%TO.N,/SPI-SCK*%
X207899000Y-101219000D02*
X207010000Y-100330000D01*
X209358000Y-101219000D02*
X207899000Y-101219000D01*
X210185000Y-90210000D02*
X212815000Y-87580000D01*
X210873990Y-98215237D02*
X210185000Y-97526247D01*
X210873990Y-100911010D02*
X210873990Y-98215237D01*
X210566000Y-101219000D02*
X210873990Y-100911010D01*
X210185000Y-97526247D02*
X210185000Y-90210000D01*
X209358000Y-101219000D02*
X210566000Y-101219000D01*
%TO.N,/SPI-MOSI*%
X214630000Y-93980000D02*
X214630000Y-93980000D01*
X210566000Y-103759000D02*
X212725000Y-101600000D01*
X209358000Y-103759000D02*
X210566000Y-103759000D01*
X214630000Y-80645000D02*
X214630000Y-93980000D01*
X213995000Y-80010000D02*
X214630000Y-80645000D01*
X212885000Y-80010000D02*
X213995000Y-80010000D01*
X212815000Y-80080000D02*
X212885000Y-80010000D01*
%TO.N,/SPI-CS1*%
X211674499Y-78720501D02*
X212815000Y-77580000D01*
X205383000Y-102489000D02*
X206219499Y-101652501D01*
X206219499Y-101652501D02*
X206219499Y-98959173D01*
X212082098Y-86360000D02*
X213487902Y-86360000D01*
X206219499Y-98959173D02*
X207069490Y-98109182D01*
X207069490Y-98109182D02*
X207069490Y-91372608D01*
X204408000Y-102489000D02*
X205383000Y-102489000D01*
X213467902Y-81280000D02*
X212062098Y-81280000D01*
X212062098Y-81280000D02*
X211674499Y-80892401D01*
X207069490Y-91372608D02*
X212082098Y-86360000D01*
X213487902Y-86360000D02*
X213995000Y-85852902D01*
X213995000Y-85852902D02*
X213995000Y-81807098D01*
X213995000Y-81807098D02*
X213467902Y-81280000D01*
X211674499Y-80892401D02*
X211674499Y-78720501D01*
D28*
%TO.N,Net-(J4-Pad2)*%
X204851000Y-119634000D02*
X204851000Y-115596000D01*
D29*
%TO.N,Net-(JP1-Pad1)*%
X154559000Y-122936000D02*
X164084000Y-122936000D01*
%TO.N,Net-(Q1-Pad3)*%
X179070000Y-74295000D02*
X179070000Y-72898000D01*
X167132000Y-85090000D02*
X168275000Y-85090000D01*
X166972000Y-84930000D02*
X167132000Y-85090000D01*
X168275000Y-85090000D02*
X179070000Y-74295000D01*
X179070000Y-70643750D02*
X179070000Y-72898000D01*
X175482250Y-67056000D02*
X179070000Y-70643750D01*
X154559000Y-67056000D02*
X175482250Y-67056000D01*
%TO.N,Net-(Q1-Pad1)*%
X173990000Y-75692000D02*
X167132000Y-82550000D01*
X173990000Y-72898000D02*
X173990000Y-75692000D01*
D28*
%TO.N,/RESET*%
X208383000Y-105029000D02*
X209358000Y-105029000D01*
X205837010Y-107574990D02*
X208383000Y-105029000D01*
X205837010Y-111509990D02*
X205837010Y-107574990D01*
X204851000Y-112496000D02*
X205837010Y-111509990D01*
%TO.N,Net-(RV1-Pad2)*%
X167132000Y-87630000D02*
X167132000Y-87536000D01*
X163195000Y-87630000D02*
X167132000Y-87630000D01*
%TD*%
D30*
%TO.N,GND*%
X153389256Y-65630662D02*
X153133662Y-65886256D01*
X152932844Y-66186801D01*
X152794518Y-66520750D01*
X152724000Y-66875268D01*
X152724000Y-67236732D01*
X152794518Y-67591250D01*
X152932844Y-67925199D01*
X153133662Y-68225744D01*
X153389256Y-68481338D01*
X153689801Y-68682156D01*
X154023750Y-68820482D01*
X154378268Y-68891000D01*
X154739732Y-68891000D01*
X155094250Y-68820482D01*
X155428199Y-68682156D01*
X155728744Y-68481338D01*
X155984338Y-68225744D01*
X156002208Y-68199000D01*
X175008805Y-68199000D01*
X175512726Y-68702921D01*
X175498000Y-68701471D01*
X175441861Y-68707000D01*
X163251139Y-68707000D01*
X163195000Y-68701471D01*
X163138861Y-68707000D01*
X163138854Y-68707000D01*
X162991517Y-68721512D01*
X162970932Y-68723539D01*
X162755476Y-68788897D01*
X162696385Y-68820482D01*
X162556911Y-68895032D01*
X162382867Y-69037867D01*
X162347077Y-69081477D01*
X155441483Y-75987072D01*
X155397867Y-76022867D01*
X155255032Y-76196912D01*
X155148897Y-76395478D01*
X155083539Y-76610934D01*
X155067000Y-76778855D01*
X155067000Y-76778861D01*
X155061471Y-76835000D01*
X155067000Y-76891139D01*
X155067001Y-105537000D01*
X143018407Y-105537000D01*
X142985537Y-105475506D01*
X142906185Y-105378815D01*
X142809494Y-105299463D01*
X142699180Y-105240498D01*
X142579482Y-105204188D01*
X142455000Y-105191928D01*
X140755000Y-105191928D01*
X140630518Y-105204188D01*
X140510820Y-105240498D01*
X140400506Y-105299463D01*
X140303815Y-105378815D01*
X140224463Y-105475506D01*
X140165498Y-105585820D01*
X140129188Y-105705518D01*
X140116928Y-105830000D01*
X140116928Y-107530000D01*
X140129188Y-107654482D01*
X140165498Y-107774180D01*
X140224463Y-107884494D01*
X140303815Y-107981185D01*
X140400506Y-108060537D01*
X140510820Y-108119502D01*
X140588579Y-108143090D01*
X140425312Y-108318009D01*
X140272010Y-108565486D01*
X140199632Y-108740245D01*
X140303300Y-108966000D01*
X141351000Y-108966000D01*
X141351000Y-108946000D01*
X141859000Y-108946000D01*
X141859000Y-108966000D01*
X142906700Y-108966000D01*
X143010368Y-108740245D01*
X142937990Y-108565486D01*
X142784688Y-108318009D01*
X142621421Y-108143090D01*
X142699180Y-108119502D01*
X142809494Y-108060537D01*
X142906185Y-107981185D01*
X142985537Y-107884494D01*
X143018407Y-107823000D01*
X156153854Y-107823000D01*
X156210000Y-107828530D01*
X156266146Y-107823000D01*
X164169088Y-107823000D01*
X164311273Y-107918005D01*
X164382326Y-107947436D01*
X164367001Y-107953784D01*
X164290766Y-108178556D01*
X164973000Y-108860790D01*
X165655234Y-108178556D01*
X165578999Y-107953784D01*
X165562664Y-107947855D01*
X165634727Y-107918005D01*
X165863535Y-107765120D01*
X166058120Y-107570535D01*
X166211005Y-107341727D01*
X166316314Y-107087490D01*
X166370000Y-106817592D01*
X166370000Y-106542408D01*
X166316314Y-106272510D01*
X166211005Y-106018273D01*
X166058120Y-105789465D01*
X165863535Y-105594880D01*
X165634727Y-105441995D01*
X165557485Y-105410000D01*
X165634727Y-105378005D01*
X165863535Y-105225120D01*
X165932655Y-105156000D01*
X166584098Y-105156000D01*
X166634000Y-105160915D01*
X166683902Y-105156000D01*
X166833171Y-105141298D01*
X167024687Y-105083202D01*
X167201190Y-104988860D01*
X167355896Y-104861896D01*
X167387712Y-104823128D01*
X169677000Y-102533840D01*
X171196000Y-104052841D01*
X171196000Y-104277592D01*
X171249686Y-104547490D01*
X171354995Y-104801727D01*
X171507880Y-105030535D01*
X171702465Y-105225120D01*
X171931273Y-105378005D01*
X172008515Y-105410000D01*
X171931273Y-105441995D01*
X171702465Y-105594880D01*
X171507880Y-105789465D01*
X171354995Y-106018273D01*
X171249686Y-106272510D01*
X171196000Y-106542408D01*
X171196000Y-106817592D01*
X171249686Y-107087490D01*
X171354995Y-107341727D01*
X171507880Y-107570535D01*
X171702465Y-107765120D01*
X171931273Y-107918005D01*
X172008515Y-107950000D01*
X171931273Y-107981995D01*
X171702465Y-108134880D01*
X171507880Y-108329465D01*
X171354995Y-108558273D01*
X171249686Y-108812510D01*
X171196000Y-109082408D01*
X171196000Y-109357592D01*
X171249686Y-109627490D01*
X171354995Y-109881727D01*
X171507880Y-110110535D01*
X171702465Y-110305120D01*
X171931273Y-110458005D01*
X172008515Y-110490000D01*
X171931273Y-110521995D01*
X171702465Y-110674880D01*
X171507880Y-110869465D01*
X171354995Y-111098273D01*
X171249686Y-111352510D01*
X171196000Y-111622408D01*
X171196000Y-111897592D01*
X171249686Y-112167490D01*
X171354995Y-112421727D01*
X171507880Y-112650535D01*
X171702465Y-112845120D01*
X171931273Y-112998005D01*
X172185510Y-113103314D01*
X172455408Y-113157000D01*
X172730592Y-113157000D01*
X173000490Y-113103314D01*
X173254727Y-112998005D01*
X173483535Y-112845120D01*
X173678120Y-112650535D01*
X173679146Y-112649000D01*
X175133000Y-112649000D01*
X175133000Y-124968000D01*
X139827000Y-124968000D01*
X139827000Y-121699872D01*
X140640000Y-121699872D01*
X140640000Y-122140128D01*
X140725890Y-122571925D01*
X140894369Y-122978669D01*
X141138962Y-123344729D01*
X141450271Y-123656038D01*
X141816331Y-123900631D01*
X142223075Y-124069110D01*
X142654872Y-124155000D01*
X143095128Y-124155000D01*
X143526925Y-124069110D01*
X143933669Y-123900631D01*
X144299729Y-123656038D01*
X144611038Y-123344729D01*
X144855631Y-122978669D01*
X144948166Y-122755268D01*
X152724000Y-122755268D01*
X152724000Y-123116732D01*
X152794518Y-123471250D01*
X152932844Y-123805199D01*
X153133662Y-124105744D01*
X153389256Y-124361338D01*
X153689801Y-124562156D01*
X154023750Y-124700482D01*
X154378268Y-124771000D01*
X154739732Y-124771000D01*
X155094250Y-124700482D01*
X155428199Y-124562156D01*
X155728744Y-124361338D01*
X155984338Y-124105744D01*
X156002208Y-124079000D01*
X162670593Y-124079000D01*
X162703463Y-124140494D01*
X162782815Y-124237185D01*
X162879506Y-124316537D01*
X162989820Y-124375502D01*
X163109518Y-124411812D01*
X163234000Y-124424072D01*
X164934000Y-124424072D01*
X165058482Y-124411812D01*
X165178180Y-124375502D01*
X165288494Y-124316537D01*
X165385185Y-124237185D01*
X165464537Y-124140494D01*
X165523502Y-124030180D01*
X165547090Y-123952421D01*
X165722009Y-124115688D01*
X165969486Y-124268990D01*
X166144245Y-124341368D01*
X166370000Y-124237700D01*
X166370000Y-123190000D01*
X166878000Y-123190000D01*
X166878000Y-124237700D01*
X167103755Y-124341368D01*
X167278514Y-124268990D01*
X167525991Y-124115688D01*
X167738805Y-123917051D01*
X167908778Y-123680713D01*
X168029378Y-123415756D01*
X167928376Y-123190000D01*
X166878000Y-123190000D01*
X166370000Y-123190000D01*
X166350000Y-123190000D01*
X166350000Y-122682000D01*
X166370000Y-122682000D01*
X166370000Y-121634300D01*
X166878000Y-121634300D01*
X166878000Y-122682000D01*
X167928376Y-122682000D01*
X168029378Y-122456244D01*
X167908778Y-122191287D01*
X167738805Y-121954949D01*
X167525991Y-121756312D01*
X167278514Y-121603010D01*
X167103755Y-121530632D01*
X166878000Y-121634300D01*
X166370000Y-121634300D01*
X166144245Y-121530632D01*
X165969486Y-121603010D01*
X165722009Y-121756312D01*
X165547090Y-121919579D01*
X165523502Y-121841820D01*
X165464537Y-121731506D01*
X165385185Y-121634815D01*
X165288494Y-121555463D01*
X165178180Y-121496498D01*
X165058482Y-121460188D01*
X164934000Y-121447928D01*
X163234000Y-121447928D01*
X163109518Y-121460188D01*
X162989820Y-121496498D01*
X162879506Y-121555463D01*
X162782815Y-121634815D01*
X162703463Y-121731506D01*
X162670593Y-121793000D01*
X156002208Y-121793000D01*
X155984338Y-121766256D01*
X155728744Y-121510662D01*
X155428199Y-121309844D01*
X155094250Y-121171518D01*
X154739732Y-121101000D01*
X154378268Y-121101000D01*
X154023750Y-121171518D01*
X153689801Y-121309844D01*
X153389256Y-121510662D01*
X153133662Y-121766256D01*
X152932844Y-122066801D01*
X152794518Y-122400750D01*
X152724000Y-122755268D01*
X144948166Y-122755268D01*
X145024110Y-122571925D01*
X145110000Y-122140128D01*
X145110000Y-121699872D01*
X145024110Y-121268075D01*
X144855631Y-120861331D01*
X144611038Y-120495271D01*
X144299729Y-120183962D01*
X143933669Y-119939369D01*
X143526925Y-119770890D01*
X143095128Y-119685000D01*
X142654872Y-119685000D01*
X142223075Y-119770890D01*
X141816331Y-119939369D01*
X141450271Y-120183962D01*
X141138962Y-120495271D01*
X140894369Y-120861331D01*
X140725890Y-121268075D01*
X140640000Y-121699872D01*
X139827000Y-121699872D01*
X139827000Y-112801444D01*
X164290766Y-112801444D01*
X164367001Y-113026216D01*
X164625671Y-113120111D01*
X164897690Y-113161737D01*
X165172602Y-113149495D01*
X165439843Y-113083855D01*
X165578999Y-113026216D01*
X165655234Y-112801444D01*
X164973000Y-112119210D01*
X164290766Y-112801444D01*
X139827000Y-112801444D01*
X139827000Y-111684690D01*
X163571263Y-111684690D01*
X163583505Y-111959602D01*
X163649145Y-112226843D01*
X163706784Y-112365999D01*
X163931556Y-112442234D01*
X164613790Y-111760000D01*
X165332210Y-111760000D01*
X166014444Y-112442234D01*
X166239216Y-112365999D01*
X166333111Y-112107329D01*
X166374737Y-111835310D01*
X166362495Y-111560398D01*
X166296855Y-111293157D01*
X166239216Y-111154001D01*
X166014444Y-111077766D01*
X165332210Y-111760000D01*
X164613790Y-111760000D01*
X163931556Y-111077766D01*
X163706784Y-111154001D01*
X163612889Y-111412671D01*
X163571263Y-111684690D01*
X139827000Y-111684690D01*
X139827000Y-109699755D01*
X140199632Y-109699755D01*
X140272010Y-109874514D01*
X140425312Y-110121991D01*
X140623949Y-110334805D01*
X140860287Y-110504778D01*
X141125244Y-110625378D01*
X141351000Y-110524376D01*
X141351000Y-109474000D01*
X141859000Y-109474000D01*
X141859000Y-110524376D01*
X142084756Y-110625378D01*
X142349713Y-110504778D01*
X142586051Y-110334805D01*
X142654524Y-110261444D01*
X164290766Y-110261444D01*
X164367001Y-110486216D01*
X164376739Y-110489751D01*
X164367001Y-110493784D01*
X164290766Y-110718556D01*
X164973000Y-111400790D01*
X165655234Y-110718556D01*
X165578999Y-110493784D01*
X165569261Y-110490249D01*
X165578999Y-110486216D01*
X165655234Y-110261444D01*
X164973000Y-109579210D01*
X164290766Y-110261444D01*
X142654524Y-110261444D01*
X142784688Y-110121991D01*
X142937990Y-109874514D01*
X143010368Y-109699755D01*
X142906700Y-109474000D01*
X141859000Y-109474000D01*
X141351000Y-109474000D01*
X140303300Y-109474000D01*
X140199632Y-109699755D01*
X139827000Y-109699755D01*
X139827000Y-109144690D01*
X163571263Y-109144690D01*
X163583505Y-109419602D01*
X163649145Y-109686843D01*
X163706784Y-109825999D01*
X163931556Y-109902234D01*
X164613790Y-109220000D01*
X165332210Y-109220000D01*
X166014444Y-109902234D01*
X166239216Y-109825999D01*
X166333111Y-109567329D01*
X166374737Y-109295310D01*
X166362495Y-109020398D01*
X166296855Y-108753157D01*
X166239216Y-108614001D01*
X166014444Y-108537766D01*
X165332210Y-109220000D01*
X164613790Y-109220000D01*
X163931556Y-108537766D01*
X163706784Y-108614001D01*
X163612889Y-108872671D01*
X163571263Y-109144690D01*
X139827000Y-109144690D01*
X139827000Y-68359872D01*
X140640000Y-68359872D01*
X140640000Y-68800128D01*
X140725890Y-69231925D01*
X140894369Y-69638669D01*
X141138962Y-70004729D01*
X141450271Y-70316038D01*
X141816331Y-70560631D01*
X142223075Y-70729110D01*
X142654872Y-70815000D01*
X143095128Y-70815000D01*
X143526925Y-70729110D01*
X143933669Y-70560631D01*
X144299729Y-70316038D01*
X144611038Y-70004729D01*
X144855631Y-69638669D01*
X145024110Y-69231925D01*
X145110000Y-68800128D01*
X145110000Y-68359872D01*
X145024110Y-67928075D01*
X144855631Y-67521331D01*
X144611038Y-67155271D01*
X144299729Y-66843962D01*
X143933669Y-66599369D01*
X143526925Y-66430890D01*
X143095128Y-66345000D01*
X142654872Y-66345000D01*
X142223075Y-66430890D01*
X141816331Y-66599369D01*
X141450271Y-66843962D01*
X141138962Y-67155271D01*
X140894369Y-67521331D01*
X140725890Y-67928075D01*
X140640000Y-68359872D01*
X139827000Y-68359872D01*
X139827000Y-65532000D01*
X153536914Y-65532000D01*
X153389256Y-65630662D01*
%TA.AperFunction,Conductor*%
D31*
G36*
X153389256Y-65630662D02*
G01*
X153133662Y-65886256D01*
X152932844Y-66186801D01*
X152794518Y-66520750D01*
X152724000Y-66875268D01*
X152724000Y-67236732D01*
X152794518Y-67591250D01*
X152932844Y-67925199D01*
X153133662Y-68225744D01*
X153389256Y-68481338D01*
X153689801Y-68682156D01*
X154023750Y-68820482D01*
X154378268Y-68891000D01*
X154739732Y-68891000D01*
X155094250Y-68820482D01*
X155428199Y-68682156D01*
X155728744Y-68481338D01*
X155984338Y-68225744D01*
X156002208Y-68199000D01*
X175008805Y-68199000D01*
X175512726Y-68702921D01*
X175498000Y-68701471D01*
X175441861Y-68707000D01*
X163251139Y-68707000D01*
X163195000Y-68701471D01*
X163138861Y-68707000D01*
X163138854Y-68707000D01*
X162991517Y-68721512D01*
X162970932Y-68723539D01*
X162755476Y-68788897D01*
X162696385Y-68820482D01*
X162556911Y-68895032D01*
X162382867Y-69037867D01*
X162347077Y-69081477D01*
X155441483Y-75987072D01*
X155397867Y-76022867D01*
X155255032Y-76196912D01*
X155148897Y-76395478D01*
X155083539Y-76610934D01*
X155067000Y-76778855D01*
X155067000Y-76778861D01*
X155061471Y-76835000D01*
X155067000Y-76891139D01*
X155067001Y-105537000D01*
X143018407Y-105537000D01*
X142985537Y-105475506D01*
X142906185Y-105378815D01*
X142809494Y-105299463D01*
X142699180Y-105240498D01*
X142579482Y-105204188D01*
X142455000Y-105191928D01*
X140755000Y-105191928D01*
X140630518Y-105204188D01*
X140510820Y-105240498D01*
X140400506Y-105299463D01*
X140303815Y-105378815D01*
X140224463Y-105475506D01*
X140165498Y-105585820D01*
X140129188Y-105705518D01*
X140116928Y-105830000D01*
X140116928Y-107530000D01*
X140129188Y-107654482D01*
X140165498Y-107774180D01*
X140224463Y-107884494D01*
X140303815Y-107981185D01*
X140400506Y-108060537D01*
X140510820Y-108119502D01*
X140588579Y-108143090D01*
X140425312Y-108318009D01*
X140272010Y-108565486D01*
X140199632Y-108740245D01*
X140303300Y-108966000D01*
X141351000Y-108966000D01*
X141351000Y-108946000D01*
X141859000Y-108946000D01*
X141859000Y-108966000D01*
X142906700Y-108966000D01*
X143010368Y-108740245D01*
X142937990Y-108565486D01*
X142784688Y-108318009D01*
X142621421Y-108143090D01*
X142699180Y-108119502D01*
X142809494Y-108060537D01*
X142906185Y-107981185D01*
X142985537Y-107884494D01*
X143018407Y-107823000D01*
X156153854Y-107823000D01*
X156210000Y-107828530D01*
X156266146Y-107823000D01*
X164169088Y-107823000D01*
X164311273Y-107918005D01*
X164382326Y-107947436D01*
X164367001Y-107953784D01*
X164290766Y-108178556D01*
X164973000Y-108860790D01*
X165655234Y-108178556D01*
X165578999Y-107953784D01*
X165562664Y-107947855D01*
X165634727Y-107918005D01*
X165863535Y-107765120D01*
X166058120Y-107570535D01*
X166211005Y-107341727D01*
X166316314Y-107087490D01*
X166370000Y-106817592D01*
X166370000Y-106542408D01*
X166316314Y-106272510D01*
X166211005Y-106018273D01*
X166058120Y-105789465D01*
X165863535Y-105594880D01*
X165634727Y-105441995D01*
X165557485Y-105410000D01*
X165634727Y-105378005D01*
X165863535Y-105225120D01*
X165932655Y-105156000D01*
X166584098Y-105156000D01*
X166634000Y-105160915D01*
X166683902Y-105156000D01*
X166833171Y-105141298D01*
X167024687Y-105083202D01*
X167201190Y-104988860D01*
X167355896Y-104861896D01*
X167387712Y-104823128D01*
X169677000Y-102533840D01*
X171196000Y-104052841D01*
X171196000Y-104277592D01*
X171249686Y-104547490D01*
X171354995Y-104801727D01*
X171507880Y-105030535D01*
X171702465Y-105225120D01*
X171931273Y-105378005D01*
X172008515Y-105410000D01*
X171931273Y-105441995D01*
X171702465Y-105594880D01*
X171507880Y-105789465D01*
X171354995Y-106018273D01*
X171249686Y-106272510D01*
X171196000Y-106542408D01*
X171196000Y-106817592D01*
X171249686Y-107087490D01*
X171354995Y-107341727D01*
X171507880Y-107570535D01*
X171702465Y-107765120D01*
X171931273Y-107918005D01*
X172008515Y-107950000D01*
X171931273Y-107981995D01*
X171702465Y-108134880D01*
X171507880Y-108329465D01*
X171354995Y-108558273D01*
X171249686Y-108812510D01*
X171196000Y-109082408D01*
X171196000Y-109357592D01*
X171249686Y-109627490D01*
X171354995Y-109881727D01*
X171507880Y-110110535D01*
X171702465Y-110305120D01*
X171931273Y-110458005D01*
X172008515Y-110490000D01*
X171931273Y-110521995D01*
X171702465Y-110674880D01*
X171507880Y-110869465D01*
X171354995Y-111098273D01*
X171249686Y-111352510D01*
X171196000Y-111622408D01*
X171196000Y-111897592D01*
X171249686Y-112167490D01*
X171354995Y-112421727D01*
X171507880Y-112650535D01*
X171702465Y-112845120D01*
X171931273Y-112998005D01*
X172185510Y-113103314D01*
X172455408Y-113157000D01*
X172730592Y-113157000D01*
X173000490Y-113103314D01*
X173254727Y-112998005D01*
X173483535Y-112845120D01*
X173678120Y-112650535D01*
X173679146Y-112649000D01*
X175133000Y-112649000D01*
X175133000Y-124968000D01*
X139827000Y-124968000D01*
X139827000Y-121699872D01*
X140640000Y-121699872D01*
X140640000Y-122140128D01*
X140725890Y-122571925D01*
X140894369Y-122978669D01*
X141138962Y-123344729D01*
X141450271Y-123656038D01*
X141816331Y-123900631D01*
X142223075Y-124069110D01*
X142654872Y-124155000D01*
X143095128Y-124155000D01*
X143526925Y-124069110D01*
X143933669Y-123900631D01*
X144299729Y-123656038D01*
X144611038Y-123344729D01*
X144855631Y-122978669D01*
X144948166Y-122755268D01*
X152724000Y-122755268D01*
X152724000Y-123116732D01*
X152794518Y-123471250D01*
X152932844Y-123805199D01*
X153133662Y-124105744D01*
X153389256Y-124361338D01*
X153689801Y-124562156D01*
X154023750Y-124700482D01*
X154378268Y-124771000D01*
X154739732Y-124771000D01*
X155094250Y-124700482D01*
X155428199Y-124562156D01*
X155728744Y-124361338D01*
X155984338Y-124105744D01*
X156002208Y-124079000D01*
X162670593Y-124079000D01*
X162703463Y-124140494D01*
X162782815Y-124237185D01*
X162879506Y-124316537D01*
X162989820Y-124375502D01*
X163109518Y-124411812D01*
X163234000Y-124424072D01*
X164934000Y-124424072D01*
X165058482Y-124411812D01*
X165178180Y-124375502D01*
X165288494Y-124316537D01*
X165385185Y-124237185D01*
X165464537Y-124140494D01*
X165523502Y-124030180D01*
X165547090Y-123952421D01*
X165722009Y-124115688D01*
X165969486Y-124268990D01*
X166144245Y-124341368D01*
X166370000Y-124237700D01*
X166370000Y-123190000D01*
X166878000Y-123190000D01*
X166878000Y-124237700D01*
X167103755Y-124341368D01*
X167278514Y-124268990D01*
X167525991Y-124115688D01*
X167738805Y-123917051D01*
X167908778Y-123680713D01*
X168029378Y-123415756D01*
X167928376Y-123190000D01*
X166878000Y-123190000D01*
X166370000Y-123190000D01*
X166350000Y-123190000D01*
X166350000Y-122682000D01*
X166370000Y-122682000D01*
X166370000Y-121634300D01*
X166878000Y-121634300D01*
X166878000Y-122682000D01*
X167928376Y-122682000D01*
X168029378Y-122456244D01*
X167908778Y-122191287D01*
X167738805Y-121954949D01*
X167525991Y-121756312D01*
X167278514Y-121603010D01*
X167103755Y-121530632D01*
X166878000Y-121634300D01*
X166370000Y-121634300D01*
X166144245Y-121530632D01*
X165969486Y-121603010D01*
X165722009Y-121756312D01*
X165547090Y-121919579D01*
X165523502Y-121841820D01*
X165464537Y-121731506D01*
X165385185Y-121634815D01*
X165288494Y-121555463D01*
X165178180Y-121496498D01*
X165058482Y-121460188D01*
X164934000Y-121447928D01*
X163234000Y-121447928D01*
X163109518Y-121460188D01*
X162989820Y-121496498D01*
X162879506Y-121555463D01*
X162782815Y-121634815D01*
X162703463Y-121731506D01*
X162670593Y-121793000D01*
X156002208Y-121793000D01*
X155984338Y-121766256D01*
X155728744Y-121510662D01*
X155428199Y-121309844D01*
X155094250Y-121171518D01*
X154739732Y-121101000D01*
X154378268Y-121101000D01*
X154023750Y-121171518D01*
X153689801Y-121309844D01*
X153389256Y-121510662D01*
X153133662Y-121766256D01*
X152932844Y-122066801D01*
X152794518Y-122400750D01*
X152724000Y-122755268D01*
X144948166Y-122755268D01*
X145024110Y-122571925D01*
X145110000Y-122140128D01*
X145110000Y-121699872D01*
X145024110Y-121268075D01*
X144855631Y-120861331D01*
X144611038Y-120495271D01*
X144299729Y-120183962D01*
X143933669Y-119939369D01*
X143526925Y-119770890D01*
X143095128Y-119685000D01*
X142654872Y-119685000D01*
X142223075Y-119770890D01*
X141816331Y-119939369D01*
X141450271Y-120183962D01*
X141138962Y-120495271D01*
X140894369Y-120861331D01*
X140725890Y-121268075D01*
X140640000Y-121699872D01*
X139827000Y-121699872D01*
X139827000Y-112801444D01*
X164290766Y-112801444D01*
X164367001Y-113026216D01*
X164625671Y-113120111D01*
X164897690Y-113161737D01*
X165172602Y-113149495D01*
X165439843Y-113083855D01*
X165578999Y-113026216D01*
X165655234Y-112801444D01*
X164973000Y-112119210D01*
X164290766Y-112801444D01*
X139827000Y-112801444D01*
X139827000Y-111684690D01*
X163571263Y-111684690D01*
X163583505Y-111959602D01*
X163649145Y-112226843D01*
X163706784Y-112365999D01*
X163931556Y-112442234D01*
X164613790Y-111760000D01*
X165332210Y-111760000D01*
X166014444Y-112442234D01*
X166239216Y-112365999D01*
X166333111Y-112107329D01*
X166374737Y-111835310D01*
X166362495Y-111560398D01*
X166296855Y-111293157D01*
X166239216Y-111154001D01*
X166014444Y-111077766D01*
X165332210Y-111760000D01*
X164613790Y-111760000D01*
X163931556Y-111077766D01*
X163706784Y-111154001D01*
X163612889Y-111412671D01*
X163571263Y-111684690D01*
X139827000Y-111684690D01*
X139827000Y-109699755D01*
X140199632Y-109699755D01*
X140272010Y-109874514D01*
X140425312Y-110121991D01*
X140623949Y-110334805D01*
X140860287Y-110504778D01*
X141125244Y-110625378D01*
X141351000Y-110524376D01*
X141351000Y-109474000D01*
X141859000Y-109474000D01*
X141859000Y-110524376D01*
X142084756Y-110625378D01*
X142349713Y-110504778D01*
X142586051Y-110334805D01*
X142654524Y-110261444D01*
X164290766Y-110261444D01*
X164367001Y-110486216D01*
X164376739Y-110489751D01*
X164367001Y-110493784D01*
X164290766Y-110718556D01*
X164973000Y-111400790D01*
X165655234Y-110718556D01*
X165578999Y-110493784D01*
X165569261Y-110490249D01*
X165578999Y-110486216D01*
X165655234Y-110261444D01*
X164973000Y-109579210D01*
X164290766Y-110261444D01*
X142654524Y-110261444D01*
X142784688Y-110121991D01*
X142937990Y-109874514D01*
X143010368Y-109699755D01*
X142906700Y-109474000D01*
X141859000Y-109474000D01*
X141351000Y-109474000D01*
X140303300Y-109474000D01*
X140199632Y-109699755D01*
X139827000Y-109699755D01*
X139827000Y-109144690D01*
X163571263Y-109144690D01*
X163583505Y-109419602D01*
X163649145Y-109686843D01*
X163706784Y-109825999D01*
X163931556Y-109902234D01*
X164613790Y-109220000D01*
X165332210Y-109220000D01*
X166014444Y-109902234D01*
X166239216Y-109825999D01*
X166333111Y-109567329D01*
X166374737Y-109295310D01*
X166362495Y-109020398D01*
X166296855Y-108753157D01*
X166239216Y-108614001D01*
X166014444Y-108537766D01*
X165332210Y-109220000D01*
X164613790Y-109220000D01*
X163931556Y-108537766D01*
X163706784Y-108614001D01*
X163612889Y-108872671D01*
X163571263Y-109144690D01*
X139827000Y-109144690D01*
X139827000Y-68359872D01*
X140640000Y-68359872D01*
X140640000Y-68800128D01*
X140725890Y-69231925D01*
X140894369Y-69638669D01*
X141138962Y-70004729D01*
X141450271Y-70316038D01*
X141816331Y-70560631D01*
X142223075Y-70729110D01*
X142654872Y-70815000D01*
X143095128Y-70815000D01*
X143526925Y-70729110D01*
X143933669Y-70560631D01*
X144299729Y-70316038D01*
X144611038Y-70004729D01*
X144855631Y-69638669D01*
X145024110Y-69231925D01*
X145110000Y-68800128D01*
X145110000Y-68359872D01*
X145024110Y-67928075D01*
X144855631Y-67521331D01*
X144611038Y-67155271D01*
X144299729Y-66843962D01*
X143933669Y-66599369D01*
X143526925Y-66430890D01*
X143095128Y-66345000D01*
X142654872Y-66345000D01*
X142223075Y-66430890D01*
X141816331Y-66599369D01*
X141450271Y-66843962D01*
X141138962Y-67155271D01*
X140894369Y-67521331D01*
X140725890Y-67928075D01*
X140640000Y-68359872D01*
X139827000Y-68359872D01*
X139827000Y-65532000D01*
X153536914Y-65532000D01*
X153389256Y-65630662D01*
G37*
%TD.AperFunction*%
D30*
X175387001Y-71355446D02*
X175387001Y-71441329D01*
X175296994Y-71367463D01*
X175186680Y-71308498D01*
X175066982Y-71272188D01*
X174942500Y-71259928D01*
X173037500Y-71259928D01*
X172913018Y-71272188D01*
X172793320Y-71308498D01*
X172683006Y-71367463D01*
X172586315Y-71446815D01*
X172506963Y-71543506D01*
X172447998Y-71653820D01*
X172411688Y-71773518D01*
X172399428Y-71898000D01*
X172399428Y-73898000D01*
X172411688Y-74022482D01*
X172447998Y-74142180D01*
X172506963Y-74252494D01*
X172586315Y-74349185D01*
X172683006Y-74428537D01*
X172793320Y-74487502D01*
X172847001Y-74503786D01*
X172847001Y-75218553D01*
X166892231Y-81173324D01*
X166724510Y-81206686D01*
X166470273Y-81311995D01*
X166241465Y-81464880D01*
X166046880Y-81659465D01*
X165893995Y-81888273D01*
X165788686Y-82142510D01*
X165735000Y-82412408D01*
X165735000Y-82687592D01*
X165788686Y-82957490D01*
X165893995Y-83211727D01*
X166046880Y-83440535D01*
X166241465Y-83635120D01*
X166470273Y-83788005D01*
X166547515Y-83820000D01*
X166470273Y-83851995D01*
X166241465Y-84004880D01*
X166046880Y-84199465D01*
X165893995Y-84428273D01*
X165788686Y-84682510D01*
X165735000Y-84952408D01*
X165735000Y-85227592D01*
X165783417Y-85471000D01*
X164833236Y-85471000D01*
X164683072Y-85320836D01*
X164683072Y-84240000D01*
X164670812Y-84115518D01*
X164634502Y-83995820D01*
X164575537Y-83885506D01*
X164496185Y-83788815D01*
X164399494Y-83709463D01*
X164289180Y-83650498D01*
X164169482Y-83614188D01*
X164045000Y-83601928D01*
X162345000Y-83601928D01*
X162220518Y-83614188D01*
X162100820Y-83650498D01*
X161990506Y-83709463D01*
X161893815Y-83788815D01*
X161814463Y-83885506D01*
X161755498Y-83995820D01*
X161719188Y-84115518D01*
X161706928Y-84240000D01*
X161706928Y-85940000D01*
X161719188Y-86064482D01*
X161755498Y-86184180D01*
X161814463Y-86294494D01*
X161893815Y-86391185D01*
X161990506Y-86470537D01*
X162100820Y-86529502D01*
X162173380Y-86551513D01*
X162041525Y-86683368D01*
X161879010Y-86926589D01*
X161767068Y-87196842D01*
X161710000Y-87483740D01*
X161710000Y-87776260D01*
X161767068Y-88063158D01*
X161879010Y-88333411D01*
X162041525Y-88576632D01*
X162248368Y-88783475D01*
X162426378Y-88902417D01*
X162213949Y-89055195D01*
X162015312Y-89268009D01*
X161862010Y-89515486D01*
X161789632Y-89690245D01*
X161893300Y-89916000D01*
X162941000Y-89916000D01*
X162941000Y-89896000D01*
X163449000Y-89896000D01*
X163449000Y-89916000D01*
X164496700Y-89916000D01*
X164600368Y-89690245D01*
X164527990Y-89515486D01*
X164374688Y-89268009D01*
X164176051Y-89055195D01*
X163963622Y-88902417D01*
X164141632Y-88783475D01*
X164348475Y-88576632D01*
X164386983Y-88519000D01*
X166045854Y-88519000D01*
X166046880Y-88520535D01*
X166241465Y-88715120D01*
X166470273Y-88868005D01*
X166541326Y-88897436D01*
X166526001Y-88903784D01*
X166449766Y-89128556D01*
X167132000Y-89810790D01*
X167814234Y-89128556D01*
X167737999Y-88903784D01*
X167721664Y-88897855D01*
X167793727Y-88868005D01*
X168022535Y-88715120D01*
X168217120Y-88520535D01*
X168370005Y-88291727D01*
X168475314Y-88037490D01*
X168529000Y-87767592D01*
X168529000Y-87492408D01*
X168480583Y-87249000D01*
X170771340Y-87249000D01*
X170815000Y-87253300D01*
X170858660Y-87249000D01*
X170858667Y-87249000D01*
X170989274Y-87236136D01*
X171156851Y-87185303D01*
X171311291Y-87102753D01*
X171446659Y-86991659D01*
X171474499Y-86957736D01*
X173355000Y-85077236D01*
X173355000Y-85227592D01*
X173408686Y-85497490D01*
X173513995Y-85751727D01*
X173666880Y-85980535D01*
X173861465Y-86175120D01*
X174090273Y-86328005D01*
X174167515Y-86360000D01*
X174090273Y-86391995D01*
X173861465Y-86544880D01*
X173666880Y-86739465D01*
X173513995Y-86968273D01*
X173408686Y-87222510D01*
X173355000Y-87492408D01*
X173355000Y-87767592D01*
X173408686Y-88037490D01*
X173513995Y-88291727D01*
X173666880Y-88520535D01*
X173861465Y-88715120D01*
X174090273Y-88868005D01*
X174167515Y-88900000D01*
X174090273Y-88931995D01*
X173861465Y-89084880D01*
X173666880Y-89279465D01*
X173513995Y-89508273D01*
X173408686Y-89762510D01*
X173355000Y-90032408D01*
X173355000Y-90307592D01*
X173408686Y-90577490D01*
X173513995Y-90831727D01*
X173666880Y-91060535D01*
X173861465Y-91255120D01*
X174090273Y-91408005D01*
X174344510Y-91513314D01*
X174614408Y-91567000D01*
X174889592Y-91567000D01*
X175159490Y-91513314D01*
X175413727Y-91408005D01*
X175642535Y-91255120D01*
X175837120Y-91060535D01*
X175990005Y-90831727D01*
X176095314Y-90577490D01*
X176149000Y-90307592D01*
X176149000Y-90032408D01*
X176095314Y-89762510D01*
X175990005Y-89508273D01*
X175837120Y-89279465D01*
X175642535Y-89084880D01*
X175413727Y-88931995D01*
X175336485Y-88900000D01*
X175413727Y-88868005D01*
X175642535Y-88715120D01*
X175837120Y-88520535D01*
X175990005Y-88291727D01*
X176095314Y-88037490D01*
X176149000Y-87767592D01*
X176149000Y-87492408D01*
X176095314Y-87222510D01*
X175990005Y-86968273D01*
X175837120Y-86739465D01*
X175642535Y-86544880D01*
X175413727Y-86391995D01*
X175336485Y-86360000D01*
X175413727Y-86328005D01*
X175642535Y-86175120D01*
X175837120Y-85980535D01*
X175990005Y-85751727D01*
X176095314Y-85497490D01*
X176149000Y-85227592D01*
X176149000Y-84952408D01*
X176095314Y-84682510D01*
X175990005Y-84428273D01*
X175837120Y-84199465D01*
X175642535Y-84004880D01*
X175413727Y-83851995D01*
X175336485Y-83820000D01*
X175413727Y-83788005D01*
X175642535Y-83635120D01*
X175711655Y-83566000D01*
X180173160Y-83566000D01*
X178386872Y-85352288D01*
X178348104Y-85384104D01*
X178221140Y-85538810D01*
X178126798Y-85715314D01*
X178081783Y-85863708D01*
X178068702Y-85906830D01*
X178049085Y-86106000D01*
X178054000Y-86155902D01*
X178054001Y-91019158D01*
X176109160Y-92964000D01*
X172300402Y-92964000D01*
X172250500Y-92959085D01*
X172200598Y-92964000D01*
X172051329Y-92978702D01*
X171859813Y-93036798D01*
X171683310Y-93131140D01*
X171528604Y-93258104D01*
X171496793Y-93296866D01*
X170446732Y-94346928D01*
X169932998Y-94346928D01*
X169759744Y-94363992D01*
X169593148Y-94414528D01*
X169439613Y-94496595D01*
X169305038Y-94607038D01*
X169194595Y-94741613D01*
X169112528Y-94895148D01*
X169061992Y-95061744D01*
X169044928Y-95234998D01*
X169044928Y-96535002D01*
X169061992Y-96708256D01*
X169112528Y-96874852D01*
X169194595Y-97028387D01*
X169305038Y-97162962D01*
X169329500Y-97183038D01*
X169329501Y-98474046D01*
X169309746Y-98475992D01*
X169143150Y-98526528D01*
X168989614Y-98608595D01*
X168855038Y-98719038D01*
X168849658Y-98725594D01*
X168784185Y-98645815D01*
X168687494Y-98566463D01*
X168577180Y-98507498D01*
X168457482Y-98471188D01*
X168333000Y-98458928D01*
X168158250Y-98462000D01*
X167999500Y-98620750D01*
X167999500Y-99568000D01*
X168019500Y-99568000D01*
X168019500Y-100076000D01*
X167999500Y-100076000D01*
X167999500Y-101023250D01*
X168156705Y-101180455D01*
X166213160Y-103124000D01*
X165932655Y-103124000D01*
X165863535Y-103054880D01*
X165634727Y-102901995D01*
X165380490Y-102796686D01*
X165110592Y-102743000D01*
X164835408Y-102743000D01*
X164565510Y-102796686D01*
X164311273Y-102901995D01*
X164082465Y-103054880D01*
X163887880Y-103249465D01*
X163734995Y-103478273D01*
X163629686Y-103732510D01*
X163576000Y-104002408D01*
X163576000Y-104277592D01*
X163629686Y-104547490D01*
X163734995Y-104801727D01*
X163887880Y-105030535D01*
X164082465Y-105225120D01*
X164311273Y-105378005D01*
X164388515Y-105410000D01*
X164311273Y-105441995D01*
X164169088Y-105537000D01*
X157353000Y-105537000D01*
X157353000Y-100547000D01*
X166519928Y-100547000D01*
X166532188Y-100671482D01*
X166568498Y-100791180D01*
X166627463Y-100901494D01*
X166706815Y-100998185D01*
X166803506Y-101077537D01*
X166913820Y-101136502D01*
X167033518Y-101172812D01*
X167158000Y-101185072D01*
X167332750Y-101182000D01*
X167491500Y-101023250D01*
X167491500Y-100076000D01*
X166681750Y-100076000D01*
X166523000Y-100234750D01*
X166519928Y-100547000D01*
X157353000Y-100547000D01*
X157353000Y-99097000D01*
X166519928Y-99097000D01*
X166523000Y-99409250D01*
X166681750Y-99568000D01*
X167491500Y-99568000D01*
X167491500Y-98620750D01*
X167332750Y-98462000D01*
X167158000Y-98458928D01*
X167033518Y-98471188D01*
X166913820Y-98507498D01*
X166803506Y-98566463D01*
X166706815Y-98645815D01*
X166627463Y-98742506D01*
X166568498Y-98852820D01*
X166532188Y-98972518D01*
X166519928Y-99097000D01*
X157353000Y-99097000D01*
X157353000Y-96785000D01*
X165919928Y-96785000D01*
X165932188Y-96909482D01*
X165968498Y-97029180D01*
X166027463Y-97139494D01*
X166106815Y-97236185D01*
X166203506Y-97315537D01*
X166313820Y-97374502D01*
X166433518Y-97410812D01*
X166558000Y-97423072D01*
X166807750Y-97420000D01*
X166966500Y-97261250D01*
X166966500Y-96139000D01*
X167474500Y-96139000D01*
X167474500Y-97261250D01*
X167633250Y-97420000D01*
X167883000Y-97423072D01*
X168007482Y-97410812D01*
X168127180Y-97374502D01*
X168237494Y-97315537D01*
X168334185Y-97236185D01*
X168413537Y-97139494D01*
X168472502Y-97029180D01*
X168508812Y-96909482D01*
X168521072Y-96785000D01*
X168518000Y-96297750D01*
X168359250Y-96139000D01*
X167474500Y-96139000D01*
X166966500Y-96139000D01*
X166081750Y-96139000D01*
X165923000Y-96297750D01*
X165919928Y-96785000D01*
X157353000Y-96785000D01*
X157353000Y-94985000D01*
X165919928Y-94985000D01*
X165923000Y-95472250D01*
X166081750Y-95631000D01*
X166966500Y-95631000D01*
X166966500Y-94508750D01*
X167474500Y-94508750D01*
X167474500Y-95631000D01*
X168359250Y-95631000D01*
X168518000Y-95472250D01*
X168521072Y-94985000D01*
X168508812Y-94860518D01*
X168472502Y-94740820D01*
X168413537Y-94630506D01*
X168334185Y-94533815D01*
X168237494Y-94454463D01*
X168127180Y-94395498D01*
X168007482Y-94359188D01*
X167883000Y-94346928D01*
X167633250Y-94350000D01*
X167474500Y-94508750D01*
X166966500Y-94508750D01*
X166807750Y-94350000D01*
X166558000Y-94346928D01*
X166433518Y-94359188D01*
X166313820Y-94395498D01*
X166203506Y-94454463D01*
X166106815Y-94533815D01*
X166027463Y-94630506D01*
X165968498Y-94740820D01*
X165932188Y-94860518D01*
X165919928Y-94985000D01*
X157353000Y-94985000D01*
X157353000Y-90649755D01*
X161789632Y-90649755D01*
X161862010Y-90824514D01*
X162015312Y-91071991D01*
X162213949Y-91284805D01*
X162450287Y-91454778D01*
X162715244Y-91575378D01*
X162941000Y-91474376D01*
X162941000Y-90424000D01*
X163449000Y-90424000D01*
X163449000Y-91474376D01*
X163674756Y-91575378D01*
X163939713Y-91454778D01*
X164176051Y-91284805D01*
X164244524Y-91211444D01*
X166449766Y-91211444D01*
X166526001Y-91436216D01*
X166784671Y-91530111D01*
X167056690Y-91571737D01*
X167331602Y-91559495D01*
X167598843Y-91493855D01*
X167737999Y-91436216D01*
X167814234Y-91211444D01*
X167132000Y-90529210D01*
X166449766Y-91211444D01*
X164244524Y-91211444D01*
X164374688Y-91071991D01*
X164527990Y-90824514D01*
X164600368Y-90649755D01*
X164496700Y-90424000D01*
X163449000Y-90424000D01*
X162941000Y-90424000D01*
X161893300Y-90424000D01*
X161789632Y-90649755D01*
X157353000Y-90649755D01*
X157353000Y-90094690D01*
X165730263Y-90094690D01*
X165742505Y-90369602D01*
X165808145Y-90636843D01*
X165865784Y-90775999D01*
X166090556Y-90852234D01*
X166772790Y-90170000D01*
X167491210Y-90170000D01*
X168173444Y-90852234D01*
X168398216Y-90775999D01*
X168492111Y-90517329D01*
X168533737Y-90245310D01*
X168521495Y-89970398D01*
X168455855Y-89703157D01*
X168398216Y-89564001D01*
X168173444Y-89487766D01*
X167491210Y-90170000D01*
X166772790Y-90170000D01*
X166090556Y-89487766D01*
X165865784Y-89564001D01*
X165771889Y-89822671D01*
X165730263Y-90094690D01*
X157353000Y-90094690D01*
X157353000Y-77308445D01*
X163668446Y-70993000D01*
X175024555Y-70993000D01*
X175387001Y-71355446D01*
%TA.AperFunction,Conductor*%
D31*
G36*
X175387001Y-71355446D02*
G01*
X175387001Y-71441329D01*
X175296994Y-71367463D01*
X175186680Y-71308498D01*
X175066982Y-71272188D01*
X174942500Y-71259928D01*
X173037500Y-71259928D01*
X172913018Y-71272188D01*
X172793320Y-71308498D01*
X172683006Y-71367463D01*
X172586315Y-71446815D01*
X172506963Y-71543506D01*
X172447998Y-71653820D01*
X172411688Y-71773518D01*
X172399428Y-71898000D01*
X172399428Y-73898000D01*
X172411688Y-74022482D01*
X172447998Y-74142180D01*
X172506963Y-74252494D01*
X172586315Y-74349185D01*
X172683006Y-74428537D01*
X172793320Y-74487502D01*
X172847001Y-74503786D01*
X172847001Y-75218553D01*
X166892231Y-81173324D01*
X166724510Y-81206686D01*
X166470273Y-81311995D01*
X166241465Y-81464880D01*
X166046880Y-81659465D01*
X165893995Y-81888273D01*
X165788686Y-82142510D01*
X165735000Y-82412408D01*
X165735000Y-82687592D01*
X165788686Y-82957490D01*
X165893995Y-83211727D01*
X166046880Y-83440535D01*
X166241465Y-83635120D01*
X166470273Y-83788005D01*
X166547515Y-83820000D01*
X166470273Y-83851995D01*
X166241465Y-84004880D01*
X166046880Y-84199465D01*
X165893995Y-84428273D01*
X165788686Y-84682510D01*
X165735000Y-84952408D01*
X165735000Y-85227592D01*
X165783417Y-85471000D01*
X164833236Y-85471000D01*
X164683072Y-85320836D01*
X164683072Y-84240000D01*
X164670812Y-84115518D01*
X164634502Y-83995820D01*
X164575537Y-83885506D01*
X164496185Y-83788815D01*
X164399494Y-83709463D01*
X164289180Y-83650498D01*
X164169482Y-83614188D01*
X164045000Y-83601928D01*
X162345000Y-83601928D01*
X162220518Y-83614188D01*
X162100820Y-83650498D01*
X161990506Y-83709463D01*
X161893815Y-83788815D01*
X161814463Y-83885506D01*
X161755498Y-83995820D01*
X161719188Y-84115518D01*
X161706928Y-84240000D01*
X161706928Y-85940000D01*
X161719188Y-86064482D01*
X161755498Y-86184180D01*
X161814463Y-86294494D01*
X161893815Y-86391185D01*
X161990506Y-86470537D01*
X162100820Y-86529502D01*
X162173380Y-86551513D01*
X162041525Y-86683368D01*
X161879010Y-86926589D01*
X161767068Y-87196842D01*
X161710000Y-87483740D01*
X161710000Y-87776260D01*
X161767068Y-88063158D01*
X161879010Y-88333411D01*
X162041525Y-88576632D01*
X162248368Y-88783475D01*
X162426378Y-88902417D01*
X162213949Y-89055195D01*
X162015312Y-89268009D01*
X161862010Y-89515486D01*
X161789632Y-89690245D01*
X161893300Y-89916000D01*
X162941000Y-89916000D01*
X162941000Y-89896000D01*
X163449000Y-89896000D01*
X163449000Y-89916000D01*
X164496700Y-89916000D01*
X164600368Y-89690245D01*
X164527990Y-89515486D01*
X164374688Y-89268009D01*
X164176051Y-89055195D01*
X163963622Y-88902417D01*
X164141632Y-88783475D01*
X164348475Y-88576632D01*
X164386983Y-88519000D01*
X166045854Y-88519000D01*
X166046880Y-88520535D01*
X166241465Y-88715120D01*
X166470273Y-88868005D01*
X166541326Y-88897436D01*
X166526001Y-88903784D01*
X166449766Y-89128556D01*
X167132000Y-89810790D01*
X167814234Y-89128556D01*
X167737999Y-88903784D01*
X167721664Y-88897855D01*
X167793727Y-88868005D01*
X168022535Y-88715120D01*
X168217120Y-88520535D01*
X168370005Y-88291727D01*
X168475314Y-88037490D01*
X168529000Y-87767592D01*
X168529000Y-87492408D01*
X168480583Y-87249000D01*
X170771340Y-87249000D01*
X170815000Y-87253300D01*
X170858660Y-87249000D01*
X170858667Y-87249000D01*
X170989274Y-87236136D01*
X171156851Y-87185303D01*
X171311291Y-87102753D01*
X171446659Y-86991659D01*
X171474499Y-86957736D01*
X173355000Y-85077236D01*
X173355000Y-85227592D01*
X173408686Y-85497490D01*
X173513995Y-85751727D01*
X173666880Y-85980535D01*
X173861465Y-86175120D01*
X174090273Y-86328005D01*
X174167515Y-86360000D01*
X174090273Y-86391995D01*
X173861465Y-86544880D01*
X173666880Y-86739465D01*
X173513995Y-86968273D01*
X173408686Y-87222510D01*
X173355000Y-87492408D01*
X173355000Y-87767592D01*
X173408686Y-88037490D01*
X173513995Y-88291727D01*
X173666880Y-88520535D01*
X173861465Y-88715120D01*
X174090273Y-88868005D01*
X174167515Y-88900000D01*
X174090273Y-88931995D01*
X173861465Y-89084880D01*
X173666880Y-89279465D01*
X173513995Y-89508273D01*
X173408686Y-89762510D01*
X173355000Y-90032408D01*
X173355000Y-90307592D01*
X173408686Y-90577490D01*
X173513995Y-90831727D01*
X173666880Y-91060535D01*
X173861465Y-91255120D01*
X174090273Y-91408005D01*
X174344510Y-91513314D01*
X174614408Y-91567000D01*
X174889592Y-91567000D01*
X175159490Y-91513314D01*
X175413727Y-91408005D01*
X175642535Y-91255120D01*
X175837120Y-91060535D01*
X175990005Y-90831727D01*
X176095314Y-90577490D01*
X176149000Y-90307592D01*
X176149000Y-90032408D01*
X176095314Y-89762510D01*
X175990005Y-89508273D01*
X175837120Y-89279465D01*
X175642535Y-89084880D01*
X175413727Y-88931995D01*
X175336485Y-88900000D01*
X175413727Y-88868005D01*
X175642535Y-88715120D01*
X175837120Y-88520535D01*
X175990005Y-88291727D01*
X176095314Y-88037490D01*
X176149000Y-87767592D01*
X176149000Y-87492408D01*
X176095314Y-87222510D01*
X175990005Y-86968273D01*
X175837120Y-86739465D01*
X175642535Y-86544880D01*
X175413727Y-86391995D01*
X175336485Y-86360000D01*
X175413727Y-86328005D01*
X175642535Y-86175120D01*
X175837120Y-85980535D01*
X175990005Y-85751727D01*
X176095314Y-85497490D01*
X176149000Y-85227592D01*
X176149000Y-84952408D01*
X176095314Y-84682510D01*
X175990005Y-84428273D01*
X175837120Y-84199465D01*
X175642535Y-84004880D01*
X175413727Y-83851995D01*
X175336485Y-83820000D01*
X175413727Y-83788005D01*
X175642535Y-83635120D01*
X175711655Y-83566000D01*
X180173160Y-83566000D01*
X178386872Y-85352288D01*
X178348104Y-85384104D01*
X178221140Y-85538810D01*
X178126798Y-85715314D01*
X178081783Y-85863708D01*
X178068702Y-85906830D01*
X178049085Y-86106000D01*
X178054000Y-86155902D01*
X178054001Y-91019158D01*
X176109160Y-92964000D01*
X172300402Y-92964000D01*
X172250500Y-92959085D01*
X172200598Y-92964000D01*
X172051329Y-92978702D01*
X171859813Y-93036798D01*
X171683310Y-93131140D01*
X171528604Y-93258104D01*
X171496793Y-93296866D01*
X170446732Y-94346928D01*
X169932998Y-94346928D01*
X169759744Y-94363992D01*
X169593148Y-94414528D01*
X169439613Y-94496595D01*
X169305038Y-94607038D01*
X169194595Y-94741613D01*
X169112528Y-94895148D01*
X169061992Y-95061744D01*
X169044928Y-95234998D01*
X169044928Y-96535002D01*
X169061992Y-96708256D01*
X169112528Y-96874852D01*
X169194595Y-97028387D01*
X169305038Y-97162962D01*
X169329500Y-97183038D01*
X169329501Y-98474046D01*
X169309746Y-98475992D01*
X169143150Y-98526528D01*
X168989614Y-98608595D01*
X168855038Y-98719038D01*
X168849658Y-98725594D01*
X168784185Y-98645815D01*
X168687494Y-98566463D01*
X168577180Y-98507498D01*
X168457482Y-98471188D01*
X168333000Y-98458928D01*
X168158250Y-98462000D01*
X167999500Y-98620750D01*
X167999500Y-99568000D01*
X168019500Y-99568000D01*
X168019500Y-100076000D01*
X167999500Y-100076000D01*
X167999500Y-101023250D01*
X168156705Y-101180455D01*
X166213160Y-103124000D01*
X165932655Y-103124000D01*
X165863535Y-103054880D01*
X165634727Y-102901995D01*
X165380490Y-102796686D01*
X165110592Y-102743000D01*
X164835408Y-102743000D01*
X164565510Y-102796686D01*
X164311273Y-102901995D01*
X164082465Y-103054880D01*
X163887880Y-103249465D01*
X163734995Y-103478273D01*
X163629686Y-103732510D01*
X163576000Y-104002408D01*
X163576000Y-104277592D01*
X163629686Y-104547490D01*
X163734995Y-104801727D01*
X163887880Y-105030535D01*
X164082465Y-105225120D01*
X164311273Y-105378005D01*
X164388515Y-105410000D01*
X164311273Y-105441995D01*
X164169088Y-105537000D01*
X157353000Y-105537000D01*
X157353000Y-100547000D01*
X166519928Y-100547000D01*
X166532188Y-100671482D01*
X166568498Y-100791180D01*
X166627463Y-100901494D01*
X166706815Y-100998185D01*
X166803506Y-101077537D01*
X166913820Y-101136502D01*
X167033518Y-101172812D01*
X167158000Y-101185072D01*
X167332750Y-101182000D01*
X167491500Y-101023250D01*
X167491500Y-100076000D01*
X166681750Y-100076000D01*
X166523000Y-100234750D01*
X166519928Y-100547000D01*
X157353000Y-100547000D01*
X157353000Y-99097000D01*
X166519928Y-99097000D01*
X166523000Y-99409250D01*
X166681750Y-99568000D01*
X167491500Y-99568000D01*
X167491500Y-98620750D01*
X167332750Y-98462000D01*
X167158000Y-98458928D01*
X167033518Y-98471188D01*
X166913820Y-98507498D01*
X166803506Y-98566463D01*
X166706815Y-98645815D01*
X166627463Y-98742506D01*
X166568498Y-98852820D01*
X166532188Y-98972518D01*
X166519928Y-99097000D01*
X157353000Y-99097000D01*
X157353000Y-96785000D01*
X165919928Y-96785000D01*
X165932188Y-96909482D01*
X165968498Y-97029180D01*
X166027463Y-97139494D01*
X166106815Y-97236185D01*
X166203506Y-97315537D01*
X166313820Y-97374502D01*
X166433518Y-97410812D01*
X166558000Y-97423072D01*
X166807750Y-97420000D01*
X166966500Y-97261250D01*
X166966500Y-96139000D01*
X167474500Y-96139000D01*
X167474500Y-97261250D01*
X167633250Y-97420000D01*
X167883000Y-97423072D01*
X168007482Y-97410812D01*
X168127180Y-97374502D01*
X168237494Y-97315537D01*
X168334185Y-97236185D01*
X168413537Y-97139494D01*
X168472502Y-97029180D01*
X168508812Y-96909482D01*
X168521072Y-96785000D01*
X168518000Y-96297750D01*
X168359250Y-96139000D01*
X167474500Y-96139000D01*
X166966500Y-96139000D01*
X166081750Y-96139000D01*
X165923000Y-96297750D01*
X165919928Y-96785000D01*
X157353000Y-96785000D01*
X157353000Y-94985000D01*
X165919928Y-94985000D01*
X165923000Y-95472250D01*
X166081750Y-95631000D01*
X166966500Y-95631000D01*
X166966500Y-94508750D01*
X167474500Y-94508750D01*
X167474500Y-95631000D01*
X168359250Y-95631000D01*
X168518000Y-95472250D01*
X168521072Y-94985000D01*
X168508812Y-94860518D01*
X168472502Y-94740820D01*
X168413537Y-94630506D01*
X168334185Y-94533815D01*
X168237494Y-94454463D01*
X168127180Y-94395498D01*
X168007482Y-94359188D01*
X167883000Y-94346928D01*
X167633250Y-94350000D01*
X167474500Y-94508750D01*
X166966500Y-94508750D01*
X166807750Y-94350000D01*
X166558000Y-94346928D01*
X166433518Y-94359188D01*
X166313820Y-94395498D01*
X166203506Y-94454463D01*
X166106815Y-94533815D01*
X166027463Y-94630506D01*
X165968498Y-94740820D01*
X165932188Y-94860518D01*
X165919928Y-94985000D01*
X157353000Y-94985000D01*
X157353000Y-90649755D01*
X161789632Y-90649755D01*
X161862010Y-90824514D01*
X162015312Y-91071991D01*
X162213949Y-91284805D01*
X162450287Y-91454778D01*
X162715244Y-91575378D01*
X162941000Y-91474376D01*
X162941000Y-90424000D01*
X163449000Y-90424000D01*
X163449000Y-91474376D01*
X163674756Y-91575378D01*
X163939713Y-91454778D01*
X164176051Y-91284805D01*
X164244524Y-91211444D01*
X166449766Y-91211444D01*
X166526001Y-91436216D01*
X166784671Y-91530111D01*
X167056690Y-91571737D01*
X167331602Y-91559495D01*
X167598843Y-91493855D01*
X167737999Y-91436216D01*
X167814234Y-91211444D01*
X167132000Y-90529210D01*
X166449766Y-91211444D01*
X164244524Y-91211444D01*
X164374688Y-91071991D01*
X164527990Y-90824514D01*
X164600368Y-90649755D01*
X164496700Y-90424000D01*
X163449000Y-90424000D01*
X162941000Y-90424000D01*
X161893300Y-90424000D01*
X161789632Y-90649755D01*
X157353000Y-90649755D01*
X157353000Y-90094690D01*
X165730263Y-90094690D01*
X165742505Y-90369602D01*
X165808145Y-90636843D01*
X165865784Y-90775999D01*
X166090556Y-90852234D01*
X166772790Y-90170000D01*
X167491210Y-90170000D01*
X168173444Y-90852234D01*
X168398216Y-90775999D01*
X168492111Y-90517329D01*
X168533737Y-90245310D01*
X168521495Y-89970398D01*
X168455855Y-89703157D01*
X168398216Y-89564001D01*
X168173444Y-89487766D01*
X167491210Y-90170000D01*
X166772790Y-90170000D01*
X166090556Y-89487766D01*
X165865784Y-89564001D01*
X165771889Y-89822671D01*
X165730263Y-90094690D01*
X157353000Y-90094690D01*
X157353000Y-77308445D01*
X163668446Y-70993000D01*
X175024555Y-70993000D01*
X175387001Y-71355446D01*
G37*
%TD.AperFunction*%
D30*
X182118000Y-77417394D02*
X180250197Y-79285197D01*
X180234403Y-79304443D01*
X180222667Y-79326399D01*
X180215440Y-79350224D01*
X180213000Y-79375000D01*
X180213000Y-81534000D01*
X175711655Y-81534000D01*
X175642535Y-81464880D01*
X175413727Y-81311995D01*
X175159490Y-81206686D01*
X174889592Y-81153000D01*
X174614408Y-81153000D01*
X174344510Y-81206686D01*
X174090273Y-81311995D01*
X173861465Y-81464880D01*
X173666880Y-81659465D01*
X173513995Y-81888273D01*
X173408686Y-82142510D01*
X173355000Y-82412408D01*
X173355000Y-82562764D01*
X170446765Y-85471000D01*
X169510445Y-85471000D01*
X179838524Y-75142922D01*
X179882133Y-75107133D01*
X180024968Y-74933089D01*
X180131103Y-74734523D01*
X180189058Y-74543471D01*
X180196461Y-74519068D01*
X180199570Y-74487502D01*
X180213000Y-74351146D01*
X180213000Y-74351140D01*
X180218529Y-74295001D01*
X180213000Y-74238862D01*
X180213000Y-74055140D01*
X180396345Y-73831734D01*
X180543755Y-73555948D01*
X180634530Y-73256703D01*
X180657500Y-73023485D01*
X180657500Y-72772514D01*
X180634530Y-72539296D01*
X180543755Y-72240051D01*
X180396345Y-71964265D01*
X180213000Y-71740860D01*
X180213000Y-70699889D01*
X180218529Y-70643750D01*
X180213000Y-70587611D01*
X180213000Y-70587604D01*
X180196461Y-70419683D01*
X180156978Y-70289524D01*
X180131103Y-70204226D01*
X180061532Y-70074068D01*
X180024968Y-70005661D01*
X179882133Y-69831617D01*
X179838524Y-69795828D01*
X176330177Y-66287482D01*
X176294383Y-66243867D01*
X176120339Y-66101032D01*
X175921773Y-65994897D01*
X175706317Y-65929539D01*
X175538396Y-65913000D01*
X175538389Y-65913000D01*
X175482250Y-65907471D01*
X175426111Y-65913000D01*
X156002208Y-65913000D01*
X155984338Y-65886256D01*
X155728744Y-65630662D01*
X155581086Y-65532000D01*
X182118000Y-65532000D01*
X182118000Y-77417394D01*
%TA.AperFunction,Conductor*%
D31*
G36*
X182118000Y-77417394D02*
G01*
X180250197Y-79285197D01*
X180234403Y-79304443D01*
X180222667Y-79326399D01*
X180215440Y-79350224D01*
X180213000Y-79375000D01*
X180213000Y-81534000D01*
X175711655Y-81534000D01*
X175642535Y-81464880D01*
X175413727Y-81311995D01*
X175159490Y-81206686D01*
X174889592Y-81153000D01*
X174614408Y-81153000D01*
X174344510Y-81206686D01*
X174090273Y-81311995D01*
X173861465Y-81464880D01*
X173666880Y-81659465D01*
X173513995Y-81888273D01*
X173408686Y-82142510D01*
X173355000Y-82412408D01*
X173355000Y-82562764D01*
X170446765Y-85471000D01*
X169510445Y-85471000D01*
X179838524Y-75142922D01*
X179882133Y-75107133D01*
X180024968Y-74933089D01*
X180131103Y-74734523D01*
X180189058Y-74543471D01*
X180196461Y-74519068D01*
X180199570Y-74487502D01*
X180213000Y-74351146D01*
X180213000Y-74351140D01*
X180218529Y-74295001D01*
X180213000Y-74238862D01*
X180213000Y-74055140D01*
X180396345Y-73831734D01*
X180543755Y-73555948D01*
X180634530Y-73256703D01*
X180657500Y-73023485D01*
X180657500Y-72772514D01*
X180634530Y-72539296D01*
X180543755Y-72240051D01*
X180396345Y-71964265D01*
X180213000Y-71740860D01*
X180213000Y-70699889D01*
X180218529Y-70643750D01*
X180213000Y-70587611D01*
X180213000Y-70587604D01*
X180196461Y-70419683D01*
X180156978Y-70289524D01*
X180131103Y-70204226D01*
X180061532Y-70074068D01*
X180024968Y-70005661D01*
X179882133Y-69831617D01*
X179838524Y-69795828D01*
X176330177Y-66287482D01*
X176294383Y-66243867D01*
X176120339Y-66101032D01*
X175921773Y-65994897D01*
X175706317Y-65929539D01*
X175538396Y-65913000D01*
X175538389Y-65913000D01*
X175482250Y-65907471D01*
X175426111Y-65913000D01*
X156002208Y-65913000D01*
X155984338Y-65886256D01*
X155728744Y-65630662D01*
X155581086Y-65532000D01*
X182118000Y-65532000D01*
X182118000Y-77417394D01*
G37*
%TD.AperFunction*%
%TD*%
D30*
%TO.N,GND*%
X237998000Y-69642582D02*
X237966185Y-69603815D01*
X237869494Y-69524463D01*
X237759180Y-69465498D01*
X237639482Y-69429188D01*
X237515000Y-69416928D01*
X236400750Y-69420000D01*
X236242000Y-69578750D01*
X236242000Y-70678000D01*
X236262000Y-70678000D01*
X236262000Y-70932000D01*
X236242000Y-70932000D01*
X236242000Y-72031250D01*
X236400750Y-72190000D01*
X237515000Y-72193072D01*
X237639482Y-72180812D01*
X237759180Y-72144502D01*
X237869494Y-72085537D01*
X237966185Y-72006185D01*
X237998000Y-71967418D01*
X237998000Y-96942582D01*
X237966185Y-96903815D01*
X237869494Y-96824463D01*
X237759180Y-96765498D01*
X237639482Y-96729188D01*
X237515000Y-96716928D01*
X236400750Y-96720000D01*
X236242000Y-96878750D01*
X236242000Y-97978000D01*
X236262000Y-97978000D01*
X236262000Y-98232000D01*
X236242000Y-98232000D01*
X236242000Y-99331250D01*
X236400750Y-99490000D01*
X237515000Y-99493072D01*
X237639482Y-99480812D01*
X237759180Y-99444502D01*
X237869494Y-99385537D01*
X237966185Y-99306185D01*
X237998000Y-99267418D01*
X237998000Y-124968000D01*
X176022000Y-124968000D01*
X176022000Y-112649000D01*
X183781765Y-112649000D01*
X183948523Y-112815758D01*
X183935000Y-112883740D01*
X183935000Y-113176260D01*
X183992068Y-113463158D01*
X184104010Y-113733411D01*
X184266525Y-113976632D01*
X184473368Y-114183475D01*
X184716589Y-114345990D01*
X184986842Y-114457932D01*
X185273740Y-114515000D01*
X185566260Y-114515000D01*
X185853158Y-114457932D01*
X186123411Y-114345990D01*
X186366632Y-114183475D01*
X186573475Y-113976632D01*
X186735990Y-113733411D01*
X186847932Y-113463158D01*
X186905000Y-113176260D01*
X186905000Y-112883740D01*
X186847932Y-112596842D01*
X186735990Y-112326589D01*
X186573475Y-112083368D01*
X186366632Y-111876525D01*
X186192240Y-111760000D01*
X186366632Y-111643475D01*
X186573475Y-111436632D01*
X186735990Y-111193411D01*
X186847932Y-110923158D01*
X186905000Y-110636260D01*
X186905000Y-110343740D01*
X186847932Y-110056842D01*
X186735990Y-109786589D01*
X186573475Y-109543368D01*
X186366632Y-109336525D01*
X186192240Y-109220000D01*
X186366632Y-109103475D01*
X186573475Y-108896632D01*
X186735990Y-108653411D01*
X186847932Y-108383158D01*
X186905000Y-108096260D01*
X186905000Y-107901841D01*
X187534134Y-107272707D01*
X187572897Y-107240895D01*
X187699861Y-107086189D01*
X187794203Y-106909686D01*
X187852299Y-106718170D01*
X187852299Y-106718169D01*
X187871916Y-106519000D01*
X187867001Y-106469098D01*
X187867001Y-99112776D01*
X187871915Y-99062882D01*
X187867001Y-99012988D01*
X187867001Y-99012981D01*
X187852299Y-98863712D01*
X187794203Y-98672196D01*
X187699861Y-98495693D01*
X187572897Y-98340987D01*
X187534134Y-98309175D01*
X183966959Y-94742000D01*
X189993000Y-94742000D01*
X189993001Y-103329088D01*
X189988085Y-103379000D01*
X190007702Y-103578170D01*
X190065799Y-103769687D01*
X190160141Y-103946190D01*
X190287105Y-104100896D01*
X190325868Y-104132708D01*
X194095000Y-107901841D01*
X194095000Y-108096260D01*
X194108523Y-108164242D01*
X193077259Y-109195506D01*
X193043342Y-109223341D01*
X193015507Y-109257258D01*
X193015505Y-109257260D01*
X192932248Y-109358709D01*
X192849698Y-109513148D01*
X192798864Y-109680726D01*
X192781700Y-109855000D01*
X192786001Y-109898670D01*
X192786000Y-114256340D01*
X192781700Y-114300000D01*
X192786000Y-114343660D01*
X192786000Y-114343666D01*
X192797057Y-114455926D01*
X192797255Y-114457932D01*
X192798864Y-114474273D01*
X192849697Y-114641850D01*
X192932247Y-114796290D01*
X193043341Y-114931659D01*
X193077264Y-114959499D01*
X200000506Y-121882742D01*
X200028341Y-121916659D01*
X200163709Y-122027753D01*
X200318149Y-122110303D01*
X200416471Y-122140128D01*
X200485725Y-122161136D01*
X200502325Y-122162771D01*
X200616333Y-122174000D01*
X200616340Y-122174000D01*
X200660000Y-122178300D01*
X200703660Y-122174000D01*
X205696340Y-122174000D01*
X205740000Y-122178300D01*
X205783660Y-122174000D01*
X205783667Y-122174000D01*
X205914274Y-122161136D01*
X206081851Y-122110303D01*
X206236291Y-122027753D01*
X206371659Y-121916659D01*
X206399499Y-121882736D01*
X206582363Y-121699872D01*
X232715000Y-121699872D01*
X232715000Y-122140128D01*
X232800890Y-122571925D01*
X232969369Y-122978669D01*
X233213962Y-123344729D01*
X233525271Y-123656038D01*
X233891331Y-123900631D01*
X234298075Y-124069110D01*
X234729872Y-124155000D01*
X235170128Y-124155000D01*
X235601925Y-124069110D01*
X236008669Y-123900631D01*
X236374729Y-123656038D01*
X236686038Y-123344729D01*
X236930631Y-122978669D01*
X237099110Y-122571925D01*
X237185000Y-122140128D01*
X237185000Y-121699872D01*
X237099110Y-121268075D01*
X236930631Y-120861331D01*
X236686038Y-120495271D01*
X236374729Y-120183962D01*
X236008669Y-119939369D01*
X235601925Y-119770890D01*
X235170128Y-119685000D01*
X234729872Y-119685000D01*
X234298075Y-119770890D01*
X233891331Y-119939369D01*
X233525271Y-120183962D01*
X233213962Y-120495271D01*
X232969369Y-120861331D01*
X232800890Y-121268075D01*
X232715000Y-121699872D01*
X206582363Y-121699872D01*
X207160163Y-121122072D01*
X208241000Y-121122072D01*
X208365482Y-121109812D01*
X208485180Y-121073502D01*
X208595494Y-121014537D01*
X208692185Y-120935185D01*
X208771537Y-120838494D01*
X208830502Y-120728180D01*
X208866812Y-120608482D01*
X208879072Y-120484000D01*
X208879072Y-119403163D01*
X217793742Y-110488494D01*
X217827659Y-110460659D01*
X217936969Y-110327465D01*
X217956799Y-110343740D01*
X218028719Y-110402763D01*
X218183159Y-110485313D01*
X218277768Y-110514012D01*
X218350735Y-110536146D01*
X218367335Y-110537781D01*
X218481343Y-110549010D01*
X218481350Y-110549010D01*
X218525010Y-110553310D01*
X218568670Y-110549010D01*
X222681330Y-110549010D01*
X222724990Y-110553310D01*
X222768650Y-110549010D01*
X222768657Y-110549010D01*
X222899264Y-110536146D01*
X223066841Y-110485313D01*
X223221281Y-110402763D01*
X223356649Y-110291669D01*
X223384489Y-110257746D01*
X223798163Y-109844072D01*
X224454001Y-109844072D01*
X224627255Y-109827008D01*
X224793851Y-109776472D01*
X224947387Y-109694405D01*
X225081962Y-109583962D01*
X225192405Y-109449387D01*
X225274472Y-109295851D01*
X225325008Y-109129255D01*
X225342072Y-108956001D01*
X225342072Y-107705999D01*
X225325008Y-107532745D01*
X225274472Y-107366149D01*
X225192405Y-107212613D01*
X225081962Y-107078038D01*
X224947387Y-106967595D01*
X224793851Y-106885528D01*
X224627255Y-106834992D01*
X224454001Y-106817928D01*
X223653999Y-106817928D01*
X223480745Y-106834992D01*
X223314149Y-106885528D01*
X223160613Y-106967595D01*
X223026038Y-107078038D01*
X222915595Y-107212613D01*
X222833528Y-107366149D01*
X222782992Y-107532745D01*
X222765928Y-107705999D01*
X222765928Y-108361836D01*
X222356755Y-108771010D01*
X222242072Y-108771010D01*
X222242072Y-108129572D01*
X222245353Y-108123434D01*
X222261173Y-108071281D01*
X222292556Y-107967826D01*
X222304500Y-107846553D01*
X222304500Y-107846551D01*
X222308494Y-107806001D01*
X222304500Y-107765450D01*
X222304500Y-104941568D01*
X222431962Y-104836962D01*
X222504000Y-104749184D01*
X222576038Y-104836962D01*
X222710613Y-104947405D01*
X222864149Y-105029472D01*
X223030745Y-105080008D01*
X223203999Y-105097072D01*
X223854001Y-105097072D01*
X224027255Y-105080008D01*
X224193851Y-105029472D01*
X224347387Y-104947405D01*
X224481962Y-104836962D01*
X224592405Y-104702387D01*
X224674472Y-104548851D01*
X224725008Y-104382255D01*
X224742072Y-104209001D01*
X224742072Y-103308999D01*
X224725008Y-103135745D01*
X224674472Y-102969149D01*
X224592405Y-102815613D01*
X224481962Y-102681038D01*
X224347387Y-102570595D01*
X224193851Y-102488528D01*
X224027255Y-102437992D01*
X223854001Y-102420928D01*
X223358361Y-102420928D01*
X221982398Y-101044966D01*
X221956541Y-101013459D01*
X221830842Y-100910301D01*
X221687434Y-100833647D01*
X221531826Y-100786444D01*
X221410553Y-100774500D01*
X221410550Y-100774500D01*
X221370000Y-100770506D01*
X221329450Y-100774500D01*
X215599031Y-100774500D01*
X214314571Y-99490040D01*
X214329250Y-99490000D01*
X214488000Y-99331250D01*
X214488000Y-98232000D01*
X214742000Y-98232000D01*
X214742000Y-99331250D01*
X214900750Y-99490000D01*
X216015000Y-99493072D01*
X216139482Y-99480812D01*
X216259180Y-99444502D01*
X216369494Y-99385537D01*
X216466185Y-99306185D01*
X216545537Y-99209494D01*
X216604502Y-99099180D01*
X216640812Y-98979482D01*
X216653072Y-98855000D01*
X234076928Y-98855000D01*
X234089188Y-98979482D01*
X234125498Y-99099180D01*
X234184463Y-99209494D01*
X234263815Y-99306185D01*
X234360506Y-99385537D01*
X234470820Y-99444502D01*
X234590518Y-99480812D01*
X234715000Y-99493072D01*
X235829250Y-99490000D01*
X235988000Y-99331250D01*
X235988000Y-98232000D01*
X234238750Y-98232000D01*
X234080000Y-98390750D01*
X234076928Y-98855000D01*
X216653072Y-98855000D01*
X216650000Y-98390750D01*
X216491250Y-98232000D01*
X214742000Y-98232000D01*
X214488000Y-98232000D01*
X214468000Y-98232000D01*
X214468000Y-97978000D01*
X214488000Y-97978000D01*
X214488000Y-96878750D01*
X214329250Y-96720000D01*
X214203072Y-96719652D01*
X214203072Y-96360000D01*
X214190812Y-96235518D01*
X214154502Y-96115820D01*
X214151391Y-96110000D01*
X214154502Y-96104180D01*
X214190812Y-95984482D01*
X214203072Y-95860000D01*
X214203072Y-95160000D01*
X214190812Y-95035518D01*
X214160320Y-94935000D01*
X214168209Y-94908995D01*
X214328102Y-94975226D01*
X214528061Y-95015000D01*
X214731939Y-95015000D01*
X214931898Y-94975226D01*
X214975291Y-94957252D01*
X214859606Y-95034550D01*
X214694550Y-95199606D01*
X214564866Y-95393692D01*
X214475539Y-95609348D01*
X214430000Y-95838288D01*
X214430000Y-96071712D01*
X214475539Y-96300652D01*
X214564866Y-96516308D01*
X214694550Y-96710394D01*
X214802453Y-96818297D01*
X214742000Y-96878750D01*
X214742000Y-97978000D01*
X216491250Y-97978000D01*
X216650000Y-97819250D01*
X216653072Y-97355000D01*
X234076928Y-97355000D01*
X234080000Y-97819250D01*
X234238750Y-97978000D01*
X235988000Y-97978000D01*
X235988000Y-96878750D01*
X235829250Y-96720000D01*
X234715000Y-96716928D01*
X234590518Y-96729188D01*
X234470820Y-96765498D01*
X234360506Y-96824463D01*
X234263815Y-96903815D01*
X234184463Y-97000506D01*
X234125498Y-97110820D01*
X234089188Y-97230518D01*
X234076928Y-97355000D01*
X216653072Y-97355000D01*
X216640812Y-97230518D01*
X216604502Y-97110820D01*
X216545537Y-97000506D01*
X216466185Y-96903815D01*
X216397993Y-96847851D01*
X216535450Y-96710394D01*
X216665134Y-96516308D01*
X216754461Y-96300652D01*
X216800000Y-96071712D01*
X216800000Y-95838288D01*
X216754461Y-95609348D01*
X216665134Y-95393692D01*
X216653981Y-95377000D01*
X226060000Y-95377000D01*
X226084776Y-95374560D01*
X226108601Y-95367333D01*
X226130557Y-95355597D01*
X226149803Y-95339803D01*
X226165597Y-95320557D01*
X226177333Y-95298601D01*
X226184560Y-95274776D01*
X226187000Y-95250000D01*
X226187000Y-73660000D01*
X226184560Y-73635224D01*
X226177333Y-73611399D01*
X226165597Y-73589443D01*
X226149803Y-73570197D01*
X226130557Y-73554403D01*
X226108601Y-73542667D01*
X226084776Y-73535440D01*
X226060000Y-73533000D01*
X216651603Y-73533000D01*
X216650000Y-73290750D01*
X216491250Y-73132000D01*
X214742000Y-73132000D01*
X214742000Y-73152000D01*
X214488000Y-73152000D01*
X214488000Y-73132000D01*
X212738750Y-73132000D01*
X212580000Y-73290750D01*
X212576928Y-73755000D01*
X212589188Y-73879482D01*
X212608131Y-73941928D01*
X212065000Y-73941928D01*
X211940518Y-73954188D01*
X211820820Y-73990498D01*
X211710506Y-74049463D01*
X211613815Y-74128815D01*
X211534463Y-74225506D01*
X211475498Y-74335820D01*
X211439188Y-74455518D01*
X211426928Y-74580000D01*
X211426928Y-75580000D01*
X211439188Y-75704482D01*
X211475498Y-75824180D01*
X211534463Y-75934494D01*
X211613815Y-76031185D01*
X211710506Y-76110537D01*
X211820820Y-76169502D01*
X211940518Y-76205812D01*
X212065000Y-76218072D01*
X213565000Y-76218072D01*
X213689482Y-76205812D01*
X213809180Y-76169502D01*
X213919494Y-76110537D01*
X214016185Y-76031185D01*
X214095537Y-75934494D01*
X214154502Y-75824180D01*
X214190812Y-75704482D01*
X214203072Y-75580000D01*
X214203072Y-75212324D01*
X214235147Y-75373574D01*
X214343320Y-75634727D01*
X214500363Y-75869759D01*
X214700241Y-76069637D01*
X214935273Y-76226680D01*
X215196426Y-76334853D01*
X215473665Y-76390000D01*
X215756335Y-76390000D01*
X216033574Y-76334853D01*
X216294727Y-76226680D01*
X216408000Y-76150994D01*
X216408000Y-95072156D01*
X216370394Y-95034550D01*
X216176308Y-94904866D01*
X215960652Y-94815539D01*
X215731712Y-94770000D01*
X215498288Y-94770000D01*
X215269348Y-94815539D01*
X215198654Y-94844821D01*
X215289774Y-94783937D01*
X215433937Y-94639774D01*
X215547205Y-94470256D01*
X215625226Y-94281898D01*
X215665000Y-94081939D01*
X215665000Y-93878061D01*
X215625226Y-93678102D01*
X215547205Y-93489744D01*
X215455500Y-93352497D01*
X215455500Y-80685550D01*
X215459494Y-80645000D01*
X215454721Y-80596541D01*
X215443556Y-80483174D01*
X215396353Y-80327566D01*
X215347729Y-80236598D01*
X215319699Y-80184157D01*
X215242392Y-80089958D01*
X215242389Y-80089955D01*
X215216541Y-80058459D01*
X215185045Y-80032612D01*
X214607397Y-79454965D01*
X214581541Y-79423459D01*
X214455842Y-79320301D01*
X214312434Y-79243647D01*
X214156826Y-79196444D01*
X214064200Y-79187321D01*
X214016185Y-79128815D01*
X213919494Y-79049463D01*
X213809180Y-78990498D01*
X213689482Y-78954188D01*
X213565000Y-78941928D01*
X212620504Y-78941928D01*
X212844361Y-78718072D01*
X213565000Y-78718072D01*
X213689482Y-78705812D01*
X213809180Y-78669502D01*
X213919494Y-78610537D01*
X214016185Y-78531185D01*
X214095537Y-78434494D01*
X214154502Y-78324180D01*
X214190812Y-78204482D01*
X214203072Y-78080000D01*
X214203072Y-77080000D01*
X214190812Y-76955518D01*
X214154502Y-76835820D01*
X214095537Y-76725506D01*
X214016185Y-76628815D01*
X213919494Y-76549463D01*
X213809180Y-76490498D01*
X213689482Y-76454188D01*
X213565000Y-76441928D01*
X212065000Y-76441928D01*
X211940518Y-76454188D01*
X211820820Y-76490498D01*
X211710506Y-76549463D01*
X211613815Y-76628815D01*
X211534463Y-76725506D01*
X211475498Y-76835820D01*
X211439188Y-76955518D01*
X211426928Y-77080000D01*
X211426928Y-77800640D01*
X211119460Y-78108108D01*
X211087959Y-78133960D01*
X211062108Y-78165460D01*
X210984800Y-78259659D01*
X210908146Y-78403068D01*
X210860944Y-78558675D01*
X210845005Y-78720501D01*
X210849000Y-78761061D01*
X210848999Y-80851850D01*
X210845005Y-80892401D01*
X210848999Y-80932951D01*
X210848999Y-80932953D01*
X210860943Y-81054226D01*
X210906926Y-81205812D01*
X210908146Y-81209834D01*
X210984800Y-81353243D01*
X211018713Y-81394566D01*
X211087958Y-81478942D01*
X211119464Y-81504798D01*
X211449704Y-81835039D01*
X211468710Y-81858198D01*
X211439188Y-81955518D01*
X211426928Y-82080000D01*
X211430000Y-82294250D01*
X211588750Y-82453000D01*
X212688000Y-82453000D01*
X212688000Y-82433000D01*
X212942000Y-82433000D01*
X212942000Y-82453000D01*
X212962000Y-82453000D01*
X212962000Y-82707000D01*
X212942000Y-82707000D01*
X212942000Y-83556250D01*
X213100750Y-83715000D01*
X213169501Y-83715455D01*
X213169500Y-83941928D01*
X212065000Y-83941928D01*
X211940518Y-83954188D01*
X211820820Y-83990498D01*
X211710506Y-84049463D01*
X211613815Y-84128815D01*
X211562781Y-84191000D01*
X211508660Y-84191000D01*
X211465000Y-84186700D01*
X211421340Y-84191000D01*
X211421333Y-84191000D01*
X211307325Y-84202229D01*
X211290725Y-84203864D01*
X211220726Y-84225098D01*
X211123149Y-84254697D01*
X210968709Y-84337247D01*
X210833341Y-84448341D01*
X210805506Y-84482258D01*
X205601765Y-89686000D01*
X195707000Y-89686000D01*
X195707000Y-83080000D01*
X211426928Y-83080000D01*
X211439188Y-83204482D01*
X211475498Y-83324180D01*
X211534463Y-83434494D01*
X211613815Y-83531185D01*
X211710506Y-83610537D01*
X211820820Y-83669502D01*
X211940518Y-83705812D01*
X212065000Y-83718072D01*
X212529250Y-83715000D01*
X212688000Y-83556250D01*
X212688000Y-82707000D01*
X211588750Y-82707000D01*
X211430000Y-82865750D01*
X211426928Y-83080000D01*
X195707000Y-83080000D01*
X195707000Y-72255000D01*
X212576928Y-72255000D01*
X212580000Y-72719250D01*
X212738750Y-72878000D01*
X214488000Y-72878000D01*
X214488000Y-71778750D01*
X214742000Y-71778750D01*
X214742000Y-72878000D01*
X216491250Y-72878000D01*
X216650000Y-72719250D01*
X216653072Y-72255000D01*
X216640812Y-72130518D01*
X216604502Y-72010820D01*
X216545537Y-71900506D01*
X216466185Y-71803815D01*
X216369494Y-71724463D01*
X216259180Y-71665498D01*
X216139482Y-71629188D01*
X216015000Y-71616928D01*
X214900750Y-71620000D01*
X214742000Y-71778750D01*
X214488000Y-71778750D01*
X214329250Y-71620000D01*
X213215000Y-71616928D01*
X213090518Y-71629188D01*
X212970820Y-71665498D01*
X212860506Y-71724463D01*
X212763815Y-71803815D01*
X212684463Y-71900506D01*
X212625498Y-72010820D01*
X212589188Y-72130518D01*
X212576928Y-72255000D01*
X195707000Y-72255000D01*
X195707000Y-71555000D01*
X234076928Y-71555000D01*
X234089188Y-71679482D01*
X234125498Y-71799180D01*
X234184463Y-71909494D01*
X234263815Y-72006185D01*
X234360506Y-72085537D01*
X234470820Y-72144502D01*
X234590518Y-72180812D01*
X234715000Y-72193072D01*
X235829250Y-72190000D01*
X235988000Y-72031250D01*
X235988000Y-70932000D01*
X234238750Y-70932000D01*
X234080000Y-71090750D01*
X234076928Y-71555000D01*
X195707000Y-71555000D01*
X195707000Y-68359872D01*
X206045000Y-68359872D01*
X206045000Y-68800128D01*
X206130890Y-69231925D01*
X206299369Y-69638669D01*
X206543962Y-70004729D01*
X206855271Y-70316038D01*
X207221331Y-70560631D01*
X207628075Y-70729110D01*
X208059872Y-70815000D01*
X208500128Y-70815000D01*
X208931925Y-70729110D01*
X209338669Y-70560631D01*
X209704729Y-70316038D01*
X209965767Y-70055000D01*
X234076928Y-70055000D01*
X234080000Y-70519250D01*
X234238750Y-70678000D01*
X235988000Y-70678000D01*
X235988000Y-69578750D01*
X235829250Y-69420000D01*
X234715000Y-69416928D01*
X234590518Y-69429188D01*
X234470820Y-69465498D01*
X234360506Y-69524463D01*
X234263815Y-69603815D01*
X234184463Y-69700506D01*
X234125498Y-69810820D01*
X234089188Y-69930518D01*
X234076928Y-70055000D01*
X209965767Y-70055000D01*
X210016038Y-70004729D01*
X210260631Y-69638669D01*
X210429110Y-69231925D01*
X210515000Y-68800128D01*
X210515000Y-68359872D01*
X210429110Y-67928075D01*
X210260631Y-67521331D01*
X210016038Y-67155271D01*
X209704729Y-66843962D01*
X209338669Y-66599369D01*
X208931925Y-66430890D01*
X208500128Y-66345000D01*
X208059872Y-66345000D01*
X207628075Y-66430890D01*
X207221331Y-66599369D01*
X206855271Y-66843962D01*
X206543962Y-67155271D01*
X206299369Y-67521331D01*
X206130890Y-67928075D01*
X206045000Y-68359872D01*
X195707000Y-68359872D01*
X195707000Y-65532000D01*
X237998000Y-65532000D01*
X237998000Y-69642582D01*
%TA.AperFunction,Conductor*%
D31*
G36*
X237998000Y-69642582D02*
G01*
X237966185Y-69603815D01*
X237869494Y-69524463D01*
X237759180Y-69465498D01*
X237639482Y-69429188D01*
X237515000Y-69416928D01*
X236400750Y-69420000D01*
X236242000Y-69578750D01*
X236242000Y-70678000D01*
X236262000Y-70678000D01*
X236262000Y-70932000D01*
X236242000Y-70932000D01*
X236242000Y-72031250D01*
X236400750Y-72190000D01*
X237515000Y-72193072D01*
X237639482Y-72180812D01*
X237759180Y-72144502D01*
X237869494Y-72085537D01*
X237966185Y-72006185D01*
X237998000Y-71967418D01*
X237998000Y-96942582D01*
X237966185Y-96903815D01*
X237869494Y-96824463D01*
X237759180Y-96765498D01*
X237639482Y-96729188D01*
X237515000Y-96716928D01*
X236400750Y-96720000D01*
X236242000Y-96878750D01*
X236242000Y-97978000D01*
X236262000Y-97978000D01*
X236262000Y-98232000D01*
X236242000Y-98232000D01*
X236242000Y-99331250D01*
X236400750Y-99490000D01*
X237515000Y-99493072D01*
X237639482Y-99480812D01*
X237759180Y-99444502D01*
X237869494Y-99385537D01*
X237966185Y-99306185D01*
X237998000Y-99267418D01*
X237998000Y-124968000D01*
X176022000Y-124968000D01*
X176022000Y-112649000D01*
X183781765Y-112649000D01*
X183948523Y-112815758D01*
X183935000Y-112883740D01*
X183935000Y-113176260D01*
X183992068Y-113463158D01*
X184104010Y-113733411D01*
X184266525Y-113976632D01*
X184473368Y-114183475D01*
X184716589Y-114345990D01*
X184986842Y-114457932D01*
X185273740Y-114515000D01*
X185566260Y-114515000D01*
X185853158Y-114457932D01*
X186123411Y-114345990D01*
X186366632Y-114183475D01*
X186573475Y-113976632D01*
X186735990Y-113733411D01*
X186847932Y-113463158D01*
X186905000Y-113176260D01*
X186905000Y-112883740D01*
X186847932Y-112596842D01*
X186735990Y-112326589D01*
X186573475Y-112083368D01*
X186366632Y-111876525D01*
X186192240Y-111760000D01*
X186366632Y-111643475D01*
X186573475Y-111436632D01*
X186735990Y-111193411D01*
X186847932Y-110923158D01*
X186905000Y-110636260D01*
X186905000Y-110343740D01*
X186847932Y-110056842D01*
X186735990Y-109786589D01*
X186573475Y-109543368D01*
X186366632Y-109336525D01*
X186192240Y-109220000D01*
X186366632Y-109103475D01*
X186573475Y-108896632D01*
X186735990Y-108653411D01*
X186847932Y-108383158D01*
X186905000Y-108096260D01*
X186905000Y-107901841D01*
X187534134Y-107272707D01*
X187572897Y-107240895D01*
X187699861Y-107086189D01*
X187794203Y-106909686D01*
X187852299Y-106718170D01*
X187852299Y-106718169D01*
X187871916Y-106519000D01*
X187867001Y-106469098D01*
X187867001Y-99112776D01*
X187871915Y-99062882D01*
X187867001Y-99012988D01*
X187867001Y-99012981D01*
X187852299Y-98863712D01*
X187794203Y-98672196D01*
X187699861Y-98495693D01*
X187572897Y-98340987D01*
X187534134Y-98309175D01*
X183966959Y-94742000D01*
X189993000Y-94742000D01*
X189993001Y-103329088D01*
X189988085Y-103379000D01*
X190007702Y-103578170D01*
X190065799Y-103769687D01*
X190160141Y-103946190D01*
X190287105Y-104100896D01*
X190325868Y-104132708D01*
X194095000Y-107901841D01*
X194095000Y-108096260D01*
X194108523Y-108164242D01*
X193077259Y-109195506D01*
X193043342Y-109223341D01*
X193015507Y-109257258D01*
X193015505Y-109257260D01*
X192932248Y-109358709D01*
X192849698Y-109513148D01*
X192798864Y-109680726D01*
X192781700Y-109855000D01*
X192786001Y-109898670D01*
X192786000Y-114256340D01*
X192781700Y-114300000D01*
X192786000Y-114343660D01*
X192786000Y-114343666D01*
X192797057Y-114455926D01*
X192797255Y-114457932D01*
X192798864Y-114474273D01*
X192849697Y-114641850D01*
X192932247Y-114796290D01*
X193043341Y-114931659D01*
X193077264Y-114959499D01*
X200000506Y-121882742D01*
X200028341Y-121916659D01*
X200163709Y-122027753D01*
X200318149Y-122110303D01*
X200416471Y-122140128D01*
X200485725Y-122161136D01*
X200502325Y-122162771D01*
X200616333Y-122174000D01*
X200616340Y-122174000D01*
X200660000Y-122178300D01*
X200703660Y-122174000D01*
X205696340Y-122174000D01*
X205740000Y-122178300D01*
X205783660Y-122174000D01*
X205783667Y-122174000D01*
X205914274Y-122161136D01*
X206081851Y-122110303D01*
X206236291Y-122027753D01*
X206371659Y-121916659D01*
X206399499Y-121882736D01*
X206582363Y-121699872D01*
X232715000Y-121699872D01*
X232715000Y-122140128D01*
X232800890Y-122571925D01*
X232969369Y-122978669D01*
X233213962Y-123344729D01*
X233525271Y-123656038D01*
X233891331Y-123900631D01*
X234298075Y-124069110D01*
X234729872Y-124155000D01*
X235170128Y-124155000D01*
X235601925Y-124069110D01*
X236008669Y-123900631D01*
X236374729Y-123656038D01*
X236686038Y-123344729D01*
X236930631Y-122978669D01*
X237099110Y-122571925D01*
X237185000Y-122140128D01*
X237185000Y-121699872D01*
X237099110Y-121268075D01*
X236930631Y-120861331D01*
X236686038Y-120495271D01*
X236374729Y-120183962D01*
X236008669Y-119939369D01*
X235601925Y-119770890D01*
X235170128Y-119685000D01*
X234729872Y-119685000D01*
X234298075Y-119770890D01*
X233891331Y-119939369D01*
X233525271Y-120183962D01*
X233213962Y-120495271D01*
X232969369Y-120861331D01*
X232800890Y-121268075D01*
X232715000Y-121699872D01*
X206582363Y-121699872D01*
X207160163Y-121122072D01*
X208241000Y-121122072D01*
X208365482Y-121109812D01*
X208485180Y-121073502D01*
X208595494Y-121014537D01*
X208692185Y-120935185D01*
X208771537Y-120838494D01*
X208830502Y-120728180D01*
X208866812Y-120608482D01*
X208879072Y-120484000D01*
X208879072Y-119403163D01*
X217793742Y-110488494D01*
X217827659Y-110460659D01*
X217936969Y-110327465D01*
X217956799Y-110343740D01*
X218028719Y-110402763D01*
X218183159Y-110485313D01*
X218277768Y-110514012D01*
X218350735Y-110536146D01*
X218367335Y-110537781D01*
X218481343Y-110549010D01*
X218481350Y-110549010D01*
X218525010Y-110553310D01*
X218568670Y-110549010D01*
X222681330Y-110549010D01*
X222724990Y-110553310D01*
X222768650Y-110549010D01*
X222768657Y-110549010D01*
X222899264Y-110536146D01*
X223066841Y-110485313D01*
X223221281Y-110402763D01*
X223356649Y-110291669D01*
X223384489Y-110257746D01*
X223798163Y-109844072D01*
X224454001Y-109844072D01*
X224627255Y-109827008D01*
X224793851Y-109776472D01*
X224947387Y-109694405D01*
X225081962Y-109583962D01*
X225192405Y-109449387D01*
X225274472Y-109295851D01*
X225325008Y-109129255D01*
X225342072Y-108956001D01*
X225342072Y-107705999D01*
X225325008Y-107532745D01*
X225274472Y-107366149D01*
X225192405Y-107212613D01*
X225081962Y-107078038D01*
X224947387Y-106967595D01*
X224793851Y-106885528D01*
X224627255Y-106834992D01*
X224454001Y-106817928D01*
X223653999Y-106817928D01*
X223480745Y-106834992D01*
X223314149Y-106885528D01*
X223160613Y-106967595D01*
X223026038Y-107078038D01*
X222915595Y-107212613D01*
X222833528Y-107366149D01*
X222782992Y-107532745D01*
X222765928Y-107705999D01*
X222765928Y-108361836D01*
X222356755Y-108771010D01*
X222242072Y-108771010D01*
X222242072Y-108129572D01*
X222245353Y-108123434D01*
X222261173Y-108071281D01*
X222292556Y-107967826D01*
X222304500Y-107846553D01*
X222304500Y-107846551D01*
X222308494Y-107806001D01*
X222304500Y-107765450D01*
X222304500Y-104941568D01*
X222431962Y-104836962D01*
X222504000Y-104749184D01*
X222576038Y-104836962D01*
X222710613Y-104947405D01*
X222864149Y-105029472D01*
X223030745Y-105080008D01*
X223203999Y-105097072D01*
X223854001Y-105097072D01*
X224027255Y-105080008D01*
X224193851Y-105029472D01*
X224347387Y-104947405D01*
X224481962Y-104836962D01*
X224592405Y-104702387D01*
X224674472Y-104548851D01*
X224725008Y-104382255D01*
X224742072Y-104209001D01*
X224742072Y-103308999D01*
X224725008Y-103135745D01*
X224674472Y-102969149D01*
X224592405Y-102815613D01*
X224481962Y-102681038D01*
X224347387Y-102570595D01*
X224193851Y-102488528D01*
X224027255Y-102437992D01*
X223854001Y-102420928D01*
X223358361Y-102420928D01*
X221982398Y-101044966D01*
X221956541Y-101013459D01*
X221830842Y-100910301D01*
X221687434Y-100833647D01*
X221531826Y-100786444D01*
X221410553Y-100774500D01*
X221410550Y-100774500D01*
X221370000Y-100770506D01*
X221329450Y-100774500D01*
X215599031Y-100774500D01*
X214314571Y-99490040D01*
X214329250Y-99490000D01*
X214488000Y-99331250D01*
X214488000Y-98232000D01*
X214742000Y-98232000D01*
X214742000Y-99331250D01*
X214900750Y-99490000D01*
X216015000Y-99493072D01*
X216139482Y-99480812D01*
X216259180Y-99444502D01*
X216369494Y-99385537D01*
X216466185Y-99306185D01*
X216545537Y-99209494D01*
X216604502Y-99099180D01*
X216640812Y-98979482D01*
X216653072Y-98855000D01*
X234076928Y-98855000D01*
X234089188Y-98979482D01*
X234125498Y-99099180D01*
X234184463Y-99209494D01*
X234263815Y-99306185D01*
X234360506Y-99385537D01*
X234470820Y-99444502D01*
X234590518Y-99480812D01*
X234715000Y-99493072D01*
X235829250Y-99490000D01*
X235988000Y-99331250D01*
X235988000Y-98232000D01*
X234238750Y-98232000D01*
X234080000Y-98390750D01*
X234076928Y-98855000D01*
X216653072Y-98855000D01*
X216650000Y-98390750D01*
X216491250Y-98232000D01*
X214742000Y-98232000D01*
X214488000Y-98232000D01*
X214468000Y-98232000D01*
X214468000Y-97978000D01*
X214488000Y-97978000D01*
X214488000Y-96878750D01*
X214329250Y-96720000D01*
X214203072Y-96719652D01*
X214203072Y-96360000D01*
X214190812Y-96235518D01*
X214154502Y-96115820D01*
X214151391Y-96110000D01*
X214154502Y-96104180D01*
X214190812Y-95984482D01*
X214203072Y-95860000D01*
X214203072Y-95160000D01*
X214190812Y-95035518D01*
X214160320Y-94935000D01*
X214168209Y-94908995D01*
X214328102Y-94975226D01*
X214528061Y-95015000D01*
X214731939Y-95015000D01*
X214931898Y-94975226D01*
X214975291Y-94957252D01*
X214859606Y-95034550D01*
X214694550Y-95199606D01*
X214564866Y-95393692D01*
X214475539Y-95609348D01*
X214430000Y-95838288D01*
X214430000Y-96071712D01*
X214475539Y-96300652D01*
X214564866Y-96516308D01*
X214694550Y-96710394D01*
X214802453Y-96818297D01*
X214742000Y-96878750D01*
X214742000Y-97978000D01*
X216491250Y-97978000D01*
X216650000Y-97819250D01*
X216653072Y-97355000D01*
X234076928Y-97355000D01*
X234080000Y-97819250D01*
X234238750Y-97978000D01*
X235988000Y-97978000D01*
X235988000Y-96878750D01*
X235829250Y-96720000D01*
X234715000Y-96716928D01*
X234590518Y-96729188D01*
X234470820Y-96765498D01*
X234360506Y-96824463D01*
X234263815Y-96903815D01*
X234184463Y-97000506D01*
X234125498Y-97110820D01*
X234089188Y-97230518D01*
X234076928Y-97355000D01*
X216653072Y-97355000D01*
X216640812Y-97230518D01*
X216604502Y-97110820D01*
X216545537Y-97000506D01*
X216466185Y-96903815D01*
X216397993Y-96847851D01*
X216535450Y-96710394D01*
X216665134Y-96516308D01*
X216754461Y-96300652D01*
X216800000Y-96071712D01*
X216800000Y-95838288D01*
X216754461Y-95609348D01*
X216665134Y-95393692D01*
X216653981Y-95377000D01*
X226060000Y-95377000D01*
X226084776Y-95374560D01*
X226108601Y-95367333D01*
X226130557Y-95355597D01*
X226149803Y-95339803D01*
X226165597Y-95320557D01*
X226177333Y-95298601D01*
X226184560Y-95274776D01*
X226187000Y-95250000D01*
X226187000Y-73660000D01*
X226184560Y-73635224D01*
X226177333Y-73611399D01*
X226165597Y-73589443D01*
X226149803Y-73570197D01*
X226130557Y-73554403D01*
X226108601Y-73542667D01*
X226084776Y-73535440D01*
X226060000Y-73533000D01*
X216651603Y-73533000D01*
X216650000Y-73290750D01*
X216491250Y-73132000D01*
X214742000Y-73132000D01*
X214742000Y-73152000D01*
X214488000Y-73152000D01*
X214488000Y-73132000D01*
X212738750Y-73132000D01*
X212580000Y-73290750D01*
X212576928Y-73755000D01*
X212589188Y-73879482D01*
X212608131Y-73941928D01*
X212065000Y-73941928D01*
X211940518Y-73954188D01*
X211820820Y-73990498D01*
X211710506Y-74049463D01*
X211613815Y-74128815D01*
X211534463Y-74225506D01*
X211475498Y-74335820D01*
X211439188Y-74455518D01*
X211426928Y-74580000D01*
X211426928Y-75580000D01*
X211439188Y-75704482D01*
X211475498Y-75824180D01*
X211534463Y-75934494D01*
X211613815Y-76031185D01*
X211710506Y-76110537D01*
X211820820Y-76169502D01*
X211940518Y-76205812D01*
X212065000Y-76218072D01*
X213565000Y-76218072D01*
X213689482Y-76205812D01*
X213809180Y-76169502D01*
X213919494Y-76110537D01*
X214016185Y-76031185D01*
X214095537Y-75934494D01*
X214154502Y-75824180D01*
X214190812Y-75704482D01*
X214203072Y-75580000D01*
X214203072Y-75212324D01*
X214235147Y-75373574D01*
X214343320Y-75634727D01*
X214500363Y-75869759D01*
X214700241Y-76069637D01*
X214935273Y-76226680D01*
X215196426Y-76334853D01*
X215473665Y-76390000D01*
X215756335Y-76390000D01*
X216033574Y-76334853D01*
X216294727Y-76226680D01*
X216408000Y-76150994D01*
X216408000Y-95072156D01*
X216370394Y-95034550D01*
X216176308Y-94904866D01*
X215960652Y-94815539D01*
X215731712Y-94770000D01*
X215498288Y-94770000D01*
X215269348Y-94815539D01*
X215198654Y-94844821D01*
X215289774Y-94783937D01*
X215433937Y-94639774D01*
X215547205Y-94470256D01*
X215625226Y-94281898D01*
X215665000Y-94081939D01*
X215665000Y-93878061D01*
X215625226Y-93678102D01*
X215547205Y-93489744D01*
X215455500Y-93352497D01*
X215455500Y-80685550D01*
X215459494Y-80645000D01*
X215454721Y-80596541D01*
X215443556Y-80483174D01*
X215396353Y-80327566D01*
X215347729Y-80236598D01*
X215319699Y-80184157D01*
X215242392Y-80089958D01*
X215242389Y-80089955D01*
X215216541Y-80058459D01*
X215185045Y-80032612D01*
X214607397Y-79454965D01*
X214581541Y-79423459D01*
X214455842Y-79320301D01*
X214312434Y-79243647D01*
X214156826Y-79196444D01*
X214064200Y-79187321D01*
X214016185Y-79128815D01*
X213919494Y-79049463D01*
X213809180Y-78990498D01*
X213689482Y-78954188D01*
X213565000Y-78941928D01*
X212620504Y-78941928D01*
X212844361Y-78718072D01*
X213565000Y-78718072D01*
X213689482Y-78705812D01*
X213809180Y-78669502D01*
X213919494Y-78610537D01*
X214016185Y-78531185D01*
X214095537Y-78434494D01*
X214154502Y-78324180D01*
X214190812Y-78204482D01*
X214203072Y-78080000D01*
X214203072Y-77080000D01*
X214190812Y-76955518D01*
X214154502Y-76835820D01*
X214095537Y-76725506D01*
X214016185Y-76628815D01*
X213919494Y-76549463D01*
X213809180Y-76490498D01*
X213689482Y-76454188D01*
X213565000Y-76441928D01*
X212065000Y-76441928D01*
X211940518Y-76454188D01*
X211820820Y-76490498D01*
X211710506Y-76549463D01*
X211613815Y-76628815D01*
X211534463Y-76725506D01*
X211475498Y-76835820D01*
X211439188Y-76955518D01*
X211426928Y-77080000D01*
X211426928Y-77800640D01*
X211119460Y-78108108D01*
X211087959Y-78133960D01*
X211062108Y-78165460D01*
X210984800Y-78259659D01*
X210908146Y-78403068D01*
X210860944Y-78558675D01*
X210845005Y-78720501D01*
X210849000Y-78761061D01*
X210848999Y-80851850D01*
X210845005Y-80892401D01*
X210848999Y-80932951D01*
X210848999Y-80932953D01*
X210860943Y-81054226D01*
X210906926Y-81205812D01*
X210908146Y-81209834D01*
X210984800Y-81353243D01*
X211018713Y-81394566D01*
X211087958Y-81478942D01*
X211119464Y-81504798D01*
X211449704Y-81835039D01*
X211468710Y-81858198D01*
X211439188Y-81955518D01*
X211426928Y-82080000D01*
X211430000Y-82294250D01*
X211588750Y-82453000D01*
X212688000Y-82453000D01*
X212688000Y-82433000D01*
X212942000Y-82433000D01*
X212942000Y-82453000D01*
X212962000Y-82453000D01*
X212962000Y-82707000D01*
X212942000Y-82707000D01*
X212942000Y-83556250D01*
X213100750Y-83715000D01*
X213169501Y-83715455D01*
X213169500Y-83941928D01*
X212065000Y-83941928D01*
X211940518Y-83954188D01*
X211820820Y-83990498D01*
X211710506Y-84049463D01*
X211613815Y-84128815D01*
X211562781Y-84191000D01*
X211508660Y-84191000D01*
X211465000Y-84186700D01*
X211421340Y-84191000D01*
X211421333Y-84191000D01*
X211307325Y-84202229D01*
X211290725Y-84203864D01*
X211220726Y-84225098D01*
X211123149Y-84254697D01*
X210968709Y-84337247D01*
X210833341Y-84448341D01*
X210805506Y-84482258D01*
X205601765Y-89686000D01*
X195707000Y-89686000D01*
X195707000Y-83080000D01*
X211426928Y-83080000D01*
X211439188Y-83204482D01*
X211475498Y-83324180D01*
X211534463Y-83434494D01*
X211613815Y-83531185D01*
X211710506Y-83610537D01*
X211820820Y-83669502D01*
X211940518Y-83705812D01*
X212065000Y-83718072D01*
X212529250Y-83715000D01*
X212688000Y-83556250D01*
X212688000Y-82707000D01*
X211588750Y-82707000D01*
X211430000Y-82865750D01*
X211426928Y-83080000D01*
X195707000Y-83080000D01*
X195707000Y-72255000D01*
X212576928Y-72255000D01*
X212580000Y-72719250D01*
X212738750Y-72878000D01*
X214488000Y-72878000D01*
X214488000Y-71778750D01*
X214742000Y-71778750D01*
X214742000Y-72878000D01*
X216491250Y-72878000D01*
X216650000Y-72719250D01*
X216653072Y-72255000D01*
X216640812Y-72130518D01*
X216604502Y-72010820D01*
X216545537Y-71900506D01*
X216466185Y-71803815D01*
X216369494Y-71724463D01*
X216259180Y-71665498D01*
X216139482Y-71629188D01*
X216015000Y-71616928D01*
X214900750Y-71620000D01*
X214742000Y-71778750D01*
X214488000Y-71778750D01*
X214329250Y-71620000D01*
X213215000Y-71616928D01*
X213090518Y-71629188D01*
X212970820Y-71665498D01*
X212860506Y-71724463D01*
X212763815Y-71803815D01*
X212684463Y-71900506D01*
X212625498Y-72010820D01*
X212589188Y-72130518D01*
X212576928Y-72255000D01*
X195707000Y-72255000D01*
X195707000Y-71555000D01*
X234076928Y-71555000D01*
X234089188Y-71679482D01*
X234125498Y-71799180D01*
X234184463Y-71909494D01*
X234263815Y-72006185D01*
X234360506Y-72085537D01*
X234470820Y-72144502D01*
X234590518Y-72180812D01*
X234715000Y-72193072D01*
X235829250Y-72190000D01*
X235988000Y-72031250D01*
X235988000Y-70932000D01*
X234238750Y-70932000D01*
X234080000Y-71090750D01*
X234076928Y-71555000D01*
X195707000Y-71555000D01*
X195707000Y-68359872D01*
X206045000Y-68359872D01*
X206045000Y-68800128D01*
X206130890Y-69231925D01*
X206299369Y-69638669D01*
X206543962Y-70004729D01*
X206855271Y-70316038D01*
X207221331Y-70560631D01*
X207628075Y-70729110D01*
X208059872Y-70815000D01*
X208500128Y-70815000D01*
X208931925Y-70729110D01*
X209338669Y-70560631D01*
X209704729Y-70316038D01*
X209965767Y-70055000D01*
X234076928Y-70055000D01*
X234080000Y-70519250D01*
X234238750Y-70678000D01*
X235988000Y-70678000D01*
X235988000Y-69578750D01*
X235829250Y-69420000D01*
X234715000Y-69416928D01*
X234590518Y-69429188D01*
X234470820Y-69465498D01*
X234360506Y-69524463D01*
X234263815Y-69603815D01*
X234184463Y-69700506D01*
X234125498Y-69810820D01*
X234089188Y-69930518D01*
X234076928Y-70055000D01*
X209965767Y-70055000D01*
X210016038Y-70004729D01*
X210260631Y-69638669D01*
X210429110Y-69231925D01*
X210515000Y-68800128D01*
X210515000Y-68359872D01*
X210429110Y-67928075D01*
X210260631Y-67521331D01*
X210016038Y-67155271D01*
X209704729Y-66843962D01*
X209338669Y-66599369D01*
X208931925Y-66430890D01*
X208500128Y-66345000D01*
X208059872Y-66345000D01*
X207628075Y-66430890D01*
X207221331Y-66599369D01*
X206855271Y-66843962D01*
X206543962Y-67155271D01*
X206299369Y-67521331D01*
X206130890Y-67928075D01*
X206045000Y-68359872D01*
X195707000Y-68359872D01*
X195707000Y-65532000D01*
X237998000Y-65532000D01*
X237998000Y-69642582D01*
G37*
%TD.AperFunction*%
D30*
X214109886Y-102441893D02*
X213956149Y-102488528D01*
X213802613Y-102570595D01*
X213668038Y-102681038D01*
X213557595Y-102815613D01*
X213475528Y-102969149D01*
X213424992Y-103135745D01*
X213407928Y-103308999D01*
X213407928Y-104209001D01*
X213424992Y-104382255D01*
X213475528Y-104548851D01*
X213557595Y-104702387D01*
X213668038Y-104836962D01*
X213795500Y-104941568D01*
X213795501Y-106817928D01*
X213695999Y-106817928D01*
X213522745Y-106834992D01*
X213356149Y-106885528D01*
X213202613Y-106967595D01*
X213068038Y-107078038D01*
X212957595Y-107212613D01*
X212875528Y-107366149D01*
X212824992Y-107532745D01*
X212807928Y-107705999D01*
X212807928Y-108956001D01*
X212824992Y-109129255D01*
X212875528Y-109295851D01*
X212957595Y-109449387D01*
X213068038Y-109583962D01*
X213202613Y-109694405D01*
X213356149Y-109776472D01*
X213522745Y-109827008D01*
X213695999Y-109844072D01*
X214496001Y-109844072D01*
X214669255Y-109827008D01*
X214835851Y-109776472D01*
X214989387Y-109694405D01*
X215123962Y-109583962D01*
X215234405Y-109449387D01*
X215316472Y-109295851D01*
X215367008Y-109129255D01*
X215384072Y-108956001D01*
X215384072Y-108129572D01*
X215387353Y-108123434D01*
X215403173Y-108071281D01*
X215434556Y-107967826D01*
X215446500Y-107846553D01*
X215446500Y-107846551D01*
X215450494Y-107806001D01*
X215446500Y-107765450D01*
X215446500Y-104941568D01*
X215573962Y-104836962D01*
X215646000Y-104749184D01*
X215718038Y-104836962D01*
X215852613Y-104947405D01*
X216006149Y-105029472D01*
X216172745Y-105080008D01*
X216345999Y-105097072D01*
X216996001Y-105097072D01*
X217169255Y-105080008D01*
X217335851Y-105029472D01*
X217489387Y-104947405D01*
X217623962Y-104836962D01*
X217734405Y-104702387D01*
X217816472Y-104548851D01*
X217867008Y-104382255D01*
X217884072Y-104209001D01*
X217884072Y-103308999D01*
X217867008Y-103135745D01*
X217816472Y-102969149D01*
X217734405Y-102815613D01*
X217623962Y-102681038D01*
X217489387Y-102570595D01*
X217335851Y-102488528D01*
X217169255Y-102437992D01*
X217042421Y-102425500D01*
X221028068Y-102425500D01*
X221035197Y-102432629D01*
X220980745Y-102437992D01*
X220814149Y-102488528D01*
X220660613Y-102570595D01*
X220526038Y-102681038D01*
X220415595Y-102815613D01*
X220333528Y-102969149D01*
X220282992Y-103135745D01*
X220265928Y-103308999D01*
X220265928Y-104209001D01*
X220282992Y-104382255D01*
X220333528Y-104548851D01*
X220415595Y-104702387D01*
X220526038Y-104836962D01*
X220653500Y-104941568D01*
X220653501Y-106817928D01*
X220553999Y-106817928D01*
X220380745Y-106834992D01*
X220214149Y-106885528D01*
X220060613Y-106967595D01*
X219926038Y-107078038D01*
X219815595Y-107212613D01*
X219733528Y-107366149D01*
X219682992Y-107532745D01*
X219665928Y-107705999D01*
X219665928Y-108771010D01*
X218893246Y-108771010D01*
X218484072Y-108361837D01*
X218484072Y-107705999D01*
X218467008Y-107532745D01*
X218416472Y-107366149D01*
X218334405Y-107212613D01*
X218223962Y-107078038D01*
X218089387Y-106967595D01*
X217935851Y-106885528D01*
X217769255Y-106834992D01*
X217596001Y-106817928D01*
X216795999Y-106817928D01*
X216622745Y-106834992D01*
X216456149Y-106885528D01*
X216302613Y-106967595D01*
X216168038Y-107078038D01*
X216057595Y-107212613D01*
X215975528Y-107366149D01*
X215924992Y-107532745D01*
X215907928Y-107705999D01*
X215907928Y-108956001D01*
X215924992Y-109129255D01*
X215975528Y-109295851D01*
X216057595Y-109449387D01*
X216168038Y-109583962D01*
X216176696Y-109591068D01*
X207621837Y-118145928D01*
X206541000Y-118145928D01*
X206416518Y-118158188D01*
X206296820Y-118194498D01*
X206186506Y-118253463D01*
X206089815Y-118332815D01*
X206010463Y-118429506D01*
X205951498Y-118539820D01*
X205929487Y-118612380D01*
X205797632Y-118480525D01*
X205740000Y-118442017D01*
X205740000Y-116839481D01*
X205815851Y-116816472D01*
X205969387Y-116734405D01*
X206103962Y-116623962D01*
X206214405Y-116489387D01*
X206296472Y-116335851D01*
X206347008Y-116169255D01*
X206364072Y-115996001D01*
X206364072Y-115195999D01*
X206347008Y-115022745D01*
X206296472Y-114856149D01*
X206214405Y-114702613D01*
X206103962Y-114568038D01*
X205969387Y-114457595D01*
X205815851Y-114375528D01*
X205649255Y-114324992D01*
X205476001Y-114307928D01*
X204225999Y-114307928D01*
X204052745Y-114324992D01*
X203886149Y-114375528D01*
X203732613Y-114457595D01*
X203598038Y-114568038D01*
X203487595Y-114702613D01*
X203405528Y-114856149D01*
X203354992Y-115022745D01*
X203337928Y-115195999D01*
X203337928Y-115996001D01*
X203354992Y-116169255D01*
X203405528Y-116335851D01*
X203487595Y-116489387D01*
X203598038Y-116623962D01*
X203732613Y-116734405D01*
X203886149Y-116816472D01*
X203962001Y-116839481D01*
X203962000Y-118442016D01*
X203904368Y-118480525D01*
X203697525Y-118687368D01*
X203575805Y-118869534D01*
X203506178Y-118752645D01*
X203311269Y-118536412D01*
X203077920Y-118362359D01*
X202815099Y-118237175D01*
X202667890Y-118192524D01*
X202438000Y-118313845D01*
X202438000Y-119507000D01*
X202458000Y-119507000D01*
X202458000Y-119761000D01*
X202438000Y-119761000D01*
X202438000Y-119781000D01*
X202184000Y-119781000D01*
X202184000Y-119761000D01*
X200990186Y-119761000D01*
X200869519Y-119990891D01*
X200966843Y-120265252D01*
X201044726Y-120396000D01*
X201028236Y-120396000D01*
X199909345Y-119277109D01*
X200869519Y-119277109D01*
X200990186Y-119507000D01*
X202184000Y-119507000D01*
X202184000Y-118313845D01*
X201954110Y-118192524D01*
X201806901Y-118237175D01*
X201544080Y-118362359D01*
X201310731Y-118536412D01*
X201115822Y-118752645D01*
X200966843Y-119002748D01*
X200869519Y-119277109D01*
X199909345Y-119277109D01*
X195050092Y-114417857D01*
X195146842Y-114457932D01*
X195433740Y-114515000D01*
X195726260Y-114515000D01*
X196013158Y-114457932D01*
X196283411Y-114345990D01*
X196526632Y-114183475D01*
X196733475Y-113976632D01*
X196895990Y-113733411D01*
X197007932Y-113463158D01*
X197065000Y-113176260D01*
X197065000Y-112883740D01*
X197036578Y-112740854D01*
X200580041Y-109197392D01*
X200611541Y-109171541D01*
X200681539Y-109086248D01*
X200714699Y-109045843D01*
X200750500Y-108978864D01*
X200791353Y-108902434D01*
X200838556Y-108746826D01*
X200850500Y-108625553D01*
X200850500Y-108625551D01*
X200854494Y-108585001D01*
X200850500Y-108544450D01*
X200850500Y-104481932D01*
X202794928Y-102537505D01*
X202794928Y-102639000D01*
X202810071Y-102792745D01*
X202854916Y-102940582D01*
X202927742Y-103076829D01*
X202966454Y-103124000D01*
X202927742Y-103171171D01*
X202854916Y-103307418D01*
X202810071Y-103455255D01*
X202794928Y-103609000D01*
X202794928Y-103909000D01*
X202810071Y-104062745D01*
X202854916Y-104210582D01*
X202927742Y-104346829D01*
X202966454Y-104394000D01*
X202927742Y-104441171D01*
X202854916Y-104577418D01*
X202810071Y-104725255D01*
X202794928Y-104879000D01*
X202794928Y-105179000D01*
X202810071Y-105332745D01*
X202854916Y-105480582D01*
X202927742Y-105616829D01*
X202966454Y-105664000D01*
X202927742Y-105711171D01*
X202854916Y-105847418D01*
X202810071Y-105995255D01*
X202794928Y-106149000D01*
X202794928Y-106449000D01*
X202810071Y-106602745D01*
X202854916Y-106750582D01*
X202927742Y-106886829D01*
X202966454Y-106934000D01*
X202927742Y-106981171D01*
X202854916Y-107117418D01*
X202810071Y-107265255D01*
X202794928Y-107419000D01*
X202794928Y-107719000D01*
X202810071Y-107872745D01*
X202854916Y-108020582D01*
X202927742Y-108156829D01*
X203025749Y-108276251D01*
X203145171Y-108374258D01*
X203281418Y-108447084D01*
X203429255Y-108491929D01*
X203583000Y-108507072D01*
X204948011Y-108507072D01*
X204948010Y-111141754D01*
X204881836Y-111207928D01*
X204225999Y-111207928D01*
X204052745Y-111224992D01*
X203886149Y-111275528D01*
X203732613Y-111357595D01*
X203598038Y-111468038D01*
X203487595Y-111602613D01*
X203405528Y-111756149D01*
X203354992Y-111922745D01*
X203337928Y-112095999D01*
X203337928Y-112896001D01*
X203354992Y-113069255D01*
X203405528Y-113235851D01*
X203487595Y-113389387D01*
X203598038Y-113523962D01*
X203732613Y-113634405D01*
X203886149Y-113716472D01*
X204052745Y-113767008D01*
X204225999Y-113784072D01*
X205476001Y-113784072D01*
X205649255Y-113767008D01*
X205815851Y-113716472D01*
X205969387Y-113634405D01*
X206103962Y-113523962D01*
X206214405Y-113389387D01*
X206296472Y-113235851D01*
X206347008Y-113069255D01*
X206364072Y-112896001D01*
X206364072Y-112240164D01*
X206434753Y-112169483D01*
X206468669Y-112141649D01*
X206501331Y-112101851D01*
X206579762Y-112006282D01*
X206579763Y-112006281D01*
X206662313Y-111851841D01*
X206713146Y-111684264D01*
X206726010Y-111553657D01*
X206726010Y-111553650D01*
X206730310Y-111509990D01*
X206726010Y-111466330D01*
X206726010Y-107943225D01*
X207844534Y-106824702D01*
X207877742Y-106886829D01*
X207916454Y-106934000D01*
X207877742Y-106981171D01*
X207804916Y-107117418D01*
X207760071Y-107265255D01*
X207744928Y-107419000D01*
X207744928Y-107719000D01*
X207760071Y-107872745D01*
X207804916Y-108020582D01*
X207877742Y-108156829D01*
X207975749Y-108276251D01*
X208095171Y-108374258D01*
X208231418Y-108447084D01*
X208379255Y-108491929D01*
X208533000Y-108507072D01*
X210183000Y-108507072D01*
X210336745Y-108491929D01*
X210484582Y-108447084D01*
X210620829Y-108374258D01*
X210740251Y-108276251D01*
X210838258Y-108156829D01*
X210911084Y-108020582D01*
X210955929Y-107872745D01*
X210971072Y-107719000D01*
X210971072Y-107419000D01*
X210955929Y-107265255D01*
X210911084Y-107117418D01*
X210838258Y-106981171D01*
X210799546Y-106934000D01*
X210838258Y-106886829D01*
X210911084Y-106750582D01*
X210955929Y-106602745D01*
X210971072Y-106449000D01*
X210971072Y-106149000D01*
X210955929Y-105995255D01*
X210911084Y-105847418D01*
X210838258Y-105711171D01*
X210799546Y-105664000D01*
X210838258Y-105616829D01*
X210911084Y-105480582D01*
X210955929Y-105332745D01*
X210971072Y-105179000D01*
X210971072Y-104879000D01*
X210955929Y-104725255D01*
X210911084Y-104577418D01*
X210883280Y-104525400D01*
X210883434Y-104525353D01*
X211026842Y-104448699D01*
X211152541Y-104345541D01*
X211178398Y-104314034D01*
X212865004Y-102627428D01*
X213026898Y-102595226D01*
X213215256Y-102517205D01*
X213384774Y-102403937D01*
X213528937Y-102259774D01*
X213642205Y-102090256D01*
X213676194Y-102008200D01*
X214109886Y-102441893D01*
%TA.AperFunction,Conductor*%
D31*
G36*
X214109886Y-102441893D02*
G01*
X213956149Y-102488528D01*
X213802613Y-102570595D01*
X213668038Y-102681038D01*
X213557595Y-102815613D01*
X213475528Y-102969149D01*
X213424992Y-103135745D01*
X213407928Y-103308999D01*
X213407928Y-104209001D01*
X213424992Y-104382255D01*
X213475528Y-104548851D01*
X213557595Y-104702387D01*
X213668038Y-104836962D01*
X213795500Y-104941568D01*
X213795501Y-106817928D01*
X213695999Y-106817928D01*
X213522745Y-106834992D01*
X213356149Y-106885528D01*
X213202613Y-106967595D01*
X213068038Y-107078038D01*
X212957595Y-107212613D01*
X212875528Y-107366149D01*
X212824992Y-107532745D01*
X212807928Y-107705999D01*
X212807928Y-108956001D01*
X212824992Y-109129255D01*
X212875528Y-109295851D01*
X212957595Y-109449387D01*
X213068038Y-109583962D01*
X213202613Y-109694405D01*
X213356149Y-109776472D01*
X213522745Y-109827008D01*
X213695999Y-109844072D01*
X214496001Y-109844072D01*
X214669255Y-109827008D01*
X214835851Y-109776472D01*
X214989387Y-109694405D01*
X215123962Y-109583962D01*
X215234405Y-109449387D01*
X215316472Y-109295851D01*
X215367008Y-109129255D01*
X215384072Y-108956001D01*
X215384072Y-108129572D01*
X215387353Y-108123434D01*
X215403173Y-108071281D01*
X215434556Y-107967826D01*
X215446500Y-107846553D01*
X215446500Y-107846551D01*
X215450494Y-107806001D01*
X215446500Y-107765450D01*
X215446500Y-104941568D01*
X215573962Y-104836962D01*
X215646000Y-104749184D01*
X215718038Y-104836962D01*
X215852613Y-104947405D01*
X216006149Y-105029472D01*
X216172745Y-105080008D01*
X216345999Y-105097072D01*
X216996001Y-105097072D01*
X217169255Y-105080008D01*
X217335851Y-105029472D01*
X217489387Y-104947405D01*
X217623962Y-104836962D01*
X217734405Y-104702387D01*
X217816472Y-104548851D01*
X217867008Y-104382255D01*
X217884072Y-104209001D01*
X217884072Y-103308999D01*
X217867008Y-103135745D01*
X217816472Y-102969149D01*
X217734405Y-102815613D01*
X217623962Y-102681038D01*
X217489387Y-102570595D01*
X217335851Y-102488528D01*
X217169255Y-102437992D01*
X217042421Y-102425500D01*
X221028068Y-102425500D01*
X221035197Y-102432629D01*
X220980745Y-102437992D01*
X220814149Y-102488528D01*
X220660613Y-102570595D01*
X220526038Y-102681038D01*
X220415595Y-102815613D01*
X220333528Y-102969149D01*
X220282992Y-103135745D01*
X220265928Y-103308999D01*
X220265928Y-104209001D01*
X220282992Y-104382255D01*
X220333528Y-104548851D01*
X220415595Y-104702387D01*
X220526038Y-104836962D01*
X220653500Y-104941568D01*
X220653501Y-106817928D01*
X220553999Y-106817928D01*
X220380745Y-106834992D01*
X220214149Y-106885528D01*
X220060613Y-106967595D01*
X219926038Y-107078038D01*
X219815595Y-107212613D01*
X219733528Y-107366149D01*
X219682992Y-107532745D01*
X219665928Y-107705999D01*
X219665928Y-108771010D01*
X218893246Y-108771010D01*
X218484072Y-108361837D01*
X218484072Y-107705999D01*
X218467008Y-107532745D01*
X218416472Y-107366149D01*
X218334405Y-107212613D01*
X218223962Y-107078038D01*
X218089387Y-106967595D01*
X217935851Y-106885528D01*
X217769255Y-106834992D01*
X217596001Y-106817928D01*
X216795999Y-106817928D01*
X216622745Y-106834992D01*
X216456149Y-106885528D01*
X216302613Y-106967595D01*
X216168038Y-107078038D01*
X216057595Y-107212613D01*
X215975528Y-107366149D01*
X215924992Y-107532745D01*
X215907928Y-107705999D01*
X215907928Y-108956001D01*
X215924992Y-109129255D01*
X215975528Y-109295851D01*
X216057595Y-109449387D01*
X216168038Y-109583962D01*
X216176696Y-109591068D01*
X207621837Y-118145928D01*
X206541000Y-118145928D01*
X206416518Y-118158188D01*
X206296820Y-118194498D01*
X206186506Y-118253463D01*
X206089815Y-118332815D01*
X206010463Y-118429506D01*
X205951498Y-118539820D01*
X205929487Y-118612380D01*
X205797632Y-118480525D01*
X205740000Y-118442017D01*
X205740000Y-116839481D01*
X205815851Y-116816472D01*
X205969387Y-116734405D01*
X206103962Y-116623962D01*
X206214405Y-116489387D01*
X206296472Y-116335851D01*
X206347008Y-116169255D01*
X206364072Y-115996001D01*
X206364072Y-115195999D01*
X206347008Y-115022745D01*
X206296472Y-114856149D01*
X206214405Y-114702613D01*
X206103962Y-114568038D01*
X205969387Y-114457595D01*
X205815851Y-114375528D01*
X205649255Y-114324992D01*
X205476001Y-114307928D01*
X204225999Y-114307928D01*
X204052745Y-114324992D01*
X203886149Y-114375528D01*
X203732613Y-114457595D01*
X203598038Y-114568038D01*
X203487595Y-114702613D01*
X203405528Y-114856149D01*
X203354992Y-115022745D01*
X203337928Y-115195999D01*
X203337928Y-115996001D01*
X203354992Y-116169255D01*
X203405528Y-116335851D01*
X203487595Y-116489387D01*
X203598038Y-116623962D01*
X203732613Y-116734405D01*
X203886149Y-116816472D01*
X203962001Y-116839481D01*
X203962000Y-118442016D01*
X203904368Y-118480525D01*
X203697525Y-118687368D01*
X203575805Y-118869534D01*
X203506178Y-118752645D01*
X203311269Y-118536412D01*
X203077920Y-118362359D01*
X202815099Y-118237175D01*
X202667890Y-118192524D01*
X202438000Y-118313845D01*
X202438000Y-119507000D01*
X202458000Y-119507000D01*
X202458000Y-119761000D01*
X202438000Y-119761000D01*
X202438000Y-119781000D01*
X202184000Y-119781000D01*
X202184000Y-119761000D01*
X200990186Y-119761000D01*
X200869519Y-119990891D01*
X200966843Y-120265252D01*
X201044726Y-120396000D01*
X201028236Y-120396000D01*
X199909345Y-119277109D01*
X200869519Y-119277109D01*
X200990186Y-119507000D01*
X202184000Y-119507000D01*
X202184000Y-118313845D01*
X201954110Y-118192524D01*
X201806901Y-118237175D01*
X201544080Y-118362359D01*
X201310731Y-118536412D01*
X201115822Y-118752645D01*
X200966843Y-119002748D01*
X200869519Y-119277109D01*
X199909345Y-119277109D01*
X195050092Y-114417857D01*
X195146842Y-114457932D01*
X195433740Y-114515000D01*
X195726260Y-114515000D01*
X196013158Y-114457932D01*
X196283411Y-114345990D01*
X196526632Y-114183475D01*
X196733475Y-113976632D01*
X196895990Y-113733411D01*
X197007932Y-113463158D01*
X197065000Y-113176260D01*
X197065000Y-112883740D01*
X197036578Y-112740854D01*
X200580041Y-109197392D01*
X200611541Y-109171541D01*
X200681539Y-109086248D01*
X200714699Y-109045843D01*
X200750500Y-108978864D01*
X200791353Y-108902434D01*
X200838556Y-108746826D01*
X200850500Y-108625553D01*
X200850500Y-108625551D01*
X200854494Y-108585001D01*
X200850500Y-108544450D01*
X200850500Y-104481932D01*
X202794928Y-102537505D01*
X202794928Y-102639000D01*
X202810071Y-102792745D01*
X202854916Y-102940582D01*
X202927742Y-103076829D01*
X202966454Y-103124000D01*
X202927742Y-103171171D01*
X202854916Y-103307418D01*
X202810071Y-103455255D01*
X202794928Y-103609000D01*
X202794928Y-103909000D01*
X202810071Y-104062745D01*
X202854916Y-104210582D01*
X202927742Y-104346829D01*
X202966454Y-104394000D01*
X202927742Y-104441171D01*
X202854916Y-104577418D01*
X202810071Y-104725255D01*
X202794928Y-104879000D01*
X202794928Y-105179000D01*
X202810071Y-105332745D01*
X202854916Y-105480582D01*
X202927742Y-105616829D01*
X202966454Y-105664000D01*
X202927742Y-105711171D01*
X202854916Y-105847418D01*
X202810071Y-105995255D01*
X202794928Y-106149000D01*
X202794928Y-106449000D01*
X202810071Y-106602745D01*
X202854916Y-106750582D01*
X202927742Y-106886829D01*
X202966454Y-106934000D01*
X202927742Y-106981171D01*
X202854916Y-107117418D01*
X202810071Y-107265255D01*
X202794928Y-107419000D01*
X202794928Y-107719000D01*
X202810071Y-107872745D01*
X202854916Y-108020582D01*
X202927742Y-108156829D01*
X203025749Y-108276251D01*
X203145171Y-108374258D01*
X203281418Y-108447084D01*
X203429255Y-108491929D01*
X203583000Y-108507072D01*
X204948011Y-108507072D01*
X204948010Y-111141754D01*
X204881836Y-111207928D01*
X204225999Y-111207928D01*
X204052745Y-111224992D01*
X203886149Y-111275528D01*
X203732613Y-111357595D01*
X203598038Y-111468038D01*
X203487595Y-111602613D01*
X203405528Y-111756149D01*
X203354992Y-111922745D01*
X203337928Y-112095999D01*
X203337928Y-112896001D01*
X203354992Y-113069255D01*
X203405528Y-113235851D01*
X203487595Y-113389387D01*
X203598038Y-113523962D01*
X203732613Y-113634405D01*
X203886149Y-113716472D01*
X204052745Y-113767008D01*
X204225999Y-113784072D01*
X205476001Y-113784072D01*
X205649255Y-113767008D01*
X205815851Y-113716472D01*
X205969387Y-113634405D01*
X206103962Y-113523962D01*
X206214405Y-113389387D01*
X206296472Y-113235851D01*
X206347008Y-113069255D01*
X206364072Y-112896001D01*
X206364072Y-112240164D01*
X206434753Y-112169483D01*
X206468669Y-112141649D01*
X206501331Y-112101851D01*
X206579762Y-112006282D01*
X206579763Y-112006281D01*
X206662313Y-111851841D01*
X206713146Y-111684264D01*
X206726010Y-111553657D01*
X206726010Y-111553650D01*
X206730310Y-111509990D01*
X206726010Y-111466330D01*
X206726010Y-107943225D01*
X207844534Y-106824702D01*
X207877742Y-106886829D01*
X207916454Y-106934000D01*
X207877742Y-106981171D01*
X207804916Y-107117418D01*
X207760071Y-107265255D01*
X207744928Y-107419000D01*
X207744928Y-107719000D01*
X207760071Y-107872745D01*
X207804916Y-108020582D01*
X207877742Y-108156829D01*
X207975749Y-108276251D01*
X208095171Y-108374258D01*
X208231418Y-108447084D01*
X208379255Y-108491929D01*
X208533000Y-108507072D01*
X210183000Y-108507072D01*
X210336745Y-108491929D01*
X210484582Y-108447084D01*
X210620829Y-108374258D01*
X210740251Y-108276251D01*
X210838258Y-108156829D01*
X210911084Y-108020582D01*
X210955929Y-107872745D01*
X210971072Y-107719000D01*
X210971072Y-107419000D01*
X210955929Y-107265255D01*
X210911084Y-107117418D01*
X210838258Y-106981171D01*
X210799546Y-106934000D01*
X210838258Y-106886829D01*
X210911084Y-106750582D01*
X210955929Y-106602745D01*
X210971072Y-106449000D01*
X210971072Y-106149000D01*
X210955929Y-105995255D01*
X210911084Y-105847418D01*
X210838258Y-105711171D01*
X210799546Y-105664000D01*
X210838258Y-105616829D01*
X210911084Y-105480582D01*
X210955929Y-105332745D01*
X210971072Y-105179000D01*
X210971072Y-104879000D01*
X210955929Y-104725255D01*
X210911084Y-104577418D01*
X210883280Y-104525400D01*
X210883434Y-104525353D01*
X211026842Y-104448699D01*
X211152541Y-104345541D01*
X211178398Y-104314034D01*
X212865004Y-102627428D01*
X213026898Y-102595226D01*
X213215256Y-102517205D01*
X213384774Y-102403937D01*
X213528937Y-102259774D01*
X213642205Y-102090256D01*
X213676194Y-102008200D01*
X214109886Y-102441893D01*
G37*
%TD.AperFunction*%
D30*
X183992068Y-103303158D02*
X184104010Y-103573411D01*
X184266525Y-103816632D01*
X184473368Y-104023475D01*
X184646729Y-104139311D01*
X184571208Y-104381603D01*
X185420000Y-105230395D01*
X185434143Y-105216253D01*
X185613748Y-105395858D01*
X185599605Y-105410000D01*
X185613748Y-105424143D01*
X185434143Y-105603748D01*
X185420000Y-105589605D01*
X184571208Y-106438397D01*
X184646729Y-106680689D01*
X184473368Y-106796525D01*
X184266525Y-107003368D01*
X184104010Y-107246589D01*
X183992068Y-107516842D01*
X183935000Y-107803740D01*
X183935000Y-108096260D01*
X183992068Y-108383158D01*
X184104010Y-108653411D01*
X184266525Y-108896632D01*
X184473368Y-109103475D01*
X184647760Y-109220000D01*
X184473368Y-109336525D01*
X184266525Y-109543368D01*
X184104010Y-109786589D01*
X183992068Y-110056842D01*
X183935000Y-110343740D01*
X183935000Y-110636260D01*
X183981693Y-110871000D01*
X176022000Y-110871000D01*
X176022000Y-107048235D01*
X177591704Y-105478531D01*
X183929389Y-105478531D01*
X183971401Y-105768019D01*
X184069081Y-106043747D01*
X184142528Y-106181157D01*
X184391603Y-106258792D01*
X185240395Y-105410000D01*
X184391603Y-104561208D01*
X184142528Y-104638843D01*
X184016629Y-104902883D01*
X183944661Y-105186411D01*
X183929389Y-105478531D01*
X177591704Y-105478531D01*
X179946236Y-103124000D01*
X183956431Y-103124000D01*
X183992068Y-103303158D01*
%TA.AperFunction,Conductor*%
D31*
G36*
X183992068Y-103303158D02*
G01*
X184104010Y-103573411D01*
X184266525Y-103816632D01*
X184473368Y-104023475D01*
X184646729Y-104139311D01*
X184571208Y-104381603D01*
X185420000Y-105230395D01*
X185434143Y-105216253D01*
X185613748Y-105395858D01*
X185599605Y-105410000D01*
X185613748Y-105424143D01*
X185434143Y-105603748D01*
X185420000Y-105589605D01*
X184571208Y-106438397D01*
X184646729Y-106680689D01*
X184473368Y-106796525D01*
X184266525Y-107003368D01*
X184104010Y-107246589D01*
X183992068Y-107516842D01*
X183935000Y-107803740D01*
X183935000Y-108096260D01*
X183992068Y-108383158D01*
X184104010Y-108653411D01*
X184266525Y-108896632D01*
X184473368Y-109103475D01*
X184647760Y-109220000D01*
X184473368Y-109336525D01*
X184266525Y-109543368D01*
X184104010Y-109786589D01*
X183992068Y-110056842D01*
X183935000Y-110343740D01*
X183935000Y-110636260D01*
X183981693Y-110871000D01*
X176022000Y-110871000D01*
X176022000Y-107048235D01*
X177591704Y-105478531D01*
X183929389Y-105478531D01*
X183971401Y-105768019D01*
X184069081Y-106043747D01*
X184142528Y-106181157D01*
X184391603Y-106258792D01*
X185240395Y-105410000D01*
X184391603Y-104561208D01*
X184142528Y-104638843D01*
X184016629Y-104902883D01*
X183944661Y-105186411D01*
X183929389Y-105478531D01*
X177591704Y-105478531D01*
X179946236Y-103124000D01*
X183956431Y-103124000D01*
X183992068Y-103303158D01*
G37*
%TD.AperFunction*%
D30*
X204896595Y-91487614D02*
X204814528Y-91641150D01*
X204763992Y-91807746D01*
X204746928Y-91981000D01*
X204746928Y-92931000D01*
X204763992Y-93104254D01*
X204814528Y-93270850D01*
X204896595Y-93424386D01*
X205007038Y-93558962D01*
X205141614Y-93669405D01*
X205147000Y-93672284D01*
X205147001Y-94795716D01*
X205141614Y-94798595D01*
X205007038Y-94909038D01*
X204896595Y-95043614D01*
X204814528Y-95197150D01*
X204763992Y-95363746D01*
X204746928Y-95537000D01*
X204746928Y-96487000D01*
X204763992Y-96660254D01*
X204814528Y-96826850D01*
X204896595Y-96980386D01*
X205007038Y-97114962D01*
X205141614Y-97225405D01*
X205147001Y-97228284D01*
X205147001Y-98042566D01*
X204178640Y-99010928D01*
X203583000Y-99010928D01*
X203429255Y-99026071D01*
X203281418Y-99070916D01*
X203145171Y-99143742D01*
X203025749Y-99241749D01*
X202927742Y-99361171D01*
X202854916Y-99497418D01*
X202810071Y-99645255D01*
X202794928Y-99799000D01*
X202794928Y-100099000D01*
X202810071Y-100252745D01*
X202854296Y-100398538D01*
X202784174Y-100405444D01*
X202636738Y-100450168D01*
X202628566Y-100452647D01*
X202485157Y-100529301D01*
X202390958Y-100606608D01*
X202390955Y-100606611D01*
X202359459Y-100632459D01*
X202333611Y-100663955D01*
X199469961Y-103527607D01*
X199438460Y-103553459D01*
X199412609Y-103584959D01*
X199335301Y-103679158D01*
X199258647Y-103822567D01*
X199211445Y-103978174D01*
X199195506Y-104140000D01*
X199199501Y-104180560D01*
X199199500Y-108243067D01*
X197065000Y-110377568D01*
X197065000Y-110343740D01*
X197007932Y-110056842D01*
X196895990Y-109786589D01*
X196733475Y-109543368D01*
X196526632Y-109336525D01*
X196352240Y-109220000D01*
X196526632Y-109103475D01*
X196733475Y-108896632D01*
X196895990Y-108653411D01*
X197007932Y-108383158D01*
X197065000Y-108096260D01*
X197065000Y-107803740D01*
X197007932Y-107516842D01*
X196895990Y-107246589D01*
X196733475Y-107003368D01*
X196526632Y-106796525D01*
X196353271Y-106680689D01*
X196428792Y-106438397D01*
X195580000Y-105589605D01*
X195565858Y-105603748D01*
X195386253Y-105424143D01*
X195400395Y-105410000D01*
X195759605Y-105410000D01*
X196608397Y-106258792D01*
X196857472Y-106181157D01*
X196983371Y-105917117D01*
X197055339Y-105633589D01*
X197070611Y-105341469D01*
X197028599Y-105051981D01*
X196930919Y-104776253D01*
X196857472Y-104638843D01*
X196608397Y-104561208D01*
X195759605Y-105410000D01*
X195400395Y-105410000D01*
X194551603Y-104561208D01*
X194302528Y-104638843D01*
X194176629Y-104902883D01*
X194134742Y-105067902D01*
X192025000Y-102958160D01*
X192025000Y-100183740D01*
X194095000Y-100183740D01*
X194095000Y-100476260D01*
X194152068Y-100763158D01*
X194264010Y-101033411D01*
X194426525Y-101276632D01*
X194633368Y-101483475D01*
X194807760Y-101600000D01*
X194633368Y-101716525D01*
X194426525Y-101923368D01*
X194264010Y-102166589D01*
X194152068Y-102436842D01*
X194095000Y-102723740D01*
X194095000Y-103016260D01*
X194152068Y-103303158D01*
X194264010Y-103573411D01*
X194426525Y-103816632D01*
X194633368Y-104023475D01*
X194806729Y-104139311D01*
X194731208Y-104381603D01*
X195580000Y-105230395D01*
X196428792Y-104381603D01*
X196353271Y-104139311D01*
X196526632Y-104023475D01*
X196733475Y-103816632D01*
X196895990Y-103573411D01*
X197007932Y-103303158D01*
X197065000Y-103016260D01*
X197065000Y-102723740D01*
X197007932Y-102436842D01*
X196895990Y-102166589D01*
X196733475Y-101923368D01*
X196526632Y-101716525D01*
X196352240Y-101600000D01*
X196526632Y-101483475D01*
X196733475Y-101276632D01*
X196895990Y-101033411D01*
X197007932Y-100763158D01*
X197065000Y-100476260D01*
X197065000Y-100183740D01*
X197007932Y-99896842D01*
X196895990Y-99626589D01*
X196733475Y-99383368D01*
X196526632Y-99176525D01*
X196283411Y-99014010D01*
X196013158Y-98902068D01*
X195726260Y-98845000D01*
X195433740Y-98845000D01*
X195146842Y-98902068D01*
X194876589Y-99014010D01*
X194633368Y-99176525D01*
X194426525Y-99383368D01*
X194264010Y-99626589D01*
X194152068Y-99896842D01*
X194095000Y-100183740D01*
X192025000Y-100183740D01*
X192025000Y-94742000D01*
X195580000Y-94742000D01*
X195604776Y-94739560D01*
X195628601Y-94732333D01*
X195650557Y-94720597D01*
X195669803Y-94704803D01*
X195685597Y-94685557D01*
X195697333Y-94663601D01*
X195704560Y-94639776D01*
X195707000Y-94615000D01*
X195707000Y-91464000D01*
X204915974Y-91464000D01*
X204896595Y-91487614D01*
%TA.AperFunction,Conductor*%
D31*
G36*
X204896595Y-91487614D02*
G01*
X204814528Y-91641150D01*
X204763992Y-91807746D01*
X204746928Y-91981000D01*
X204746928Y-92931000D01*
X204763992Y-93104254D01*
X204814528Y-93270850D01*
X204896595Y-93424386D01*
X205007038Y-93558962D01*
X205141614Y-93669405D01*
X205147000Y-93672284D01*
X205147001Y-94795716D01*
X205141614Y-94798595D01*
X205007038Y-94909038D01*
X204896595Y-95043614D01*
X204814528Y-95197150D01*
X204763992Y-95363746D01*
X204746928Y-95537000D01*
X204746928Y-96487000D01*
X204763992Y-96660254D01*
X204814528Y-96826850D01*
X204896595Y-96980386D01*
X205007038Y-97114962D01*
X205141614Y-97225405D01*
X205147001Y-97228284D01*
X205147001Y-98042566D01*
X204178640Y-99010928D01*
X203583000Y-99010928D01*
X203429255Y-99026071D01*
X203281418Y-99070916D01*
X203145171Y-99143742D01*
X203025749Y-99241749D01*
X202927742Y-99361171D01*
X202854916Y-99497418D01*
X202810071Y-99645255D01*
X202794928Y-99799000D01*
X202794928Y-100099000D01*
X202810071Y-100252745D01*
X202854296Y-100398538D01*
X202784174Y-100405444D01*
X202636738Y-100450168D01*
X202628566Y-100452647D01*
X202485157Y-100529301D01*
X202390958Y-100606608D01*
X202390955Y-100606611D01*
X202359459Y-100632459D01*
X202333611Y-100663955D01*
X199469961Y-103527607D01*
X199438460Y-103553459D01*
X199412609Y-103584959D01*
X199335301Y-103679158D01*
X199258647Y-103822567D01*
X199211445Y-103978174D01*
X199195506Y-104140000D01*
X199199501Y-104180560D01*
X199199500Y-108243067D01*
X197065000Y-110377568D01*
X197065000Y-110343740D01*
X197007932Y-110056842D01*
X196895990Y-109786589D01*
X196733475Y-109543368D01*
X196526632Y-109336525D01*
X196352240Y-109220000D01*
X196526632Y-109103475D01*
X196733475Y-108896632D01*
X196895990Y-108653411D01*
X197007932Y-108383158D01*
X197065000Y-108096260D01*
X197065000Y-107803740D01*
X197007932Y-107516842D01*
X196895990Y-107246589D01*
X196733475Y-107003368D01*
X196526632Y-106796525D01*
X196353271Y-106680689D01*
X196428792Y-106438397D01*
X195580000Y-105589605D01*
X195565858Y-105603748D01*
X195386253Y-105424143D01*
X195400395Y-105410000D01*
X195759605Y-105410000D01*
X196608397Y-106258792D01*
X196857472Y-106181157D01*
X196983371Y-105917117D01*
X197055339Y-105633589D01*
X197070611Y-105341469D01*
X197028599Y-105051981D01*
X196930919Y-104776253D01*
X196857472Y-104638843D01*
X196608397Y-104561208D01*
X195759605Y-105410000D01*
X195400395Y-105410000D01*
X194551603Y-104561208D01*
X194302528Y-104638843D01*
X194176629Y-104902883D01*
X194134742Y-105067902D01*
X192025000Y-102958160D01*
X192025000Y-100183740D01*
X194095000Y-100183740D01*
X194095000Y-100476260D01*
X194152068Y-100763158D01*
X194264010Y-101033411D01*
X194426525Y-101276632D01*
X194633368Y-101483475D01*
X194807760Y-101600000D01*
X194633368Y-101716525D01*
X194426525Y-101923368D01*
X194264010Y-102166589D01*
X194152068Y-102436842D01*
X194095000Y-102723740D01*
X194095000Y-103016260D01*
X194152068Y-103303158D01*
X194264010Y-103573411D01*
X194426525Y-103816632D01*
X194633368Y-104023475D01*
X194806729Y-104139311D01*
X194731208Y-104381603D01*
X195580000Y-105230395D01*
X196428792Y-104381603D01*
X196353271Y-104139311D01*
X196526632Y-104023475D01*
X196733475Y-103816632D01*
X196895990Y-103573411D01*
X197007932Y-103303158D01*
X197065000Y-103016260D01*
X197065000Y-102723740D01*
X197007932Y-102436842D01*
X196895990Y-102166589D01*
X196733475Y-101923368D01*
X196526632Y-101716525D01*
X196352240Y-101600000D01*
X196526632Y-101483475D01*
X196733475Y-101276632D01*
X196895990Y-101033411D01*
X197007932Y-100763158D01*
X197065000Y-100476260D01*
X197065000Y-100183740D01*
X197007932Y-99896842D01*
X196895990Y-99626589D01*
X196733475Y-99383368D01*
X196526632Y-99176525D01*
X196283411Y-99014010D01*
X196013158Y-98902068D01*
X195726260Y-98845000D01*
X195433740Y-98845000D01*
X195146842Y-98902068D01*
X194876589Y-99014010D01*
X194633368Y-99176525D01*
X194426525Y-99383368D01*
X194264010Y-99626589D01*
X194152068Y-99896842D01*
X194095000Y-100183740D01*
X192025000Y-100183740D01*
X192025000Y-94742000D01*
X195580000Y-94742000D01*
X195604776Y-94739560D01*
X195628601Y-94732333D01*
X195650557Y-94720597D01*
X195669803Y-94704803D01*
X195685597Y-94685557D01*
X195697333Y-94663601D01*
X195704560Y-94639776D01*
X195707000Y-94615000D01*
X195707000Y-91464000D01*
X204915974Y-91464000D01*
X204896595Y-91487614D01*
G37*
%TD.AperFunction*%
D30*
X185209129Y-98857852D02*
X184986842Y-98902068D01*
X184716589Y-99014010D01*
X184473368Y-99176525D01*
X184266525Y-99383368D01*
X184228017Y-99441000D01*
X178986659Y-99441000D01*
X178942999Y-99436700D01*
X178899339Y-99441000D01*
X178899333Y-99441000D01*
X178801924Y-99450594D01*
X178768724Y-99453864D01*
X178667058Y-99484704D01*
X178601149Y-99504697D01*
X178446709Y-99587247D01*
X178311341Y-99698341D01*
X178283506Y-99732258D01*
X176022000Y-101993764D01*
X176022000Y-98477606D01*
X179757606Y-94742000D01*
X181093278Y-94742000D01*
X185209129Y-98857852D01*
%TA.AperFunction,Conductor*%
D31*
G36*
X185209129Y-98857852D02*
G01*
X184986842Y-98902068D01*
X184716589Y-99014010D01*
X184473368Y-99176525D01*
X184266525Y-99383368D01*
X184228017Y-99441000D01*
X178986659Y-99441000D01*
X178942999Y-99436700D01*
X178899339Y-99441000D01*
X178899333Y-99441000D01*
X178801924Y-99450594D01*
X178768724Y-99453864D01*
X178667058Y-99484704D01*
X178601149Y-99504697D01*
X178446709Y-99587247D01*
X178311341Y-99698341D01*
X178283506Y-99732258D01*
X176022000Y-101993764D01*
X176022000Y-98477606D01*
X179757606Y-94742000D01*
X181093278Y-94742000D01*
X185209129Y-98857852D01*
G37*
%TD.AperFunction*%
D30*
X209359501Y-90250560D02*
X209359500Y-97485696D01*
X209355506Y-97526247D01*
X209359500Y-97566797D01*
X209359500Y-97566799D01*
X209371444Y-97688072D01*
X209397780Y-97774889D01*
X209418647Y-97843680D01*
X209495301Y-97987089D01*
X209529214Y-98028412D01*
X209598459Y-98112788D01*
X209629966Y-98138645D01*
X210048491Y-98557170D01*
X210048491Y-99012196D01*
X209643750Y-99014000D01*
X209485000Y-99172750D01*
X209485000Y-99822000D01*
X209505000Y-99822000D01*
X209505000Y-100076000D01*
X209485000Y-100076000D01*
X209485000Y-100096000D01*
X209231000Y-100096000D01*
X209231000Y-100076000D01*
X209211000Y-100076000D01*
X209211000Y-99822000D01*
X209231000Y-99822000D01*
X209231000Y-99172750D01*
X209072250Y-99014000D01*
X208383000Y-99010928D01*
X208258518Y-99023188D01*
X208138820Y-99059498D01*
X208028506Y-99118463D01*
X207931815Y-99197815D01*
X207852463Y-99294506D01*
X207793498Y-99404820D01*
X207757188Y-99524518D01*
X207749212Y-99605501D01*
X207669774Y-99526063D01*
X207500256Y-99412795D01*
X207311898Y-99334774D01*
X207111939Y-99295000D01*
X207051105Y-99295000D01*
X207624536Y-98721570D01*
X207656031Y-98695723D01*
X207681879Y-98664227D01*
X207681882Y-98664224D01*
X207759189Y-98570025D01*
X207835843Y-98426616D01*
X207850161Y-98379416D01*
X207883046Y-98271008D01*
X207894990Y-98149735D01*
X207894990Y-98149733D01*
X207898984Y-98109182D01*
X207894990Y-98068632D01*
X207894990Y-97238760D01*
X207920500Y-97213250D01*
X207920500Y-96139000D01*
X208174500Y-96139000D01*
X208174500Y-97213250D01*
X208333250Y-97372000D01*
X208635000Y-97375072D01*
X208759482Y-97362812D01*
X208879180Y-97326502D01*
X208989494Y-97267537D01*
X209086185Y-97188185D01*
X209165537Y-97091494D01*
X209224502Y-96981180D01*
X209260812Y-96861482D01*
X209273072Y-96737000D01*
X209270000Y-96297750D01*
X209111250Y-96139000D01*
X208174500Y-96139000D01*
X207920500Y-96139000D01*
X207900500Y-96139000D01*
X207900500Y-95885000D01*
X207920500Y-95885000D01*
X207920500Y-94810750D01*
X208174500Y-94810750D01*
X208174500Y-95885000D01*
X209111250Y-95885000D01*
X209270000Y-95726250D01*
X209273072Y-95287000D01*
X209260812Y-95162518D01*
X209224502Y-95042820D01*
X209165537Y-94932506D01*
X209086185Y-94835815D01*
X208989494Y-94756463D01*
X208879180Y-94697498D01*
X208759482Y-94661188D01*
X208635000Y-94648928D01*
X208333250Y-94652000D01*
X208174500Y-94810750D01*
X207920500Y-94810750D01*
X207894990Y-94785240D01*
X207894990Y-93682760D01*
X207920500Y-93657250D01*
X207920500Y-92583000D01*
X208174500Y-92583000D01*
X208174500Y-93657250D01*
X208333250Y-93816000D01*
X208635000Y-93819072D01*
X208759482Y-93806812D01*
X208879180Y-93770502D01*
X208989494Y-93711537D01*
X209086185Y-93632185D01*
X209165537Y-93535494D01*
X209224502Y-93425180D01*
X209260812Y-93305482D01*
X209273072Y-93181000D01*
X209270000Y-92741750D01*
X209111250Y-92583000D01*
X208174500Y-92583000D01*
X207920500Y-92583000D01*
X207900500Y-92583000D01*
X207900500Y-92329000D01*
X207920500Y-92329000D01*
X207920500Y-92309000D01*
X208174500Y-92309000D01*
X208174500Y-92329000D01*
X209111250Y-92329000D01*
X209270000Y-92170250D01*
X209273072Y-91731000D01*
X209260812Y-91606518D01*
X209224502Y-91486820D01*
X209165537Y-91376506D01*
X209086185Y-91279815D01*
X208989494Y-91200463D01*
X208879180Y-91141498D01*
X208759482Y-91105188D01*
X208635000Y-91092928D01*
X208515384Y-91094146D01*
X209359453Y-90250077D01*
X209359501Y-90250560D01*
%TA.AperFunction,Conductor*%
D31*
G36*
X209359501Y-90250560D02*
G01*
X209359500Y-97485696D01*
X209355506Y-97526247D01*
X209359500Y-97566797D01*
X209359500Y-97566799D01*
X209371444Y-97688072D01*
X209397780Y-97774889D01*
X209418647Y-97843680D01*
X209495301Y-97987089D01*
X209529214Y-98028412D01*
X209598459Y-98112788D01*
X209629966Y-98138645D01*
X210048491Y-98557170D01*
X210048491Y-99012196D01*
X209643750Y-99014000D01*
X209485000Y-99172750D01*
X209485000Y-99822000D01*
X209505000Y-99822000D01*
X209505000Y-100076000D01*
X209485000Y-100076000D01*
X209485000Y-100096000D01*
X209231000Y-100096000D01*
X209231000Y-100076000D01*
X209211000Y-100076000D01*
X209211000Y-99822000D01*
X209231000Y-99822000D01*
X209231000Y-99172750D01*
X209072250Y-99014000D01*
X208383000Y-99010928D01*
X208258518Y-99023188D01*
X208138820Y-99059498D01*
X208028506Y-99118463D01*
X207931815Y-99197815D01*
X207852463Y-99294506D01*
X207793498Y-99404820D01*
X207757188Y-99524518D01*
X207749212Y-99605501D01*
X207669774Y-99526063D01*
X207500256Y-99412795D01*
X207311898Y-99334774D01*
X207111939Y-99295000D01*
X207051105Y-99295000D01*
X207624536Y-98721570D01*
X207656031Y-98695723D01*
X207681879Y-98664227D01*
X207681882Y-98664224D01*
X207759189Y-98570025D01*
X207835843Y-98426616D01*
X207850161Y-98379416D01*
X207883046Y-98271008D01*
X207894990Y-98149735D01*
X207894990Y-98149733D01*
X207898984Y-98109182D01*
X207894990Y-98068632D01*
X207894990Y-97238760D01*
X207920500Y-97213250D01*
X207920500Y-96139000D01*
X208174500Y-96139000D01*
X208174500Y-97213250D01*
X208333250Y-97372000D01*
X208635000Y-97375072D01*
X208759482Y-97362812D01*
X208879180Y-97326502D01*
X208989494Y-97267537D01*
X209086185Y-97188185D01*
X209165537Y-97091494D01*
X209224502Y-96981180D01*
X209260812Y-96861482D01*
X209273072Y-96737000D01*
X209270000Y-96297750D01*
X209111250Y-96139000D01*
X208174500Y-96139000D01*
X207920500Y-96139000D01*
X207900500Y-96139000D01*
X207900500Y-95885000D01*
X207920500Y-95885000D01*
X207920500Y-94810750D01*
X208174500Y-94810750D01*
X208174500Y-95885000D01*
X209111250Y-95885000D01*
X209270000Y-95726250D01*
X209273072Y-95287000D01*
X209260812Y-95162518D01*
X209224502Y-95042820D01*
X209165537Y-94932506D01*
X209086185Y-94835815D01*
X208989494Y-94756463D01*
X208879180Y-94697498D01*
X208759482Y-94661188D01*
X208635000Y-94648928D01*
X208333250Y-94652000D01*
X208174500Y-94810750D01*
X207920500Y-94810750D01*
X207894990Y-94785240D01*
X207894990Y-93682760D01*
X207920500Y-93657250D01*
X207920500Y-92583000D01*
X208174500Y-92583000D01*
X208174500Y-93657250D01*
X208333250Y-93816000D01*
X208635000Y-93819072D01*
X208759482Y-93806812D01*
X208879180Y-93770502D01*
X208989494Y-93711537D01*
X209086185Y-93632185D01*
X209165537Y-93535494D01*
X209224502Y-93425180D01*
X209260812Y-93305482D01*
X209273072Y-93181000D01*
X209270000Y-92741750D01*
X209111250Y-92583000D01*
X208174500Y-92583000D01*
X207920500Y-92583000D01*
X207900500Y-92583000D01*
X207900500Y-92329000D01*
X207920500Y-92329000D01*
X207920500Y-92309000D01*
X208174500Y-92309000D01*
X208174500Y-92329000D01*
X209111250Y-92329000D01*
X209270000Y-92170250D01*
X209273072Y-91731000D01*
X209260812Y-91606518D01*
X209224502Y-91486820D01*
X209165537Y-91376506D01*
X209086185Y-91279815D01*
X208989494Y-91200463D01*
X208879180Y-91141498D01*
X208759482Y-91105188D01*
X208635000Y-91092928D01*
X208515384Y-91094146D01*
X209359453Y-90250077D01*
X209359501Y-90250560D01*
G37*
%TD.AperFunction*%
D30*
X213804501Y-88989079D02*
X213689482Y-88954188D01*
X213565000Y-88941928D01*
X213100750Y-88945000D01*
X212942000Y-89103750D01*
X212942000Y-89953000D01*
X212962000Y-89953000D01*
X212962000Y-90207000D01*
X212942000Y-90207000D01*
X212942000Y-91056250D01*
X213100750Y-91215000D01*
X213565000Y-91218072D01*
X213689482Y-91205812D01*
X213804501Y-91170921D01*
X213804501Y-91419079D01*
X213689482Y-91384188D01*
X213565000Y-91371928D01*
X212065000Y-91371928D01*
X211940518Y-91384188D01*
X211820820Y-91420498D01*
X211710506Y-91479463D01*
X211613815Y-91558815D01*
X211534463Y-91655506D01*
X211510724Y-91699917D01*
X211366566Y-91743647D01*
X211223158Y-91820301D01*
X211097459Y-91923459D01*
X211071606Y-91954962D01*
X211010500Y-92016067D01*
X211010500Y-90551932D01*
X211430000Y-90132433D01*
X211430000Y-90207002D01*
X211588748Y-90207002D01*
X211430000Y-90365750D01*
X211426928Y-90580000D01*
X211439188Y-90704482D01*
X211475498Y-90824180D01*
X211534463Y-90934494D01*
X211613815Y-91031185D01*
X211710506Y-91110537D01*
X211820820Y-91169502D01*
X211940518Y-91205812D01*
X212065000Y-91218072D01*
X212529250Y-91215000D01*
X212688000Y-91056250D01*
X212688000Y-90207000D01*
X212668000Y-90207000D01*
X212668000Y-89953000D01*
X212688000Y-89953000D01*
X212688000Y-89103750D01*
X212573342Y-88989092D01*
X212844362Y-88718072D01*
X213565000Y-88718072D01*
X213689482Y-88705812D01*
X213804501Y-88670921D01*
X213804501Y-88989079D01*
%TA.AperFunction,Conductor*%
D31*
G36*
X213804501Y-88989079D02*
G01*
X213689482Y-88954188D01*
X213565000Y-88941928D01*
X213100750Y-88945000D01*
X212942000Y-89103750D01*
X212942000Y-89953000D01*
X212962000Y-89953000D01*
X212962000Y-90207000D01*
X212942000Y-90207000D01*
X212942000Y-91056250D01*
X213100750Y-91215000D01*
X213565000Y-91218072D01*
X213689482Y-91205812D01*
X213804501Y-91170921D01*
X213804501Y-91419079D01*
X213689482Y-91384188D01*
X213565000Y-91371928D01*
X212065000Y-91371928D01*
X211940518Y-91384188D01*
X211820820Y-91420498D01*
X211710506Y-91479463D01*
X211613815Y-91558815D01*
X211534463Y-91655506D01*
X211510724Y-91699917D01*
X211366566Y-91743647D01*
X211223158Y-91820301D01*
X211097459Y-91923459D01*
X211071606Y-91954962D01*
X211010500Y-92016067D01*
X211010500Y-90551932D01*
X211430000Y-90132433D01*
X211430000Y-90207002D01*
X211588748Y-90207002D01*
X211430000Y-90365750D01*
X211426928Y-90580000D01*
X211439188Y-90704482D01*
X211475498Y-90824180D01*
X211534463Y-90934494D01*
X211613815Y-91031185D01*
X211710506Y-91110537D01*
X211820820Y-91169502D01*
X211940518Y-91205812D01*
X212065000Y-91218072D01*
X212529250Y-91215000D01*
X212688000Y-91056250D01*
X212688000Y-90207000D01*
X212668000Y-90207000D01*
X212668000Y-89953000D01*
X212688000Y-89953000D01*
X212688000Y-89103750D01*
X212573342Y-88989092D01*
X212844362Y-88718072D01*
X213565000Y-88718072D01*
X213689482Y-88705812D01*
X213804501Y-88670921D01*
X213804501Y-88989079D01*
G37*
%TD.AperFunction*%
%TD*%
D30*
%TO.N,GND*%
X197993000Y-93218000D02*
X194547072Y-93218000D01*
X194547072Y-91464000D01*
X197993000Y-91464000D01*
X197993000Y-93218000D01*
%TA.AperFunction,Conductor*%
D31*
G36*
X197993000Y-93218000D02*
G01*
X194547072Y-93218000D01*
X194547072Y-91464000D01*
X197993000Y-91464000D01*
X197993000Y-93218000D01*
G37*
%TD.AperFunction*%
D30*
X197993000Y-89686000D02*
X194547072Y-89686000D01*
X194547072Y-87375000D01*
X194534812Y-87250518D01*
X194498502Y-87130820D01*
X194439537Y-87020506D01*
X194360185Y-86923815D01*
X194263494Y-86844463D01*
X194153180Y-86785498D01*
X194033482Y-86749188D01*
X193909000Y-86736928D01*
X192025000Y-86736928D01*
X192025000Y-85855060D01*
X192060185Y-85826185D01*
X192139537Y-85729494D01*
X192149000Y-85711790D01*
X192158463Y-85729494D01*
X192237815Y-85826185D01*
X192334506Y-85905537D01*
X192444820Y-85964502D01*
X192564518Y-86000812D01*
X192689000Y-86013072D01*
X192876250Y-86010000D01*
X193035000Y-85851250D01*
X193035000Y-84529000D01*
X193543000Y-84529000D01*
X193543000Y-85851250D01*
X193701750Y-86010000D01*
X193889000Y-86013072D01*
X194013482Y-86000812D01*
X194133180Y-85964502D01*
X194243494Y-85905537D01*
X194340185Y-85826185D01*
X194419537Y-85729494D01*
X194478502Y-85619180D01*
X194514812Y-85499482D01*
X194527072Y-85375000D01*
X194524000Y-84687750D01*
X194365250Y-84529000D01*
X193543000Y-84529000D01*
X193035000Y-84529000D01*
X193015000Y-84529000D01*
X193015000Y-84021000D01*
X193035000Y-84021000D01*
X193035000Y-82698750D01*
X193543000Y-82698750D01*
X193543000Y-84021000D01*
X194365250Y-84021000D01*
X194524000Y-83862250D01*
X194527072Y-83175000D01*
X194514812Y-83050518D01*
X194478502Y-82930820D01*
X194419537Y-82820506D01*
X194340185Y-82723815D01*
X194243494Y-82644463D01*
X194133180Y-82585498D01*
X194013482Y-82549188D01*
X193889000Y-82536928D01*
X193701750Y-82540000D01*
X193543000Y-82698750D01*
X193035000Y-82698750D01*
X192876250Y-82540000D01*
X192689000Y-82536928D01*
X192564518Y-82549188D01*
X192444820Y-82585498D01*
X192334506Y-82644463D01*
X192237815Y-82723815D01*
X192158463Y-82820506D01*
X192149000Y-82838210D01*
X192139537Y-82820506D01*
X192060185Y-82723815D01*
X192025000Y-82694940D01*
X192025000Y-81441978D01*
X192119506Y-81519537D01*
X192229820Y-81578502D01*
X192349518Y-81614812D01*
X192474000Y-81627072D01*
X192648750Y-81624000D01*
X192807500Y-81465250D01*
X192807500Y-80518000D01*
X193315500Y-80518000D01*
X193315500Y-81465250D01*
X193474250Y-81624000D01*
X193649000Y-81627072D01*
X193773482Y-81614812D01*
X193893180Y-81578502D01*
X194003494Y-81519537D01*
X194100185Y-81440185D01*
X194179537Y-81343494D01*
X194238502Y-81233180D01*
X194274812Y-81113482D01*
X194287072Y-80989000D01*
X194284000Y-80676750D01*
X194125250Y-80518000D01*
X193315500Y-80518000D01*
X192807500Y-80518000D01*
X192787500Y-80518000D01*
X192787500Y-80010000D01*
X192807500Y-80010000D01*
X192807500Y-79062750D01*
X193315500Y-79062750D01*
X193315500Y-80010000D01*
X194125250Y-80010000D01*
X194284000Y-79851250D01*
X194287072Y-79539000D01*
X194274812Y-79414518D01*
X194238502Y-79294820D01*
X194179537Y-79184506D01*
X194100185Y-79087815D01*
X194003494Y-79008463D01*
X193893180Y-78949498D01*
X193773482Y-78913188D01*
X193649000Y-78900928D01*
X193474250Y-78904000D01*
X193315500Y-79062750D01*
X192807500Y-79062750D01*
X192648750Y-78904000D01*
X192474000Y-78900928D01*
X192349518Y-78913188D01*
X192229820Y-78949498D01*
X192119506Y-79008463D01*
X192022815Y-79087815D01*
X191957342Y-79167594D01*
X191951962Y-79161038D01*
X191817386Y-79050595D01*
X191663850Y-78968528D01*
X191497254Y-78917992D01*
X191324000Y-78900928D01*
X190649000Y-78900928D01*
X190475746Y-78917992D01*
X190309150Y-78968528D01*
X190155614Y-79050595D01*
X190021038Y-79161038D01*
X189910595Y-79295614D01*
X189828528Y-79449150D01*
X189777992Y-79615746D01*
X189760928Y-79789000D01*
X189760928Y-80739000D01*
X189777992Y-80912254D01*
X189828528Y-81078850D01*
X189910595Y-81232386D01*
X189993001Y-81332798D01*
X189993000Y-82694939D01*
X189957815Y-82723815D01*
X189878463Y-82820506D01*
X189869000Y-82838210D01*
X189859537Y-82820506D01*
X189780185Y-82723815D01*
X189745000Y-82694940D01*
X189745000Y-79386340D01*
X191060269Y-78071072D01*
X191324000Y-78071072D01*
X191497254Y-78054008D01*
X191663850Y-78003472D01*
X191817386Y-77921405D01*
X191951962Y-77810962D01*
X191957342Y-77804406D01*
X192022815Y-77884185D01*
X192119506Y-77963537D01*
X192229820Y-78022502D01*
X192349518Y-78058812D01*
X192474000Y-78071072D01*
X192648750Y-78068000D01*
X192807500Y-77909250D01*
X192807500Y-76962000D01*
X193315500Y-76962000D01*
X193315500Y-77909250D01*
X193474250Y-78068000D01*
X193649000Y-78071072D01*
X193773482Y-78058812D01*
X193893180Y-78022502D01*
X194003494Y-77963537D01*
X194100185Y-77884185D01*
X194179537Y-77787494D01*
X194238502Y-77677180D01*
X194274812Y-77557482D01*
X194287072Y-77433000D01*
X194284000Y-77120750D01*
X194125250Y-76962000D01*
X193315500Y-76962000D01*
X192807500Y-76962000D01*
X192787500Y-76962000D01*
X192787500Y-76454000D01*
X192807500Y-76454000D01*
X192807500Y-75506750D01*
X193315500Y-75506750D01*
X193315500Y-76454000D01*
X194125250Y-76454000D01*
X194284000Y-76295250D01*
X194287072Y-75983000D01*
X194274812Y-75858518D01*
X194238502Y-75738820D01*
X194179537Y-75628506D01*
X194100185Y-75531815D01*
X194003494Y-75452463D01*
X193893180Y-75393498D01*
X193773482Y-75357188D01*
X193649000Y-75344928D01*
X193474250Y-75348000D01*
X193315500Y-75506750D01*
X192807500Y-75506750D01*
X192648750Y-75348000D01*
X192474000Y-75344928D01*
X192349518Y-75357188D01*
X192229820Y-75393498D01*
X192119506Y-75452463D01*
X192022815Y-75531815D01*
X192002500Y-75556569D01*
X192002500Y-71665206D01*
X192138009Y-71791688D01*
X192385486Y-71944990D01*
X192560245Y-72017368D01*
X192786000Y-71913700D01*
X192786000Y-70866000D01*
X193294000Y-70866000D01*
X193294000Y-71913700D01*
X193519755Y-72017368D01*
X193694514Y-71944990D01*
X193941991Y-71791688D01*
X194154805Y-71593051D01*
X194324778Y-71356713D01*
X194445378Y-71091756D01*
X194344376Y-70866000D01*
X193294000Y-70866000D01*
X192786000Y-70866000D01*
X192766000Y-70866000D01*
X192766000Y-70358000D01*
X192786000Y-70358000D01*
X192786000Y-69310300D01*
X193294000Y-69310300D01*
X193294000Y-70358000D01*
X194344376Y-70358000D01*
X194445378Y-70132244D01*
X194324778Y-69867287D01*
X194154805Y-69630949D01*
X193941991Y-69432312D01*
X193694514Y-69279010D01*
X193519755Y-69206632D01*
X193294000Y-69310300D01*
X192786000Y-69310300D01*
X192560245Y-69206632D01*
X192385486Y-69279010D01*
X192138009Y-69432312D01*
X191963090Y-69595579D01*
X191939502Y-69517820D01*
X191880537Y-69407506D01*
X191801185Y-69310815D01*
X191704494Y-69231463D01*
X191594180Y-69172498D01*
X191474482Y-69136188D01*
X191350000Y-69123928D01*
X189650000Y-69123928D01*
X189525518Y-69136188D01*
X189405820Y-69172498D01*
X189295506Y-69231463D01*
X189198815Y-69310815D01*
X189119463Y-69407506D01*
X189060498Y-69517820D01*
X189024188Y-69637518D01*
X189011928Y-69762000D01*
X189011928Y-71462000D01*
X189024188Y-71586482D01*
X189060498Y-71706180D01*
X189119463Y-71816494D01*
X189198815Y-71913185D01*
X189295506Y-71992537D01*
X189405820Y-72051502D01*
X189525518Y-72087812D01*
X189650000Y-72100072D01*
X189970501Y-72100072D01*
X189970500Y-75666619D01*
X189910595Y-75739614D01*
X189828528Y-75893150D01*
X189777992Y-76059746D01*
X189760928Y-76233000D01*
X189760928Y-76496731D01*
X188045872Y-78211788D01*
X188007104Y-78243604D01*
X187880140Y-78398310D01*
X187785798Y-78574814D01*
X187727702Y-78766329D01*
X187727702Y-78766330D01*
X187708085Y-78965500D01*
X187713000Y-79015402D01*
X187713001Y-82694939D01*
X187677815Y-82723815D01*
X187598463Y-82820506D01*
X187539498Y-82930820D01*
X187503188Y-83050518D01*
X187490928Y-83175000D01*
X187490928Y-83259000D01*
X185279841Y-83259000D01*
X184718072Y-82697231D01*
X184718072Y-81096000D01*
X184705812Y-80971518D01*
X184669502Y-80851820D01*
X184610537Y-80741506D01*
X184531185Y-80644815D01*
X184434494Y-80565463D01*
X184324180Y-80506498D01*
X184204482Y-80470188D01*
X184080000Y-80457928D01*
X181680000Y-80457928D01*
X181555518Y-80470188D01*
X181435820Y-80506498D01*
X181325506Y-80565463D01*
X181228815Y-80644815D01*
X181149463Y-80741506D01*
X181090498Y-80851820D01*
X181054188Y-80971518D01*
X181041928Y-81096000D01*
X181041928Y-81534000D01*
X179832000Y-81534000D01*
X179832000Y-75149446D01*
X179838524Y-75142922D01*
X179882133Y-75107133D01*
X180024968Y-74933089D01*
X180131103Y-74734523D01*
X180176635Y-74584426D01*
X180196461Y-74519068D01*
X180198694Y-74496400D01*
X180213000Y-74351146D01*
X180213000Y-74351140D01*
X180218529Y-74295001D01*
X180213000Y-74238862D01*
X180213000Y-74055140D01*
X180396345Y-73831734D01*
X180543755Y-73555948D01*
X180634530Y-73256703D01*
X180657500Y-73023485D01*
X180657500Y-72772514D01*
X180634530Y-72539296D01*
X180543755Y-72240051D01*
X180396345Y-71964265D01*
X180213000Y-71740860D01*
X180213000Y-70699889D01*
X180218529Y-70643750D01*
X180213000Y-70587611D01*
X180213000Y-70587604D01*
X180196461Y-70419683D01*
X180196461Y-70419682D01*
X180131103Y-70204226D01*
X180073897Y-70097202D01*
X180024968Y-70005661D01*
X179882133Y-69831617D01*
X179838524Y-69795828D01*
X179832000Y-69789304D01*
X179832000Y-65532000D01*
X197993000Y-65532000D01*
X197993000Y-89686000D01*
%TA.AperFunction,Conductor*%
D31*
G36*
X197993000Y-89686000D02*
G01*
X194547072Y-89686000D01*
X194547072Y-87375000D01*
X194534812Y-87250518D01*
X194498502Y-87130820D01*
X194439537Y-87020506D01*
X194360185Y-86923815D01*
X194263494Y-86844463D01*
X194153180Y-86785498D01*
X194033482Y-86749188D01*
X193909000Y-86736928D01*
X192025000Y-86736928D01*
X192025000Y-85855060D01*
X192060185Y-85826185D01*
X192139537Y-85729494D01*
X192149000Y-85711790D01*
X192158463Y-85729494D01*
X192237815Y-85826185D01*
X192334506Y-85905537D01*
X192444820Y-85964502D01*
X192564518Y-86000812D01*
X192689000Y-86013072D01*
X192876250Y-86010000D01*
X193035000Y-85851250D01*
X193035000Y-84529000D01*
X193543000Y-84529000D01*
X193543000Y-85851250D01*
X193701750Y-86010000D01*
X193889000Y-86013072D01*
X194013482Y-86000812D01*
X194133180Y-85964502D01*
X194243494Y-85905537D01*
X194340185Y-85826185D01*
X194419537Y-85729494D01*
X194478502Y-85619180D01*
X194514812Y-85499482D01*
X194527072Y-85375000D01*
X194524000Y-84687750D01*
X194365250Y-84529000D01*
X193543000Y-84529000D01*
X193035000Y-84529000D01*
X193015000Y-84529000D01*
X193015000Y-84021000D01*
X193035000Y-84021000D01*
X193035000Y-82698750D01*
X193543000Y-82698750D01*
X193543000Y-84021000D01*
X194365250Y-84021000D01*
X194524000Y-83862250D01*
X194527072Y-83175000D01*
X194514812Y-83050518D01*
X194478502Y-82930820D01*
X194419537Y-82820506D01*
X194340185Y-82723815D01*
X194243494Y-82644463D01*
X194133180Y-82585498D01*
X194013482Y-82549188D01*
X193889000Y-82536928D01*
X193701750Y-82540000D01*
X193543000Y-82698750D01*
X193035000Y-82698750D01*
X192876250Y-82540000D01*
X192689000Y-82536928D01*
X192564518Y-82549188D01*
X192444820Y-82585498D01*
X192334506Y-82644463D01*
X192237815Y-82723815D01*
X192158463Y-82820506D01*
X192149000Y-82838210D01*
X192139537Y-82820506D01*
X192060185Y-82723815D01*
X192025000Y-82694940D01*
X192025000Y-81441978D01*
X192119506Y-81519537D01*
X192229820Y-81578502D01*
X192349518Y-81614812D01*
X192474000Y-81627072D01*
X192648750Y-81624000D01*
X192807500Y-81465250D01*
X192807500Y-80518000D01*
X193315500Y-80518000D01*
X193315500Y-81465250D01*
X193474250Y-81624000D01*
X193649000Y-81627072D01*
X193773482Y-81614812D01*
X193893180Y-81578502D01*
X194003494Y-81519537D01*
X194100185Y-81440185D01*
X194179537Y-81343494D01*
X194238502Y-81233180D01*
X194274812Y-81113482D01*
X194287072Y-80989000D01*
X194284000Y-80676750D01*
X194125250Y-80518000D01*
X193315500Y-80518000D01*
X192807500Y-80518000D01*
X192787500Y-80518000D01*
X192787500Y-80010000D01*
X192807500Y-80010000D01*
X192807500Y-79062750D01*
X193315500Y-79062750D01*
X193315500Y-80010000D01*
X194125250Y-80010000D01*
X194284000Y-79851250D01*
X194287072Y-79539000D01*
X194274812Y-79414518D01*
X194238502Y-79294820D01*
X194179537Y-79184506D01*
X194100185Y-79087815D01*
X194003494Y-79008463D01*
X193893180Y-78949498D01*
X193773482Y-78913188D01*
X193649000Y-78900928D01*
X193474250Y-78904000D01*
X193315500Y-79062750D01*
X192807500Y-79062750D01*
X192648750Y-78904000D01*
X192474000Y-78900928D01*
X192349518Y-78913188D01*
X192229820Y-78949498D01*
X192119506Y-79008463D01*
X192022815Y-79087815D01*
X191957342Y-79167594D01*
X191951962Y-79161038D01*
X191817386Y-79050595D01*
X191663850Y-78968528D01*
X191497254Y-78917992D01*
X191324000Y-78900928D01*
X190649000Y-78900928D01*
X190475746Y-78917992D01*
X190309150Y-78968528D01*
X190155614Y-79050595D01*
X190021038Y-79161038D01*
X189910595Y-79295614D01*
X189828528Y-79449150D01*
X189777992Y-79615746D01*
X189760928Y-79789000D01*
X189760928Y-80739000D01*
X189777992Y-80912254D01*
X189828528Y-81078850D01*
X189910595Y-81232386D01*
X189993001Y-81332798D01*
X189993000Y-82694939D01*
X189957815Y-82723815D01*
X189878463Y-82820506D01*
X189869000Y-82838210D01*
X189859537Y-82820506D01*
X189780185Y-82723815D01*
X189745000Y-82694940D01*
X189745000Y-79386340D01*
X191060269Y-78071072D01*
X191324000Y-78071072D01*
X191497254Y-78054008D01*
X191663850Y-78003472D01*
X191817386Y-77921405D01*
X191951962Y-77810962D01*
X191957342Y-77804406D01*
X192022815Y-77884185D01*
X192119506Y-77963537D01*
X192229820Y-78022502D01*
X192349518Y-78058812D01*
X192474000Y-78071072D01*
X192648750Y-78068000D01*
X192807500Y-77909250D01*
X192807500Y-76962000D01*
X193315500Y-76962000D01*
X193315500Y-77909250D01*
X193474250Y-78068000D01*
X193649000Y-78071072D01*
X193773482Y-78058812D01*
X193893180Y-78022502D01*
X194003494Y-77963537D01*
X194100185Y-77884185D01*
X194179537Y-77787494D01*
X194238502Y-77677180D01*
X194274812Y-77557482D01*
X194287072Y-77433000D01*
X194284000Y-77120750D01*
X194125250Y-76962000D01*
X193315500Y-76962000D01*
X192807500Y-76962000D01*
X192787500Y-76962000D01*
X192787500Y-76454000D01*
X192807500Y-76454000D01*
X192807500Y-75506750D01*
X193315500Y-75506750D01*
X193315500Y-76454000D01*
X194125250Y-76454000D01*
X194284000Y-76295250D01*
X194287072Y-75983000D01*
X194274812Y-75858518D01*
X194238502Y-75738820D01*
X194179537Y-75628506D01*
X194100185Y-75531815D01*
X194003494Y-75452463D01*
X193893180Y-75393498D01*
X193773482Y-75357188D01*
X193649000Y-75344928D01*
X193474250Y-75348000D01*
X193315500Y-75506750D01*
X192807500Y-75506750D01*
X192648750Y-75348000D01*
X192474000Y-75344928D01*
X192349518Y-75357188D01*
X192229820Y-75393498D01*
X192119506Y-75452463D01*
X192022815Y-75531815D01*
X192002500Y-75556569D01*
X192002500Y-71665206D01*
X192138009Y-71791688D01*
X192385486Y-71944990D01*
X192560245Y-72017368D01*
X192786000Y-71913700D01*
X192786000Y-70866000D01*
X193294000Y-70866000D01*
X193294000Y-71913700D01*
X193519755Y-72017368D01*
X193694514Y-71944990D01*
X193941991Y-71791688D01*
X194154805Y-71593051D01*
X194324778Y-71356713D01*
X194445378Y-71091756D01*
X194344376Y-70866000D01*
X193294000Y-70866000D01*
X192786000Y-70866000D01*
X192766000Y-70866000D01*
X192766000Y-70358000D01*
X192786000Y-70358000D01*
X192786000Y-69310300D01*
X193294000Y-69310300D01*
X193294000Y-70358000D01*
X194344376Y-70358000D01*
X194445378Y-70132244D01*
X194324778Y-69867287D01*
X194154805Y-69630949D01*
X193941991Y-69432312D01*
X193694514Y-69279010D01*
X193519755Y-69206632D01*
X193294000Y-69310300D01*
X192786000Y-69310300D01*
X192560245Y-69206632D01*
X192385486Y-69279010D01*
X192138009Y-69432312D01*
X191963090Y-69595579D01*
X191939502Y-69517820D01*
X191880537Y-69407506D01*
X191801185Y-69310815D01*
X191704494Y-69231463D01*
X191594180Y-69172498D01*
X191474482Y-69136188D01*
X191350000Y-69123928D01*
X189650000Y-69123928D01*
X189525518Y-69136188D01*
X189405820Y-69172498D01*
X189295506Y-69231463D01*
X189198815Y-69310815D01*
X189119463Y-69407506D01*
X189060498Y-69517820D01*
X189024188Y-69637518D01*
X189011928Y-69762000D01*
X189011928Y-71462000D01*
X189024188Y-71586482D01*
X189060498Y-71706180D01*
X189119463Y-71816494D01*
X189198815Y-71913185D01*
X189295506Y-71992537D01*
X189405820Y-72051502D01*
X189525518Y-72087812D01*
X189650000Y-72100072D01*
X189970501Y-72100072D01*
X189970500Y-75666619D01*
X189910595Y-75739614D01*
X189828528Y-75893150D01*
X189777992Y-76059746D01*
X189760928Y-76233000D01*
X189760928Y-76496731D01*
X188045872Y-78211788D01*
X188007104Y-78243604D01*
X187880140Y-78398310D01*
X187785798Y-78574814D01*
X187727702Y-78766329D01*
X187727702Y-78766330D01*
X187708085Y-78965500D01*
X187713000Y-79015402D01*
X187713001Y-82694939D01*
X187677815Y-82723815D01*
X187598463Y-82820506D01*
X187539498Y-82930820D01*
X187503188Y-83050518D01*
X187490928Y-83175000D01*
X187490928Y-83259000D01*
X185279841Y-83259000D01*
X184718072Y-82697231D01*
X184718072Y-81096000D01*
X184705812Y-80971518D01*
X184669502Y-80851820D01*
X184610537Y-80741506D01*
X184531185Y-80644815D01*
X184434494Y-80565463D01*
X184324180Y-80506498D01*
X184204482Y-80470188D01*
X184080000Y-80457928D01*
X181680000Y-80457928D01*
X181555518Y-80470188D01*
X181435820Y-80506498D01*
X181325506Y-80565463D01*
X181228815Y-80644815D01*
X181149463Y-80741506D01*
X181090498Y-80851820D01*
X181054188Y-80971518D01*
X181041928Y-81096000D01*
X181041928Y-81534000D01*
X179832000Y-81534000D01*
X179832000Y-75149446D01*
X179838524Y-75142922D01*
X179882133Y-75107133D01*
X180024968Y-74933089D01*
X180131103Y-74734523D01*
X180176635Y-74584426D01*
X180196461Y-74519068D01*
X180198694Y-74496400D01*
X180213000Y-74351146D01*
X180213000Y-74351140D01*
X180218529Y-74295001D01*
X180213000Y-74238862D01*
X180213000Y-74055140D01*
X180396345Y-73831734D01*
X180543755Y-73555948D01*
X180634530Y-73256703D01*
X180657500Y-73023485D01*
X180657500Y-72772514D01*
X180634530Y-72539296D01*
X180543755Y-72240051D01*
X180396345Y-71964265D01*
X180213000Y-71740860D01*
X180213000Y-70699889D01*
X180218529Y-70643750D01*
X180213000Y-70587611D01*
X180213000Y-70587604D01*
X180196461Y-70419683D01*
X180196461Y-70419682D01*
X180131103Y-70204226D01*
X180073897Y-70097202D01*
X180024968Y-70005661D01*
X179882133Y-69831617D01*
X179838524Y-69795828D01*
X179832000Y-69789304D01*
X179832000Y-65532000D01*
X197993000Y-65532000D01*
X197993000Y-89686000D01*
G37*
%TD.AperFunction*%
D30*
X179832000Y-83907160D02*
X179832000Y-83566000D01*
X180173160Y-83566000D01*
X179832000Y-83907160D01*
%TA.AperFunction,Conductor*%
D31*
G36*
X179832000Y-83907160D02*
G01*
X179832000Y-83566000D01*
X180173160Y-83566000D01*
X179832000Y-83907160D01*
G37*
%TD.AperFunction*%
%TD*%
M02*
