M48
; DRILL file {KiCad (5.1.9)-1} date 11/26/21 18:48:56
; FORMAT={-:-/ absolute / inch / decimal}
; #@! TF.CreationDate,2021-11-26T18:48:56-05:00
; #@! TF.GenerationSoftware,Kicad,Pcbnew,(5.1.9)-1
; #@! TF.FileFunction,Plated,1,2,PTH
FMAT,2
INCH
T1C0.0157
T2C0.0197
T3C0.0315
T4C0.0354
T5C0.0394
T6C0.0433
T7C0.0472
T8C0.0551
%
G90
G05
T1
X6.2Y-4.84
X7.14Y-4.86
X7.7Y-4.625
X7.775Y-4.55
X7.94Y-4.24
X8.15Y-3.95
X8.15Y-4.05
X8.375Y-4.0
X8.45Y-3.7
T2
X6.25Y-3.0
X6.25Y-4.5
X6.4Y-3.0
X6.4Y-4.5
X6.5Y-3.85
X7.075Y-3.85
X7.52Y-3.22
X7.58Y-2.96
X8.0Y-2.96
X8.225Y-3.85
X8.325Y-3.575
T3
X6.5Y-4.1
X6.5Y-4.2
X6.5Y-4.3
X6.5Y-4.4
X6.68Y-3.25
X6.68Y-3.35
X6.68Y-3.45
X6.68Y-3.55
X6.8Y-4.1
X6.8Y-4.2
X6.8Y-4.3
X6.8Y-4.4
X6.98Y-3.25
X6.98Y-3.35
X6.98Y-3.45
X6.98Y-3.55
T4
X7.3Y-3.95
X7.3Y-4.05
X7.3Y-4.15
X7.3Y-4.25
X7.3Y-4.35
X7.3Y-4.45
X7.7Y-3.95
X7.7Y-4.05
X7.7Y-4.15
X7.7Y-4.25
X7.7Y-4.35
X7.7Y-4.45
T5
X5.575Y-4.225
X5.575Y-4.325
X6.02Y-4.32
X6.02Y-4.42
X6.525Y-3.35
X6.525Y-3.45
X6.525Y-3.55
X6.58Y-4.94
X6.58Y-5.04
X7.7Y-3.14
X7.8Y-3.14
X7.965Y-4.71
X8.065Y-4.71
X8.165Y-4.71
T6
X6.83Y-4.75
X6.85Y-2.87
X6.93Y-4.75
X6.95Y-2.87
X7.03Y-4.75
X7.05Y-2.87
X7.64Y-2.715
X7.74Y-2.715
X7.84Y-2.715
T7
X7.52Y-3.4
X7.92Y-3.4
T8
X5.725Y-2.625
X5.725Y-2.875
X5.725Y-3.125
X5.725Y-3.375
X5.725Y-3.625
X5.725Y-3.875
X5.725Y-4.125
X5.725Y-4.375
X5.725Y-4.625
X5.725Y-4.875
X6.325Y-2.625
X6.325Y-2.875
X6.325Y-3.125
X6.325Y-3.375
X6.325Y-3.625
X6.325Y-3.875
X6.325Y-4.125
X6.325Y-4.375
X6.325Y-4.625
X6.325Y-4.875
T0
M30
